M48
; DRILL file {KiCad (5.1.4)-1} date 2/4/2020 2:44:47 PM
; FORMAT={-:-/ absolute / inch / decimal}
; #@! TF.CreationDate,2020-02-04T14:44:47-05:00
; #@! TF.GenerationSoftware,Kicad,Pcbnew,(5.1.4)-1
FMAT,2
INCH
T1C0.0157
T2C0.0394
T3C0.0400
T4C0.1250
%
G90
G05
T1
X4.4098Y-3.4933
X4.5701Y-4.8437
X4.5713Y-4.7441
X4.5874Y-3.737
X4.6543Y-3.6693
X4.7457Y-3.3217
X4.7461Y-3.6949
X4.7776Y-4.9618
X4.7882Y-3.4547
X4.7885Y-3.367
X4.8055Y-4.1118
X4.8461Y-3.8795
X4.848Y-3.4791
X5.173Y-4.4518
X5.1732Y-4.452
X5.1764Y-4.1228
X5.1991Y-3.8727
X5.2146Y-3.7059
X5.2161Y-4.0523
X5.2168Y-3.9787
X5.2587Y-3.9787
X5.2587Y-4.0523
X5.2677Y-3.4324
X5.2728Y-4.0945
X5.2814Y-3.8578
X5.3043Y-3.924
X5.3071Y-4.826
X5.3646Y-3.8736
X5.3877Y-4.7729
X5.4362Y-4.826
X5.448Y-3.5457
X5.4709Y-3.6465
X5.5201Y-3.5457
X5.5626Y-3.3598
X5.5646Y-3.2831
X5.6866Y-4.8902
X5.7941Y-3.3835
X5.8953Y-4.9614
X6.0702Y-4.8279
X6.4331Y-4.9114
X6.568Y-4.8694
X6.568Y-4.9083
X6.568Y-4.9472
X6.8555Y-4.7425
X6.9358Y-3.9287
X6.9476Y-3.785
X7.026Y-3.7846
X7.1055Y-3.5791
X7.1185Y-3.9283
T2
X4.0654Y-3.311
X4.1654Y-3.311
X4.2654Y-3.311
X4.3654Y-3.311
X4.4654Y-3.311
T3
X6.1301Y-3.451
X6.1301Y-3.551
X6.1301Y-3.651
X6.2301Y-3.451
X6.2301Y-3.551
X6.2301Y-3.651
T4
X4.248Y-4.134
X6.918Y-4.134
T0
M30
