G04 #@! TF.GenerationSoftware,KiCad,Pcbnew,(5.1.4)-1*
G04 #@! TF.CreationDate,2019-11-05T16:13:29-05:00*
G04 #@! TF.ProjectId,CellMan,43656c6c-4d61-46e2-9e6b-696361645f70,1.4*
G04 #@! TF.SameCoordinates,Original*
G04 #@! TF.FileFunction,Soldermask,Bot*
G04 #@! TF.FilePolarity,Negative*
%FSLAX46Y46*%
G04 Gerber Fmt 4.6, Leading zero omitted, Abs format (unit mm)*
G04 Created by KiCad (PCBNEW (5.1.4)-1) date 2019-11-05 16:13:29*
%MOMM*%
%LPD*%
G04 APERTURE LIST*
%ADD10C,0.300000*%
%ADD11C,0.100000*%
G04 APERTURE END LIST*
D10*
X119764914Y-84880194D02*
X119836342Y-84951622D01*
X120050628Y-85023051D01*
X120193485Y-85023051D01*
X120407771Y-84951622D01*
X120550628Y-84808765D01*
X120622057Y-84665908D01*
X120693485Y-84380194D01*
X120693485Y-84165908D01*
X120622057Y-83880194D01*
X120550628Y-83737337D01*
X120407771Y-83594480D01*
X120193485Y-83523051D01*
X120050628Y-83523051D01*
X119836342Y-83594480D01*
X119764914Y-83665908D01*
X118907771Y-85023051D02*
X119050628Y-84951622D01*
X119122057Y-84880194D01*
X119193485Y-84737337D01*
X119193485Y-84308765D01*
X119122057Y-84165908D01*
X119050628Y-84094480D01*
X118907771Y-84023051D01*
X118693485Y-84023051D01*
X118550628Y-84094480D01*
X118479200Y-84165908D01*
X118407771Y-84308765D01*
X118407771Y-84737337D01*
X118479200Y-84880194D01*
X118550628Y-84951622D01*
X118693485Y-85023051D01*
X118907771Y-85023051D01*
X117764914Y-84023051D02*
X117764914Y-85023051D01*
X117764914Y-84165908D02*
X117693485Y-84094480D01*
X117550628Y-84023051D01*
X117336342Y-84023051D01*
X117193485Y-84094480D01*
X117122057Y-84237337D01*
X117122057Y-85023051D01*
X116407771Y-84023051D02*
X116407771Y-85023051D01*
X116407771Y-84165908D02*
X116336342Y-84094480D01*
X116193485Y-84023051D01*
X115979200Y-84023051D01*
X115836342Y-84094480D01*
X115764914Y-84237337D01*
X115764914Y-85023051D01*
X114836342Y-85023051D02*
X114979200Y-84951622D01*
X115050628Y-84880194D01*
X115122057Y-84737337D01*
X115122057Y-84308765D01*
X115050628Y-84165908D01*
X114979200Y-84094480D01*
X114836342Y-84023051D01*
X114622057Y-84023051D01*
X114479200Y-84094480D01*
X114407771Y-84165908D01*
X114336342Y-84308765D01*
X114336342Y-84737337D01*
X114407771Y-84880194D01*
X114479200Y-84951622D01*
X114622057Y-85023051D01*
X114836342Y-85023051D01*
X113693485Y-85023051D02*
X113693485Y-84023051D01*
X113693485Y-84308765D02*
X113622057Y-84165908D01*
X113550628Y-84094480D01*
X113407771Y-84023051D01*
X113264914Y-84023051D01*
X120764914Y-86073051D02*
X120407771Y-87573051D01*
X120122057Y-86501622D01*
X119836342Y-87573051D01*
X119479200Y-86073051D01*
X118907771Y-87573051D02*
X118907771Y-86573051D01*
X118907771Y-86073051D02*
X118979200Y-86144480D01*
X118907771Y-86215908D01*
X118836342Y-86144480D01*
X118907771Y-86073051D01*
X118907771Y-86215908D01*
X118193485Y-86573051D02*
X118193485Y-87573051D01*
X118193485Y-86715908D02*
X118122057Y-86644480D01*
X117979200Y-86573051D01*
X117764914Y-86573051D01*
X117622057Y-86644480D01*
X117550628Y-86787337D01*
X117550628Y-87573051D01*
X116836342Y-87573051D02*
X116836342Y-86573051D01*
X116836342Y-86073051D02*
X116907771Y-86144480D01*
X116836342Y-86215908D01*
X116764914Y-86144480D01*
X116836342Y-86073051D01*
X116836342Y-86215908D01*
X115479200Y-87573051D02*
X115479200Y-86787337D01*
X115550628Y-86644480D01*
X115693485Y-86573051D01*
X115979200Y-86573051D01*
X116122057Y-86644480D01*
X115479200Y-87501622D02*
X115622057Y-87573051D01*
X115979200Y-87573051D01*
X116122057Y-87501622D01*
X116193485Y-87358765D01*
X116193485Y-87215908D01*
X116122057Y-87073051D01*
X115979200Y-87001622D01*
X115622057Y-87001622D01*
X115479200Y-86930194D01*
X114764914Y-87573051D02*
X114764914Y-86573051D01*
X114764914Y-86858765D02*
X114693485Y-86715908D01*
X114622057Y-86644480D01*
X114479200Y-86573051D01*
X114336342Y-86573051D01*
X113193485Y-87501622D02*
X113336342Y-87573051D01*
X113622057Y-87573051D01*
X113764914Y-87501622D01*
X113836342Y-87430194D01*
X113907771Y-87287337D01*
X113907771Y-86858765D01*
X113836342Y-86715908D01*
X113764914Y-86644480D01*
X113622057Y-86573051D01*
X113336342Y-86573051D01*
X113193485Y-86644480D01*
X112693485Y-86573051D02*
X111907771Y-86573051D01*
X112693485Y-87573051D01*
X111907771Y-87573051D01*
X111479200Y-86573051D02*
X111122057Y-87573051D01*
X110764914Y-86573051D02*
X111122057Y-87573051D01*
X111264914Y-87930194D01*
X111336342Y-88001622D01*
X111479200Y-88073051D01*
X110193485Y-87573051D02*
X110193485Y-86073051D01*
X110050628Y-87001622D02*
X109622057Y-87573051D01*
X109622057Y-86573051D02*
X110193485Y-87144480D01*
X107764914Y-86073051D02*
X107907771Y-86358765D01*
X107193485Y-86215908D02*
X107122057Y-86144480D01*
X106979200Y-86073051D01*
X106622057Y-86073051D01*
X106479200Y-86144480D01*
X106407771Y-86215908D01*
X106336342Y-86358765D01*
X106336342Y-86501622D01*
X106407771Y-86715908D01*
X107264914Y-87573051D01*
X106336342Y-87573051D01*
X105407771Y-86073051D02*
X105264914Y-86073051D01*
X105122057Y-86144480D01*
X105050628Y-86215908D01*
X104979200Y-86358765D01*
X104907771Y-86644480D01*
X104907771Y-87001622D01*
X104979200Y-87287337D01*
X105050628Y-87430194D01*
X105122057Y-87501622D01*
X105264914Y-87573051D01*
X105407771Y-87573051D01*
X105550628Y-87501622D01*
X105622057Y-87430194D01*
X105693485Y-87287337D01*
X105764914Y-87001622D01*
X105764914Y-86644480D01*
X105693485Y-86358765D01*
X105622057Y-86215908D01*
X105550628Y-86144480D01*
X105407771Y-86073051D01*
D11*
G36*
X184133211Y-118054975D02*
G01*
X184835868Y-118346025D01*
X185468244Y-118768565D01*
X186006035Y-119306356D01*
X186428575Y-119938732D01*
X186719625Y-120641389D01*
X186868000Y-121387323D01*
X186868000Y-122147877D01*
X186719625Y-122893811D01*
X186428575Y-123596468D01*
X186006035Y-124228844D01*
X185468244Y-124766635D01*
X184835868Y-125189175D01*
X184133211Y-125480225D01*
X183387277Y-125628600D01*
X182626723Y-125628600D01*
X181880789Y-125480225D01*
X181178132Y-125189175D01*
X180545756Y-124766635D01*
X180007965Y-124228844D01*
X179585425Y-123596468D01*
X179294375Y-122893811D01*
X179146000Y-122147877D01*
X179146000Y-121387323D01*
X179294375Y-120641389D01*
X179585425Y-119938732D01*
X180007965Y-119306356D01*
X180545756Y-118768565D01*
X181178132Y-118346025D01*
X181880789Y-118054975D01*
X182626723Y-117906600D01*
X183387277Y-117906600D01*
X184133211Y-118054975D01*
X184133211Y-118054975D01*
G37*
G36*
X98794291Y-118054975D02*
G01*
X99496948Y-118346025D01*
X100129324Y-118768565D01*
X100667115Y-119306356D01*
X101089655Y-119938732D01*
X101380705Y-120641389D01*
X101529080Y-121387323D01*
X101529080Y-122147877D01*
X101380705Y-122893811D01*
X101089655Y-123596468D01*
X100667115Y-124228844D01*
X100129324Y-124766635D01*
X99496948Y-125189175D01*
X98794291Y-125480225D01*
X98048357Y-125628600D01*
X97287803Y-125628600D01*
X96541869Y-125480225D01*
X95839212Y-125189175D01*
X95206836Y-124766635D01*
X94669045Y-124228844D01*
X94246505Y-123596468D01*
X93955455Y-122893811D01*
X93807080Y-122147877D01*
X93807080Y-121387323D01*
X93955455Y-120641389D01*
X94246505Y-119938732D01*
X94669045Y-119306356D01*
X95206836Y-118768565D01*
X95839212Y-118346025D01*
X96541869Y-118054975D01*
X97287803Y-117906600D01*
X98048357Y-117906600D01*
X98794291Y-118054975D01*
X98794291Y-118054975D01*
G37*
G36*
X110121000Y-122821000D02*
G01*
X108319000Y-122821000D01*
X108319000Y-121019000D01*
X110121000Y-121019000D01*
X110121000Y-122821000D01*
X110121000Y-122821000D01*
G37*
G36*
X172830442Y-121025518D02*
G01*
X172896627Y-121032037D01*
X173066466Y-121083557D01*
X173222991Y-121167222D01*
X173232695Y-121175186D01*
X173360186Y-121279814D01*
X173435382Y-121371442D01*
X173472778Y-121417009D01*
X173556443Y-121573534D01*
X173607963Y-121743373D01*
X173625359Y-121920000D01*
X173607963Y-122096627D01*
X173556443Y-122266466D01*
X173472778Y-122422991D01*
X173443448Y-122458729D01*
X173360186Y-122560186D01*
X173258729Y-122643448D01*
X173222991Y-122672778D01*
X173066466Y-122756443D01*
X172896627Y-122807963D01*
X172830443Y-122814481D01*
X172764260Y-122821000D01*
X172675740Y-122821000D01*
X172609557Y-122814481D01*
X172543373Y-122807963D01*
X172373534Y-122756443D01*
X172217009Y-122672778D01*
X172181271Y-122643448D01*
X172079814Y-122560186D01*
X171996552Y-122458729D01*
X171967222Y-122422991D01*
X171883557Y-122266466D01*
X171832037Y-122096627D01*
X171814641Y-121920000D01*
X171832037Y-121743373D01*
X171883557Y-121573534D01*
X171967222Y-121417009D01*
X172004618Y-121371442D01*
X172079814Y-121279814D01*
X172207305Y-121175186D01*
X172217009Y-121167222D01*
X172373534Y-121083557D01*
X172543373Y-121032037D01*
X172609558Y-121025518D01*
X172675740Y-121019000D01*
X172764260Y-121019000D01*
X172830442Y-121025518D01*
X172830442Y-121025518D01*
G37*
G36*
X171081000Y-122821000D02*
G01*
X169279000Y-122821000D01*
X169279000Y-121019000D01*
X171081000Y-121019000D01*
X171081000Y-122821000D01*
X171081000Y-122821000D01*
G37*
G36*
X111870442Y-121025518D02*
G01*
X111936627Y-121032037D01*
X112106466Y-121083557D01*
X112262991Y-121167222D01*
X112272695Y-121175186D01*
X112400186Y-121279814D01*
X112475382Y-121371442D01*
X112512778Y-121417009D01*
X112596443Y-121573534D01*
X112647963Y-121743373D01*
X112665359Y-121920000D01*
X112647963Y-122096627D01*
X112596443Y-122266466D01*
X112512778Y-122422991D01*
X112483448Y-122458729D01*
X112400186Y-122560186D01*
X112298729Y-122643448D01*
X112262991Y-122672778D01*
X112106466Y-122756443D01*
X111936627Y-122807963D01*
X111870443Y-122814481D01*
X111804260Y-122821000D01*
X111715740Y-122821000D01*
X111649557Y-122814481D01*
X111583373Y-122807963D01*
X111413534Y-122756443D01*
X111257009Y-122672778D01*
X111221271Y-122643448D01*
X111119814Y-122560186D01*
X111036552Y-122458729D01*
X111007222Y-122422991D01*
X110923557Y-122266466D01*
X110872037Y-122096627D01*
X110854641Y-121920000D01*
X110872037Y-121743373D01*
X110923557Y-121573534D01*
X111007222Y-121417009D01*
X111044618Y-121371442D01*
X111119814Y-121279814D01*
X111247305Y-121175186D01*
X111257009Y-121167222D01*
X111413534Y-121083557D01*
X111583373Y-121032037D01*
X111649558Y-121025518D01*
X111715740Y-121019000D01*
X111804260Y-121019000D01*
X111870442Y-121025518D01*
X111870442Y-121025518D01*
G37*
G36*
X153476000Y-121436000D02*
G01*
X151674000Y-121436000D01*
X151674000Y-119634000D01*
X153476000Y-119634000D01*
X153476000Y-121436000D01*
X153476000Y-121436000D01*
G37*
G36*
X155225443Y-119640519D02*
G01*
X155291627Y-119647037D01*
X155461466Y-119698557D01*
X155617991Y-119782222D01*
X155653729Y-119811552D01*
X155755186Y-119894814D01*
X155838448Y-119996271D01*
X155867778Y-120032009D01*
X155951443Y-120188534D01*
X156002963Y-120358373D01*
X156020359Y-120535000D01*
X156002963Y-120711627D01*
X155951443Y-120881466D01*
X155867778Y-121037991D01*
X155838448Y-121073729D01*
X155755186Y-121175186D01*
X155653729Y-121258448D01*
X155617991Y-121287778D01*
X155461466Y-121371443D01*
X155291627Y-121422963D01*
X155225443Y-121429481D01*
X155159260Y-121436000D01*
X155070740Y-121436000D01*
X155004557Y-121429481D01*
X154938373Y-121422963D01*
X154768534Y-121371443D01*
X154612009Y-121287778D01*
X154576271Y-121258448D01*
X154474814Y-121175186D01*
X154391552Y-121073729D01*
X154362222Y-121037991D01*
X154278557Y-120881466D01*
X154227037Y-120711627D01*
X154209641Y-120535000D01*
X154227037Y-120358373D01*
X154278557Y-120188534D01*
X154362222Y-120032009D01*
X154391552Y-119996271D01*
X154474814Y-119894814D01*
X154576271Y-119811552D01*
X154612009Y-119782222D01*
X154768534Y-119698557D01*
X154938373Y-119647037D01*
X155004557Y-119640519D01*
X155070740Y-119634000D01*
X155159260Y-119634000D01*
X155225443Y-119640519D01*
X155225443Y-119640519D01*
G37*
G36*
X110754105Y-101824277D02*
G01*
X111362213Y-102008745D01*
X111922640Y-102308300D01*
X112413864Y-102711436D01*
X112817000Y-103202660D01*
X113116555Y-103763087D01*
X113301023Y-104371195D01*
X113363309Y-105003600D01*
X113301023Y-105636005D01*
X113116555Y-106244113D01*
X112817000Y-106804540D01*
X112413864Y-107295764D01*
X111922640Y-107698900D01*
X111362213Y-107998455D01*
X110754105Y-108182923D01*
X110280184Y-108229600D01*
X105518216Y-108229600D01*
X105044295Y-108182923D01*
X104436187Y-107998455D01*
X103875760Y-107698900D01*
X103384536Y-107295764D01*
X102981400Y-106804540D01*
X102681845Y-106244113D01*
X102497377Y-105636005D01*
X102435091Y-105003600D01*
X102497377Y-104371195D01*
X102681845Y-103763087D01*
X102981400Y-103202660D01*
X103384536Y-102711436D01*
X103875760Y-102308300D01*
X104436187Y-102008745D01*
X105044295Y-101824277D01*
X105518216Y-101777600D01*
X110280184Y-101777600D01*
X110754105Y-101824277D01*
X110754105Y-101824277D01*
G37*
G36*
X178572105Y-101824277D02*
G01*
X179180213Y-102008745D01*
X179740640Y-102308300D01*
X180231864Y-102711436D01*
X180635000Y-103202660D01*
X180934555Y-103763087D01*
X181119023Y-104371195D01*
X181181309Y-105003600D01*
X181119023Y-105636005D01*
X180934555Y-106244113D01*
X180635000Y-106804540D01*
X180231864Y-107295764D01*
X179740640Y-107698900D01*
X179180213Y-107998455D01*
X178572105Y-108182923D01*
X178098184Y-108229600D01*
X173336216Y-108229600D01*
X172862295Y-108182923D01*
X172254187Y-107998455D01*
X171693760Y-107698900D01*
X171202536Y-107295764D01*
X170799400Y-106804540D01*
X170499845Y-106244113D01*
X170315377Y-105636005D01*
X170253091Y-105003600D01*
X170315377Y-104371195D01*
X170499845Y-103763087D01*
X170799400Y-103202660D01*
X171202536Y-102711436D01*
X171693760Y-102308300D01*
X172254187Y-102008745D01*
X172862295Y-101824277D01*
X173336216Y-101777600D01*
X178098184Y-101777600D01*
X178572105Y-101824277D01*
X178572105Y-101824277D01*
G37*
G36*
X125253974Y-93408833D02*
G01*
X125426375Y-93461131D01*
X125585263Y-93546058D01*
X125724529Y-93660351D01*
X125838822Y-93799617D01*
X125923749Y-93958505D01*
X125976047Y-94130906D01*
X125993705Y-94310200D01*
X125976047Y-94489494D01*
X125923749Y-94661895D01*
X125838822Y-94820783D01*
X125724529Y-94960049D01*
X125585263Y-95074342D01*
X125426375Y-95159269D01*
X125253974Y-95211567D01*
X125119611Y-95224800D01*
X125029749Y-95224800D01*
X124895386Y-95211567D01*
X124722985Y-95159269D01*
X124564097Y-95074342D01*
X124424831Y-94960049D01*
X124310538Y-94820783D01*
X124225611Y-94661895D01*
X124173313Y-94489494D01*
X124155655Y-94310200D01*
X124173313Y-94130906D01*
X124225611Y-93958505D01*
X124310538Y-93799617D01*
X124424831Y-93660351D01*
X124564097Y-93546058D01*
X124722985Y-93461131D01*
X124895386Y-93408833D01*
X125029749Y-93395600D01*
X125119611Y-93395600D01*
X125253974Y-93408833D01*
X125253974Y-93408833D01*
G37*
G36*
X127793974Y-93408833D02*
G01*
X127966375Y-93461131D01*
X128125263Y-93546058D01*
X128264529Y-93660351D01*
X128378822Y-93799617D01*
X128463749Y-93958505D01*
X128516047Y-94130906D01*
X128533705Y-94310200D01*
X128516047Y-94489494D01*
X128463749Y-94661895D01*
X128378822Y-94820783D01*
X128264529Y-94960049D01*
X128125263Y-95074342D01*
X127966375Y-95159269D01*
X127793974Y-95211567D01*
X127659611Y-95224800D01*
X127569749Y-95224800D01*
X127435386Y-95211567D01*
X127262985Y-95159269D01*
X127104097Y-95074342D01*
X126964831Y-94960049D01*
X126850538Y-94820783D01*
X126765611Y-94661895D01*
X126713313Y-94489494D01*
X126695655Y-94310200D01*
X126713313Y-94130906D01*
X126765611Y-93958505D01*
X126850538Y-93799617D01*
X126964831Y-93660351D01*
X127104097Y-93546058D01*
X127262985Y-93461131D01*
X127435386Y-93408833D01*
X127569749Y-93395600D01*
X127659611Y-93395600D01*
X127793974Y-93408833D01*
X127793974Y-93408833D01*
G37*
G36*
X127793974Y-90868833D02*
G01*
X127966375Y-90921131D01*
X128125263Y-91006058D01*
X128264529Y-91120351D01*
X128378822Y-91259617D01*
X128463749Y-91418505D01*
X128516047Y-91590906D01*
X128533705Y-91770200D01*
X128516047Y-91949494D01*
X128463749Y-92121895D01*
X128378822Y-92280783D01*
X128264529Y-92420049D01*
X128125263Y-92534342D01*
X127966375Y-92619269D01*
X127793974Y-92671567D01*
X127659611Y-92684800D01*
X127569749Y-92684800D01*
X127435386Y-92671567D01*
X127262985Y-92619269D01*
X127104097Y-92534342D01*
X126964831Y-92420049D01*
X126850538Y-92280783D01*
X126765611Y-92121895D01*
X126713313Y-91949494D01*
X126695655Y-91770200D01*
X126713313Y-91590906D01*
X126765611Y-91418505D01*
X126850538Y-91259617D01*
X126964831Y-91120351D01*
X127104097Y-91006058D01*
X127262985Y-90921131D01*
X127435386Y-90868833D01*
X127569749Y-90855600D01*
X127659611Y-90855600D01*
X127793974Y-90868833D01*
X127793974Y-90868833D01*
G37*
G36*
X125253974Y-90868833D02*
G01*
X125426375Y-90921131D01*
X125585263Y-91006058D01*
X125724529Y-91120351D01*
X125838822Y-91259617D01*
X125923749Y-91418505D01*
X125976047Y-91590906D01*
X125993705Y-91770200D01*
X125976047Y-91949494D01*
X125923749Y-92121895D01*
X125838822Y-92280783D01*
X125724529Y-92420049D01*
X125585263Y-92534342D01*
X125426375Y-92619269D01*
X125253974Y-92671567D01*
X125119611Y-92684800D01*
X125029749Y-92684800D01*
X124895386Y-92671567D01*
X124722985Y-92619269D01*
X124564097Y-92534342D01*
X124424831Y-92420049D01*
X124310538Y-92280783D01*
X124225611Y-92121895D01*
X124173313Y-91949494D01*
X124155655Y-91770200D01*
X124173313Y-91590906D01*
X124225611Y-91418505D01*
X124310538Y-91259617D01*
X124424831Y-91120351D01*
X124564097Y-91006058D01*
X124722985Y-90921131D01*
X124895386Y-90868833D01*
X125029749Y-90855600D01*
X125119611Y-90855600D01*
X125253974Y-90868833D01*
X125253974Y-90868833D01*
G37*
G36*
X98794291Y-83272215D02*
G01*
X99496948Y-83563265D01*
X100129324Y-83985805D01*
X100667115Y-84523596D01*
X101089655Y-85155972D01*
X101380705Y-85858629D01*
X101529080Y-86604563D01*
X101529080Y-87365117D01*
X101380705Y-88111051D01*
X101089655Y-88813708D01*
X100667115Y-89446084D01*
X100129324Y-89983875D01*
X99496948Y-90406415D01*
X98794291Y-90697465D01*
X98048357Y-90845840D01*
X97287803Y-90845840D01*
X96541869Y-90697465D01*
X95839212Y-90406415D01*
X95206836Y-89983875D01*
X94669045Y-89446084D01*
X94246505Y-88813708D01*
X93955455Y-88111051D01*
X93807080Y-87365117D01*
X93807080Y-86604563D01*
X93955455Y-85858629D01*
X94246505Y-85155972D01*
X94669045Y-84523596D01*
X95206836Y-83985805D01*
X95839212Y-83563265D01*
X96541869Y-83272215D01*
X97287803Y-83123840D01*
X98048357Y-83123840D01*
X98794291Y-83272215D01*
X98794291Y-83272215D01*
G37*
G36*
X184133211Y-83272215D02*
G01*
X184835868Y-83563265D01*
X185468244Y-83985805D01*
X186006035Y-84523596D01*
X186428575Y-85155972D01*
X186719625Y-85858629D01*
X186868000Y-86604563D01*
X186868000Y-87365117D01*
X186719625Y-88111051D01*
X186428575Y-88813708D01*
X186006035Y-89446084D01*
X185468244Y-89983875D01*
X184835868Y-90406415D01*
X184133211Y-90697465D01*
X183387277Y-90845840D01*
X182626723Y-90845840D01*
X181880789Y-90697465D01*
X181178132Y-90406415D01*
X180545756Y-89983875D01*
X180007965Y-89446084D01*
X179585425Y-88813708D01*
X179294375Y-88111051D01*
X179146000Y-87365117D01*
X179146000Y-86604563D01*
X179294375Y-85858629D01*
X179585425Y-85155972D01*
X180007965Y-84523596D01*
X180545756Y-83985805D01*
X181178132Y-83563265D01*
X181880789Y-83272215D01*
X182626723Y-83123840D01*
X183387277Y-83123840D01*
X184133211Y-83272215D01*
X184133211Y-83272215D01*
G37*
G36*
X127793974Y-88328833D02*
G01*
X127966375Y-88381131D01*
X128125263Y-88466058D01*
X128264529Y-88580351D01*
X128378822Y-88719617D01*
X128463749Y-88878505D01*
X128516047Y-89050906D01*
X128533705Y-89230200D01*
X128516047Y-89409494D01*
X128463749Y-89581895D01*
X128378822Y-89740783D01*
X128264529Y-89880049D01*
X128125263Y-89994342D01*
X127966375Y-90079269D01*
X127793974Y-90131567D01*
X127659611Y-90144800D01*
X127569749Y-90144800D01*
X127435386Y-90131567D01*
X127262985Y-90079269D01*
X127104097Y-89994342D01*
X126964831Y-89880049D01*
X126850538Y-89740783D01*
X126765611Y-89581895D01*
X126713313Y-89409494D01*
X126695655Y-89230200D01*
X126713313Y-89050906D01*
X126765611Y-88878505D01*
X126850538Y-88719617D01*
X126964831Y-88580351D01*
X127104097Y-88466058D01*
X127262985Y-88381131D01*
X127435386Y-88328833D01*
X127569749Y-88315600D01*
X127659611Y-88315600D01*
X127793974Y-88328833D01*
X127793974Y-88328833D01*
G37*
G36*
X125989280Y-90144800D02*
G01*
X124160080Y-90144800D01*
X124160080Y-88315600D01*
X125989280Y-88315600D01*
X125989280Y-90144800D01*
X125989280Y-90144800D01*
G37*
G36*
X171817600Y-90065160D02*
G01*
X170015600Y-90065160D01*
X170015600Y-88263160D01*
X171817600Y-88263160D01*
X171817600Y-90065160D01*
X171817600Y-90065160D01*
G37*
G36*
X173567042Y-88269678D02*
G01*
X173633227Y-88276197D01*
X173803066Y-88327717D01*
X173959591Y-88411382D01*
X173995329Y-88440712D01*
X174096786Y-88523974D01*
X174180048Y-88625431D01*
X174209378Y-88661169D01*
X174293043Y-88817694D01*
X174344563Y-88987533D01*
X174361959Y-89164160D01*
X174344563Y-89340787D01*
X174293043Y-89510626D01*
X174209378Y-89667151D01*
X174180048Y-89702889D01*
X174096786Y-89804346D01*
X174004540Y-89880049D01*
X173959591Y-89916938D01*
X173959589Y-89916939D01*
X173814780Y-89994342D01*
X173803066Y-90000603D01*
X173633227Y-90052123D01*
X173567043Y-90058641D01*
X173500860Y-90065160D01*
X173412340Y-90065160D01*
X173346157Y-90058641D01*
X173279973Y-90052123D01*
X173110134Y-90000603D01*
X173098421Y-89994342D01*
X172953611Y-89916939D01*
X172953609Y-89916938D01*
X172908660Y-89880049D01*
X172816414Y-89804346D01*
X172733152Y-89702889D01*
X172703822Y-89667151D01*
X172620157Y-89510626D01*
X172568637Y-89340787D01*
X172551241Y-89164160D01*
X172568637Y-88987533D01*
X172620157Y-88817694D01*
X172703822Y-88661169D01*
X172733152Y-88625431D01*
X172816414Y-88523974D01*
X172917871Y-88440712D01*
X172953609Y-88411382D01*
X173110134Y-88327717D01*
X173279973Y-88276197D01*
X173346158Y-88269678D01*
X173412340Y-88263160D01*
X173500860Y-88263160D01*
X173567042Y-88269678D01*
X173567042Y-88269678D01*
G37*
G36*
X171027043Y-85729679D02*
G01*
X171093227Y-85736197D01*
X171263066Y-85787717D01*
X171419591Y-85871382D01*
X171455329Y-85900712D01*
X171556786Y-85983974D01*
X171640048Y-86085431D01*
X171669378Y-86121169D01*
X171753043Y-86277694D01*
X171804563Y-86447533D01*
X171821959Y-86624160D01*
X171804563Y-86800787D01*
X171753043Y-86970626D01*
X171669378Y-87127151D01*
X171640048Y-87162889D01*
X171556786Y-87264346D01*
X171455329Y-87347608D01*
X171419591Y-87376938D01*
X171263066Y-87460603D01*
X171093227Y-87512123D01*
X171027042Y-87518642D01*
X170960860Y-87525160D01*
X170872340Y-87525160D01*
X170806158Y-87518642D01*
X170739973Y-87512123D01*
X170570134Y-87460603D01*
X170413609Y-87376938D01*
X170377871Y-87347608D01*
X170276414Y-87264346D01*
X170193152Y-87162889D01*
X170163822Y-87127151D01*
X170080157Y-86970626D01*
X170028637Y-86800787D01*
X170011241Y-86624160D01*
X170028637Y-86447533D01*
X170080157Y-86277694D01*
X170163822Y-86121169D01*
X170193152Y-86085431D01*
X170276414Y-85983974D01*
X170377871Y-85900712D01*
X170413609Y-85871382D01*
X170570134Y-85787717D01*
X170739973Y-85736197D01*
X170806157Y-85729679D01*
X170872340Y-85723160D01*
X170960860Y-85723160D01*
X171027043Y-85729679D01*
X171027043Y-85729679D01*
G37*
G36*
X173567043Y-85729679D02*
G01*
X173633227Y-85736197D01*
X173803066Y-85787717D01*
X173959591Y-85871382D01*
X173995329Y-85900712D01*
X174096786Y-85983974D01*
X174180048Y-86085431D01*
X174209378Y-86121169D01*
X174293043Y-86277694D01*
X174344563Y-86447533D01*
X174361959Y-86624160D01*
X174344563Y-86800787D01*
X174293043Y-86970626D01*
X174209378Y-87127151D01*
X174180048Y-87162889D01*
X174096786Y-87264346D01*
X173995329Y-87347608D01*
X173959591Y-87376938D01*
X173803066Y-87460603D01*
X173633227Y-87512123D01*
X173567042Y-87518642D01*
X173500860Y-87525160D01*
X173412340Y-87525160D01*
X173346158Y-87518642D01*
X173279973Y-87512123D01*
X173110134Y-87460603D01*
X172953609Y-87376938D01*
X172917871Y-87347608D01*
X172816414Y-87264346D01*
X172733152Y-87162889D01*
X172703822Y-87127151D01*
X172620157Y-86970626D01*
X172568637Y-86800787D01*
X172551241Y-86624160D01*
X172568637Y-86447533D01*
X172620157Y-86277694D01*
X172703822Y-86121169D01*
X172733152Y-86085431D01*
X172816414Y-85983974D01*
X172917871Y-85900712D01*
X172953609Y-85871382D01*
X173110134Y-85787717D01*
X173279973Y-85736197D01*
X173346157Y-85729679D01*
X173412340Y-85723160D01*
X173500860Y-85723160D01*
X173567043Y-85729679D01*
X173567043Y-85729679D01*
G37*
G36*
X148211000Y-86921000D02*
G01*
X146409000Y-86921000D01*
X146409000Y-85119000D01*
X148211000Y-85119000D01*
X148211000Y-86921000D01*
X148211000Y-86921000D01*
G37*
G36*
X149960443Y-85125519D02*
G01*
X150026627Y-85132037D01*
X150196466Y-85183557D01*
X150352991Y-85267222D01*
X150388729Y-85296552D01*
X150490186Y-85379814D01*
X150573448Y-85481271D01*
X150602778Y-85517009D01*
X150686443Y-85673534D01*
X150737963Y-85843373D01*
X150755359Y-86020000D01*
X150737963Y-86196627D01*
X150686443Y-86366466D01*
X150602778Y-86522991D01*
X150573448Y-86558729D01*
X150490186Y-86660186D01*
X150388729Y-86743448D01*
X150352991Y-86772778D01*
X150196466Y-86856443D01*
X150026627Y-86907963D01*
X149960443Y-86914481D01*
X149894260Y-86921000D01*
X149805740Y-86921000D01*
X149739557Y-86914481D01*
X149673373Y-86907963D01*
X149503534Y-86856443D01*
X149347009Y-86772778D01*
X149311271Y-86743448D01*
X149209814Y-86660186D01*
X149126552Y-86558729D01*
X149097222Y-86522991D01*
X149013557Y-86366466D01*
X148962037Y-86196627D01*
X148944641Y-86020000D01*
X148962037Y-85843373D01*
X149013557Y-85673534D01*
X149097222Y-85517009D01*
X149126552Y-85481271D01*
X149209814Y-85379814D01*
X149311271Y-85296552D01*
X149347009Y-85267222D01*
X149503534Y-85183557D01*
X149673373Y-85132037D01*
X149739557Y-85125519D01*
X149805740Y-85119000D01*
X149894260Y-85119000D01*
X149960443Y-85125519D01*
X149960443Y-85125519D01*
G37*
G36*
X152500443Y-85125519D02*
G01*
X152566627Y-85132037D01*
X152736466Y-85183557D01*
X152892991Y-85267222D01*
X152928729Y-85296552D01*
X153030186Y-85379814D01*
X153113448Y-85481271D01*
X153142778Y-85517009D01*
X153226443Y-85673534D01*
X153277963Y-85843373D01*
X153295359Y-86020000D01*
X153277963Y-86196627D01*
X153226443Y-86366466D01*
X153142778Y-86522991D01*
X153113448Y-86558729D01*
X153030186Y-86660186D01*
X152928729Y-86743448D01*
X152892991Y-86772778D01*
X152736466Y-86856443D01*
X152566627Y-86907963D01*
X152500443Y-86914481D01*
X152434260Y-86921000D01*
X152345740Y-86921000D01*
X152279557Y-86914481D01*
X152213373Y-86907963D01*
X152043534Y-86856443D01*
X151887009Y-86772778D01*
X151851271Y-86743448D01*
X151749814Y-86660186D01*
X151666552Y-86558729D01*
X151637222Y-86522991D01*
X151553557Y-86366466D01*
X151502037Y-86196627D01*
X151484641Y-86020000D01*
X151502037Y-85843373D01*
X151553557Y-85673534D01*
X151637222Y-85517009D01*
X151666552Y-85481271D01*
X151749814Y-85379814D01*
X151851271Y-85296552D01*
X151887009Y-85267222D01*
X152043534Y-85183557D01*
X152213373Y-85132037D01*
X152279557Y-85125519D01*
X152345740Y-85119000D01*
X152434260Y-85119000D01*
X152500443Y-85125519D01*
X152500443Y-85125519D01*
G37*
G36*
X155040443Y-85125519D02*
G01*
X155106627Y-85132037D01*
X155276466Y-85183557D01*
X155432991Y-85267222D01*
X155468729Y-85296552D01*
X155570186Y-85379814D01*
X155653448Y-85481271D01*
X155682778Y-85517009D01*
X155766443Y-85673534D01*
X155817963Y-85843373D01*
X155835359Y-86020000D01*
X155817963Y-86196627D01*
X155766443Y-86366466D01*
X155682778Y-86522991D01*
X155653448Y-86558729D01*
X155570186Y-86660186D01*
X155468729Y-86743448D01*
X155432991Y-86772778D01*
X155276466Y-86856443D01*
X155106627Y-86907963D01*
X155040443Y-86914481D01*
X154974260Y-86921000D01*
X154885740Y-86921000D01*
X154819557Y-86914481D01*
X154753373Y-86907963D01*
X154583534Y-86856443D01*
X154427009Y-86772778D01*
X154391271Y-86743448D01*
X154289814Y-86660186D01*
X154206552Y-86558729D01*
X154177222Y-86522991D01*
X154093557Y-86366466D01*
X154042037Y-86196627D01*
X154024641Y-86020000D01*
X154042037Y-85843373D01*
X154093557Y-85673534D01*
X154177222Y-85517009D01*
X154206552Y-85481271D01*
X154289814Y-85379814D01*
X154391271Y-85296552D01*
X154427009Y-85267222D01*
X154583534Y-85183557D01*
X154753373Y-85132037D01*
X154819557Y-85125519D01*
X154885740Y-85119000D01*
X154974260Y-85119000D01*
X155040443Y-85125519D01*
X155040443Y-85125519D01*
G37*
G36*
X171027042Y-83189678D02*
G01*
X171093227Y-83196197D01*
X171263066Y-83247717D01*
X171419591Y-83331382D01*
X171455329Y-83360712D01*
X171556786Y-83443974D01*
X171640048Y-83545431D01*
X171669378Y-83581169D01*
X171753043Y-83737694D01*
X171804563Y-83907533D01*
X171821959Y-84084160D01*
X171804563Y-84260787D01*
X171753043Y-84430626D01*
X171669378Y-84587151D01*
X171640048Y-84622889D01*
X171556786Y-84724346D01*
X171455329Y-84807608D01*
X171419591Y-84836938D01*
X171263066Y-84920603D01*
X171093227Y-84972123D01*
X171027042Y-84978642D01*
X170960860Y-84985160D01*
X170872340Y-84985160D01*
X170806158Y-84978642D01*
X170739973Y-84972123D01*
X170570134Y-84920603D01*
X170413609Y-84836938D01*
X170377871Y-84807608D01*
X170276414Y-84724346D01*
X170193152Y-84622889D01*
X170163822Y-84587151D01*
X170080157Y-84430626D01*
X170028637Y-84260787D01*
X170011241Y-84084160D01*
X170028637Y-83907533D01*
X170080157Y-83737694D01*
X170163822Y-83581169D01*
X170193152Y-83545431D01*
X170276414Y-83443974D01*
X170377871Y-83360712D01*
X170413609Y-83331382D01*
X170570134Y-83247717D01*
X170739973Y-83196197D01*
X170806158Y-83189678D01*
X170872340Y-83183160D01*
X170960860Y-83183160D01*
X171027042Y-83189678D01*
X171027042Y-83189678D01*
G37*
G36*
X173567042Y-83189678D02*
G01*
X173633227Y-83196197D01*
X173803066Y-83247717D01*
X173959591Y-83331382D01*
X173995329Y-83360712D01*
X174096786Y-83443974D01*
X174180048Y-83545431D01*
X174209378Y-83581169D01*
X174293043Y-83737694D01*
X174344563Y-83907533D01*
X174361959Y-84084160D01*
X174344563Y-84260787D01*
X174293043Y-84430626D01*
X174209378Y-84587151D01*
X174180048Y-84622889D01*
X174096786Y-84724346D01*
X173995329Y-84807608D01*
X173959591Y-84836938D01*
X173803066Y-84920603D01*
X173633227Y-84972123D01*
X173567042Y-84978642D01*
X173500860Y-84985160D01*
X173412340Y-84985160D01*
X173346158Y-84978642D01*
X173279973Y-84972123D01*
X173110134Y-84920603D01*
X172953609Y-84836938D01*
X172917871Y-84807608D01*
X172816414Y-84724346D01*
X172733152Y-84622889D01*
X172703822Y-84587151D01*
X172620157Y-84430626D01*
X172568637Y-84260787D01*
X172551241Y-84084160D01*
X172568637Y-83907533D01*
X172620157Y-83737694D01*
X172703822Y-83581169D01*
X172733152Y-83545431D01*
X172816414Y-83443974D01*
X172917871Y-83360712D01*
X172953609Y-83331382D01*
X173110134Y-83247717D01*
X173279973Y-83196197D01*
X173346158Y-83189678D01*
X173412340Y-83183160D01*
X173500860Y-83183160D01*
X173567042Y-83189678D01*
X173567042Y-83189678D01*
G37*
M02*
