M48
; DRILL file {KiCad (5.1.4)-1} date 11/5/2019 4:13:07 PM
; FORMAT={-:-/ absolute / inch / decimal}
; #@! TF.CreationDate,2019-11-05T16:13:07-05:00
; #@! TF.GenerationSoftware,Kicad,Pcbnew,(5.1.4)-1
FMAT,2
INCH
T1C0.0157
T2C0.0394
T3C0.0400
T4C0.1250
T5C0.1700
%
G90
G05
T1
X3.96Y-3.92
X3.96Y-4.32
X4.59Y-3.92
X4.59Y-4.32
X4.8976Y-3.8714
X4.9638Y-4.0882
X5.216Y-3.684
X5.312Y-4.625
X5.3434Y-4.1196
X5.344Y-4.2242
X5.373Y-4.4375
X5.5815Y-4.594
X5.7996Y-3.5094
X5.7996Y-3.5632
X5.7996Y-3.617
X5.8025Y-4.3635
X5.891Y-4.005
X5.91Y-4.832
X5.9193Y-3.9747
X5.9475Y-3.9444
X5.974Y-4.0825
X5.9758Y-3.9138
X6.0023Y-4.0518
X6.0308Y-4.0217
X6.0425Y-4.2505
X6.0591Y-3.991
X6.116Y-3.6972
X6.138Y-3.778
X6.193Y-3.4545
X6.193Y-3.5615
X6.236Y-3.4555
X6.236Y-3.5625
X6.251Y-3.9264
X6.3254Y-3.7368
X6.3416Y-3.7948
X6.3438Y-3.844
X6.4492Y-3.5098
X6.4705Y-3.414
X6.5312Y-3.5264
X6.6588Y-3.9269
X6.6588Y-4.3269
X7.2888Y-3.9269
X7.2888Y-4.3269
T2
X5.7996Y-3.3866
X5.8996Y-3.3866
X5.9996Y-3.3866
X6.0996Y-3.3866
X4.3Y-4.8
X4.4Y-4.8
X6.7Y-4.8
X6.8Y-4.8
X6.0069Y-4.7455
X6.1069Y-4.7455
X6.729Y-3.3104
X6.729Y-3.4104
X6.729Y-3.5104
X6.829Y-3.3104
X6.829Y-3.4104
X6.829Y-3.5104
T3
X4.9242Y-3.513
X4.9242Y-3.613
X4.9242Y-3.713
X5.0242Y-3.513
X5.0242Y-3.613
X5.0242Y-3.713
T5
X3.8452Y-3.4246
X7.205Y-3.4246
X3.8452Y-4.794
X7.205Y-4.794
T4
G00X4.3355Y-4.134
M15
G01X4.1605Y-4.134
M16
G05
G00X7.0055Y-4.134
M15
G01X6.8305Y-4.134
M16
G05
T0
M30
