G04 #@! TF.GenerationSoftware,KiCad,Pcbnew,(5.1.4)-1*
G04 #@! TF.CreationDate,2019-11-05T16:13:29-05:00*
G04 #@! TF.ProjectId,CellMan,43656c6c-4d61-46e2-9e6b-696361645f70,1.4*
G04 #@! TF.SameCoordinates,Original*
G04 #@! TF.FileFunction,Soldermask,Top*
G04 #@! TF.FilePolarity,Negative*
%FSLAX46Y46*%
G04 Gerber Fmt 4.6, Leading zero omitted, Abs format (unit mm)*
G04 Created by KiCad (PCBNEW (5.1.4)-1) date 2019-11-05 16:13:29*
%MOMM*%
%LPD*%
G04 APERTURE LIST*
%ADD10C,0.100000*%
%ADD11C,0.300000*%
%ADD12C,0.010000*%
G04 APERTURE END LIST*
D10*
G36*
X116641660Y-93079880D02*
G01*
X108386660Y-93079880D01*
X108386660Y-90539880D01*
X116641660Y-90539880D01*
X116641660Y-93079880D01*
G37*
X116641660Y-93079880D02*
X108386660Y-93079880D01*
X108386660Y-90539880D01*
X116641660Y-90539880D01*
X116641660Y-93079880D01*
D11*
X104457085Y-86123554D02*
X104385657Y-86194982D01*
X104171371Y-86266411D01*
X104028514Y-86266411D01*
X103814228Y-86194982D01*
X103671371Y-86052125D01*
X103599942Y-85909268D01*
X103528514Y-85623554D01*
X103528514Y-85409268D01*
X103599942Y-85123554D01*
X103671371Y-84980697D01*
X103814228Y-84837840D01*
X104028514Y-84766411D01*
X104171371Y-84766411D01*
X104385657Y-84837840D01*
X104457085Y-84909268D01*
X105671371Y-86194982D02*
X105528514Y-86266411D01*
X105242800Y-86266411D01*
X105099942Y-86194982D01*
X105028514Y-86052125D01*
X105028514Y-85480697D01*
X105099942Y-85337840D01*
X105242800Y-85266411D01*
X105528514Y-85266411D01*
X105671371Y-85337840D01*
X105742800Y-85480697D01*
X105742800Y-85623554D01*
X105028514Y-85766411D01*
X106599942Y-86266411D02*
X106457085Y-86194982D01*
X106385657Y-86052125D01*
X106385657Y-84766411D01*
X107385657Y-86266411D02*
X107242800Y-86194982D01*
X107171371Y-86052125D01*
X107171371Y-84766411D01*
X107957085Y-86266411D02*
X107957085Y-84766411D01*
X108457085Y-85837840D01*
X108957085Y-84766411D01*
X108957085Y-86266411D01*
X110314228Y-86266411D02*
X110314228Y-85480697D01*
X110242800Y-85337840D01*
X110099942Y-85266411D01*
X109814228Y-85266411D01*
X109671371Y-85337840D01*
X110314228Y-86194982D02*
X110171371Y-86266411D01*
X109814228Y-86266411D01*
X109671371Y-86194982D01*
X109599942Y-86052125D01*
X109599942Y-85909268D01*
X109671371Y-85766411D01*
X109814228Y-85694982D01*
X110171371Y-85694982D01*
X110314228Y-85623554D01*
X111028514Y-85266411D02*
X111028514Y-86266411D01*
X111028514Y-85409268D02*
X111099942Y-85337840D01*
X111242800Y-85266411D01*
X111457085Y-85266411D01*
X111599942Y-85337840D01*
X111671371Y-85480697D01*
X111671371Y-86266411D01*
X113385657Y-85266411D02*
X113742800Y-86266411D01*
X114099942Y-85266411D01*
X115457085Y-86266411D02*
X114599942Y-86266411D01*
X115028514Y-86266411D02*
X115028514Y-84766411D01*
X114885657Y-84980697D01*
X114742800Y-85123554D01*
X114599942Y-85194982D01*
X116099942Y-86123554D02*
X116171371Y-86194982D01*
X116099942Y-86266411D01*
X116028514Y-86194982D01*
X116099942Y-86123554D01*
X116099942Y-86266411D01*
X117457085Y-85266411D02*
X117457085Y-86266411D01*
X117099942Y-84694982D02*
X116742800Y-85766411D01*
X117671371Y-85766411D01*
D12*
G36*
X119914167Y-84595970D02*
G01*
X119908341Y-84660139D01*
X119895867Y-84693290D01*
X119871424Y-84706718D01*
X119861118Y-84708567D01*
X119822680Y-84703769D01*
X119813602Y-84687401D01*
X119824258Y-84653751D01*
X119851072Y-84600951D01*
X119866650Y-84574804D01*
X119919591Y-84490137D01*
X119914167Y-84595970D01*
X119914167Y-84595970D01*
G37*
X119914167Y-84595970D02*
X119908341Y-84660139D01*
X119895867Y-84693290D01*
X119871424Y-84706718D01*
X119861118Y-84708567D01*
X119822680Y-84703769D01*
X119813602Y-84687401D01*
X119824258Y-84653751D01*
X119851072Y-84600951D01*
X119866650Y-84574804D01*
X119919591Y-84490137D01*
X119914167Y-84595970D01*
G36*
X120401263Y-84539044D02*
G01*
X120404050Y-84580095D01*
X120395001Y-84661249D01*
X120373684Y-84705149D01*
X120337855Y-84715672D01*
X120326743Y-84713636D01*
X120279076Y-84701804D01*
X120323663Y-84611845D01*
X120359635Y-84549526D01*
X120386087Y-84525027D01*
X120401263Y-84539044D01*
X120401263Y-84539044D01*
G37*
X120401263Y-84539044D02*
X120404050Y-84580095D01*
X120395001Y-84661249D01*
X120373684Y-84705149D01*
X120337855Y-84715672D01*
X120326743Y-84713636D01*
X120279076Y-84701804D01*
X120323663Y-84611845D01*
X120359635Y-84549526D01*
X120386087Y-84525027D01*
X120401263Y-84539044D01*
G36*
X120639901Y-85021212D02*
G01*
X120641628Y-85025811D01*
X120649441Y-85076692D01*
X120646357Y-85140630D01*
X120645674Y-85145085D01*
X120632168Y-85196576D01*
X120607929Y-85217540D01*
X120581881Y-85220387D01*
X120545139Y-85214362D01*
X120540576Y-85188280D01*
X120544671Y-85172762D01*
X120563535Y-85120653D01*
X120590006Y-85058259D01*
X120592198Y-85053488D01*
X120614552Y-85009134D01*
X120628002Y-84999748D01*
X120639901Y-85021212D01*
X120639901Y-85021212D01*
G37*
X120639901Y-85021212D02*
X120641628Y-85025811D01*
X120649441Y-85076692D01*
X120646357Y-85140630D01*
X120645674Y-85145085D01*
X120632168Y-85196576D01*
X120607929Y-85217540D01*
X120581881Y-85220387D01*
X120545139Y-85214362D01*
X120540576Y-85188280D01*
X120544671Y-85172762D01*
X120563535Y-85120653D01*
X120590006Y-85058259D01*
X120592198Y-85053488D01*
X120614552Y-85009134D01*
X120628002Y-84999748D01*
X120639901Y-85021212D01*
G36*
X119410372Y-85030265D02*
G01*
X119400604Y-85109889D01*
X119376582Y-85170043D01*
X119342871Y-85201909D01*
X119320488Y-85203916D01*
X119295288Y-85183490D01*
X119300748Y-85138534D01*
X119337232Y-85067508D01*
X119361398Y-85030265D01*
X119411327Y-84956560D01*
X119410372Y-85030265D01*
X119410372Y-85030265D01*
G37*
X119410372Y-85030265D02*
X119400604Y-85109889D01*
X119376582Y-85170043D01*
X119342871Y-85201909D01*
X119320488Y-85203916D01*
X119295288Y-85183490D01*
X119300748Y-85138534D01*
X119337232Y-85067508D01*
X119361398Y-85030265D01*
X119411327Y-84956560D01*
X119410372Y-85030265D01*
G36*
X119863086Y-84773503D02*
G01*
X119908157Y-84807985D01*
X119943141Y-84862460D01*
X119952119Y-84888923D01*
X119953943Y-84966761D01*
X119929832Y-85056854D01*
X119885397Y-85143223D01*
X119845463Y-85192650D01*
X119779341Y-85241294D01*
X119710289Y-85264136D01*
X119648917Y-85259904D01*
X119605834Y-85227326D01*
X119602571Y-85221778D01*
X119580212Y-85138314D01*
X119589931Y-85044068D01*
X119626935Y-84949053D01*
X119686428Y-84863282D01*
X119763615Y-84796770D01*
X119819265Y-84769228D01*
X119863086Y-84773503D01*
X119863086Y-84773503D01*
G37*
X119863086Y-84773503D02*
X119908157Y-84807985D01*
X119943141Y-84862460D01*
X119952119Y-84888923D01*
X119953943Y-84966761D01*
X119929832Y-85056854D01*
X119885397Y-85143223D01*
X119845463Y-85192650D01*
X119779341Y-85241294D01*
X119710289Y-85264136D01*
X119648917Y-85259904D01*
X119605834Y-85227326D01*
X119602571Y-85221778D01*
X119580212Y-85138314D01*
X119589931Y-85044068D01*
X119626935Y-84949053D01*
X119686428Y-84863282D01*
X119763615Y-84796770D01*
X119819265Y-84769228D01*
X119863086Y-84773503D01*
G36*
X120379970Y-84805637D02*
G01*
X120412612Y-84857256D01*
X120425630Y-84929724D01*
X120415589Y-85017773D01*
X120382104Y-85109939D01*
X120338663Y-85176409D01*
X120281424Y-85234384D01*
X120222401Y-85273358D01*
X120183328Y-85283808D01*
X120151044Y-85272672D01*
X120114536Y-85250937D01*
X120077027Y-85200812D01*
X120064264Y-85127995D01*
X120074232Y-85042598D01*
X120104917Y-84954732D01*
X120154308Y-84874510D01*
X120198646Y-84828557D01*
X120269552Y-84786019D01*
X120331138Y-84780135D01*
X120379970Y-84805637D01*
X120379970Y-84805637D01*
G37*
X120379970Y-84805637D02*
X120412612Y-84857256D01*
X120425630Y-84929724D01*
X120415589Y-85017773D01*
X120382104Y-85109939D01*
X120338663Y-85176409D01*
X120281424Y-85234384D01*
X120222401Y-85273358D01*
X120183328Y-85283808D01*
X120151044Y-85272672D01*
X120114536Y-85250937D01*
X120077027Y-85200812D01*
X120064264Y-85127995D01*
X120074232Y-85042598D01*
X120104917Y-84954732D01*
X120154308Y-84874510D01*
X120198646Y-84828557D01*
X120269552Y-84786019D01*
X120331138Y-84780135D01*
X120379970Y-84805637D01*
G36*
X120630295Y-85298181D02*
G01*
X120665720Y-85336819D01*
X120675225Y-85393433D01*
X120660417Y-85461657D01*
X120622906Y-85535124D01*
X120564298Y-85607466D01*
X120486204Y-85672317D01*
X120465936Y-85685332D01*
X120380752Y-85722477D01*
X120311020Y-85720977D01*
X120270088Y-85695125D01*
X120243804Y-85657047D01*
X120240516Y-85611009D01*
X120260858Y-85546589D01*
X120281969Y-85500334D01*
X120338248Y-85415853D01*
X120413439Y-85345833D01*
X120496037Y-85299000D01*
X120567341Y-85283887D01*
X120630295Y-85298181D01*
X120630295Y-85298181D01*
G37*
X120630295Y-85298181D02*
X120665720Y-85336819D01*
X120675225Y-85393433D01*
X120660417Y-85461657D01*
X120622906Y-85535124D01*
X120564298Y-85607466D01*
X120486204Y-85672317D01*
X120465936Y-85685332D01*
X120380752Y-85722477D01*
X120311020Y-85720977D01*
X120270088Y-85695125D01*
X120243804Y-85657047D01*
X120240516Y-85611009D01*
X120260858Y-85546589D01*
X120281969Y-85500334D01*
X120338248Y-85415853D01*
X120413439Y-85345833D01*
X120496037Y-85299000D01*
X120567341Y-85283887D01*
X120630295Y-85298181D01*
G36*
X119347662Y-85275282D02*
G01*
X119406702Y-85311147D01*
X119448248Y-85370715D01*
X119469349Y-85445481D01*
X119467054Y-85526938D01*
X119438412Y-85606581D01*
X119405884Y-85651588D01*
X119336559Y-85705280D01*
X119264456Y-85716793D01*
X119228383Y-85707201D01*
X119164378Y-85659892D01*
X119125909Y-85581545D01*
X119114993Y-85492024D01*
X119131289Y-85393972D01*
X119177784Y-85320788D01*
X119250889Y-85277445D01*
X119274077Y-85271627D01*
X119347662Y-85275282D01*
X119347662Y-85275282D01*
G37*
X119347662Y-85275282D02*
X119406702Y-85311147D01*
X119448248Y-85370715D01*
X119469349Y-85445481D01*
X119467054Y-85526938D01*
X119438412Y-85606581D01*
X119405884Y-85651588D01*
X119336559Y-85705280D01*
X119264456Y-85716793D01*
X119228383Y-85707201D01*
X119164378Y-85659892D01*
X119125909Y-85581545D01*
X119114993Y-85492024D01*
X119131289Y-85393972D01*
X119177784Y-85320788D01*
X119250889Y-85277445D01*
X119274077Y-85271627D01*
X119347662Y-85275282D01*
G36*
X120062648Y-85478764D02*
G01*
X120106063Y-85501603D01*
X120106199Y-85501766D01*
X120118224Y-85537229D01*
X120124569Y-85598685D01*
X120124666Y-85644641D01*
X120126782Y-85726107D01*
X120143528Y-85785673D01*
X120169333Y-85828727D01*
X120218598Y-85925585D01*
X120228480Y-86018789D01*
X120199559Y-86103128D01*
X120132411Y-86173387D01*
X120130993Y-86174394D01*
X120057593Y-86215498D01*
X119992739Y-86222897D01*
X119921183Y-86197895D01*
X119912083Y-86193134D01*
X119858281Y-86167206D01*
X119820849Y-86161970D01*
X119780061Y-86176006D01*
X119766449Y-86182647D01*
X119696090Y-86210251D01*
X119644096Y-86209264D01*
X119598516Y-86180474D01*
X119571329Y-86160409D01*
X119542294Y-86157064D01*
X119495979Y-86170437D01*
X119469142Y-86180474D01*
X119370065Y-86210000D01*
X119297579Y-86211175D01*
X119246497Y-86183623D01*
X119229991Y-86163108D01*
X119208678Y-86097269D01*
X119226137Y-86022534D01*
X119282936Y-85937601D01*
X119365048Y-85854172D01*
X119436866Y-85780234D01*
X119504442Y-85695601D01*
X119548910Y-85626045D01*
X119604082Y-85539617D01*
X119660907Y-85491347D01*
X119726842Y-85477461D01*
X119809348Y-85494185D01*
X119809414Y-85494207D01*
X119876785Y-85509961D01*
X119924987Y-85503152D01*
X119936047Y-85497933D01*
X120000135Y-85477410D01*
X120062648Y-85478764D01*
X120062648Y-85478764D01*
G37*
X120062648Y-85478764D02*
X120106063Y-85501603D01*
X120106199Y-85501766D01*
X120118224Y-85537229D01*
X120124569Y-85598685D01*
X120124666Y-85644641D01*
X120126782Y-85726107D01*
X120143528Y-85785673D01*
X120169333Y-85828727D01*
X120218598Y-85925585D01*
X120228480Y-86018789D01*
X120199559Y-86103128D01*
X120132411Y-86173387D01*
X120130993Y-86174394D01*
X120057593Y-86215498D01*
X119992739Y-86222897D01*
X119921183Y-86197895D01*
X119912083Y-86193134D01*
X119858281Y-86167206D01*
X119820849Y-86161970D01*
X119780061Y-86176006D01*
X119766449Y-86182647D01*
X119696090Y-86210251D01*
X119644096Y-86209264D01*
X119598516Y-86180474D01*
X119571329Y-86160409D01*
X119542294Y-86157064D01*
X119495979Y-86170437D01*
X119469142Y-86180474D01*
X119370065Y-86210000D01*
X119297579Y-86211175D01*
X119246497Y-86183623D01*
X119229991Y-86163108D01*
X119208678Y-86097269D01*
X119226137Y-86022534D01*
X119282936Y-85937601D01*
X119365048Y-85854172D01*
X119436866Y-85780234D01*
X119504442Y-85695601D01*
X119548910Y-85626045D01*
X119604082Y-85539617D01*
X119660907Y-85491347D01*
X119726842Y-85477461D01*
X119809348Y-85494185D01*
X119809414Y-85494207D01*
X119876785Y-85509961D01*
X119924987Y-85503152D01*
X119936047Y-85497933D01*
X120000135Y-85477410D01*
X120062648Y-85478764D01*
D10*
G36*
X98794291Y-118054975D02*
G01*
X99496948Y-118346025D01*
X100129324Y-118768565D01*
X100667115Y-119306356D01*
X101089655Y-119938732D01*
X101380705Y-120641389D01*
X101529080Y-121387323D01*
X101529080Y-122147877D01*
X101380705Y-122893811D01*
X101089655Y-123596468D01*
X100667115Y-124228844D01*
X100129324Y-124766635D01*
X99496948Y-125189175D01*
X98794291Y-125480225D01*
X98048357Y-125628600D01*
X97287803Y-125628600D01*
X96541869Y-125480225D01*
X95839212Y-125189175D01*
X95206836Y-124766635D01*
X94669045Y-124228844D01*
X94246505Y-123596468D01*
X93955455Y-122893811D01*
X93807080Y-122147877D01*
X93807080Y-121387323D01*
X93955455Y-120641389D01*
X94246505Y-119938732D01*
X94669045Y-119306356D01*
X95206836Y-118768565D01*
X95839212Y-118346025D01*
X96541869Y-118054975D01*
X97287803Y-117906600D01*
X98048357Y-117906600D01*
X98794291Y-118054975D01*
X98794291Y-118054975D01*
G37*
G36*
X184133211Y-118054975D02*
G01*
X184835868Y-118346025D01*
X185468244Y-118768565D01*
X186006035Y-119306356D01*
X186428575Y-119938732D01*
X186719625Y-120641389D01*
X186868000Y-121387323D01*
X186868000Y-122147877D01*
X186719625Y-122893811D01*
X186428575Y-123596468D01*
X186006035Y-124228844D01*
X185468244Y-124766635D01*
X184835868Y-125189175D01*
X184133211Y-125480225D01*
X183387277Y-125628600D01*
X182626723Y-125628600D01*
X181880789Y-125480225D01*
X181178132Y-125189175D01*
X180545756Y-124766635D01*
X180007965Y-124228844D01*
X179585425Y-123596468D01*
X179294375Y-122893811D01*
X179146000Y-122147877D01*
X179146000Y-121387323D01*
X179294375Y-120641389D01*
X179585425Y-119938732D01*
X180007965Y-119306356D01*
X180545756Y-118768565D01*
X181178132Y-118346025D01*
X181880789Y-118054975D01*
X182626723Y-117906600D01*
X183387277Y-117906600D01*
X184133211Y-118054975D01*
X184133211Y-118054975D01*
G37*
G36*
X153734999Y-123734737D02*
G01*
X153744608Y-123737652D01*
X153753472Y-123742390D01*
X153761237Y-123748763D01*
X153771448Y-123761206D01*
X153778378Y-123771575D01*
X153795705Y-123788902D01*
X153816080Y-123802515D01*
X153838720Y-123811891D01*
X153862753Y-123816671D01*
X153887257Y-123816670D01*
X153911290Y-123811888D01*
X153933929Y-123802510D01*
X153954302Y-123788895D01*
X153971629Y-123771568D01*
X153978558Y-123761198D01*
X153988763Y-123748763D01*
X153996528Y-123742390D01*
X154005392Y-123737652D01*
X154015001Y-123734737D01*
X154031140Y-123733148D01*
X154518861Y-123733148D01*
X154537199Y-123734954D01*
X154549450Y-123735556D01*
X154567869Y-123735556D01*
X154590149Y-123737750D01*
X154674233Y-123754476D01*
X154695660Y-123760976D01*
X154774858Y-123793780D01*
X154780303Y-123796691D01*
X154780309Y-123796693D01*
X154789169Y-123801429D01*
X154789173Y-123801432D01*
X154794614Y-123804340D01*
X154865899Y-123851971D01*
X154883204Y-123866172D01*
X154943828Y-123926796D01*
X154958029Y-123944101D01*
X155005660Y-124015386D01*
X155008568Y-124020827D01*
X155008571Y-124020831D01*
X155013307Y-124029691D01*
X155013309Y-124029697D01*
X155016220Y-124035142D01*
X155049024Y-124114340D01*
X155055524Y-124135767D01*
X155072250Y-124219851D01*
X155074444Y-124242131D01*
X155074444Y-124260550D01*
X155075046Y-124272801D01*
X155076852Y-124291139D01*
X155076852Y-124778862D01*
X155075046Y-124797199D01*
X155074444Y-124809450D01*
X155074444Y-124827869D01*
X155072250Y-124850149D01*
X155055524Y-124934233D01*
X155049024Y-124955660D01*
X155016220Y-125034858D01*
X155013309Y-125040303D01*
X155013307Y-125040309D01*
X155008571Y-125049169D01*
X155008568Y-125049173D01*
X155005660Y-125054614D01*
X154958029Y-125125899D01*
X154943828Y-125143204D01*
X154883204Y-125203828D01*
X154865899Y-125218029D01*
X154794614Y-125265660D01*
X154789173Y-125268568D01*
X154789169Y-125268571D01*
X154780309Y-125273307D01*
X154780303Y-125273309D01*
X154774858Y-125276220D01*
X154695660Y-125309024D01*
X154674233Y-125315524D01*
X154590149Y-125332250D01*
X154567869Y-125334444D01*
X154549450Y-125334444D01*
X154537199Y-125335046D01*
X154518862Y-125336852D01*
X154031140Y-125336852D01*
X154015001Y-125335263D01*
X154005392Y-125332348D01*
X153996528Y-125327610D01*
X153988763Y-125321237D01*
X153978552Y-125308794D01*
X153971622Y-125298425D01*
X153954295Y-125281098D01*
X153933920Y-125267485D01*
X153911280Y-125258109D01*
X153887247Y-125253329D01*
X153862743Y-125253330D01*
X153838710Y-125258112D01*
X153816071Y-125267490D01*
X153795698Y-125281105D01*
X153778371Y-125298432D01*
X153771442Y-125308802D01*
X153761237Y-125321237D01*
X153753472Y-125327610D01*
X153744608Y-125332348D01*
X153734999Y-125335263D01*
X153718860Y-125336852D01*
X153231138Y-125336852D01*
X153212801Y-125335046D01*
X153200550Y-125334444D01*
X153182131Y-125334444D01*
X153159851Y-125332250D01*
X153075767Y-125315524D01*
X153054340Y-125309024D01*
X152975142Y-125276220D01*
X152969697Y-125273309D01*
X152969691Y-125273307D01*
X152960831Y-125268571D01*
X152960827Y-125268568D01*
X152955386Y-125265660D01*
X152884101Y-125218029D01*
X152866796Y-125203828D01*
X152806172Y-125143204D01*
X152791971Y-125125899D01*
X152744340Y-125054614D01*
X152741432Y-125049173D01*
X152741429Y-125049169D01*
X152736693Y-125040309D01*
X152736691Y-125040303D01*
X152733780Y-125034858D01*
X152700976Y-124955660D01*
X152694476Y-124934233D01*
X152677750Y-124850149D01*
X152675556Y-124827869D01*
X152675556Y-124809450D01*
X152674954Y-124797199D01*
X152673148Y-124778862D01*
X152673148Y-124291139D01*
X152674954Y-124272801D01*
X152675556Y-124260550D01*
X152675556Y-124242131D01*
X152677750Y-124219851D01*
X152694476Y-124135767D01*
X152700976Y-124114340D01*
X152733780Y-124035142D01*
X152736691Y-124029697D01*
X152736693Y-124029691D01*
X152741429Y-124020831D01*
X152741432Y-124020827D01*
X152744340Y-124015386D01*
X152791971Y-123944101D01*
X152806172Y-123926796D01*
X152866796Y-123866172D01*
X152884101Y-123851971D01*
X152955386Y-123804340D01*
X152960827Y-123801432D01*
X152960831Y-123801429D01*
X152969691Y-123796693D01*
X152969697Y-123796691D01*
X152975142Y-123793780D01*
X153054340Y-123760976D01*
X153075767Y-123754476D01*
X153159851Y-123737750D01*
X153182131Y-123735556D01*
X153200550Y-123735556D01*
X153212801Y-123734954D01*
X153231139Y-123733148D01*
X153718860Y-123733148D01*
X153734999Y-123734737D01*
X153734999Y-123734737D01*
G37*
G36*
X171081000Y-122821000D02*
G01*
X169279000Y-122821000D01*
X169279000Y-121019000D01*
X171081000Y-121019000D01*
X171081000Y-122821000D01*
X171081000Y-122821000D01*
G37*
G36*
X111870442Y-121025518D02*
G01*
X111936627Y-121032037D01*
X112106466Y-121083557D01*
X112262991Y-121167222D01*
X112272695Y-121175186D01*
X112400186Y-121279814D01*
X112475382Y-121371442D01*
X112512778Y-121417009D01*
X112596443Y-121573534D01*
X112647963Y-121743373D01*
X112665359Y-121920000D01*
X112647963Y-122096627D01*
X112596443Y-122266466D01*
X112512778Y-122422991D01*
X112483448Y-122458729D01*
X112400186Y-122560186D01*
X112298729Y-122643448D01*
X112262991Y-122672778D01*
X112106466Y-122756443D01*
X111936627Y-122807963D01*
X111870443Y-122814481D01*
X111804260Y-122821000D01*
X111715740Y-122821000D01*
X111649557Y-122814481D01*
X111583373Y-122807963D01*
X111413534Y-122756443D01*
X111257009Y-122672778D01*
X111221271Y-122643448D01*
X111119814Y-122560186D01*
X111036552Y-122458729D01*
X111007222Y-122422991D01*
X110923557Y-122266466D01*
X110872037Y-122096627D01*
X110854641Y-121920000D01*
X110872037Y-121743373D01*
X110923557Y-121573534D01*
X111007222Y-121417009D01*
X111044618Y-121371442D01*
X111119814Y-121279814D01*
X111247305Y-121175186D01*
X111257009Y-121167222D01*
X111413534Y-121083557D01*
X111583373Y-121032037D01*
X111649558Y-121025518D01*
X111715740Y-121019000D01*
X111804260Y-121019000D01*
X111870442Y-121025518D01*
X111870442Y-121025518D01*
G37*
G36*
X110121000Y-122821000D02*
G01*
X108319000Y-122821000D01*
X108319000Y-121019000D01*
X110121000Y-121019000D01*
X110121000Y-122821000D01*
X110121000Y-122821000D01*
G37*
G36*
X172830442Y-121025518D02*
G01*
X172896627Y-121032037D01*
X173066466Y-121083557D01*
X173222991Y-121167222D01*
X173232695Y-121175186D01*
X173360186Y-121279814D01*
X173435382Y-121371442D01*
X173472778Y-121417009D01*
X173556443Y-121573534D01*
X173607963Y-121743373D01*
X173625359Y-121920000D01*
X173607963Y-122096627D01*
X173556443Y-122266466D01*
X173472778Y-122422991D01*
X173443448Y-122458729D01*
X173360186Y-122560186D01*
X173258729Y-122643448D01*
X173222991Y-122672778D01*
X173066466Y-122756443D01*
X172896627Y-122807963D01*
X172830443Y-122814481D01*
X172764260Y-122821000D01*
X172675740Y-122821000D01*
X172609557Y-122814481D01*
X172543373Y-122807963D01*
X172373534Y-122756443D01*
X172217009Y-122672778D01*
X172181271Y-122643448D01*
X172079814Y-122560186D01*
X171996552Y-122458729D01*
X171967222Y-122422991D01*
X171883557Y-122266466D01*
X171832037Y-122096627D01*
X171814641Y-121920000D01*
X171832037Y-121743373D01*
X171883557Y-121573534D01*
X171967222Y-121417009D01*
X172004618Y-121371442D01*
X172079814Y-121279814D01*
X172207305Y-121175186D01*
X172217009Y-121167222D01*
X172373534Y-121083557D01*
X172543373Y-121032037D01*
X172609558Y-121025518D01*
X172675740Y-121019000D01*
X172764260Y-121019000D01*
X172830442Y-121025518D01*
X172830442Y-121025518D01*
G37*
G36*
X126346674Y-120230465D02*
G01*
X126384367Y-120241899D01*
X126419103Y-120260466D01*
X126449548Y-120285452D01*
X126474534Y-120315897D01*
X126493101Y-120350633D01*
X126504535Y-120388326D01*
X126509000Y-120433661D01*
X126509000Y-121520339D01*
X126504535Y-121565674D01*
X126493101Y-121603367D01*
X126474534Y-121638103D01*
X126449548Y-121668548D01*
X126419103Y-121693534D01*
X126384367Y-121712101D01*
X126346674Y-121723535D01*
X126301339Y-121728000D01*
X125464661Y-121728000D01*
X125419326Y-121723535D01*
X125381633Y-121712101D01*
X125346897Y-121693534D01*
X125316452Y-121668548D01*
X125291466Y-121638103D01*
X125272899Y-121603367D01*
X125261465Y-121565674D01*
X125257000Y-121520339D01*
X125257000Y-120433661D01*
X125261465Y-120388326D01*
X125272899Y-120350633D01*
X125291466Y-120315897D01*
X125316452Y-120285452D01*
X125346897Y-120260466D01*
X125381633Y-120241899D01*
X125419326Y-120230465D01*
X125464661Y-120226000D01*
X126301339Y-120226000D01*
X126346674Y-120230465D01*
X126346674Y-120230465D01*
G37*
G36*
X122542468Y-120230565D02*
G01*
X122581138Y-120242296D01*
X122616777Y-120261346D01*
X122648017Y-120286983D01*
X122673654Y-120318223D01*
X122692704Y-120353862D01*
X122704435Y-120392532D01*
X122709000Y-120438888D01*
X122709000Y-121515112D01*
X122704435Y-121561468D01*
X122692704Y-121600138D01*
X122673654Y-121635777D01*
X122648017Y-121667017D01*
X122616777Y-121692654D01*
X122581138Y-121711704D01*
X122542468Y-121723435D01*
X122496112Y-121728000D01*
X121844888Y-121728000D01*
X121798532Y-121723435D01*
X121759862Y-121711704D01*
X121724223Y-121692654D01*
X121692983Y-121667017D01*
X121667346Y-121635777D01*
X121648296Y-121600138D01*
X121636565Y-121561468D01*
X121632000Y-121515112D01*
X121632000Y-120438888D01*
X121636565Y-120392532D01*
X121648296Y-120353862D01*
X121667346Y-120318223D01*
X121692983Y-120286983D01*
X121724223Y-120261346D01*
X121759862Y-120242296D01*
X121798532Y-120230565D01*
X121844888Y-120226000D01*
X122496112Y-120226000D01*
X122542468Y-120230565D01*
X122542468Y-120230565D01*
G37*
G36*
X128396674Y-120230465D02*
G01*
X128434367Y-120241899D01*
X128469103Y-120260466D01*
X128499548Y-120285452D01*
X128524534Y-120315897D01*
X128543101Y-120350633D01*
X128554535Y-120388326D01*
X128559000Y-120433661D01*
X128559000Y-121520339D01*
X128554535Y-121565674D01*
X128543101Y-121603367D01*
X128524534Y-121638103D01*
X128499548Y-121668548D01*
X128469103Y-121693534D01*
X128434367Y-121712101D01*
X128396674Y-121723535D01*
X128351339Y-121728000D01*
X127514661Y-121728000D01*
X127469326Y-121723535D01*
X127431633Y-121712101D01*
X127396897Y-121693534D01*
X127366452Y-121668548D01*
X127341466Y-121638103D01*
X127322899Y-121603367D01*
X127311465Y-121565674D01*
X127307000Y-121520339D01*
X127307000Y-120433661D01*
X127311465Y-120388326D01*
X127322899Y-120350633D01*
X127341466Y-120315897D01*
X127366452Y-120285452D01*
X127396897Y-120260466D01*
X127431633Y-120241899D01*
X127469326Y-120230465D01*
X127514661Y-120226000D01*
X128351339Y-120226000D01*
X128396674Y-120230465D01*
X128396674Y-120230465D01*
G37*
G36*
X124417468Y-120230565D02*
G01*
X124456138Y-120242296D01*
X124491777Y-120261346D01*
X124523017Y-120286983D01*
X124548654Y-120318223D01*
X124567704Y-120353862D01*
X124579435Y-120392532D01*
X124584000Y-120438888D01*
X124584000Y-121515112D01*
X124579435Y-121561468D01*
X124567704Y-121600138D01*
X124548654Y-121635777D01*
X124523017Y-121667017D01*
X124491777Y-121692654D01*
X124456138Y-121711704D01*
X124417468Y-121723435D01*
X124371112Y-121728000D01*
X123719888Y-121728000D01*
X123673532Y-121723435D01*
X123634862Y-121711704D01*
X123599223Y-121692654D01*
X123567983Y-121667017D01*
X123542346Y-121635777D01*
X123523296Y-121600138D01*
X123511565Y-121561468D01*
X123507000Y-121515112D01*
X123507000Y-120438888D01*
X123511565Y-120392532D01*
X123523296Y-120353862D01*
X123542346Y-120318223D01*
X123567983Y-120286983D01*
X123599223Y-120261346D01*
X123634862Y-120242296D01*
X123673532Y-120230565D01*
X123719888Y-120226000D01*
X124371112Y-120226000D01*
X124417468Y-120230565D01*
X124417468Y-120230565D01*
G37*
G36*
X155225443Y-119640519D02*
G01*
X155291627Y-119647037D01*
X155461466Y-119698557D01*
X155617991Y-119782222D01*
X155653729Y-119811552D01*
X155755186Y-119894814D01*
X155838448Y-119996271D01*
X155867778Y-120032009D01*
X155951443Y-120188534D01*
X156002963Y-120358373D01*
X156020359Y-120535000D01*
X156002963Y-120711627D01*
X155951443Y-120881466D01*
X155867778Y-121037991D01*
X155838448Y-121073729D01*
X155755186Y-121175186D01*
X155653729Y-121258448D01*
X155617991Y-121287778D01*
X155461466Y-121371443D01*
X155291627Y-121422963D01*
X155225443Y-121429481D01*
X155159260Y-121436000D01*
X155070740Y-121436000D01*
X155004557Y-121429481D01*
X154938373Y-121422963D01*
X154768534Y-121371443D01*
X154612009Y-121287778D01*
X154576271Y-121258448D01*
X154474814Y-121175186D01*
X154391552Y-121073729D01*
X154362222Y-121037991D01*
X154278557Y-120881466D01*
X154227037Y-120711627D01*
X154209641Y-120535000D01*
X154227037Y-120358373D01*
X154278557Y-120188534D01*
X154362222Y-120032009D01*
X154391552Y-119996271D01*
X154474814Y-119894814D01*
X154576271Y-119811552D01*
X154612009Y-119782222D01*
X154768534Y-119698557D01*
X154938373Y-119647037D01*
X155004557Y-119640519D01*
X155070740Y-119634000D01*
X155159260Y-119634000D01*
X155225443Y-119640519D01*
X155225443Y-119640519D01*
G37*
G36*
X153476000Y-121436000D02*
G01*
X151674000Y-121436000D01*
X151674000Y-119634000D01*
X153476000Y-119634000D01*
X153476000Y-121436000D01*
X153476000Y-121436000D01*
G37*
G36*
X111761000Y-116516000D02*
G01*
X107419000Y-116516000D01*
X107419000Y-112604000D01*
X111761000Y-112604000D01*
X111761000Y-116516000D01*
X111761000Y-116516000D01*
G37*
G36*
X181001000Y-116516000D02*
G01*
X176659000Y-116516000D01*
X176659000Y-112604000D01*
X181001000Y-112604000D01*
X181001000Y-116516000D01*
X181001000Y-116516000D01*
G37*
G36*
X174611000Y-116516000D02*
G01*
X170269000Y-116516000D01*
X170269000Y-112604000D01*
X174611000Y-112604000D01*
X174611000Y-116516000D01*
X174611000Y-116516000D01*
G37*
G36*
X105371000Y-116516000D02*
G01*
X101029000Y-116516000D01*
X101029000Y-112604000D01*
X105371000Y-112604000D01*
X105371000Y-116516000D01*
X105371000Y-116516000D01*
G37*
G36*
X138537528Y-114024564D02*
G01*
X138558609Y-114030960D01*
X138578045Y-114041348D01*
X138595076Y-114055324D01*
X138609052Y-114072355D01*
X138619440Y-114091791D01*
X138625836Y-114112872D01*
X138628600Y-114140940D01*
X138628600Y-115954660D01*
X138625836Y-115982728D01*
X138619440Y-116003809D01*
X138609052Y-116023245D01*
X138595076Y-116040276D01*
X138578045Y-116054252D01*
X138558609Y-116064640D01*
X138537528Y-116071036D01*
X138509460Y-116073800D01*
X138045740Y-116073800D01*
X138017672Y-116071036D01*
X137996591Y-116064640D01*
X137977155Y-116054252D01*
X137960124Y-116040276D01*
X137946148Y-116023245D01*
X137935760Y-116003809D01*
X137929364Y-115982728D01*
X137926600Y-115954660D01*
X137926600Y-114140940D01*
X137929364Y-114112872D01*
X137935760Y-114091791D01*
X137946148Y-114072355D01*
X137960124Y-114055324D01*
X137977155Y-114041348D01*
X137996591Y-114030960D01*
X138017672Y-114024564D01*
X138045740Y-114021800D01*
X138509460Y-114021800D01*
X138537528Y-114024564D01*
X138537528Y-114024564D01*
G37*
G36*
X137267528Y-114024564D02*
G01*
X137288609Y-114030960D01*
X137308045Y-114041348D01*
X137325076Y-114055324D01*
X137339052Y-114072355D01*
X137349440Y-114091791D01*
X137355836Y-114112872D01*
X137358600Y-114140940D01*
X137358600Y-115954660D01*
X137355836Y-115982728D01*
X137349440Y-116003809D01*
X137339052Y-116023245D01*
X137325076Y-116040276D01*
X137308045Y-116054252D01*
X137288609Y-116064640D01*
X137267528Y-116071036D01*
X137239460Y-116073800D01*
X136775740Y-116073800D01*
X136747672Y-116071036D01*
X136726591Y-116064640D01*
X136707155Y-116054252D01*
X136690124Y-116040276D01*
X136676148Y-116023245D01*
X136665760Y-116003809D01*
X136659364Y-115982728D01*
X136656600Y-115954660D01*
X136656600Y-114140940D01*
X136659364Y-114112872D01*
X136665760Y-114091791D01*
X136676148Y-114072355D01*
X136690124Y-114055324D01*
X136707155Y-114041348D01*
X136726591Y-114030960D01*
X136747672Y-114024564D01*
X136775740Y-114021800D01*
X137239460Y-114021800D01*
X137267528Y-114024564D01*
X137267528Y-114024564D01*
G37*
G36*
X134727528Y-114024564D02*
G01*
X134748609Y-114030960D01*
X134768045Y-114041348D01*
X134785076Y-114055324D01*
X134799052Y-114072355D01*
X134809440Y-114091791D01*
X134815836Y-114112872D01*
X134818600Y-114140940D01*
X134818600Y-115954660D01*
X134815836Y-115982728D01*
X134809440Y-116003809D01*
X134799052Y-116023245D01*
X134785076Y-116040276D01*
X134768045Y-116054252D01*
X134748609Y-116064640D01*
X134727528Y-116071036D01*
X134699460Y-116073800D01*
X134235740Y-116073800D01*
X134207672Y-116071036D01*
X134186591Y-116064640D01*
X134167155Y-116054252D01*
X134150124Y-116040276D01*
X134136148Y-116023245D01*
X134125760Y-116003809D01*
X134119364Y-115982728D01*
X134116600Y-115954660D01*
X134116600Y-114140940D01*
X134119364Y-114112872D01*
X134125760Y-114091791D01*
X134136148Y-114072355D01*
X134150124Y-114055324D01*
X134167155Y-114041348D01*
X134186591Y-114030960D01*
X134207672Y-114024564D01*
X134235740Y-114021800D01*
X134699460Y-114021800D01*
X134727528Y-114024564D01*
X134727528Y-114024564D01*
G37*
G36*
X135997528Y-114024564D02*
G01*
X136018609Y-114030960D01*
X136038045Y-114041348D01*
X136055076Y-114055324D01*
X136069052Y-114072355D01*
X136079440Y-114091791D01*
X136085836Y-114112872D01*
X136088600Y-114140940D01*
X136088600Y-115954660D01*
X136085836Y-115982728D01*
X136079440Y-116003809D01*
X136069052Y-116023245D01*
X136055076Y-116040276D01*
X136038045Y-116054252D01*
X136018609Y-116064640D01*
X135997528Y-116071036D01*
X135969460Y-116073800D01*
X135505740Y-116073800D01*
X135477672Y-116071036D01*
X135456591Y-116064640D01*
X135437155Y-116054252D01*
X135420124Y-116040276D01*
X135406148Y-116023245D01*
X135395760Y-116003809D01*
X135389364Y-115982728D01*
X135386600Y-115954660D01*
X135386600Y-114140940D01*
X135389364Y-114112872D01*
X135395760Y-114091791D01*
X135406148Y-114072355D01*
X135420124Y-114055324D01*
X135437155Y-114041348D01*
X135456591Y-114030960D01*
X135477672Y-114024564D01*
X135505740Y-114021800D01*
X135969460Y-114021800D01*
X135997528Y-114024564D01*
X135997528Y-114024564D01*
G37*
G36*
X142422274Y-114195465D02*
G01*
X142459967Y-114206899D01*
X142494703Y-114225466D01*
X142525148Y-114250452D01*
X142550134Y-114280897D01*
X142568701Y-114315633D01*
X142580135Y-114353326D01*
X142584600Y-114398661D01*
X142584600Y-115235339D01*
X142580135Y-115280674D01*
X142568701Y-115318367D01*
X142550134Y-115353103D01*
X142525148Y-115383548D01*
X142494703Y-115408534D01*
X142459967Y-115427101D01*
X142422274Y-115438535D01*
X142376939Y-115443000D01*
X141290261Y-115443000D01*
X141244926Y-115438535D01*
X141207233Y-115427101D01*
X141172497Y-115408534D01*
X141142052Y-115383548D01*
X141117066Y-115353103D01*
X141098499Y-115318367D01*
X141087065Y-115280674D01*
X141082600Y-115235339D01*
X141082600Y-114398661D01*
X141087065Y-114353326D01*
X141098499Y-114315633D01*
X141117066Y-114280897D01*
X141142052Y-114250452D01*
X141172497Y-114225466D01*
X141207233Y-114206899D01*
X141244926Y-114195465D01*
X141290261Y-114191000D01*
X142376939Y-114191000D01*
X142422274Y-114195465D01*
X142422274Y-114195465D01*
G37*
G36*
X131690774Y-113077865D02*
G01*
X131728467Y-113089299D01*
X131763203Y-113107866D01*
X131793648Y-113132852D01*
X131818634Y-113163297D01*
X131837201Y-113198033D01*
X131848635Y-113235726D01*
X131853100Y-113281061D01*
X131853100Y-114117739D01*
X131848635Y-114163074D01*
X131837201Y-114200767D01*
X131818634Y-114235503D01*
X131793648Y-114265948D01*
X131763203Y-114290934D01*
X131728467Y-114309501D01*
X131690774Y-114320935D01*
X131645439Y-114325400D01*
X130558761Y-114325400D01*
X130513426Y-114320935D01*
X130475733Y-114309501D01*
X130440997Y-114290934D01*
X130410552Y-114265948D01*
X130385566Y-114235503D01*
X130366999Y-114200767D01*
X130355565Y-114163074D01*
X130351100Y-114117739D01*
X130351100Y-113281061D01*
X130355565Y-113235726D01*
X130366999Y-113198033D01*
X130385566Y-113163297D01*
X130410552Y-113132852D01*
X130440997Y-113107866D01*
X130475733Y-113089299D01*
X130513426Y-113077865D01*
X130558761Y-113073400D01*
X131645439Y-113073400D01*
X131690774Y-113077865D01*
X131690774Y-113077865D01*
G37*
G36*
X142422274Y-112145465D02*
G01*
X142459967Y-112156899D01*
X142494703Y-112175466D01*
X142525148Y-112200452D01*
X142550134Y-112230897D01*
X142568701Y-112265633D01*
X142580135Y-112303326D01*
X142584600Y-112348661D01*
X142584600Y-113185339D01*
X142580135Y-113230674D01*
X142568701Y-113268367D01*
X142550134Y-113303103D01*
X142525148Y-113333548D01*
X142494703Y-113358534D01*
X142459967Y-113377101D01*
X142422274Y-113388535D01*
X142376939Y-113393000D01*
X141290261Y-113393000D01*
X141244926Y-113388535D01*
X141207233Y-113377101D01*
X141172497Y-113358534D01*
X141142052Y-113333548D01*
X141117066Y-113303103D01*
X141098499Y-113268367D01*
X141087065Y-113230674D01*
X141082600Y-113185339D01*
X141082600Y-112348661D01*
X141087065Y-112303326D01*
X141098499Y-112265633D01*
X141117066Y-112230897D01*
X141142052Y-112200452D01*
X141172497Y-112175466D01*
X141207233Y-112156899D01*
X141244926Y-112145465D01*
X141290261Y-112141000D01*
X142376939Y-112141000D01*
X142422274Y-112145465D01*
X142422274Y-112145465D01*
G37*
G36*
X131690774Y-111027865D02*
G01*
X131728467Y-111039299D01*
X131763203Y-111057866D01*
X131793648Y-111082852D01*
X131818634Y-111113297D01*
X131837201Y-111148033D01*
X131848635Y-111185726D01*
X131853100Y-111231061D01*
X131853100Y-112067739D01*
X131848635Y-112113074D01*
X131837201Y-112150767D01*
X131818634Y-112185503D01*
X131793648Y-112215948D01*
X131763203Y-112240934D01*
X131728467Y-112259501D01*
X131690774Y-112270935D01*
X131645439Y-112275400D01*
X130558761Y-112275400D01*
X130513426Y-112270935D01*
X130475733Y-112259501D01*
X130440997Y-112240934D01*
X130410552Y-112215948D01*
X130385566Y-112185503D01*
X130366999Y-112150767D01*
X130355565Y-112113074D01*
X130351100Y-112067739D01*
X130351100Y-111231061D01*
X130355565Y-111185726D01*
X130366999Y-111148033D01*
X130385566Y-111113297D01*
X130410552Y-111082852D01*
X130440997Y-111057866D01*
X130475733Y-111039299D01*
X130513426Y-111027865D01*
X130558761Y-111023400D01*
X131645439Y-111023400D01*
X131690774Y-111027865D01*
X131690774Y-111027865D01*
G37*
G36*
X144193274Y-110086365D02*
G01*
X144230967Y-110097799D01*
X144265703Y-110116366D01*
X144296148Y-110141352D01*
X144321134Y-110171797D01*
X144339701Y-110206533D01*
X144351135Y-110244226D01*
X144355600Y-110289561D01*
X144355600Y-111376239D01*
X144351135Y-111421574D01*
X144339701Y-111459267D01*
X144321134Y-111494003D01*
X144296148Y-111524448D01*
X144265703Y-111549434D01*
X144230967Y-111568001D01*
X144193274Y-111579435D01*
X144147939Y-111583900D01*
X143311261Y-111583900D01*
X143265926Y-111579435D01*
X143228233Y-111568001D01*
X143193497Y-111549434D01*
X143163052Y-111524448D01*
X143138066Y-111494003D01*
X143119499Y-111459267D01*
X143108065Y-111421574D01*
X143103600Y-111376239D01*
X143103600Y-110289561D01*
X143108065Y-110244226D01*
X143119499Y-110206533D01*
X143138066Y-110171797D01*
X143163052Y-110141352D01*
X143193497Y-110116366D01*
X143228233Y-110097799D01*
X143265926Y-110086365D01*
X143311261Y-110081900D01*
X144147939Y-110081900D01*
X144193274Y-110086365D01*
X144193274Y-110086365D01*
G37*
G36*
X146243274Y-110086365D02*
G01*
X146280967Y-110097799D01*
X146315703Y-110116366D01*
X146346148Y-110141352D01*
X146371134Y-110171797D01*
X146389701Y-110206533D01*
X146401135Y-110244226D01*
X146405600Y-110289561D01*
X146405600Y-111376239D01*
X146401135Y-111421574D01*
X146389701Y-111459267D01*
X146371134Y-111494003D01*
X146346148Y-111524448D01*
X146315703Y-111549434D01*
X146280967Y-111568001D01*
X146243274Y-111579435D01*
X146197939Y-111583900D01*
X145361261Y-111583900D01*
X145315926Y-111579435D01*
X145278233Y-111568001D01*
X145243497Y-111549434D01*
X145213052Y-111524448D01*
X145188066Y-111494003D01*
X145169499Y-111459267D01*
X145158065Y-111421574D01*
X145153600Y-111376239D01*
X145153600Y-110289561D01*
X145158065Y-110244226D01*
X145169499Y-110206533D01*
X145188066Y-110171797D01*
X145213052Y-110141352D01*
X145243497Y-110116366D01*
X145278233Y-110097799D01*
X145315926Y-110086365D01*
X145361261Y-110081900D01*
X146197939Y-110081900D01*
X146243274Y-110086365D01*
X146243274Y-110086365D01*
G37*
G36*
X138537528Y-109074564D02*
G01*
X138558609Y-109080960D01*
X138578045Y-109091348D01*
X138595076Y-109105324D01*
X138609052Y-109122355D01*
X138619440Y-109141791D01*
X138625836Y-109162872D01*
X138628600Y-109190940D01*
X138628600Y-111004660D01*
X138625836Y-111032728D01*
X138619440Y-111053809D01*
X138609052Y-111073245D01*
X138595076Y-111090276D01*
X138578045Y-111104252D01*
X138558609Y-111114640D01*
X138537528Y-111121036D01*
X138509460Y-111123800D01*
X138045740Y-111123800D01*
X138017672Y-111121036D01*
X137996591Y-111114640D01*
X137977155Y-111104252D01*
X137960124Y-111090276D01*
X137946148Y-111073245D01*
X137935760Y-111053809D01*
X137929364Y-111032728D01*
X137926600Y-111004660D01*
X137926600Y-109190940D01*
X137929364Y-109162872D01*
X137935760Y-109141791D01*
X137946148Y-109122355D01*
X137960124Y-109105324D01*
X137977155Y-109091348D01*
X137996591Y-109080960D01*
X138017672Y-109074564D01*
X138045740Y-109071800D01*
X138509460Y-109071800D01*
X138537528Y-109074564D01*
X138537528Y-109074564D01*
G37*
G36*
X135997528Y-109074564D02*
G01*
X136018609Y-109080960D01*
X136038045Y-109091348D01*
X136055076Y-109105324D01*
X136069052Y-109122355D01*
X136079440Y-109141791D01*
X136085836Y-109162872D01*
X136088600Y-109190940D01*
X136088600Y-111004660D01*
X136085836Y-111032728D01*
X136079440Y-111053809D01*
X136069052Y-111073245D01*
X136055076Y-111090276D01*
X136038045Y-111104252D01*
X136018609Y-111114640D01*
X135997528Y-111121036D01*
X135969460Y-111123800D01*
X135505740Y-111123800D01*
X135477672Y-111121036D01*
X135456591Y-111114640D01*
X135437155Y-111104252D01*
X135420124Y-111090276D01*
X135406148Y-111073245D01*
X135395760Y-111053809D01*
X135389364Y-111032728D01*
X135386600Y-111004660D01*
X135386600Y-109190940D01*
X135389364Y-109162872D01*
X135395760Y-109141791D01*
X135406148Y-109122355D01*
X135420124Y-109105324D01*
X135437155Y-109091348D01*
X135456591Y-109080960D01*
X135477672Y-109074564D01*
X135505740Y-109071800D01*
X135969460Y-109071800D01*
X135997528Y-109074564D01*
X135997528Y-109074564D01*
G37*
G36*
X134727528Y-109074564D02*
G01*
X134748609Y-109080960D01*
X134768045Y-109091348D01*
X134785076Y-109105324D01*
X134799052Y-109122355D01*
X134809440Y-109141791D01*
X134815836Y-109162872D01*
X134818600Y-109190940D01*
X134818600Y-111004660D01*
X134815836Y-111032728D01*
X134809440Y-111053809D01*
X134799052Y-111073245D01*
X134785076Y-111090276D01*
X134768045Y-111104252D01*
X134748609Y-111114640D01*
X134727528Y-111121036D01*
X134699460Y-111123800D01*
X134235740Y-111123800D01*
X134207672Y-111121036D01*
X134186591Y-111114640D01*
X134167155Y-111104252D01*
X134150124Y-111090276D01*
X134136148Y-111073245D01*
X134125760Y-111053809D01*
X134119364Y-111032728D01*
X134116600Y-111004660D01*
X134116600Y-109190940D01*
X134119364Y-109162872D01*
X134125760Y-109141791D01*
X134136148Y-109122355D01*
X134150124Y-109105324D01*
X134167155Y-109091348D01*
X134186591Y-109080960D01*
X134207672Y-109074564D01*
X134235740Y-109071800D01*
X134699460Y-109071800D01*
X134727528Y-109074564D01*
X134727528Y-109074564D01*
G37*
G36*
X137267528Y-109074564D02*
G01*
X137288609Y-109080960D01*
X137308045Y-109091348D01*
X137325076Y-109105324D01*
X137339052Y-109122355D01*
X137349440Y-109141791D01*
X137355836Y-109162872D01*
X137358600Y-109190940D01*
X137358600Y-111004660D01*
X137355836Y-111032728D01*
X137349440Y-111053809D01*
X137339052Y-111073245D01*
X137325076Y-111090276D01*
X137308045Y-111104252D01*
X137288609Y-111114640D01*
X137267528Y-111121036D01*
X137239460Y-111123800D01*
X136775740Y-111123800D01*
X136747672Y-111121036D01*
X136726591Y-111114640D01*
X136707155Y-111104252D01*
X136690124Y-111090276D01*
X136676148Y-111073245D01*
X136665760Y-111053809D01*
X136659364Y-111032728D01*
X136656600Y-111004660D01*
X136656600Y-109190940D01*
X136659364Y-109162872D01*
X136665760Y-109141791D01*
X136676148Y-109122355D01*
X136690124Y-109105324D01*
X136707155Y-109091348D01*
X136726591Y-109080960D01*
X136747672Y-109074564D01*
X136775740Y-109071800D01*
X137239460Y-109071800D01*
X137267528Y-109074564D01*
X137267528Y-109074564D01*
G37*
G36*
X164774274Y-107337465D02*
G01*
X164811967Y-107348899D01*
X164846703Y-107367466D01*
X164877148Y-107392452D01*
X164902134Y-107422897D01*
X164920701Y-107457633D01*
X164932135Y-107495326D01*
X164936600Y-107540661D01*
X164936600Y-108377339D01*
X164932135Y-108422674D01*
X164920701Y-108460367D01*
X164902134Y-108495103D01*
X164877148Y-108525548D01*
X164846703Y-108550534D01*
X164811967Y-108569101D01*
X164774274Y-108580535D01*
X164728939Y-108585000D01*
X163642261Y-108585000D01*
X163596926Y-108580535D01*
X163559233Y-108569101D01*
X163524497Y-108550534D01*
X163494052Y-108525548D01*
X163469066Y-108495103D01*
X163450499Y-108460367D01*
X163439065Y-108422674D01*
X163434600Y-108377339D01*
X163434600Y-107540661D01*
X163439065Y-107495326D01*
X163450499Y-107457633D01*
X163469066Y-107422897D01*
X163494052Y-107392452D01*
X163524497Y-107367466D01*
X163559233Y-107348899D01*
X163596926Y-107337465D01*
X163642261Y-107333000D01*
X164728939Y-107333000D01*
X164774274Y-107337465D01*
X164774274Y-107337465D01*
G37*
G36*
X158363949Y-107337465D02*
G01*
X158401642Y-107348899D01*
X158436378Y-107367466D01*
X158466823Y-107392452D01*
X158491809Y-107422897D01*
X158510376Y-107457633D01*
X158521810Y-107495326D01*
X158526275Y-107540661D01*
X158526275Y-108377339D01*
X158521810Y-108422674D01*
X158510376Y-108460367D01*
X158491809Y-108495103D01*
X158466823Y-108525548D01*
X158436378Y-108550534D01*
X158401642Y-108569101D01*
X158363949Y-108580535D01*
X158318614Y-108585000D01*
X157231936Y-108585000D01*
X157186601Y-108580535D01*
X157148908Y-108569101D01*
X157114172Y-108550534D01*
X157083727Y-108525548D01*
X157058741Y-108495103D01*
X157040174Y-108460367D01*
X157028740Y-108422674D01*
X157024275Y-108377339D01*
X157024275Y-107540661D01*
X157028740Y-107495326D01*
X157040174Y-107457633D01*
X157058741Y-107422897D01*
X157083727Y-107392452D01*
X157114172Y-107367466D01*
X157148908Y-107348899D01*
X157186601Y-107337465D01*
X157231936Y-107333000D01*
X158318614Y-107333000D01*
X158363949Y-107337465D01*
X158363949Y-107337465D01*
G37*
G36*
X160500724Y-107337465D02*
G01*
X160538417Y-107348899D01*
X160573153Y-107367466D01*
X160603598Y-107392452D01*
X160628584Y-107422897D01*
X160647151Y-107457633D01*
X160658585Y-107495326D01*
X160663050Y-107540661D01*
X160663050Y-108377339D01*
X160658585Y-108422674D01*
X160647151Y-108460367D01*
X160628584Y-108495103D01*
X160603598Y-108525548D01*
X160573153Y-108550534D01*
X160538417Y-108569101D01*
X160500724Y-108580535D01*
X160455389Y-108585000D01*
X159368711Y-108585000D01*
X159323376Y-108580535D01*
X159285683Y-108569101D01*
X159250947Y-108550534D01*
X159220502Y-108525548D01*
X159195516Y-108495103D01*
X159176949Y-108460367D01*
X159165515Y-108422674D01*
X159161050Y-108377339D01*
X159161050Y-107540661D01*
X159165515Y-107495326D01*
X159176949Y-107457633D01*
X159195516Y-107422897D01*
X159220502Y-107392452D01*
X159250947Y-107367466D01*
X159285683Y-107348899D01*
X159323376Y-107337465D01*
X159368711Y-107333000D01*
X160455389Y-107333000D01*
X160500724Y-107337465D01*
X160500724Y-107337465D01*
G37*
G36*
X162637499Y-107337465D02*
G01*
X162675192Y-107348899D01*
X162709928Y-107367466D01*
X162740373Y-107392452D01*
X162765359Y-107422897D01*
X162783926Y-107457633D01*
X162795360Y-107495326D01*
X162799825Y-107540661D01*
X162799825Y-108377339D01*
X162795360Y-108422674D01*
X162783926Y-108460367D01*
X162765359Y-108495103D01*
X162740373Y-108525548D01*
X162709928Y-108550534D01*
X162675192Y-108569101D01*
X162637499Y-108580535D01*
X162592164Y-108585000D01*
X161505486Y-108585000D01*
X161460151Y-108580535D01*
X161422458Y-108569101D01*
X161387722Y-108550534D01*
X161357277Y-108525548D01*
X161332291Y-108495103D01*
X161313724Y-108460367D01*
X161302290Y-108422674D01*
X161297825Y-108377339D01*
X161297825Y-107540661D01*
X161302290Y-107495326D01*
X161313724Y-107457633D01*
X161332291Y-107422897D01*
X161357277Y-107392452D01*
X161387722Y-107367466D01*
X161422458Y-107348899D01*
X161460151Y-107337465D01*
X161505486Y-107333000D01*
X162592164Y-107333000D01*
X162637499Y-107337465D01*
X162637499Y-107337465D01*
G37*
G36*
X156227174Y-107337465D02*
G01*
X156264867Y-107348899D01*
X156299603Y-107367466D01*
X156330048Y-107392452D01*
X156355034Y-107422897D01*
X156373601Y-107457633D01*
X156385035Y-107495326D01*
X156389500Y-107540661D01*
X156389500Y-108377339D01*
X156385035Y-108422674D01*
X156373601Y-108460367D01*
X156355034Y-108495103D01*
X156330048Y-108525548D01*
X156299603Y-108550534D01*
X156264867Y-108569101D01*
X156227174Y-108580535D01*
X156181839Y-108585000D01*
X155095161Y-108585000D01*
X155049826Y-108580535D01*
X155012133Y-108569101D01*
X154977397Y-108550534D01*
X154946952Y-108525548D01*
X154921966Y-108495103D01*
X154903399Y-108460367D01*
X154891965Y-108422674D01*
X154887500Y-108377339D01*
X154887500Y-107540661D01*
X154891965Y-107495326D01*
X154903399Y-107457633D01*
X154921966Y-107422897D01*
X154946952Y-107392452D01*
X154977397Y-107367466D01*
X155012133Y-107348899D01*
X155049826Y-107337465D01*
X155095161Y-107333000D01*
X156181839Y-107333000D01*
X156227174Y-107337465D01*
X156227174Y-107337465D01*
G37*
G36*
X110754105Y-101824277D02*
G01*
X111362213Y-102008745D01*
X111922640Y-102308300D01*
X112413864Y-102711436D01*
X112817000Y-103202660D01*
X113116555Y-103763087D01*
X113301023Y-104371195D01*
X113363309Y-105003600D01*
X113301023Y-105636005D01*
X113116555Y-106244113D01*
X112817000Y-106804540D01*
X112413864Y-107295764D01*
X111922640Y-107698900D01*
X111362213Y-107998455D01*
X110754105Y-108182923D01*
X110280184Y-108229600D01*
X105518216Y-108229600D01*
X105044295Y-108182923D01*
X104436187Y-107998455D01*
X103875760Y-107698900D01*
X103384536Y-107295764D01*
X102981400Y-106804540D01*
X102681845Y-106244113D01*
X102497377Y-105636005D01*
X102435091Y-105003600D01*
X102497377Y-104371195D01*
X102681845Y-103763087D01*
X102981400Y-103202660D01*
X103384536Y-102711436D01*
X103875760Y-102308300D01*
X104436187Y-102008745D01*
X105044295Y-101824277D01*
X105518216Y-101777600D01*
X110280184Y-101777600D01*
X110754105Y-101824277D01*
X110754105Y-101824277D01*
G37*
G36*
X178572105Y-101824277D02*
G01*
X179180213Y-102008745D01*
X179740640Y-102308300D01*
X180231864Y-102711436D01*
X180635000Y-103202660D01*
X180934555Y-103763087D01*
X181119023Y-104371195D01*
X181181309Y-105003600D01*
X181119023Y-105636005D01*
X180934555Y-106244113D01*
X180635000Y-106804540D01*
X180231864Y-107295764D01*
X179740640Y-107698900D01*
X179180213Y-107998455D01*
X178572105Y-108182923D01*
X178098184Y-108229600D01*
X173336216Y-108229600D01*
X172862295Y-108182923D01*
X172254187Y-107998455D01*
X171693760Y-107698900D01*
X171202536Y-107295764D01*
X170799400Y-106804540D01*
X170499845Y-106244113D01*
X170315377Y-105636005D01*
X170253091Y-105003600D01*
X170315377Y-104371195D01*
X170499845Y-103763087D01*
X170799400Y-103202660D01*
X171202536Y-102711436D01*
X171693760Y-102308300D01*
X172254187Y-102008745D01*
X172862295Y-101824277D01*
X173336216Y-101777600D01*
X178098184Y-101777600D01*
X178572105Y-101824277D01*
X178572105Y-101824277D01*
G37*
G36*
X120600674Y-105338465D02*
G01*
X120638367Y-105349899D01*
X120673103Y-105368466D01*
X120703548Y-105393452D01*
X120728534Y-105423897D01*
X120747101Y-105458633D01*
X120758535Y-105496326D01*
X120763000Y-105541661D01*
X120763000Y-106378339D01*
X120758535Y-106423674D01*
X120747102Y-106461364D01*
X120728534Y-106496103D01*
X120703548Y-106526548D01*
X120673103Y-106551534D01*
X120638367Y-106570101D01*
X120600674Y-106581535D01*
X120555339Y-106586000D01*
X119468661Y-106586000D01*
X119423326Y-106581535D01*
X119385633Y-106570101D01*
X119350897Y-106551534D01*
X119320452Y-106526548D01*
X119295466Y-106496103D01*
X119276898Y-106461364D01*
X119265465Y-106423674D01*
X119261000Y-106378339D01*
X119261000Y-105541661D01*
X119265465Y-105496326D01*
X119276899Y-105458633D01*
X119295466Y-105423897D01*
X119320452Y-105393452D01*
X119350897Y-105368466D01*
X119385633Y-105349899D01*
X119423326Y-105338465D01*
X119468661Y-105334000D01*
X120555339Y-105334000D01*
X120600674Y-105338465D01*
X120600674Y-105338465D01*
G37*
G36*
X162637499Y-105287465D02*
G01*
X162675192Y-105298899D01*
X162709928Y-105317466D01*
X162740373Y-105342452D01*
X162765359Y-105372897D01*
X162783926Y-105407633D01*
X162795360Y-105445326D01*
X162799825Y-105490661D01*
X162799825Y-106327339D01*
X162795360Y-106372674D01*
X162783926Y-106410367D01*
X162765359Y-106445103D01*
X162740373Y-106475548D01*
X162709928Y-106500534D01*
X162675192Y-106519101D01*
X162637499Y-106530535D01*
X162592164Y-106535000D01*
X161505486Y-106535000D01*
X161460151Y-106530535D01*
X161422458Y-106519101D01*
X161387722Y-106500534D01*
X161357277Y-106475548D01*
X161332291Y-106445103D01*
X161313724Y-106410367D01*
X161302290Y-106372674D01*
X161297825Y-106327339D01*
X161297825Y-105490661D01*
X161302290Y-105445326D01*
X161313724Y-105407633D01*
X161332291Y-105372897D01*
X161357277Y-105342452D01*
X161387722Y-105317466D01*
X161422458Y-105298899D01*
X161460151Y-105287465D01*
X161505486Y-105283000D01*
X162592164Y-105283000D01*
X162637499Y-105287465D01*
X162637499Y-105287465D01*
G37*
G36*
X156227174Y-105287465D02*
G01*
X156264867Y-105298899D01*
X156299603Y-105317466D01*
X156330048Y-105342452D01*
X156355034Y-105372897D01*
X156373601Y-105407633D01*
X156385035Y-105445326D01*
X156389500Y-105490661D01*
X156389500Y-106327339D01*
X156385035Y-106372674D01*
X156373601Y-106410367D01*
X156355034Y-106445103D01*
X156330048Y-106475548D01*
X156299603Y-106500534D01*
X156264867Y-106519101D01*
X156227174Y-106530535D01*
X156181839Y-106535000D01*
X155095161Y-106535000D01*
X155049826Y-106530535D01*
X155012133Y-106519101D01*
X154977397Y-106500534D01*
X154946952Y-106475548D01*
X154921966Y-106445103D01*
X154903399Y-106410367D01*
X154891965Y-106372674D01*
X154887500Y-106327339D01*
X154887500Y-105490661D01*
X154891965Y-105445326D01*
X154903399Y-105407633D01*
X154921966Y-105372897D01*
X154946952Y-105342452D01*
X154977397Y-105317466D01*
X155012133Y-105298899D01*
X155049826Y-105287465D01*
X155095161Y-105283000D01*
X156181839Y-105283000D01*
X156227174Y-105287465D01*
X156227174Y-105287465D01*
G37*
G36*
X158363949Y-105287465D02*
G01*
X158401642Y-105298899D01*
X158436378Y-105317466D01*
X158466823Y-105342452D01*
X158491809Y-105372897D01*
X158510376Y-105407633D01*
X158521810Y-105445326D01*
X158526275Y-105490661D01*
X158526275Y-106327339D01*
X158521810Y-106372674D01*
X158510376Y-106410367D01*
X158491809Y-106445103D01*
X158466823Y-106475548D01*
X158436378Y-106500534D01*
X158401642Y-106519101D01*
X158363949Y-106530535D01*
X158318614Y-106535000D01*
X157231936Y-106535000D01*
X157186601Y-106530535D01*
X157148908Y-106519101D01*
X157114172Y-106500534D01*
X157083727Y-106475548D01*
X157058741Y-106445103D01*
X157040174Y-106410367D01*
X157028740Y-106372674D01*
X157024275Y-106327339D01*
X157024275Y-105490661D01*
X157028740Y-105445326D01*
X157040174Y-105407633D01*
X157058741Y-105372897D01*
X157083727Y-105342452D01*
X157114172Y-105317466D01*
X157148908Y-105298899D01*
X157186601Y-105287465D01*
X157231936Y-105283000D01*
X158318614Y-105283000D01*
X158363949Y-105287465D01*
X158363949Y-105287465D01*
G37*
G36*
X164774274Y-105287465D02*
G01*
X164811967Y-105298899D01*
X164846703Y-105317466D01*
X164877148Y-105342452D01*
X164902134Y-105372897D01*
X164920701Y-105407633D01*
X164932135Y-105445326D01*
X164936600Y-105490661D01*
X164936600Y-106327339D01*
X164932135Y-106372674D01*
X164920701Y-106410367D01*
X164902134Y-106445103D01*
X164877148Y-106475548D01*
X164846703Y-106500534D01*
X164811967Y-106519101D01*
X164774274Y-106530535D01*
X164728939Y-106535000D01*
X163642261Y-106535000D01*
X163596926Y-106530535D01*
X163559233Y-106519101D01*
X163524497Y-106500534D01*
X163494052Y-106475548D01*
X163469066Y-106445103D01*
X163450499Y-106410367D01*
X163439065Y-106372674D01*
X163434600Y-106327339D01*
X163434600Y-105490661D01*
X163439065Y-105445326D01*
X163450499Y-105407633D01*
X163469066Y-105372897D01*
X163494052Y-105342452D01*
X163524497Y-105317466D01*
X163559233Y-105298899D01*
X163596926Y-105287465D01*
X163642261Y-105283000D01*
X164728939Y-105283000D01*
X164774274Y-105287465D01*
X164774274Y-105287465D01*
G37*
G36*
X160500724Y-105287465D02*
G01*
X160538417Y-105298899D01*
X160573153Y-105317466D01*
X160603598Y-105342452D01*
X160628584Y-105372897D01*
X160647151Y-105407633D01*
X160658585Y-105445326D01*
X160663050Y-105490661D01*
X160663050Y-106327339D01*
X160658585Y-106372674D01*
X160647151Y-106410367D01*
X160628584Y-106445103D01*
X160603598Y-106475548D01*
X160573153Y-106500534D01*
X160538417Y-106519101D01*
X160500724Y-106530535D01*
X160455389Y-106535000D01*
X159368711Y-106535000D01*
X159323376Y-106530535D01*
X159285683Y-106519101D01*
X159250947Y-106500534D01*
X159220502Y-106475548D01*
X159195516Y-106445103D01*
X159176949Y-106410367D01*
X159165515Y-106372674D01*
X159161050Y-106327339D01*
X159161050Y-105490661D01*
X159165515Y-105445326D01*
X159176949Y-105407633D01*
X159195516Y-105372897D01*
X159220502Y-105342452D01*
X159250947Y-105317466D01*
X159285683Y-105298899D01*
X159323376Y-105287465D01*
X159368711Y-105283000D01*
X160455389Y-105283000D01*
X160500724Y-105287465D01*
X160500724Y-105287465D01*
G37*
G36*
X117096499Y-105363445D02*
G01*
X117133995Y-105374820D01*
X117168554Y-105393292D01*
X117198847Y-105418153D01*
X117223708Y-105448446D01*
X117242180Y-105483005D01*
X117253555Y-105520501D01*
X117258000Y-105565638D01*
X117258000Y-106304362D01*
X117253555Y-106349499D01*
X117242180Y-106386995D01*
X117223708Y-106421554D01*
X117198847Y-106451847D01*
X117168554Y-106476708D01*
X117133995Y-106495180D01*
X117096499Y-106506555D01*
X117051362Y-106511000D01*
X116412638Y-106511000D01*
X116367501Y-106506555D01*
X116330005Y-106495180D01*
X116295446Y-106476708D01*
X116265153Y-106451847D01*
X116240292Y-106421554D01*
X116221820Y-106386995D01*
X116210445Y-106349499D01*
X116206000Y-106304362D01*
X116206000Y-105565638D01*
X116210445Y-105520501D01*
X116221820Y-105483005D01*
X116240292Y-105448446D01*
X116265153Y-105418153D01*
X116295446Y-105393292D01*
X116330005Y-105374820D01*
X116367501Y-105363445D01*
X116412638Y-105359000D01*
X117051362Y-105359000D01*
X117096499Y-105363445D01*
X117096499Y-105363445D01*
G37*
G36*
X117096499Y-103613445D02*
G01*
X117133995Y-103624820D01*
X117168554Y-103643292D01*
X117198847Y-103668153D01*
X117223708Y-103698446D01*
X117242180Y-103733005D01*
X117253555Y-103770501D01*
X117258000Y-103815638D01*
X117258000Y-104554362D01*
X117253555Y-104599499D01*
X117242180Y-104636995D01*
X117223708Y-104671554D01*
X117198847Y-104701847D01*
X117168554Y-104726708D01*
X117133995Y-104745180D01*
X117096499Y-104756555D01*
X117051362Y-104761000D01*
X116412638Y-104761000D01*
X116367501Y-104756555D01*
X116330005Y-104745180D01*
X116295446Y-104726708D01*
X116265153Y-104701847D01*
X116240292Y-104671554D01*
X116221820Y-104636995D01*
X116210445Y-104599499D01*
X116206000Y-104554362D01*
X116206000Y-103815638D01*
X116210445Y-103770501D01*
X116221820Y-103733005D01*
X116240292Y-103698446D01*
X116265153Y-103668153D01*
X116295446Y-103643292D01*
X116330005Y-103624820D01*
X116367501Y-103613445D01*
X116412638Y-103609000D01*
X117051362Y-103609000D01*
X117096499Y-103613445D01*
X117096499Y-103613445D01*
G37*
G36*
X120600674Y-103288465D02*
G01*
X120638367Y-103299899D01*
X120673103Y-103318466D01*
X120703548Y-103343452D01*
X120728534Y-103373897D01*
X120747101Y-103408633D01*
X120758535Y-103446326D01*
X120763000Y-103491661D01*
X120763000Y-104328339D01*
X120758535Y-104373674D01*
X120747101Y-104411367D01*
X120728534Y-104446103D01*
X120703548Y-104476548D01*
X120673103Y-104501534D01*
X120638367Y-104520101D01*
X120600674Y-104531535D01*
X120555339Y-104536000D01*
X119468661Y-104536000D01*
X119423326Y-104531535D01*
X119385633Y-104520101D01*
X119350897Y-104501534D01*
X119320452Y-104476548D01*
X119295466Y-104446103D01*
X119276899Y-104411367D01*
X119265465Y-104373674D01*
X119261000Y-104328339D01*
X119261000Y-103491661D01*
X119265465Y-103446326D01*
X119276899Y-103408633D01*
X119295466Y-103373897D01*
X119320452Y-103343452D01*
X119350897Y-103318466D01*
X119385633Y-103299899D01*
X119423326Y-103288465D01*
X119468661Y-103284000D01*
X120555339Y-103284000D01*
X120600674Y-103288465D01*
X120600674Y-103288465D01*
G37*
G36*
X159476000Y-98176000D02*
G01*
X157924000Y-98176000D01*
X157924000Y-91774000D01*
X159476000Y-91774000D01*
X159476000Y-98176000D01*
X159476000Y-98176000D01*
G37*
G36*
X153576000Y-98176000D02*
G01*
X152024000Y-98176000D01*
X152024000Y-91774000D01*
X153576000Y-91774000D01*
X153576000Y-98176000D01*
X153576000Y-98176000D01*
G37*
G36*
X127793974Y-93408833D02*
G01*
X127966375Y-93461131D01*
X128125263Y-93546058D01*
X128264529Y-93660351D01*
X128378822Y-93799617D01*
X128463749Y-93958505D01*
X128516047Y-94130906D01*
X128533705Y-94310200D01*
X128516047Y-94489494D01*
X128463749Y-94661895D01*
X128378822Y-94820783D01*
X128264529Y-94960049D01*
X128125263Y-95074342D01*
X127966375Y-95159269D01*
X127793974Y-95211567D01*
X127659611Y-95224800D01*
X127569749Y-95224800D01*
X127435386Y-95211567D01*
X127262985Y-95159269D01*
X127104097Y-95074342D01*
X126964831Y-94960049D01*
X126850538Y-94820783D01*
X126765611Y-94661895D01*
X126713313Y-94489494D01*
X126695655Y-94310200D01*
X126713313Y-94130906D01*
X126765611Y-93958505D01*
X126850538Y-93799617D01*
X126964831Y-93660351D01*
X127104097Y-93546058D01*
X127262985Y-93461131D01*
X127435386Y-93408833D01*
X127569749Y-93395600D01*
X127659611Y-93395600D01*
X127793974Y-93408833D01*
X127793974Y-93408833D01*
G37*
G36*
X125253974Y-93408833D02*
G01*
X125426375Y-93461131D01*
X125585263Y-93546058D01*
X125724529Y-93660351D01*
X125838822Y-93799617D01*
X125923749Y-93958505D01*
X125976047Y-94130906D01*
X125993705Y-94310200D01*
X125976047Y-94489494D01*
X125923749Y-94661895D01*
X125838822Y-94820783D01*
X125724529Y-94960049D01*
X125585263Y-95074342D01*
X125426375Y-95159269D01*
X125253974Y-95211567D01*
X125119611Y-95224800D01*
X125029749Y-95224800D01*
X124895386Y-95211567D01*
X124722985Y-95159269D01*
X124564097Y-95074342D01*
X124424831Y-94960049D01*
X124310538Y-94820783D01*
X124225611Y-94661895D01*
X124173313Y-94489494D01*
X124155655Y-94310200D01*
X124173313Y-94130906D01*
X124225611Y-93958505D01*
X124310538Y-93799617D01*
X124424831Y-93660351D01*
X124564097Y-93546058D01*
X124722985Y-93461131D01*
X124895386Y-93408833D01*
X125029749Y-93395600D01*
X125119611Y-93395600D01*
X125253974Y-93408833D01*
X125253974Y-93408833D01*
G37*
G36*
X164283674Y-92638465D02*
G01*
X164321367Y-92649899D01*
X164356103Y-92668466D01*
X164386548Y-92693452D01*
X164411534Y-92723897D01*
X164430101Y-92758633D01*
X164441535Y-92796326D01*
X164446000Y-92841661D01*
X164446000Y-93928339D01*
X164441535Y-93973674D01*
X164430101Y-94011367D01*
X164411534Y-94046103D01*
X164386548Y-94076548D01*
X164356103Y-94101534D01*
X164321367Y-94120101D01*
X164283674Y-94131535D01*
X164238339Y-94136000D01*
X163401661Y-94136000D01*
X163356326Y-94131535D01*
X163318633Y-94120101D01*
X163283897Y-94101534D01*
X163253452Y-94076548D01*
X163228466Y-94046103D01*
X163209899Y-94011367D01*
X163198465Y-93973674D01*
X163194000Y-93928339D01*
X163194000Y-92841661D01*
X163198465Y-92796326D01*
X163209899Y-92758633D01*
X163228466Y-92723897D01*
X163253452Y-92693452D01*
X163283897Y-92668466D01*
X163318633Y-92649899D01*
X163356326Y-92638465D01*
X163401661Y-92634000D01*
X164238339Y-92634000D01*
X164283674Y-92638465D01*
X164283674Y-92638465D01*
G37*
G36*
X166333674Y-92638465D02*
G01*
X166371367Y-92649899D01*
X166406103Y-92668466D01*
X166436548Y-92693452D01*
X166461534Y-92723897D01*
X166480101Y-92758633D01*
X166491535Y-92796326D01*
X166496000Y-92841661D01*
X166496000Y-93928339D01*
X166491535Y-93973674D01*
X166480101Y-94011367D01*
X166461534Y-94046103D01*
X166436548Y-94076548D01*
X166406103Y-94101534D01*
X166371367Y-94120101D01*
X166333674Y-94131535D01*
X166288339Y-94136000D01*
X165451661Y-94136000D01*
X165406326Y-94131535D01*
X165368633Y-94120101D01*
X165333897Y-94101534D01*
X165303452Y-94076548D01*
X165278466Y-94046103D01*
X165259899Y-94011367D01*
X165248465Y-93973674D01*
X165244000Y-93928339D01*
X165244000Y-92841661D01*
X165248465Y-92796326D01*
X165259899Y-92758633D01*
X165278466Y-92723897D01*
X165303452Y-92693452D01*
X165333897Y-92668466D01*
X165368633Y-92649899D01*
X165406326Y-92638465D01*
X165451661Y-92634000D01*
X166288339Y-92634000D01*
X166333674Y-92638465D01*
X166333674Y-92638465D01*
G37*
G36*
X141949928Y-92006764D02*
G01*
X141971009Y-92013160D01*
X141990445Y-92023548D01*
X142007476Y-92037524D01*
X142021452Y-92054555D01*
X142031840Y-92073991D01*
X142038236Y-92095072D01*
X142041000Y-92123140D01*
X142041000Y-92586860D01*
X142038236Y-92614928D01*
X142031840Y-92636009D01*
X142021452Y-92655445D01*
X142007476Y-92672476D01*
X141990445Y-92686452D01*
X141971009Y-92696840D01*
X141949928Y-92703236D01*
X141921860Y-92706000D01*
X140308140Y-92706000D01*
X140280072Y-92703236D01*
X140258991Y-92696840D01*
X140239555Y-92686452D01*
X140222524Y-92672476D01*
X140208548Y-92655445D01*
X140198160Y-92636009D01*
X140191764Y-92614928D01*
X140189000Y-92586860D01*
X140189000Y-92123140D01*
X140191764Y-92095072D01*
X140198160Y-92073991D01*
X140208548Y-92054555D01*
X140222524Y-92037524D01*
X140239555Y-92023548D01*
X140258991Y-92013160D01*
X140280072Y-92006764D01*
X140308140Y-92004000D01*
X141921860Y-92004000D01*
X141949928Y-92006764D01*
X141949928Y-92006764D01*
G37*
G36*
X136799928Y-92006764D02*
G01*
X136821009Y-92013160D01*
X136840445Y-92023548D01*
X136857476Y-92037524D01*
X136871452Y-92054555D01*
X136881840Y-92073991D01*
X136888236Y-92095072D01*
X136891000Y-92123140D01*
X136891000Y-92586860D01*
X136888236Y-92614928D01*
X136881840Y-92636009D01*
X136871452Y-92655445D01*
X136857476Y-92672476D01*
X136840445Y-92686452D01*
X136821009Y-92696840D01*
X136799928Y-92703236D01*
X136771860Y-92706000D01*
X135158140Y-92706000D01*
X135130072Y-92703236D01*
X135108991Y-92696840D01*
X135089555Y-92686452D01*
X135072524Y-92672476D01*
X135058548Y-92655445D01*
X135048160Y-92636009D01*
X135041764Y-92614928D01*
X135039000Y-92586860D01*
X135039000Y-92123140D01*
X135041764Y-92095072D01*
X135048160Y-92073991D01*
X135058548Y-92054555D01*
X135072524Y-92037524D01*
X135089555Y-92023548D01*
X135108991Y-92013160D01*
X135130072Y-92006764D01*
X135158140Y-92004000D01*
X136771860Y-92004000D01*
X136799928Y-92006764D01*
X136799928Y-92006764D01*
G37*
G36*
X125253974Y-90868833D02*
G01*
X125426375Y-90921131D01*
X125585263Y-91006058D01*
X125724529Y-91120351D01*
X125838822Y-91259617D01*
X125923749Y-91418505D01*
X125976047Y-91590906D01*
X125993705Y-91770200D01*
X125976047Y-91949494D01*
X125923749Y-92121895D01*
X125838822Y-92280783D01*
X125724529Y-92420049D01*
X125585263Y-92534342D01*
X125426375Y-92619269D01*
X125253974Y-92671567D01*
X125119611Y-92684800D01*
X125029749Y-92684800D01*
X124895386Y-92671567D01*
X124722985Y-92619269D01*
X124564097Y-92534342D01*
X124424831Y-92420049D01*
X124310538Y-92280783D01*
X124225611Y-92121895D01*
X124173313Y-91949494D01*
X124155655Y-91770200D01*
X124173313Y-91590906D01*
X124225611Y-91418505D01*
X124310538Y-91259617D01*
X124424831Y-91120351D01*
X124564097Y-91006058D01*
X124722985Y-90921131D01*
X124895386Y-90868833D01*
X125029749Y-90855600D01*
X125119611Y-90855600D01*
X125253974Y-90868833D01*
X125253974Y-90868833D01*
G37*
G36*
X127793974Y-90868833D02*
G01*
X127966375Y-90921131D01*
X128125263Y-91006058D01*
X128264529Y-91120351D01*
X128378822Y-91259617D01*
X128463749Y-91418505D01*
X128516047Y-91590906D01*
X128533705Y-91770200D01*
X128516047Y-91949494D01*
X128463749Y-92121895D01*
X128378822Y-92280783D01*
X128264529Y-92420049D01*
X128125263Y-92534342D01*
X127966375Y-92619269D01*
X127793974Y-92671567D01*
X127659611Y-92684800D01*
X127569749Y-92684800D01*
X127435386Y-92671567D01*
X127262985Y-92619269D01*
X127104097Y-92534342D01*
X126964831Y-92420049D01*
X126850538Y-92280783D01*
X126765611Y-92121895D01*
X126713313Y-91949494D01*
X126695655Y-91770200D01*
X126713313Y-91590906D01*
X126765611Y-91418505D01*
X126850538Y-91259617D01*
X126964831Y-91120351D01*
X127104097Y-91006058D01*
X127262985Y-90921131D01*
X127435386Y-90868833D01*
X127569749Y-90855600D01*
X127659611Y-90855600D01*
X127793974Y-90868833D01*
X127793974Y-90868833D01*
G37*
G36*
X133368674Y-91303465D02*
G01*
X133406367Y-91314899D01*
X133441103Y-91333466D01*
X133471548Y-91358452D01*
X133496534Y-91388897D01*
X133515101Y-91423633D01*
X133526535Y-91461326D01*
X133531000Y-91506661D01*
X133531000Y-92343339D01*
X133526535Y-92388674D01*
X133515101Y-92426367D01*
X133496534Y-92461103D01*
X133471548Y-92491548D01*
X133441103Y-92516534D01*
X133406367Y-92535101D01*
X133368674Y-92546535D01*
X133323339Y-92551000D01*
X132236661Y-92551000D01*
X132191326Y-92546535D01*
X132153633Y-92535101D01*
X132118897Y-92516534D01*
X132088452Y-92491548D01*
X132063466Y-92461103D01*
X132044899Y-92426367D01*
X132033465Y-92388674D01*
X132029000Y-92343339D01*
X132029000Y-91506661D01*
X132033465Y-91461326D01*
X132044899Y-91423633D01*
X132063466Y-91388897D01*
X132088452Y-91358452D01*
X132118897Y-91333466D01*
X132153633Y-91314899D01*
X132191326Y-91303465D01*
X132236661Y-91299000D01*
X133323339Y-91299000D01*
X133368674Y-91303465D01*
X133368674Y-91303465D01*
G37*
G36*
X144648674Y-91248465D02*
G01*
X144686367Y-91259899D01*
X144721103Y-91278466D01*
X144751548Y-91303452D01*
X144776534Y-91333897D01*
X144795101Y-91368633D01*
X144806535Y-91406326D01*
X144811000Y-91451661D01*
X144811000Y-92288339D01*
X144806535Y-92333674D01*
X144795101Y-92371367D01*
X144776534Y-92406103D01*
X144751548Y-92436548D01*
X144721103Y-92461534D01*
X144686367Y-92480101D01*
X144648674Y-92491535D01*
X144603339Y-92496000D01*
X143516661Y-92496000D01*
X143471326Y-92491535D01*
X143433633Y-92480101D01*
X143398897Y-92461534D01*
X143368452Y-92436548D01*
X143343466Y-92406103D01*
X143324899Y-92371367D01*
X143313465Y-92333674D01*
X143309000Y-92288339D01*
X143309000Y-91451661D01*
X143313465Y-91406326D01*
X143324899Y-91368633D01*
X143343466Y-91333897D01*
X143368452Y-91303452D01*
X143398897Y-91278466D01*
X143433633Y-91259899D01*
X143471326Y-91248465D01*
X143516661Y-91244000D01*
X144603339Y-91244000D01*
X144648674Y-91248465D01*
X144648674Y-91248465D01*
G37*
G36*
X164273674Y-90658465D02*
G01*
X164311367Y-90669899D01*
X164346103Y-90688466D01*
X164376548Y-90713452D01*
X164401534Y-90743897D01*
X164420101Y-90778633D01*
X164431535Y-90816326D01*
X164436000Y-90861661D01*
X164436000Y-91948339D01*
X164431535Y-91993674D01*
X164420101Y-92031367D01*
X164401534Y-92066103D01*
X164376548Y-92096548D01*
X164346103Y-92121534D01*
X164311367Y-92140101D01*
X164273674Y-92151535D01*
X164228339Y-92156000D01*
X163391661Y-92156000D01*
X163346326Y-92151535D01*
X163308633Y-92140101D01*
X163273897Y-92121534D01*
X163243452Y-92096548D01*
X163218466Y-92066103D01*
X163199899Y-92031367D01*
X163188465Y-91993674D01*
X163184000Y-91948339D01*
X163184000Y-90861661D01*
X163188465Y-90816326D01*
X163199899Y-90778633D01*
X163218466Y-90743897D01*
X163243452Y-90713452D01*
X163273897Y-90688466D01*
X163308633Y-90669899D01*
X163346326Y-90658465D01*
X163391661Y-90654000D01*
X164228339Y-90654000D01*
X164273674Y-90658465D01*
X164273674Y-90658465D01*
G37*
G36*
X166323674Y-90658465D02*
G01*
X166361367Y-90669899D01*
X166396103Y-90688466D01*
X166426548Y-90713452D01*
X166451534Y-90743897D01*
X166470101Y-90778633D01*
X166481535Y-90816326D01*
X166486000Y-90861661D01*
X166486000Y-91948339D01*
X166481535Y-91993674D01*
X166470101Y-92031367D01*
X166451534Y-92066103D01*
X166426548Y-92096548D01*
X166396103Y-92121534D01*
X166361367Y-92140101D01*
X166323674Y-92151535D01*
X166278339Y-92156000D01*
X165441661Y-92156000D01*
X165396326Y-92151535D01*
X165358633Y-92140101D01*
X165323897Y-92121534D01*
X165293452Y-92096548D01*
X165268466Y-92066103D01*
X165249899Y-92031367D01*
X165238465Y-91993674D01*
X165234000Y-91948339D01*
X165234000Y-90861661D01*
X165238465Y-90816326D01*
X165249899Y-90778633D01*
X165268466Y-90743897D01*
X165293452Y-90713452D01*
X165323897Y-90688466D01*
X165358633Y-90669899D01*
X165396326Y-90658465D01*
X165441661Y-90654000D01*
X166278339Y-90654000D01*
X166323674Y-90658465D01*
X166323674Y-90658465D01*
G37*
G36*
X136799928Y-90736764D02*
G01*
X136821009Y-90743160D01*
X136840445Y-90753548D01*
X136857476Y-90767524D01*
X136871452Y-90784555D01*
X136881840Y-90803991D01*
X136888236Y-90825072D01*
X136891000Y-90853140D01*
X136891000Y-91316860D01*
X136888236Y-91344928D01*
X136881840Y-91366009D01*
X136871452Y-91385445D01*
X136857476Y-91402476D01*
X136840445Y-91416452D01*
X136821009Y-91426840D01*
X136799928Y-91433236D01*
X136771860Y-91436000D01*
X135158140Y-91436000D01*
X135130072Y-91433236D01*
X135108991Y-91426840D01*
X135089555Y-91416452D01*
X135072524Y-91402476D01*
X135058548Y-91385445D01*
X135048160Y-91366009D01*
X135041764Y-91344928D01*
X135039000Y-91316860D01*
X135039000Y-90853140D01*
X135041764Y-90825072D01*
X135048160Y-90803991D01*
X135058548Y-90784555D01*
X135072524Y-90767524D01*
X135089555Y-90753548D01*
X135108991Y-90743160D01*
X135130072Y-90736764D01*
X135158140Y-90734000D01*
X136771860Y-90734000D01*
X136799928Y-90736764D01*
X136799928Y-90736764D01*
G37*
G36*
X141949928Y-90736764D02*
G01*
X141971009Y-90743160D01*
X141990445Y-90753548D01*
X142007476Y-90767524D01*
X142021452Y-90784555D01*
X142031840Y-90803991D01*
X142038236Y-90825072D01*
X142041000Y-90853140D01*
X142041000Y-91316860D01*
X142038236Y-91344928D01*
X142031840Y-91366009D01*
X142021452Y-91385445D01*
X142007476Y-91402476D01*
X141990445Y-91416452D01*
X141971009Y-91426840D01*
X141949928Y-91433236D01*
X141921860Y-91436000D01*
X140308140Y-91436000D01*
X140280072Y-91433236D01*
X140258991Y-91426840D01*
X140239555Y-91416452D01*
X140222524Y-91402476D01*
X140208548Y-91385445D01*
X140198160Y-91366009D01*
X140191764Y-91344928D01*
X140189000Y-91316860D01*
X140189000Y-90853140D01*
X140191764Y-90825072D01*
X140198160Y-90803991D01*
X140208548Y-90784555D01*
X140222524Y-90767524D01*
X140239555Y-90753548D01*
X140258991Y-90743160D01*
X140280072Y-90736764D01*
X140308140Y-90734000D01*
X141921860Y-90734000D01*
X141949928Y-90736764D01*
X141949928Y-90736764D01*
G37*
G36*
X184133211Y-83272215D02*
G01*
X184835868Y-83563265D01*
X185468244Y-83985805D01*
X186006035Y-84523596D01*
X186428575Y-85155972D01*
X186719625Y-85858629D01*
X186868000Y-86604563D01*
X186868000Y-87365117D01*
X186719625Y-88111051D01*
X186428575Y-88813708D01*
X186006035Y-89446084D01*
X185468244Y-89983875D01*
X184835868Y-90406415D01*
X184133211Y-90697465D01*
X183387277Y-90845840D01*
X182626723Y-90845840D01*
X181880789Y-90697465D01*
X181178132Y-90406415D01*
X180545756Y-89983875D01*
X180007965Y-89446084D01*
X179585425Y-88813708D01*
X179294375Y-88111051D01*
X179146000Y-87365117D01*
X179146000Y-86604563D01*
X179294375Y-85858629D01*
X179585425Y-85155972D01*
X180007965Y-84523596D01*
X180545756Y-83985805D01*
X181178132Y-83563265D01*
X181880789Y-83272215D01*
X182626723Y-83123840D01*
X183387277Y-83123840D01*
X184133211Y-83272215D01*
X184133211Y-83272215D01*
G37*
G36*
X98794291Y-83272215D02*
G01*
X99496948Y-83563265D01*
X100129324Y-83985805D01*
X100667115Y-84523596D01*
X101089655Y-85155972D01*
X101380705Y-85858629D01*
X101529080Y-86604563D01*
X101529080Y-87365117D01*
X101380705Y-88111051D01*
X101089655Y-88813708D01*
X100667115Y-89446084D01*
X100129324Y-89983875D01*
X99496948Y-90406415D01*
X98794291Y-90697465D01*
X98048357Y-90845840D01*
X97287803Y-90845840D01*
X96541869Y-90697465D01*
X95839212Y-90406415D01*
X95206836Y-89983875D01*
X94669045Y-89446084D01*
X94246505Y-88813708D01*
X93955455Y-88111051D01*
X93807080Y-87365117D01*
X93807080Y-86604563D01*
X93955455Y-85858629D01*
X94246505Y-85155972D01*
X94669045Y-84523596D01*
X95206836Y-83985805D01*
X95839212Y-83563265D01*
X96541869Y-83272215D01*
X97287803Y-83123840D01*
X98048357Y-83123840D01*
X98794291Y-83272215D01*
X98794291Y-83272215D01*
G37*
G36*
X133368674Y-89253465D02*
G01*
X133406367Y-89264899D01*
X133441103Y-89283466D01*
X133471548Y-89308452D01*
X133496534Y-89338897D01*
X133515101Y-89373633D01*
X133526535Y-89411326D01*
X133531000Y-89456661D01*
X133531000Y-90293339D01*
X133526535Y-90338674D01*
X133515101Y-90376367D01*
X133496534Y-90411103D01*
X133471548Y-90441548D01*
X133441103Y-90466534D01*
X133406367Y-90485101D01*
X133368674Y-90496535D01*
X133323339Y-90501000D01*
X132236661Y-90501000D01*
X132191326Y-90496535D01*
X132153633Y-90485101D01*
X132118897Y-90466534D01*
X132088452Y-90441548D01*
X132063466Y-90411103D01*
X132044899Y-90376367D01*
X132033465Y-90338674D01*
X132029000Y-90293339D01*
X132029000Y-89456661D01*
X132033465Y-89411326D01*
X132044899Y-89373633D01*
X132063466Y-89338897D01*
X132088452Y-89308452D01*
X132118897Y-89283466D01*
X132153633Y-89264899D01*
X132191326Y-89253465D01*
X132236661Y-89249000D01*
X133323339Y-89249000D01*
X133368674Y-89253465D01*
X133368674Y-89253465D01*
G37*
G36*
X144648674Y-89198465D02*
G01*
X144686367Y-89209899D01*
X144721103Y-89228466D01*
X144751548Y-89253452D01*
X144776534Y-89283897D01*
X144795101Y-89318633D01*
X144806535Y-89356326D01*
X144811000Y-89401661D01*
X144811000Y-90238339D01*
X144806535Y-90283674D01*
X144795101Y-90321367D01*
X144776534Y-90356103D01*
X144751548Y-90386548D01*
X144721103Y-90411534D01*
X144686367Y-90430101D01*
X144648674Y-90441535D01*
X144603339Y-90446000D01*
X143516661Y-90446000D01*
X143471326Y-90441535D01*
X143433633Y-90430101D01*
X143398897Y-90411534D01*
X143368452Y-90386548D01*
X143343466Y-90356103D01*
X143324899Y-90321367D01*
X143313465Y-90283674D01*
X143309000Y-90238339D01*
X143309000Y-89401661D01*
X143313465Y-89356326D01*
X143324899Y-89318633D01*
X143343466Y-89283897D01*
X143368452Y-89253452D01*
X143398897Y-89228466D01*
X143433633Y-89209899D01*
X143471326Y-89198465D01*
X143516661Y-89194000D01*
X144603339Y-89194000D01*
X144648674Y-89198465D01*
X144648674Y-89198465D01*
G37*
G36*
X136799928Y-89466764D02*
G01*
X136821009Y-89473160D01*
X136840445Y-89483548D01*
X136857476Y-89497524D01*
X136871452Y-89514555D01*
X136881840Y-89533991D01*
X136888236Y-89555072D01*
X136891000Y-89583140D01*
X136891000Y-90046860D01*
X136888236Y-90074928D01*
X136881840Y-90096009D01*
X136871452Y-90115445D01*
X136857476Y-90132476D01*
X136840445Y-90146452D01*
X136821009Y-90156840D01*
X136799928Y-90163236D01*
X136771860Y-90166000D01*
X135158140Y-90166000D01*
X135130072Y-90163236D01*
X135108991Y-90156840D01*
X135089555Y-90146452D01*
X135072524Y-90132476D01*
X135058548Y-90115445D01*
X135048160Y-90096009D01*
X135041764Y-90074928D01*
X135039000Y-90046860D01*
X135039000Y-89583140D01*
X135041764Y-89555072D01*
X135048160Y-89533991D01*
X135058548Y-89514555D01*
X135072524Y-89497524D01*
X135089555Y-89483548D01*
X135108991Y-89473160D01*
X135130072Y-89466764D01*
X135158140Y-89464000D01*
X136771860Y-89464000D01*
X136799928Y-89466764D01*
X136799928Y-89466764D01*
G37*
G36*
X141949928Y-89466764D02*
G01*
X141971009Y-89473160D01*
X141990445Y-89483548D01*
X142007476Y-89497524D01*
X142021452Y-89514555D01*
X142031840Y-89533991D01*
X142038236Y-89555072D01*
X142041000Y-89583140D01*
X142041000Y-90046860D01*
X142038236Y-90074928D01*
X142031840Y-90096009D01*
X142021452Y-90115445D01*
X142007476Y-90132476D01*
X141990445Y-90146452D01*
X141971009Y-90156840D01*
X141949928Y-90163236D01*
X141921860Y-90166000D01*
X140308140Y-90166000D01*
X140280072Y-90163236D01*
X140258991Y-90156840D01*
X140239555Y-90146452D01*
X140222524Y-90132476D01*
X140208548Y-90115445D01*
X140198160Y-90096009D01*
X140191764Y-90074928D01*
X140189000Y-90046860D01*
X140189000Y-89583140D01*
X140191764Y-89555072D01*
X140198160Y-89533991D01*
X140208548Y-89514555D01*
X140222524Y-89497524D01*
X140239555Y-89483548D01*
X140258991Y-89473160D01*
X140280072Y-89466764D01*
X140308140Y-89464000D01*
X141921860Y-89464000D01*
X141949928Y-89466764D01*
X141949928Y-89466764D01*
G37*
G36*
X127793974Y-88328833D02*
G01*
X127966375Y-88381131D01*
X128125263Y-88466058D01*
X128264529Y-88580351D01*
X128378822Y-88719617D01*
X128463749Y-88878505D01*
X128516047Y-89050906D01*
X128533705Y-89230200D01*
X128516047Y-89409494D01*
X128463749Y-89581895D01*
X128378822Y-89740783D01*
X128264529Y-89880049D01*
X128125263Y-89994342D01*
X127966375Y-90079269D01*
X127793974Y-90131567D01*
X127659611Y-90144800D01*
X127569749Y-90144800D01*
X127435386Y-90131567D01*
X127262985Y-90079269D01*
X127104097Y-89994342D01*
X126964831Y-89880049D01*
X126850538Y-89740783D01*
X126765611Y-89581895D01*
X126713313Y-89409494D01*
X126695655Y-89230200D01*
X126713313Y-89050906D01*
X126765611Y-88878505D01*
X126850538Y-88719617D01*
X126964831Y-88580351D01*
X127104097Y-88466058D01*
X127262985Y-88381131D01*
X127435386Y-88328833D01*
X127569749Y-88315600D01*
X127659611Y-88315600D01*
X127793974Y-88328833D01*
X127793974Y-88328833D01*
G37*
G36*
X125989280Y-90144800D02*
G01*
X124160080Y-90144800D01*
X124160080Y-88315600D01*
X125989280Y-88315600D01*
X125989280Y-90144800D01*
X125989280Y-90144800D01*
G37*
G36*
X173567042Y-88269678D02*
G01*
X173633227Y-88276197D01*
X173803066Y-88327717D01*
X173959591Y-88411382D01*
X173995329Y-88440712D01*
X174096786Y-88523974D01*
X174180048Y-88625431D01*
X174209378Y-88661169D01*
X174293043Y-88817694D01*
X174344563Y-88987533D01*
X174361959Y-89164160D01*
X174344563Y-89340787D01*
X174297017Y-89497524D01*
X174293042Y-89510628D01*
X174280554Y-89533991D01*
X174209378Y-89667151D01*
X174180048Y-89702889D01*
X174096786Y-89804346D01*
X174004540Y-89880049D01*
X173959591Y-89916938D01*
X173959589Y-89916939D01*
X173814780Y-89994342D01*
X173803066Y-90000603D01*
X173633227Y-90052123D01*
X173576998Y-90057661D01*
X173500860Y-90065160D01*
X173412340Y-90065160D01*
X173336202Y-90057661D01*
X173279973Y-90052123D01*
X173110134Y-90000603D01*
X173098421Y-89994342D01*
X172953611Y-89916939D01*
X172953609Y-89916938D01*
X172908660Y-89880049D01*
X172816414Y-89804346D01*
X172733152Y-89702889D01*
X172703822Y-89667151D01*
X172632646Y-89533991D01*
X172620158Y-89510628D01*
X172616183Y-89497524D01*
X172568637Y-89340787D01*
X172551241Y-89164160D01*
X172568637Y-88987533D01*
X172620157Y-88817694D01*
X172703822Y-88661169D01*
X172733152Y-88625431D01*
X172816414Y-88523974D01*
X172917871Y-88440712D01*
X172953609Y-88411382D01*
X173110134Y-88327717D01*
X173279973Y-88276197D01*
X173346158Y-88269678D01*
X173412340Y-88263160D01*
X173500860Y-88263160D01*
X173567042Y-88269678D01*
X173567042Y-88269678D01*
G37*
G36*
X171817600Y-90065160D02*
G01*
X170015600Y-90065160D01*
X170015600Y-88263160D01*
X171817600Y-88263160D01*
X171817600Y-90065160D01*
X171817600Y-90065160D01*
G37*
G36*
X136799928Y-88196764D02*
G01*
X136821009Y-88203160D01*
X136840445Y-88213548D01*
X136857476Y-88227524D01*
X136871452Y-88244555D01*
X136881840Y-88263991D01*
X136888236Y-88285072D01*
X136891000Y-88313140D01*
X136891000Y-88776860D01*
X136888236Y-88804928D01*
X136881840Y-88826009D01*
X136871452Y-88845445D01*
X136857476Y-88862476D01*
X136840445Y-88876452D01*
X136821009Y-88886840D01*
X136799928Y-88893236D01*
X136771860Y-88896000D01*
X135158140Y-88896000D01*
X135130072Y-88893236D01*
X135108991Y-88886840D01*
X135089555Y-88876452D01*
X135072524Y-88862476D01*
X135058548Y-88845445D01*
X135048160Y-88826009D01*
X135041764Y-88804928D01*
X135039000Y-88776860D01*
X135039000Y-88313140D01*
X135041764Y-88285072D01*
X135048160Y-88263991D01*
X135058548Y-88244555D01*
X135072524Y-88227524D01*
X135089555Y-88213548D01*
X135108991Y-88203160D01*
X135130072Y-88196764D01*
X135158140Y-88194000D01*
X136771860Y-88194000D01*
X136799928Y-88196764D01*
X136799928Y-88196764D01*
G37*
G36*
X141949928Y-88196764D02*
G01*
X141971009Y-88203160D01*
X141990445Y-88213548D01*
X142007476Y-88227524D01*
X142021452Y-88244555D01*
X142031840Y-88263991D01*
X142038236Y-88285072D01*
X142041000Y-88313140D01*
X142041000Y-88776860D01*
X142038236Y-88804928D01*
X142031840Y-88826009D01*
X142021452Y-88845445D01*
X142007476Y-88862476D01*
X141990445Y-88876452D01*
X141971009Y-88886840D01*
X141949928Y-88893236D01*
X141921860Y-88896000D01*
X140308140Y-88896000D01*
X140280072Y-88893236D01*
X140258991Y-88886840D01*
X140239555Y-88876452D01*
X140222524Y-88862476D01*
X140208548Y-88845445D01*
X140198160Y-88826009D01*
X140191764Y-88804928D01*
X140189000Y-88776860D01*
X140189000Y-88313140D01*
X140191764Y-88285072D01*
X140198160Y-88263991D01*
X140208548Y-88244555D01*
X140222524Y-88227524D01*
X140239555Y-88213548D01*
X140258991Y-88203160D01*
X140280072Y-88196764D01*
X140308140Y-88194000D01*
X141921860Y-88194000D01*
X141949928Y-88196764D01*
X141949928Y-88196764D01*
G37*
G36*
X160723374Y-86374465D02*
G01*
X160761067Y-86385899D01*
X160795803Y-86404466D01*
X160826248Y-86429452D01*
X160851234Y-86459897D01*
X160869801Y-86494633D01*
X160881235Y-86532326D01*
X160885700Y-86577661D01*
X160885700Y-87414339D01*
X160881235Y-87459674D01*
X160869801Y-87497367D01*
X160851234Y-87532103D01*
X160826248Y-87562548D01*
X160795803Y-87587534D01*
X160761067Y-87606101D01*
X160723374Y-87617535D01*
X160678039Y-87622000D01*
X159591361Y-87622000D01*
X159546026Y-87617535D01*
X159508333Y-87606101D01*
X159473597Y-87587534D01*
X159443152Y-87562548D01*
X159418166Y-87532103D01*
X159399599Y-87497367D01*
X159388165Y-87459674D01*
X159383700Y-87414339D01*
X159383700Y-86577661D01*
X159388165Y-86532326D01*
X159399599Y-86494633D01*
X159418166Y-86459897D01*
X159443152Y-86429452D01*
X159473597Y-86404466D01*
X159508333Y-86385899D01*
X159546026Y-86374465D01*
X159591361Y-86370000D01*
X160678039Y-86370000D01*
X160723374Y-86374465D01*
X160723374Y-86374465D01*
G37*
G36*
X173567043Y-85729679D02*
G01*
X173633227Y-85736197D01*
X173803066Y-85787717D01*
X173959591Y-85871382D01*
X173995329Y-85900712D01*
X174096786Y-85983974D01*
X174180048Y-86085431D01*
X174209378Y-86121169D01*
X174293043Y-86277694D01*
X174344563Y-86447533D01*
X174361959Y-86624160D01*
X174344563Y-86800787D01*
X174293043Y-86970626D01*
X174209378Y-87127151D01*
X174201797Y-87136388D01*
X174096786Y-87264346D01*
X173995329Y-87347608D01*
X173959591Y-87376938D01*
X173803066Y-87460603D01*
X173633227Y-87512123D01*
X173567042Y-87518642D01*
X173500860Y-87525160D01*
X173412340Y-87525160D01*
X173346158Y-87518642D01*
X173279973Y-87512123D01*
X173110134Y-87460603D01*
X172953609Y-87376938D01*
X172917871Y-87347608D01*
X172816414Y-87264346D01*
X172711403Y-87136388D01*
X172703822Y-87127151D01*
X172620157Y-86970626D01*
X172568637Y-86800787D01*
X172551241Y-86624160D01*
X172568637Y-86447533D01*
X172620157Y-86277694D01*
X172703822Y-86121169D01*
X172733152Y-86085431D01*
X172816414Y-85983974D01*
X172917871Y-85900712D01*
X172953609Y-85871382D01*
X173110134Y-85787717D01*
X173279973Y-85736197D01*
X173346157Y-85729679D01*
X173412340Y-85723160D01*
X173500860Y-85723160D01*
X173567043Y-85729679D01*
X173567043Y-85729679D01*
G37*
G36*
X171027043Y-85729679D02*
G01*
X171093227Y-85736197D01*
X171263066Y-85787717D01*
X171419591Y-85871382D01*
X171455329Y-85900712D01*
X171556786Y-85983974D01*
X171640048Y-86085431D01*
X171669378Y-86121169D01*
X171753043Y-86277694D01*
X171804563Y-86447533D01*
X171821959Y-86624160D01*
X171804563Y-86800787D01*
X171753043Y-86970626D01*
X171669378Y-87127151D01*
X171661797Y-87136388D01*
X171556786Y-87264346D01*
X171455329Y-87347608D01*
X171419591Y-87376938D01*
X171263066Y-87460603D01*
X171093227Y-87512123D01*
X171027042Y-87518642D01*
X170960860Y-87525160D01*
X170872340Y-87525160D01*
X170806158Y-87518642D01*
X170739973Y-87512123D01*
X170570134Y-87460603D01*
X170413609Y-87376938D01*
X170377871Y-87347608D01*
X170276414Y-87264346D01*
X170171403Y-87136388D01*
X170163822Y-87127151D01*
X170080157Y-86970626D01*
X170028637Y-86800787D01*
X170011241Y-86624160D01*
X170028637Y-86447533D01*
X170080157Y-86277694D01*
X170163822Y-86121169D01*
X170193152Y-86085431D01*
X170276414Y-85983974D01*
X170377871Y-85900712D01*
X170413609Y-85871382D01*
X170570134Y-85787717D01*
X170739973Y-85736197D01*
X170806157Y-85729679D01*
X170872340Y-85723160D01*
X170960860Y-85723160D01*
X171027043Y-85729679D01*
X171027043Y-85729679D01*
G37*
G36*
X162725368Y-86230165D02*
G01*
X162764038Y-86241896D01*
X162799677Y-86260946D01*
X162830917Y-86286583D01*
X162856554Y-86317823D01*
X162875604Y-86353462D01*
X162887335Y-86392132D01*
X162891900Y-86438488D01*
X162891900Y-87089712D01*
X162887335Y-87136068D01*
X162875604Y-87174738D01*
X162856554Y-87210377D01*
X162830917Y-87241617D01*
X162799677Y-87267254D01*
X162764038Y-87286304D01*
X162725368Y-87298035D01*
X162679012Y-87302600D01*
X161602788Y-87302600D01*
X161556432Y-87298035D01*
X161517762Y-87286304D01*
X161482123Y-87267254D01*
X161450883Y-87241617D01*
X161425246Y-87210377D01*
X161406196Y-87174738D01*
X161394465Y-87136068D01*
X161389900Y-87089712D01*
X161389900Y-86438488D01*
X161394465Y-86392132D01*
X161406196Y-86353462D01*
X161425246Y-86317823D01*
X161450883Y-86286583D01*
X161482123Y-86260946D01*
X161517762Y-86241896D01*
X161556432Y-86230165D01*
X161602788Y-86225600D01*
X162679012Y-86225600D01*
X162725368Y-86230165D01*
X162725368Y-86230165D01*
G37*
G36*
X149960443Y-85125519D02*
G01*
X150026627Y-85132037D01*
X150196466Y-85183557D01*
X150352991Y-85267222D01*
X150388729Y-85296552D01*
X150490186Y-85379814D01*
X150545624Y-85447367D01*
X150602778Y-85517009D01*
X150686443Y-85673534D01*
X150737963Y-85843373D01*
X150755359Y-86020000D01*
X150737963Y-86196627D01*
X150686443Y-86366466D01*
X150602778Y-86522991D01*
X150590446Y-86538017D01*
X150490186Y-86660186D01*
X150388729Y-86743448D01*
X150352991Y-86772778D01*
X150196466Y-86856443D01*
X150026627Y-86907963D01*
X149960443Y-86914481D01*
X149894260Y-86921000D01*
X149805740Y-86921000D01*
X149739557Y-86914481D01*
X149673373Y-86907963D01*
X149503534Y-86856443D01*
X149347009Y-86772778D01*
X149311271Y-86743448D01*
X149209814Y-86660186D01*
X149109554Y-86538017D01*
X149097222Y-86522991D01*
X149013557Y-86366466D01*
X148962037Y-86196627D01*
X148944641Y-86020000D01*
X148962037Y-85843373D01*
X149013557Y-85673534D01*
X149097222Y-85517009D01*
X149154376Y-85447367D01*
X149209814Y-85379814D01*
X149311271Y-85296552D01*
X149347009Y-85267222D01*
X149503534Y-85183557D01*
X149673373Y-85132037D01*
X149739557Y-85125519D01*
X149805740Y-85119000D01*
X149894260Y-85119000D01*
X149960443Y-85125519D01*
X149960443Y-85125519D01*
G37*
G36*
X155040443Y-85125519D02*
G01*
X155106627Y-85132037D01*
X155276466Y-85183557D01*
X155432991Y-85267222D01*
X155468729Y-85296552D01*
X155570186Y-85379814D01*
X155625624Y-85447367D01*
X155682778Y-85517009D01*
X155766443Y-85673534D01*
X155817963Y-85843373D01*
X155835359Y-86020000D01*
X155817963Y-86196627D01*
X155766443Y-86366466D01*
X155682778Y-86522991D01*
X155670446Y-86538017D01*
X155570186Y-86660186D01*
X155468729Y-86743448D01*
X155432991Y-86772778D01*
X155276466Y-86856443D01*
X155106627Y-86907963D01*
X155040443Y-86914481D01*
X154974260Y-86921000D01*
X154885740Y-86921000D01*
X154819557Y-86914481D01*
X154753373Y-86907963D01*
X154583534Y-86856443D01*
X154427009Y-86772778D01*
X154391271Y-86743448D01*
X154289814Y-86660186D01*
X154189554Y-86538017D01*
X154177222Y-86522991D01*
X154093557Y-86366466D01*
X154042037Y-86196627D01*
X154024641Y-86020000D01*
X154042037Y-85843373D01*
X154093557Y-85673534D01*
X154177222Y-85517009D01*
X154234376Y-85447367D01*
X154289814Y-85379814D01*
X154391271Y-85296552D01*
X154427009Y-85267222D01*
X154583534Y-85183557D01*
X154753373Y-85132037D01*
X154819557Y-85125519D01*
X154885740Y-85119000D01*
X154974260Y-85119000D01*
X155040443Y-85125519D01*
X155040443Y-85125519D01*
G37*
G36*
X152500443Y-85125519D02*
G01*
X152566627Y-85132037D01*
X152736466Y-85183557D01*
X152892991Y-85267222D01*
X152928729Y-85296552D01*
X153030186Y-85379814D01*
X153085624Y-85447367D01*
X153142778Y-85517009D01*
X153226443Y-85673534D01*
X153277963Y-85843373D01*
X153295359Y-86020000D01*
X153277963Y-86196627D01*
X153226443Y-86366466D01*
X153142778Y-86522991D01*
X153130446Y-86538017D01*
X153030186Y-86660186D01*
X152928729Y-86743448D01*
X152892991Y-86772778D01*
X152736466Y-86856443D01*
X152566627Y-86907963D01*
X152500443Y-86914481D01*
X152434260Y-86921000D01*
X152345740Y-86921000D01*
X152279557Y-86914481D01*
X152213373Y-86907963D01*
X152043534Y-86856443D01*
X151887009Y-86772778D01*
X151851271Y-86743448D01*
X151749814Y-86660186D01*
X151649554Y-86538017D01*
X151637222Y-86522991D01*
X151553557Y-86366466D01*
X151502037Y-86196627D01*
X151484641Y-86020000D01*
X151502037Y-85843373D01*
X151553557Y-85673534D01*
X151637222Y-85517009D01*
X151694376Y-85447367D01*
X151749814Y-85379814D01*
X151851271Y-85296552D01*
X151887009Y-85267222D01*
X152043534Y-85183557D01*
X152213373Y-85132037D01*
X152279557Y-85125519D01*
X152345740Y-85119000D01*
X152434260Y-85119000D01*
X152500443Y-85125519D01*
X152500443Y-85125519D01*
G37*
G36*
X148211000Y-86921000D02*
G01*
X146409000Y-86921000D01*
X146409000Y-85119000D01*
X148211000Y-85119000D01*
X148211000Y-86921000D01*
X148211000Y-86921000D01*
G37*
G36*
X160723374Y-84324465D02*
G01*
X160761067Y-84335899D01*
X160795803Y-84354466D01*
X160826248Y-84379452D01*
X160851234Y-84409897D01*
X160869801Y-84444633D01*
X160881235Y-84482326D01*
X160885700Y-84527661D01*
X160885700Y-85364339D01*
X160881235Y-85409674D01*
X160869801Y-85447367D01*
X160851234Y-85482103D01*
X160826248Y-85512548D01*
X160795803Y-85537534D01*
X160761067Y-85556101D01*
X160723374Y-85567535D01*
X160678039Y-85572000D01*
X159591361Y-85572000D01*
X159546026Y-85567535D01*
X159508333Y-85556101D01*
X159473597Y-85537534D01*
X159443152Y-85512548D01*
X159418166Y-85482103D01*
X159399599Y-85447367D01*
X159388165Y-85409674D01*
X159383700Y-85364339D01*
X159383700Y-84527661D01*
X159388165Y-84482326D01*
X159399599Y-84444633D01*
X159418166Y-84409897D01*
X159443152Y-84379452D01*
X159473597Y-84354466D01*
X159508333Y-84335899D01*
X159546026Y-84324465D01*
X159591361Y-84320000D01*
X160678039Y-84320000D01*
X160723374Y-84324465D01*
X160723374Y-84324465D01*
G37*
G36*
X162725368Y-84355165D02*
G01*
X162764038Y-84366896D01*
X162799677Y-84385946D01*
X162830917Y-84411583D01*
X162856554Y-84442823D01*
X162875604Y-84478462D01*
X162887335Y-84517132D01*
X162891900Y-84563488D01*
X162891900Y-85214712D01*
X162887335Y-85261068D01*
X162875604Y-85299738D01*
X162856554Y-85335377D01*
X162830917Y-85366617D01*
X162799677Y-85392254D01*
X162764038Y-85411304D01*
X162725368Y-85423035D01*
X162679012Y-85427600D01*
X161602788Y-85427600D01*
X161556432Y-85423035D01*
X161517762Y-85411304D01*
X161482123Y-85392254D01*
X161450883Y-85366617D01*
X161425246Y-85335377D01*
X161406196Y-85299738D01*
X161394465Y-85261068D01*
X161389900Y-85214712D01*
X161389900Y-84563488D01*
X161394465Y-84517132D01*
X161406196Y-84478462D01*
X161425246Y-84442823D01*
X161450883Y-84411583D01*
X161482123Y-84385946D01*
X161517762Y-84366896D01*
X161556432Y-84355165D01*
X161602788Y-84350600D01*
X162679012Y-84350600D01*
X162725368Y-84355165D01*
X162725368Y-84355165D01*
G37*
G36*
X171027042Y-83189678D02*
G01*
X171093227Y-83196197D01*
X171263066Y-83247717D01*
X171419591Y-83331382D01*
X171455329Y-83360712D01*
X171556786Y-83443974D01*
X171640048Y-83545431D01*
X171669378Y-83581169D01*
X171753043Y-83737694D01*
X171804563Y-83907533D01*
X171821959Y-84084160D01*
X171804563Y-84260787D01*
X171753043Y-84430626D01*
X171669378Y-84587151D01*
X171642542Y-84619850D01*
X171556786Y-84724346D01*
X171455329Y-84807608D01*
X171419591Y-84836938D01*
X171263066Y-84920603D01*
X171093227Y-84972123D01*
X171027042Y-84978642D01*
X170960860Y-84985160D01*
X170872340Y-84985160D01*
X170806158Y-84978642D01*
X170739973Y-84972123D01*
X170570134Y-84920603D01*
X170413609Y-84836938D01*
X170377871Y-84807608D01*
X170276414Y-84724346D01*
X170190658Y-84619850D01*
X170163822Y-84587151D01*
X170080157Y-84430626D01*
X170028637Y-84260787D01*
X170011241Y-84084160D01*
X170028637Y-83907533D01*
X170080157Y-83737694D01*
X170163822Y-83581169D01*
X170193152Y-83545431D01*
X170276414Y-83443974D01*
X170377871Y-83360712D01*
X170413609Y-83331382D01*
X170570134Y-83247717D01*
X170739973Y-83196197D01*
X170806158Y-83189678D01*
X170872340Y-83183160D01*
X170960860Y-83183160D01*
X171027042Y-83189678D01*
X171027042Y-83189678D01*
G37*
G36*
X173567042Y-83189678D02*
G01*
X173633227Y-83196197D01*
X173803066Y-83247717D01*
X173959591Y-83331382D01*
X173995329Y-83360712D01*
X174096786Y-83443974D01*
X174180048Y-83545431D01*
X174209378Y-83581169D01*
X174293043Y-83737694D01*
X174344563Y-83907533D01*
X174361959Y-84084160D01*
X174344563Y-84260787D01*
X174293043Y-84430626D01*
X174209378Y-84587151D01*
X174182542Y-84619850D01*
X174096786Y-84724346D01*
X173995329Y-84807608D01*
X173959591Y-84836938D01*
X173803066Y-84920603D01*
X173633227Y-84972123D01*
X173567042Y-84978642D01*
X173500860Y-84985160D01*
X173412340Y-84985160D01*
X173346158Y-84978642D01*
X173279973Y-84972123D01*
X173110134Y-84920603D01*
X172953609Y-84836938D01*
X172917871Y-84807608D01*
X172816414Y-84724346D01*
X172730658Y-84619850D01*
X172703822Y-84587151D01*
X172620157Y-84430626D01*
X172568637Y-84260787D01*
X172551241Y-84084160D01*
X172568637Y-83907533D01*
X172620157Y-83737694D01*
X172703822Y-83581169D01*
X172733152Y-83545431D01*
X172816414Y-83443974D01*
X172917871Y-83360712D01*
X172953609Y-83331382D01*
X173110134Y-83247717D01*
X173279973Y-83196197D01*
X173346158Y-83189678D01*
X173412340Y-83183160D01*
X173500860Y-83183160D01*
X173567042Y-83189678D01*
X173567042Y-83189678D01*
G37*
M02*
