G04 #@! TF.GenerationSoftware,KiCad,Pcbnew,(5.1.4)-1*
G04 #@! TF.CreationDate,2020-02-04T12:11:03-05:00*
G04 #@! TF.ProjectId,CellMan,43656c6c-4d61-46e2-9e6b-696361645f70,2.0*
G04 #@! TF.SameCoordinates,Original*
G04 #@! TF.FileFunction,Soldermask,Bot*
G04 #@! TF.FilePolarity,Negative*
%FSLAX46Y46*%
G04 Gerber Fmt 4.6, Leading zero omitted, Abs format (unit mm)*
G04 Created by KiCad (PCBNEW (5.1.4)-1) date 2020-02-04 12:11:03*
%MOMM*%
%LPD*%
G04 APERTURE LIST*
%ADD10C,0.100000*%
G04 APERTURE END LIST*
D10*
G36*
X110754105Y-101824277D02*
G01*
X111362213Y-102008745D01*
X111922640Y-102308300D01*
X112413864Y-102711436D01*
X112817000Y-103202660D01*
X113116555Y-103763087D01*
X113301023Y-104371195D01*
X113363309Y-105003600D01*
X113301023Y-105636005D01*
X113116555Y-106244113D01*
X112817000Y-106804540D01*
X112413864Y-107295764D01*
X111922640Y-107698900D01*
X111362213Y-107998455D01*
X110754105Y-108182923D01*
X110280184Y-108229600D01*
X105518216Y-108229600D01*
X105044295Y-108182923D01*
X104436187Y-107998455D01*
X103875760Y-107698900D01*
X103384536Y-107295764D01*
X102981400Y-106804540D01*
X102681845Y-106244113D01*
X102497377Y-105636005D01*
X102435091Y-105003600D01*
X102497377Y-104371195D01*
X102681845Y-103763087D01*
X102981400Y-103202660D01*
X103384536Y-102711436D01*
X103875760Y-102308300D01*
X104436187Y-102008745D01*
X105044295Y-101824277D01*
X105518216Y-101777600D01*
X110280184Y-101777600D01*
X110754105Y-101824277D01*
X110754105Y-101824277D01*
G37*
G36*
X178572105Y-101824277D02*
G01*
X179180213Y-102008745D01*
X179740640Y-102308300D01*
X180231864Y-102711436D01*
X180635000Y-103202660D01*
X180934555Y-103763087D01*
X181119023Y-104371195D01*
X181181309Y-105003600D01*
X181119023Y-105636005D01*
X180934555Y-106244113D01*
X180635000Y-106804540D01*
X180231864Y-107295764D01*
X179740640Y-107698900D01*
X179180213Y-107998455D01*
X178572105Y-108182923D01*
X178098184Y-108229600D01*
X173336216Y-108229600D01*
X172862295Y-108182923D01*
X172254187Y-107998455D01*
X171693760Y-107698900D01*
X171202536Y-107295764D01*
X170799400Y-106804540D01*
X170499845Y-106244113D01*
X170315377Y-105636005D01*
X170253091Y-105003600D01*
X170315377Y-104371195D01*
X170499845Y-103763087D01*
X170799400Y-103202660D01*
X171202536Y-102711436D01*
X171693760Y-102308300D01*
X172254187Y-102008745D01*
X172862295Y-101824277D01*
X173336216Y-101777600D01*
X178098184Y-101777600D01*
X178572105Y-101824277D01*
X178572105Y-101824277D01*
G37*
G36*
X155884294Y-91833633D02*
G01*
X156056695Y-91885931D01*
X156215583Y-91970858D01*
X156354849Y-92085151D01*
X156469142Y-92224417D01*
X156554069Y-92383305D01*
X156606367Y-92555706D01*
X156624025Y-92735000D01*
X156606367Y-92914294D01*
X156554069Y-93086695D01*
X156469142Y-93245583D01*
X156354849Y-93384849D01*
X156215583Y-93499142D01*
X156056695Y-93584069D01*
X155884294Y-93636367D01*
X155749931Y-93649600D01*
X155660069Y-93649600D01*
X155525706Y-93636367D01*
X155353305Y-93584069D01*
X155194417Y-93499142D01*
X155055151Y-93384849D01*
X154940858Y-93245583D01*
X154855931Y-93086695D01*
X154803633Y-92914294D01*
X154785975Y-92735000D01*
X154803633Y-92555706D01*
X154855931Y-92383305D01*
X154940858Y-92224417D01*
X155055151Y-92085151D01*
X155194417Y-91970858D01*
X155353305Y-91885931D01*
X155525706Y-91833633D01*
X155660069Y-91820400D01*
X155749931Y-91820400D01*
X155884294Y-91833633D01*
X155884294Y-91833633D01*
G37*
G36*
X158424294Y-91833633D02*
G01*
X158596695Y-91885931D01*
X158755583Y-91970858D01*
X158894849Y-92085151D01*
X159009142Y-92224417D01*
X159094069Y-92383305D01*
X159146367Y-92555706D01*
X159164025Y-92735000D01*
X159146367Y-92914294D01*
X159094069Y-93086695D01*
X159009142Y-93245583D01*
X158894849Y-93384849D01*
X158755583Y-93499142D01*
X158596695Y-93584069D01*
X158424294Y-93636367D01*
X158289931Y-93649600D01*
X158200069Y-93649600D01*
X158065706Y-93636367D01*
X157893305Y-93584069D01*
X157734417Y-93499142D01*
X157595151Y-93384849D01*
X157480858Y-93245583D01*
X157395931Y-93086695D01*
X157343633Y-92914294D01*
X157325975Y-92735000D01*
X157343633Y-92555706D01*
X157395931Y-92383305D01*
X157480858Y-92224417D01*
X157595151Y-92085151D01*
X157734417Y-91970858D01*
X157893305Y-91885931D01*
X158065706Y-91833633D01*
X158200069Y-91820400D01*
X158289931Y-91820400D01*
X158424294Y-91833633D01*
X158424294Y-91833633D01*
G37*
G36*
X158424294Y-89293633D02*
G01*
X158596695Y-89345931D01*
X158755583Y-89430858D01*
X158894849Y-89545151D01*
X159009142Y-89684417D01*
X159094069Y-89843305D01*
X159146367Y-90015706D01*
X159164025Y-90195000D01*
X159146367Y-90374294D01*
X159094069Y-90546695D01*
X159009142Y-90705583D01*
X158894849Y-90844849D01*
X158755583Y-90959142D01*
X158596695Y-91044069D01*
X158424294Y-91096367D01*
X158289931Y-91109600D01*
X158200069Y-91109600D01*
X158065706Y-91096367D01*
X157893305Y-91044069D01*
X157734417Y-90959142D01*
X157595151Y-90844849D01*
X157480858Y-90705583D01*
X157395931Y-90546695D01*
X157343633Y-90374294D01*
X157325975Y-90195000D01*
X157343633Y-90015706D01*
X157395931Y-89843305D01*
X157480858Y-89684417D01*
X157595151Y-89545151D01*
X157734417Y-89430858D01*
X157893305Y-89345931D01*
X158065706Y-89293633D01*
X158200069Y-89280400D01*
X158289931Y-89280400D01*
X158424294Y-89293633D01*
X158424294Y-89293633D01*
G37*
G36*
X155884294Y-89293633D02*
G01*
X156056695Y-89345931D01*
X156215583Y-89430858D01*
X156354849Y-89545151D01*
X156469142Y-89684417D01*
X156554069Y-89843305D01*
X156606367Y-90015706D01*
X156624025Y-90195000D01*
X156606367Y-90374294D01*
X156554069Y-90546695D01*
X156469142Y-90705583D01*
X156354849Y-90844849D01*
X156215583Y-90959142D01*
X156056695Y-91044069D01*
X155884294Y-91096367D01*
X155749931Y-91109600D01*
X155660069Y-91109600D01*
X155525706Y-91096367D01*
X155353305Y-91044069D01*
X155194417Y-90959142D01*
X155055151Y-90844849D01*
X154940858Y-90705583D01*
X154855931Y-90546695D01*
X154803633Y-90374294D01*
X154785975Y-90195000D01*
X154803633Y-90015706D01*
X154855931Y-89843305D01*
X154940858Y-89684417D01*
X155055151Y-89545151D01*
X155194417Y-89430858D01*
X155353305Y-89345931D01*
X155525706Y-89293633D01*
X155660069Y-89280400D01*
X155749931Y-89280400D01*
X155884294Y-89293633D01*
X155884294Y-89293633D01*
G37*
G36*
X158424294Y-86753633D02*
G01*
X158596695Y-86805931D01*
X158755583Y-86890858D01*
X158894849Y-87005151D01*
X159009142Y-87144417D01*
X159094069Y-87303305D01*
X159146367Y-87475706D01*
X159164025Y-87655000D01*
X159146367Y-87834294D01*
X159094069Y-88006695D01*
X159009142Y-88165583D01*
X158894849Y-88304849D01*
X158755583Y-88419142D01*
X158596695Y-88504069D01*
X158424294Y-88556367D01*
X158289931Y-88569600D01*
X158200069Y-88569600D01*
X158065706Y-88556367D01*
X157893305Y-88504069D01*
X157734417Y-88419142D01*
X157595151Y-88304849D01*
X157480858Y-88165583D01*
X157395931Y-88006695D01*
X157343633Y-87834294D01*
X157325975Y-87655000D01*
X157343633Y-87475706D01*
X157395931Y-87303305D01*
X157480858Y-87144417D01*
X157595151Y-87005151D01*
X157734417Y-86890858D01*
X157893305Y-86805931D01*
X158065706Y-86753633D01*
X158200069Y-86740400D01*
X158289931Y-86740400D01*
X158424294Y-86753633D01*
X158424294Y-86753633D01*
G37*
G36*
X156619600Y-88569600D02*
G01*
X154790400Y-88569600D01*
X154790400Y-86740400D01*
X156619600Y-86740400D01*
X156619600Y-88569600D01*
X156619600Y-88569600D01*
G37*
G36*
X104161000Y-85001000D02*
G01*
X102359000Y-85001000D01*
X102359000Y-83199000D01*
X104161000Y-83199000D01*
X104161000Y-85001000D01*
X104161000Y-85001000D01*
G37*
G36*
X113530443Y-83205519D02*
G01*
X113596627Y-83212037D01*
X113766466Y-83263557D01*
X113922991Y-83347222D01*
X113958729Y-83376552D01*
X114060186Y-83459814D01*
X114143448Y-83561271D01*
X114172778Y-83597009D01*
X114256443Y-83753534D01*
X114307963Y-83923373D01*
X114325359Y-84100000D01*
X114307963Y-84276627D01*
X114256443Y-84446466D01*
X114172778Y-84602991D01*
X114143448Y-84638729D01*
X114060186Y-84740186D01*
X113958729Y-84823448D01*
X113922991Y-84852778D01*
X113766466Y-84936443D01*
X113596627Y-84987963D01*
X113530442Y-84994482D01*
X113464260Y-85001000D01*
X113375740Y-85001000D01*
X113309558Y-84994482D01*
X113243373Y-84987963D01*
X113073534Y-84936443D01*
X112917009Y-84852778D01*
X112881271Y-84823448D01*
X112779814Y-84740186D01*
X112696552Y-84638729D01*
X112667222Y-84602991D01*
X112583557Y-84446466D01*
X112532037Y-84276627D01*
X112514641Y-84100000D01*
X112532037Y-83923373D01*
X112583557Y-83753534D01*
X112667222Y-83597009D01*
X112696552Y-83561271D01*
X112779814Y-83459814D01*
X112881271Y-83376552D01*
X112917009Y-83347222D01*
X113073534Y-83263557D01*
X113243373Y-83212037D01*
X113309557Y-83205519D01*
X113375740Y-83199000D01*
X113464260Y-83199000D01*
X113530443Y-83205519D01*
X113530443Y-83205519D01*
G37*
G36*
X105910443Y-83205519D02*
G01*
X105976627Y-83212037D01*
X106146466Y-83263557D01*
X106302991Y-83347222D01*
X106338729Y-83376552D01*
X106440186Y-83459814D01*
X106523448Y-83561271D01*
X106552778Y-83597009D01*
X106636443Y-83753534D01*
X106687963Y-83923373D01*
X106705359Y-84100000D01*
X106687963Y-84276627D01*
X106636443Y-84446466D01*
X106552778Y-84602991D01*
X106523448Y-84638729D01*
X106440186Y-84740186D01*
X106338729Y-84823448D01*
X106302991Y-84852778D01*
X106146466Y-84936443D01*
X105976627Y-84987963D01*
X105910442Y-84994482D01*
X105844260Y-85001000D01*
X105755740Y-85001000D01*
X105689558Y-84994482D01*
X105623373Y-84987963D01*
X105453534Y-84936443D01*
X105297009Y-84852778D01*
X105261271Y-84823448D01*
X105159814Y-84740186D01*
X105076552Y-84638729D01*
X105047222Y-84602991D01*
X104963557Y-84446466D01*
X104912037Y-84276627D01*
X104894641Y-84100000D01*
X104912037Y-83923373D01*
X104963557Y-83753534D01*
X105047222Y-83597009D01*
X105076552Y-83561271D01*
X105159814Y-83459814D01*
X105261271Y-83376552D01*
X105297009Y-83347222D01*
X105453534Y-83263557D01*
X105623373Y-83212037D01*
X105689557Y-83205519D01*
X105755740Y-83199000D01*
X105844260Y-83199000D01*
X105910443Y-83205519D01*
X105910443Y-83205519D01*
G37*
G36*
X110990443Y-83205519D02*
G01*
X111056627Y-83212037D01*
X111226466Y-83263557D01*
X111382991Y-83347222D01*
X111418729Y-83376552D01*
X111520186Y-83459814D01*
X111603448Y-83561271D01*
X111632778Y-83597009D01*
X111716443Y-83753534D01*
X111767963Y-83923373D01*
X111785359Y-84100000D01*
X111767963Y-84276627D01*
X111716443Y-84446466D01*
X111632778Y-84602991D01*
X111603448Y-84638729D01*
X111520186Y-84740186D01*
X111418729Y-84823448D01*
X111382991Y-84852778D01*
X111226466Y-84936443D01*
X111056627Y-84987963D01*
X110990442Y-84994482D01*
X110924260Y-85001000D01*
X110835740Y-85001000D01*
X110769558Y-84994482D01*
X110703373Y-84987963D01*
X110533534Y-84936443D01*
X110377009Y-84852778D01*
X110341271Y-84823448D01*
X110239814Y-84740186D01*
X110156552Y-84638729D01*
X110127222Y-84602991D01*
X110043557Y-84446466D01*
X109992037Y-84276627D01*
X109974641Y-84100000D01*
X109992037Y-83923373D01*
X110043557Y-83753534D01*
X110127222Y-83597009D01*
X110156552Y-83561271D01*
X110239814Y-83459814D01*
X110341271Y-83376552D01*
X110377009Y-83347222D01*
X110533534Y-83263557D01*
X110703373Y-83212037D01*
X110769557Y-83205519D01*
X110835740Y-83199000D01*
X110924260Y-83199000D01*
X110990443Y-83205519D01*
X110990443Y-83205519D01*
G37*
G36*
X108450443Y-83205519D02*
G01*
X108516627Y-83212037D01*
X108686466Y-83263557D01*
X108842991Y-83347222D01*
X108878729Y-83376552D01*
X108980186Y-83459814D01*
X109063448Y-83561271D01*
X109092778Y-83597009D01*
X109176443Y-83753534D01*
X109227963Y-83923373D01*
X109245359Y-84100000D01*
X109227963Y-84276627D01*
X109176443Y-84446466D01*
X109092778Y-84602991D01*
X109063448Y-84638729D01*
X108980186Y-84740186D01*
X108878729Y-84823448D01*
X108842991Y-84852778D01*
X108686466Y-84936443D01*
X108516627Y-84987963D01*
X108450442Y-84994482D01*
X108384260Y-85001000D01*
X108295740Y-85001000D01*
X108229558Y-84994482D01*
X108163373Y-84987963D01*
X107993534Y-84936443D01*
X107837009Y-84852778D01*
X107801271Y-84823448D01*
X107699814Y-84740186D01*
X107616552Y-84638729D01*
X107587222Y-84602991D01*
X107503557Y-84446466D01*
X107452037Y-84276627D01*
X107434641Y-84100000D01*
X107452037Y-83923373D01*
X107503557Y-83753534D01*
X107587222Y-83597009D01*
X107616552Y-83561271D01*
X107699814Y-83459814D01*
X107801271Y-83376552D01*
X107837009Y-83347222D01*
X107993534Y-83263557D01*
X108163373Y-83212037D01*
X108229557Y-83205519D01*
X108295740Y-83199000D01*
X108384260Y-83199000D01*
X108450443Y-83205519D01*
X108450443Y-83205519D01*
G37*
M02*
