G04 #@! TF.GenerationSoftware,KiCad,Pcbnew,(5.1.4)-1*
G04 #@! TF.CreationDate,2019-11-05T16:13:29-05:00*
G04 #@! TF.ProjectId,CellMan,43656c6c-4d61-46e2-9e6b-696361645f70,1.4*
G04 #@! TF.SameCoordinates,Original*
G04 #@! TF.FileFunction,Legend,Bot*
G04 #@! TF.FilePolarity,Positive*
%FSLAX46Y46*%
G04 Gerber Fmt 4.6, Leading zero omitted, Abs format (unit mm)*
G04 Created by KiCad (PCBNEW (5.1.4)-1) date 2019-11-05 16:13:29*
%MOMM*%
%LPD*%
G04 APERTURE LIST*
%ADD10C,0.120000*%
%ADD11C,0.150000*%
G04 APERTURE END LIST*
D10*
X190774320Y-115829080D02*
X190774320Y-93604080D01*
X163367720Y-115829080D02*
X190774320Y-115829080D01*
X163367720Y-115829080D02*
X163367720Y-93604080D01*
X163367720Y-93604080D02*
X190774320Y-93604080D01*
X119761000Y-116408200D02*
X119761000Y-94183200D01*
X92354400Y-94183200D02*
X119761000Y-94183200D01*
X92354400Y-116408200D02*
X92354400Y-94183200D01*
X92354400Y-116408200D02*
X119761000Y-116408200D01*
D11*
X129433490Y-85052660D02*
X129433490Y-84052660D01*
X129195395Y-84052660D01*
X129052538Y-84100280D01*
X128957300Y-84195518D01*
X128909680Y-84290756D01*
X128862061Y-84481232D01*
X128862061Y-84624089D01*
X128909680Y-84814565D01*
X128957300Y-84909803D01*
X129052538Y-85005041D01*
X129195395Y-85052660D01*
X129433490Y-85052660D01*
X128052538Y-85005041D02*
X128147776Y-85052660D01*
X128338252Y-85052660D01*
X128433490Y-85005041D01*
X128481109Y-84909803D01*
X128481109Y-84528851D01*
X128433490Y-84433613D01*
X128338252Y-84385994D01*
X128147776Y-84385994D01*
X128052538Y-84433613D01*
X128004919Y-84528851D01*
X128004919Y-84624089D01*
X128481109Y-84719327D01*
X127623966Y-85005041D02*
X127528728Y-85052660D01*
X127338252Y-85052660D01*
X127243014Y-85005041D01*
X127195395Y-84909803D01*
X127195395Y-84862184D01*
X127243014Y-84766946D01*
X127338252Y-84719327D01*
X127481109Y-84719327D01*
X127576347Y-84671708D01*
X127623966Y-84576470D01*
X127623966Y-84528851D01*
X127576347Y-84433613D01*
X127481109Y-84385994D01*
X127338252Y-84385994D01*
X127243014Y-84433613D01*
X126766823Y-85052660D02*
X126766823Y-84385994D01*
X126766823Y-84052660D02*
X126814442Y-84100280D01*
X126766823Y-84147899D01*
X126719204Y-84100280D01*
X126766823Y-84052660D01*
X126766823Y-84147899D01*
X125862061Y-84385994D02*
X125862061Y-85195518D01*
X125909680Y-85290756D01*
X125957300Y-85338375D01*
X126052538Y-85385994D01*
X126195395Y-85385994D01*
X126290633Y-85338375D01*
X125862061Y-85005041D02*
X125957300Y-85052660D01*
X126147776Y-85052660D01*
X126243014Y-85005041D01*
X126290633Y-84957422D01*
X126338252Y-84862184D01*
X126338252Y-84576470D01*
X126290633Y-84481232D01*
X126243014Y-84433613D01*
X126147776Y-84385994D01*
X125957300Y-84385994D01*
X125862061Y-84433613D01*
X125385871Y-84385994D02*
X125385871Y-85052660D01*
X125385871Y-84481232D02*
X125338252Y-84433613D01*
X125243014Y-84385994D01*
X125100157Y-84385994D01*
X125004919Y-84433613D01*
X124957300Y-84528851D01*
X124957300Y-85052660D01*
X124100157Y-85005041D02*
X124195395Y-85052660D01*
X124385871Y-85052660D01*
X124481109Y-85005041D01*
X124528728Y-84909803D01*
X124528728Y-84528851D01*
X124481109Y-84433613D01*
X124385871Y-84385994D01*
X124195395Y-84385994D01*
X124100157Y-84433613D01*
X124052538Y-84528851D01*
X124052538Y-84624089D01*
X124528728Y-84719327D01*
X123195395Y-85052660D02*
X123195395Y-84052660D01*
X123195395Y-85005041D02*
X123290633Y-85052660D01*
X123481109Y-85052660D01*
X123576347Y-85005041D01*
X123623966Y-84957422D01*
X123671585Y-84862184D01*
X123671585Y-84576470D01*
X123623966Y-84481232D01*
X123576347Y-84433613D01*
X123481109Y-84385994D01*
X123290633Y-84385994D01*
X123195395Y-84433613D01*
X124862061Y-86702660D02*
X124862061Y-85702660D01*
X124862061Y-86083613D02*
X124766823Y-86035994D01*
X124576347Y-86035994D01*
X124481109Y-86083613D01*
X124433490Y-86131232D01*
X124385871Y-86226470D01*
X124385871Y-86512184D01*
X124433490Y-86607422D01*
X124481109Y-86655041D01*
X124576347Y-86702660D01*
X124766823Y-86702660D01*
X124862061Y-86655041D01*
X124052538Y-86035994D02*
X123814442Y-86702660D01*
X123576347Y-86035994D02*
X123814442Y-86702660D01*
X123909680Y-86940756D01*
X123957300Y-86988375D01*
X124052538Y-87035994D01*
X123195395Y-86607422D02*
X123147776Y-86655041D01*
X123195395Y-86702660D01*
X123243014Y-86655041D01*
X123195395Y-86607422D01*
X123195395Y-86702660D01*
X123195395Y-86083613D02*
X123147776Y-86131232D01*
X123195395Y-86178851D01*
X123243014Y-86131232D01*
X123195395Y-86083613D01*
X123195395Y-86178851D01*
M02*
