G04 #@! TF.GenerationSoftware,KiCad,Pcbnew,(5.1.4)-1*
G04 #@! TF.CreationDate,2020-02-04T14:44:49-05:00*
G04 #@! TF.ProjectId,CellMan,43656c6c-4d61-46e2-9e6b-696361645f70,2.0*
G04 #@! TF.SameCoordinates,Original*
G04 #@! TF.FileFunction,Legend,Top*
G04 #@! TF.FilePolarity,Positive*
%FSLAX46Y46*%
G04 Gerber Fmt 4.6, Leading zero omitted, Abs format (unit mm)*
G04 Created by KiCad (PCBNEW (5.1.4)-1) date 2020-02-04 14:44:49*
%MOMM*%
%LPD*%
G04 APERTURE LIST*
%ADD10C,0.150000*%
%ADD11C,0.190500*%
%ADD12C,0.500000*%
%ADD13C,0.120000*%
%ADD14C,0.010000*%
G04 APERTURE END LIST*
D10*
X105112976Y-117542380D02*
X105112976Y-116542380D01*
X105493928Y-116542380D01*
X105589166Y-116590000D01*
X105636785Y-116637619D01*
X105684404Y-116732857D01*
X105684404Y-116875714D01*
X105636785Y-116970952D01*
X105589166Y-117018571D01*
X105493928Y-117066190D01*
X105112976Y-117066190D01*
X106255833Y-117542380D02*
X106160595Y-117494761D01*
X106112976Y-117447142D01*
X106065357Y-117351904D01*
X106065357Y-117066190D01*
X106112976Y-116970952D01*
X106160595Y-116923333D01*
X106255833Y-116875714D01*
X106398690Y-116875714D01*
X106493928Y-116923333D01*
X106541547Y-116970952D01*
X106589166Y-117066190D01*
X106589166Y-117351904D01*
X106541547Y-117447142D01*
X106493928Y-117494761D01*
X106398690Y-117542380D01*
X106255833Y-117542380D01*
X107017738Y-116875714D02*
X107017738Y-117875714D01*
X107017738Y-116923333D02*
X107112976Y-116875714D01*
X107303452Y-116875714D01*
X107398690Y-116923333D01*
X107446309Y-116970952D01*
X107493928Y-117066190D01*
X107493928Y-117351904D01*
X107446309Y-117447142D01*
X107398690Y-117494761D01*
X107303452Y-117542380D01*
X107112976Y-117542380D01*
X107017738Y-117494761D01*
X108351071Y-116875714D02*
X108351071Y-117542380D01*
X107922500Y-116875714D02*
X107922500Y-117399523D01*
X107970119Y-117494761D01*
X108065357Y-117542380D01*
X108208214Y-117542380D01*
X108303452Y-117494761D01*
X108351071Y-117447142D01*
X108970119Y-117542380D02*
X108874880Y-117494761D01*
X108827261Y-117399523D01*
X108827261Y-116542380D01*
X109779642Y-117542380D02*
X109779642Y-117018571D01*
X109732023Y-116923333D01*
X109636785Y-116875714D01*
X109446309Y-116875714D01*
X109351071Y-116923333D01*
X109779642Y-117494761D02*
X109684404Y-117542380D01*
X109446309Y-117542380D01*
X109351071Y-117494761D01*
X109303452Y-117399523D01*
X109303452Y-117304285D01*
X109351071Y-117209047D01*
X109446309Y-117161428D01*
X109684404Y-117161428D01*
X109779642Y-117113809D01*
X110112976Y-116875714D02*
X110493928Y-116875714D01*
X110255833Y-116542380D02*
X110255833Y-117399523D01*
X110303452Y-117494761D01*
X110398690Y-117542380D01*
X110493928Y-117542380D01*
X111208214Y-117494761D02*
X111112976Y-117542380D01*
X110922500Y-117542380D01*
X110827261Y-117494761D01*
X110779642Y-117399523D01*
X110779642Y-117018571D01*
X110827261Y-116923333D01*
X110922500Y-116875714D01*
X111112976Y-116875714D01*
X111208214Y-116923333D01*
X111255833Y-117018571D01*
X111255833Y-117113809D01*
X110779642Y-117209047D01*
X112732023Y-116542380D02*
X112732023Y-117256666D01*
X112684404Y-117399523D01*
X112589166Y-117494761D01*
X112446309Y-117542380D01*
X112351071Y-117542380D01*
X113208214Y-117542380D02*
X113208214Y-116542380D01*
X113589166Y-116542380D01*
X113684404Y-116590000D01*
X113732023Y-116637619D01*
X113779642Y-116732857D01*
X113779642Y-116875714D01*
X113732023Y-116970952D01*
X113684404Y-117018571D01*
X113589166Y-117066190D01*
X113208214Y-117066190D01*
X114160595Y-116637619D02*
X114208214Y-116590000D01*
X114303452Y-116542380D01*
X114541547Y-116542380D01*
X114636785Y-116590000D01*
X114684404Y-116637619D01*
X114732023Y-116732857D01*
X114732023Y-116828095D01*
X114684404Y-116970952D01*
X114112976Y-117542380D01*
X114732023Y-117542380D01*
X104351071Y-119192380D02*
X104255833Y-119144761D01*
X104208214Y-119097142D01*
X104160595Y-119001904D01*
X104160595Y-118716190D01*
X104208214Y-118620952D01*
X104255833Y-118573333D01*
X104351071Y-118525714D01*
X104493928Y-118525714D01*
X104589166Y-118573333D01*
X104636785Y-118620952D01*
X104684404Y-118716190D01*
X104684404Y-119001904D01*
X104636785Y-119097142D01*
X104589166Y-119144761D01*
X104493928Y-119192380D01*
X104351071Y-119192380D01*
X105112976Y-118525714D02*
X105112976Y-119192380D01*
X105112976Y-118620952D02*
X105160595Y-118573333D01*
X105255833Y-118525714D01*
X105398690Y-118525714D01*
X105493928Y-118573333D01*
X105541547Y-118668571D01*
X105541547Y-119192380D01*
X106922500Y-119192380D02*
X106827261Y-119144761D01*
X106779642Y-119049523D01*
X106779642Y-118192380D01*
X107446309Y-119192380D02*
X107351071Y-119144761D01*
X107303452Y-119097142D01*
X107255833Y-119001904D01*
X107255833Y-118716190D01*
X107303452Y-118620952D01*
X107351071Y-118573333D01*
X107446309Y-118525714D01*
X107589166Y-118525714D01*
X107684404Y-118573333D01*
X107732023Y-118620952D01*
X107779642Y-118716190D01*
X107779642Y-119001904D01*
X107732023Y-119097142D01*
X107684404Y-119144761D01*
X107589166Y-119192380D01*
X107446309Y-119192380D01*
X108112976Y-118525714D02*
X108303452Y-119192380D01*
X108493928Y-118716190D01*
X108684404Y-119192380D01*
X108874880Y-118525714D01*
X109636785Y-119144761D02*
X109541547Y-119192380D01*
X109351071Y-119192380D01*
X109255833Y-119144761D01*
X109208214Y-119049523D01*
X109208214Y-118668571D01*
X109255833Y-118573333D01*
X109351071Y-118525714D01*
X109541547Y-118525714D01*
X109636785Y-118573333D01*
X109684404Y-118668571D01*
X109684404Y-118763809D01*
X109208214Y-118859047D01*
X110065357Y-119144761D02*
X110160595Y-119192380D01*
X110351071Y-119192380D01*
X110446309Y-119144761D01*
X110493928Y-119049523D01*
X110493928Y-119001904D01*
X110446309Y-118906666D01*
X110351071Y-118859047D01*
X110208214Y-118859047D01*
X110112976Y-118811428D01*
X110065357Y-118716190D01*
X110065357Y-118668571D01*
X110112976Y-118573333D01*
X110208214Y-118525714D01*
X110351071Y-118525714D01*
X110446309Y-118573333D01*
X110779642Y-118525714D02*
X111160595Y-118525714D01*
X110922500Y-118192380D02*
X110922500Y-119049523D01*
X110970119Y-119144761D01*
X111065357Y-119192380D01*
X111160595Y-119192380D01*
X112827261Y-119097142D02*
X112779642Y-119144761D01*
X112636785Y-119192380D01*
X112541547Y-119192380D01*
X112398690Y-119144761D01*
X112303452Y-119049523D01*
X112255833Y-118954285D01*
X112208214Y-118763809D01*
X112208214Y-118620952D01*
X112255833Y-118430476D01*
X112303452Y-118335238D01*
X112398690Y-118240000D01*
X112541547Y-118192380D01*
X112636785Y-118192380D01*
X112779642Y-118240000D01*
X112827261Y-118287619D01*
X113636785Y-119144761D02*
X113541547Y-119192380D01*
X113351071Y-119192380D01*
X113255833Y-119144761D01*
X113208214Y-119049523D01*
X113208214Y-118668571D01*
X113255833Y-118573333D01*
X113351071Y-118525714D01*
X113541547Y-118525714D01*
X113636785Y-118573333D01*
X113684404Y-118668571D01*
X113684404Y-118763809D01*
X113208214Y-118859047D01*
X114255833Y-119192380D02*
X114160595Y-119144761D01*
X114112976Y-119049523D01*
X114112976Y-118192380D01*
X114779642Y-119192380D02*
X114684404Y-119144761D01*
X114636785Y-119049523D01*
X114636785Y-118192380D01*
X106636785Y-120842380D02*
X106636785Y-120175714D01*
X106636785Y-119842380D02*
X106589166Y-119890000D01*
X106636785Y-119937619D01*
X106684404Y-119890000D01*
X106636785Y-119842380D01*
X106636785Y-119937619D01*
X107112976Y-120175714D02*
X107112976Y-120842380D01*
X107112976Y-120270952D02*
X107160595Y-120223333D01*
X107255833Y-120175714D01*
X107398690Y-120175714D01*
X107493928Y-120223333D01*
X107541547Y-120318571D01*
X107541547Y-120842380D01*
X108732023Y-120794761D02*
X108874880Y-120842380D01*
X109112976Y-120842380D01*
X109208214Y-120794761D01*
X109255833Y-120747142D01*
X109303452Y-120651904D01*
X109303452Y-120556666D01*
X109255833Y-120461428D01*
X109208214Y-120413809D01*
X109112976Y-120366190D01*
X108922500Y-120318571D01*
X108827261Y-120270952D01*
X108779642Y-120223333D01*
X108732023Y-120128095D01*
X108732023Y-120032857D01*
X108779642Y-119937619D01*
X108827261Y-119890000D01*
X108922500Y-119842380D01*
X109160595Y-119842380D01*
X109303452Y-119890000D01*
X110112976Y-120794761D02*
X110017738Y-120842380D01*
X109827261Y-120842380D01*
X109732023Y-120794761D01*
X109684404Y-120699523D01*
X109684404Y-120318571D01*
X109732023Y-120223333D01*
X109827261Y-120175714D01*
X110017738Y-120175714D01*
X110112976Y-120223333D01*
X110160595Y-120318571D01*
X110160595Y-120413809D01*
X109684404Y-120509047D01*
X111017738Y-120175714D02*
X111017738Y-120985238D01*
X110970119Y-121080476D01*
X110922500Y-121128095D01*
X110827261Y-121175714D01*
X110684404Y-121175714D01*
X110589166Y-121128095D01*
X111017738Y-120794761D02*
X110922500Y-120842380D01*
X110732023Y-120842380D01*
X110636785Y-120794761D01*
X110589166Y-120747142D01*
X110541547Y-120651904D01*
X110541547Y-120366190D01*
X110589166Y-120270952D01*
X110636785Y-120223333D01*
X110732023Y-120175714D01*
X110922500Y-120175714D01*
X111017738Y-120223333D01*
X111493928Y-120842380D02*
X111493928Y-120175714D01*
X111493928Y-120270952D02*
X111541547Y-120223333D01*
X111636785Y-120175714D01*
X111779642Y-120175714D01*
X111874880Y-120223333D01*
X111922500Y-120318571D01*
X111922500Y-120842380D01*
X111922500Y-120318571D02*
X111970119Y-120223333D01*
X112065357Y-120175714D01*
X112208214Y-120175714D01*
X112303452Y-120223333D01*
X112351071Y-120318571D01*
X112351071Y-120842380D01*
X113208214Y-120794761D02*
X113112976Y-120842380D01*
X112922500Y-120842380D01*
X112827261Y-120794761D01*
X112779642Y-120699523D01*
X112779642Y-120318571D01*
X112827261Y-120223333D01*
X112922500Y-120175714D01*
X113112976Y-120175714D01*
X113208214Y-120223333D01*
X113255833Y-120318571D01*
X113255833Y-120413809D01*
X112779642Y-120509047D01*
X113684404Y-120175714D02*
X113684404Y-120842380D01*
X113684404Y-120270952D02*
X113732023Y-120223333D01*
X113827261Y-120175714D01*
X113970119Y-120175714D01*
X114065357Y-120223333D01*
X114112976Y-120318571D01*
X114112976Y-120842380D01*
X114446309Y-120175714D02*
X114827261Y-120175714D01*
X114589166Y-119842380D02*
X114589166Y-120699523D01*
X114636785Y-120794761D01*
X114732023Y-120842380D01*
X114827261Y-120842380D01*
X158682976Y-104372380D02*
X158682976Y-103372380D01*
X159063928Y-103372380D01*
X159159166Y-103420000D01*
X159206785Y-103467619D01*
X159254404Y-103562857D01*
X159254404Y-103705714D01*
X159206785Y-103800952D01*
X159159166Y-103848571D01*
X159063928Y-103896190D01*
X158682976Y-103896190D01*
X159825833Y-104372380D02*
X159730595Y-104324761D01*
X159682976Y-104277142D01*
X159635357Y-104181904D01*
X159635357Y-103896190D01*
X159682976Y-103800952D01*
X159730595Y-103753333D01*
X159825833Y-103705714D01*
X159968690Y-103705714D01*
X160063928Y-103753333D01*
X160111547Y-103800952D01*
X160159166Y-103896190D01*
X160159166Y-104181904D01*
X160111547Y-104277142D01*
X160063928Y-104324761D01*
X159968690Y-104372380D01*
X159825833Y-104372380D01*
X160587738Y-103705714D02*
X160587738Y-104705714D01*
X160587738Y-103753333D02*
X160682976Y-103705714D01*
X160873452Y-103705714D01*
X160968690Y-103753333D01*
X161016309Y-103800952D01*
X161063928Y-103896190D01*
X161063928Y-104181904D01*
X161016309Y-104277142D01*
X160968690Y-104324761D01*
X160873452Y-104372380D01*
X160682976Y-104372380D01*
X160587738Y-104324761D01*
X161921071Y-103705714D02*
X161921071Y-104372380D01*
X161492500Y-103705714D02*
X161492500Y-104229523D01*
X161540119Y-104324761D01*
X161635357Y-104372380D01*
X161778214Y-104372380D01*
X161873452Y-104324761D01*
X161921071Y-104277142D01*
X162540119Y-104372380D02*
X162444880Y-104324761D01*
X162397261Y-104229523D01*
X162397261Y-103372380D01*
X163349642Y-104372380D02*
X163349642Y-103848571D01*
X163302023Y-103753333D01*
X163206785Y-103705714D01*
X163016309Y-103705714D01*
X162921071Y-103753333D01*
X163349642Y-104324761D02*
X163254404Y-104372380D01*
X163016309Y-104372380D01*
X162921071Y-104324761D01*
X162873452Y-104229523D01*
X162873452Y-104134285D01*
X162921071Y-104039047D01*
X163016309Y-103991428D01*
X163254404Y-103991428D01*
X163349642Y-103943809D01*
X163682976Y-103705714D02*
X164063928Y-103705714D01*
X163825833Y-103372380D02*
X163825833Y-104229523D01*
X163873452Y-104324761D01*
X163968690Y-104372380D01*
X164063928Y-104372380D01*
X164778214Y-104324761D02*
X164682976Y-104372380D01*
X164492500Y-104372380D01*
X164397261Y-104324761D01*
X164349642Y-104229523D01*
X164349642Y-103848571D01*
X164397261Y-103753333D01*
X164492500Y-103705714D01*
X164682976Y-103705714D01*
X164778214Y-103753333D01*
X164825833Y-103848571D01*
X164825833Y-103943809D01*
X164349642Y-104039047D01*
X166302023Y-103372380D02*
X166302023Y-104086666D01*
X166254404Y-104229523D01*
X166159166Y-104324761D01*
X166016309Y-104372380D01*
X165921071Y-104372380D01*
X166778214Y-104372380D02*
X166778214Y-103372380D01*
X167159166Y-103372380D01*
X167254404Y-103420000D01*
X167302023Y-103467619D01*
X167349642Y-103562857D01*
X167349642Y-103705714D01*
X167302023Y-103800952D01*
X167254404Y-103848571D01*
X167159166Y-103896190D01*
X166778214Y-103896190D01*
X168302023Y-104372380D02*
X167730595Y-104372380D01*
X168016309Y-104372380D02*
X168016309Y-103372380D01*
X167921071Y-103515238D01*
X167825833Y-103610476D01*
X167730595Y-103658095D01*
X157206785Y-106022380D02*
X157111547Y-105974761D01*
X157063928Y-105927142D01*
X157016309Y-105831904D01*
X157016309Y-105546190D01*
X157063928Y-105450952D01*
X157111547Y-105403333D01*
X157206785Y-105355714D01*
X157349642Y-105355714D01*
X157444880Y-105403333D01*
X157492500Y-105450952D01*
X157540119Y-105546190D01*
X157540119Y-105831904D01*
X157492500Y-105927142D01*
X157444880Y-105974761D01*
X157349642Y-106022380D01*
X157206785Y-106022380D01*
X157968690Y-105355714D02*
X157968690Y-106022380D01*
X157968690Y-105450952D02*
X158016309Y-105403333D01*
X158111547Y-105355714D01*
X158254404Y-105355714D01*
X158349642Y-105403333D01*
X158397261Y-105498571D01*
X158397261Y-106022380D01*
X159635357Y-106022380D02*
X159635357Y-105022380D01*
X160063928Y-106022380D02*
X160063928Y-105498571D01*
X160016309Y-105403333D01*
X159921071Y-105355714D01*
X159778214Y-105355714D01*
X159682976Y-105403333D01*
X159635357Y-105450952D01*
X160540119Y-106022380D02*
X160540119Y-105355714D01*
X160540119Y-105022380D02*
X160492500Y-105070000D01*
X160540119Y-105117619D01*
X160587738Y-105070000D01*
X160540119Y-105022380D01*
X160540119Y-105117619D01*
X161444880Y-105355714D02*
X161444880Y-106165238D01*
X161397261Y-106260476D01*
X161349642Y-106308095D01*
X161254404Y-106355714D01*
X161111547Y-106355714D01*
X161016309Y-106308095D01*
X161444880Y-105974761D02*
X161349642Y-106022380D01*
X161159166Y-106022380D01*
X161063928Y-105974761D01*
X161016309Y-105927142D01*
X160968690Y-105831904D01*
X160968690Y-105546190D01*
X161016309Y-105450952D01*
X161063928Y-105403333D01*
X161159166Y-105355714D01*
X161349642Y-105355714D01*
X161444880Y-105403333D01*
X161921071Y-106022380D02*
X161921071Y-105022380D01*
X162349642Y-106022380D02*
X162349642Y-105498571D01*
X162302023Y-105403333D01*
X162206785Y-105355714D01*
X162063928Y-105355714D01*
X161968690Y-105403333D01*
X161921071Y-105450952D01*
X163206785Y-105974761D02*
X163111547Y-106022380D01*
X162921071Y-106022380D01*
X162825833Y-105974761D01*
X162778214Y-105879523D01*
X162778214Y-105498571D01*
X162825833Y-105403333D01*
X162921071Y-105355714D01*
X163111547Y-105355714D01*
X163206785Y-105403333D01*
X163254404Y-105498571D01*
X163254404Y-105593809D01*
X162778214Y-105689047D01*
X163635357Y-105974761D02*
X163730595Y-106022380D01*
X163921071Y-106022380D01*
X164016309Y-105974761D01*
X164063928Y-105879523D01*
X164063928Y-105831904D01*
X164016309Y-105736666D01*
X163921071Y-105689047D01*
X163778214Y-105689047D01*
X163682976Y-105641428D01*
X163635357Y-105546190D01*
X163635357Y-105498571D01*
X163682976Y-105403333D01*
X163778214Y-105355714D01*
X163921071Y-105355714D01*
X164016309Y-105403333D01*
X164349642Y-105355714D02*
X164730595Y-105355714D01*
X164492500Y-105022380D02*
X164492500Y-105879523D01*
X164540119Y-105974761D01*
X164635357Y-106022380D01*
X164730595Y-106022380D01*
X166397261Y-105927142D02*
X166349642Y-105974761D01*
X166206785Y-106022380D01*
X166111547Y-106022380D01*
X165968690Y-105974761D01*
X165873452Y-105879523D01*
X165825833Y-105784285D01*
X165778214Y-105593809D01*
X165778214Y-105450952D01*
X165825833Y-105260476D01*
X165873452Y-105165238D01*
X165968690Y-105070000D01*
X166111547Y-105022380D01*
X166206785Y-105022380D01*
X166349642Y-105070000D01*
X166397261Y-105117619D01*
X167206785Y-105974761D02*
X167111547Y-106022380D01*
X166921071Y-106022380D01*
X166825833Y-105974761D01*
X166778214Y-105879523D01*
X166778214Y-105498571D01*
X166825833Y-105403333D01*
X166921071Y-105355714D01*
X167111547Y-105355714D01*
X167206785Y-105403333D01*
X167254404Y-105498571D01*
X167254404Y-105593809D01*
X166778214Y-105689047D01*
X167825833Y-106022380D02*
X167730595Y-105974761D01*
X167682976Y-105879523D01*
X167682976Y-105022380D01*
X168349642Y-106022380D02*
X168254404Y-105974761D01*
X168206785Y-105879523D01*
X168206785Y-105022380D01*
X160206785Y-107672380D02*
X160206785Y-107005714D01*
X160206785Y-106672380D02*
X160159166Y-106720000D01*
X160206785Y-106767619D01*
X160254404Y-106720000D01*
X160206785Y-106672380D01*
X160206785Y-106767619D01*
X160682976Y-107005714D02*
X160682976Y-107672380D01*
X160682976Y-107100952D02*
X160730595Y-107053333D01*
X160825833Y-107005714D01*
X160968690Y-107005714D01*
X161063928Y-107053333D01*
X161111547Y-107148571D01*
X161111547Y-107672380D01*
X162302023Y-107624761D02*
X162444880Y-107672380D01*
X162682976Y-107672380D01*
X162778214Y-107624761D01*
X162825833Y-107577142D01*
X162873452Y-107481904D01*
X162873452Y-107386666D01*
X162825833Y-107291428D01*
X162778214Y-107243809D01*
X162682976Y-107196190D01*
X162492500Y-107148571D01*
X162397261Y-107100952D01*
X162349642Y-107053333D01*
X162302023Y-106958095D01*
X162302023Y-106862857D01*
X162349642Y-106767619D01*
X162397261Y-106720000D01*
X162492500Y-106672380D01*
X162730595Y-106672380D01*
X162873452Y-106720000D01*
X163682976Y-107624761D02*
X163587738Y-107672380D01*
X163397261Y-107672380D01*
X163302023Y-107624761D01*
X163254404Y-107529523D01*
X163254404Y-107148571D01*
X163302023Y-107053333D01*
X163397261Y-107005714D01*
X163587738Y-107005714D01*
X163682976Y-107053333D01*
X163730595Y-107148571D01*
X163730595Y-107243809D01*
X163254404Y-107339047D01*
X164587738Y-107005714D02*
X164587738Y-107815238D01*
X164540119Y-107910476D01*
X164492500Y-107958095D01*
X164397261Y-108005714D01*
X164254404Y-108005714D01*
X164159166Y-107958095D01*
X164587738Y-107624761D02*
X164492500Y-107672380D01*
X164302023Y-107672380D01*
X164206785Y-107624761D01*
X164159166Y-107577142D01*
X164111547Y-107481904D01*
X164111547Y-107196190D01*
X164159166Y-107100952D01*
X164206785Y-107053333D01*
X164302023Y-107005714D01*
X164492500Y-107005714D01*
X164587738Y-107053333D01*
X165063928Y-107672380D02*
X165063928Y-107005714D01*
X165063928Y-107100952D02*
X165111547Y-107053333D01*
X165206785Y-107005714D01*
X165349642Y-107005714D01*
X165444880Y-107053333D01*
X165492500Y-107148571D01*
X165492500Y-107672380D01*
X165492500Y-107148571D02*
X165540119Y-107053333D01*
X165635357Y-107005714D01*
X165778214Y-107005714D01*
X165873452Y-107053333D01*
X165921071Y-107148571D01*
X165921071Y-107672380D01*
X166778214Y-107624761D02*
X166682976Y-107672380D01*
X166492500Y-107672380D01*
X166397261Y-107624761D01*
X166349642Y-107529523D01*
X166349642Y-107148571D01*
X166397261Y-107053333D01*
X166492500Y-107005714D01*
X166682976Y-107005714D01*
X166778214Y-107053333D01*
X166825833Y-107148571D01*
X166825833Y-107243809D01*
X166349642Y-107339047D01*
X167254404Y-107005714D02*
X167254404Y-107672380D01*
X167254404Y-107100952D02*
X167302023Y-107053333D01*
X167397261Y-107005714D01*
X167540119Y-107005714D01*
X167635357Y-107053333D01*
X167682976Y-107148571D01*
X167682976Y-107672380D01*
X168016309Y-107005714D02*
X168397261Y-107005714D01*
X168159166Y-106672380D02*
X168159166Y-107529523D01*
X168206785Y-107624761D01*
X168302023Y-107672380D01*
X168397261Y-107672380D01*
X182322738Y-119857380D02*
X182894166Y-119857380D01*
X182608452Y-120857380D02*
X182608452Y-119857380D01*
X183608452Y-120809761D02*
X183513214Y-120857380D01*
X183322738Y-120857380D01*
X183227500Y-120809761D01*
X183179880Y-120714523D01*
X183179880Y-120333571D01*
X183227500Y-120238333D01*
X183322738Y-120190714D01*
X183513214Y-120190714D01*
X183608452Y-120238333D01*
X183656071Y-120333571D01*
X183656071Y-120428809D01*
X183179880Y-120524047D01*
X184037023Y-120809761D02*
X184132261Y-120857380D01*
X184322738Y-120857380D01*
X184417976Y-120809761D01*
X184465595Y-120714523D01*
X184465595Y-120666904D01*
X184417976Y-120571666D01*
X184322738Y-120524047D01*
X184179880Y-120524047D01*
X184084642Y-120476428D01*
X184037023Y-120381190D01*
X184037023Y-120333571D01*
X184084642Y-120238333D01*
X184179880Y-120190714D01*
X184322738Y-120190714D01*
X184417976Y-120238333D01*
X184751309Y-120190714D02*
X185132261Y-120190714D01*
X184894166Y-119857380D02*
X184894166Y-120714523D01*
X184941785Y-120809761D01*
X185037023Y-120857380D01*
X185132261Y-120857380D01*
X183037023Y-122412142D02*
X182989404Y-122459761D01*
X182846547Y-122507380D01*
X182751309Y-122507380D01*
X182608452Y-122459761D01*
X182513214Y-122364523D01*
X182465595Y-122269285D01*
X182417976Y-122078809D01*
X182417976Y-121935952D01*
X182465595Y-121745476D01*
X182513214Y-121650238D01*
X182608452Y-121555000D01*
X182751309Y-121507380D01*
X182846547Y-121507380D01*
X182989404Y-121555000D01*
X183037023Y-121602619D01*
X183608452Y-122507380D02*
X183513214Y-122459761D01*
X183465595Y-122412142D01*
X183417976Y-122316904D01*
X183417976Y-122031190D01*
X183465595Y-121935952D01*
X183513214Y-121888333D01*
X183608452Y-121840714D01*
X183751309Y-121840714D01*
X183846547Y-121888333D01*
X183894166Y-121935952D01*
X183941785Y-122031190D01*
X183941785Y-122316904D01*
X183894166Y-122412142D01*
X183846547Y-122459761D01*
X183751309Y-122507380D01*
X183608452Y-122507380D01*
X184370357Y-121840714D02*
X184370357Y-122507380D01*
X184370357Y-121935952D02*
X184417976Y-121888333D01*
X184513214Y-121840714D01*
X184656071Y-121840714D01*
X184751309Y-121888333D01*
X184798928Y-121983571D01*
X184798928Y-122507380D01*
X185275119Y-121840714D02*
X185275119Y-122507380D01*
X185275119Y-121935952D02*
X185322738Y-121888333D01*
X185417976Y-121840714D01*
X185560833Y-121840714D01*
X185656071Y-121888333D01*
X185703690Y-121983571D01*
X185703690Y-122507380D01*
X186560833Y-122459761D02*
X186465595Y-122507380D01*
X186275119Y-122507380D01*
X186179880Y-122459761D01*
X186132261Y-122364523D01*
X186132261Y-121983571D01*
X186179880Y-121888333D01*
X186275119Y-121840714D01*
X186465595Y-121840714D01*
X186560833Y-121888333D01*
X186608452Y-121983571D01*
X186608452Y-122078809D01*
X186132261Y-122174047D01*
X187465595Y-122459761D02*
X187370357Y-122507380D01*
X187179880Y-122507380D01*
X187084642Y-122459761D01*
X187037023Y-122412142D01*
X186989404Y-122316904D01*
X186989404Y-122031190D01*
X187037023Y-121935952D01*
X187084642Y-121888333D01*
X187179880Y-121840714D01*
X187370357Y-121840714D01*
X187465595Y-121888333D01*
X187751309Y-121840714D02*
X188132261Y-121840714D01*
X187894166Y-121507380D02*
X187894166Y-122364523D01*
X187941785Y-122459761D01*
X188037023Y-122507380D01*
X188132261Y-122507380D01*
X188608452Y-122507380D02*
X188513214Y-122459761D01*
X188465595Y-122412142D01*
X188417976Y-122316904D01*
X188417976Y-122031190D01*
X188465595Y-121935952D01*
X188513214Y-121888333D01*
X188608452Y-121840714D01*
X188751309Y-121840714D01*
X188846547Y-121888333D01*
X188894166Y-121935952D01*
X188941785Y-122031190D01*
X188941785Y-122316904D01*
X188894166Y-122412142D01*
X188846547Y-122459761D01*
X188751309Y-122507380D01*
X188608452Y-122507380D01*
X189370357Y-122507380D02*
X189370357Y-121840714D01*
X189370357Y-122031190D02*
X189417976Y-121935952D01*
X189465595Y-121888333D01*
X189560833Y-121840714D01*
X189656071Y-121840714D01*
X94272857Y-123597380D02*
X93796666Y-123597380D01*
X93796666Y-122597380D01*
X95034761Y-123597380D02*
X95034761Y-123073571D01*
X94987142Y-122978333D01*
X94891904Y-122930714D01*
X94701428Y-122930714D01*
X94606190Y-122978333D01*
X95034761Y-123549761D02*
X94939523Y-123597380D01*
X94701428Y-123597380D01*
X94606190Y-123549761D01*
X94558571Y-123454523D01*
X94558571Y-123359285D01*
X94606190Y-123264047D01*
X94701428Y-123216428D01*
X94939523Y-123216428D01*
X95034761Y-123168809D01*
X95368095Y-122930714D02*
X95749047Y-122930714D01*
X95510952Y-123597380D02*
X95510952Y-122740238D01*
X95558571Y-122645000D01*
X95653809Y-122597380D01*
X95749047Y-122597380D01*
X96510952Y-123597380D02*
X96510952Y-123073571D01*
X96463333Y-122978333D01*
X96368095Y-122930714D01*
X96177619Y-122930714D01*
X96082380Y-122978333D01*
X96510952Y-123549761D02*
X96415714Y-123597380D01*
X96177619Y-123597380D01*
X96082380Y-123549761D01*
X96034761Y-123454523D01*
X96034761Y-123359285D01*
X96082380Y-123264047D01*
X96177619Y-123216428D01*
X96415714Y-123216428D01*
X96510952Y-123168809D01*
X96891904Y-122930714D02*
X97130000Y-123597380D01*
X97368095Y-122930714D02*
X97130000Y-123597380D01*
X97034761Y-123835476D01*
X96987142Y-123883095D01*
X96891904Y-123930714D01*
X98130000Y-123549761D02*
X98034761Y-123597380D01*
X97844285Y-123597380D01*
X97749047Y-123549761D01*
X97701428Y-123454523D01*
X97701428Y-123073571D01*
X97749047Y-122978333D01*
X97844285Y-122930714D01*
X98034761Y-122930714D01*
X98130000Y-122978333D01*
X98177619Y-123073571D01*
X98177619Y-123168809D01*
X97701428Y-123264047D01*
X98463333Y-122930714D02*
X98844285Y-122930714D01*
X98606190Y-122597380D02*
X98606190Y-123454523D01*
X98653809Y-123549761D01*
X98749047Y-123597380D01*
X98844285Y-123597380D01*
X99034761Y-122930714D02*
X99415714Y-122930714D01*
X99177619Y-122597380D02*
X99177619Y-123454523D01*
X99225238Y-123549761D01*
X99320476Y-123597380D01*
X99415714Y-123597380D01*
X100130000Y-123549761D02*
X100034761Y-123597380D01*
X99844285Y-123597380D01*
X99749047Y-123549761D01*
X99701428Y-123454523D01*
X99701428Y-123073571D01*
X99749047Y-122978333D01*
X99844285Y-122930714D01*
X100034761Y-122930714D01*
X100130000Y-122978333D01*
X100177619Y-123073571D01*
X100177619Y-123168809D01*
X99701428Y-123264047D01*
X101939523Y-123502142D02*
X101891904Y-123549761D01*
X101749047Y-123597380D01*
X101653809Y-123597380D01*
X101510952Y-123549761D01*
X101415714Y-123454523D01*
X101368095Y-123359285D01*
X101320476Y-123168809D01*
X101320476Y-123025952D01*
X101368095Y-122835476D01*
X101415714Y-122740238D01*
X101510952Y-122645000D01*
X101653809Y-122597380D01*
X101749047Y-122597380D01*
X101891904Y-122645000D01*
X101939523Y-122692619D01*
X102510952Y-123597380D02*
X102415714Y-123549761D01*
X102368095Y-123502142D01*
X102320476Y-123406904D01*
X102320476Y-123121190D01*
X102368095Y-123025952D01*
X102415714Y-122978333D01*
X102510952Y-122930714D01*
X102653809Y-122930714D01*
X102749047Y-122978333D01*
X102796666Y-123025952D01*
X102844285Y-123121190D01*
X102844285Y-123406904D01*
X102796666Y-123502142D01*
X102749047Y-123549761D01*
X102653809Y-123597380D01*
X102510952Y-123597380D01*
X103415714Y-123597380D02*
X103320476Y-123549761D01*
X103272857Y-123454523D01*
X103272857Y-122597380D01*
X103939523Y-123597380D02*
X103844285Y-123549761D01*
X103796666Y-123454523D01*
X103796666Y-122597380D01*
X104701428Y-123549761D02*
X104606190Y-123597380D01*
X104415714Y-123597380D01*
X104320476Y-123549761D01*
X104272857Y-123454523D01*
X104272857Y-123073571D01*
X104320476Y-122978333D01*
X104415714Y-122930714D01*
X104606190Y-122930714D01*
X104701428Y-122978333D01*
X104749047Y-123073571D01*
X104749047Y-123168809D01*
X104272857Y-123264047D01*
X105606190Y-122930714D02*
X105606190Y-123740238D01*
X105558571Y-123835476D01*
X105510952Y-123883095D01*
X105415714Y-123930714D01*
X105272857Y-123930714D01*
X105177619Y-123883095D01*
X105606190Y-123549761D02*
X105510952Y-123597380D01*
X105320476Y-123597380D01*
X105225238Y-123549761D01*
X105177619Y-123502142D01*
X105130000Y-123406904D01*
X105130000Y-123121190D01*
X105177619Y-123025952D01*
X105225238Y-122978333D01*
X105320476Y-122930714D01*
X105510952Y-122930714D01*
X105606190Y-122978333D01*
X106463333Y-123549761D02*
X106368095Y-123597380D01*
X106177619Y-123597380D01*
X106082380Y-123549761D01*
X106034761Y-123454523D01*
X106034761Y-123073571D01*
X106082380Y-122978333D01*
X106177619Y-122930714D01*
X106368095Y-122930714D01*
X106463333Y-122978333D01*
X106510952Y-123073571D01*
X106510952Y-123168809D01*
X106034761Y-123264047D01*
X94320476Y-124723571D02*
X94653809Y-124723571D01*
X94796666Y-125247380D02*
X94320476Y-125247380D01*
X94320476Y-124247380D01*
X94796666Y-124247380D01*
X95796666Y-125152142D02*
X95749047Y-125199761D01*
X95606190Y-125247380D01*
X95510952Y-125247380D01*
X95368095Y-125199761D01*
X95272857Y-125104523D01*
X95225238Y-125009285D01*
X95177619Y-124818809D01*
X95177619Y-124675952D01*
X95225238Y-124485476D01*
X95272857Y-124390238D01*
X95368095Y-124295000D01*
X95510952Y-124247380D01*
X95606190Y-124247380D01*
X95749047Y-124295000D01*
X95796666Y-124342619D01*
X96225238Y-124723571D02*
X96558571Y-124723571D01*
X96701428Y-125247380D02*
X96225238Y-125247380D01*
X96225238Y-124247380D01*
X96701428Y-124247380D01*
X97891904Y-125247380D02*
X97891904Y-124247380D01*
X98130000Y-124247380D01*
X98272857Y-124295000D01*
X98368095Y-124390238D01*
X98415714Y-124485476D01*
X98463333Y-124675952D01*
X98463333Y-124818809D01*
X98415714Y-125009285D01*
X98368095Y-125104523D01*
X98272857Y-125199761D01*
X98130000Y-125247380D01*
X97891904Y-125247380D01*
X99272857Y-125199761D02*
X99177619Y-125247380D01*
X98987142Y-125247380D01*
X98891904Y-125199761D01*
X98844285Y-125104523D01*
X98844285Y-124723571D01*
X98891904Y-124628333D01*
X98987142Y-124580714D01*
X99177619Y-124580714D01*
X99272857Y-124628333D01*
X99320476Y-124723571D01*
X99320476Y-124818809D01*
X98844285Y-124914047D01*
X99749047Y-124580714D02*
X99749047Y-125580714D01*
X99749047Y-124628333D02*
X99844285Y-124580714D01*
X100034761Y-124580714D01*
X100130000Y-124628333D01*
X100177619Y-124675952D01*
X100225238Y-124771190D01*
X100225238Y-125056904D01*
X100177619Y-125152142D01*
X100130000Y-125199761D01*
X100034761Y-125247380D01*
X99844285Y-125247380D01*
X99749047Y-125199761D01*
X101082380Y-125247380D02*
X101082380Y-124723571D01*
X101034761Y-124628333D01*
X100939523Y-124580714D01*
X100749047Y-124580714D01*
X100653809Y-124628333D01*
X101082380Y-125199761D02*
X100987142Y-125247380D01*
X100749047Y-125247380D01*
X100653809Y-125199761D01*
X100606190Y-125104523D01*
X100606190Y-125009285D01*
X100653809Y-124914047D01*
X100749047Y-124866428D01*
X100987142Y-124866428D01*
X101082380Y-124818809D01*
X101558571Y-125247380D02*
X101558571Y-124580714D01*
X101558571Y-124771190D02*
X101606190Y-124675952D01*
X101653809Y-124628333D01*
X101749047Y-124580714D01*
X101844285Y-124580714D01*
X102034761Y-124580714D02*
X102415714Y-124580714D01*
X102177619Y-124247380D02*
X102177619Y-125104523D01*
X102225238Y-125199761D01*
X102320476Y-125247380D01*
X102415714Y-125247380D01*
X102749047Y-125247380D02*
X102749047Y-124580714D01*
X102749047Y-124675952D02*
X102796666Y-124628333D01*
X102891904Y-124580714D01*
X103034761Y-124580714D01*
X103130000Y-124628333D01*
X103177619Y-124723571D01*
X103177619Y-125247380D01*
X103177619Y-124723571D02*
X103225238Y-124628333D01*
X103320476Y-124580714D01*
X103463333Y-124580714D01*
X103558571Y-124628333D01*
X103606190Y-124723571D01*
X103606190Y-125247380D01*
X104463333Y-125199761D02*
X104368095Y-125247380D01*
X104177619Y-125247380D01*
X104082380Y-125199761D01*
X104034761Y-125104523D01*
X104034761Y-124723571D01*
X104082380Y-124628333D01*
X104177619Y-124580714D01*
X104368095Y-124580714D01*
X104463333Y-124628333D01*
X104510952Y-124723571D01*
X104510952Y-124818809D01*
X104034761Y-124914047D01*
X104939523Y-124580714D02*
X104939523Y-125247380D01*
X104939523Y-124675952D02*
X104987142Y-124628333D01*
X105082380Y-124580714D01*
X105225238Y-124580714D01*
X105320476Y-124628333D01*
X105368095Y-124723571D01*
X105368095Y-125247380D01*
X105701428Y-124580714D02*
X106082380Y-124580714D01*
X105844285Y-124247380D02*
X105844285Y-125104523D01*
X105891904Y-125199761D01*
X105987142Y-125247380D01*
X106082380Y-125247380D01*
X146665714Y-94805666D02*
X147141904Y-94805666D01*
X146570476Y-95091380D02*
X146903809Y-94091380D01*
X147237142Y-95091380D01*
X147999047Y-94424714D02*
X147999047Y-95091380D01*
X147760952Y-94043761D02*
X147522857Y-94758047D01*
X148141904Y-94758047D01*
X146665714Y-92636916D02*
X147141904Y-92636916D01*
X146570476Y-92922630D02*
X146903809Y-91922630D01*
X147237142Y-92922630D01*
X147475238Y-91922630D02*
X148094285Y-91922630D01*
X147760952Y-92303583D01*
X147903809Y-92303583D01*
X147999047Y-92351202D01*
X148046666Y-92398821D01*
X148094285Y-92494059D01*
X148094285Y-92732154D01*
X148046666Y-92827392D01*
X147999047Y-92875011D01*
X147903809Y-92922630D01*
X147618095Y-92922630D01*
X147522857Y-92875011D01*
X147475238Y-92827392D01*
X146665714Y-90468166D02*
X147141904Y-90468166D01*
X146570476Y-90753880D02*
X146903809Y-89753880D01*
X147237142Y-90753880D01*
X147522857Y-89849119D02*
X147570476Y-89801500D01*
X147665714Y-89753880D01*
X147903809Y-89753880D01*
X147999047Y-89801500D01*
X148046666Y-89849119D01*
X148094285Y-89944357D01*
X148094285Y-90039595D01*
X148046666Y-90182452D01*
X147475238Y-90753880D01*
X148094285Y-90753880D01*
X146665714Y-88299416D02*
X147141904Y-88299416D01*
X146570476Y-88585130D02*
X146903809Y-87585130D01*
X147237142Y-88585130D01*
X148094285Y-88585130D02*
X147522857Y-88585130D01*
X147808571Y-88585130D02*
X147808571Y-87585130D01*
X147713333Y-87727988D01*
X147618095Y-87823226D01*
X147522857Y-87870845D01*
X146665714Y-86130666D02*
X147141904Y-86130666D01*
X146570476Y-86416380D02*
X146903809Y-85416380D01*
X147237142Y-86416380D01*
X147760952Y-85416380D02*
X147856190Y-85416380D01*
X147951428Y-85464000D01*
X147999047Y-85511619D01*
X148046666Y-85606857D01*
X148094285Y-85797333D01*
X148094285Y-86035428D01*
X148046666Y-86225904D01*
X147999047Y-86321142D01*
X147951428Y-86368761D01*
X147856190Y-86416380D01*
X147760952Y-86416380D01*
X147665714Y-86368761D01*
X147618095Y-86321142D01*
X147570476Y-86225904D01*
X147522857Y-86035428D01*
X147522857Y-85797333D01*
X147570476Y-85606857D01*
X147618095Y-85511619D01*
X147665714Y-85464000D01*
X147760952Y-85416380D01*
X150026666Y-95442023D02*
X150026666Y-94965833D01*
X150312380Y-95537261D02*
X149312380Y-95203928D01*
X150312380Y-94870595D01*
X150312380Y-94108690D02*
X149312380Y-94108690D01*
X150264761Y-94108690D02*
X150312380Y-94203928D01*
X150312380Y-94394404D01*
X150264761Y-94489642D01*
X150217142Y-94537261D01*
X150121904Y-94584880D01*
X149836190Y-94584880D01*
X149740952Y-94537261D01*
X149693333Y-94489642D01*
X149645714Y-94394404D01*
X149645714Y-94203928D01*
X149693333Y-94108690D01*
X150312380Y-93203928D02*
X149312380Y-93203928D01*
X150264761Y-93203928D02*
X150312380Y-93299166D01*
X150312380Y-93489642D01*
X150264761Y-93584880D01*
X150217142Y-93632500D01*
X150121904Y-93680119D01*
X149836190Y-93680119D01*
X149740952Y-93632500D01*
X149693333Y-93584880D01*
X149645714Y-93489642D01*
X149645714Y-93299166D01*
X149693333Y-93203928D01*
X150312380Y-92727738D02*
X149645714Y-92727738D01*
X149836190Y-92727738D02*
X149740952Y-92680119D01*
X149693333Y-92632500D01*
X149645714Y-92537261D01*
X149645714Y-92442023D01*
X150264761Y-91727738D02*
X150312380Y-91822976D01*
X150312380Y-92013452D01*
X150264761Y-92108690D01*
X150169523Y-92156309D01*
X149788571Y-92156309D01*
X149693333Y-92108690D01*
X149645714Y-92013452D01*
X149645714Y-91822976D01*
X149693333Y-91727738D01*
X149788571Y-91680119D01*
X149883809Y-91680119D01*
X149979047Y-92156309D01*
X150264761Y-91299166D02*
X150312380Y-91203928D01*
X150312380Y-91013452D01*
X150264761Y-90918214D01*
X150169523Y-90870595D01*
X150121904Y-90870595D01*
X150026666Y-90918214D01*
X149979047Y-91013452D01*
X149979047Y-91156309D01*
X149931428Y-91251547D01*
X149836190Y-91299166D01*
X149788571Y-91299166D01*
X149693333Y-91251547D01*
X149645714Y-91156309D01*
X149645714Y-91013452D01*
X149693333Y-90918214D01*
X150264761Y-90489642D02*
X150312380Y-90394404D01*
X150312380Y-90203928D01*
X150264761Y-90108690D01*
X150169523Y-90061071D01*
X150121904Y-90061071D01*
X150026666Y-90108690D01*
X149979047Y-90203928D01*
X149979047Y-90346785D01*
X149931428Y-90442023D01*
X149836190Y-90489642D01*
X149788571Y-90489642D01*
X149693333Y-90442023D01*
X149645714Y-90346785D01*
X149645714Y-90203928D01*
X149693333Y-90108690D01*
X150264761Y-88918214D02*
X150312380Y-88775357D01*
X150312380Y-88537261D01*
X150264761Y-88442023D01*
X150217142Y-88394404D01*
X150121904Y-88346785D01*
X150026666Y-88346785D01*
X149931428Y-88394404D01*
X149883809Y-88442023D01*
X149836190Y-88537261D01*
X149788571Y-88727738D01*
X149740952Y-88822976D01*
X149693333Y-88870595D01*
X149598095Y-88918214D01*
X149502857Y-88918214D01*
X149407619Y-88870595D01*
X149360000Y-88822976D01*
X149312380Y-88727738D01*
X149312380Y-88489642D01*
X149360000Y-88346785D01*
X150264761Y-87537261D02*
X150312380Y-87632500D01*
X150312380Y-87822976D01*
X150264761Y-87918214D01*
X150169523Y-87965833D01*
X149788571Y-87965833D01*
X149693333Y-87918214D01*
X149645714Y-87822976D01*
X149645714Y-87632500D01*
X149693333Y-87537261D01*
X149788571Y-87489642D01*
X149883809Y-87489642D01*
X149979047Y-87965833D01*
X150312380Y-86918214D02*
X150264761Y-87013452D01*
X150169523Y-87061071D01*
X149312380Y-87061071D01*
X150264761Y-86156309D02*
X150312380Y-86251547D01*
X150312380Y-86442023D01*
X150264761Y-86537261D01*
X150169523Y-86584880D01*
X149788571Y-86584880D01*
X149693333Y-86537261D01*
X149645714Y-86442023D01*
X149645714Y-86251547D01*
X149693333Y-86156309D01*
X149788571Y-86108690D01*
X149883809Y-86108690D01*
X149979047Y-86584880D01*
X150264761Y-85251547D02*
X150312380Y-85346785D01*
X150312380Y-85537261D01*
X150264761Y-85632500D01*
X150217142Y-85680119D01*
X150121904Y-85727738D01*
X149836190Y-85727738D01*
X149740952Y-85680119D01*
X149693333Y-85632500D01*
X149645714Y-85537261D01*
X149645714Y-85346785D01*
X149693333Y-85251547D01*
X149645714Y-84965833D02*
X149645714Y-84584880D01*
X149312380Y-84822976D02*
X150169523Y-84822976D01*
X150264761Y-84775357D01*
X150312380Y-84680119D01*
X150312380Y-84584880D01*
X164666309Y-84817380D02*
X164666309Y-83817380D01*
X164904404Y-83817380D01*
X165047261Y-83865000D01*
X165142500Y-83960238D01*
X165190119Y-84055476D01*
X165237738Y-84245952D01*
X165237738Y-84388809D01*
X165190119Y-84579285D01*
X165142500Y-84674523D01*
X165047261Y-84769761D01*
X164904404Y-84817380D01*
X164666309Y-84817380D01*
X166047261Y-84769761D02*
X165952023Y-84817380D01*
X165761547Y-84817380D01*
X165666309Y-84769761D01*
X165618690Y-84674523D01*
X165618690Y-84293571D01*
X165666309Y-84198333D01*
X165761547Y-84150714D01*
X165952023Y-84150714D01*
X166047261Y-84198333D01*
X166094880Y-84293571D01*
X166094880Y-84388809D01*
X165618690Y-84484047D01*
X166475833Y-84769761D02*
X166571071Y-84817380D01*
X166761547Y-84817380D01*
X166856785Y-84769761D01*
X166904404Y-84674523D01*
X166904404Y-84626904D01*
X166856785Y-84531666D01*
X166761547Y-84484047D01*
X166618690Y-84484047D01*
X166523452Y-84436428D01*
X166475833Y-84341190D01*
X166475833Y-84293571D01*
X166523452Y-84198333D01*
X166618690Y-84150714D01*
X166761547Y-84150714D01*
X166856785Y-84198333D01*
X167332976Y-84817380D02*
X167332976Y-84150714D01*
X167332976Y-83817380D02*
X167285357Y-83865000D01*
X167332976Y-83912619D01*
X167380595Y-83865000D01*
X167332976Y-83817380D01*
X167332976Y-83912619D01*
X168237738Y-84150714D02*
X168237738Y-84960238D01*
X168190119Y-85055476D01*
X168142500Y-85103095D01*
X168047261Y-85150714D01*
X167904404Y-85150714D01*
X167809166Y-85103095D01*
X168237738Y-84769761D02*
X168142500Y-84817380D01*
X167952023Y-84817380D01*
X167856785Y-84769761D01*
X167809166Y-84722142D01*
X167761547Y-84626904D01*
X167761547Y-84341190D01*
X167809166Y-84245952D01*
X167856785Y-84198333D01*
X167952023Y-84150714D01*
X168142500Y-84150714D01*
X168237738Y-84198333D01*
X168713928Y-84150714D02*
X168713928Y-84817380D01*
X168713928Y-84245952D02*
X168761547Y-84198333D01*
X168856785Y-84150714D01*
X168999642Y-84150714D01*
X169094880Y-84198333D01*
X169142500Y-84293571D01*
X169142500Y-84817380D01*
X169999642Y-84769761D02*
X169904404Y-84817380D01*
X169713928Y-84817380D01*
X169618690Y-84769761D01*
X169571071Y-84674523D01*
X169571071Y-84293571D01*
X169618690Y-84198333D01*
X169713928Y-84150714D01*
X169904404Y-84150714D01*
X169999642Y-84198333D01*
X170047261Y-84293571D01*
X170047261Y-84388809D01*
X169571071Y-84484047D01*
X170904404Y-84817380D02*
X170904404Y-83817380D01*
X170904404Y-84769761D02*
X170809166Y-84817380D01*
X170618690Y-84817380D01*
X170523452Y-84769761D01*
X170475833Y-84722142D01*
X170428214Y-84626904D01*
X170428214Y-84341190D01*
X170475833Y-84245952D01*
X170523452Y-84198333D01*
X170618690Y-84150714D01*
X170809166Y-84150714D01*
X170904404Y-84198333D01*
X169237738Y-86467380D02*
X169237738Y-85467380D01*
X169237738Y-85848333D02*
X169332976Y-85800714D01*
X169523452Y-85800714D01*
X169618690Y-85848333D01*
X169666309Y-85895952D01*
X169713928Y-85991190D01*
X169713928Y-86276904D01*
X169666309Y-86372142D01*
X169618690Y-86419761D01*
X169523452Y-86467380D01*
X169332976Y-86467380D01*
X169237738Y-86419761D01*
X170047261Y-85800714D02*
X170285357Y-86467380D01*
X170523452Y-85800714D02*
X170285357Y-86467380D01*
X170190119Y-86705476D01*
X170142500Y-86753095D01*
X170047261Y-86800714D01*
X170904404Y-86372142D02*
X170952023Y-86419761D01*
X170904404Y-86467380D01*
X170856785Y-86419761D01*
X170904404Y-86372142D01*
X170904404Y-86467380D01*
X170904404Y-85848333D02*
X170952023Y-85895952D01*
X170904404Y-85943571D01*
X170856785Y-85895952D01*
X170904404Y-85848333D01*
X170904404Y-85943571D01*
X96048326Y-94595641D02*
X96191183Y-94643260D01*
X96429279Y-94643260D01*
X96524517Y-94595641D01*
X96572136Y-94548022D01*
X96619755Y-94452784D01*
X96619755Y-94357546D01*
X96572136Y-94262308D01*
X96524517Y-94214689D01*
X96429279Y-94167070D01*
X96238802Y-94119451D01*
X96143564Y-94071832D01*
X96095945Y-94024213D01*
X96048326Y-93928975D01*
X96048326Y-93833737D01*
X96095945Y-93738499D01*
X96143564Y-93690880D01*
X96238802Y-93643260D01*
X96476898Y-93643260D01*
X96619755Y-93690880D01*
X97762612Y-93595641D02*
X96905469Y-94881356D01*
X98095945Y-94643260D02*
X98095945Y-93643260D01*
X98667374Y-94643260D01*
X98667374Y-93643260D01*
D11*
X163933000Y-89494714D02*
X163933000Y-88732714D01*
X164259571Y-89494714D02*
X164259571Y-89095571D01*
X164223285Y-89023000D01*
X164150714Y-88986714D01*
X164041857Y-88986714D01*
X163969285Y-89023000D01*
X163933000Y-89059285D01*
X164513571Y-88986714D02*
X164803857Y-88986714D01*
X164622428Y-88732714D02*
X164622428Y-89385857D01*
X164658714Y-89458428D01*
X164731285Y-89494714D01*
X164803857Y-89494714D01*
X164949000Y-88986714D02*
X165239285Y-88986714D01*
X165057857Y-88732714D02*
X165057857Y-89385857D01*
X165094142Y-89458428D01*
X165166714Y-89494714D01*
X165239285Y-89494714D01*
X165493285Y-88986714D02*
X165493285Y-89748714D01*
X165493285Y-89023000D02*
X165565857Y-88986714D01*
X165711000Y-88986714D01*
X165783571Y-89023000D01*
X165819857Y-89059285D01*
X165856142Y-89131857D01*
X165856142Y-89349571D01*
X165819857Y-89422142D01*
X165783571Y-89458428D01*
X165711000Y-89494714D01*
X165565857Y-89494714D01*
X165493285Y-89458428D01*
X166146428Y-89458428D02*
X166219000Y-89494714D01*
X166364142Y-89494714D01*
X166436714Y-89458428D01*
X166473000Y-89385857D01*
X166473000Y-89349571D01*
X166436714Y-89277000D01*
X166364142Y-89240714D01*
X166255285Y-89240714D01*
X166182714Y-89204428D01*
X166146428Y-89131857D01*
X166146428Y-89095571D01*
X166182714Y-89023000D01*
X166255285Y-88986714D01*
X166364142Y-88986714D01*
X166436714Y-89023000D01*
X166799571Y-89422142D02*
X166835857Y-89458428D01*
X166799571Y-89494714D01*
X166763285Y-89458428D01*
X166799571Y-89422142D01*
X166799571Y-89494714D01*
X166799571Y-89023000D02*
X166835857Y-89059285D01*
X166799571Y-89095571D01*
X166763285Y-89059285D01*
X166799571Y-89023000D01*
X166799571Y-89095571D01*
X167706714Y-88696428D02*
X167053571Y-89676142D01*
X168505000Y-88696428D02*
X167851857Y-89676142D01*
X169085571Y-88986714D02*
X169085571Y-89603571D01*
X169049285Y-89676142D01*
X169013000Y-89712428D01*
X168940428Y-89748714D01*
X168831571Y-89748714D01*
X168759000Y-89712428D01*
X169085571Y-89458428D02*
X169013000Y-89494714D01*
X168867857Y-89494714D01*
X168795285Y-89458428D01*
X168759000Y-89422142D01*
X168722714Y-89349571D01*
X168722714Y-89131857D01*
X168759000Y-89059285D01*
X168795285Y-89023000D01*
X168867857Y-88986714D01*
X169013000Y-88986714D01*
X169085571Y-89023000D01*
X169448428Y-89494714D02*
X169448428Y-88986714D01*
X169448428Y-88732714D02*
X169412142Y-88769000D01*
X169448428Y-88805285D01*
X169484714Y-88769000D01*
X169448428Y-88732714D01*
X169448428Y-88805285D01*
X169702428Y-88986714D02*
X169992714Y-88986714D01*
X169811285Y-88732714D02*
X169811285Y-89385857D01*
X169847571Y-89458428D01*
X169920142Y-89494714D01*
X169992714Y-89494714D01*
X170246714Y-89494714D02*
X170246714Y-88732714D01*
X170573285Y-89494714D02*
X170573285Y-89095571D01*
X170537000Y-89023000D01*
X170464428Y-88986714D01*
X170355571Y-88986714D01*
X170283000Y-89023000D01*
X170246714Y-89059285D01*
X171262714Y-88986714D02*
X171262714Y-89494714D01*
X170936142Y-88986714D02*
X170936142Y-89385857D01*
X170972428Y-89458428D01*
X171045000Y-89494714D01*
X171153857Y-89494714D01*
X171226428Y-89458428D01*
X171262714Y-89422142D01*
X171625571Y-89494714D02*
X171625571Y-88732714D01*
X171625571Y-89023000D02*
X171698142Y-88986714D01*
X171843285Y-88986714D01*
X171915857Y-89023000D01*
X171952142Y-89059285D01*
X171988428Y-89131857D01*
X171988428Y-89349571D01*
X171952142Y-89422142D01*
X171915857Y-89458428D01*
X171843285Y-89494714D01*
X171698142Y-89494714D01*
X171625571Y-89458428D01*
X172315000Y-89422142D02*
X172351285Y-89458428D01*
X172315000Y-89494714D01*
X172278714Y-89458428D01*
X172315000Y-89422142D01*
X172315000Y-89494714D01*
X173004428Y-89458428D02*
X172931857Y-89494714D01*
X172786714Y-89494714D01*
X172714142Y-89458428D01*
X172677857Y-89422142D01*
X172641571Y-89349571D01*
X172641571Y-89131857D01*
X172677857Y-89059285D01*
X172714142Y-89023000D01*
X172786714Y-88986714D01*
X172931857Y-88986714D01*
X173004428Y-89023000D01*
X173439857Y-89494714D02*
X173367285Y-89458428D01*
X173331000Y-89422142D01*
X173294714Y-89349571D01*
X173294714Y-89131857D01*
X173331000Y-89059285D01*
X173367285Y-89023000D01*
X173439857Y-88986714D01*
X173548714Y-88986714D01*
X173621285Y-89023000D01*
X173657571Y-89059285D01*
X173693857Y-89131857D01*
X173693857Y-89349571D01*
X173657571Y-89422142D01*
X173621285Y-89458428D01*
X173548714Y-89494714D01*
X173439857Y-89494714D01*
X174020428Y-89494714D02*
X174020428Y-88986714D01*
X174020428Y-89059285D02*
X174056714Y-89023000D01*
X174129285Y-88986714D01*
X174238142Y-88986714D01*
X174310714Y-89023000D01*
X174347000Y-89095571D01*
X174347000Y-89494714D01*
X174347000Y-89095571D02*
X174383285Y-89023000D01*
X174455857Y-88986714D01*
X174564714Y-88986714D01*
X174637285Y-89023000D01*
X174673571Y-89095571D01*
X174673571Y-89494714D01*
X175580714Y-88696428D02*
X174927571Y-89676142D01*
X176197571Y-89494714D02*
X175834714Y-89494714D01*
X175834714Y-88732714D01*
X176778142Y-89494714D02*
X176778142Y-89095571D01*
X176741857Y-89023000D01*
X176669285Y-88986714D01*
X176524142Y-88986714D01*
X176451571Y-89023000D01*
X176778142Y-89458428D02*
X176705571Y-89494714D01*
X176524142Y-89494714D01*
X176451571Y-89458428D01*
X176415285Y-89385857D01*
X176415285Y-89313285D01*
X176451571Y-89240714D01*
X176524142Y-89204428D01*
X176705571Y-89204428D01*
X176778142Y-89168142D01*
X177032142Y-88986714D02*
X177322428Y-88986714D01*
X177141000Y-89494714D02*
X177141000Y-88841571D01*
X177177285Y-88769000D01*
X177249857Y-88732714D01*
X177322428Y-88732714D01*
X177903000Y-89494714D02*
X177903000Y-89095571D01*
X177866714Y-89023000D01*
X177794142Y-88986714D01*
X177649000Y-88986714D01*
X177576428Y-89023000D01*
X177903000Y-89458428D02*
X177830428Y-89494714D01*
X177649000Y-89494714D01*
X177576428Y-89458428D01*
X177540142Y-89385857D01*
X177540142Y-89313285D01*
X177576428Y-89240714D01*
X177649000Y-89204428D01*
X177830428Y-89204428D01*
X177903000Y-89168142D01*
X178193285Y-88986714D02*
X178374714Y-89494714D01*
X178556142Y-88986714D02*
X178374714Y-89494714D01*
X178302142Y-89676142D01*
X178265857Y-89712428D01*
X178193285Y-89748714D01*
X179136714Y-89458428D02*
X179064142Y-89494714D01*
X178919000Y-89494714D01*
X178846428Y-89458428D01*
X178810142Y-89385857D01*
X178810142Y-89095571D01*
X178846428Y-89023000D01*
X178919000Y-88986714D01*
X179064142Y-88986714D01*
X179136714Y-89023000D01*
X179173000Y-89095571D01*
X179173000Y-89168142D01*
X178810142Y-89240714D01*
X179390714Y-88986714D02*
X179681000Y-88986714D01*
X179499571Y-88732714D02*
X179499571Y-89385857D01*
X179535857Y-89458428D01*
X179608428Y-89494714D01*
X179681000Y-89494714D01*
X179826142Y-88986714D02*
X180116428Y-88986714D01*
X179935000Y-88732714D02*
X179935000Y-89385857D01*
X179971285Y-89458428D01*
X180043857Y-89494714D01*
X180116428Y-89494714D01*
X180660714Y-89458428D02*
X180588142Y-89494714D01*
X180443000Y-89494714D01*
X180370428Y-89458428D01*
X180334142Y-89385857D01*
X180334142Y-89095571D01*
X180370428Y-89023000D01*
X180443000Y-88986714D01*
X180588142Y-88986714D01*
X180660714Y-89023000D01*
X180697000Y-89095571D01*
X180697000Y-89168142D01*
X180334142Y-89240714D01*
X181023571Y-89204428D02*
X181604142Y-89204428D01*
X182221000Y-89095571D02*
X181967000Y-89095571D01*
X181967000Y-89494714D02*
X181967000Y-88732714D01*
X182329857Y-88732714D01*
X182583857Y-89458428D02*
X182692714Y-89494714D01*
X182874142Y-89494714D01*
X182946714Y-89458428D01*
X182983000Y-89422142D01*
X183019285Y-89349571D01*
X183019285Y-89277000D01*
X182983000Y-89204428D01*
X182946714Y-89168142D01*
X182874142Y-89131857D01*
X182729000Y-89095571D01*
X182656428Y-89059285D01*
X182620142Y-89023000D01*
X182583857Y-88950428D01*
X182583857Y-88877857D01*
X182620142Y-88805285D01*
X182656428Y-88769000D01*
X182729000Y-88732714D01*
X182910428Y-88732714D01*
X183019285Y-88769000D01*
X183309571Y-89277000D02*
X183672428Y-89277000D01*
X183237000Y-89494714D02*
X183491000Y-88732714D01*
X183745000Y-89494714D01*
X183999000Y-89095571D02*
X184253000Y-89095571D01*
X184361857Y-89494714D02*
X183999000Y-89494714D01*
X183999000Y-88732714D01*
X184361857Y-88732714D01*
X185232714Y-88696428D02*
X184579571Y-89676142D01*
X185922142Y-89422142D02*
X185885857Y-89458428D01*
X185777000Y-89494714D01*
X185704428Y-89494714D01*
X185595571Y-89458428D01*
X185523000Y-89385857D01*
X185486714Y-89313285D01*
X185450428Y-89168142D01*
X185450428Y-89059285D01*
X185486714Y-88914142D01*
X185523000Y-88841571D01*
X185595571Y-88769000D01*
X185704428Y-88732714D01*
X185777000Y-88732714D01*
X185885857Y-88769000D01*
X185922142Y-88805285D01*
X186539000Y-89458428D02*
X186466428Y-89494714D01*
X186321285Y-89494714D01*
X186248714Y-89458428D01*
X186212428Y-89385857D01*
X186212428Y-89095571D01*
X186248714Y-89023000D01*
X186321285Y-88986714D01*
X186466428Y-88986714D01*
X186539000Y-89023000D01*
X186575285Y-89095571D01*
X186575285Y-89168142D01*
X186212428Y-89240714D01*
X187010714Y-89494714D02*
X186938142Y-89458428D01*
X186901857Y-89385857D01*
X186901857Y-88732714D01*
X187409857Y-89494714D02*
X187337285Y-89458428D01*
X187301000Y-89385857D01*
X187301000Y-88732714D01*
X187700142Y-89494714D02*
X187700142Y-88732714D01*
X187954142Y-89277000D01*
X188208142Y-88732714D01*
X188208142Y-89494714D01*
X188897571Y-89494714D02*
X188897571Y-89095571D01*
X188861285Y-89023000D01*
X188788714Y-88986714D01*
X188643571Y-88986714D01*
X188571000Y-89023000D01*
X188897571Y-89458428D02*
X188825000Y-89494714D01*
X188643571Y-89494714D01*
X188571000Y-89458428D01*
X188534714Y-89385857D01*
X188534714Y-89313285D01*
X188571000Y-89240714D01*
X188643571Y-89204428D01*
X188825000Y-89204428D01*
X188897571Y-89168142D01*
X189260428Y-88986714D02*
X189260428Y-89494714D01*
X189260428Y-89059285D02*
X189296714Y-89023000D01*
X189369285Y-88986714D01*
X189478142Y-88986714D01*
X189550714Y-89023000D01*
X189587000Y-89095571D01*
X189587000Y-89494714D01*
D12*
X99377739Y-104976965D02*
X96330120Y-104976965D01*
X184420474Y-106179859D02*
X184420474Y-103132240D01*
X185944283Y-104656049D02*
X182896664Y-104656049D01*
D13*
X138760000Y-121770000D02*
X138760000Y-118320000D01*
X138760000Y-121770000D02*
X138760000Y-123720000D01*
X133640000Y-121770000D02*
X133640000Y-119820000D01*
X133640000Y-121770000D02*
X133640000Y-123720000D01*
X177140000Y-93831252D02*
X177140000Y-93308748D01*
X175720000Y-93831252D02*
X175720000Y-93308748D01*
X177745000Y-93308748D02*
X177745000Y-93831252D01*
X179165000Y-93308748D02*
X179165000Y-93831252D01*
D14*
G36*
X97108417Y-116935000D02*
G01*
X97094434Y-117089005D01*
X97064496Y-117168567D01*
X97005833Y-117200795D01*
X96981100Y-117205233D01*
X96888847Y-117193716D01*
X96867060Y-117154433D01*
X96892634Y-117073675D01*
X96956989Y-116946952D01*
X96994377Y-116884200D01*
X97121434Y-116681000D01*
X97108417Y-116935000D01*
X97108417Y-116935000D01*
G37*
X97108417Y-116935000D02*
X97094434Y-117089005D01*
X97064496Y-117168567D01*
X97005833Y-117200795D01*
X96981100Y-117205233D01*
X96888847Y-117193716D01*
X96867060Y-117154433D01*
X96892634Y-117073675D01*
X96956989Y-116946952D01*
X96994377Y-116884200D01*
X97121434Y-116681000D01*
X97108417Y-116935000D01*
G36*
X98277446Y-116798376D02*
G01*
X98284136Y-116896900D01*
X98262417Y-117091668D01*
X98211257Y-117197029D01*
X98125268Y-117222285D01*
X98098599Y-117217398D01*
X97984199Y-117189000D01*
X98091208Y-116973100D01*
X98177540Y-116823533D01*
X98241024Y-116764737D01*
X98277446Y-116798376D01*
X98277446Y-116798376D01*
G37*
X98277446Y-116798376D02*
X98284136Y-116896900D01*
X98262417Y-117091668D01*
X98211257Y-117197029D01*
X98125268Y-117222285D01*
X98098599Y-117217398D01*
X97984199Y-117189000D01*
X98091208Y-116973100D01*
X98177540Y-116823533D01*
X98241024Y-116764737D01*
X98277446Y-116798376D01*
G36*
X98850178Y-117955581D02*
G01*
X98854323Y-117966617D01*
X98873073Y-118088733D01*
X98865674Y-118242184D01*
X98864034Y-118252874D01*
X98831620Y-118376453D01*
X98773446Y-118426768D01*
X98710929Y-118433600D01*
X98622750Y-118419140D01*
X98611798Y-118356544D01*
X98621627Y-118319300D01*
X98666900Y-118194239D01*
X98730431Y-118044493D01*
X98735692Y-118033042D01*
X98789341Y-117926592D01*
X98821620Y-117904066D01*
X98850178Y-117955581D01*
X98850178Y-117955581D01*
G37*
X98850178Y-117955581D02*
X98854323Y-117966617D01*
X98873073Y-118088733D01*
X98865674Y-118242184D01*
X98864034Y-118252874D01*
X98831620Y-118376453D01*
X98773446Y-118426768D01*
X98710929Y-118433600D01*
X98622750Y-118419140D01*
X98611798Y-118356544D01*
X98621627Y-118319300D01*
X98666900Y-118194239D01*
X98730431Y-118044493D01*
X98735692Y-118033042D01*
X98789341Y-117926592D01*
X98821620Y-117904066D01*
X98850178Y-117955581D01*
G36*
X95899308Y-117977307D02*
G01*
X95875866Y-118168404D01*
X95818213Y-118312774D01*
X95737306Y-118389253D01*
X95683588Y-118394068D01*
X95623106Y-118345048D01*
X95636211Y-118237153D01*
X95723774Y-118066691D01*
X95781772Y-117977307D01*
X95901600Y-117800415D01*
X95899308Y-117977307D01*
X95899308Y-117977307D01*
G37*
X95899308Y-117977307D02*
X95875866Y-118168404D01*
X95818213Y-118312774D01*
X95737306Y-118389253D01*
X95683588Y-118394068D01*
X95623106Y-118345048D01*
X95636211Y-118237153D01*
X95723774Y-118066691D01*
X95781772Y-117977307D01*
X95901600Y-117800415D01*
X95899308Y-117977307D01*
G36*
X96985822Y-117361079D02*
G01*
X97093992Y-117443835D01*
X97177954Y-117574574D01*
X97199502Y-117638086D01*
X97203880Y-117824898D01*
X97146014Y-118041120D01*
X97039368Y-118248406D01*
X96943528Y-118367031D01*
X96784835Y-118483776D01*
X96619109Y-118538598D01*
X96471816Y-118528441D01*
X96368417Y-118450252D01*
X96360587Y-118436939D01*
X96306924Y-118236625D01*
X96330251Y-118010434D01*
X96419059Y-117782398D01*
X96561842Y-117576549D01*
X96747093Y-117416918D01*
X96880652Y-117350818D01*
X96985822Y-117361079D01*
X96985822Y-117361079D01*
G37*
X96985822Y-117361079D02*
X97093992Y-117443835D01*
X97177954Y-117574574D01*
X97199502Y-117638086D01*
X97203880Y-117824898D01*
X97146014Y-118041120D01*
X97039368Y-118248406D01*
X96943528Y-118367031D01*
X96784835Y-118483776D01*
X96619109Y-118538598D01*
X96471816Y-118528441D01*
X96368417Y-118450252D01*
X96360587Y-118436939D01*
X96306924Y-118236625D01*
X96330251Y-118010434D01*
X96419059Y-117782398D01*
X96561842Y-117576549D01*
X96747093Y-117416918D01*
X96880652Y-117350818D01*
X96985822Y-117361079D01*
G36*
X98226344Y-117438199D02*
G01*
X98304686Y-117562085D01*
X98335928Y-117736009D01*
X98311829Y-117947327D01*
X98231465Y-118168525D01*
X98127206Y-118328053D01*
X97989834Y-118467194D01*
X97848178Y-118560730D01*
X97754403Y-118585810D01*
X97676921Y-118559083D01*
X97589303Y-118506919D01*
X97499282Y-118386619D01*
X97468649Y-118211858D01*
X97492572Y-118006905D01*
X97566218Y-117796028D01*
X97684755Y-117603495D01*
X97791166Y-117493209D01*
X97961341Y-117391117D01*
X98109148Y-117376995D01*
X98226344Y-117438199D01*
X98226344Y-117438199D01*
G37*
X98226344Y-117438199D02*
X98304686Y-117562085D01*
X98335928Y-117736009D01*
X98311829Y-117947327D01*
X98231465Y-118168525D01*
X98127206Y-118328053D01*
X97989834Y-118467194D01*
X97848178Y-118560730D01*
X97754403Y-118585810D01*
X97676921Y-118559083D01*
X97589303Y-118506919D01*
X97499282Y-118386619D01*
X97468649Y-118211858D01*
X97492572Y-118006905D01*
X97566218Y-117796028D01*
X97684755Y-117603495D01*
X97791166Y-117493209D01*
X97961341Y-117391117D01*
X98109148Y-117376995D01*
X98226344Y-117438199D01*
G36*
X98827124Y-118620305D02*
G01*
X98912144Y-118713036D01*
X98934955Y-118848910D01*
X98899417Y-119012648D01*
X98809389Y-119188968D01*
X98668732Y-119362589D01*
X98481305Y-119518231D01*
X98432662Y-119549468D01*
X98228222Y-119638616D01*
X98060864Y-119635015D01*
X97962628Y-119572971D01*
X97899546Y-119481585D01*
X97891654Y-119371092D01*
X97940476Y-119216484D01*
X97991141Y-119105473D01*
X98126211Y-118902719D01*
X98306669Y-118734671D01*
X98504904Y-118622272D01*
X98676034Y-118586000D01*
X98827124Y-118620305D01*
X98827124Y-118620305D01*
G37*
X98827124Y-118620305D02*
X98912144Y-118713036D01*
X98934955Y-118848910D01*
X98899417Y-119012648D01*
X98809389Y-119188968D01*
X98668732Y-119362589D01*
X98481305Y-119518231D01*
X98432662Y-119549468D01*
X98228222Y-119638616D01*
X98060864Y-119635015D01*
X97962628Y-119572971D01*
X97899546Y-119481585D01*
X97891654Y-119371092D01*
X97940476Y-119216484D01*
X97991141Y-119105473D01*
X98126211Y-118902719D01*
X98306669Y-118734671D01*
X98504904Y-118622272D01*
X98676034Y-118586000D01*
X98827124Y-118620305D01*
G36*
X95748804Y-118565348D02*
G01*
X95890501Y-118651424D01*
X95990212Y-118794387D01*
X96040853Y-118973825D01*
X96035345Y-119169322D01*
X95966605Y-119360466D01*
X95888537Y-119468483D01*
X95722158Y-119597342D01*
X95549110Y-119624973D01*
X95462535Y-119601954D01*
X95308922Y-119488412D01*
X95216597Y-119300379D01*
X95190400Y-119085529D01*
X95229510Y-118850204D01*
X95341098Y-118674562D01*
X95516550Y-118570539D01*
X95572201Y-118556575D01*
X95748804Y-118565348D01*
X95748804Y-118565348D01*
G37*
X95748804Y-118565348D02*
X95890501Y-118651424D01*
X95990212Y-118794387D01*
X96040853Y-118973825D01*
X96035345Y-119169322D01*
X95966605Y-119360466D01*
X95888537Y-119468483D01*
X95722158Y-119597342D01*
X95549110Y-119624973D01*
X95462535Y-119601954D01*
X95308922Y-119488412D01*
X95216597Y-119300379D01*
X95190400Y-119085529D01*
X95229510Y-118850204D01*
X95341098Y-118674562D01*
X95516550Y-118570539D01*
X95572201Y-118556575D01*
X95748804Y-118565348D01*
G36*
X97464771Y-119053705D02*
G01*
X97568966Y-119108517D01*
X97569294Y-119108910D01*
X97598154Y-119194021D01*
X97613382Y-119341514D01*
X97613614Y-119451810D01*
X97618693Y-119647327D01*
X97658884Y-119790285D01*
X97720815Y-119893617D01*
X97839051Y-120126076D01*
X97862769Y-120349766D01*
X97793357Y-120552177D01*
X97632203Y-120720800D01*
X97628800Y-120723216D01*
X97452639Y-120821867D01*
X97296990Y-120839624D01*
X97125255Y-120779619D01*
X97103415Y-120768193D01*
X96974290Y-120705965D01*
X96884454Y-120693399D01*
X96786563Y-120727084D01*
X96753895Y-120743025D01*
X96585031Y-120809275D01*
X96460246Y-120806904D01*
X96350855Y-120737810D01*
X96285605Y-120689654D01*
X96215922Y-120681624D01*
X96104766Y-120713721D01*
X96040356Y-120737810D01*
X95802573Y-120808670D01*
X95628605Y-120811490D01*
X95506009Y-120745367D01*
X95466394Y-120696131D01*
X95415243Y-120538118D01*
X95457144Y-120358752D01*
X95593461Y-120154913D01*
X95790532Y-119954684D01*
X95962894Y-119777233D01*
X96125076Y-119574112D01*
X96231800Y-119407179D01*
X96364213Y-119199751D01*
X96500592Y-119083904D01*
X96658838Y-119050579D01*
X96856850Y-119090716D01*
X96857010Y-119090769D01*
X97018700Y-119128578D01*
X97134385Y-119112236D01*
X97160928Y-119099711D01*
X97314740Y-119050454D01*
X97464771Y-119053705D01*
X97464771Y-119053705D01*
G37*
X97464771Y-119053705D02*
X97568966Y-119108517D01*
X97569294Y-119108910D01*
X97598154Y-119194021D01*
X97613382Y-119341514D01*
X97613614Y-119451810D01*
X97618693Y-119647327D01*
X97658884Y-119790285D01*
X97720815Y-119893617D01*
X97839051Y-120126076D01*
X97862769Y-120349766D01*
X97793357Y-120552177D01*
X97632203Y-120720800D01*
X97628800Y-120723216D01*
X97452639Y-120821867D01*
X97296990Y-120839624D01*
X97125255Y-120779619D01*
X97103415Y-120768193D01*
X96974290Y-120705965D01*
X96884454Y-120693399D01*
X96786563Y-120727084D01*
X96753895Y-120743025D01*
X96585031Y-120809275D01*
X96460246Y-120806904D01*
X96350855Y-120737810D01*
X96285605Y-120689654D01*
X96215922Y-120681624D01*
X96104766Y-120713721D01*
X96040356Y-120737810D01*
X95802573Y-120808670D01*
X95628605Y-120811490D01*
X95506009Y-120745367D01*
X95466394Y-120696131D01*
X95415243Y-120538118D01*
X95457144Y-120358752D01*
X95593461Y-120154913D01*
X95790532Y-119954684D01*
X95962894Y-119777233D01*
X96125076Y-119574112D01*
X96231800Y-119407179D01*
X96364213Y-119199751D01*
X96500592Y-119083904D01*
X96658838Y-119050579D01*
X96856850Y-119090716D01*
X96857010Y-119090769D01*
X97018700Y-119128578D01*
X97134385Y-119112236D01*
X97160928Y-119099711D01*
X97314740Y-119050454D01*
X97464771Y-119053705D01*
D13*
X152337936Y-125110000D02*
X153542064Y-125110000D01*
X152337936Y-123290000D02*
X153542064Y-123290000D01*
X149790000Y-120620000D02*
X149790000Y-122040000D01*
X144590000Y-120620000D02*
X149790000Y-120620000D01*
X144590000Y-122840000D02*
X144590000Y-120620000D01*
X148990000Y-122840000D02*
X144590000Y-122840000D01*
X149790000Y-122040000D02*
X148990000Y-122840000D01*
X147451252Y-123490000D02*
X146928748Y-123490000D01*
X147451252Y-124910000D02*
X146928748Y-124910000D01*
X128790000Y-113838748D02*
X128790000Y-114361252D01*
X130210000Y-113838748D02*
X130210000Y-114361252D01*
X149250000Y-98920000D02*
X149250000Y-106120000D01*
X142850000Y-98920000D02*
X149250000Y-98920000D01*
X142850000Y-106920000D02*
X142850000Y-98920000D01*
X148450000Y-106920000D02*
X142850000Y-106920000D01*
X149250000Y-106120000D02*
X148450000Y-106920000D01*
X126241252Y-98793826D02*
X125718748Y-98793826D01*
X126241252Y-100213826D02*
X125718748Y-100213826D01*
X125718748Y-98220000D02*
X126241252Y-98220000D01*
X125718748Y-96800000D02*
X126241252Y-96800000D01*
D10*
X130085000Y-90620000D02*
X136060000Y-90620000D01*
X131610000Y-97520000D02*
X136060000Y-97520000D01*
D13*
X159900000Y-120950000D02*
X158480000Y-120950000D01*
X159900000Y-115750000D02*
X159900000Y-120950000D01*
X157680000Y-115750000D02*
X159900000Y-115750000D01*
X157680000Y-120150000D02*
X157680000Y-115750000D01*
X158480000Y-120950000D02*
X157680000Y-120150000D01*
X153498564Y-110510000D02*
G75*
G03X153498564Y-110510000I-574282J0D01*
G01*
X140150000Y-118570000D02*
X140150000Y-109040000D01*
X156790000Y-118570000D02*
X140150000Y-118570000D01*
X156790000Y-109030000D02*
X156790000Y-118570000D01*
X140150000Y-109040000D02*
X156790000Y-109030000D01*
X111390000Y-91640000D02*
X112320000Y-91640000D01*
X114550000Y-91640000D02*
X113620000Y-91640000D01*
X114550000Y-91640000D02*
X114550000Y-89480000D01*
X111390000Y-91640000D02*
X111390000Y-90180000D01*
X115440000Y-90618748D02*
X115440000Y-91141252D01*
X116860000Y-90618748D02*
X116860000Y-91141252D01*
X118610000Y-98040000D02*
X118610000Y-101490000D01*
X118610000Y-98040000D02*
X118610000Y-96090000D01*
X123730000Y-98040000D02*
X123730000Y-99990000D01*
X123730000Y-98040000D02*
X123730000Y-96090000D01*
X170030000Y-118864748D02*
X170030000Y-119387252D01*
X171450000Y-118864748D02*
X171450000Y-119387252D01*
X117490000Y-110751252D02*
X117490000Y-110228748D01*
X116070000Y-110751252D02*
X116070000Y-110228748D01*
X181400000Y-123220000D02*
X181400000Y-120110000D01*
X178740000Y-120680000D02*
X178740000Y-120110000D01*
X181400000Y-125310000D02*
X181400000Y-124740000D01*
X181400000Y-124740000D02*
X182920000Y-124740000D01*
X178740000Y-125310000D02*
X178740000Y-122200000D01*
X181400000Y-120110000D02*
X178740000Y-120110000D01*
X181400000Y-125310000D02*
X178740000Y-125310000D01*
X173140000Y-123450000D02*
X173140000Y-122050000D01*
X173840000Y-121350000D02*
X174440000Y-121350000D01*
X175140000Y-122050000D02*
X175140000Y-123450000D01*
X174440000Y-124150000D02*
X173840000Y-124150000D01*
X173840000Y-124150000D02*
G75*
G02X173140000Y-123450000I0J700000D01*
G01*
X175140000Y-123450000D02*
G75*
G02X174440000Y-124150000I-700000J0D01*
G01*
X174440000Y-121350000D02*
G75*
G02X175140000Y-122050000I0J-700000D01*
G01*
X173140000Y-122050000D02*
G75*
G02X173840000Y-121350000I700000J0D01*
G01*
X121140000Y-113280000D02*
X118030000Y-113280000D01*
X118600000Y-115940000D02*
X118030000Y-115940000D01*
X123230000Y-113280000D02*
X122660000Y-113280000D01*
X122660000Y-113280000D02*
X122660000Y-111760000D01*
X123230000Y-115940000D02*
X120120000Y-115940000D01*
X118030000Y-113280000D02*
X118030000Y-115940000D01*
X123230000Y-113280000D02*
X123230000Y-115940000D01*
X167850000Y-97590000D02*
X167850000Y-100250000D01*
X162650000Y-97590000D02*
X162650000Y-100250000D01*
X167850000Y-100250000D02*
X164740000Y-100250000D01*
X167280000Y-97590000D02*
X167280000Y-96070000D01*
X167850000Y-97590000D02*
X167280000Y-97590000D01*
X163220000Y-100250000D02*
X162650000Y-100250000D01*
X165760000Y-97590000D02*
X162650000Y-97590000D01*
X132550000Y-109350000D02*
X132550000Y-107930000D01*
X137750000Y-109350000D02*
X132550000Y-109350000D01*
X137750000Y-107130000D02*
X137750000Y-109350000D01*
X133350000Y-107130000D02*
X137750000Y-107130000D01*
X132550000Y-107930000D02*
X133350000Y-107130000D01*
X137920000Y-104670000D02*
X137920000Y-106090000D01*
X132720000Y-104670000D02*
X137920000Y-104670000D01*
X132720000Y-106890000D02*
X132720000Y-104670000D01*
X137120000Y-106890000D02*
X132720000Y-106890000D01*
X137920000Y-106090000D02*
X137120000Y-106890000D01*
X117230000Y-98261252D02*
X117230000Y-97738748D01*
X115810000Y-98261252D02*
X115810000Y-97738748D01*
X137130000Y-110570000D02*
X136630000Y-110570000D01*
X136880000Y-110320000D02*
X136880000Y-110820000D01*
X134124437Y-111060000D02*
X133060000Y-112124437D01*
X136515563Y-111060000D02*
X137580000Y-112124437D01*
X136515563Y-111060000D02*
X136380000Y-111060000D01*
X134124437Y-111060000D02*
X134260000Y-111060000D01*
X133060000Y-112124437D02*
X133060000Y-115580000D01*
X137580000Y-112124437D02*
X137580000Y-115580000D01*
X137580000Y-115580000D02*
X136380000Y-115580000D01*
X133060000Y-115580000D02*
X134260000Y-115580000D01*
X152050000Y-82055000D02*
X154590000Y-82055000D01*
X152050000Y-82055000D02*
X152050000Y-84595000D01*
X152300000Y-82305000D02*
X161650000Y-82305000D01*
X152300000Y-98085000D02*
X152300000Y-82305000D01*
X161650000Y-98085000D02*
X152300000Y-98085000D01*
X161650000Y-82305000D02*
X161650000Y-98085000D01*
X133948500Y-83987480D02*
X130498500Y-83987480D01*
X133948500Y-83987480D02*
X135898500Y-83987480D01*
X133948500Y-89107480D02*
X131998500Y-89107480D01*
X133948500Y-89107480D02*
X135898500Y-89107480D01*
X178238733Y-100310000D02*
X178581267Y-100310000D01*
X178238733Y-99290000D02*
X178581267Y-99290000D01*
X124513748Y-107120000D02*
X125036252Y-107120000D01*
X124513748Y-105700000D02*
X125036252Y-105700000D01*
X179770000Y-93308748D02*
X179770000Y-93831252D01*
X181190000Y-93308748D02*
X181190000Y-93831252D01*
X125036252Y-103700000D02*
X124513748Y-103700000D01*
X125036252Y-105120000D02*
X124513748Y-105120000D01*
X162600252Y-118070400D02*
X162077748Y-118070400D01*
X162600252Y-119490400D02*
X162077748Y-119490400D01*
X130128748Y-106998520D02*
X130651252Y-106998520D01*
X130128748Y-105578520D02*
X130651252Y-105578520D01*
X130651252Y-107572348D02*
X130128748Y-107572348D01*
X130651252Y-108992348D02*
X130128748Y-108992348D01*
D10*
X119250000Y-119910000D02*
X117500000Y-119910000D01*
X119250000Y-125665000D02*
X124750000Y-125665000D01*
X119250000Y-119255000D02*
X124750000Y-119255000D01*
X119250000Y-125665000D02*
X119250000Y-124915000D01*
X124750000Y-125665000D02*
X124750000Y-124915000D01*
X124750000Y-119255000D02*
X124750000Y-120005000D01*
X119250000Y-119255000D02*
X119250000Y-119910000D01*
D13*
X101930000Y-85430000D02*
X101930000Y-84100000D01*
X103260000Y-85430000D02*
X101930000Y-85430000D01*
X104530000Y-85430000D02*
X104530000Y-82770000D01*
X104530000Y-82770000D02*
X114750000Y-82770000D01*
X104530000Y-85430000D02*
X114750000Y-85430000D01*
X114750000Y-85430000D02*
X114750000Y-82770000D01*
X160501500Y-123865240D02*
X163361500Y-123865240D01*
X160501500Y-121945240D02*
X160501500Y-123865240D01*
X163361500Y-121945240D02*
X160501500Y-121945240D01*
X119181250Y-92717500D02*
X119181250Y-89857500D01*
X117261250Y-92717500D02*
X119181250Y-92717500D01*
X117261250Y-89857500D02*
X117261250Y-92717500D01*
X166118000Y-118864748D02*
X166118000Y-119387252D01*
X167538000Y-118864748D02*
X167538000Y-119387252D01*
X162600252Y-116030480D02*
X162077748Y-116030480D01*
X162600252Y-117450480D02*
X162077748Y-117450480D01*
X132870000Y-123836252D02*
X132870000Y-123313748D01*
X131450000Y-123836252D02*
X131450000Y-123313748D01*
X130720000Y-123836252D02*
X130720000Y-123313748D01*
X129300000Y-123836252D02*
X129300000Y-123313748D01*
X144052748Y-88775175D02*
X144575252Y-88775175D01*
X144052748Y-87355175D02*
X144575252Y-87355175D01*
X144575252Y-93765500D02*
X144052748Y-93765500D01*
X144575252Y-95185500D02*
X144052748Y-95185500D01*
X144575252Y-91628725D02*
X144052748Y-91628725D01*
X144575252Y-93048725D02*
X144052748Y-93048725D01*
X144052748Y-90911950D02*
X144575252Y-90911950D01*
X144052748Y-89491950D02*
X144575252Y-89491950D01*
X144052748Y-86638400D02*
X144575252Y-86638400D01*
X144052748Y-85218400D02*
X144575252Y-85218400D01*
X124455000Y-90598748D02*
X124455000Y-91121252D01*
X125875000Y-90598748D02*
X125875000Y-91121252D01*
X123848750Y-91121252D02*
X123848750Y-90598748D01*
X122428750Y-91121252D02*
X122428750Y-90598748D01*
X128076000Y-86286228D02*
X128076000Y-86808732D01*
X129496000Y-86286228D02*
X129496000Y-86808732D01*
X138401000Y-86286228D02*
X138401000Y-86808732D01*
X139821000Y-86286228D02*
X139821000Y-86808732D01*
X121002500Y-91141252D02*
X121002500Y-90618748D01*
X119582500Y-91141252D02*
X119582500Y-90618748D01*
X162600252Y-121530320D02*
X162077748Y-121530320D01*
X162600252Y-120110320D02*
X162077748Y-120110320D01*
D10*
X139052380Y-122531904D02*
X139861904Y-122531904D01*
X139957142Y-122484285D01*
X140004761Y-122436666D01*
X140052380Y-122341428D01*
X140052380Y-122150952D01*
X140004761Y-122055714D01*
X139957142Y-122008095D01*
X139861904Y-121960476D01*
X139052380Y-121960476D01*
X139147619Y-121531904D02*
X139100000Y-121484285D01*
X139052380Y-121389047D01*
X139052380Y-121150952D01*
X139100000Y-121055714D01*
X139147619Y-121008095D01*
X139242857Y-120960476D01*
X139338095Y-120960476D01*
X139480952Y-121008095D01*
X140052380Y-121579523D01*
X140052380Y-120960476D01*
X176862380Y-97506666D02*
X176386190Y-97840000D01*
X176862380Y-98078095D02*
X175862380Y-98078095D01*
X175862380Y-97697142D01*
X175910000Y-97601904D01*
X175957619Y-97554285D01*
X176052857Y-97506666D01*
X176195714Y-97506666D01*
X176290952Y-97554285D01*
X176338571Y-97601904D01*
X176386190Y-97697142D01*
X176386190Y-98078095D01*
X176862380Y-97030476D02*
X176862380Y-96840000D01*
X176814761Y-96744761D01*
X176767142Y-96697142D01*
X176624285Y-96601904D01*
X176433809Y-96554285D01*
X176052857Y-96554285D01*
X175957619Y-96601904D01*
X175910000Y-96649523D01*
X175862380Y-96744761D01*
X175862380Y-96935238D01*
X175910000Y-97030476D01*
X175957619Y-97078095D01*
X176052857Y-97125714D01*
X176290952Y-97125714D01*
X176386190Y-97078095D01*
X176433809Y-97030476D01*
X176481428Y-96935238D01*
X176481428Y-96744761D01*
X176433809Y-96649523D01*
X176386190Y-96601904D01*
X176290952Y-96554285D01*
X178922380Y-96916666D02*
X178446190Y-97250000D01*
X178922380Y-97488095D02*
X177922380Y-97488095D01*
X177922380Y-97107142D01*
X177970000Y-97011904D01*
X178017619Y-96964285D01*
X178112857Y-96916666D01*
X178255714Y-96916666D01*
X178350952Y-96964285D01*
X178398571Y-97011904D01*
X178446190Y-97107142D01*
X178446190Y-97488095D01*
X178255714Y-96059523D02*
X178922380Y-96059523D01*
X177874761Y-96297619D02*
X178589047Y-96535714D01*
X178589047Y-95916666D01*
X156467142Y-124607142D02*
X156419523Y-124654761D01*
X156276666Y-124702380D01*
X156181428Y-124702380D01*
X156038571Y-124654761D01*
X155943333Y-124559523D01*
X155895714Y-124464285D01*
X155848095Y-124273809D01*
X155848095Y-124130952D01*
X155895714Y-123940476D01*
X155943333Y-123845238D01*
X156038571Y-123750000D01*
X156181428Y-123702380D01*
X156276666Y-123702380D01*
X156419523Y-123750000D01*
X156467142Y-123797619D01*
X157419523Y-124702380D02*
X156848095Y-124702380D01*
X157133809Y-124702380D02*
X157133809Y-123702380D01*
X157038571Y-123845238D01*
X156943333Y-123940476D01*
X156848095Y-123988095D01*
X158038571Y-123702380D02*
X158133809Y-123702380D01*
X158229047Y-123750000D01*
X158276666Y-123797619D01*
X158324285Y-123892857D01*
X158371904Y-124083333D01*
X158371904Y-124321428D01*
X158324285Y-124511904D01*
X158276666Y-124607142D01*
X158229047Y-124654761D01*
X158133809Y-124702380D01*
X158038571Y-124702380D01*
X157943333Y-124654761D01*
X157895714Y-124607142D01*
X157848095Y-124511904D01*
X157800476Y-124321428D01*
X157800476Y-124083333D01*
X157848095Y-123892857D01*
X157895714Y-123797619D01*
X157943333Y-123750000D01*
X158038571Y-123702380D01*
X142661904Y-122122380D02*
X142661904Y-121122380D01*
X142900000Y-121122380D01*
X143042857Y-121170000D01*
X143138095Y-121265238D01*
X143185714Y-121360476D01*
X143233333Y-121550952D01*
X143233333Y-121693809D01*
X143185714Y-121884285D01*
X143138095Y-121979523D01*
X143042857Y-122074761D01*
X142900000Y-122122380D01*
X142661904Y-122122380D01*
X144090476Y-121122380D02*
X143900000Y-121122380D01*
X143804761Y-121170000D01*
X143757142Y-121217619D01*
X143661904Y-121360476D01*
X143614285Y-121550952D01*
X143614285Y-121931904D01*
X143661904Y-122027142D01*
X143709523Y-122074761D01*
X143804761Y-122122380D01*
X143995238Y-122122380D01*
X144090476Y-122074761D01*
X144138095Y-122027142D01*
X144185714Y-121931904D01*
X144185714Y-121693809D01*
X144138095Y-121598571D01*
X144090476Y-121550952D01*
X143995238Y-121503333D01*
X143804761Y-121503333D01*
X143709523Y-121550952D01*
X143661904Y-121598571D01*
X143614285Y-121693809D01*
X141887142Y-124672380D02*
X141553809Y-124196190D01*
X141315714Y-124672380D02*
X141315714Y-123672380D01*
X141696666Y-123672380D01*
X141791904Y-123720000D01*
X141839523Y-123767619D01*
X141887142Y-123862857D01*
X141887142Y-124005714D01*
X141839523Y-124100952D01*
X141791904Y-124148571D01*
X141696666Y-124196190D01*
X141315714Y-124196190D01*
X142839523Y-124672380D02*
X142268095Y-124672380D01*
X142553809Y-124672380D02*
X142553809Y-123672380D01*
X142458571Y-123815238D01*
X142363333Y-123910476D01*
X142268095Y-123958095D01*
X143172857Y-123672380D02*
X143791904Y-123672380D01*
X143458571Y-124053333D01*
X143601428Y-124053333D01*
X143696666Y-124100952D01*
X143744285Y-124148571D01*
X143791904Y-124243809D01*
X143791904Y-124481904D01*
X143744285Y-124577142D01*
X143696666Y-124624761D01*
X143601428Y-124672380D01*
X143315714Y-124672380D01*
X143220476Y-124624761D01*
X143172857Y-124577142D01*
X131602380Y-114742857D02*
X131126190Y-115076190D01*
X131602380Y-115314285D02*
X130602380Y-115314285D01*
X130602380Y-114933333D01*
X130650000Y-114838095D01*
X130697619Y-114790476D01*
X130792857Y-114742857D01*
X130935714Y-114742857D01*
X131030952Y-114790476D01*
X131078571Y-114838095D01*
X131126190Y-114933333D01*
X131126190Y-115314285D01*
X131602380Y-113790476D02*
X131602380Y-114361904D01*
X131602380Y-114076190D02*
X130602380Y-114076190D01*
X130745238Y-114171428D01*
X130840476Y-114266666D01*
X130888095Y-114361904D01*
X131602380Y-112838095D02*
X131602380Y-113409523D01*
X131602380Y-113123809D02*
X130602380Y-113123809D01*
X130745238Y-113219047D01*
X130840476Y-113314285D01*
X130888095Y-113409523D01*
X149702380Y-103253333D02*
X150416666Y-103253333D01*
X150559523Y-103300952D01*
X150654761Y-103396190D01*
X150702380Y-103539047D01*
X150702380Y-103634285D01*
X149702380Y-102872380D02*
X149702380Y-102253333D01*
X150083333Y-102586666D01*
X150083333Y-102443809D01*
X150130952Y-102348571D01*
X150178571Y-102300952D01*
X150273809Y-102253333D01*
X150511904Y-102253333D01*
X150607142Y-102300952D01*
X150654761Y-102348571D01*
X150702380Y-102443809D01*
X150702380Y-102729523D01*
X150654761Y-102824761D01*
X150607142Y-102872380D01*
X125337142Y-101606206D02*
X125003809Y-101130016D01*
X124765714Y-101606206D02*
X124765714Y-100606206D01*
X125146666Y-100606206D01*
X125241904Y-100653826D01*
X125289523Y-100701445D01*
X125337142Y-100796683D01*
X125337142Y-100939540D01*
X125289523Y-101034778D01*
X125241904Y-101082397D01*
X125146666Y-101130016D01*
X124765714Y-101130016D01*
X125718095Y-100701445D02*
X125765714Y-100653826D01*
X125860952Y-100606206D01*
X126099047Y-100606206D01*
X126194285Y-100653826D01*
X126241904Y-100701445D01*
X126289523Y-100796683D01*
X126289523Y-100891921D01*
X126241904Y-101034778D01*
X125670476Y-101606206D01*
X126289523Y-101606206D01*
X127146666Y-100939540D02*
X127146666Y-101606206D01*
X126908571Y-100558587D02*
X126670476Y-101272873D01*
X127289523Y-101272873D01*
X125337142Y-96312380D02*
X125003809Y-95836190D01*
X124765714Y-96312380D02*
X124765714Y-95312380D01*
X125146666Y-95312380D01*
X125241904Y-95360000D01*
X125289523Y-95407619D01*
X125337142Y-95502857D01*
X125337142Y-95645714D01*
X125289523Y-95740952D01*
X125241904Y-95788571D01*
X125146666Y-95836190D01*
X124765714Y-95836190D01*
X125718095Y-95407619D02*
X125765714Y-95360000D01*
X125860952Y-95312380D01*
X126099047Y-95312380D01*
X126194285Y-95360000D01*
X126241904Y-95407619D01*
X126289523Y-95502857D01*
X126289523Y-95598095D01*
X126241904Y-95740952D01*
X125670476Y-96312380D01*
X126289523Y-96312380D01*
X126622857Y-95312380D02*
X127241904Y-95312380D01*
X126908571Y-95693333D01*
X127051428Y-95693333D01*
X127146666Y-95740952D01*
X127194285Y-95788571D01*
X127241904Y-95883809D01*
X127241904Y-96121904D01*
X127194285Y-96217142D01*
X127146666Y-96264761D01*
X127051428Y-96312380D01*
X126765714Y-96312380D01*
X126670476Y-96264761D01*
X126622857Y-96217142D01*
X99996666Y-112958571D02*
X99663333Y-112958571D01*
X99663333Y-113482380D02*
X99663333Y-112482380D01*
X100139523Y-112482380D01*
X100472857Y-112577619D02*
X100520476Y-112530000D01*
X100615714Y-112482380D01*
X100853809Y-112482380D01*
X100949047Y-112530000D01*
X100996666Y-112577619D01*
X101044285Y-112672857D01*
X101044285Y-112768095D01*
X100996666Y-112910952D01*
X100425238Y-113482380D01*
X101044285Y-113482380D01*
X178596666Y-112668571D02*
X178263333Y-112668571D01*
X178263333Y-113192380D02*
X178263333Y-112192380D01*
X178739523Y-112192380D01*
X179644285Y-113192380D02*
X179072857Y-113192380D01*
X179358571Y-113192380D02*
X179358571Y-112192380D01*
X179263333Y-112335238D01*
X179168095Y-112430476D01*
X179072857Y-112478095D01*
X130301666Y-90297380D02*
X130301666Y-89297380D01*
X130635000Y-90011666D01*
X130968333Y-89297380D01*
X130968333Y-90297380D01*
X132015952Y-90202142D02*
X131968333Y-90249761D01*
X131825476Y-90297380D01*
X131730238Y-90297380D01*
X131587380Y-90249761D01*
X131492142Y-90154523D01*
X131444523Y-90059285D01*
X131396904Y-89868809D01*
X131396904Y-89725952D01*
X131444523Y-89535476D01*
X131492142Y-89440238D01*
X131587380Y-89345000D01*
X131730238Y-89297380D01*
X131825476Y-89297380D01*
X131968333Y-89345000D01*
X132015952Y-89392619D01*
X132444523Y-89297380D02*
X132444523Y-90106904D01*
X132492142Y-90202142D01*
X132539761Y-90249761D01*
X132635000Y-90297380D01*
X132825476Y-90297380D01*
X132920714Y-90249761D01*
X132968333Y-90202142D01*
X133015952Y-90106904D01*
X133015952Y-89297380D01*
X134015952Y-90297380D02*
X133444523Y-90297380D01*
X133730238Y-90297380D02*
X133730238Y-89297380D01*
X133635000Y-89440238D01*
X133539761Y-89535476D01*
X133444523Y-89583095D01*
X157991904Y-114912380D02*
X157991904Y-113912380D01*
X158230000Y-113912380D01*
X158372857Y-113960000D01*
X158468095Y-114055238D01*
X158515714Y-114150476D01*
X158563333Y-114340952D01*
X158563333Y-114483809D01*
X158515714Y-114674285D01*
X158468095Y-114769523D01*
X158372857Y-114864761D01*
X158230000Y-114912380D01*
X157991904Y-114912380D01*
X159468095Y-113912380D02*
X158991904Y-113912380D01*
X158944285Y-114388571D01*
X158991904Y-114340952D01*
X159087142Y-114293333D01*
X159325238Y-114293333D01*
X159420476Y-114340952D01*
X159468095Y-114388571D01*
X159515714Y-114483809D01*
X159515714Y-114721904D01*
X159468095Y-114817142D01*
X159420476Y-114864761D01*
X159325238Y-114912380D01*
X159087142Y-114912380D01*
X158991904Y-114864761D01*
X158944285Y-114817142D01*
X154778095Y-119272380D02*
X155349523Y-119272380D01*
X155063809Y-120272380D02*
X155063809Y-119272380D01*
X156206666Y-120272380D02*
X155635238Y-120272380D01*
X155920952Y-120272380D02*
X155920952Y-119272380D01*
X155825714Y-119415238D01*
X155730476Y-119510476D01*
X155635238Y-119558095D01*
X110709523Y-93282380D02*
X111042857Y-94282380D01*
X111376190Y-93282380D01*
X112280952Y-94282380D02*
X111947619Y-93806190D01*
X111709523Y-94282380D02*
X111709523Y-93282380D01*
X112090476Y-93282380D01*
X112185714Y-93330000D01*
X112233333Y-93377619D01*
X112280952Y-93472857D01*
X112280952Y-93615714D01*
X112233333Y-93710952D01*
X112185714Y-93758571D01*
X112090476Y-93806190D01*
X111709523Y-93806190D01*
X112709523Y-93758571D02*
X113042857Y-93758571D01*
X113185714Y-94282380D02*
X112709523Y-94282380D01*
X112709523Y-93282380D01*
X113185714Y-93282380D01*
X113947619Y-93758571D02*
X113614285Y-93758571D01*
X113614285Y-94282380D02*
X113614285Y-93282380D01*
X114090476Y-93282380D01*
X114995238Y-94282380D02*
X114423809Y-94282380D01*
X114709523Y-94282380D02*
X114709523Y-93282380D01*
X114614285Y-93425238D01*
X114519047Y-93520476D01*
X114423809Y-93568095D01*
X114137142Y-88552380D02*
X113803809Y-88076190D01*
X113565714Y-88552380D02*
X113565714Y-87552380D01*
X113946666Y-87552380D01*
X114041904Y-87600000D01*
X114089523Y-87647619D01*
X114137142Y-87742857D01*
X114137142Y-87885714D01*
X114089523Y-87980952D01*
X114041904Y-88028571D01*
X113946666Y-88076190D01*
X113565714Y-88076190D01*
X115089523Y-88552380D02*
X114518095Y-88552380D01*
X114803809Y-88552380D02*
X114803809Y-87552380D01*
X114708571Y-87695238D01*
X114613333Y-87790476D01*
X114518095Y-87838095D01*
X115470476Y-87647619D02*
X115518095Y-87600000D01*
X115613333Y-87552380D01*
X115851428Y-87552380D01*
X115946666Y-87600000D01*
X115994285Y-87647619D01*
X116041904Y-87742857D01*
X116041904Y-87838095D01*
X115994285Y-87980952D01*
X115422857Y-88552380D01*
X116041904Y-88552380D01*
X118738095Y-102362380D02*
X118738095Y-103171904D01*
X118785714Y-103267142D01*
X118833333Y-103314761D01*
X118928571Y-103362380D01*
X119119047Y-103362380D01*
X119214285Y-103314761D01*
X119261904Y-103267142D01*
X119309523Y-103171904D01*
X119309523Y-102362380D01*
X120261904Y-102362380D02*
X119785714Y-102362380D01*
X119738095Y-102838571D01*
X119785714Y-102790952D01*
X119880952Y-102743333D01*
X120119047Y-102743333D01*
X120214285Y-102790952D01*
X120261904Y-102838571D01*
X120309523Y-102933809D01*
X120309523Y-103171904D01*
X120261904Y-103267142D01*
X120214285Y-103314761D01*
X120119047Y-103362380D01*
X119880952Y-103362380D01*
X119785714Y-103314761D01*
X119738095Y-103267142D01*
X173112380Y-119672857D02*
X172636190Y-120006190D01*
X173112380Y-120244285D02*
X172112380Y-120244285D01*
X172112380Y-119863333D01*
X172160000Y-119768095D01*
X172207619Y-119720476D01*
X172302857Y-119672857D01*
X172445714Y-119672857D01*
X172540952Y-119720476D01*
X172588571Y-119768095D01*
X172636190Y-119863333D01*
X172636190Y-120244285D01*
X173112380Y-118720476D02*
X173112380Y-119291904D01*
X173112380Y-119006190D02*
X172112380Y-119006190D01*
X172255238Y-119101428D01*
X172350476Y-119196666D01*
X172398095Y-119291904D01*
X172112380Y-118387142D02*
X172112380Y-117720476D01*
X173112380Y-118149047D01*
X115582380Y-111132857D02*
X115106190Y-111466190D01*
X115582380Y-111704285D02*
X114582380Y-111704285D01*
X114582380Y-111323333D01*
X114630000Y-111228095D01*
X114677619Y-111180476D01*
X114772857Y-111132857D01*
X114915714Y-111132857D01*
X115010952Y-111180476D01*
X115058571Y-111228095D01*
X115106190Y-111323333D01*
X115106190Y-111704285D01*
X115582380Y-110180476D02*
X115582380Y-110751904D01*
X115582380Y-110466190D02*
X114582380Y-110466190D01*
X114725238Y-110561428D01*
X114820476Y-110656666D01*
X114868095Y-110751904D01*
X114915714Y-109323333D02*
X115582380Y-109323333D01*
X114534761Y-109561428D02*
X115249047Y-109799523D01*
X115249047Y-109180476D01*
X179236666Y-125762380D02*
X179236666Y-126476666D01*
X179189047Y-126619523D01*
X179093809Y-126714761D01*
X178950952Y-126762380D01*
X178855714Y-126762380D01*
X179712857Y-126762380D02*
X179712857Y-125762380D01*
X180093809Y-125762380D01*
X180189047Y-125810000D01*
X180236666Y-125857619D01*
X180284285Y-125952857D01*
X180284285Y-126095714D01*
X180236666Y-126190952D01*
X180189047Y-126238571D01*
X180093809Y-126286190D01*
X179712857Y-126286190D01*
X181141428Y-126095714D02*
X181141428Y-126762380D01*
X180903333Y-125714761D02*
X180665238Y-126429047D01*
X181284285Y-126429047D01*
X173176666Y-124732380D02*
X173176666Y-125446666D01*
X173129047Y-125589523D01*
X173033809Y-125684761D01*
X172890952Y-125732380D01*
X172795714Y-125732380D01*
X173652857Y-125732380D02*
X173652857Y-124732380D01*
X174033809Y-124732380D01*
X174129047Y-124780000D01*
X174176666Y-124827619D01*
X174224285Y-124922857D01*
X174224285Y-125065714D01*
X174176666Y-125160952D01*
X174129047Y-125208571D01*
X174033809Y-125256190D01*
X173652857Y-125256190D01*
X174557619Y-124732380D02*
X175176666Y-124732380D01*
X174843333Y-125113333D01*
X174986190Y-125113333D01*
X175081428Y-125160952D01*
X175129047Y-125208571D01*
X175176666Y-125303809D01*
X175176666Y-125541904D01*
X175129047Y-125637142D01*
X175081428Y-125684761D01*
X174986190Y-125732380D01*
X174700476Y-125732380D01*
X174605238Y-125684761D01*
X174557619Y-125637142D01*
X121046666Y-116812380D02*
X121046666Y-117526666D01*
X120999047Y-117669523D01*
X120903809Y-117764761D01*
X120760952Y-117812380D01*
X120665714Y-117812380D01*
X121522857Y-117812380D02*
X121522857Y-116812380D01*
X121903809Y-116812380D01*
X121999047Y-116860000D01*
X122046666Y-116907619D01*
X122094285Y-117002857D01*
X122094285Y-117145714D01*
X122046666Y-117240952D01*
X121999047Y-117288571D01*
X121903809Y-117336190D01*
X121522857Y-117336190D01*
X122475238Y-116907619D02*
X122522857Y-116860000D01*
X122618095Y-116812380D01*
X122856190Y-116812380D01*
X122951428Y-116860000D01*
X122999047Y-116907619D01*
X123046666Y-117002857D01*
X123046666Y-117098095D01*
X122999047Y-117240952D01*
X122427619Y-117812380D01*
X123046666Y-117812380D01*
X166056666Y-101102380D02*
X166056666Y-101816666D01*
X166009047Y-101959523D01*
X165913809Y-102054761D01*
X165770952Y-102102380D01*
X165675714Y-102102380D01*
X166532857Y-102102380D02*
X166532857Y-101102380D01*
X166913809Y-101102380D01*
X167009047Y-101150000D01*
X167056666Y-101197619D01*
X167104285Y-101292857D01*
X167104285Y-101435714D01*
X167056666Y-101530952D01*
X167009047Y-101578571D01*
X166913809Y-101626190D01*
X166532857Y-101626190D01*
X168056666Y-102102380D02*
X167485238Y-102102380D01*
X167770952Y-102102380D02*
X167770952Y-101102380D01*
X167675714Y-101245238D01*
X167580476Y-101340476D01*
X167485238Y-101388095D01*
X138631904Y-108782380D02*
X138631904Y-107782380D01*
X138870000Y-107782380D01*
X139012857Y-107830000D01*
X139108095Y-107925238D01*
X139155714Y-108020476D01*
X139203333Y-108210952D01*
X139203333Y-108353809D01*
X139155714Y-108544285D01*
X139108095Y-108639523D01*
X139012857Y-108734761D01*
X138870000Y-108782380D01*
X138631904Y-108782380D01*
X140060476Y-108115714D02*
X140060476Y-108782380D01*
X139822380Y-107734761D02*
X139584285Y-108449047D01*
X140203333Y-108449047D01*
X138711904Y-106232380D02*
X138711904Y-105232380D01*
X138950000Y-105232380D01*
X139092857Y-105280000D01*
X139188095Y-105375238D01*
X139235714Y-105470476D01*
X139283333Y-105660952D01*
X139283333Y-105803809D01*
X139235714Y-105994285D01*
X139188095Y-106089523D01*
X139092857Y-106184761D01*
X138950000Y-106232380D01*
X138711904Y-106232380D01*
X139616666Y-105232380D02*
X140235714Y-105232380D01*
X139902380Y-105613333D01*
X140045238Y-105613333D01*
X140140476Y-105660952D01*
X140188095Y-105708571D01*
X140235714Y-105803809D01*
X140235714Y-106041904D01*
X140188095Y-106137142D01*
X140140476Y-106184761D01*
X140045238Y-106232380D01*
X139759523Y-106232380D01*
X139664285Y-106184761D01*
X139616666Y-106137142D01*
X116047142Y-101087142D02*
X115999523Y-101134761D01*
X115856666Y-101182380D01*
X115761428Y-101182380D01*
X115618571Y-101134761D01*
X115523333Y-101039523D01*
X115475714Y-100944285D01*
X115428095Y-100753809D01*
X115428095Y-100610952D01*
X115475714Y-100420476D01*
X115523333Y-100325238D01*
X115618571Y-100230000D01*
X115761428Y-100182380D01*
X115856666Y-100182380D01*
X115999523Y-100230000D01*
X116047142Y-100277619D01*
X116999523Y-101182380D02*
X116428095Y-101182380D01*
X116713809Y-101182380D02*
X116713809Y-100182380D01*
X116618571Y-100325238D01*
X116523333Y-100420476D01*
X116428095Y-100468095D01*
X117951904Y-101182380D02*
X117380476Y-101182380D01*
X117666190Y-101182380D02*
X117666190Y-100182380D01*
X117570952Y-100325238D01*
X117475714Y-100420476D01*
X117380476Y-100468095D01*
X132263333Y-111147142D02*
X132215714Y-111194761D01*
X132072857Y-111242380D01*
X131977619Y-111242380D01*
X131834761Y-111194761D01*
X131739523Y-111099523D01*
X131691904Y-111004285D01*
X131644285Y-110813809D01*
X131644285Y-110670952D01*
X131691904Y-110480476D01*
X131739523Y-110385238D01*
X131834761Y-110290000D01*
X131977619Y-110242380D01*
X132072857Y-110242380D01*
X132215714Y-110290000D01*
X132263333Y-110337619D01*
X133168095Y-110242380D02*
X132691904Y-110242380D01*
X132644285Y-110718571D01*
X132691904Y-110670952D01*
X132787142Y-110623333D01*
X133025238Y-110623333D01*
X133120476Y-110670952D01*
X133168095Y-110718571D01*
X133215714Y-110813809D01*
X133215714Y-111051904D01*
X133168095Y-111147142D01*
X133120476Y-111194761D01*
X133025238Y-111242380D01*
X132787142Y-111242380D01*
X132691904Y-111194761D01*
X132644285Y-111147142D01*
X163246666Y-92212380D02*
X163246666Y-92926666D01*
X163199047Y-93069523D01*
X163103809Y-93164761D01*
X162960952Y-93212380D01*
X162865714Y-93212380D01*
X163675238Y-92307619D02*
X163722857Y-92260000D01*
X163818095Y-92212380D01*
X164056190Y-92212380D01*
X164151428Y-92260000D01*
X164199047Y-92307619D01*
X164246666Y-92402857D01*
X164246666Y-92498095D01*
X164199047Y-92640952D01*
X163627619Y-93212380D01*
X164246666Y-93212380D01*
X133192395Y-82422380D02*
X133192395Y-83231904D01*
X133240014Y-83327142D01*
X133287633Y-83374761D01*
X133382871Y-83422380D01*
X133573347Y-83422380D01*
X133668585Y-83374761D01*
X133716204Y-83327142D01*
X133763823Y-83231904D01*
X133763823Y-82422380D01*
X134763823Y-83422380D02*
X134192395Y-83422380D01*
X134478109Y-83422380D02*
X134478109Y-82422380D01*
X134382871Y-82565238D01*
X134287633Y-82660476D01*
X134192395Y-82708095D01*
X180844285Y-99242380D02*
X181415714Y-99242380D01*
X181130000Y-100242380D02*
X181130000Y-99242380D01*
X181749047Y-100242380D02*
X181749047Y-99242380D01*
X181749047Y-99718571D02*
X182320476Y-99718571D01*
X182320476Y-100242380D02*
X182320476Y-99242380D01*
X183320476Y-100242380D02*
X182749047Y-100242380D01*
X183034761Y-100242380D02*
X183034761Y-99242380D01*
X182939523Y-99385238D01*
X182844285Y-99480476D01*
X182749047Y-99528095D01*
X120667142Y-106822380D02*
X120333809Y-106346190D01*
X120095714Y-106822380D02*
X120095714Y-105822380D01*
X120476666Y-105822380D01*
X120571904Y-105870000D01*
X120619523Y-105917619D01*
X120667142Y-106012857D01*
X120667142Y-106155714D01*
X120619523Y-106250952D01*
X120571904Y-106298571D01*
X120476666Y-106346190D01*
X120095714Y-106346190D01*
X121048095Y-105917619D02*
X121095714Y-105870000D01*
X121190952Y-105822380D01*
X121429047Y-105822380D01*
X121524285Y-105870000D01*
X121571904Y-105917619D01*
X121619523Y-106012857D01*
X121619523Y-106108095D01*
X121571904Y-106250952D01*
X121000476Y-106822380D01*
X121619523Y-106822380D01*
X122571904Y-106822380D02*
X122000476Y-106822380D01*
X122286190Y-106822380D02*
X122286190Y-105822380D01*
X122190952Y-105965238D01*
X122095714Y-106060476D01*
X122000476Y-106108095D01*
X180912380Y-97732857D02*
X180436190Y-98066190D01*
X180912380Y-98304285D02*
X179912380Y-98304285D01*
X179912380Y-97923333D01*
X179960000Y-97828095D01*
X180007619Y-97780476D01*
X180102857Y-97732857D01*
X180245714Y-97732857D01*
X180340952Y-97780476D01*
X180388571Y-97828095D01*
X180436190Y-97923333D01*
X180436190Y-98304285D01*
X180912380Y-96780476D02*
X180912380Y-97351904D01*
X180912380Y-97066190D02*
X179912380Y-97066190D01*
X180055238Y-97161428D01*
X180150476Y-97256666D01*
X180198095Y-97351904D01*
X180912380Y-96304285D02*
X180912380Y-96113809D01*
X180864761Y-96018571D01*
X180817142Y-95970952D01*
X180674285Y-95875714D01*
X180483809Y-95828095D01*
X180102857Y-95828095D01*
X180007619Y-95875714D01*
X179960000Y-95923333D01*
X179912380Y-96018571D01*
X179912380Y-96209047D01*
X179960000Y-96304285D01*
X180007619Y-96351904D01*
X180102857Y-96399523D01*
X180340952Y-96399523D01*
X180436190Y-96351904D01*
X180483809Y-96304285D01*
X180531428Y-96209047D01*
X180531428Y-96018571D01*
X180483809Y-95923333D01*
X180436190Y-95875714D01*
X180340952Y-95828095D01*
X120727142Y-104812380D02*
X120393809Y-104336190D01*
X120155714Y-104812380D02*
X120155714Y-103812380D01*
X120536666Y-103812380D01*
X120631904Y-103860000D01*
X120679523Y-103907619D01*
X120727142Y-104002857D01*
X120727142Y-104145714D01*
X120679523Y-104240952D01*
X120631904Y-104288571D01*
X120536666Y-104336190D01*
X120155714Y-104336190D01*
X121679523Y-104812380D02*
X121108095Y-104812380D01*
X121393809Y-104812380D02*
X121393809Y-103812380D01*
X121298571Y-103955238D01*
X121203333Y-104050476D01*
X121108095Y-104098095D01*
X122250952Y-104240952D02*
X122155714Y-104193333D01*
X122108095Y-104145714D01*
X122060476Y-104050476D01*
X122060476Y-104002857D01*
X122108095Y-103907619D01*
X122155714Y-103860000D01*
X122250952Y-103812380D01*
X122441428Y-103812380D01*
X122536666Y-103860000D01*
X122584285Y-103907619D01*
X122631904Y-104002857D01*
X122631904Y-104050476D01*
X122584285Y-104145714D01*
X122536666Y-104193333D01*
X122441428Y-104240952D01*
X122250952Y-104240952D01*
X122155714Y-104288571D01*
X122108095Y-104336190D01*
X122060476Y-104431428D01*
X122060476Y-104621904D01*
X122108095Y-104717142D01*
X122155714Y-104764761D01*
X122250952Y-104812380D01*
X122441428Y-104812380D01*
X122536666Y-104764761D01*
X122584285Y-104717142D01*
X122631904Y-104621904D01*
X122631904Y-104431428D01*
X122584285Y-104336190D01*
X122536666Y-104288571D01*
X122441428Y-104240952D01*
X165442380Y-118732857D02*
X164966190Y-119066190D01*
X165442380Y-119304285D02*
X164442380Y-119304285D01*
X164442380Y-118923333D01*
X164490000Y-118828095D01*
X164537619Y-118780476D01*
X164632857Y-118732857D01*
X164775714Y-118732857D01*
X164870952Y-118780476D01*
X164918571Y-118828095D01*
X164966190Y-118923333D01*
X164966190Y-119304285D01*
X165442380Y-117780476D02*
X165442380Y-118351904D01*
X165442380Y-118066190D02*
X164442380Y-118066190D01*
X164585238Y-118161428D01*
X164680476Y-118256666D01*
X164728095Y-118351904D01*
X164442380Y-117161428D02*
X164442380Y-117066190D01*
X164490000Y-116970952D01*
X164537619Y-116923333D01*
X164632857Y-116875714D01*
X164823333Y-116828095D01*
X165061428Y-116828095D01*
X165251904Y-116875714D01*
X165347142Y-116923333D01*
X165394761Y-116970952D01*
X165442380Y-117066190D01*
X165442380Y-117161428D01*
X165394761Y-117256666D01*
X165347142Y-117304285D01*
X165251904Y-117351904D01*
X165061428Y-117399523D01*
X164823333Y-117399523D01*
X164632857Y-117351904D01*
X164537619Y-117304285D01*
X164490000Y-117256666D01*
X164442380Y-117161428D01*
X127199979Y-106082973D02*
X127676169Y-105749640D01*
X127199979Y-105511544D02*
X128199979Y-105511544D01*
X128199979Y-105892497D01*
X128152360Y-105987735D01*
X128104740Y-106035354D01*
X128009502Y-106082973D01*
X127866645Y-106082973D01*
X127771407Y-106035354D01*
X127723788Y-105987735D01*
X127676169Y-105892497D01*
X127676169Y-105511544D01*
X128199979Y-106416306D02*
X128199979Y-107035354D01*
X127819026Y-106702020D01*
X127819026Y-106844878D01*
X127771407Y-106940116D01*
X127723788Y-106987735D01*
X127628550Y-107035354D01*
X127390455Y-107035354D01*
X127295217Y-106987735D01*
X127247598Y-106940116D01*
X127199979Y-106844878D01*
X127199979Y-106559163D01*
X127247598Y-106463925D01*
X127295217Y-106416306D01*
X128074740Y-108491974D02*
X127598550Y-108825308D01*
X128074740Y-109063403D02*
X127074740Y-109063403D01*
X127074740Y-108682450D01*
X127122360Y-108587212D01*
X127169979Y-108539593D01*
X127265217Y-108491974D01*
X127408074Y-108491974D01*
X127503312Y-108539593D01*
X127550931Y-108587212D01*
X127598550Y-108682450D01*
X127598550Y-109063403D01*
X127169979Y-108111022D02*
X127122360Y-108063403D01*
X127074740Y-107968165D01*
X127074740Y-107730069D01*
X127122360Y-107634831D01*
X127169979Y-107587212D01*
X127265217Y-107539593D01*
X127360455Y-107539593D01*
X127503312Y-107587212D01*
X128074740Y-108158641D01*
X128074740Y-107539593D01*
X128204761Y-122637619D02*
X128109523Y-122590000D01*
X128014285Y-122494761D01*
X127871428Y-122351904D01*
X127776190Y-122304285D01*
X127680952Y-122304285D01*
X127728571Y-122542380D02*
X127633333Y-122494761D01*
X127538095Y-122399523D01*
X127490476Y-122209047D01*
X127490476Y-121875714D01*
X127538095Y-121685238D01*
X127633333Y-121590000D01*
X127728571Y-121542380D01*
X127919047Y-121542380D01*
X128014285Y-121590000D01*
X128109523Y-121685238D01*
X128157142Y-121875714D01*
X128157142Y-122209047D01*
X128109523Y-122399523D01*
X128014285Y-122494761D01*
X127919047Y-122542380D01*
X127728571Y-122542380D01*
X129109523Y-122542380D02*
X128538095Y-122542380D01*
X128823809Y-122542380D02*
X128823809Y-121542380D01*
X128728571Y-121685238D01*
X128633333Y-121780476D01*
X128538095Y-121828095D01*
X100382380Y-84433333D02*
X101096666Y-84433333D01*
X101239523Y-84480952D01*
X101334761Y-84576190D01*
X101382380Y-84719047D01*
X101382380Y-84814285D01*
X101382380Y-83433333D02*
X101382380Y-84004761D01*
X101382380Y-83719047D02*
X100382380Y-83719047D01*
X100525238Y-83814285D01*
X100620476Y-83909523D01*
X100668095Y-84004761D01*
X161021904Y-125162380D02*
X161021904Y-124162380D01*
X161260000Y-124162380D01*
X161402857Y-124210000D01*
X161498095Y-124305238D01*
X161545714Y-124400476D01*
X161593333Y-124590952D01*
X161593333Y-124733809D01*
X161545714Y-124924285D01*
X161498095Y-125019523D01*
X161402857Y-125114761D01*
X161260000Y-125162380D01*
X161021904Y-125162380D01*
X161974285Y-124257619D02*
X162021904Y-124210000D01*
X162117142Y-124162380D01*
X162355238Y-124162380D01*
X162450476Y-124210000D01*
X162498095Y-124257619D01*
X162545714Y-124352857D01*
X162545714Y-124448095D01*
X162498095Y-124590952D01*
X161926666Y-125162380D01*
X162545714Y-125162380D01*
X118692380Y-88365595D02*
X117692380Y-88365595D01*
X117692380Y-88127500D01*
X117740000Y-87984642D01*
X117835238Y-87889404D01*
X117930476Y-87841785D01*
X118120952Y-87794166D01*
X118263809Y-87794166D01*
X118454285Y-87841785D01*
X118549523Y-87889404D01*
X118644761Y-87984642D01*
X118692380Y-88127500D01*
X118692380Y-88365595D01*
X118692380Y-86841785D02*
X118692380Y-87413214D01*
X118692380Y-87127500D02*
X117692380Y-87127500D01*
X117835238Y-87222738D01*
X117930476Y-87317976D01*
X117978095Y-87413214D01*
X169087142Y-119346666D02*
X169134761Y-119394285D01*
X169182380Y-119537142D01*
X169182380Y-119632380D01*
X169134761Y-119775238D01*
X169039523Y-119870476D01*
X168944285Y-119918095D01*
X168753809Y-119965714D01*
X168610952Y-119965714D01*
X168420476Y-119918095D01*
X168325238Y-119870476D01*
X168230000Y-119775238D01*
X168182380Y-119632380D01*
X168182380Y-119537142D01*
X168230000Y-119394285D01*
X168277619Y-119346666D01*
X168610952Y-118775238D02*
X168563333Y-118870476D01*
X168515714Y-118918095D01*
X168420476Y-118965714D01*
X168372857Y-118965714D01*
X168277619Y-118918095D01*
X168230000Y-118870476D01*
X168182380Y-118775238D01*
X168182380Y-118584761D01*
X168230000Y-118489523D01*
X168277619Y-118441904D01*
X168372857Y-118394285D01*
X168420476Y-118394285D01*
X168515714Y-118441904D01*
X168563333Y-118489523D01*
X168610952Y-118584761D01*
X168610952Y-118775238D01*
X168658571Y-118870476D01*
X168706190Y-118918095D01*
X168801428Y-118965714D01*
X168991904Y-118965714D01*
X169087142Y-118918095D01*
X169134761Y-118870476D01*
X169182380Y-118775238D01*
X169182380Y-118584761D01*
X169134761Y-118489523D01*
X169087142Y-118441904D01*
X168991904Y-118394285D01*
X168801428Y-118394285D01*
X168706190Y-118441904D01*
X168658571Y-118489523D01*
X168610952Y-118584761D01*
X162183333Y-115137142D02*
X162135714Y-115184761D01*
X161992857Y-115232380D01*
X161897619Y-115232380D01*
X161754761Y-115184761D01*
X161659523Y-115089523D01*
X161611904Y-114994285D01*
X161564285Y-114803809D01*
X161564285Y-114660952D01*
X161611904Y-114470476D01*
X161659523Y-114375238D01*
X161754761Y-114280000D01*
X161897619Y-114232380D01*
X161992857Y-114232380D01*
X162135714Y-114280000D01*
X162183333Y-114327619D01*
X162516666Y-114232380D02*
X163183333Y-114232380D01*
X162754761Y-115232380D01*
X132607142Y-120626666D02*
X132654761Y-120674285D01*
X132702380Y-120817142D01*
X132702380Y-120912380D01*
X132654761Y-121055238D01*
X132559523Y-121150476D01*
X132464285Y-121198095D01*
X132273809Y-121245714D01*
X132130952Y-121245714D01*
X131940476Y-121198095D01*
X131845238Y-121150476D01*
X131750000Y-121055238D01*
X131702380Y-120912380D01*
X131702380Y-120817142D01*
X131750000Y-120674285D01*
X131797619Y-120626666D01*
X132035714Y-119769523D02*
X132702380Y-119769523D01*
X131654761Y-120007619D02*
X132369047Y-120245714D01*
X132369047Y-119626666D01*
X130267142Y-120706666D02*
X130314761Y-120754285D01*
X130362380Y-120897142D01*
X130362380Y-120992380D01*
X130314761Y-121135238D01*
X130219523Y-121230476D01*
X130124285Y-121278095D01*
X129933809Y-121325714D01*
X129790952Y-121325714D01*
X129600476Y-121278095D01*
X129505238Y-121230476D01*
X129410000Y-121135238D01*
X129362380Y-120992380D01*
X129362380Y-120897142D01*
X129410000Y-120754285D01*
X129457619Y-120706666D01*
X129362380Y-120373333D02*
X129362380Y-119754285D01*
X129743333Y-120087619D01*
X129743333Y-119944761D01*
X129790952Y-119849523D01*
X129838571Y-119801904D01*
X129933809Y-119754285D01*
X130171904Y-119754285D01*
X130267142Y-119801904D01*
X130314761Y-119849523D01*
X130362380Y-119944761D01*
X130362380Y-120230476D01*
X130314761Y-120325714D01*
X130267142Y-120373333D01*
X141188233Y-88539780D02*
X140854900Y-88063590D01*
X140616804Y-88539780D02*
X140616804Y-87539780D01*
X140997757Y-87539780D01*
X141092995Y-87587400D01*
X141140614Y-87635019D01*
X141188233Y-87730257D01*
X141188233Y-87873114D01*
X141140614Y-87968352D01*
X141092995Y-88015971D01*
X140997757Y-88063590D01*
X140616804Y-88063590D01*
X142045376Y-87539780D02*
X141854900Y-87539780D01*
X141759661Y-87587400D01*
X141712042Y-87635019D01*
X141616804Y-87777876D01*
X141569185Y-87968352D01*
X141569185Y-88349304D01*
X141616804Y-88444542D01*
X141664423Y-88492161D01*
X141759661Y-88539780D01*
X141950138Y-88539780D01*
X142045376Y-88492161D01*
X142092995Y-88444542D01*
X142140614Y-88349304D01*
X142140614Y-88111209D01*
X142092995Y-88015971D01*
X142045376Y-87968352D01*
X141950138Y-87920733D01*
X141759661Y-87920733D01*
X141664423Y-87968352D01*
X141616804Y-88015971D01*
X141569185Y-88111209D01*
X141188233Y-94826280D02*
X140854900Y-94350090D01*
X140616804Y-94826280D02*
X140616804Y-93826280D01*
X140997757Y-93826280D01*
X141092995Y-93873900D01*
X141140614Y-93921519D01*
X141188233Y-94016757D01*
X141188233Y-94159614D01*
X141140614Y-94254852D01*
X141092995Y-94302471D01*
X140997757Y-94350090D01*
X140616804Y-94350090D01*
X142140614Y-94826280D02*
X141569185Y-94826280D01*
X141854900Y-94826280D02*
X141854900Y-93826280D01*
X141759661Y-93969138D01*
X141664423Y-94064376D01*
X141569185Y-94111995D01*
X141188233Y-92730780D02*
X140854900Y-92254590D01*
X140616804Y-92730780D02*
X140616804Y-91730780D01*
X140997757Y-91730780D01*
X141092995Y-91778400D01*
X141140614Y-91826019D01*
X141188233Y-91921257D01*
X141188233Y-92064114D01*
X141140614Y-92159352D01*
X141092995Y-92206971D01*
X140997757Y-92254590D01*
X140616804Y-92254590D01*
X141759661Y-92159352D02*
X141664423Y-92111733D01*
X141616804Y-92064114D01*
X141569185Y-91968876D01*
X141569185Y-91921257D01*
X141616804Y-91826019D01*
X141664423Y-91778400D01*
X141759661Y-91730780D01*
X141950138Y-91730780D01*
X142045376Y-91778400D01*
X142092995Y-91826019D01*
X142140614Y-91921257D01*
X142140614Y-91968876D01*
X142092995Y-92064114D01*
X142045376Y-92111733D01*
X141950138Y-92159352D01*
X141759661Y-92159352D01*
X141664423Y-92206971D01*
X141616804Y-92254590D01*
X141569185Y-92349828D01*
X141569185Y-92540304D01*
X141616804Y-92635542D01*
X141664423Y-92683161D01*
X141759661Y-92730780D01*
X141950138Y-92730780D01*
X142045376Y-92683161D01*
X142092995Y-92635542D01*
X142140614Y-92540304D01*
X142140614Y-92349828D01*
X142092995Y-92254590D01*
X142045376Y-92206971D01*
X141950138Y-92159352D01*
X141188233Y-90635280D02*
X140854900Y-90159090D01*
X140616804Y-90635280D02*
X140616804Y-89635280D01*
X140997757Y-89635280D01*
X141092995Y-89682900D01*
X141140614Y-89730519D01*
X141188233Y-89825757D01*
X141188233Y-89968614D01*
X141140614Y-90063852D01*
X141092995Y-90111471D01*
X140997757Y-90159090D01*
X140616804Y-90159090D01*
X141521566Y-89635280D02*
X142188233Y-89635280D01*
X141759661Y-90635280D01*
X141188233Y-86444280D02*
X140854900Y-85968090D01*
X140616804Y-86444280D02*
X140616804Y-85444280D01*
X140997757Y-85444280D01*
X141092995Y-85491900D01*
X141140614Y-85539519D01*
X141188233Y-85634757D01*
X141188233Y-85777614D01*
X141140614Y-85872852D01*
X141092995Y-85920471D01*
X140997757Y-85968090D01*
X140616804Y-85968090D01*
X142092995Y-85444280D02*
X141616804Y-85444280D01*
X141569185Y-85920471D01*
X141616804Y-85872852D01*
X141712042Y-85825233D01*
X141950138Y-85825233D01*
X142045376Y-85872852D01*
X142092995Y-85920471D01*
X142140614Y-86015709D01*
X142140614Y-86253804D01*
X142092995Y-86349042D01*
X142045376Y-86396661D01*
X141950138Y-86444280D01*
X141712042Y-86444280D01*
X141616804Y-86396661D01*
X141569185Y-86349042D01*
X125627142Y-87886666D02*
X125674761Y-87934285D01*
X125722380Y-88077142D01*
X125722380Y-88172380D01*
X125674761Y-88315238D01*
X125579523Y-88410476D01*
X125484285Y-88458095D01*
X125293809Y-88505714D01*
X125150952Y-88505714D01*
X124960476Y-88458095D01*
X124865238Y-88410476D01*
X124770000Y-88315238D01*
X124722380Y-88172380D01*
X124722380Y-88077142D01*
X124770000Y-87934285D01*
X124817619Y-87886666D01*
X124722380Y-87029523D02*
X124722380Y-87220000D01*
X124770000Y-87315238D01*
X124817619Y-87362857D01*
X124960476Y-87458095D01*
X125150952Y-87505714D01*
X125531904Y-87505714D01*
X125627142Y-87458095D01*
X125674761Y-87410476D01*
X125722380Y-87315238D01*
X125722380Y-87124761D01*
X125674761Y-87029523D01*
X125627142Y-86981904D01*
X125531904Y-86934285D01*
X125293809Y-86934285D01*
X125198571Y-86981904D01*
X125150952Y-87029523D01*
X125103333Y-87124761D01*
X125103333Y-87315238D01*
X125150952Y-87410476D01*
X125198571Y-87458095D01*
X125293809Y-87505714D01*
X123547142Y-87926666D02*
X123594761Y-87974285D01*
X123642380Y-88117142D01*
X123642380Y-88212380D01*
X123594761Y-88355238D01*
X123499523Y-88450476D01*
X123404285Y-88498095D01*
X123213809Y-88545714D01*
X123070952Y-88545714D01*
X122880476Y-88498095D01*
X122785238Y-88450476D01*
X122690000Y-88355238D01*
X122642380Y-88212380D01*
X122642380Y-88117142D01*
X122690000Y-87974285D01*
X122737619Y-87926666D01*
X123642380Y-87450476D02*
X123642380Y-87260000D01*
X123594761Y-87164761D01*
X123547142Y-87117142D01*
X123404285Y-87021904D01*
X123213809Y-86974285D01*
X122832857Y-86974285D01*
X122737619Y-87021904D01*
X122690000Y-87069523D01*
X122642380Y-87164761D01*
X122642380Y-87355238D01*
X122690000Y-87450476D01*
X122737619Y-87498095D01*
X122832857Y-87545714D01*
X123070952Y-87545714D01*
X123166190Y-87498095D01*
X123213809Y-87450476D01*
X123261428Y-87355238D01*
X123261428Y-87164761D01*
X123213809Y-87069523D01*
X123166190Y-87021904D01*
X123070952Y-86974285D01*
X128629333Y-84079622D02*
X128581714Y-84127241D01*
X128438857Y-84174860D01*
X128343619Y-84174860D01*
X128200761Y-84127241D01*
X128105523Y-84032003D01*
X128057904Y-83936765D01*
X128010285Y-83746289D01*
X128010285Y-83603432D01*
X128057904Y-83412956D01*
X128105523Y-83317718D01*
X128200761Y-83222480D01*
X128343619Y-83174860D01*
X128438857Y-83174860D01*
X128581714Y-83222480D01*
X128629333Y-83270099D01*
X129010285Y-83270099D02*
X129057904Y-83222480D01*
X129153142Y-83174860D01*
X129391238Y-83174860D01*
X129486476Y-83222480D01*
X129534095Y-83270099D01*
X129581714Y-83365337D01*
X129581714Y-83460575D01*
X129534095Y-83603432D01*
X128962666Y-84174860D01*
X129581714Y-84174860D01*
X138894333Y-83904622D02*
X138846714Y-83952241D01*
X138703857Y-83999860D01*
X138608619Y-83999860D01*
X138465761Y-83952241D01*
X138370523Y-83857003D01*
X138322904Y-83761765D01*
X138275285Y-83571289D01*
X138275285Y-83428432D01*
X138322904Y-83237956D01*
X138370523Y-83142718D01*
X138465761Y-83047480D01*
X138608619Y-82999860D01*
X138703857Y-82999860D01*
X138846714Y-83047480D01*
X138894333Y-83095099D01*
X139846714Y-83999860D02*
X139275285Y-83999860D01*
X139561000Y-83999860D02*
X139561000Y-82999860D01*
X139465761Y-83142718D01*
X139370523Y-83237956D01*
X139275285Y-83285575D01*
X120832380Y-87872857D02*
X120356190Y-88206190D01*
X120832380Y-88444285D02*
X119832380Y-88444285D01*
X119832380Y-88063333D01*
X119880000Y-87968095D01*
X119927619Y-87920476D01*
X120022857Y-87872857D01*
X120165714Y-87872857D01*
X120260952Y-87920476D01*
X120308571Y-87968095D01*
X120356190Y-88063333D01*
X120356190Y-88444285D01*
X120832380Y-86920476D02*
X120832380Y-87491904D01*
X120832380Y-87206190D02*
X119832380Y-87206190D01*
X119975238Y-87301428D01*
X120070476Y-87396666D01*
X120118095Y-87491904D01*
X119832380Y-86015714D02*
X119832380Y-86491904D01*
X120308571Y-86539523D01*
X120260952Y-86491904D01*
X120213333Y-86396666D01*
X120213333Y-86158571D01*
X120260952Y-86063333D01*
X120308571Y-86015714D01*
X120403809Y-85968095D01*
X120641904Y-85968095D01*
X120737142Y-86015714D01*
X120784761Y-86063333D01*
X120832380Y-86158571D01*
X120832380Y-86396666D01*
X120784761Y-86491904D01*
X120737142Y-86539523D01*
X165512380Y-122212857D02*
X165036190Y-122546190D01*
X165512380Y-122784285D02*
X164512380Y-122784285D01*
X164512380Y-122403333D01*
X164560000Y-122308095D01*
X164607619Y-122260476D01*
X164702857Y-122212857D01*
X164845714Y-122212857D01*
X164940952Y-122260476D01*
X164988571Y-122308095D01*
X165036190Y-122403333D01*
X165036190Y-122784285D01*
X165512380Y-121260476D02*
X165512380Y-121831904D01*
X165512380Y-121546190D02*
X164512380Y-121546190D01*
X164655238Y-121641428D01*
X164750476Y-121736666D01*
X164798095Y-121831904D01*
X164512380Y-120403333D02*
X164512380Y-120593809D01*
X164560000Y-120689047D01*
X164607619Y-120736666D01*
X164750476Y-120831904D01*
X164940952Y-120879523D01*
X165321904Y-120879523D01*
X165417142Y-120831904D01*
X165464761Y-120784285D01*
X165512380Y-120689047D01*
X165512380Y-120498571D01*
X165464761Y-120403333D01*
X165417142Y-120355714D01*
X165321904Y-120308095D01*
X165083809Y-120308095D01*
X164988571Y-120355714D01*
X164940952Y-120403333D01*
X164893333Y-120498571D01*
X164893333Y-120689047D01*
X164940952Y-120784285D01*
X164988571Y-120831904D01*
X165083809Y-120879523D01*
M02*
