G04 #@! TF.GenerationSoftware,KiCad,Pcbnew,(5.1.4)-1*
G04 #@! TF.CreationDate,2020-02-04T14:44:49-05:00*
G04 #@! TF.ProjectId,CellMan,43656c6c-4d61-46e2-9e6b-696361645f70,2.0*
G04 #@! TF.SameCoordinates,Original*
G04 #@! TF.FileFunction,Copper,L2,Bot*
G04 #@! TF.FilePolarity,Positive*
%FSLAX46Y46*%
G04 Gerber Fmt 4.6, Leading zero omitted, Abs format (unit mm)*
G04 Created by KiCad (PCBNEW (5.1.4)-1) date 2020-02-04 14:44:49*
%MOMM*%
%LPD*%
G04 APERTURE LIST*
%ADD10C,6.350000*%
%ADD11O,1.727200X1.727200*%
%ADD12R,1.727200X1.727200*%
%ADD13O,1.700000X1.700000*%
%ADD14R,1.700000X1.700000*%
%ADD15C,0.800000*%
%ADD16C,0.250000*%
%ADD17C,0.254000*%
G04 APERTURE END LIST*
D10*
X175717200Y-105003600D03*
X107899200Y-105003600D03*
D11*
X158245000Y-92735000D03*
X155705000Y-92735000D03*
X158245000Y-90195000D03*
X155705000Y-90195000D03*
X158245000Y-87655000D03*
D12*
X155705000Y-87655000D03*
D13*
X113420000Y-84100000D03*
X110880000Y-84100000D03*
X108340000Y-84100000D03*
X105800000Y-84100000D03*
D14*
X103260000Y-84100000D03*
D15*
X122060000Y-104440000D03*
X116110000Y-120500000D03*
X116080000Y-123030000D03*
X166828000Y-125660000D03*
X166828000Y-124671000D03*
X166828000Y-123682000D03*
X163400000Y-124750000D03*
X144440000Y-124210000D03*
X134147977Y-97986934D03*
X154182650Y-122629010D03*
X132450000Y-94130000D03*
X138960000Y-92620000D03*
X133798520Y-87182480D03*
X123090000Y-98540000D03*
X112010000Y-88730000D03*
X118220000Y-93200000D03*
X116520000Y-94919998D03*
X134800000Y-122580000D03*
X147170000Y-85940000D03*
X123140000Y-88370000D03*
X131481465Y-104718012D03*
X180480000Y-90910000D03*
X131395000Y-113075000D03*
X131400000Y-113080000D03*
X121620000Y-87750000D03*
X138080000Y-122580000D03*
X133930000Y-104000000D03*
X132057978Y-98367363D03*
X121627520Y-85522480D03*
X138380000Y-90060000D03*
X140210000Y-90060000D03*
X141290000Y-85340000D03*
X141340000Y-83390000D03*
X133570990Y-102929156D03*
X133570990Y-101060000D03*
X134729678Y-99670322D03*
X136848262Y-121232728D03*
X136260000Y-98390000D03*
X174130000Y-120460000D03*
X132505989Y-101060000D03*
X132489156Y-102929156D03*
X120550000Y-93850000D03*
X120540000Y-84370000D03*
X121350000Y-126030000D03*
X149740000Y-126020000D03*
X180810000Y-99780000D03*
X178460000Y-96130000D03*
X176170000Y-99790000D03*
X176470000Y-96140000D03*
D16*
X135740000Y-99578957D02*
X135740000Y-119022779D01*
X139346231Y-122629010D02*
X153616965Y-122629010D01*
X153616965Y-122629010D02*
X154182650Y-122629010D01*
X135740000Y-119022779D02*
X139346231Y-122629010D01*
X134147977Y-97986934D02*
X135740000Y-99578957D01*
X138394315Y-92620000D02*
X138960000Y-92620000D01*
X136420000Y-92620000D02*
X138394315Y-92620000D01*
X132450000Y-94130000D02*
X134910000Y-94130000D01*
X134910000Y-94130000D02*
X136420000Y-92620000D01*
X118220000Y-93200000D02*
X116520000Y-94900000D01*
X116520000Y-94900000D02*
X116520000Y-94919998D01*
X131400000Y-113080000D02*
X134160000Y-113080000D01*
X132860000Y-106096547D02*
X131481465Y-104718012D01*
X132860000Y-109060000D02*
X132860000Y-106096547D01*
X134160000Y-113080000D02*
X134160000Y-110360000D01*
X134160000Y-110360000D02*
X132860000Y-109060000D01*
X134160000Y-120470000D02*
X134160000Y-113080000D01*
X134800000Y-122580000D02*
X134800000Y-121110000D01*
X134800000Y-121110000D02*
X134160000Y-120470000D01*
X121620000Y-85310002D02*
X121640002Y-85290000D01*
X121620000Y-87750000D02*
X121620000Y-85310002D01*
X133930000Y-104000000D02*
X134670000Y-104000000D01*
X137080000Y-122580000D02*
X134670000Y-120170000D01*
X138080000Y-122580000D02*
X137080000Y-122580000D01*
X134670000Y-100979385D02*
X132457977Y-98767362D01*
X132457977Y-98767362D02*
X132057978Y-98367363D01*
X134670000Y-120170000D02*
X134670000Y-100979385D01*
X103260000Y-82710000D02*
X103260000Y-84100000D01*
X103890000Y-82080000D02*
X103260000Y-82710000D01*
X155540000Y-82080000D02*
X103890000Y-82080000D01*
X160360000Y-86900000D02*
X155540000Y-82080000D01*
X158245000Y-92735000D02*
X160360000Y-90620000D01*
X160360000Y-90620000D02*
X160360000Y-86900000D01*
X138380000Y-90110000D02*
X139836752Y-90110000D01*
X141290000Y-85340000D02*
X141290000Y-83440000D01*
X141290000Y-83440000D02*
X141340000Y-83390000D01*
X133570990Y-102960000D02*
X133570990Y-101060000D01*
X134729678Y-99670322D02*
X135216988Y-100157632D01*
X135216988Y-100157632D02*
X135216988Y-119601454D01*
X135216988Y-119601454D02*
X136448263Y-120832729D01*
X136448263Y-120832729D02*
X136848262Y-121232728D01*
X139390000Y-121850000D02*
X172740000Y-121850000D01*
X136260000Y-118720000D02*
X139390000Y-121850000D01*
X136260000Y-98390000D02*
X136260000Y-118720000D01*
X172740000Y-121850000D02*
X174130000Y-120460000D01*
X132520000Y-102970000D02*
X132520000Y-101093879D01*
X120550000Y-84380000D02*
X120540000Y-84370000D01*
X120550000Y-93850000D02*
X120550000Y-84380000D01*
X149730000Y-126030000D02*
X149740000Y-126020000D01*
X121350000Y-126030000D02*
X149730000Y-126030000D01*
X179360000Y-99780000D02*
X180810000Y-99780000D01*
X178450000Y-98870000D02*
X179360000Y-99780000D01*
X178460000Y-96130000D02*
X178450000Y-96140000D01*
X178450000Y-96140000D02*
X178450000Y-98870000D01*
X176470000Y-98040000D02*
X176470000Y-96140000D01*
X176170000Y-99790000D02*
X176470000Y-99490000D01*
X176470000Y-99490000D02*
X176470000Y-98040000D01*
D17*
G36*
X127873000Y-111006841D02*
G01*
X127873000Y-123220000D01*
X127875440Y-123244776D01*
X127882667Y-123268601D01*
X127894403Y-123290557D01*
X127910197Y-123309803D01*
X127929443Y-123325597D01*
X127951399Y-123337333D01*
X127975224Y-123344560D01*
X128000337Y-123347000D01*
X134087140Y-123330851D01*
X134140226Y-123383937D01*
X134309744Y-123497205D01*
X134498102Y-123575226D01*
X134698061Y-123615000D01*
X134901939Y-123615000D01*
X135101898Y-123575226D01*
X135290256Y-123497205D01*
X135459774Y-123383937D01*
X135516653Y-123327058D01*
X136912396Y-123323355D01*
X136931014Y-123329003D01*
X137042667Y-123340000D01*
X137042675Y-123340000D01*
X137080000Y-123343676D01*
X137117325Y-123340000D01*
X137376289Y-123340000D01*
X137420226Y-123383937D01*
X137589744Y-123497205D01*
X137778102Y-123575226D01*
X137978061Y-123615000D01*
X138181939Y-123615000D01*
X138381898Y-123575226D01*
X138570256Y-123497205D01*
X138739774Y-123383937D01*
X138805378Y-123318333D01*
X139022556Y-123317757D01*
X139053984Y-123334556D01*
X139197245Y-123378013D01*
X139308898Y-123389010D01*
X139308906Y-123389010D01*
X139346231Y-123392686D01*
X139383556Y-123389010D01*
X153478939Y-123389010D01*
X153522876Y-123432947D01*
X153692394Y-123546215D01*
X153880752Y-123624236D01*
X154080711Y-123664010D01*
X154284589Y-123664010D01*
X154484548Y-123624236D01*
X154672906Y-123546215D01*
X154842424Y-123432947D01*
X154986587Y-123288784D01*
X154995544Y-123275379D01*
X173103000Y-123227338D01*
X173103000Y-126193207D01*
X150753564Y-126229708D01*
X150775000Y-126121939D01*
X150775000Y-125918061D01*
X150735226Y-125718102D01*
X150657205Y-125529744D01*
X150543937Y-125360226D01*
X150399774Y-125216063D01*
X150230256Y-125102795D01*
X150041898Y-125024774D01*
X149841939Y-124985000D01*
X149638061Y-124985000D01*
X149438102Y-125024774D01*
X149249744Y-125102795D01*
X149080226Y-125216063D01*
X149026289Y-125270000D01*
X122053711Y-125270000D01*
X122009774Y-125226063D01*
X121840256Y-125112795D01*
X121651898Y-125034774D01*
X121451939Y-124995000D01*
X121248061Y-124995000D01*
X121048102Y-125034774D01*
X120859744Y-125112795D01*
X120690226Y-125226063D01*
X120546063Y-125370226D01*
X120432795Y-125539744D01*
X120354774Y-125728102D01*
X120315000Y-125928061D01*
X120315000Y-126131939D01*
X120344326Y-126279372D01*
X112127082Y-126292792D01*
X112136918Y-110987159D01*
X127873000Y-111006841D01*
X127873000Y-111006841D01*
G37*
X127873000Y-111006841D02*
X127873000Y-123220000D01*
X127875440Y-123244776D01*
X127882667Y-123268601D01*
X127894403Y-123290557D01*
X127910197Y-123309803D01*
X127929443Y-123325597D01*
X127951399Y-123337333D01*
X127975224Y-123344560D01*
X128000337Y-123347000D01*
X134087140Y-123330851D01*
X134140226Y-123383937D01*
X134309744Y-123497205D01*
X134498102Y-123575226D01*
X134698061Y-123615000D01*
X134901939Y-123615000D01*
X135101898Y-123575226D01*
X135290256Y-123497205D01*
X135459774Y-123383937D01*
X135516653Y-123327058D01*
X136912396Y-123323355D01*
X136931014Y-123329003D01*
X137042667Y-123340000D01*
X137042675Y-123340000D01*
X137080000Y-123343676D01*
X137117325Y-123340000D01*
X137376289Y-123340000D01*
X137420226Y-123383937D01*
X137589744Y-123497205D01*
X137778102Y-123575226D01*
X137978061Y-123615000D01*
X138181939Y-123615000D01*
X138381898Y-123575226D01*
X138570256Y-123497205D01*
X138739774Y-123383937D01*
X138805378Y-123318333D01*
X139022556Y-123317757D01*
X139053984Y-123334556D01*
X139197245Y-123378013D01*
X139308898Y-123389010D01*
X139308906Y-123389010D01*
X139346231Y-123392686D01*
X139383556Y-123389010D01*
X153478939Y-123389010D01*
X153522876Y-123432947D01*
X153692394Y-123546215D01*
X153880752Y-123624236D01*
X154080711Y-123664010D01*
X154284589Y-123664010D01*
X154484548Y-123624236D01*
X154672906Y-123546215D01*
X154842424Y-123432947D01*
X154986587Y-123288784D01*
X154995544Y-123275379D01*
X173103000Y-123227338D01*
X173103000Y-126193207D01*
X150753564Y-126229708D01*
X150775000Y-126121939D01*
X150775000Y-125918061D01*
X150735226Y-125718102D01*
X150657205Y-125529744D01*
X150543937Y-125360226D01*
X150399774Y-125216063D01*
X150230256Y-125102795D01*
X150041898Y-125024774D01*
X149841939Y-124985000D01*
X149638061Y-124985000D01*
X149438102Y-125024774D01*
X149249744Y-125102795D01*
X149080226Y-125216063D01*
X149026289Y-125270000D01*
X122053711Y-125270000D01*
X122009774Y-125226063D01*
X121840256Y-125112795D01*
X121651898Y-125034774D01*
X121451939Y-124995000D01*
X121248061Y-124995000D01*
X121048102Y-125034774D01*
X120859744Y-125112795D01*
X120690226Y-125226063D01*
X120546063Y-125370226D01*
X120432795Y-125539744D01*
X120354774Y-125728102D01*
X120315000Y-125928061D01*
X120315000Y-126131939D01*
X120344326Y-126279372D01*
X112127082Y-126292792D01*
X112136918Y-110987159D01*
X127873000Y-111006841D01*
G36*
X190152748Y-82131281D02*
G01*
X190133253Y-91930147D01*
X162330352Y-91853000D01*
X162305569Y-91855372D01*
X162281725Y-91862533D01*
X162259736Y-91874208D01*
X162240447Y-91889949D01*
X162224600Y-91909150D01*
X162212803Y-91931074D01*
X162205509Y-91954878D01*
X162203000Y-91980239D01*
X162232761Y-107813000D01*
X137020000Y-107813000D01*
X137020000Y-99093711D01*
X137063937Y-99049774D01*
X137177205Y-98880256D01*
X137255226Y-98691898D01*
X137295000Y-98491939D01*
X137295000Y-98288061D01*
X137255226Y-98088102D01*
X137177205Y-97899744D01*
X137063937Y-97730226D01*
X136919774Y-97586063D01*
X136750256Y-97472795D01*
X136561898Y-97394774D01*
X136361939Y-97355000D01*
X136158061Y-97355000D01*
X135958102Y-97394774D01*
X135769744Y-97472795D01*
X135600226Y-97586063D01*
X135456063Y-97730226D01*
X135342795Y-97899744D01*
X135282105Y-98046261D01*
X135182977Y-97947133D01*
X135182977Y-97884995D01*
X135143203Y-97685036D01*
X135065182Y-97496678D01*
X134951914Y-97327160D01*
X134807751Y-97182997D01*
X134638233Y-97069729D01*
X134449875Y-96991708D01*
X134249916Y-96951934D01*
X134046038Y-96951934D01*
X133846079Y-96991708D01*
X133657721Y-97069729D01*
X133488203Y-97182997D01*
X133344040Y-97327160D01*
X133230772Y-97496678D01*
X133152751Y-97685036D01*
X133112977Y-97884995D01*
X133112977Y-98088873D01*
X133152751Y-98288832D01*
X133222404Y-98456988D01*
X133092978Y-98327562D01*
X133092978Y-98265424D01*
X133053204Y-98065465D01*
X132975183Y-97877107D01*
X132861915Y-97707589D01*
X132717752Y-97563426D01*
X132548234Y-97450158D01*
X132359876Y-97372137D01*
X132159917Y-97332363D01*
X131956039Y-97332363D01*
X131756080Y-97372137D01*
X131567722Y-97450158D01*
X131398204Y-97563426D01*
X131254041Y-97707589D01*
X131140773Y-97877107D01*
X131062752Y-98065465D01*
X131022978Y-98265424D01*
X131022978Y-98469302D01*
X131062752Y-98669261D01*
X131140773Y-98857619D01*
X131254041Y-99027137D01*
X131398204Y-99171300D01*
X131567722Y-99284568D01*
X131756080Y-99362589D01*
X131956039Y-99402363D01*
X132018177Y-99402363D01*
X132648979Y-100033166D01*
X132607928Y-100025000D01*
X132404050Y-100025000D01*
X132204091Y-100064774D01*
X132015733Y-100142795D01*
X131846215Y-100256063D01*
X131702052Y-100400226D01*
X131588784Y-100569744D01*
X131510763Y-100758102D01*
X131470989Y-100958061D01*
X131470989Y-101161939D01*
X131510763Y-101361898D01*
X131588784Y-101550256D01*
X131702052Y-101719774D01*
X131760001Y-101777723D01*
X131760000Y-102194601D01*
X131685219Y-102269382D01*
X131571951Y-102438900D01*
X131493930Y-102627258D01*
X131454156Y-102827217D01*
X131454156Y-103031095D01*
X131493930Y-103231054D01*
X131571951Y-103419412D01*
X131685219Y-103588930D01*
X131829382Y-103733093D01*
X131998900Y-103846361D01*
X132187258Y-103924382D01*
X132387217Y-103964156D01*
X132591095Y-103964156D01*
X132791054Y-103924382D01*
X132898628Y-103879823D01*
X132895000Y-103898061D01*
X132895000Y-104101939D01*
X132934774Y-104301898D01*
X133012795Y-104490256D01*
X133126063Y-104659774D01*
X133270226Y-104803937D01*
X133439744Y-104917205D01*
X133628102Y-104995226D01*
X133828061Y-105035000D01*
X133910001Y-105035000D01*
X133910001Y-107813000D01*
X120937000Y-107813000D01*
X120937000Y-104338061D01*
X121025000Y-104338061D01*
X121025000Y-104541939D01*
X121064774Y-104741898D01*
X121142795Y-104930256D01*
X121256063Y-105099774D01*
X121400226Y-105243937D01*
X121569744Y-105357205D01*
X121758102Y-105435226D01*
X121958061Y-105475000D01*
X122161939Y-105475000D01*
X122361898Y-105435226D01*
X122550256Y-105357205D01*
X122719774Y-105243937D01*
X122863937Y-105099774D01*
X122977205Y-104930256D01*
X123055226Y-104741898D01*
X123095000Y-104541939D01*
X123095000Y-104338061D01*
X123055226Y-104138102D01*
X122977205Y-103949744D01*
X122863937Y-103780226D01*
X122719774Y-103636063D01*
X122550256Y-103522795D01*
X122361898Y-103444774D01*
X122161939Y-103405000D01*
X121958061Y-103405000D01*
X121758102Y-103444774D01*
X121569744Y-103522795D01*
X121400226Y-103636063D01*
X121256063Y-103780226D01*
X121142795Y-103949744D01*
X121064774Y-104138102D01*
X121025000Y-104338061D01*
X120937000Y-104338061D01*
X120937000Y-94809975D01*
X121040256Y-94767205D01*
X121209774Y-94653937D01*
X121353937Y-94509774D01*
X121467205Y-94340256D01*
X121545226Y-94151898D01*
X121569858Y-94028061D01*
X131415000Y-94028061D01*
X131415000Y-94231939D01*
X131454774Y-94431898D01*
X131532795Y-94620256D01*
X131646063Y-94789774D01*
X131790226Y-94933937D01*
X131959744Y-95047205D01*
X132148102Y-95125226D01*
X132348061Y-95165000D01*
X132551939Y-95165000D01*
X132751898Y-95125226D01*
X132940256Y-95047205D01*
X133109774Y-94933937D01*
X133153711Y-94890000D01*
X134872678Y-94890000D01*
X134910000Y-94893676D01*
X134947322Y-94890000D01*
X134947333Y-94890000D01*
X135058986Y-94879003D01*
X135202247Y-94835546D01*
X135334276Y-94764974D01*
X135450001Y-94670001D01*
X135473803Y-94640998D01*
X136734803Y-93380000D01*
X138256289Y-93380000D01*
X138300226Y-93423937D01*
X138469744Y-93537205D01*
X138658102Y-93615226D01*
X138858061Y-93655000D01*
X139061939Y-93655000D01*
X139261898Y-93615226D01*
X139450256Y-93537205D01*
X139619774Y-93423937D01*
X139763937Y-93279774D01*
X139877205Y-93110256D01*
X139955226Y-92921898D01*
X139995000Y-92721939D01*
X139995000Y-92518061D01*
X139955226Y-92318102D01*
X139877205Y-92129744D01*
X139763937Y-91960226D01*
X139619774Y-91816063D01*
X139450256Y-91702795D01*
X139261898Y-91624774D01*
X139061939Y-91585000D01*
X138858061Y-91585000D01*
X138658102Y-91624774D01*
X138469744Y-91702795D01*
X138300226Y-91816063D01*
X138256289Y-91860000D01*
X136457322Y-91860000D01*
X136419999Y-91856324D01*
X136382676Y-91860000D01*
X136382667Y-91860000D01*
X136271014Y-91870997D01*
X136127753Y-91914454D01*
X135995724Y-91985026D01*
X135995722Y-91985027D01*
X135995723Y-91985027D01*
X135908996Y-92056201D01*
X135908992Y-92056205D01*
X135879999Y-92079999D01*
X135856205Y-92108992D01*
X134595199Y-93370000D01*
X133153711Y-93370000D01*
X133109774Y-93326063D01*
X132940256Y-93212795D01*
X132751898Y-93134774D01*
X132551939Y-93095000D01*
X132348061Y-93095000D01*
X132148102Y-93134774D01*
X131959744Y-93212795D01*
X131790226Y-93326063D01*
X131646063Y-93470226D01*
X131532795Y-93639744D01*
X131454774Y-93828102D01*
X131415000Y-94028061D01*
X121569858Y-94028061D01*
X121585000Y-93951939D01*
X121585000Y-93748061D01*
X121545226Y-93548102D01*
X121467205Y-93359744D01*
X121353937Y-93190226D01*
X121310000Y-93146289D01*
X121310000Y-89958061D01*
X137345000Y-89958061D01*
X137345000Y-90161939D01*
X137384774Y-90361898D01*
X137462795Y-90550256D01*
X137576063Y-90719774D01*
X137720226Y-90863937D01*
X137889744Y-90977205D01*
X138078102Y-91055226D01*
X138278061Y-91095000D01*
X138481939Y-91095000D01*
X138681898Y-91055226D01*
X138870256Y-90977205D01*
X139030700Y-90870000D01*
X139559300Y-90870000D01*
X139719744Y-90977205D01*
X139908102Y-91055226D01*
X140108061Y-91095000D01*
X140311939Y-91095000D01*
X140511898Y-91055226D01*
X140700256Y-90977205D01*
X140869774Y-90863937D01*
X141013937Y-90719774D01*
X141127205Y-90550256D01*
X141205226Y-90361898D01*
X141245000Y-90161939D01*
X141245000Y-89958061D01*
X141205226Y-89758102D01*
X141127205Y-89569744D01*
X141013937Y-89400226D01*
X140869774Y-89256063D01*
X140700256Y-89142795D01*
X140511898Y-89064774D01*
X140311939Y-89025000D01*
X140108061Y-89025000D01*
X139908102Y-89064774D01*
X139719744Y-89142795D01*
X139550226Y-89256063D01*
X139456289Y-89350000D01*
X139133711Y-89350000D01*
X139039774Y-89256063D01*
X138870256Y-89142795D01*
X138681898Y-89064774D01*
X138481939Y-89025000D01*
X138278061Y-89025000D01*
X138078102Y-89064774D01*
X137889744Y-89142795D01*
X137720226Y-89256063D01*
X137576063Y-89400226D01*
X137462795Y-89569744D01*
X137384774Y-89758102D01*
X137345000Y-89958061D01*
X121310000Y-89958061D01*
X121310000Y-88741870D01*
X121318102Y-88745226D01*
X121518061Y-88785000D01*
X121721939Y-88785000D01*
X121921898Y-88745226D01*
X122110256Y-88667205D01*
X122279774Y-88553937D01*
X122423937Y-88409774D01*
X122537205Y-88240256D01*
X122615226Y-88051898D01*
X122655000Y-87851939D01*
X122655000Y-87648061D01*
X122615226Y-87448102D01*
X122537205Y-87259744D01*
X122423937Y-87090226D01*
X122380000Y-87046289D01*
X122380000Y-86233711D01*
X122431457Y-86182254D01*
X122544725Y-86012736D01*
X122622746Y-85824378D01*
X122662520Y-85624419D01*
X122662520Y-85420541D01*
X122622746Y-85220582D01*
X122544725Y-85032224D01*
X122431457Y-84862706D01*
X122287294Y-84718543D01*
X122117776Y-84605275D01*
X121929418Y-84527254D01*
X121729459Y-84487480D01*
X121571909Y-84487480D01*
X121575000Y-84471939D01*
X121575000Y-84268061D01*
X121535226Y-84068102D01*
X121457205Y-83879744D01*
X121343937Y-83710226D01*
X121199774Y-83566063D01*
X121030256Y-83452795D01*
X120841898Y-83374774D01*
X120641939Y-83335000D01*
X120438061Y-83335000D01*
X120238102Y-83374774D01*
X120049744Y-83452795D01*
X119880226Y-83566063D01*
X119736063Y-83710226D01*
X119622795Y-83879744D01*
X119544774Y-84068102D01*
X119505000Y-84268061D01*
X119505000Y-84471939D01*
X119544774Y-84671898D01*
X119622795Y-84860256D01*
X119736063Y-85029774D01*
X119790001Y-85083712D01*
X119790000Y-93146289D01*
X119746063Y-93190226D01*
X119632795Y-93359744D01*
X119577598Y-93493000D01*
X106607210Y-93493000D01*
X106620689Y-85345156D01*
X106629014Y-85340706D01*
X106855134Y-85155134D01*
X107040706Y-84929014D01*
X107178599Y-84671034D01*
X107263513Y-84391111D01*
X107292185Y-84100000D01*
X107263513Y-83808889D01*
X107178599Y-83528966D01*
X107040706Y-83270986D01*
X106855134Y-83044866D01*
X106629014Y-82859294D01*
X106624805Y-82857044D01*
X106624833Y-82840000D01*
X110087083Y-82840000D01*
X110050986Y-82859294D01*
X109824866Y-83044866D01*
X109639294Y-83270986D01*
X109501401Y-83528966D01*
X109416487Y-83808889D01*
X109387815Y-84100000D01*
X109416487Y-84391111D01*
X109501401Y-84671034D01*
X109639294Y-84929014D01*
X109824866Y-85155134D01*
X110050986Y-85340706D01*
X110308966Y-85478599D01*
X110588889Y-85563513D01*
X110807050Y-85585000D01*
X110952950Y-85585000D01*
X111171111Y-85563513D01*
X111451034Y-85478599D01*
X111709014Y-85340706D01*
X111935134Y-85155134D01*
X112120706Y-84929014D01*
X112150000Y-84874209D01*
X112179294Y-84929014D01*
X112364866Y-85155134D01*
X112590986Y-85340706D01*
X112848966Y-85478599D01*
X113128889Y-85563513D01*
X113347050Y-85585000D01*
X113492950Y-85585000D01*
X113711111Y-85563513D01*
X113991034Y-85478599D01*
X114249014Y-85340706D01*
X114475134Y-85155134D01*
X114660706Y-84929014D01*
X114798599Y-84671034D01*
X114883513Y-84391111D01*
X114912185Y-84100000D01*
X114883513Y-83808889D01*
X114798599Y-83528966D01*
X114660706Y-83270986D01*
X114475134Y-83044866D01*
X114249014Y-82859294D01*
X114212917Y-82840000D01*
X140462715Y-82840000D01*
X140422795Y-82899744D01*
X140344774Y-83088102D01*
X140305000Y-83288061D01*
X140305000Y-83491939D01*
X140344774Y-83691898D01*
X140422795Y-83880256D01*
X140530001Y-84040701D01*
X140530000Y-84636289D01*
X140486063Y-84680226D01*
X140372795Y-84849744D01*
X140294774Y-85038102D01*
X140255000Y-85238061D01*
X140255000Y-85441939D01*
X140294774Y-85641898D01*
X140372795Y-85830256D01*
X140486063Y-85999774D01*
X140630226Y-86143937D01*
X140799744Y-86257205D01*
X140988102Y-86335226D01*
X141188061Y-86375000D01*
X141391939Y-86375000D01*
X141591898Y-86335226D01*
X141780256Y-86257205D01*
X141949774Y-86143937D01*
X142093937Y-85999774D01*
X142207205Y-85830256D01*
X142285226Y-85641898D01*
X142325000Y-85441939D01*
X142325000Y-85238061D01*
X142285226Y-85038102D01*
X142207205Y-84849744D01*
X142093937Y-84680226D01*
X142050000Y-84636289D01*
X142050000Y-84143711D01*
X142143937Y-84049774D01*
X142257205Y-83880256D01*
X142335226Y-83691898D01*
X142375000Y-83491939D01*
X142375000Y-83288061D01*
X142335226Y-83088102D01*
X142257205Y-82899744D01*
X142217285Y-82840000D01*
X155225199Y-82840000D01*
X159600001Y-87214803D01*
X159600000Y-89550964D01*
X159497069Y-89358394D01*
X159309797Y-89130203D01*
X159081606Y-88942931D01*
X158821264Y-88803775D01*
X158538777Y-88718084D01*
X158318619Y-88696400D01*
X158171381Y-88696400D01*
X157951223Y-88718084D01*
X157668736Y-88803775D01*
X157408394Y-88942931D01*
X157180203Y-89130203D01*
X156992931Y-89358394D01*
X156975000Y-89391940D01*
X156957069Y-89358394D01*
X156769797Y-89130203D01*
X156761735Y-89123586D01*
X156812780Y-89108102D01*
X156923094Y-89049137D01*
X157019785Y-88969785D01*
X157099137Y-88873094D01*
X157158102Y-88762780D01*
X157194412Y-88643082D01*
X157206672Y-88518600D01*
X157206672Y-86791400D01*
X157194412Y-86666918D01*
X157158102Y-86547220D01*
X157099137Y-86436906D01*
X157019785Y-86340215D01*
X156923094Y-86260863D01*
X156812780Y-86201898D01*
X156693082Y-86165588D01*
X156568600Y-86153328D01*
X154841400Y-86153328D01*
X154716918Y-86165588D01*
X154597220Y-86201898D01*
X154486906Y-86260863D01*
X154390215Y-86340215D01*
X154310863Y-86436906D01*
X154251898Y-86547220D01*
X154215588Y-86666918D01*
X154203328Y-86791400D01*
X154203328Y-88518600D01*
X154215588Y-88643082D01*
X154251898Y-88762780D01*
X154310863Y-88873094D01*
X154390215Y-88969785D01*
X154486906Y-89049137D01*
X154597220Y-89108102D01*
X154648265Y-89123586D01*
X154640203Y-89130203D01*
X154452931Y-89358394D01*
X154313775Y-89618736D01*
X154228084Y-89901223D01*
X154199149Y-90195000D01*
X154228084Y-90488777D01*
X154313775Y-90771264D01*
X154452931Y-91031606D01*
X154640203Y-91259797D01*
X154868394Y-91447069D01*
X155128736Y-91586225D01*
X155411223Y-91671916D01*
X155631381Y-91693600D01*
X155778619Y-91693600D01*
X155998777Y-91671916D01*
X156281264Y-91586225D01*
X156541606Y-91447069D01*
X156769797Y-91259797D01*
X156957069Y-91031606D01*
X156975000Y-90998060D01*
X156992931Y-91031606D01*
X157180203Y-91259797D01*
X157408394Y-91447069D01*
X157441940Y-91465000D01*
X157408394Y-91482931D01*
X157180203Y-91670203D01*
X156992931Y-91898394D01*
X156853775Y-92158736D01*
X156768084Y-92441223D01*
X156739149Y-92735000D01*
X156768084Y-93028777D01*
X156853775Y-93311264D01*
X156992931Y-93571606D01*
X157180203Y-93799797D01*
X157408394Y-93987069D01*
X157668736Y-94126225D01*
X157951223Y-94211916D01*
X158171381Y-94233600D01*
X158318619Y-94233600D01*
X158538777Y-94211916D01*
X158821264Y-94126225D01*
X159081606Y-93987069D01*
X159309797Y-93799797D01*
X159497069Y-93571606D01*
X159636225Y-93311264D01*
X159721916Y-93028777D01*
X159750851Y-92735000D01*
X159721916Y-92441223D01*
X159696701Y-92358100D01*
X160871004Y-91183798D01*
X160900001Y-91160001D01*
X160994974Y-91044276D01*
X161065546Y-90912247D01*
X161109003Y-90768986D01*
X161120000Y-90657333D01*
X161120000Y-90657325D01*
X161123676Y-90620000D01*
X161120000Y-90582675D01*
X161120000Y-86937322D01*
X161123676Y-86899999D01*
X161120000Y-86862676D01*
X161120000Y-86862667D01*
X161109003Y-86751014D01*
X161065546Y-86607753D01*
X160994974Y-86475724D01*
X160900001Y-86359999D01*
X160871003Y-86336201D01*
X156475143Y-81940342D01*
X190152748Y-82131281D01*
X190152748Y-82131281D01*
G37*
X190152748Y-82131281D02*
X190133253Y-91930147D01*
X162330352Y-91853000D01*
X162305569Y-91855372D01*
X162281725Y-91862533D01*
X162259736Y-91874208D01*
X162240447Y-91889949D01*
X162224600Y-91909150D01*
X162212803Y-91931074D01*
X162205509Y-91954878D01*
X162203000Y-91980239D01*
X162232761Y-107813000D01*
X137020000Y-107813000D01*
X137020000Y-99093711D01*
X137063937Y-99049774D01*
X137177205Y-98880256D01*
X137255226Y-98691898D01*
X137295000Y-98491939D01*
X137295000Y-98288061D01*
X137255226Y-98088102D01*
X137177205Y-97899744D01*
X137063937Y-97730226D01*
X136919774Y-97586063D01*
X136750256Y-97472795D01*
X136561898Y-97394774D01*
X136361939Y-97355000D01*
X136158061Y-97355000D01*
X135958102Y-97394774D01*
X135769744Y-97472795D01*
X135600226Y-97586063D01*
X135456063Y-97730226D01*
X135342795Y-97899744D01*
X135282105Y-98046261D01*
X135182977Y-97947133D01*
X135182977Y-97884995D01*
X135143203Y-97685036D01*
X135065182Y-97496678D01*
X134951914Y-97327160D01*
X134807751Y-97182997D01*
X134638233Y-97069729D01*
X134449875Y-96991708D01*
X134249916Y-96951934D01*
X134046038Y-96951934D01*
X133846079Y-96991708D01*
X133657721Y-97069729D01*
X133488203Y-97182997D01*
X133344040Y-97327160D01*
X133230772Y-97496678D01*
X133152751Y-97685036D01*
X133112977Y-97884995D01*
X133112977Y-98088873D01*
X133152751Y-98288832D01*
X133222404Y-98456988D01*
X133092978Y-98327562D01*
X133092978Y-98265424D01*
X133053204Y-98065465D01*
X132975183Y-97877107D01*
X132861915Y-97707589D01*
X132717752Y-97563426D01*
X132548234Y-97450158D01*
X132359876Y-97372137D01*
X132159917Y-97332363D01*
X131956039Y-97332363D01*
X131756080Y-97372137D01*
X131567722Y-97450158D01*
X131398204Y-97563426D01*
X131254041Y-97707589D01*
X131140773Y-97877107D01*
X131062752Y-98065465D01*
X131022978Y-98265424D01*
X131022978Y-98469302D01*
X131062752Y-98669261D01*
X131140773Y-98857619D01*
X131254041Y-99027137D01*
X131398204Y-99171300D01*
X131567722Y-99284568D01*
X131756080Y-99362589D01*
X131956039Y-99402363D01*
X132018177Y-99402363D01*
X132648979Y-100033166D01*
X132607928Y-100025000D01*
X132404050Y-100025000D01*
X132204091Y-100064774D01*
X132015733Y-100142795D01*
X131846215Y-100256063D01*
X131702052Y-100400226D01*
X131588784Y-100569744D01*
X131510763Y-100758102D01*
X131470989Y-100958061D01*
X131470989Y-101161939D01*
X131510763Y-101361898D01*
X131588784Y-101550256D01*
X131702052Y-101719774D01*
X131760001Y-101777723D01*
X131760000Y-102194601D01*
X131685219Y-102269382D01*
X131571951Y-102438900D01*
X131493930Y-102627258D01*
X131454156Y-102827217D01*
X131454156Y-103031095D01*
X131493930Y-103231054D01*
X131571951Y-103419412D01*
X131685219Y-103588930D01*
X131829382Y-103733093D01*
X131998900Y-103846361D01*
X132187258Y-103924382D01*
X132387217Y-103964156D01*
X132591095Y-103964156D01*
X132791054Y-103924382D01*
X132898628Y-103879823D01*
X132895000Y-103898061D01*
X132895000Y-104101939D01*
X132934774Y-104301898D01*
X133012795Y-104490256D01*
X133126063Y-104659774D01*
X133270226Y-104803937D01*
X133439744Y-104917205D01*
X133628102Y-104995226D01*
X133828061Y-105035000D01*
X133910001Y-105035000D01*
X133910001Y-107813000D01*
X120937000Y-107813000D01*
X120937000Y-104338061D01*
X121025000Y-104338061D01*
X121025000Y-104541939D01*
X121064774Y-104741898D01*
X121142795Y-104930256D01*
X121256063Y-105099774D01*
X121400226Y-105243937D01*
X121569744Y-105357205D01*
X121758102Y-105435226D01*
X121958061Y-105475000D01*
X122161939Y-105475000D01*
X122361898Y-105435226D01*
X122550256Y-105357205D01*
X122719774Y-105243937D01*
X122863937Y-105099774D01*
X122977205Y-104930256D01*
X123055226Y-104741898D01*
X123095000Y-104541939D01*
X123095000Y-104338061D01*
X123055226Y-104138102D01*
X122977205Y-103949744D01*
X122863937Y-103780226D01*
X122719774Y-103636063D01*
X122550256Y-103522795D01*
X122361898Y-103444774D01*
X122161939Y-103405000D01*
X121958061Y-103405000D01*
X121758102Y-103444774D01*
X121569744Y-103522795D01*
X121400226Y-103636063D01*
X121256063Y-103780226D01*
X121142795Y-103949744D01*
X121064774Y-104138102D01*
X121025000Y-104338061D01*
X120937000Y-104338061D01*
X120937000Y-94809975D01*
X121040256Y-94767205D01*
X121209774Y-94653937D01*
X121353937Y-94509774D01*
X121467205Y-94340256D01*
X121545226Y-94151898D01*
X121569858Y-94028061D01*
X131415000Y-94028061D01*
X131415000Y-94231939D01*
X131454774Y-94431898D01*
X131532795Y-94620256D01*
X131646063Y-94789774D01*
X131790226Y-94933937D01*
X131959744Y-95047205D01*
X132148102Y-95125226D01*
X132348061Y-95165000D01*
X132551939Y-95165000D01*
X132751898Y-95125226D01*
X132940256Y-95047205D01*
X133109774Y-94933937D01*
X133153711Y-94890000D01*
X134872678Y-94890000D01*
X134910000Y-94893676D01*
X134947322Y-94890000D01*
X134947333Y-94890000D01*
X135058986Y-94879003D01*
X135202247Y-94835546D01*
X135334276Y-94764974D01*
X135450001Y-94670001D01*
X135473803Y-94640998D01*
X136734803Y-93380000D01*
X138256289Y-93380000D01*
X138300226Y-93423937D01*
X138469744Y-93537205D01*
X138658102Y-93615226D01*
X138858061Y-93655000D01*
X139061939Y-93655000D01*
X139261898Y-93615226D01*
X139450256Y-93537205D01*
X139619774Y-93423937D01*
X139763937Y-93279774D01*
X139877205Y-93110256D01*
X139955226Y-92921898D01*
X139995000Y-92721939D01*
X139995000Y-92518061D01*
X139955226Y-92318102D01*
X139877205Y-92129744D01*
X139763937Y-91960226D01*
X139619774Y-91816063D01*
X139450256Y-91702795D01*
X139261898Y-91624774D01*
X139061939Y-91585000D01*
X138858061Y-91585000D01*
X138658102Y-91624774D01*
X138469744Y-91702795D01*
X138300226Y-91816063D01*
X138256289Y-91860000D01*
X136457322Y-91860000D01*
X136419999Y-91856324D01*
X136382676Y-91860000D01*
X136382667Y-91860000D01*
X136271014Y-91870997D01*
X136127753Y-91914454D01*
X135995724Y-91985026D01*
X135995722Y-91985027D01*
X135995723Y-91985027D01*
X135908996Y-92056201D01*
X135908992Y-92056205D01*
X135879999Y-92079999D01*
X135856205Y-92108992D01*
X134595199Y-93370000D01*
X133153711Y-93370000D01*
X133109774Y-93326063D01*
X132940256Y-93212795D01*
X132751898Y-93134774D01*
X132551939Y-93095000D01*
X132348061Y-93095000D01*
X132148102Y-93134774D01*
X131959744Y-93212795D01*
X131790226Y-93326063D01*
X131646063Y-93470226D01*
X131532795Y-93639744D01*
X131454774Y-93828102D01*
X131415000Y-94028061D01*
X121569858Y-94028061D01*
X121585000Y-93951939D01*
X121585000Y-93748061D01*
X121545226Y-93548102D01*
X121467205Y-93359744D01*
X121353937Y-93190226D01*
X121310000Y-93146289D01*
X121310000Y-89958061D01*
X137345000Y-89958061D01*
X137345000Y-90161939D01*
X137384774Y-90361898D01*
X137462795Y-90550256D01*
X137576063Y-90719774D01*
X137720226Y-90863937D01*
X137889744Y-90977205D01*
X138078102Y-91055226D01*
X138278061Y-91095000D01*
X138481939Y-91095000D01*
X138681898Y-91055226D01*
X138870256Y-90977205D01*
X139030700Y-90870000D01*
X139559300Y-90870000D01*
X139719744Y-90977205D01*
X139908102Y-91055226D01*
X140108061Y-91095000D01*
X140311939Y-91095000D01*
X140511898Y-91055226D01*
X140700256Y-90977205D01*
X140869774Y-90863937D01*
X141013937Y-90719774D01*
X141127205Y-90550256D01*
X141205226Y-90361898D01*
X141245000Y-90161939D01*
X141245000Y-89958061D01*
X141205226Y-89758102D01*
X141127205Y-89569744D01*
X141013937Y-89400226D01*
X140869774Y-89256063D01*
X140700256Y-89142795D01*
X140511898Y-89064774D01*
X140311939Y-89025000D01*
X140108061Y-89025000D01*
X139908102Y-89064774D01*
X139719744Y-89142795D01*
X139550226Y-89256063D01*
X139456289Y-89350000D01*
X139133711Y-89350000D01*
X139039774Y-89256063D01*
X138870256Y-89142795D01*
X138681898Y-89064774D01*
X138481939Y-89025000D01*
X138278061Y-89025000D01*
X138078102Y-89064774D01*
X137889744Y-89142795D01*
X137720226Y-89256063D01*
X137576063Y-89400226D01*
X137462795Y-89569744D01*
X137384774Y-89758102D01*
X137345000Y-89958061D01*
X121310000Y-89958061D01*
X121310000Y-88741870D01*
X121318102Y-88745226D01*
X121518061Y-88785000D01*
X121721939Y-88785000D01*
X121921898Y-88745226D01*
X122110256Y-88667205D01*
X122279774Y-88553937D01*
X122423937Y-88409774D01*
X122537205Y-88240256D01*
X122615226Y-88051898D01*
X122655000Y-87851939D01*
X122655000Y-87648061D01*
X122615226Y-87448102D01*
X122537205Y-87259744D01*
X122423937Y-87090226D01*
X122380000Y-87046289D01*
X122380000Y-86233711D01*
X122431457Y-86182254D01*
X122544725Y-86012736D01*
X122622746Y-85824378D01*
X122662520Y-85624419D01*
X122662520Y-85420541D01*
X122622746Y-85220582D01*
X122544725Y-85032224D01*
X122431457Y-84862706D01*
X122287294Y-84718543D01*
X122117776Y-84605275D01*
X121929418Y-84527254D01*
X121729459Y-84487480D01*
X121571909Y-84487480D01*
X121575000Y-84471939D01*
X121575000Y-84268061D01*
X121535226Y-84068102D01*
X121457205Y-83879744D01*
X121343937Y-83710226D01*
X121199774Y-83566063D01*
X121030256Y-83452795D01*
X120841898Y-83374774D01*
X120641939Y-83335000D01*
X120438061Y-83335000D01*
X120238102Y-83374774D01*
X120049744Y-83452795D01*
X119880226Y-83566063D01*
X119736063Y-83710226D01*
X119622795Y-83879744D01*
X119544774Y-84068102D01*
X119505000Y-84268061D01*
X119505000Y-84471939D01*
X119544774Y-84671898D01*
X119622795Y-84860256D01*
X119736063Y-85029774D01*
X119790001Y-85083712D01*
X119790000Y-93146289D01*
X119746063Y-93190226D01*
X119632795Y-93359744D01*
X119577598Y-93493000D01*
X106607210Y-93493000D01*
X106620689Y-85345156D01*
X106629014Y-85340706D01*
X106855134Y-85155134D01*
X107040706Y-84929014D01*
X107178599Y-84671034D01*
X107263513Y-84391111D01*
X107292185Y-84100000D01*
X107263513Y-83808889D01*
X107178599Y-83528966D01*
X107040706Y-83270986D01*
X106855134Y-83044866D01*
X106629014Y-82859294D01*
X106624805Y-82857044D01*
X106624833Y-82840000D01*
X110087083Y-82840000D01*
X110050986Y-82859294D01*
X109824866Y-83044866D01*
X109639294Y-83270986D01*
X109501401Y-83528966D01*
X109416487Y-83808889D01*
X109387815Y-84100000D01*
X109416487Y-84391111D01*
X109501401Y-84671034D01*
X109639294Y-84929014D01*
X109824866Y-85155134D01*
X110050986Y-85340706D01*
X110308966Y-85478599D01*
X110588889Y-85563513D01*
X110807050Y-85585000D01*
X110952950Y-85585000D01*
X111171111Y-85563513D01*
X111451034Y-85478599D01*
X111709014Y-85340706D01*
X111935134Y-85155134D01*
X112120706Y-84929014D01*
X112150000Y-84874209D01*
X112179294Y-84929014D01*
X112364866Y-85155134D01*
X112590986Y-85340706D01*
X112848966Y-85478599D01*
X113128889Y-85563513D01*
X113347050Y-85585000D01*
X113492950Y-85585000D01*
X113711111Y-85563513D01*
X113991034Y-85478599D01*
X114249014Y-85340706D01*
X114475134Y-85155134D01*
X114660706Y-84929014D01*
X114798599Y-84671034D01*
X114883513Y-84391111D01*
X114912185Y-84100000D01*
X114883513Y-83808889D01*
X114798599Y-83528966D01*
X114660706Y-83270986D01*
X114475134Y-83044866D01*
X114249014Y-82859294D01*
X114212917Y-82840000D01*
X140462715Y-82840000D01*
X140422795Y-82899744D01*
X140344774Y-83088102D01*
X140305000Y-83288061D01*
X140305000Y-83491939D01*
X140344774Y-83691898D01*
X140422795Y-83880256D01*
X140530001Y-84040701D01*
X140530000Y-84636289D01*
X140486063Y-84680226D01*
X140372795Y-84849744D01*
X140294774Y-85038102D01*
X140255000Y-85238061D01*
X140255000Y-85441939D01*
X140294774Y-85641898D01*
X140372795Y-85830256D01*
X140486063Y-85999774D01*
X140630226Y-86143937D01*
X140799744Y-86257205D01*
X140988102Y-86335226D01*
X141188061Y-86375000D01*
X141391939Y-86375000D01*
X141591898Y-86335226D01*
X141780256Y-86257205D01*
X141949774Y-86143937D01*
X142093937Y-85999774D01*
X142207205Y-85830256D01*
X142285226Y-85641898D01*
X142325000Y-85441939D01*
X142325000Y-85238061D01*
X142285226Y-85038102D01*
X142207205Y-84849744D01*
X142093937Y-84680226D01*
X142050000Y-84636289D01*
X142050000Y-84143711D01*
X142143937Y-84049774D01*
X142257205Y-83880256D01*
X142335226Y-83691898D01*
X142375000Y-83491939D01*
X142375000Y-83288061D01*
X142335226Y-83088102D01*
X142257205Y-82899744D01*
X142217285Y-82840000D01*
X155225199Y-82840000D01*
X159600001Y-87214803D01*
X159600000Y-89550964D01*
X159497069Y-89358394D01*
X159309797Y-89130203D01*
X159081606Y-88942931D01*
X158821264Y-88803775D01*
X158538777Y-88718084D01*
X158318619Y-88696400D01*
X158171381Y-88696400D01*
X157951223Y-88718084D01*
X157668736Y-88803775D01*
X157408394Y-88942931D01*
X157180203Y-89130203D01*
X156992931Y-89358394D01*
X156975000Y-89391940D01*
X156957069Y-89358394D01*
X156769797Y-89130203D01*
X156761735Y-89123586D01*
X156812780Y-89108102D01*
X156923094Y-89049137D01*
X157019785Y-88969785D01*
X157099137Y-88873094D01*
X157158102Y-88762780D01*
X157194412Y-88643082D01*
X157206672Y-88518600D01*
X157206672Y-86791400D01*
X157194412Y-86666918D01*
X157158102Y-86547220D01*
X157099137Y-86436906D01*
X157019785Y-86340215D01*
X156923094Y-86260863D01*
X156812780Y-86201898D01*
X156693082Y-86165588D01*
X156568600Y-86153328D01*
X154841400Y-86153328D01*
X154716918Y-86165588D01*
X154597220Y-86201898D01*
X154486906Y-86260863D01*
X154390215Y-86340215D01*
X154310863Y-86436906D01*
X154251898Y-86547220D01*
X154215588Y-86666918D01*
X154203328Y-86791400D01*
X154203328Y-88518600D01*
X154215588Y-88643082D01*
X154251898Y-88762780D01*
X154310863Y-88873094D01*
X154390215Y-88969785D01*
X154486906Y-89049137D01*
X154597220Y-89108102D01*
X154648265Y-89123586D01*
X154640203Y-89130203D01*
X154452931Y-89358394D01*
X154313775Y-89618736D01*
X154228084Y-89901223D01*
X154199149Y-90195000D01*
X154228084Y-90488777D01*
X154313775Y-90771264D01*
X154452931Y-91031606D01*
X154640203Y-91259797D01*
X154868394Y-91447069D01*
X155128736Y-91586225D01*
X155411223Y-91671916D01*
X155631381Y-91693600D01*
X155778619Y-91693600D01*
X155998777Y-91671916D01*
X156281264Y-91586225D01*
X156541606Y-91447069D01*
X156769797Y-91259797D01*
X156957069Y-91031606D01*
X156975000Y-90998060D01*
X156992931Y-91031606D01*
X157180203Y-91259797D01*
X157408394Y-91447069D01*
X157441940Y-91465000D01*
X157408394Y-91482931D01*
X157180203Y-91670203D01*
X156992931Y-91898394D01*
X156853775Y-92158736D01*
X156768084Y-92441223D01*
X156739149Y-92735000D01*
X156768084Y-93028777D01*
X156853775Y-93311264D01*
X156992931Y-93571606D01*
X157180203Y-93799797D01*
X157408394Y-93987069D01*
X157668736Y-94126225D01*
X157951223Y-94211916D01*
X158171381Y-94233600D01*
X158318619Y-94233600D01*
X158538777Y-94211916D01*
X158821264Y-94126225D01*
X159081606Y-93987069D01*
X159309797Y-93799797D01*
X159497069Y-93571606D01*
X159636225Y-93311264D01*
X159721916Y-93028777D01*
X159750851Y-92735000D01*
X159721916Y-92441223D01*
X159696701Y-92358100D01*
X160871004Y-91183798D01*
X160900001Y-91160001D01*
X160994974Y-91044276D01*
X161065546Y-90912247D01*
X161109003Y-90768986D01*
X161120000Y-90657333D01*
X161120000Y-90657325D01*
X161123676Y-90620000D01*
X161120000Y-90582675D01*
X161120000Y-86937322D01*
X161123676Y-86899999D01*
X161120000Y-86862676D01*
X161120000Y-86862667D01*
X161109003Y-86751014D01*
X161065546Y-86607753D01*
X160994974Y-86475724D01*
X160900001Y-86359999D01*
X160871003Y-86336201D01*
X156475143Y-81940342D01*
X190152748Y-82131281D01*
M02*
