*
%LPD*%
%LNCellMan-B_Mask*%
%FSLAX25Y25*%
%MOIN*%
%AD*%
%AD*%
%ADD19C,0.011811024*%
%ADD20C,0.003937008*%
G54D19*
%SRX1Y1I0.0J0.0*%
G1X114404Y170803D2*
G1X114685Y170521D1*
G1X115529Y170240D1*
G1X116091Y170240D1*
G1X116935Y170521D1*
G1X117497Y171084D1*
G1X117778Y171646D1*
G1X118060Y172771D1*
G1X118060Y173615D1*
G1X117778Y174740D1*
G1X117497Y175302D1*
G1X116935Y175865D1*
G1X116091Y176146D1*
G1X115529Y176146D1*
G1X114685Y175865D1*
G1X114404Y175583D1*
G1X111029Y170240D2*
G1X111592Y170521D1*
G1X111873Y170803D1*
G1X112154Y171365D1*
G1X112154Y173052D1*
G1X111873Y173615D1*
G1X111592Y173896D1*
G1X111029Y174177D1*
G1X110186Y174177D1*
G1X109623Y173896D1*
G1X109342Y173615D1*
G1X109061Y173052D1*
G1X109061Y171365D1*
G1X109342Y170803D1*
G1X109623Y170521D1*
G1X110186Y170240D1*
G1X111029Y170240D1*
G1X106530Y174177D2*
G1X106530Y170240D1*
G1X106530Y173615D2*
G1X106249Y173896D1*
G1X105686Y174177D1*
G1X104842Y174177D1*
G1X104280Y173896D1*
G1X103999Y173334D1*
G1X103999Y170240D1*
G1X101187Y174177D2*
G1X101187Y170240D1*
G1X101187Y173615D2*
G1X100905Y173896D1*
G1X100343Y174177D1*
G1X99499Y174177D1*
G1X98937Y173896D1*
G1X98656Y173334D1*
G1X98656Y170240D1*
G1X95000Y170240D2*
G1X95562Y170521D1*
G1X95844Y170803D1*
G1X96125Y171365D1*
G1X96125Y173052D1*
G1X95844Y173615D1*
G1X95562Y173896D1*
G1X95000Y174177D1*
G1X94156Y174177D1*
G1X93594Y173896D1*
G1X93313Y173615D1*
G1X93031Y173052D1*
G1X93031Y171365D1*
G1X93313Y170803D1*
G1X93594Y170521D1*
G1X94156Y170240D1*
G1X95000Y170240D1*
G1X90501Y170240D2*
G1X90501Y174177D1*
G1X90501Y173052D2*
G1X90219Y173615D1*
G1X89938Y173896D1*
G1X89376Y174177D1*
G1X88813Y174177D1*
G1X118341Y166106D2*
G1X116935Y160201D1*
G1X115810Y164419D1*
G1X114685Y160201D1*
G1X113279Y166106D1*
G1X111029Y160201D2*
G1X111029Y164138D1*
G1X111029Y166106D2*
G1X111310Y165825D1*
G1X111029Y165544D1*
G1X110748Y165825D1*
G1X111029Y166106D1*
G1X111029Y165544D1*
G1X108217Y164138D2*
G1X108217Y160201D1*
G1X108217Y163575D2*
G1X107936Y163857D1*
G1X107373Y164138D1*
G1X106530Y164138D1*
G1X105967Y163857D1*
G1X105686Y163294D1*
G1X105686Y160201D1*
G1X102874Y160201D2*
G1X102874Y164138D1*
G1X102874Y166106D2*
G1X103155Y165825D1*
G1X102874Y165544D1*
G1X102593Y165825D1*
G1X102874Y166106D1*
G1X102874Y165544D1*
G1X97531Y160201D2*
G1X97531Y163294D1*
G1X97812Y163857D1*
G1X98375Y164138D1*
G1X99499Y164138D1*
G1X100062Y163857D1*
G1X97531Y160482D2*
G1X98093Y160201D1*
G1X99499Y160201D1*
G1X100062Y160482D1*
G1X100343Y161044D1*
G1X100343Y161607D1*
G1X100062Y162169D1*
G1X99499Y162451D1*
G1X98093Y162451D1*
G1X97531Y162732D1*
G1X94719Y160201D2*
G1X94719Y164138D1*
G1X94719Y163013D2*
G1X94438Y163575D1*
G1X94156Y163857D1*
G1X93594Y164138D1*
G1X93031Y164138D1*
G1X88532Y160482D2*
G1X89094Y160201D1*
G1X90219Y160201D1*
G1X90782Y160482D1*
G1X91063Y160763D1*
G1X91344Y161326D1*
G1X91344Y163013D1*
G1X91063Y163575D1*
G1X90782Y163857D1*
G1X90219Y164138D1*
G1X89094Y164138D1*
G1X88532Y163857D1*
G1X86564Y164138D2*
G1X83470Y164138D1*
G1X86564Y160201D1*
G1X83470Y160201D1*
G1X81783Y164138D2*
G1X80377Y160201D1*
G1X78971Y164138D2*
G1X80377Y160201D1*
G1X80939Y158795D1*
G1X81220Y158514D1*
G1X81783Y158232D1*
G1X76721Y160201D2*
G1X76721Y166106D1*
G1X76159Y162451D2*
G1X74471Y160201D1*
G1X74471Y164138D2*
G1X76721Y161888D1*
G1X67160Y166106D2*
G1X67722Y164981D1*
G1X64910Y165544D2*
G1X64629Y165825D1*
G1X64066Y166106D1*
G1X62660Y166106D1*
G1X62098Y165825D1*
G1X61817Y165544D1*
G1X61535Y164981D1*
G1X61535Y164419D1*
G1X61817Y163575D1*
G1X65191Y160201D1*
G1X61535Y160201D1*
G1X57880Y166106D2*
G1X57317Y166106D1*
G1X56755Y165825D1*
G1X56474Y165544D1*
G1X56192Y164981D1*
G1X55911Y163857D1*
G1X55911Y162451D1*
G1X56192Y161326D1*
G1X56474Y160763D1*
G1X56755Y160482D1*
G1X57317Y160201D1*
G1X57880Y160201D1*
G1X58442Y160482D1*
G1X58723Y160763D1*
G1X59004Y161326D1*
G1X59286Y162451D1*
G1X59286Y163857D1*
G1X59004Y164981D1*
G1X58723Y165544D1*
G1X58442Y165825D1*
G1X57880Y166106D1*
G54D20*
G36*
G1X348188Y24079D2*
G1X348772Y21143D1*
G1X349918Y18376D1*
G1X351581Y15887D1*
G1X353698Y13769D1*
G1X356188Y12106D1*
G1X358954Y10960D1*
G1X361891Y10376D1*
G1X364886Y10376D1*
G1X367822Y10960D1*
G1X370589Y12106D1*
G1X373078Y13769D1*
G1X375196Y15887D1*
G1X376859Y18376D1*
G1X378005Y21143D1*
G1X378589Y24079D1*
G1X378589Y27074D1*
G1X378005Y30011D1*
G1X376859Y32777D1*
G1X375196Y35267D1*
G1X373078Y37384D1*
G1X370589Y39047D1*
G1X367822Y40193D1*
G1X364886Y40777D1*
G1X361891Y40777D1*
G1X358954Y40193D1*
G1X356188Y39047D1*
G1X353698Y37384D1*
G1X351581Y35267D1*
G1X349918Y32777D1*
G1X348772Y30011D1*
G1X348188Y27074D1*
G1X348188Y24079D1*
G37*
G36*
G1X12208Y24079D2*
G1X12792Y21143D1*
G1X13938Y18376D1*
G1X15601Y15887D1*
G1X17718Y13769D1*
G1X20208Y12106D1*
G1X22974Y10960D1*
G1X25911Y10376D1*
G1X28906Y10376D1*
G1X31842Y10960D1*
G1X34609Y12106D1*
G1X37098Y13769D1*
G1X39216Y15887D1*
G1X40879Y18376D1*
G1X42025Y21143D1*
G1X42609Y24079D1*
G1X42609Y27074D1*
G1X42025Y30011D1*
G1X40879Y32777D1*
G1X39216Y35267D1*
G1X37098Y37384D1*
G1X34609Y39047D1*
G1X31842Y40193D1*
G1X28906Y40777D1*
G1X25911Y40777D1*
G1X22974Y40193D1*
G1X20208Y39047D1*
G1X17718Y37384D1*
G1X15601Y35267D1*
G1X13938Y32777D1*
G1X12792Y30011D1*
G1X12208Y27074D1*
G1X12208Y24079D1*
G37*
G36*
G1X69341Y28524D2*
G1X69341Y21429D1*
G1X76436Y21429D1*
G1X76436Y28524D1*
G1X69341Y28524D1*
G37*
G36*
G1X319324Y24977D2*
G1X319392Y24281D1*
G1X319595Y23613D1*
G1X319925Y22996D1*
G1X320368Y22456D1*
G1X320908Y22013D1*
G1X321524Y21684D1*
G1X322193Y21481D1*
G1X322714Y21429D1*
G1X323063Y21429D1*
G1X323584Y21481D1*
G1X324252Y21684D1*
G1X324869Y22013D1*
G1X325409Y22456D1*
G1X325852Y22996D1*
G1X326181Y23613D1*
G1X326384Y24281D1*
G1X326453Y24977D1*
G1X326384Y25672D1*
G1X326181Y26341D1*
G1X325852Y26957D1*
G1X325409Y27497D1*
G1X324869Y27940D1*
G1X324252Y28270D1*
G1X323584Y28473D1*
G1X323063Y28524D1*
G1X322714Y28524D1*
G1X322193Y28473D1*
G1X321524Y28270D1*
G1X320908Y27940D1*
G1X320368Y27497D1*
G1X319925Y26957D1*
G1X319595Y26341D1*
G1X319392Y25672D1*
G1X319324Y24977D1*
G37*
G36*
G1X309341Y28524D2*
G1X309341Y21429D1*
G1X316436Y21429D1*
G1X316436Y28524D1*
G1X309341Y28524D1*
G37*
G36*
G1X79324Y24977D2*
G1X79392Y24281D1*
G1X79595Y23613D1*
G1X79925Y22996D1*
G1X80368Y22456D1*
G1X80908Y22013D1*
G1X81524Y21684D1*
G1X82193Y21481D1*
G1X82714Y21429D1*
G1X83063Y21429D1*
G1X83584Y21481D1*
G1X84252Y21684D1*
G1X84869Y22013D1*
G1X85409Y22456D1*
G1X85852Y22996D1*
G1X86181Y23613D1*
G1X86384Y24281D1*
G1X86453Y24977D1*
G1X86384Y25672D1*
G1X86181Y26341D1*
G1X85852Y26957D1*
G1X85409Y27497D1*
G1X84869Y27940D1*
G1X84252Y28270D1*
G1X83584Y28473D1*
G1X83063Y28524D1*
G1X82714Y28524D1*
G1X82193Y28473D1*
G1X81524Y28270D1*
G1X80908Y27940D1*
G1X80368Y27497D1*
G1X79925Y26957D1*
G1X79595Y26341D1*
G1X79392Y25672D1*
G1X79324Y24977D1*
G37*
G36*
G1X240030Y33977D2*
G1X240030Y26882D1*
G1X247125Y26882D1*
G1X247125Y33977D1*
G1X240030Y33977D1*
G37*
G36*
G1X250013Y30429D2*
G1X250081Y29734D1*
G1X250284Y29065D1*
G1X250614Y28449D1*
G1X251057Y27909D1*
G1X251597Y27466D1*
G1X252213Y27136D1*
G1X252882Y26934D1*
G1X253403Y26882D1*
G1X253752Y26882D1*
G1X254273Y26934D1*
G1X254941Y27136D1*
G1X255558Y27466D1*
G1X256098Y27909D1*
G1X256541Y28449D1*
G1X256870Y29065D1*
G1X257073Y29734D1*
G1X257142Y30429D1*
G1X257073Y31125D1*
G1X256870Y31793D1*
G1X256541Y32410D1*
G1X256098Y32950D1*
G1X255558Y33393D1*
G1X254941Y33722D1*
G1X254273Y33925D1*
G1X253752Y33977D1*
G1X253403Y33977D1*
G1X252882Y33925D1*
G1X252213Y33722D1*
G1X251597Y33393D1*
G1X251057Y32950D1*
G1X250614Y32410D1*
G1X250284Y31793D1*
G1X250081Y31125D1*
G1X250013Y30429D1*
G37*
G36*
G1X46176Y91577D2*
G1X46421Y89087D1*
G1X47148Y86693D1*
G1X48327Y84486D1*
G1X49914Y82552D1*
G1X51848Y80965D1*
G1X54054Y79786D1*
G1X56449Y79060D1*
G1X58314Y78876D1*
G1X77062Y78876D1*
G1X78928Y79060D1*
G1X81322Y79786D1*
G1X83529Y80965D1*
G1X85463Y82552D1*
G1X87050Y84486D1*
G1X88229Y86693D1*
G1X88955Y89087D1*
G1X89201Y91577D1*
G1X88955Y94066D1*
G1X88229Y96461D1*
G1X87050Y98667D1*
G1X85463Y100601D1*
G1X83529Y102188D1*
G1X81322Y103367D1*
G1X78928Y104094D1*
G1X77062Y104277D1*
G1X58314Y104277D1*
G1X56449Y104094D1*
G1X54054Y103367D1*
G1X51848Y102188D1*
G1X49914Y100601D1*
G1X48327Y98667D1*
G1X47148Y96461D1*
G1X46421Y94066D1*
G1X46176Y91577D1*
G37*
G36*
G1X313176Y91577D2*
G1X313421Y89087D1*
G1X314148Y86693D1*
G1X315327Y84486D1*
G1X316914Y82552D1*
G1X318848Y80965D1*
G1X321054Y79786D1*
G1X323449Y79060D1*
G1X325314Y78876D1*
G1X344062Y78876D1*
G1X345928Y79060D1*
G1X348322Y79786D1*
G1X350529Y80965D1*
G1X352463Y82552D1*
G1X354050Y84486D1*
G1X355229Y86693D1*
G1X355955Y89087D1*
G1X356201Y91577D1*
G1X355955Y94066D1*
G1X355229Y96461D1*
G1X354050Y98667D1*
G1X352463Y100601D1*
G1X350529Y102188D1*
G1X348322Y103367D1*
G1X345928Y104094D1*
G1X344062Y104277D1*
G1X325314Y104277D1*
G1X323449Y104094D1*
G1X321054Y103367D1*
G1X318848Y102188D1*
G1X316914Y100601D1*
G1X315327Y98667D1*
G1X314148Y96461D1*
G1X313421Y94066D1*
G1X313176Y91577D1*
G37*
G36*
G1X131690Y133677D2*
G1X131760Y132971D1*
G1X131966Y132292D1*
G1X132300Y131666D1*
G1X132750Y131118D1*
G1X133298Y130668D1*
G1X133924Y130334D1*
G1X134602Y130128D1*
G1X135131Y130076D1*
G1X135485Y130076D1*
G1X136014Y130128D1*
G1X136693Y130334D1*
G1X137319Y130668D1*
G1X137867Y131118D1*
G1X138317Y131666D1*
G1X138651Y132292D1*
G1X138857Y132971D1*
G1X138927Y133677D1*
G1X138857Y134383D1*
G1X138651Y135061D1*
G1X138317Y135687D1*
G1X137867Y136235D1*
G1X137319Y136685D1*
G1X136693Y137019D1*
G1X136014Y137225D1*
G1X135485Y137277D1*
G1X135131Y137277D1*
G1X134602Y137225D1*
G1X133924Y137019D1*
G1X133298Y136685D1*
G1X132750Y136235D1*
G1X132300Y135687D1*
G1X131966Y135061D1*
G1X131760Y134383D1*
G1X131690Y133677D1*
G37*
G36*
G1X141690Y133677D2*
G1X141760Y132971D1*
G1X141966Y132292D1*
G1X142300Y131666D1*
G1X142750Y131118D1*
G1X143298Y130668D1*
G1X143924Y130334D1*
G1X144602Y130128D1*
G1X145131Y130076D1*
G1X145485Y130076D1*
G1X146014Y130128D1*
G1X146693Y130334D1*
G1X147319Y130668D1*
G1X147867Y131118D1*
G1X148317Y131666D1*
G1X148651Y132292D1*
G1X148857Y132971D1*
G1X148927Y133677D1*
G1X148857Y134383D1*
G1X148651Y135061D1*
G1X148317Y135687D1*
G1X147867Y136235D1*
G1X147319Y136685D1*
G1X146693Y137019D1*
G1X146014Y137225D1*
G1X145485Y137277D1*
G1X145131Y137277D1*
G1X144602Y137225D1*
G1X143924Y137019D1*
G1X143298Y136685D1*
G1X142750Y136235D1*
G1X142300Y135687D1*
G1X141966Y135061D1*
G1X141760Y134383D1*
G1X141690Y133677D1*
G37*
G36*
G1X141690Y143677D2*
G1X141760Y142971D1*
G1X141966Y142292D1*
G1X142300Y141666D1*
G1X142750Y141118D1*
G1X143298Y140668D1*
G1X143924Y140334D1*
G1X144602Y140128D1*
G1X145131Y140076D1*
G1X145485Y140076D1*
G1X146014Y140128D1*
G1X146693Y140334D1*
G1X147319Y140668D1*
G1X147867Y141118D1*
G1X148317Y141666D1*
G1X148651Y142292D1*
G1X148857Y142971D1*
G1X148927Y143677D1*
G1X148857Y144383D1*
G1X148651Y145061D1*
G1X148317Y145687D1*
G1X147867Y146235D1*
G1X147319Y146685D1*
G1X146693Y147019D1*
G1X146014Y147225D1*
G1X145485Y147277D1*
G1X145131Y147277D1*
G1X144602Y147225D1*
G1X143924Y147019D1*
G1X143298Y146685D1*
G1X142750Y146235D1*
G1X142300Y145687D1*
G1X141966Y145061D1*
G1X141760Y144383D1*
G1X141690Y143677D1*
G37*
G36*
G1X131690Y143677D2*
G1X131760Y142971D1*
G1X131966Y142292D1*
G1X132300Y141666D1*
G1X132750Y141118D1*
G1X133298Y140668D1*
G1X133924Y140334D1*
G1X134602Y140128D1*
G1X135131Y140076D1*
G1X135485Y140076D1*
G1X136014Y140128D1*
G1X136693Y140334D1*
G1X137319Y140668D1*
G1X137867Y141118D1*
G1X138317Y141666D1*
G1X138651Y142292D1*
G1X138857Y142971D1*
G1X138927Y143677D1*
G1X138857Y144383D1*
G1X138651Y145061D1*
G1X138317Y145687D1*
G1X137867Y146235D1*
G1X137319Y146685D1*
G1X136693Y147019D1*
G1X136014Y147225D1*
G1X135485Y147277D1*
G1X135131Y147277D1*
G1X134602Y147225D1*
G1X133924Y147019D1*
G1X133298Y146685D1*
G1X132750Y146235D1*
G1X132300Y145687D1*
G1X131966Y145061D1*
G1X131760Y144383D1*
G1X131690Y143677D1*
G37*
G36*
G1X12208Y161019D2*
G1X12792Y158083D1*
G1X13938Y155316D1*
G1X15601Y152827D1*
G1X17718Y150709D1*
G1X20208Y149046D1*
G1X22974Y147900D1*
G1X25911Y147316D1*
G1X28906Y147316D1*
G1X31842Y147900D1*
G1X34609Y149046D1*
G1X37098Y150709D1*
G1X39216Y152827D1*
G1X40879Y155316D1*
G1X42025Y158083D1*
G1X42609Y161019D1*
G1X42609Y164014D1*
G1X42025Y166951D1*
G1X40879Y169717D1*
G1X39216Y172207D1*
G1X37098Y174324D1*
G1X34609Y175987D1*
G1X31842Y177133D1*
G1X28906Y177717D1*
G1X25911Y177717D1*
G1X22974Y177133D1*
G1X20208Y175987D1*
G1X17718Y174324D1*
G1X15601Y172207D1*
G1X13938Y169717D1*
G1X12792Y166951D1*
G1X12208Y164014D1*
G1X12208Y161019D1*
G37*
G36*
G1X348188Y161019D2*
G1X348772Y158083D1*
G1X349918Y155316D1*
G1X351581Y152827D1*
G1X353698Y150709D1*
G1X356188Y149046D1*
G1X358954Y147900D1*
G1X361891Y147316D1*
G1X364886Y147316D1*
G1X367822Y147900D1*
G1X370589Y149046D1*
G1X373078Y150709D1*
G1X375196Y152827D1*
G1X376859Y155316D1*
G1X378005Y158083D1*
G1X378589Y161019D1*
G1X378589Y164014D1*
G1X378005Y166951D1*
G1X376859Y169717D1*
G1X375196Y172207D1*
G1X373078Y174324D1*
G1X370589Y175987D1*
G1X367822Y177133D1*
G1X364886Y177717D1*
G1X361891Y177717D1*
G1X358954Y177133D1*
G1X356188Y175987D1*
G1X353698Y174324D1*
G1X351581Y172207D1*
G1X349918Y169717D1*
G1X348772Y166951D1*
G1X348188Y164014D1*
G1X348188Y161019D1*
G37*
G36*
G1X141690Y153677D2*
G1X141760Y152971D1*
G1X141966Y152292D1*
G1X142300Y151666D1*
G1X142750Y151118D1*
G1X143298Y150668D1*
G1X143924Y150334D1*
G1X144602Y150128D1*
G1X145131Y150076D1*
G1X145485Y150076D1*
G1X146014Y150128D1*
G1X146693Y150334D1*
G1X147319Y150668D1*
G1X147867Y151118D1*
G1X148317Y151666D1*
G1X148651Y152292D1*
G1X148857Y152971D1*
G1X148927Y153677D1*
G1X148857Y154383D1*
G1X148651Y155061D1*
G1X148317Y155687D1*
G1X147867Y156235D1*
G1X147319Y156685D1*
G1X146693Y157019D1*
G1X146014Y157225D1*
G1X145485Y157277D1*
G1X145131Y157277D1*
G1X144602Y157225D1*
G1X143924Y157019D1*
G1X143298Y156685D1*
G1X142750Y156235D1*
G1X142300Y155687D1*
G1X141966Y155061D1*
G1X141760Y154383D1*
G1X141690Y153677D1*
G37*
G36*
G1X131708Y157277D2*
G1X131708Y150076D1*
G1X138909Y150076D1*
G1X138909Y157277D1*
G1X131708Y157277D1*
G37*
G36*
G1X312241Y157484D2*
G1X312241Y150389D1*
G1X319336Y150389D1*
G1X319336Y157484D1*
G1X312241Y157484D1*
G37*
G36*
G1X322224Y153937D2*
G1X322292Y153241D1*
G1X322495Y152573D1*
G1X322825Y151956D1*
G1X323268Y151416D1*
G1X323808Y150973D1*
G1X324424Y150644D1*
G1X325093Y150441D1*
G1X325614Y150389D1*
G1X325963Y150389D1*
G1X326484Y150441D1*
G1X327152Y150644D1*
G1X327769Y150973D1*
G1X328309Y151416D1*
G1X328752Y151956D1*
G1X329081Y152573D1*
G1X329284Y153241D1*
G1X329353Y153937D1*
G1X329284Y154632D1*
G1X329081Y155301D1*
G1X328752Y155917D1*
G1X328309Y156457D1*
G1X327769Y156900D1*
G1X327152Y157230D1*
G1X326484Y157433D1*
G1X325963Y157484D1*
G1X325614Y157484D1*
G1X325093Y157433D1*
G1X324424Y157230D1*
G1X323808Y156900D1*
G1X323268Y156457D1*
G1X322825Y155917D1*
G1X322495Y155301D1*
G1X322292Y154632D1*
G1X322224Y153937D1*
G37*
G36*
G1X312224Y163937D2*
G1X312292Y163241D1*
G1X312495Y162573D1*
G1X312825Y161956D1*
G1X313268Y161416D1*
G1X313808Y160973D1*
G1X314424Y160644D1*
G1X315093Y160441D1*
G1X315614Y160389D1*
G1X315963Y160389D1*
G1X316484Y160441D1*
G1X317152Y160644D1*
G1X317769Y160973D1*
G1X318309Y161416D1*
G1X318752Y161956D1*
G1X319081Y162573D1*
G1X319284Y163241D1*
G1X319353Y163937D1*
G1X319284Y164632D1*
G1X319081Y165301D1*
G1X318752Y165917D1*
G1X318309Y166457D1*
G1X317769Y166900D1*
G1X317152Y167230D1*
G1X316484Y167433D1*
G1X315963Y167484D1*
G1X315614Y167484D1*
G1X315093Y167433D1*
G1X314424Y167230D1*
G1X313808Y166900D1*
G1X313268Y166457D1*
G1X312825Y165917D1*
G1X312495Y165301D1*
G1X312292Y164632D1*
G1X312224Y163937D1*
G37*
G36*
G1X322224Y163937D2*
G1X322292Y163241D1*
G1X322495Y162573D1*
G1X322825Y161956D1*
G1X323268Y161416D1*
G1X323808Y160973D1*
G1X324424Y160644D1*
G1X325093Y160441D1*
G1X325614Y160389D1*
G1X325963Y160389D1*
G1X326484Y160441D1*
G1X327152Y160644D1*
G1X327769Y160973D1*
G1X328309Y161416D1*
G1X328752Y161956D1*
G1X329081Y162573D1*
G1X329284Y163241D1*
G1X329353Y163937D1*
G1X329284Y164632D1*
G1X329081Y165301D1*
G1X328752Y165917D1*
G1X328309Y166457D1*
G1X327769Y166900D1*
G1X327152Y167230D1*
G1X326484Y167433D1*
G1X325963Y167484D1*
G1X325614Y167484D1*
G1X325093Y167433D1*
G1X324424Y167230D1*
G1X323808Y166900D1*
G1X323268Y166457D1*
G1X322825Y165917D1*
G1X322495Y165301D1*
G1X322292Y164632D1*
G1X322224Y163937D1*
G37*
G36*
G1X219302Y169862D2*
G1X219302Y162768D1*
G1X226396Y162768D1*
G1X226396Y169862D1*
G1X219302Y169862D1*
G37*
G36*
G1X229285Y166315D2*
G1X229353Y165620D1*
G1X229556Y164951D1*
G1X229885Y164335D1*
G1X230329Y163795D1*
G1X230869Y163352D1*
G1X231485Y163022D1*
G1X232154Y162819D1*
G1X232675Y162768D1*
G1X233023Y162768D1*
G1X233544Y162819D1*
G1X234213Y163022D1*
G1X234829Y163352D1*
G1X235369Y163795D1*
G1X235813Y164335D1*
G1X236142Y164951D1*
G1X236345Y165620D1*
G1X236413Y166315D1*
G1X236345Y167011D1*
G1X236142Y167679D1*
G1X235813Y168296D1*
G1X235369Y168836D1*
G1X234829Y169279D1*
G1X234213Y169608D1*
G1X233544Y169811D1*
G1X233023Y169862D1*
G1X232675Y169862D1*
G1X232154Y169811D1*
G1X231485Y169608D1*
G1X230869Y169279D1*
G1X230329Y168836D1*
G1X229885Y168296D1*
G1X229556Y167679D1*
G1X229353Y167011D1*
G1X229285Y166315D1*
G37*
G36*
G1X239285Y166315D2*
G1X239353Y165620D1*
G1X239556Y164951D1*
G1X239885Y164335D1*
G1X240329Y163795D1*
G1X240869Y163352D1*
G1X241485Y163022D1*
G1X242154Y162819D1*
G1X242675Y162768D1*
G1X243023Y162768D1*
G1X243544Y162819D1*
G1X244213Y163022D1*
G1X244829Y163352D1*
G1X245369Y163795D1*
G1X245813Y164335D1*
G1X246142Y164951D1*
G1X246345Y165620D1*
G1X246413Y166315D1*
G1X246345Y167011D1*
G1X246142Y167679D1*
G1X245813Y168296D1*
G1X245369Y168836D1*
G1X244829Y169279D1*
G1X244213Y169608D1*
G1X243544Y169811D1*
G1X243023Y169862D1*
G1X242675Y169862D1*
G1X242154Y169811D1*
G1X241485Y169608D1*
G1X240869Y169279D1*
G1X240329Y168836D1*
G1X239885Y168296D1*
G1X239556Y167679D1*
G1X239353Y167011D1*
G1X239285Y166315D1*
G37*
G36*
G1X249285Y166315D2*
G1X249353Y165620D1*
G1X249556Y164951D1*
G1X249885Y164335D1*
G1X250329Y163795D1*
G1X250869Y163352D1*
G1X251485Y163022D1*
G1X252154Y162819D1*
G1X252675Y162768D1*
G1X253023Y162768D1*
G1X253544Y162819D1*
G1X254213Y163022D1*
G1X254829Y163352D1*
G1X255369Y163795D1*
G1X255813Y164335D1*
G1X256142Y164951D1*
G1X256345Y165620D1*
G1X256413Y166315D1*
G1X256345Y167011D1*
G1X256142Y167679D1*
G1X255813Y168296D1*
G1X255369Y168836D1*
G1X254829Y169279D1*
G1X254213Y169608D1*
G1X253544Y169811D1*
G1X253023Y169862D1*
G1X252675Y169862D1*
G1X252154Y169811D1*
G1X251485Y169608D1*
G1X250869Y169279D1*
G1X250329Y168836D1*
G1X249885Y168296D1*
G1X249556Y167679D1*
G1X249353Y167011D1*
G1X249285Y166315D1*
G37*
G36*
G1X312224Y173937D2*
G1X312292Y173241D1*
G1X312495Y172573D1*
G1X312825Y171956D1*
G1X313268Y171416D1*
G1X313808Y170973D1*
G1X314424Y170644D1*
G1X315093Y170441D1*
G1X315614Y170389D1*
G1X315963Y170389D1*
G1X316484Y170441D1*
G1X317152Y170644D1*
G1X317769Y170973D1*
G1X318309Y171416D1*
G1X318752Y171956D1*
G1X319081Y172573D1*
G1X319284Y173241D1*
G1X319353Y173937D1*
G1X319284Y174632D1*
G1X319081Y175301D1*
G1X318752Y175917D1*
G1X318309Y176457D1*
G1X317769Y176900D1*
G1X317152Y177230D1*
G1X316484Y177433D1*
G1X315963Y177484D1*
G1X315614Y177484D1*
G1X315093Y177433D1*
G1X314424Y177230D1*
G1X313808Y176900D1*
G1X313268Y176457D1*
G1X312825Y175917D1*
G1X312495Y175301D1*
G1X312292Y174632D1*
G1X312224Y173937D1*
G37*
G36*
G1X322224Y173937D2*
G1X322292Y173241D1*
G1X322495Y172573D1*
G1X322825Y171956D1*
G1X323268Y171416D1*
G1X323808Y170973D1*
G1X324424Y170644D1*
G1X325093Y170441D1*
G1X325614Y170389D1*
G1X325963Y170389D1*
G1X326484Y170441D1*
G1X327152Y170644D1*
G1X327769Y170973D1*
G1X328309Y171416D1*
G1X328752Y171956D1*
G1X329081Y172573D1*
G1X329284Y173241D1*
G1X329353Y173937D1*
G1X329284Y174632D1*
G1X329081Y175301D1*
G1X328752Y175917D1*
G1X328309Y176457D1*
G1X327769Y176900D1*
G1X327152Y177230D1*
G1X326484Y177433D1*
G1X325963Y177484D1*
G1X325614Y177484D1*
G1X325093Y177433D1*
G1X324424Y177230D1*
G1X323808Y176900D1*
G1X323268Y176457D1*
G1X322825Y175917D1*
G1X322495Y175301D1*
G1X322292Y174632D1*
G1X322224Y173937D1*
G37*
G1X514404Y170803D2*
G54D19*
G1X514685Y170521D1*
G1X515529Y170240D1*
G1X516091Y170240D1*
G1X516935Y170521D1*
G1X517497Y171084D1*
G1X517778Y171646D1*
G1X518060Y172771D1*
G1X518060Y173615D1*
G1X517778Y174740D1*
G1X517497Y175302D1*
G1X516935Y175865D1*
G1X516091Y176146D1*
G1X515529Y176146D1*
G1X514685Y175865D1*
G1X514404Y175583D1*
G1X511029Y170240D2*
G1X511592Y170521D1*
G1X511873Y170803D1*
G1X512154Y171365D1*
G1X512154Y173052D1*
G1X511873Y173615D1*
G1X511592Y173896D1*
G1X511029Y174177D1*
G1X510186Y174177D1*
G1X509623Y173896D1*
G1X509342Y173615D1*
G1X509061Y173052D1*
G1X509061Y171365D1*
G1X509342Y170803D1*
G1X509623Y170521D1*
G1X510186Y170240D1*
G1X511029Y170240D1*
G1X506530Y174177D2*
G1X506530Y170240D1*
G1X506530Y173615D2*
G1X506249Y173896D1*
G1X505686Y174177D1*
G1X504842Y174177D1*
G1X504280Y173896D1*
G1X503999Y173334D1*
G1X503999Y170240D1*
G1X501187Y174177D2*
G1X501187Y170240D1*
G1X501187Y173615D2*
G1X500905Y173896D1*
G1X500343Y174177D1*
G1X499499Y174177D1*
G1X498937Y173896D1*
G1X498656Y173334D1*
G1X498656Y170240D1*
G1X495000Y170240D2*
G1X495562Y170521D1*
G1X495844Y170803D1*
G1X496125Y171365D1*
G1X496125Y173052D1*
G1X495844Y173615D1*
G1X495562Y173896D1*
G1X495000Y174177D1*
G1X494156Y174177D1*
G1X493594Y173896D1*
G1X493313Y173615D1*
G1X493031Y173052D1*
G1X493031Y171365D1*
G1X493313Y170803D1*
G1X493594Y170521D1*
G1X494156Y170240D1*
G1X495000Y170240D1*
G1X490501Y170240D2*
G1X490501Y174177D1*
G1X490501Y173052D2*
G1X490219Y173615D1*
G1X489938Y173896D1*
G1X489376Y174177D1*
G1X488813Y174177D1*
G1X518341Y166106D2*
G1X516935Y160201D1*
G1X515810Y164419D1*
G1X514685Y160201D1*
G1X513279Y166106D1*
G1X511029Y160201D2*
G1X511029Y164138D1*
G1X511029Y166106D2*
G1X511310Y165825D1*
G1X511029Y165544D1*
G1X510748Y165825D1*
G1X511029Y166106D1*
G1X511029Y165544D1*
G1X508217Y164138D2*
G1X508217Y160201D1*
G1X508217Y163575D2*
G1X507936Y163857D1*
G1X507373Y164138D1*
G1X506530Y164138D1*
G1X505967Y163857D1*
G1X505686Y163294D1*
G1X505686Y160201D1*
G1X502874Y160201D2*
G1X502874Y164138D1*
G1X502874Y166106D2*
G1X503155Y165825D1*
G1X502874Y165544D1*
G1X502593Y165825D1*
G1X502874Y166106D1*
G1X502874Y165544D1*
G1X497531Y160201D2*
G1X497531Y163294D1*
G1X497812Y163857D1*
G1X498375Y164138D1*
G1X499499Y164138D1*
G1X500062Y163857D1*
G1X497531Y160482D2*
G1X498093Y160201D1*
G1X499499Y160201D1*
G1X500062Y160482D1*
G1X500343Y161044D1*
G1X500343Y161607D1*
G1X500062Y162169D1*
G1X499499Y162451D1*
G1X498093Y162451D1*
G1X497531Y162732D1*
G1X494719Y160201D2*
G1X494719Y164138D1*
G1X494719Y163013D2*
G1X494438Y163575D1*
G1X494156Y163857D1*
G1X493594Y164138D1*
G1X493031Y164138D1*
G1X488532Y160482D2*
G1X489094Y160201D1*
G1X490219Y160201D1*
G1X490782Y160482D1*
G1X491063Y160763D1*
G1X491344Y161326D1*
G1X491344Y163013D1*
G1X491063Y163575D1*
G1X490782Y163857D1*
G1X490219Y164138D1*
G1X489094Y164138D1*
G1X488532Y163857D1*
G1X486564Y164138D2*
G1X483470Y164138D1*
G1X486564Y160201D1*
G1X483470Y160201D1*
G1X481783Y164138D2*
G1X480377Y160201D1*
G1X478971Y164138D2*
G1X480377Y160201D1*
G1X480939Y158795D1*
G1X481220Y158514D1*
G1X481783Y158232D1*
G1X476721Y160201D2*
G1X476721Y166106D1*
G1X476159Y162451D2*
G1X474471Y160201D1*
G1X474471Y164138D2*
G1X476721Y161888D1*
G1X467160Y166106D2*
G1X467722Y164981D1*
G1X464910Y165544D2*
G1X464629Y165825D1*
G1X464066Y166106D1*
G1X462660Y166106D1*
G1X462098Y165825D1*
G1X461817Y165544D1*
G1X461535Y164981D1*
G1X461535Y164419D1*
G1X461817Y163575D1*
G1X465191Y160201D1*
G1X461535Y160201D1*
G1X457880Y166106D2*
G1X457317Y166106D1*
G1X456755Y165825D1*
G1X456474Y165544D1*
G1X456192Y164981D1*
G1X455911Y163857D1*
G1X455911Y162451D1*
G1X456192Y161326D1*
G1X456474Y160763D1*
G1X456755Y160482D1*
G1X457317Y160201D1*
G1X457880Y160201D1*
G1X458442Y160482D1*
G1X458723Y160763D1*
G1X459004Y161326D1*
G1X459286Y162451D1*
G1X459286Y163857D1*
G1X459004Y164981D1*
G1X458723Y165544D1*
G1X458442Y165825D1*
G1X457880Y166106D1*
G54D20*
G36*
G1X748188Y24079D2*
G1X748772Y21143D1*
G1X749918Y18376D1*
G1X751581Y15887D1*
G1X753698Y13769D1*
G1X756188Y12106D1*
G1X758954Y10960D1*
G1X761891Y10376D1*
G1X764886Y10376D1*
G1X767822Y10960D1*
G1X770589Y12106D1*
G1X773078Y13769D1*
G1X775196Y15887D1*
G1X776859Y18376D1*
G1X778005Y21143D1*
G1X778589Y24079D1*
G1X778589Y27074D1*
G1X778005Y30011D1*
G1X776859Y32777D1*
G1X775196Y35267D1*
G1X773078Y37384D1*
G1X770589Y39047D1*
G1X767822Y40193D1*
G1X764886Y40777D1*
G1X761891Y40777D1*
G1X758954Y40193D1*
G1X756188Y39047D1*
G1X753698Y37384D1*
G1X751581Y35267D1*
G1X749918Y32777D1*
G1X748772Y30011D1*
G1X748188Y27074D1*
G1X748188Y24079D1*
G37*
G36*
G1X412208Y24079D2*
G1X412792Y21143D1*
G1X413938Y18376D1*
G1X415601Y15887D1*
G1X417718Y13769D1*
G1X420208Y12106D1*
G1X422974Y10960D1*
G1X425911Y10376D1*
G1X428906Y10376D1*
G1X431842Y10960D1*
G1X434609Y12106D1*
G1X437098Y13769D1*
G1X439216Y15887D1*
G1X440879Y18376D1*
G1X442025Y21143D1*
G1X442609Y24079D1*
G1X442609Y27074D1*
G1X442025Y30011D1*
G1X440879Y32777D1*
G1X439216Y35267D1*
G1X437098Y37384D1*
G1X434609Y39047D1*
G1X431842Y40193D1*
G1X428906Y40777D1*
G1X425911Y40777D1*
G1X422974Y40193D1*
G1X420208Y39047D1*
G1X417718Y37384D1*
G1X415601Y35267D1*
G1X413938Y32777D1*
G1X412792Y30011D1*
G1X412208Y27074D1*
G1X412208Y24079D1*
G37*
G36*
G1X469341Y28524D2*
G1X469341Y21429D1*
G1X476436Y21429D1*
G1X476436Y28524D1*
G1X469341Y28524D1*
G37*
G36*
G1X719324Y24977D2*
G1X719392Y24281D1*
G1X719595Y23613D1*
G1X719925Y22996D1*
G1X720368Y22456D1*
G1X720908Y22013D1*
G1X721524Y21684D1*
G1X722193Y21481D1*
G1X722714Y21429D1*
G1X723063Y21429D1*
G1X723584Y21481D1*
G1X724252Y21684D1*
G1X724869Y22013D1*
G1X725409Y22456D1*
G1X725852Y22996D1*
G1X726181Y23613D1*
G1X726384Y24281D1*
G1X726453Y24977D1*
G1X726384Y25672D1*
G1X726181Y26341D1*
G1X725852Y26957D1*
G1X725409Y27497D1*
G1X724869Y27940D1*
G1X724252Y28270D1*
G1X723584Y28473D1*
G1X723063Y28524D1*
G1X722714Y28524D1*
G1X722193Y28473D1*
G1X721524Y28270D1*
G1X720908Y27940D1*
G1X720368Y27497D1*
G1X719925Y26957D1*
G1X719595Y26341D1*
G1X719392Y25672D1*
G1X719324Y24977D1*
G37*
G36*
G1X709341Y28524D2*
G1X709341Y21429D1*
G1X716436Y21429D1*
G1X716436Y28524D1*
G1X709341Y28524D1*
G37*
G36*
G1X479324Y24977D2*
G1X479392Y24281D1*
G1X479595Y23613D1*
G1X479925Y22996D1*
G1X480368Y22456D1*
G1X480908Y22013D1*
G1X481524Y21684D1*
G1X482193Y21481D1*
G1X482714Y21429D1*
G1X483063Y21429D1*
G1X483584Y21481D1*
G1X484252Y21684D1*
G1X484869Y22013D1*
G1X485409Y22456D1*
G1X485852Y22996D1*
G1X486181Y23613D1*
G1X486384Y24281D1*
G1X486453Y24977D1*
G1X486384Y25672D1*
G1X486181Y26341D1*
G1X485852Y26957D1*
G1X485409Y27497D1*
G1X484869Y27940D1*
G1X484252Y28270D1*
G1X483584Y28473D1*
G1X483063Y28524D1*
G1X482714Y28524D1*
G1X482193Y28473D1*
G1X481524Y28270D1*
G1X480908Y27940D1*
G1X480368Y27497D1*
G1X479925Y26957D1*
G1X479595Y26341D1*
G1X479392Y25672D1*
G1X479324Y24977D1*
G37*
G36*
G1X640030Y33977D2*
G1X640030Y26882D1*
G1X647125Y26882D1*
G1X647125Y33977D1*
G1X640030Y33977D1*
G37*
G36*
G1X650013Y30429D2*
G1X650081Y29734D1*
G1X650284Y29065D1*
G1X650614Y28449D1*
G1X651057Y27909D1*
G1X651597Y27466D1*
G1X652213Y27136D1*
G1X652882Y26934D1*
G1X653403Y26882D1*
G1X653752Y26882D1*
G1X654273Y26934D1*
G1X654941Y27136D1*
G1X655558Y27466D1*
G1X656098Y27909D1*
G1X656541Y28449D1*
G1X656870Y29065D1*
G1X657073Y29734D1*
G1X657142Y30429D1*
G1X657073Y31125D1*
G1X656870Y31793D1*
G1X656541Y32410D1*
G1X656098Y32950D1*
G1X655558Y33393D1*
G1X654941Y33722D1*
G1X654273Y33925D1*
G1X653752Y33977D1*
G1X653403Y33977D1*
G1X652882Y33925D1*
G1X652213Y33722D1*
G1X651597Y33393D1*
G1X651057Y32950D1*
G1X650614Y32410D1*
G1X650284Y31793D1*
G1X650081Y31125D1*
G1X650013Y30429D1*
G37*
G36*
G1X446176Y91577D2*
G1X446421Y89087D1*
G1X447148Y86693D1*
G1X448327Y84486D1*
G1X449914Y82552D1*
G1X451848Y80965D1*
G1X454054Y79786D1*
G1X456449Y79060D1*
G1X458314Y78876D1*
G1X477062Y78876D1*
G1X478928Y79060D1*
G1X481322Y79786D1*
G1X483529Y80965D1*
G1X485463Y82552D1*
G1X487050Y84486D1*
G1X488229Y86693D1*
G1X488955Y89087D1*
G1X489201Y91577D1*
G1X488955Y94066D1*
G1X488229Y96461D1*
G1X487050Y98667D1*
G1X485463Y100601D1*
G1X483529Y102188D1*
G1X481322Y103367D1*
G1X478928Y104094D1*
G1X477062Y104277D1*
G1X458314Y104277D1*
G1X456449Y104094D1*
G1X454054Y103367D1*
G1X451848Y102188D1*
G1X449914Y100601D1*
G1X448327Y98667D1*
G1X447148Y96461D1*
G1X446421Y94066D1*
G1X446176Y91577D1*
G37*
G36*
G1X713176Y91577D2*
G1X713421Y89087D1*
G1X714148Y86693D1*
G1X715327Y84486D1*
G1X716914Y82552D1*
G1X718848Y80965D1*
G1X721054Y79786D1*
G1X723449Y79060D1*
G1X725314Y78876D1*
G1X744062Y78876D1*
G1X745928Y79060D1*
G1X748322Y79786D1*
G1X750529Y80965D1*
G1X752463Y82552D1*
G1X754050Y84486D1*
G1X755229Y86693D1*
G1X755955Y89087D1*
G1X756201Y91577D1*
G1X755955Y94066D1*
G1X755229Y96461D1*
G1X754050Y98667D1*
G1X752463Y100601D1*
G1X750529Y102188D1*
G1X748322Y103367D1*
G1X745928Y104094D1*
G1X744062Y104277D1*
G1X725314Y104277D1*
G1X723449Y104094D1*
G1X721054Y103367D1*
G1X718848Y102188D1*
G1X716914Y100601D1*
G1X715327Y98667D1*
G1X714148Y96461D1*
G1X713421Y94066D1*
G1X713176Y91577D1*
G37*
G36*
G1X531690Y133677D2*
G1X531760Y132971D1*
G1X531966Y132292D1*
G1X532300Y131666D1*
G1X532750Y131118D1*
G1X533298Y130668D1*
G1X533924Y130334D1*
G1X534602Y130128D1*
G1X535131Y130076D1*
G1X535485Y130076D1*
G1X536014Y130128D1*
G1X536693Y130334D1*
G1X537319Y130668D1*
G1X537867Y131118D1*
G1X538317Y131666D1*
G1X538651Y132292D1*
G1X538857Y132971D1*
G1X538927Y133677D1*
G1X538857Y134383D1*
G1X538651Y135061D1*
G1X538317Y135687D1*
G1X537867Y136235D1*
G1X537319Y136685D1*
G1X536693Y137019D1*
G1X536014Y137225D1*
G1X535485Y137277D1*
G1X535131Y137277D1*
G1X534602Y137225D1*
G1X533924Y137019D1*
G1X533298Y136685D1*
G1X532750Y136235D1*
G1X532300Y135687D1*
G1X531966Y135061D1*
G1X531760Y134383D1*
G1X531690Y133677D1*
G37*
G36*
G1X541690Y133677D2*
G1X541760Y132971D1*
G1X541966Y132292D1*
G1X542300Y131666D1*
G1X542750Y131118D1*
G1X543298Y130668D1*
G1X543924Y130334D1*
G1X544602Y130128D1*
G1X545131Y130076D1*
G1X545485Y130076D1*
G1X546014Y130128D1*
G1X546693Y130334D1*
G1X547319Y130668D1*
G1X547867Y131118D1*
G1X548317Y131666D1*
G1X548651Y132292D1*
G1X548857Y132971D1*
G1X548927Y133677D1*
G1X548857Y134383D1*
G1X548651Y135061D1*
G1X548317Y135687D1*
G1X547867Y136235D1*
G1X547319Y136685D1*
G1X546693Y137019D1*
G1X546014Y137225D1*
G1X545485Y137277D1*
G1X545131Y137277D1*
G1X544602Y137225D1*
G1X543924Y137019D1*
G1X543298Y136685D1*
G1X542750Y136235D1*
G1X542300Y135687D1*
G1X541966Y135061D1*
G1X541760Y134383D1*
G1X541690Y133677D1*
G37*
G36*
G1X541690Y143677D2*
G1X541760Y142971D1*
G1X541966Y142292D1*
G1X542300Y141666D1*
G1X542750Y141118D1*
G1X543298Y140668D1*
G1X543924Y140334D1*
G1X544602Y140128D1*
G1X545131Y140076D1*
G1X545485Y140076D1*
G1X546014Y140128D1*
G1X546693Y140334D1*
G1X547319Y140668D1*
G1X547867Y141118D1*
G1X548317Y141666D1*
G1X548651Y142292D1*
G1X548857Y142971D1*
G1X548927Y143677D1*
G1X548857Y144383D1*
G1X548651Y145061D1*
G1X548317Y145687D1*
G1X547867Y146235D1*
G1X547319Y146685D1*
G1X546693Y147019D1*
G1X546014Y147225D1*
G1X545485Y147277D1*
G1X545131Y147277D1*
G1X544602Y147225D1*
G1X543924Y147019D1*
G1X543298Y146685D1*
G1X542750Y146235D1*
G1X542300Y145687D1*
G1X541966Y145061D1*
G1X541760Y144383D1*
G1X541690Y143677D1*
G37*
G36*
G1X531690Y143677D2*
G1X531760Y142971D1*
G1X531966Y142292D1*
G1X532300Y141666D1*
G1X532750Y141118D1*
G1X533298Y140668D1*
G1X533924Y140334D1*
G1X534602Y140128D1*
G1X535131Y140076D1*
G1X535485Y140076D1*
G1X536014Y140128D1*
G1X536693Y140334D1*
G1X537319Y140668D1*
G1X537867Y141118D1*
G1X538317Y141666D1*
G1X538651Y142292D1*
G1X538857Y142971D1*
G1X538927Y143677D1*
G1X538857Y144383D1*
G1X538651Y145061D1*
G1X538317Y145687D1*
G1X537867Y146235D1*
G1X537319Y146685D1*
G1X536693Y147019D1*
G1X536014Y147225D1*
G1X535485Y147277D1*
G1X535131Y147277D1*
G1X534602Y147225D1*
G1X533924Y147019D1*
G1X533298Y146685D1*
G1X532750Y146235D1*
G1X532300Y145687D1*
G1X531966Y145061D1*
G1X531760Y144383D1*
G1X531690Y143677D1*
G37*
G36*
G1X412208Y161019D2*
G1X412792Y158083D1*
G1X413938Y155316D1*
G1X415601Y152827D1*
G1X417718Y150709D1*
G1X420208Y149046D1*
G1X422974Y147900D1*
G1X425911Y147316D1*
G1X428906Y147316D1*
G1X431842Y147900D1*
G1X434609Y149046D1*
G1X437098Y150709D1*
G1X439216Y152827D1*
G1X440879Y155316D1*
G1X442025Y158083D1*
G1X442609Y161019D1*
G1X442609Y164014D1*
G1X442025Y166951D1*
G1X440879Y169717D1*
G1X439216Y172207D1*
G1X437098Y174324D1*
G1X434609Y175987D1*
G1X431842Y177133D1*
G1X428906Y177717D1*
G1X425911Y177717D1*
G1X422974Y177133D1*
G1X420208Y175987D1*
G1X417718Y174324D1*
G1X415601Y172207D1*
G1X413938Y169717D1*
G1X412792Y166951D1*
G1X412208Y164014D1*
G1X412208Y161019D1*
G37*
G36*
G1X748188Y161019D2*
G1X748772Y158083D1*
G1X749918Y155316D1*
G1X751581Y152827D1*
G1X753698Y150709D1*
G1X756188Y149046D1*
G1X758954Y147900D1*
G1X761891Y147316D1*
G1X764886Y147316D1*
G1X767822Y147900D1*
G1X770589Y149046D1*
G1X773078Y150709D1*
G1X775196Y152827D1*
G1X776859Y155316D1*
G1X778005Y158083D1*
G1X778589Y161019D1*
G1X778589Y164014D1*
G1X778005Y166951D1*
G1X776859Y169717D1*
G1X775196Y172207D1*
G1X773078Y174324D1*
G1X770589Y175987D1*
G1X767822Y177133D1*
G1X764886Y177717D1*
G1X761891Y177717D1*
G1X758954Y177133D1*
G1X756188Y175987D1*
G1X753698Y174324D1*
G1X751581Y172207D1*
G1X749918Y169717D1*
G1X748772Y166951D1*
G1X748188Y164014D1*
G1X748188Y161019D1*
G37*
G36*
G1X541690Y153677D2*
G1X541760Y152971D1*
G1X541966Y152292D1*
G1X542300Y151666D1*
G1X542750Y151118D1*
G1X543298Y150668D1*
G1X543924Y150334D1*
G1X544602Y150128D1*
G1X545131Y150076D1*
G1X545485Y150076D1*
G1X546014Y150128D1*
G1X546693Y150334D1*
G1X547319Y150668D1*
G1X547867Y151118D1*
G1X548317Y151666D1*
G1X548651Y152292D1*
G1X548857Y152971D1*
G1X548927Y153677D1*
G1X548857Y154383D1*
G1X548651Y155061D1*
G1X548317Y155687D1*
G1X547867Y156235D1*
G1X547319Y156685D1*
G1X546693Y157019D1*
G1X546014Y157225D1*
G1X545485Y157277D1*
G1X545131Y157277D1*
G1X544602Y157225D1*
G1X543924Y157019D1*
G1X543298Y156685D1*
G1X542750Y156235D1*
G1X542300Y155687D1*
G1X541966Y155061D1*
G1X541760Y154383D1*
G1X541690Y153677D1*
G37*
G36*
G1X531708Y157277D2*
G1X531708Y150076D1*
G1X538909Y150076D1*
G1X538909Y157277D1*
G1X531708Y157277D1*
G37*
G36*
G1X712241Y157484D2*
G1X712241Y150389D1*
G1X719336Y150389D1*
G1X719336Y157484D1*
G1X712241Y157484D1*
G37*
G36*
G1X722224Y153937D2*
G1X722292Y153241D1*
G1X722495Y152573D1*
G1X722825Y151956D1*
G1X723268Y151416D1*
G1X723808Y150973D1*
G1X724424Y150644D1*
G1X725093Y150441D1*
G1X725614Y150389D1*
G1X725963Y150389D1*
G1X726484Y150441D1*
G1X727152Y150644D1*
G1X727769Y150973D1*
G1X728309Y151416D1*
G1X728752Y151956D1*
G1X729081Y152573D1*
G1X729284Y153241D1*
G1X729353Y153937D1*
G1X729284Y154632D1*
G1X729081Y155301D1*
G1X728752Y155917D1*
G1X728309Y156457D1*
G1X727769Y156900D1*
G1X727152Y157230D1*
G1X726484Y157433D1*
G1X725963Y157484D1*
G1X725614Y157484D1*
G1X725093Y157433D1*
G1X724424Y157230D1*
G1X723808Y156900D1*
G1X723268Y156457D1*
G1X722825Y155917D1*
G1X722495Y155301D1*
G1X722292Y154632D1*
G1X722224Y153937D1*
G37*
G36*
G1X712224Y163937D2*
G1X712292Y163241D1*
G1X712495Y162573D1*
G1X712825Y161956D1*
G1X713268Y161416D1*
G1X713808Y160973D1*
G1X714424Y160644D1*
G1X715093Y160441D1*
G1X715614Y160389D1*
G1X715963Y160389D1*
G1X716484Y160441D1*
G1X717152Y160644D1*
G1X717769Y160973D1*
G1X718309Y161416D1*
G1X718752Y161956D1*
G1X719081Y162573D1*
G1X719284Y163241D1*
G1X719353Y163937D1*
G1X719284Y164632D1*
G1X719081Y165301D1*
G1X718752Y165917D1*
G1X718309Y166457D1*
G1X717769Y166900D1*
G1X717152Y167230D1*
G1X716484Y167433D1*
G1X715963Y167484D1*
G1X715614Y167484D1*
G1X715093Y167433D1*
G1X714424Y167230D1*
G1X713808Y166900D1*
G1X713268Y166457D1*
G1X712825Y165917D1*
G1X712495Y165301D1*
G1X712292Y164632D1*
G1X712224Y163937D1*
G37*
G36*
G1X722224Y163937D2*
G1X722292Y163241D1*
G1X722495Y162573D1*
G1X722825Y161956D1*
G1X723268Y161416D1*
G1X723808Y160973D1*
G1X724424Y160644D1*
G1X725093Y160441D1*
G1X725614Y160389D1*
G1X725963Y160389D1*
G1X726484Y160441D1*
G1X727152Y160644D1*
G1X727769Y160973D1*
G1X728309Y161416D1*
G1X728752Y161956D1*
G1X729081Y162573D1*
G1X729284Y163241D1*
G1X729353Y163937D1*
G1X729284Y164632D1*
G1X729081Y165301D1*
G1X728752Y165917D1*
G1X728309Y166457D1*
G1X727769Y166900D1*
G1X727152Y167230D1*
G1X726484Y167433D1*
G1X725963Y167484D1*
G1X725614Y167484D1*
G1X725093Y167433D1*
G1X724424Y167230D1*
G1X723808Y166900D1*
G1X723268Y166457D1*
G1X722825Y165917D1*
G1X722495Y165301D1*
G1X722292Y164632D1*
G1X722224Y163937D1*
G37*
G36*
G1X619302Y169862D2*
G1X619302Y162768D1*
G1X626396Y162768D1*
G1X626396Y169862D1*
G1X619302Y169862D1*
G37*
G36*
G1X629285Y166315D2*
G1X629353Y165620D1*
G1X629556Y164951D1*
G1X629885Y164335D1*
G1X630329Y163795D1*
G1X630869Y163352D1*
G1X631485Y163022D1*
G1X632154Y162819D1*
G1X632675Y162768D1*
G1X633023Y162768D1*
G1X633544Y162819D1*
G1X634213Y163022D1*
G1X634829Y163352D1*
G1X635369Y163795D1*
G1X635813Y164335D1*
G1X636142Y164951D1*
G1X636345Y165620D1*
G1X636413Y166315D1*
G1X636345Y167011D1*
G1X636142Y167679D1*
G1X635813Y168296D1*
G1X635369Y168836D1*
G1X634829Y169279D1*
G1X634213Y169608D1*
G1X633544Y169811D1*
G1X633023Y169862D1*
G1X632675Y169862D1*
G1X632154Y169811D1*
G1X631485Y169608D1*
G1X630869Y169279D1*
G1X630329Y168836D1*
G1X629885Y168296D1*
G1X629556Y167679D1*
G1X629353Y167011D1*
G1X629285Y166315D1*
G37*
G36*
G1X639285Y166315D2*
G1X639353Y165620D1*
G1X639556Y164951D1*
G1X639885Y164335D1*
G1X640329Y163795D1*
G1X640869Y163352D1*
G1X641485Y163022D1*
G1X642154Y162819D1*
G1X642675Y162768D1*
G1X643023Y162768D1*
G1X643544Y162819D1*
G1X644213Y163022D1*
G1X644829Y163352D1*
G1X645369Y163795D1*
G1X645813Y164335D1*
G1X646142Y164951D1*
G1X646345Y165620D1*
G1X646413Y166315D1*
G1X646345Y167011D1*
G1X646142Y167679D1*
G1X645813Y168296D1*
G1X645369Y168836D1*
G1X644829Y169279D1*
G1X644213Y169608D1*
G1X643544Y169811D1*
G1X643023Y169862D1*
G1X642675Y169862D1*
G1X642154Y169811D1*
G1X641485Y169608D1*
G1X640869Y169279D1*
G1X640329Y168836D1*
G1X639885Y168296D1*
G1X639556Y167679D1*
G1X639353Y167011D1*
G1X639285Y166315D1*
G37*
G36*
G1X649285Y166315D2*
G1X649353Y165620D1*
G1X649556Y164951D1*
G1X649885Y164335D1*
G1X650329Y163795D1*
G1X650869Y163352D1*
G1X651485Y163022D1*
G1X652154Y162819D1*
G1X652675Y162768D1*
G1X653023Y162768D1*
G1X653544Y162819D1*
G1X654213Y163022D1*
G1X654829Y163352D1*
G1X655369Y163795D1*
G1X655813Y164335D1*
G1X656142Y164951D1*
G1X656345Y165620D1*
G1X656413Y166315D1*
G1X656345Y167011D1*
G1X656142Y167679D1*
G1X655813Y168296D1*
G1X655369Y168836D1*
G1X654829Y169279D1*
G1X654213Y169608D1*
G1X653544Y169811D1*
G1X653023Y169862D1*
G1X652675Y169862D1*
G1X652154Y169811D1*
G1X651485Y169608D1*
G1X650869Y169279D1*
G1X650329Y168836D1*
G1X649885Y168296D1*
G1X649556Y167679D1*
G1X649353Y167011D1*
G1X649285Y166315D1*
G37*
G36*
G1X712224Y173937D2*
G1X712292Y173241D1*
G1X712495Y172573D1*
G1X712825Y171956D1*
G1X713268Y171416D1*
G1X713808Y170973D1*
G1X714424Y170644D1*
G1X715093Y170441D1*
G1X715614Y170389D1*
G1X715963Y170389D1*
G1X716484Y170441D1*
G1X717152Y170644D1*
G1X717769Y170973D1*
G1X718309Y171416D1*
G1X718752Y171956D1*
G1X719081Y172573D1*
G1X719284Y173241D1*
G1X719353Y173937D1*
G1X719284Y174632D1*
G1X719081Y175301D1*
G1X718752Y175917D1*
G1X718309Y176457D1*
G1X717769Y176900D1*
G1X717152Y177230D1*
G1X716484Y177433D1*
G1X715963Y177484D1*
G1X715614Y177484D1*
G1X715093Y177433D1*
G1X714424Y177230D1*
G1X713808Y176900D1*
G1X713268Y176457D1*
G1X712825Y175917D1*
G1X712495Y175301D1*
G1X712292Y174632D1*
G1X712224Y173937D1*
G37*
G36*
G1X722224Y173937D2*
G1X722292Y173241D1*
G1X722495Y172573D1*
G1X722825Y171956D1*
G1X723268Y171416D1*
G1X723808Y170973D1*
G1X724424Y170644D1*
G1X725093Y170441D1*
G1X725614Y170389D1*
G1X725963Y170389D1*
G1X726484Y170441D1*
G1X727152Y170644D1*
G1X727769Y170973D1*
G1X728309Y171416D1*
G1X728752Y171956D1*
G1X729081Y172573D1*
G1X729284Y173241D1*
G1X729353Y173937D1*
G1X729284Y174632D1*
G1X729081Y175301D1*
G1X728752Y175917D1*
G1X728309Y176457D1*
G1X727769Y176900D1*
G1X727152Y177230D1*
G1X726484Y177433D1*
G1X725963Y177484D1*
G1X725614Y177484D1*
G1X725093Y177433D1*
G1X724424Y177230D1*
G1X723808Y176900D1*
G1X723268Y176457D1*
G1X722825Y175917D1*
G1X722495Y175301D1*
G1X722292Y174632D1*
G1X722224Y173937D1*
G37*
G1X114404Y360803D2*
G54D19*
G1X114685Y360521D1*
G1X115529Y360240D1*
G1X116091Y360240D1*
G1X116935Y360521D1*
G1X117497Y361084D1*
G1X117778Y361646D1*
G1X118060Y362771D1*
G1X118060Y363615D1*
G1X117778Y364740D1*
G1X117497Y365302D1*
G1X116935Y365865D1*
G1X116091Y366146D1*
G1X115529Y366146D1*
G1X114685Y365865D1*
G1X114404Y365583D1*
G1X111029Y360240D2*
G1X111592Y360521D1*
G1X111873Y360803D1*
G1X112154Y361365D1*
G1X112154Y363052D1*
G1X111873Y363615D1*
G1X111592Y363896D1*
G1X111029Y364177D1*
G1X110186Y364177D1*
G1X109623Y363896D1*
G1X109342Y363615D1*
G1X109061Y363052D1*
G1X109061Y361365D1*
G1X109342Y360803D1*
G1X109623Y360521D1*
G1X110186Y360240D1*
G1X111029Y360240D1*
G1X106530Y364177D2*
G1X106530Y360240D1*
G1X106530Y363615D2*
G1X106249Y363896D1*
G1X105686Y364177D1*
G1X104842Y364177D1*
G1X104280Y363896D1*
G1X103999Y363334D1*
G1X103999Y360240D1*
G1X101187Y364177D2*
G1X101187Y360240D1*
G1X101187Y363615D2*
G1X100905Y363896D1*
G1X100343Y364177D1*
G1X99499Y364177D1*
G1X98937Y363896D1*
G1X98656Y363334D1*
G1X98656Y360240D1*
G1X95000Y360240D2*
G1X95562Y360521D1*
G1X95844Y360803D1*
G1X96125Y361365D1*
G1X96125Y363052D1*
G1X95844Y363615D1*
G1X95562Y363896D1*
G1X95000Y364177D1*
G1X94156Y364177D1*
G1X93594Y363896D1*
G1X93313Y363615D1*
G1X93031Y363052D1*
G1X93031Y361365D1*
G1X93313Y360803D1*
G1X93594Y360521D1*
G1X94156Y360240D1*
G1X95000Y360240D1*
G1X90501Y360240D2*
G1X90501Y364177D1*
G1X90501Y363052D2*
G1X90219Y363615D1*
G1X89938Y363896D1*
G1X89376Y364177D1*
G1X88813Y364177D1*
G1X118341Y356106D2*
G1X116935Y350201D1*
G1X115810Y354419D1*
G1X114685Y350201D1*
G1X113279Y356106D1*
G1X111029Y350201D2*
G1X111029Y354138D1*
G1X111029Y356106D2*
G1X111310Y355825D1*
G1X111029Y355544D1*
G1X110748Y355825D1*
G1X111029Y356106D1*
G1X111029Y355544D1*
G1X108217Y354138D2*
G1X108217Y350201D1*
G1X108217Y353575D2*
G1X107936Y353857D1*
G1X107373Y354138D1*
G1X106530Y354138D1*
G1X105967Y353857D1*
G1X105686Y353294D1*
G1X105686Y350201D1*
G1X102874Y350201D2*
G1X102874Y354138D1*
G1X102874Y356106D2*
G1X103155Y355825D1*
G1X102874Y355544D1*
G1X102593Y355825D1*
G1X102874Y356106D1*
G1X102874Y355544D1*
G1X97531Y350201D2*
G1X97531Y353294D1*
G1X97812Y353857D1*
G1X98375Y354138D1*
G1X99499Y354138D1*
G1X100062Y353857D1*
G1X97531Y350482D2*
G1X98093Y350201D1*
G1X99499Y350201D1*
G1X100062Y350482D1*
G1X100343Y351044D1*
G1X100343Y351607D1*
G1X100062Y352169D1*
G1X99499Y352451D1*
G1X98093Y352451D1*
G1X97531Y352732D1*
G1X94719Y350201D2*
G1X94719Y354138D1*
G1X94719Y353013D2*
G1X94438Y353575D1*
G1X94156Y353857D1*
G1X93594Y354138D1*
G1X93031Y354138D1*
G1X88532Y350482D2*
G1X89094Y350201D1*
G1X90219Y350201D1*
G1X90782Y350482D1*
G1X91063Y350763D1*
G1X91344Y351326D1*
G1X91344Y353013D1*
G1X91063Y353575D1*
G1X90782Y353857D1*
G1X90219Y354138D1*
G1X89094Y354138D1*
G1X88532Y353857D1*
G1X86564Y354138D2*
G1X83470Y354138D1*
G1X86564Y350201D1*
G1X83470Y350201D1*
G1X81783Y354138D2*
G1X80377Y350201D1*
G1X78971Y354138D2*
G1X80377Y350201D1*
G1X80939Y348795D1*
G1X81220Y348514D1*
G1X81783Y348232D1*
G1X76721Y350201D2*
G1X76721Y356106D1*
G1X76159Y352451D2*
G1X74471Y350201D1*
G1X74471Y354138D2*
G1X76721Y351888D1*
G1X67160Y356106D2*
G1X67722Y354981D1*
G1X64910Y355544D2*
G1X64629Y355825D1*
G1X64066Y356106D1*
G1X62660Y356106D1*
G1X62098Y355825D1*
G1X61817Y355544D1*
G1X61535Y354981D1*
G1X61535Y354419D1*
G1X61817Y353575D1*
G1X65191Y350201D1*
G1X61535Y350201D1*
G1X57880Y356106D2*
G1X57317Y356106D1*
G1X56755Y355825D1*
G1X56474Y355544D1*
G1X56192Y354981D1*
G1X55911Y353857D1*
G1X55911Y352451D1*
G1X56192Y351326D1*
G1X56474Y350763D1*
G1X56755Y350482D1*
G1X57317Y350201D1*
G1X57880Y350201D1*
G1X58442Y350482D1*
G1X58723Y350763D1*
G1X59004Y351326D1*
G1X59286Y352451D1*
G1X59286Y353857D1*
G1X59004Y354981D1*
G1X58723Y355544D1*
G1X58442Y355825D1*
G1X57880Y356106D1*
G54D20*
G36*
G1X348188Y214079D2*
G1X348772Y211143D1*
G1X349918Y208376D1*
G1X351581Y205887D1*
G1X353698Y203769D1*
G1X356188Y202106D1*
G1X358954Y200960D1*
G1X361891Y200376D1*
G1X364886Y200376D1*
G1X367822Y200960D1*
G1X370589Y202106D1*
G1X373078Y203769D1*
G1X375196Y205887D1*
G1X376859Y208376D1*
G1X378005Y211143D1*
G1X378589Y214079D1*
G1X378589Y217074D1*
G1X378005Y220011D1*
G1X376859Y222777D1*
G1X375196Y225267D1*
G1X373078Y227384D1*
G1X370589Y229047D1*
G1X367822Y230193D1*
G1X364886Y230777D1*
G1X361891Y230777D1*
G1X358954Y230193D1*
G1X356188Y229047D1*
G1X353698Y227384D1*
G1X351581Y225267D1*
G1X349918Y222777D1*
G1X348772Y220011D1*
G1X348188Y217074D1*
G1X348188Y214079D1*
G37*
G36*
G1X12208Y214079D2*
G1X12792Y211143D1*
G1X13938Y208376D1*
G1X15601Y205887D1*
G1X17718Y203769D1*
G1X20208Y202106D1*
G1X22974Y200960D1*
G1X25911Y200376D1*
G1X28906Y200376D1*
G1X31842Y200960D1*
G1X34609Y202106D1*
G1X37098Y203769D1*
G1X39216Y205887D1*
G1X40879Y208376D1*
G1X42025Y211143D1*
G1X42609Y214079D1*
G1X42609Y217074D1*
G1X42025Y220011D1*
G1X40879Y222777D1*
G1X39216Y225267D1*
G1X37098Y227384D1*
G1X34609Y229047D1*
G1X31842Y230193D1*
G1X28906Y230777D1*
G1X25911Y230777D1*
G1X22974Y230193D1*
G1X20208Y229047D1*
G1X17718Y227384D1*
G1X15601Y225267D1*
G1X13938Y222777D1*
G1X12792Y220011D1*
G1X12208Y217074D1*
G1X12208Y214079D1*
G37*
G36*
G1X69341Y218524D2*
G1X69341Y211429D1*
G1X76436Y211429D1*
G1X76436Y218524D1*
G1X69341Y218524D1*
G37*
G36*
G1X319324Y214977D2*
G1X319392Y214281D1*
G1X319595Y213613D1*
G1X319925Y212996D1*
G1X320368Y212456D1*
G1X320908Y212013D1*
G1X321524Y211684D1*
G1X322193Y211481D1*
G1X322714Y211429D1*
G1X323063Y211429D1*
G1X323584Y211481D1*
G1X324252Y211684D1*
G1X324869Y212013D1*
G1X325409Y212456D1*
G1X325852Y212996D1*
G1X326181Y213613D1*
G1X326384Y214281D1*
G1X326453Y214977D1*
G1X326384Y215672D1*
G1X326181Y216341D1*
G1X325852Y216957D1*
G1X325409Y217497D1*
G1X324869Y217940D1*
G1X324252Y218270D1*
G1X323584Y218473D1*
G1X323063Y218524D1*
G1X322714Y218524D1*
G1X322193Y218473D1*
G1X321524Y218270D1*
G1X320908Y217940D1*
G1X320368Y217497D1*
G1X319925Y216957D1*
G1X319595Y216341D1*
G1X319392Y215672D1*
G1X319324Y214977D1*
G37*
G36*
G1X309341Y218524D2*
G1X309341Y211429D1*
G1X316436Y211429D1*
G1X316436Y218524D1*
G1X309341Y218524D1*
G37*
G36*
G1X79324Y214977D2*
G1X79392Y214281D1*
G1X79595Y213613D1*
G1X79925Y212996D1*
G1X80368Y212456D1*
G1X80908Y212013D1*
G1X81524Y211684D1*
G1X82193Y211481D1*
G1X82714Y211429D1*
G1X83063Y211429D1*
G1X83584Y211481D1*
G1X84252Y211684D1*
G1X84869Y212013D1*
G1X85409Y212456D1*
G1X85852Y212996D1*
G1X86181Y213613D1*
G1X86384Y214281D1*
G1X86453Y214977D1*
G1X86384Y215672D1*
G1X86181Y216341D1*
G1X85852Y216957D1*
G1X85409Y217497D1*
G1X84869Y217940D1*
G1X84252Y218270D1*
G1X83584Y218473D1*
G1X83063Y218524D1*
G1X82714Y218524D1*
G1X82193Y218473D1*
G1X81524Y218270D1*
G1X80908Y217940D1*
G1X80368Y217497D1*
G1X79925Y216957D1*
G1X79595Y216341D1*
G1X79392Y215672D1*
G1X79324Y214977D1*
G37*
G36*
G1X240030Y223977D2*
G1X240030Y216882D1*
G1X247125Y216882D1*
G1X247125Y223977D1*
G1X240030Y223977D1*
G37*
G36*
G1X250013Y220429D2*
G1X250081Y219734D1*
G1X250284Y219065D1*
G1X250614Y218449D1*
G1X251057Y217909D1*
G1X251597Y217466D1*
G1X252213Y217136D1*
G1X252882Y216934D1*
G1X253403Y216882D1*
G1X253752Y216882D1*
G1X254273Y216934D1*
G1X254941Y217136D1*
G1X255558Y217466D1*
G1X256098Y217909D1*
G1X256541Y218449D1*
G1X256870Y219065D1*
G1X257073Y219734D1*
G1X257142Y220429D1*
G1X257073Y221125D1*
G1X256870Y221793D1*
G1X256541Y222410D1*
G1X256098Y222950D1*
G1X255558Y223393D1*
G1X254941Y223722D1*
G1X254273Y223925D1*
G1X253752Y223977D1*
G1X253403Y223977D1*
G1X252882Y223925D1*
G1X252213Y223722D1*
G1X251597Y223393D1*
G1X251057Y222950D1*
G1X250614Y222410D1*
G1X250284Y221793D1*
G1X250081Y221125D1*
G1X250013Y220429D1*
G37*
G36*
G1X46176Y281577D2*
G1X46421Y279087D1*
G1X47148Y276693D1*
G1X48327Y274486D1*
G1X49914Y272552D1*
G1X51848Y270965D1*
G1X54054Y269786D1*
G1X56449Y269060D1*
G1X58314Y268876D1*
G1X77062Y268876D1*
G1X78928Y269060D1*
G1X81322Y269786D1*
G1X83529Y270965D1*
G1X85463Y272552D1*
G1X87050Y274486D1*
G1X88229Y276693D1*
G1X88955Y279087D1*
G1X89201Y281577D1*
G1X88955Y284066D1*
G1X88229Y286461D1*
G1X87050Y288667D1*
G1X85463Y290601D1*
G1X83529Y292188D1*
G1X81322Y293367D1*
G1X78928Y294094D1*
G1X77062Y294277D1*
G1X58314Y294277D1*
G1X56449Y294094D1*
G1X54054Y293367D1*
G1X51848Y292188D1*
G1X49914Y290601D1*
G1X48327Y288667D1*
G1X47148Y286461D1*
G1X46421Y284066D1*
G1X46176Y281577D1*
G37*
G36*
G1X313176Y281577D2*
G1X313421Y279087D1*
G1X314148Y276693D1*
G1X315327Y274486D1*
G1X316914Y272552D1*
G1X318848Y270965D1*
G1X321054Y269786D1*
G1X323449Y269060D1*
G1X325314Y268876D1*
G1X344062Y268876D1*
G1X345928Y269060D1*
G1X348322Y269786D1*
G1X350529Y270965D1*
G1X352463Y272552D1*
G1X354050Y274486D1*
G1X355229Y276693D1*
G1X355955Y279087D1*
G1X356201Y281577D1*
G1X355955Y284066D1*
G1X355229Y286461D1*
G1X354050Y288667D1*
G1X352463Y290601D1*
G1X350529Y292188D1*
G1X348322Y293367D1*
G1X345928Y294094D1*
G1X344062Y294277D1*
G1X325314Y294277D1*
G1X323449Y294094D1*
G1X321054Y293367D1*
G1X318848Y292188D1*
G1X316914Y290601D1*
G1X315327Y288667D1*
G1X314148Y286461D1*
G1X313421Y284066D1*
G1X313176Y281577D1*
G37*
G36*
G1X131690Y323677D2*
G1X131760Y322971D1*
G1X131966Y322292D1*
G1X132300Y321666D1*
G1X132750Y321118D1*
G1X133298Y320668D1*
G1X133924Y320334D1*
G1X134602Y320128D1*
G1X135131Y320076D1*
G1X135485Y320076D1*
G1X136014Y320128D1*
G1X136693Y320334D1*
G1X137319Y320668D1*
G1X137867Y321118D1*
G1X138317Y321666D1*
G1X138651Y322292D1*
G1X138857Y322971D1*
G1X138927Y323677D1*
G1X138857Y324383D1*
G1X138651Y325061D1*
G1X138317Y325687D1*
G1X137867Y326235D1*
G1X137319Y326685D1*
G1X136693Y327019D1*
G1X136014Y327225D1*
G1X135485Y327277D1*
G1X135131Y327277D1*
G1X134602Y327225D1*
G1X133924Y327019D1*
G1X133298Y326685D1*
G1X132750Y326235D1*
G1X132300Y325687D1*
G1X131966Y325061D1*
G1X131760Y324383D1*
G1X131690Y323677D1*
G37*
G36*
G1X141690Y323677D2*
G1X141760Y322971D1*
G1X141966Y322292D1*
G1X142300Y321666D1*
G1X142750Y321118D1*
G1X143298Y320668D1*
G1X143924Y320334D1*
G1X144602Y320128D1*
G1X145131Y320076D1*
G1X145485Y320076D1*
G1X146014Y320128D1*
G1X146693Y320334D1*
G1X147319Y320668D1*
G1X147867Y321118D1*
G1X148317Y321666D1*
G1X148651Y322292D1*
G1X148857Y322971D1*
G1X148927Y323677D1*
G1X148857Y324383D1*
G1X148651Y325061D1*
G1X148317Y325687D1*
G1X147867Y326235D1*
G1X147319Y326685D1*
G1X146693Y327019D1*
G1X146014Y327225D1*
G1X145485Y327277D1*
G1X145131Y327277D1*
G1X144602Y327225D1*
G1X143924Y327019D1*
G1X143298Y326685D1*
G1X142750Y326235D1*
G1X142300Y325687D1*
G1X141966Y325061D1*
G1X141760Y324383D1*
G1X141690Y323677D1*
G37*
G36*
G1X141690Y333677D2*
G1X141760Y332971D1*
G1X141966Y332292D1*
G1X142300Y331666D1*
G1X142750Y331118D1*
G1X143298Y330668D1*
G1X143924Y330334D1*
G1X144602Y330128D1*
G1X145131Y330076D1*
G1X145485Y330076D1*
G1X146014Y330128D1*
G1X146693Y330334D1*
G1X147319Y330668D1*
G1X147867Y331118D1*
G1X148317Y331666D1*
G1X148651Y332292D1*
G1X148857Y332971D1*
G1X148927Y333677D1*
G1X148857Y334383D1*
G1X148651Y335061D1*
G1X148317Y335687D1*
G1X147867Y336235D1*
G1X147319Y336685D1*
G1X146693Y337019D1*
G1X146014Y337225D1*
G1X145485Y337277D1*
G1X145131Y337277D1*
G1X144602Y337225D1*
G1X143924Y337019D1*
G1X143298Y336685D1*
G1X142750Y336235D1*
G1X142300Y335687D1*
G1X141966Y335061D1*
G1X141760Y334383D1*
G1X141690Y333677D1*
G37*
G36*
G1X131690Y333677D2*
G1X131760Y332971D1*
G1X131966Y332292D1*
G1X132300Y331666D1*
G1X132750Y331118D1*
G1X133298Y330668D1*
G1X133924Y330334D1*
G1X134602Y330128D1*
G1X135131Y330076D1*
G1X135485Y330076D1*
G1X136014Y330128D1*
G1X136693Y330334D1*
G1X137319Y330668D1*
G1X137867Y331118D1*
G1X138317Y331666D1*
G1X138651Y332292D1*
G1X138857Y332971D1*
G1X138927Y333677D1*
G1X138857Y334383D1*
G1X138651Y335061D1*
G1X138317Y335687D1*
G1X137867Y336235D1*
G1X137319Y336685D1*
G1X136693Y337019D1*
G1X136014Y337225D1*
G1X135485Y337277D1*
G1X135131Y337277D1*
G1X134602Y337225D1*
G1X133924Y337019D1*
G1X133298Y336685D1*
G1X132750Y336235D1*
G1X132300Y335687D1*
G1X131966Y335061D1*
G1X131760Y334383D1*
G1X131690Y333677D1*
G37*
G36*
G1X12208Y351019D2*
G1X12792Y348083D1*
G1X13938Y345316D1*
G1X15601Y342827D1*
G1X17718Y340709D1*
G1X20208Y339046D1*
G1X22974Y337900D1*
G1X25911Y337316D1*
G1X28906Y337316D1*
G1X31842Y337900D1*
G1X34609Y339046D1*
G1X37098Y340709D1*
G1X39216Y342827D1*
G1X40879Y345316D1*
G1X42025Y348083D1*
G1X42609Y351019D1*
G1X42609Y354014D1*
G1X42025Y356951D1*
G1X40879Y359717D1*
G1X39216Y362207D1*
G1X37098Y364324D1*
G1X34609Y365987D1*
G1X31842Y367133D1*
G1X28906Y367717D1*
G1X25911Y367717D1*
G1X22974Y367133D1*
G1X20208Y365987D1*
G1X17718Y364324D1*
G1X15601Y362207D1*
G1X13938Y359717D1*
G1X12792Y356951D1*
G1X12208Y354014D1*
G1X12208Y351019D1*
G37*
G36*
G1X348188Y351019D2*
G1X348772Y348083D1*
G1X349918Y345316D1*
G1X351581Y342827D1*
G1X353698Y340709D1*
G1X356188Y339046D1*
G1X358954Y337900D1*
G1X361891Y337316D1*
G1X364886Y337316D1*
G1X367822Y337900D1*
G1X370589Y339046D1*
G1X373078Y340709D1*
G1X375196Y342827D1*
G1X376859Y345316D1*
G1X378005Y348083D1*
G1X378589Y351019D1*
G1X378589Y354014D1*
G1X378005Y356951D1*
G1X376859Y359717D1*
G1X375196Y362207D1*
G1X373078Y364324D1*
G1X370589Y365987D1*
G1X367822Y367133D1*
G1X364886Y367717D1*
G1X361891Y367717D1*
G1X358954Y367133D1*
G1X356188Y365987D1*
G1X353698Y364324D1*
G1X351581Y362207D1*
G1X349918Y359717D1*
G1X348772Y356951D1*
G1X348188Y354014D1*
G1X348188Y351019D1*
G37*
G36*
G1X141690Y343677D2*
G1X141760Y342971D1*
G1X141966Y342292D1*
G1X142300Y341666D1*
G1X142750Y341118D1*
G1X143298Y340668D1*
G1X143924Y340334D1*
G1X144602Y340128D1*
G1X145131Y340076D1*
G1X145485Y340076D1*
G1X146014Y340128D1*
G1X146693Y340334D1*
G1X147319Y340668D1*
G1X147867Y341118D1*
G1X148317Y341666D1*
G1X148651Y342292D1*
G1X148857Y342971D1*
G1X148927Y343677D1*
G1X148857Y344383D1*
G1X148651Y345061D1*
G1X148317Y345687D1*
G1X147867Y346235D1*
G1X147319Y346685D1*
G1X146693Y347019D1*
G1X146014Y347225D1*
G1X145485Y347277D1*
G1X145131Y347277D1*
G1X144602Y347225D1*
G1X143924Y347019D1*
G1X143298Y346685D1*
G1X142750Y346235D1*
G1X142300Y345687D1*
G1X141966Y345061D1*
G1X141760Y344383D1*
G1X141690Y343677D1*
G37*
G36*
G1X131708Y347277D2*
G1X131708Y340076D1*
G1X138909Y340076D1*
G1X138909Y347277D1*
G1X131708Y347277D1*
G37*
G36*
G1X312241Y347484D2*
G1X312241Y340389D1*
G1X319336Y340389D1*
G1X319336Y347484D1*
G1X312241Y347484D1*
G37*
G36*
G1X322224Y343937D2*
G1X322292Y343241D1*
G1X322495Y342573D1*
G1X322825Y341956D1*
G1X323268Y341416D1*
G1X323808Y340973D1*
G1X324424Y340644D1*
G1X325093Y340441D1*
G1X325614Y340389D1*
G1X325963Y340389D1*
G1X326484Y340441D1*
G1X327152Y340644D1*
G1X327769Y340973D1*
G1X328309Y341416D1*
G1X328752Y341956D1*
G1X329081Y342573D1*
G1X329284Y343241D1*
G1X329353Y343937D1*
G1X329284Y344632D1*
G1X329081Y345301D1*
G1X328752Y345917D1*
G1X328309Y346457D1*
G1X327769Y346900D1*
G1X327152Y347230D1*
G1X326484Y347433D1*
G1X325963Y347484D1*
G1X325614Y347484D1*
G1X325093Y347433D1*
G1X324424Y347230D1*
G1X323808Y346900D1*
G1X323268Y346457D1*
G1X322825Y345917D1*
G1X322495Y345301D1*
G1X322292Y344632D1*
G1X322224Y343937D1*
G37*
G36*
G1X312224Y353937D2*
G1X312292Y353241D1*
G1X312495Y352573D1*
G1X312825Y351956D1*
G1X313268Y351416D1*
G1X313808Y350973D1*
G1X314424Y350644D1*
G1X315093Y350441D1*
G1X315614Y350389D1*
G1X315963Y350389D1*
G1X316484Y350441D1*
G1X317152Y350644D1*
G1X317769Y350973D1*
G1X318309Y351416D1*
G1X318752Y351956D1*
G1X319081Y352573D1*
G1X319284Y353241D1*
G1X319353Y353937D1*
G1X319284Y354632D1*
G1X319081Y355301D1*
G1X318752Y355917D1*
G1X318309Y356457D1*
G1X317769Y356900D1*
G1X317152Y357230D1*
G1X316484Y357433D1*
G1X315963Y357484D1*
G1X315614Y357484D1*
G1X315093Y357433D1*
G1X314424Y357230D1*
G1X313808Y356900D1*
G1X313268Y356457D1*
G1X312825Y355917D1*
G1X312495Y355301D1*
G1X312292Y354632D1*
G1X312224Y353937D1*
G37*
G36*
G1X322224Y353937D2*
G1X322292Y353241D1*
G1X322495Y352573D1*
G1X322825Y351956D1*
G1X323268Y351416D1*
G1X323808Y350973D1*
G1X324424Y350644D1*
G1X325093Y350441D1*
G1X325614Y350389D1*
G1X325963Y350389D1*
G1X326484Y350441D1*
G1X327152Y350644D1*
G1X327769Y350973D1*
G1X328309Y351416D1*
G1X328752Y351956D1*
G1X329081Y352573D1*
G1X329284Y353241D1*
G1X329353Y353937D1*
G1X329284Y354632D1*
G1X329081Y355301D1*
G1X328752Y355917D1*
G1X328309Y356457D1*
G1X327769Y356900D1*
G1X327152Y357230D1*
G1X326484Y357433D1*
G1X325963Y357484D1*
G1X325614Y357484D1*
G1X325093Y357433D1*
G1X324424Y357230D1*
G1X323808Y356900D1*
G1X323268Y356457D1*
G1X322825Y355917D1*
G1X322495Y355301D1*
G1X322292Y354632D1*
G1X322224Y353937D1*
G37*
G36*
G1X219302Y359862D2*
G1X219302Y352768D1*
G1X226396Y352768D1*
G1X226396Y359862D1*
G1X219302Y359862D1*
G37*
G36*
G1X229285Y356315D2*
G1X229353Y355620D1*
G1X229556Y354951D1*
G1X229885Y354335D1*
G1X230329Y353795D1*
G1X230869Y353352D1*
G1X231485Y353022D1*
G1X232154Y352819D1*
G1X232675Y352768D1*
G1X233023Y352768D1*
G1X233544Y352819D1*
G1X234213Y353022D1*
G1X234829Y353352D1*
G1X235369Y353795D1*
G1X235813Y354335D1*
G1X236142Y354951D1*
G1X236345Y355620D1*
G1X236413Y356315D1*
G1X236345Y357011D1*
G1X236142Y357679D1*
G1X235813Y358296D1*
G1X235369Y358836D1*
G1X234829Y359279D1*
G1X234213Y359608D1*
G1X233544Y359811D1*
G1X233023Y359862D1*
G1X232675Y359862D1*
G1X232154Y359811D1*
G1X231485Y359608D1*
G1X230869Y359279D1*
G1X230329Y358836D1*
G1X229885Y358296D1*
G1X229556Y357679D1*
G1X229353Y357011D1*
G1X229285Y356315D1*
G37*
G36*
G1X239285Y356315D2*
G1X239353Y355620D1*
G1X239556Y354951D1*
G1X239885Y354335D1*
G1X240329Y353795D1*
G1X240869Y353352D1*
G1X241485Y353022D1*
G1X242154Y352819D1*
G1X242675Y352768D1*
G1X243023Y352768D1*
G1X243544Y352819D1*
G1X244213Y353022D1*
G1X244829Y353352D1*
G1X245369Y353795D1*
G1X245813Y354335D1*
G1X246142Y354951D1*
G1X246345Y355620D1*
G1X246413Y356315D1*
G1X246345Y357011D1*
G1X246142Y357679D1*
G1X245813Y358296D1*
G1X245369Y358836D1*
G1X244829Y359279D1*
G1X244213Y359608D1*
G1X243544Y359811D1*
G1X243023Y359862D1*
G1X242675Y359862D1*
G1X242154Y359811D1*
G1X241485Y359608D1*
G1X240869Y359279D1*
G1X240329Y358836D1*
G1X239885Y358296D1*
G1X239556Y357679D1*
G1X239353Y357011D1*
G1X239285Y356315D1*
G37*
G36*
G1X249285Y356315D2*
G1X249353Y355620D1*
G1X249556Y354951D1*
G1X249885Y354335D1*
G1X250329Y353795D1*
G1X250869Y353352D1*
G1X251485Y353022D1*
G1X252154Y352819D1*
G1X252675Y352768D1*
G1X253023Y352768D1*
G1X253544Y352819D1*
G1X254213Y353022D1*
G1X254829Y353352D1*
G1X255369Y353795D1*
G1X255813Y354335D1*
G1X256142Y354951D1*
G1X256345Y355620D1*
G1X256413Y356315D1*
G1X256345Y357011D1*
G1X256142Y357679D1*
G1X255813Y358296D1*
G1X255369Y358836D1*
G1X254829Y359279D1*
G1X254213Y359608D1*
G1X253544Y359811D1*
G1X253023Y359862D1*
G1X252675Y359862D1*
G1X252154Y359811D1*
G1X251485Y359608D1*
G1X250869Y359279D1*
G1X250329Y358836D1*
G1X249885Y358296D1*
G1X249556Y357679D1*
G1X249353Y357011D1*
G1X249285Y356315D1*
G37*
G36*
G1X312224Y363937D2*
G1X312292Y363241D1*
G1X312495Y362573D1*
G1X312825Y361956D1*
G1X313268Y361416D1*
G1X313808Y360973D1*
G1X314424Y360644D1*
G1X315093Y360441D1*
G1X315614Y360389D1*
G1X315963Y360389D1*
G1X316484Y360441D1*
G1X317152Y360644D1*
G1X317769Y360973D1*
G1X318309Y361416D1*
G1X318752Y361956D1*
G1X319081Y362573D1*
G1X319284Y363241D1*
G1X319353Y363937D1*
G1X319284Y364632D1*
G1X319081Y365301D1*
G1X318752Y365917D1*
G1X318309Y366457D1*
G1X317769Y366900D1*
G1X317152Y367230D1*
G1X316484Y367433D1*
G1X315963Y367484D1*
G1X315614Y367484D1*
G1X315093Y367433D1*
G1X314424Y367230D1*
G1X313808Y366900D1*
G1X313268Y366457D1*
G1X312825Y365917D1*
G1X312495Y365301D1*
G1X312292Y364632D1*
G1X312224Y363937D1*
G37*
G36*
G1X322224Y363937D2*
G1X322292Y363241D1*
G1X322495Y362573D1*
G1X322825Y361956D1*
G1X323268Y361416D1*
G1X323808Y360973D1*
G1X324424Y360644D1*
G1X325093Y360441D1*
G1X325614Y360389D1*
G1X325963Y360389D1*
G1X326484Y360441D1*
G1X327152Y360644D1*
G1X327769Y360973D1*
G1X328309Y361416D1*
G1X328752Y361956D1*
G1X329081Y362573D1*
G1X329284Y363241D1*
G1X329353Y363937D1*
G1X329284Y364632D1*
G1X329081Y365301D1*
G1X328752Y365917D1*
G1X328309Y366457D1*
G1X327769Y366900D1*
G1X327152Y367230D1*
G1X326484Y367433D1*
G1X325963Y367484D1*
G1X325614Y367484D1*
G1X325093Y367433D1*
G1X324424Y367230D1*
G1X323808Y366900D1*
G1X323268Y366457D1*
G1X322825Y365917D1*
G1X322495Y365301D1*
G1X322292Y364632D1*
G1X322224Y363937D1*
G37*
G1X514404Y360803D2*
G54D19*
G1X514685Y360521D1*
G1X515529Y360240D1*
G1X516091Y360240D1*
G1X516935Y360521D1*
G1X517497Y361084D1*
G1X517778Y361646D1*
G1X518060Y362771D1*
G1X518060Y363615D1*
G1X517778Y364740D1*
G1X517497Y365302D1*
G1X516935Y365865D1*
G1X516091Y366146D1*
G1X515529Y366146D1*
G1X514685Y365865D1*
G1X514404Y365583D1*
G1X511029Y360240D2*
G1X511592Y360521D1*
G1X511873Y360803D1*
G1X512154Y361365D1*
G1X512154Y363052D1*
G1X511873Y363615D1*
G1X511592Y363896D1*
G1X511029Y364177D1*
G1X510186Y364177D1*
G1X509623Y363896D1*
G1X509342Y363615D1*
G1X509061Y363052D1*
G1X509061Y361365D1*
G1X509342Y360803D1*
G1X509623Y360521D1*
G1X510186Y360240D1*
G1X511029Y360240D1*
G1X506530Y364177D2*
G1X506530Y360240D1*
G1X506530Y363615D2*
G1X506249Y363896D1*
G1X505686Y364177D1*
G1X504842Y364177D1*
G1X504280Y363896D1*
G1X503999Y363334D1*
G1X503999Y360240D1*
G1X501187Y364177D2*
G1X501187Y360240D1*
G1X501187Y363615D2*
G1X500905Y363896D1*
G1X500343Y364177D1*
G1X499499Y364177D1*
G1X498937Y363896D1*
G1X498656Y363334D1*
G1X498656Y360240D1*
G1X495000Y360240D2*
G1X495562Y360521D1*
G1X495844Y360803D1*
G1X496125Y361365D1*
G1X496125Y363052D1*
G1X495844Y363615D1*
G1X495562Y363896D1*
G1X495000Y364177D1*
G1X494156Y364177D1*
G1X493594Y363896D1*
G1X493313Y363615D1*
G1X493031Y363052D1*
G1X493031Y361365D1*
G1X493313Y360803D1*
G1X493594Y360521D1*
G1X494156Y360240D1*
G1X495000Y360240D1*
G1X490501Y360240D2*
G1X490501Y364177D1*
G1X490501Y363052D2*
G1X490219Y363615D1*
G1X489938Y363896D1*
G1X489376Y364177D1*
G1X488813Y364177D1*
G1X518341Y356106D2*
G1X516935Y350201D1*
G1X515810Y354419D1*
G1X514685Y350201D1*
G1X513279Y356106D1*
G1X511029Y350201D2*
G1X511029Y354138D1*
G1X511029Y356106D2*
G1X511310Y355825D1*
G1X511029Y355544D1*
G1X510748Y355825D1*
G1X511029Y356106D1*
G1X511029Y355544D1*
G1X508217Y354138D2*
G1X508217Y350201D1*
G1X508217Y353575D2*
G1X507936Y353857D1*
G1X507373Y354138D1*
G1X506530Y354138D1*
G1X505967Y353857D1*
G1X505686Y353294D1*
G1X505686Y350201D1*
G1X502874Y350201D2*
G1X502874Y354138D1*
G1X502874Y356106D2*
G1X503155Y355825D1*
G1X502874Y355544D1*
G1X502593Y355825D1*
G1X502874Y356106D1*
G1X502874Y355544D1*
G1X497531Y350201D2*
G1X497531Y353294D1*
G1X497812Y353857D1*
G1X498375Y354138D1*
G1X499499Y354138D1*
G1X500062Y353857D1*
G1X497531Y350482D2*
G1X498093Y350201D1*
G1X499499Y350201D1*
G1X500062Y350482D1*
G1X500343Y351044D1*
G1X500343Y351607D1*
G1X500062Y352169D1*
G1X499499Y352451D1*
G1X498093Y352451D1*
G1X497531Y352732D1*
G1X494719Y350201D2*
G1X494719Y354138D1*
G1X494719Y353013D2*
G1X494438Y353575D1*
G1X494156Y353857D1*
G1X493594Y354138D1*
G1X493031Y354138D1*
G1X488532Y350482D2*
G1X489094Y350201D1*
G1X490219Y350201D1*
G1X490782Y350482D1*
G1X491063Y350763D1*
G1X491344Y351326D1*
G1X491344Y353013D1*
G1X491063Y353575D1*
G1X490782Y353857D1*
G1X490219Y354138D1*
G1X489094Y354138D1*
G1X488532Y353857D1*
G1X486564Y354138D2*
G1X483470Y354138D1*
G1X486564Y350201D1*
G1X483470Y350201D1*
G1X481783Y354138D2*
G1X480377Y350201D1*
G1X478971Y354138D2*
G1X480377Y350201D1*
G1X480939Y348795D1*
G1X481220Y348514D1*
G1X481783Y348232D1*
G1X476721Y350201D2*
G1X476721Y356106D1*
G1X476159Y352451D2*
G1X474471Y350201D1*
G1X474471Y354138D2*
G1X476721Y351888D1*
G1X467160Y356106D2*
G1X467722Y354981D1*
G1X464910Y355544D2*
G1X464629Y355825D1*
G1X464066Y356106D1*
G1X462660Y356106D1*
G1X462098Y355825D1*
G1X461817Y355544D1*
G1X461535Y354981D1*
G1X461535Y354419D1*
G1X461817Y353575D1*
G1X465191Y350201D1*
G1X461535Y350201D1*
G1X457880Y356106D2*
G1X457317Y356106D1*
G1X456755Y355825D1*
G1X456474Y355544D1*
G1X456192Y354981D1*
G1X455911Y353857D1*
G1X455911Y352451D1*
G1X456192Y351326D1*
G1X456474Y350763D1*
G1X456755Y350482D1*
G1X457317Y350201D1*
G1X457880Y350201D1*
G1X458442Y350482D1*
G1X458723Y350763D1*
G1X459004Y351326D1*
G1X459286Y352451D1*
G1X459286Y353857D1*
G1X459004Y354981D1*
G1X458723Y355544D1*
G1X458442Y355825D1*
G1X457880Y356106D1*
G54D20*
G36*
G1X748188Y214079D2*
G1X748772Y211143D1*
G1X749918Y208376D1*
G1X751581Y205887D1*
G1X753698Y203769D1*
G1X756188Y202106D1*
G1X758954Y200960D1*
G1X761891Y200376D1*
G1X764886Y200376D1*
G1X767822Y200960D1*
G1X770589Y202106D1*
G1X773078Y203769D1*
G1X775196Y205887D1*
G1X776859Y208376D1*
G1X778005Y211143D1*
G1X778589Y214079D1*
G1X778589Y217074D1*
G1X778005Y220011D1*
G1X776859Y222777D1*
G1X775196Y225267D1*
G1X773078Y227384D1*
G1X770589Y229047D1*
G1X767822Y230193D1*
G1X764886Y230777D1*
G1X761891Y230777D1*
G1X758954Y230193D1*
G1X756188Y229047D1*
G1X753698Y227384D1*
G1X751581Y225267D1*
G1X749918Y222777D1*
G1X748772Y220011D1*
G1X748188Y217074D1*
G1X748188Y214079D1*
G37*
G36*
G1X412208Y214079D2*
G1X412792Y211143D1*
G1X413938Y208376D1*
G1X415601Y205887D1*
G1X417718Y203769D1*
G1X420208Y202106D1*
G1X422974Y200960D1*
G1X425911Y200376D1*
G1X428906Y200376D1*
G1X431842Y200960D1*
G1X434609Y202106D1*
G1X437098Y203769D1*
G1X439216Y205887D1*
G1X440879Y208376D1*
G1X442025Y211143D1*
G1X442609Y214079D1*
G1X442609Y217074D1*
G1X442025Y220011D1*
G1X440879Y222777D1*
G1X439216Y225267D1*
G1X437098Y227384D1*
G1X434609Y229047D1*
G1X431842Y230193D1*
G1X428906Y230777D1*
G1X425911Y230777D1*
G1X422974Y230193D1*
G1X420208Y229047D1*
G1X417718Y227384D1*
G1X415601Y225267D1*
G1X413938Y222777D1*
G1X412792Y220011D1*
G1X412208Y217074D1*
G1X412208Y214079D1*
G37*
G36*
G1X469341Y218524D2*
G1X469341Y211429D1*
G1X476436Y211429D1*
G1X476436Y218524D1*
G1X469341Y218524D1*
G37*
G36*
G1X719324Y214977D2*
G1X719392Y214281D1*
G1X719595Y213613D1*
G1X719925Y212996D1*
G1X720368Y212456D1*
G1X720908Y212013D1*
G1X721524Y211684D1*
G1X722193Y211481D1*
G1X722714Y211429D1*
G1X723063Y211429D1*
G1X723584Y211481D1*
G1X724252Y211684D1*
G1X724869Y212013D1*
G1X725409Y212456D1*
G1X725852Y212996D1*
G1X726181Y213613D1*
G1X726384Y214281D1*
G1X726453Y214977D1*
G1X726384Y215672D1*
G1X726181Y216341D1*
G1X725852Y216957D1*
G1X725409Y217497D1*
G1X724869Y217940D1*
G1X724252Y218270D1*
G1X723584Y218473D1*
G1X723063Y218524D1*
G1X722714Y218524D1*
G1X722193Y218473D1*
G1X721524Y218270D1*
G1X720908Y217940D1*
G1X720368Y217497D1*
G1X719925Y216957D1*
G1X719595Y216341D1*
G1X719392Y215672D1*
G1X719324Y214977D1*
G37*
G36*
G1X709341Y218524D2*
G1X709341Y211429D1*
G1X716436Y211429D1*
G1X716436Y218524D1*
G1X709341Y218524D1*
G37*
G36*
G1X479324Y214977D2*
G1X479392Y214281D1*
G1X479595Y213613D1*
G1X479925Y212996D1*
G1X480368Y212456D1*
G1X480908Y212013D1*
G1X481524Y211684D1*
G1X482193Y211481D1*
G1X482714Y211429D1*
G1X483063Y211429D1*
G1X483584Y211481D1*
G1X484252Y211684D1*
G1X484869Y212013D1*
G1X485409Y212456D1*
G1X485852Y212996D1*
G1X486181Y213613D1*
G1X486384Y214281D1*
G1X486453Y214977D1*
G1X486384Y215672D1*
G1X486181Y216341D1*
G1X485852Y216957D1*
G1X485409Y217497D1*
G1X484869Y217940D1*
G1X484252Y218270D1*
G1X483584Y218473D1*
G1X483063Y218524D1*
G1X482714Y218524D1*
G1X482193Y218473D1*
G1X481524Y218270D1*
G1X480908Y217940D1*
G1X480368Y217497D1*
G1X479925Y216957D1*
G1X479595Y216341D1*
G1X479392Y215672D1*
G1X479324Y214977D1*
G37*
G36*
G1X640030Y223977D2*
G1X640030Y216882D1*
G1X647125Y216882D1*
G1X647125Y223977D1*
G1X640030Y223977D1*
G37*
G36*
G1X650013Y220429D2*
G1X650081Y219734D1*
G1X650284Y219065D1*
G1X650614Y218449D1*
G1X651057Y217909D1*
G1X651597Y217466D1*
G1X652213Y217136D1*
G1X652882Y216934D1*
G1X653403Y216882D1*
G1X653752Y216882D1*
G1X654273Y216934D1*
G1X654941Y217136D1*
G1X655558Y217466D1*
G1X656098Y217909D1*
G1X656541Y218449D1*
G1X656870Y219065D1*
G1X657073Y219734D1*
G1X657142Y220429D1*
G1X657073Y221125D1*
G1X656870Y221793D1*
G1X656541Y222410D1*
G1X656098Y222950D1*
G1X655558Y223393D1*
G1X654941Y223722D1*
G1X654273Y223925D1*
G1X653752Y223977D1*
G1X653403Y223977D1*
G1X652882Y223925D1*
G1X652213Y223722D1*
G1X651597Y223393D1*
G1X651057Y222950D1*
G1X650614Y222410D1*
G1X650284Y221793D1*
G1X650081Y221125D1*
G1X650013Y220429D1*
G37*
G36*
G1X446176Y281577D2*
G1X446421Y279087D1*
G1X447148Y276693D1*
G1X448327Y274486D1*
G1X449914Y272552D1*
G1X451848Y270965D1*
G1X454054Y269786D1*
G1X456449Y269060D1*
G1X458314Y268876D1*
G1X477062Y268876D1*
G1X478928Y269060D1*
G1X481322Y269786D1*
G1X483529Y270965D1*
G1X485463Y272552D1*
G1X487050Y274486D1*
G1X488229Y276693D1*
G1X488955Y279087D1*
G1X489201Y281577D1*
G1X488955Y284066D1*
G1X488229Y286461D1*
G1X487050Y288667D1*
G1X485463Y290601D1*
G1X483529Y292188D1*
G1X481322Y293367D1*
G1X478928Y294094D1*
G1X477062Y294277D1*
G1X458314Y294277D1*
G1X456449Y294094D1*
G1X454054Y293367D1*
G1X451848Y292188D1*
G1X449914Y290601D1*
G1X448327Y288667D1*
G1X447148Y286461D1*
G1X446421Y284066D1*
G1X446176Y281577D1*
G37*
G36*
G1X713176Y281577D2*
G1X713421Y279087D1*
G1X714148Y276693D1*
G1X715327Y274486D1*
G1X716914Y272552D1*
G1X718848Y270965D1*
G1X721054Y269786D1*
G1X723449Y269060D1*
G1X725314Y268876D1*
G1X744062Y268876D1*
G1X745928Y269060D1*
G1X748322Y269786D1*
G1X750529Y270965D1*
G1X752463Y272552D1*
G1X754050Y274486D1*
G1X755229Y276693D1*
G1X755955Y279087D1*
G1X756201Y281577D1*
G1X755955Y284066D1*
G1X755229Y286461D1*
G1X754050Y288667D1*
G1X752463Y290601D1*
G1X750529Y292188D1*
G1X748322Y293367D1*
G1X745928Y294094D1*
G1X744062Y294277D1*
G1X725314Y294277D1*
G1X723449Y294094D1*
G1X721054Y293367D1*
G1X718848Y292188D1*
G1X716914Y290601D1*
G1X715327Y288667D1*
G1X714148Y286461D1*
G1X713421Y284066D1*
G1X713176Y281577D1*
G37*
G36*
G1X531690Y323677D2*
G1X531760Y322971D1*
G1X531966Y322292D1*
G1X532300Y321666D1*
G1X532750Y321118D1*
G1X533298Y320668D1*
G1X533924Y320334D1*
G1X534602Y320128D1*
G1X535131Y320076D1*
G1X535485Y320076D1*
G1X536014Y320128D1*
G1X536693Y320334D1*
G1X537319Y320668D1*
G1X537867Y321118D1*
G1X538317Y321666D1*
G1X538651Y322292D1*
G1X538857Y322971D1*
G1X538927Y323677D1*
G1X538857Y324383D1*
G1X538651Y325061D1*
G1X538317Y325687D1*
G1X537867Y326235D1*
G1X537319Y326685D1*
G1X536693Y327019D1*
G1X536014Y327225D1*
G1X535485Y327277D1*
G1X535131Y327277D1*
G1X534602Y327225D1*
G1X533924Y327019D1*
G1X533298Y326685D1*
G1X532750Y326235D1*
G1X532300Y325687D1*
G1X531966Y325061D1*
G1X531760Y324383D1*
G1X531690Y323677D1*
G37*
G36*
G1X541690Y323677D2*
G1X541760Y322971D1*
G1X541966Y322292D1*
G1X542300Y321666D1*
G1X542750Y321118D1*
G1X543298Y320668D1*
G1X543924Y320334D1*
G1X544602Y320128D1*
G1X545131Y320076D1*
G1X545485Y320076D1*
G1X546014Y320128D1*
G1X546693Y320334D1*
G1X547319Y320668D1*
G1X547867Y321118D1*
G1X548317Y321666D1*
G1X548651Y322292D1*
G1X548857Y322971D1*
G1X548927Y323677D1*
G1X548857Y324383D1*
G1X548651Y325061D1*
G1X548317Y325687D1*
G1X547867Y326235D1*
G1X547319Y326685D1*
G1X546693Y327019D1*
G1X546014Y327225D1*
G1X545485Y327277D1*
G1X545131Y327277D1*
G1X544602Y327225D1*
G1X543924Y327019D1*
G1X543298Y326685D1*
G1X542750Y326235D1*
G1X542300Y325687D1*
G1X541966Y325061D1*
G1X541760Y324383D1*
G1X541690Y323677D1*
G37*
G36*
G1X541690Y333677D2*
G1X541760Y332971D1*
G1X541966Y332292D1*
G1X542300Y331666D1*
G1X542750Y331118D1*
G1X543298Y330668D1*
G1X543924Y330334D1*
G1X544602Y330128D1*
G1X545131Y330076D1*
G1X545485Y330076D1*
G1X546014Y330128D1*
G1X546693Y330334D1*
G1X547319Y330668D1*
G1X547867Y331118D1*
G1X548317Y331666D1*
G1X548651Y332292D1*
G1X548857Y332971D1*
G1X548927Y333677D1*
G1X548857Y334383D1*
G1X548651Y335061D1*
G1X548317Y335687D1*
G1X547867Y336235D1*
G1X547319Y336685D1*
G1X546693Y337019D1*
G1X546014Y337225D1*
G1X545485Y337277D1*
G1X545131Y337277D1*
G1X544602Y337225D1*
G1X543924Y337019D1*
G1X543298Y336685D1*
G1X542750Y336235D1*
G1X542300Y335687D1*
G1X541966Y335061D1*
G1X541760Y334383D1*
G1X541690Y333677D1*
G37*
G36*
G1X531690Y333677D2*
G1X531760Y332971D1*
G1X531966Y332292D1*
G1X532300Y331666D1*
G1X532750Y331118D1*
G1X533298Y330668D1*
G1X533924Y330334D1*
G1X534602Y330128D1*
G1X535131Y330076D1*
G1X535485Y330076D1*
G1X536014Y330128D1*
G1X536693Y330334D1*
G1X537319Y330668D1*
G1X537867Y331118D1*
G1X538317Y331666D1*
G1X538651Y332292D1*
G1X538857Y332971D1*
G1X538927Y333677D1*
G1X538857Y334383D1*
G1X538651Y335061D1*
G1X538317Y335687D1*
G1X537867Y336235D1*
G1X537319Y336685D1*
G1X536693Y337019D1*
G1X536014Y337225D1*
G1X535485Y337277D1*
G1X535131Y337277D1*
G1X534602Y337225D1*
G1X533924Y337019D1*
G1X533298Y336685D1*
G1X532750Y336235D1*
G1X532300Y335687D1*
G1X531966Y335061D1*
G1X531760Y334383D1*
G1X531690Y333677D1*
G37*
G36*
G1X412208Y351019D2*
G1X412792Y348083D1*
G1X413938Y345316D1*
G1X415601Y342827D1*
G1X417718Y340709D1*
G1X420208Y339046D1*
G1X422974Y337900D1*
G1X425911Y337316D1*
G1X428906Y337316D1*
G1X431842Y337900D1*
G1X434609Y339046D1*
G1X437098Y340709D1*
G1X439216Y342827D1*
G1X440879Y345316D1*
G1X442025Y348083D1*
G1X442609Y351019D1*
G1X442609Y354014D1*
G1X442025Y356951D1*
G1X440879Y359717D1*
G1X439216Y362207D1*
G1X437098Y364324D1*
G1X434609Y365987D1*
G1X431842Y367133D1*
G1X428906Y367717D1*
G1X425911Y367717D1*
G1X422974Y367133D1*
G1X420208Y365987D1*
G1X417718Y364324D1*
G1X415601Y362207D1*
G1X413938Y359717D1*
G1X412792Y356951D1*
G1X412208Y354014D1*
G1X412208Y351019D1*
G37*
G36*
G1X748188Y351019D2*
G1X748772Y348083D1*
G1X749918Y345316D1*
G1X751581Y342827D1*
G1X753698Y340709D1*
G1X756188Y339046D1*
G1X758954Y337900D1*
G1X761891Y337316D1*
G1X764886Y337316D1*
G1X767822Y337900D1*
G1X770589Y339046D1*
G1X773078Y340709D1*
G1X775196Y342827D1*
G1X776859Y345316D1*
G1X778005Y348083D1*
G1X778589Y351019D1*
G1X778589Y354014D1*
G1X778005Y356951D1*
G1X776859Y359717D1*
G1X775196Y362207D1*
G1X773078Y364324D1*
G1X770589Y365987D1*
G1X767822Y367133D1*
G1X764886Y367717D1*
G1X761891Y367717D1*
G1X758954Y367133D1*
G1X756188Y365987D1*
G1X753698Y364324D1*
G1X751581Y362207D1*
G1X749918Y359717D1*
G1X748772Y356951D1*
G1X748188Y354014D1*
G1X748188Y351019D1*
G37*
G36*
G1X541690Y343677D2*
G1X541760Y342971D1*
G1X541966Y342292D1*
G1X542300Y341666D1*
G1X542750Y341118D1*
G1X543298Y340668D1*
G1X543924Y340334D1*
G1X544602Y340128D1*
G1X545131Y340076D1*
G1X545485Y340076D1*
G1X546014Y340128D1*
G1X546693Y340334D1*
G1X547319Y340668D1*
G1X547867Y341118D1*
G1X548317Y341666D1*
G1X548651Y342292D1*
G1X548857Y342971D1*
G1X548927Y343677D1*
G1X548857Y344383D1*
G1X548651Y345061D1*
G1X548317Y345687D1*
G1X547867Y346235D1*
G1X547319Y346685D1*
G1X546693Y347019D1*
G1X546014Y347225D1*
G1X545485Y347277D1*
G1X545131Y347277D1*
G1X544602Y347225D1*
G1X543924Y347019D1*
G1X543298Y346685D1*
G1X542750Y346235D1*
G1X542300Y345687D1*
G1X541966Y345061D1*
G1X541760Y344383D1*
G1X541690Y343677D1*
G37*
G36*
G1X531708Y347277D2*
G1X531708Y340076D1*
G1X538909Y340076D1*
G1X538909Y347277D1*
G1X531708Y347277D1*
G37*
G36*
G1X712241Y347484D2*
G1X712241Y340389D1*
G1X719336Y340389D1*
G1X719336Y347484D1*
G1X712241Y347484D1*
G37*
G36*
G1X722224Y343937D2*
G1X722292Y343241D1*
G1X722495Y342573D1*
G1X722825Y341956D1*
G1X723268Y341416D1*
G1X723808Y340973D1*
G1X724424Y340644D1*
G1X725093Y340441D1*
G1X725614Y340389D1*
G1X725963Y340389D1*
G1X726484Y340441D1*
G1X727152Y340644D1*
G1X727769Y340973D1*
G1X728309Y341416D1*
G1X728752Y341956D1*
G1X729081Y342573D1*
G1X729284Y343241D1*
G1X729353Y343937D1*
G1X729284Y344632D1*
G1X729081Y345301D1*
G1X728752Y345917D1*
G1X728309Y346457D1*
G1X727769Y346900D1*
G1X727152Y347230D1*
G1X726484Y347433D1*
G1X725963Y347484D1*
G1X725614Y347484D1*
G1X725093Y347433D1*
G1X724424Y347230D1*
G1X723808Y346900D1*
G1X723268Y346457D1*
G1X722825Y345917D1*
G1X722495Y345301D1*
G1X722292Y344632D1*
G1X722224Y343937D1*
G37*
G36*
G1X712224Y353937D2*
G1X712292Y353241D1*
G1X712495Y352573D1*
G1X712825Y351956D1*
G1X713268Y351416D1*
G1X713808Y350973D1*
G1X714424Y350644D1*
G1X715093Y350441D1*
G1X715614Y350389D1*
G1X715963Y350389D1*
G1X716484Y350441D1*
G1X717152Y350644D1*
G1X717769Y350973D1*
G1X718309Y351416D1*
G1X718752Y351956D1*
G1X719081Y352573D1*
G1X719284Y353241D1*
G1X719353Y353937D1*
G1X719284Y354632D1*
G1X719081Y355301D1*
G1X718752Y355917D1*
G1X718309Y356457D1*
G1X717769Y356900D1*
G1X717152Y357230D1*
G1X716484Y357433D1*
G1X715963Y357484D1*
G1X715614Y357484D1*
G1X715093Y357433D1*
G1X714424Y357230D1*
G1X713808Y356900D1*
G1X713268Y356457D1*
G1X712825Y355917D1*
G1X712495Y355301D1*
G1X712292Y354632D1*
G1X712224Y353937D1*
G37*
G36*
G1X722224Y353937D2*
G1X722292Y353241D1*
G1X722495Y352573D1*
G1X722825Y351956D1*
G1X723268Y351416D1*
G1X723808Y350973D1*
G1X724424Y350644D1*
G1X725093Y350441D1*
G1X725614Y350389D1*
G1X725963Y350389D1*
G1X726484Y350441D1*
G1X727152Y350644D1*
G1X727769Y350973D1*
G1X728309Y351416D1*
G1X728752Y351956D1*
G1X729081Y352573D1*
G1X729284Y353241D1*
G1X729353Y353937D1*
G1X729284Y354632D1*
G1X729081Y355301D1*
G1X728752Y355917D1*
G1X728309Y356457D1*
G1X727769Y356900D1*
G1X727152Y357230D1*
G1X726484Y357433D1*
G1X725963Y357484D1*
G1X725614Y357484D1*
G1X725093Y357433D1*
G1X724424Y357230D1*
G1X723808Y356900D1*
G1X723268Y356457D1*
G1X722825Y355917D1*
G1X722495Y355301D1*
G1X722292Y354632D1*
G1X722224Y353937D1*
G37*
G36*
G1X619302Y359862D2*
G1X619302Y352768D1*
G1X626396Y352768D1*
G1X626396Y359862D1*
G1X619302Y359862D1*
G37*
G36*
G1X629285Y356315D2*
G1X629353Y355620D1*
G1X629556Y354951D1*
G1X629885Y354335D1*
G1X630329Y353795D1*
G1X630869Y353352D1*
G1X631485Y353022D1*
G1X632154Y352819D1*
G1X632675Y352768D1*
G1X633023Y352768D1*
G1X633544Y352819D1*
G1X634213Y353022D1*
G1X634829Y353352D1*
G1X635369Y353795D1*
G1X635813Y354335D1*
G1X636142Y354951D1*
G1X636345Y355620D1*
G1X636413Y356315D1*
G1X636345Y357011D1*
G1X636142Y357679D1*
G1X635813Y358296D1*
G1X635369Y358836D1*
G1X634829Y359279D1*
G1X634213Y359608D1*
G1X633544Y359811D1*
G1X633023Y359862D1*
G1X632675Y359862D1*
G1X632154Y359811D1*
G1X631485Y359608D1*
G1X630869Y359279D1*
G1X630329Y358836D1*
G1X629885Y358296D1*
G1X629556Y357679D1*
G1X629353Y357011D1*
G1X629285Y356315D1*
G37*
G36*
G1X639285Y356315D2*
G1X639353Y355620D1*
G1X639556Y354951D1*
G1X639885Y354335D1*
G1X640329Y353795D1*
G1X640869Y353352D1*
G1X641485Y353022D1*
G1X642154Y352819D1*
G1X642675Y352768D1*
G1X643023Y352768D1*
G1X643544Y352819D1*
G1X644213Y353022D1*
G1X644829Y353352D1*
G1X645369Y353795D1*
G1X645813Y354335D1*
G1X646142Y354951D1*
G1X646345Y355620D1*
G1X646413Y356315D1*
G1X646345Y357011D1*
G1X646142Y357679D1*
G1X645813Y358296D1*
G1X645369Y358836D1*
G1X644829Y359279D1*
G1X644213Y359608D1*
G1X643544Y359811D1*
G1X643023Y359862D1*
G1X642675Y359862D1*
G1X642154Y359811D1*
G1X641485Y359608D1*
G1X640869Y359279D1*
G1X640329Y358836D1*
G1X639885Y358296D1*
G1X639556Y357679D1*
G1X639353Y357011D1*
G1X639285Y356315D1*
G37*
G36*
G1X649285Y356315D2*
G1X649353Y355620D1*
G1X649556Y354951D1*
G1X649885Y354335D1*
G1X650329Y353795D1*
G1X650869Y353352D1*
G1X651485Y353022D1*
G1X652154Y352819D1*
G1X652675Y352768D1*
G1X653023Y352768D1*
G1X653544Y352819D1*
G1X654213Y353022D1*
G1X654829Y353352D1*
G1X655369Y353795D1*
G1X655813Y354335D1*
G1X656142Y354951D1*
G1X656345Y355620D1*
G1X656413Y356315D1*
G1X656345Y357011D1*
G1X656142Y357679D1*
G1X655813Y358296D1*
G1X655369Y358836D1*
G1X654829Y359279D1*
G1X654213Y359608D1*
G1X653544Y359811D1*
G1X653023Y359862D1*
G1X652675Y359862D1*
G1X652154Y359811D1*
G1X651485Y359608D1*
G1X650869Y359279D1*
G1X650329Y358836D1*
G1X649885Y358296D1*
G1X649556Y357679D1*
G1X649353Y357011D1*
G1X649285Y356315D1*
G37*
G36*
G1X712224Y363937D2*
G1X712292Y363241D1*
G1X712495Y362573D1*
G1X712825Y361956D1*
G1X713268Y361416D1*
G1X713808Y360973D1*
G1X714424Y360644D1*
G1X715093Y360441D1*
G1X715614Y360389D1*
G1X715963Y360389D1*
G1X716484Y360441D1*
G1X717152Y360644D1*
G1X717769Y360973D1*
G1X718309Y361416D1*
G1X718752Y361956D1*
G1X719081Y362573D1*
G1X719284Y363241D1*
G1X719353Y363937D1*
G1X719284Y364632D1*
G1X719081Y365301D1*
G1X718752Y365917D1*
G1X718309Y366457D1*
G1X717769Y366900D1*
G1X717152Y367230D1*
G1X716484Y367433D1*
G1X715963Y367484D1*
G1X715614Y367484D1*
G1X715093Y367433D1*
G1X714424Y367230D1*
G1X713808Y366900D1*
G1X713268Y366457D1*
G1X712825Y365917D1*
G1X712495Y365301D1*
G1X712292Y364632D1*
G1X712224Y363937D1*
G37*
G36*
G1X722224Y363937D2*
G1X722292Y363241D1*
G1X722495Y362573D1*
G1X722825Y361956D1*
G1X723268Y361416D1*
G1X723808Y360973D1*
G1X724424Y360644D1*
G1X725093Y360441D1*
G1X725614Y360389D1*
G1X725963Y360389D1*
G1X726484Y360441D1*
G1X727152Y360644D1*
G1X727769Y360973D1*
G1X728309Y361416D1*
G1X728752Y361956D1*
G1X729081Y362573D1*
G1X729284Y363241D1*
G1X729353Y363937D1*
G1X729284Y364632D1*
G1X729081Y365301D1*
G1X728752Y365917D1*
G1X728309Y366457D1*
G1X727769Y366900D1*
G1X727152Y367230D1*
G1X726484Y367433D1*
G1X725963Y367484D1*
G1X725614Y367484D1*
G1X725093Y367433D1*
G1X724424Y367230D1*
G1X723808Y366900D1*
G1X723268Y366457D1*
G1X722825Y365917D1*
G1X722495Y365301D1*
G1X722292Y364632D1*
G1X722224Y363937D1*
G37*
G1X114404Y550803D2*
G54D19*
G1X114685Y550521D1*
G1X115529Y550240D1*
G1X116091Y550240D1*
G1X116935Y550521D1*
G1X117497Y551084D1*
G1X117778Y551646D1*
G1X118060Y552771D1*
G1X118060Y553615D1*
G1X117778Y554740D1*
G1X117497Y555302D1*
G1X116935Y555865D1*
G1X116091Y556146D1*
G1X115529Y556146D1*
G1X114685Y555865D1*
G1X114404Y555583D1*
G1X111029Y550240D2*
G1X111592Y550521D1*
G1X111873Y550803D1*
G1X112154Y551365D1*
G1X112154Y553052D1*
G1X111873Y553615D1*
G1X111592Y553896D1*
G1X111029Y554177D1*
G1X110186Y554177D1*
G1X109623Y553896D1*
G1X109342Y553615D1*
G1X109061Y553052D1*
G1X109061Y551365D1*
G1X109342Y550803D1*
G1X109623Y550521D1*
G1X110186Y550240D1*
G1X111029Y550240D1*
G1X106530Y554177D2*
G1X106530Y550240D1*
G1X106530Y553615D2*
G1X106249Y553896D1*
G1X105686Y554177D1*
G1X104842Y554177D1*
G1X104280Y553896D1*
G1X103999Y553334D1*
G1X103999Y550240D1*
G1X101187Y554177D2*
G1X101187Y550240D1*
G1X101187Y553615D2*
G1X100905Y553896D1*
G1X100343Y554177D1*
G1X99499Y554177D1*
G1X98937Y553896D1*
G1X98656Y553334D1*
G1X98656Y550240D1*
G1X95000Y550240D2*
G1X95562Y550521D1*
G1X95844Y550803D1*
G1X96125Y551365D1*
G1X96125Y553052D1*
G1X95844Y553615D1*
G1X95562Y553896D1*
G1X95000Y554177D1*
G1X94156Y554177D1*
G1X93594Y553896D1*
G1X93313Y553615D1*
G1X93031Y553052D1*
G1X93031Y551365D1*
G1X93313Y550803D1*
G1X93594Y550521D1*
G1X94156Y550240D1*
G1X95000Y550240D1*
G1X90501Y550240D2*
G1X90501Y554177D1*
G1X90501Y553052D2*
G1X90219Y553615D1*
G1X89938Y553896D1*
G1X89376Y554177D1*
G1X88813Y554177D1*
G1X118341Y546106D2*
G1X116935Y540201D1*
G1X115810Y544419D1*
G1X114685Y540201D1*
G1X113279Y546106D1*
G1X111029Y540201D2*
G1X111029Y544138D1*
G1X111029Y546106D2*
G1X111310Y545825D1*
G1X111029Y545544D1*
G1X110748Y545825D1*
G1X111029Y546106D1*
G1X111029Y545544D1*
G1X108217Y544138D2*
G1X108217Y540201D1*
G1X108217Y543575D2*
G1X107936Y543857D1*
G1X107373Y544138D1*
G1X106530Y544138D1*
G1X105967Y543857D1*
G1X105686Y543294D1*
G1X105686Y540201D1*
G1X102874Y540201D2*
G1X102874Y544138D1*
G1X102874Y546106D2*
G1X103155Y545825D1*
G1X102874Y545544D1*
G1X102593Y545825D1*
G1X102874Y546106D1*
G1X102874Y545544D1*
G1X97531Y540201D2*
G1X97531Y543294D1*
G1X97812Y543857D1*
G1X98375Y544138D1*
G1X99499Y544138D1*
G1X100062Y543857D1*
G1X97531Y540482D2*
G1X98093Y540201D1*
G1X99499Y540201D1*
G1X100062Y540482D1*
G1X100343Y541044D1*
G1X100343Y541607D1*
G1X100062Y542169D1*
G1X99499Y542451D1*
G1X98093Y542451D1*
G1X97531Y542732D1*
G1X94719Y540201D2*
G1X94719Y544138D1*
G1X94719Y543013D2*
G1X94438Y543575D1*
G1X94156Y543857D1*
G1X93594Y544138D1*
G1X93031Y544138D1*
G1X88532Y540482D2*
G1X89094Y540201D1*
G1X90219Y540201D1*
G1X90782Y540482D1*
G1X91063Y540763D1*
G1X91344Y541326D1*
G1X91344Y543013D1*
G1X91063Y543575D1*
G1X90782Y543857D1*
G1X90219Y544138D1*
G1X89094Y544138D1*
G1X88532Y543857D1*
G1X86564Y544138D2*
G1X83470Y544138D1*
G1X86564Y540201D1*
G1X83470Y540201D1*
G1X81783Y544138D2*
G1X80377Y540201D1*
G1X78971Y544138D2*
G1X80377Y540201D1*
G1X80939Y538795D1*
G1X81220Y538514D1*
G1X81783Y538232D1*
G1X76721Y540201D2*
G1X76721Y546106D1*
G1X76159Y542451D2*
G1X74471Y540201D1*
G1X74471Y544138D2*
G1X76721Y541888D1*
G1X67160Y546106D2*
G1X67722Y544981D1*
G1X64910Y545544D2*
G1X64629Y545825D1*
G1X64066Y546106D1*
G1X62660Y546106D1*
G1X62098Y545825D1*
G1X61817Y545544D1*
G1X61535Y544981D1*
G1X61535Y544419D1*
G1X61817Y543575D1*
G1X65191Y540201D1*
G1X61535Y540201D1*
G1X57880Y546106D2*
G1X57317Y546106D1*
G1X56755Y545825D1*
G1X56474Y545544D1*
G1X56192Y544981D1*
G1X55911Y543857D1*
G1X55911Y542451D1*
G1X56192Y541326D1*
G1X56474Y540763D1*
G1X56755Y540482D1*
G1X57317Y540201D1*
G1X57880Y540201D1*
G1X58442Y540482D1*
G1X58723Y540763D1*
G1X59004Y541326D1*
G1X59286Y542451D1*
G1X59286Y543857D1*
G1X59004Y544981D1*
G1X58723Y545544D1*
G1X58442Y545825D1*
G1X57880Y546106D1*
G54D20*
G36*
G1X348188Y404079D2*
G1X348772Y401143D1*
G1X349918Y398376D1*
G1X351581Y395887D1*
G1X353698Y393769D1*
G1X356188Y392106D1*
G1X358954Y390960D1*
G1X361891Y390376D1*
G1X364886Y390376D1*
G1X367822Y390960D1*
G1X370589Y392106D1*
G1X373078Y393769D1*
G1X375196Y395887D1*
G1X376859Y398376D1*
G1X378005Y401143D1*
G1X378589Y404079D1*
G1X378589Y407074D1*
G1X378005Y410011D1*
G1X376859Y412777D1*
G1X375196Y415267D1*
G1X373078Y417384D1*
G1X370589Y419047D1*
G1X367822Y420193D1*
G1X364886Y420777D1*
G1X361891Y420777D1*
G1X358954Y420193D1*
G1X356188Y419047D1*
G1X353698Y417384D1*
G1X351581Y415267D1*
G1X349918Y412777D1*
G1X348772Y410011D1*
G1X348188Y407074D1*
G1X348188Y404079D1*
G37*
G36*
G1X12208Y404079D2*
G1X12792Y401143D1*
G1X13938Y398376D1*
G1X15601Y395887D1*
G1X17718Y393769D1*
G1X20208Y392106D1*
G1X22974Y390960D1*
G1X25911Y390376D1*
G1X28906Y390376D1*
G1X31842Y390960D1*
G1X34609Y392106D1*
G1X37098Y393769D1*
G1X39216Y395887D1*
G1X40879Y398376D1*
G1X42025Y401143D1*
G1X42609Y404079D1*
G1X42609Y407074D1*
G1X42025Y410011D1*
G1X40879Y412777D1*
G1X39216Y415267D1*
G1X37098Y417384D1*
G1X34609Y419047D1*
G1X31842Y420193D1*
G1X28906Y420777D1*
G1X25911Y420777D1*
G1X22974Y420193D1*
G1X20208Y419047D1*
G1X17718Y417384D1*
G1X15601Y415267D1*
G1X13938Y412777D1*
G1X12792Y410011D1*
G1X12208Y407074D1*
G1X12208Y404079D1*
G37*
G36*
G1X69341Y408524D2*
G1X69341Y401429D1*
G1X76436Y401429D1*
G1X76436Y408524D1*
G1X69341Y408524D1*
G37*
G36*
G1X319324Y404977D2*
G1X319392Y404281D1*
G1X319595Y403613D1*
G1X319925Y402996D1*
G1X320368Y402456D1*
G1X320908Y402013D1*
G1X321524Y401684D1*
G1X322193Y401481D1*
G1X322714Y401429D1*
G1X323063Y401429D1*
G1X323584Y401481D1*
G1X324252Y401684D1*
G1X324869Y402013D1*
G1X325409Y402456D1*
G1X325852Y402996D1*
G1X326181Y403613D1*
G1X326384Y404281D1*
G1X326453Y404977D1*
G1X326384Y405672D1*
G1X326181Y406341D1*
G1X325852Y406957D1*
G1X325409Y407497D1*
G1X324869Y407940D1*
G1X324252Y408270D1*
G1X323584Y408473D1*
G1X323063Y408524D1*
G1X322714Y408524D1*
G1X322193Y408473D1*
G1X321524Y408270D1*
G1X320908Y407940D1*
G1X320368Y407497D1*
G1X319925Y406957D1*
G1X319595Y406341D1*
G1X319392Y405672D1*
G1X319324Y404977D1*
G37*
G36*
G1X309341Y408524D2*
G1X309341Y401429D1*
G1X316436Y401429D1*
G1X316436Y408524D1*
G1X309341Y408524D1*
G37*
G36*
G1X79324Y404977D2*
G1X79392Y404281D1*
G1X79595Y403613D1*
G1X79925Y402996D1*
G1X80368Y402456D1*
G1X80908Y402013D1*
G1X81524Y401684D1*
G1X82193Y401481D1*
G1X82714Y401429D1*
G1X83063Y401429D1*
G1X83584Y401481D1*
G1X84252Y401684D1*
G1X84869Y402013D1*
G1X85409Y402456D1*
G1X85852Y402996D1*
G1X86181Y403613D1*
G1X86384Y404281D1*
G1X86453Y404977D1*
G1X86384Y405672D1*
G1X86181Y406341D1*
G1X85852Y406957D1*
G1X85409Y407497D1*
G1X84869Y407940D1*
G1X84252Y408270D1*
G1X83584Y408473D1*
G1X83063Y408524D1*
G1X82714Y408524D1*
G1X82193Y408473D1*
G1X81524Y408270D1*
G1X80908Y407940D1*
G1X80368Y407497D1*
G1X79925Y406957D1*
G1X79595Y406341D1*
G1X79392Y405672D1*
G1X79324Y404977D1*
G37*
G36*
G1X240030Y413977D2*
G1X240030Y406882D1*
G1X247125Y406882D1*
G1X247125Y413977D1*
G1X240030Y413977D1*
G37*
G36*
G1X250013Y410429D2*
G1X250081Y409734D1*
G1X250284Y409065D1*
G1X250614Y408449D1*
G1X251057Y407909D1*
G1X251597Y407466D1*
G1X252213Y407136D1*
G1X252882Y406934D1*
G1X253403Y406882D1*
G1X253752Y406882D1*
G1X254273Y406934D1*
G1X254941Y407136D1*
G1X255558Y407466D1*
G1X256098Y407909D1*
G1X256541Y408449D1*
G1X256870Y409065D1*
G1X257073Y409734D1*
G1X257142Y410429D1*
G1X257073Y411125D1*
G1X256870Y411793D1*
G1X256541Y412410D1*
G1X256098Y412950D1*
G1X255558Y413393D1*
G1X254941Y413722D1*
G1X254273Y413925D1*
G1X253752Y413977D1*
G1X253403Y413977D1*
G1X252882Y413925D1*
G1X252213Y413722D1*
G1X251597Y413393D1*
G1X251057Y412950D1*
G1X250614Y412410D1*
G1X250284Y411793D1*
G1X250081Y411125D1*
G1X250013Y410429D1*
G37*
G36*
G1X46176Y471577D2*
G1X46421Y469087D1*
G1X47148Y466693D1*
G1X48327Y464486D1*
G1X49914Y462552D1*
G1X51848Y460965D1*
G1X54054Y459786D1*
G1X56449Y459060D1*
G1X58314Y458876D1*
G1X77062Y458876D1*
G1X78928Y459060D1*
G1X81322Y459786D1*
G1X83529Y460965D1*
G1X85463Y462552D1*
G1X87050Y464486D1*
G1X88229Y466693D1*
G1X88955Y469087D1*
G1X89201Y471577D1*
G1X88955Y474066D1*
G1X88229Y476461D1*
G1X87050Y478667D1*
G1X85463Y480601D1*
G1X83529Y482188D1*
G1X81322Y483367D1*
G1X78928Y484094D1*
G1X77062Y484277D1*
G1X58314Y484277D1*
G1X56449Y484094D1*
G1X54054Y483367D1*
G1X51848Y482188D1*
G1X49914Y480601D1*
G1X48327Y478667D1*
G1X47148Y476461D1*
G1X46421Y474066D1*
G1X46176Y471577D1*
G37*
G36*
G1X313176Y471577D2*
G1X313421Y469087D1*
G1X314148Y466693D1*
G1X315327Y464486D1*
G1X316914Y462552D1*
G1X318848Y460965D1*
G1X321054Y459786D1*
G1X323449Y459060D1*
G1X325314Y458876D1*
G1X344062Y458876D1*
G1X345928Y459060D1*
G1X348322Y459786D1*
G1X350529Y460965D1*
G1X352463Y462552D1*
G1X354050Y464486D1*
G1X355229Y466693D1*
G1X355955Y469087D1*
G1X356201Y471577D1*
G1X355955Y474066D1*
G1X355229Y476461D1*
G1X354050Y478667D1*
G1X352463Y480601D1*
G1X350529Y482188D1*
G1X348322Y483367D1*
G1X345928Y484094D1*
G1X344062Y484277D1*
G1X325314Y484277D1*
G1X323449Y484094D1*
G1X321054Y483367D1*
G1X318848Y482188D1*
G1X316914Y480601D1*
G1X315327Y478667D1*
G1X314148Y476461D1*
G1X313421Y474066D1*
G1X313176Y471577D1*
G37*
G36*
G1X131690Y513677D2*
G1X131760Y512971D1*
G1X131966Y512292D1*
G1X132300Y511666D1*
G1X132750Y511118D1*
G1X133298Y510668D1*
G1X133924Y510334D1*
G1X134602Y510128D1*
G1X135131Y510076D1*
G1X135485Y510076D1*
G1X136014Y510128D1*
G1X136693Y510334D1*
G1X137319Y510668D1*
G1X137867Y511118D1*
G1X138317Y511666D1*
G1X138651Y512292D1*
G1X138857Y512971D1*
G1X138927Y513677D1*
G1X138857Y514383D1*
G1X138651Y515061D1*
G1X138317Y515687D1*
G1X137867Y516235D1*
G1X137319Y516685D1*
G1X136693Y517019D1*
G1X136014Y517225D1*
G1X135485Y517277D1*
G1X135131Y517277D1*
G1X134602Y517225D1*
G1X133924Y517019D1*
G1X133298Y516685D1*
G1X132750Y516235D1*
G1X132300Y515687D1*
G1X131966Y515061D1*
G1X131760Y514383D1*
G1X131690Y513677D1*
G37*
G36*
G1X141690Y513677D2*
G1X141760Y512971D1*
G1X141966Y512292D1*
G1X142300Y511666D1*
G1X142750Y511118D1*
G1X143298Y510668D1*
G1X143924Y510334D1*
G1X144602Y510128D1*
G1X145131Y510076D1*
G1X145485Y510076D1*
G1X146014Y510128D1*
G1X146693Y510334D1*
G1X147319Y510668D1*
G1X147867Y511118D1*
G1X148317Y511666D1*
G1X148651Y512292D1*
G1X148857Y512971D1*
G1X148927Y513677D1*
G1X148857Y514383D1*
G1X148651Y515061D1*
G1X148317Y515687D1*
G1X147867Y516235D1*
G1X147319Y516685D1*
G1X146693Y517019D1*
G1X146014Y517225D1*
G1X145485Y517277D1*
G1X145131Y517277D1*
G1X144602Y517225D1*
G1X143924Y517019D1*
G1X143298Y516685D1*
G1X142750Y516235D1*
G1X142300Y515687D1*
G1X141966Y515061D1*
G1X141760Y514383D1*
G1X141690Y513677D1*
G37*
G36*
G1X141690Y523677D2*
G1X141760Y522971D1*
G1X141966Y522292D1*
G1X142300Y521666D1*
G1X142750Y521118D1*
G1X143298Y520668D1*
G1X143924Y520334D1*
G1X144602Y520128D1*
G1X145131Y520076D1*
G1X145485Y520076D1*
G1X146014Y520128D1*
G1X146693Y520334D1*
G1X147319Y520668D1*
G1X147867Y521118D1*
G1X148317Y521666D1*
G1X148651Y522292D1*
G1X148857Y522971D1*
G1X148927Y523677D1*
G1X148857Y524383D1*
G1X148651Y525061D1*
G1X148317Y525687D1*
G1X147867Y526235D1*
G1X147319Y526685D1*
G1X146693Y527019D1*
G1X146014Y527225D1*
G1X145485Y527277D1*
G1X145131Y527277D1*
G1X144602Y527225D1*
G1X143924Y527019D1*
G1X143298Y526685D1*
G1X142750Y526235D1*
G1X142300Y525687D1*
G1X141966Y525061D1*
G1X141760Y524383D1*
G1X141690Y523677D1*
G37*
G36*
G1X131690Y523677D2*
G1X131760Y522971D1*
G1X131966Y522292D1*
G1X132300Y521666D1*
G1X132750Y521118D1*
G1X133298Y520668D1*
G1X133924Y520334D1*
G1X134602Y520128D1*
G1X135131Y520076D1*
G1X135485Y520076D1*
G1X136014Y520128D1*
G1X136693Y520334D1*
G1X137319Y520668D1*
G1X137867Y521118D1*
G1X138317Y521666D1*
G1X138651Y522292D1*
G1X138857Y522971D1*
G1X138927Y523677D1*
G1X138857Y524383D1*
G1X138651Y525061D1*
G1X138317Y525687D1*
G1X137867Y526235D1*
G1X137319Y526685D1*
G1X136693Y527019D1*
G1X136014Y527225D1*
G1X135485Y527277D1*
G1X135131Y527277D1*
G1X134602Y527225D1*
G1X133924Y527019D1*
G1X133298Y526685D1*
G1X132750Y526235D1*
G1X132300Y525687D1*
G1X131966Y525061D1*
G1X131760Y524383D1*
G1X131690Y523677D1*
G37*
G36*
G1X12208Y541019D2*
G1X12792Y538083D1*
G1X13938Y535316D1*
G1X15601Y532827D1*
G1X17718Y530709D1*
G1X20208Y529046D1*
G1X22974Y527900D1*
G1X25911Y527316D1*
G1X28906Y527316D1*
G1X31842Y527900D1*
G1X34609Y529046D1*
G1X37098Y530709D1*
G1X39216Y532827D1*
G1X40879Y535316D1*
G1X42025Y538083D1*
G1X42609Y541019D1*
G1X42609Y544014D1*
G1X42025Y546951D1*
G1X40879Y549717D1*
G1X39216Y552207D1*
G1X37098Y554324D1*
G1X34609Y555987D1*
G1X31842Y557133D1*
G1X28906Y557717D1*
G1X25911Y557717D1*
G1X22974Y557133D1*
G1X20208Y555987D1*
G1X17718Y554324D1*
G1X15601Y552207D1*
G1X13938Y549717D1*
G1X12792Y546951D1*
G1X12208Y544014D1*
G1X12208Y541019D1*
G37*
G36*
G1X348188Y541019D2*
G1X348772Y538083D1*
G1X349918Y535316D1*
G1X351581Y532827D1*
G1X353698Y530709D1*
G1X356188Y529046D1*
G1X358954Y527900D1*
G1X361891Y527316D1*
G1X364886Y527316D1*
G1X367822Y527900D1*
G1X370589Y529046D1*
G1X373078Y530709D1*
G1X375196Y532827D1*
G1X376859Y535316D1*
G1X378005Y538083D1*
G1X378589Y541019D1*
G1X378589Y544014D1*
G1X378005Y546951D1*
G1X376859Y549717D1*
G1X375196Y552207D1*
G1X373078Y554324D1*
G1X370589Y555987D1*
G1X367822Y557133D1*
G1X364886Y557717D1*
G1X361891Y557717D1*
G1X358954Y557133D1*
G1X356188Y555987D1*
G1X353698Y554324D1*
G1X351581Y552207D1*
G1X349918Y549717D1*
G1X348772Y546951D1*
G1X348188Y544014D1*
G1X348188Y541019D1*
G37*
G36*
G1X141690Y533677D2*
G1X141760Y532971D1*
G1X141966Y532292D1*
G1X142300Y531666D1*
G1X142750Y531118D1*
G1X143298Y530668D1*
G1X143924Y530334D1*
G1X144602Y530128D1*
G1X145131Y530076D1*
G1X145485Y530076D1*
G1X146014Y530128D1*
G1X146693Y530334D1*
G1X147319Y530668D1*
G1X147867Y531118D1*
G1X148317Y531666D1*
G1X148651Y532292D1*
G1X148857Y532971D1*
G1X148927Y533677D1*
G1X148857Y534383D1*
G1X148651Y535061D1*
G1X148317Y535687D1*
G1X147867Y536235D1*
G1X147319Y536685D1*
G1X146693Y537019D1*
G1X146014Y537225D1*
G1X145485Y537277D1*
G1X145131Y537277D1*
G1X144602Y537225D1*
G1X143924Y537019D1*
G1X143298Y536685D1*
G1X142750Y536235D1*
G1X142300Y535687D1*
G1X141966Y535061D1*
G1X141760Y534383D1*
G1X141690Y533677D1*
G37*
G36*
G1X131708Y537277D2*
G1X131708Y530076D1*
G1X138909Y530076D1*
G1X138909Y537277D1*
G1X131708Y537277D1*
G37*
G36*
G1X312241Y537484D2*
G1X312241Y530389D1*
G1X319336Y530389D1*
G1X319336Y537484D1*
G1X312241Y537484D1*
G37*
G36*
G1X322224Y533937D2*
G1X322292Y533241D1*
G1X322495Y532573D1*
G1X322825Y531956D1*
G1X323268Y531416D1*
G1X323808Y530973D1*
G1X324424Y530644D1*
G1X325093Y530441D1*
G1X325614Y530389D1*
G1X325963Y530389D1*
G1X326484Y530441D1*
G1X327152Y530644D1*
G1X327769Y530973D1*
G1X328309Y531416D1*
G1X328752Y531956D1*
G1X329081Y532573D1*
G1X329284Y533241D1*
G1X329353Y533937D1*
G1X329284Y534632D1*
G1X329081Y535301D1*
G1X328752Y535917D1*
G1X328309Y536457D1*
G1X327769Y536900D1*
G1X327152Y537230D1*
G1X326484Y537433D1*
G1X325963Y537484D1*
G1X325614Y537484D1*
G1X325093Y537433D1*
G1X324424Y537230D1*
G1X323808Y536900D1*
G1X323268Y536457D1*
G1X322825Y535917D1*
G1X322495Y535301D1*
G1X322292Y534632D1*
G1X322224Y533937D1*
G37*
G36*
G1X312224Y543937D2*
G1X312292Y543241D1*
G1X312495Y542573D1*
G1X312825Y541956D1*
G1X313268Y541416D1*
G1X313808Y540973D1*
G1X314424Y540644D1*
G1X315093Y540441D1*
G1X315614Y540389D1*
G1X315963Y540389D1*
G1X316484Y540441D1*
G1X317152Y540644D1*
G1X317769Y540973D1*
G1X318309Y541416D1*
G1X318752Y541956D1*
G1X319081Y542573D1*
G1X319284Y543241D1*
G1X319353Y543937D1*
G1X319284Y544632D1*
G1X319081Y545301D1*
G1X318752Y545917D1*
G1X318309Y546457D1*
G1X317769Y546900D1*
G1X317152Y547230D1*
G1X316484Y547433D1*
G1X315963Y547484D1*
G1X315614Y547484D1*
G1X315093Y547433D1*
G1X314424Y547230D1*
G1X313808Y546900D1*
G1X313268Y546457D1*
G1X312825Y545917D1*
G1X312495Y545301D1*
G1X312292Y544632D1*
G1X312224Y543937D1*
G37*
G36*
G1X322224Y543937D2*
G1X322292Y543241D1*
G1X322495Y542573D1*
G1X322825Y541956D1*
G1X323268Y541416D1*
G1X323808Y540973D1*
G1X324424Y540644D1*
G1X325093Y540441D1*
G1X325614Y540389D1*
G1X325963Y540389D1*
G1X326484Y540441D1*
G1X327152Y540644D1*
G1X327769Y540973D1*
G1X328309Y541416D1*
G1X328752Y541956D1*
G1X329081Y542573D1*
G1X329284Y543241D1*
G1X329353Y543937D1*
G1X329284Y544632D1*
G1X329081Y545301D1*
G1X328752Y545917D1*
G1X328309Y546457D1*
G1X327769Y546900D1*
G1X327152Y547230D1*
G1X326484Y547433D1*
G1X325963Y547484D1*
G1X325614Y547484D1*
G1X325093Y547433D1*
G1X324424Y547230D1*
G1X323808Y546900D1*
G1X323268Y546457D1*
G1X322825Y545917D1*
G1X322495Y545301D1*
G1X322292Y544632D1*
G1X322224Y543937D1*
G37*
G36*
G1X219302Y549862D2*
G1X219302Y542768D1*
G1X226396Y542768D1*
G1X226396Y549862D1*
G1X219302Y549862D1*
G37*
G36*
G1X229285Y546315D2*
G1X229353Y545620D1*
G1X229556Y544951D1*
G1X229885Y544335D1*
G1X230329Y543795D1*
G1X230869Y543352D1*
G1X231485Y543022D1*
G1X232154Y542819D1*
G1X232675Y542768D1*
G1X233023Y542768D1*
G1X233544Y542819D1*
G1X234213Y543022D1*
G1X234829Y543352D1*
G1X235369Y543795D1*
G1X235813Y544335D1*
G1X236142Y544951D1*
G1X236345Y545620D1*
G1X236413Y546315D1*
G1X236345Y547011D1*
G1X236142Y547679D1*
G1X235813Y548296D1*
G1X235369Y548836D1*
G1X234829Y549279D1*
G1X234213Y549608D1*
G1X233544Y549811D1*
G1X233023Y549862D1*
G1X232675Y549862D1*
G1X232154Y549811D1*
G1X231485Y549608D1*
G1X230869Y549279D1*
G1X230329Y548836D1*
G1X229885Y548296D1*
G1X229556Y547679D1*
G1X229353Y547011D1*
G1X229285Y546315D1*
G37*
G36*
G1X239285Y546315D2*
G1X239353Y545620D1*
G1X239556Y544951D1*
G1X239885Y544335D1*
G1X240329Y543795D1*
G1X240869Y543352D1*
G1X241485Y543022D1*
G1X242154Y542819D1*
G1X242675Y542768D1*
G1X243023Y542768D1*
G1X243544Y542819D1*
G1X244213Y543022D1*
G1X244829Y543352D1*
G1X245369Y543795D1*
G1X245813Y544335D1*
G1X246142Y544951D1*
G1X246345Y545620D1*
G1X246413Y546315D1*
G1X246345Y547011D1*
G1X246142Y547679D1*
G1X245813Y548296D1*
G1X245369Y548836D1*
G1X244829Y549279D1*
G1X244213Y549608D1*
G1X243544Y549811D1*
G1X243023Y549862D1*
G1X242675Y549862D1*
G1X242154Y549811D1*
G1X241485Y549608D1*
G1X240869Y549279D1*
G1X240329Y548836D1*
G1X239885Y548296D1*
G1X239556Y547679D1*
G1X239353Y547011D1*
G1X239285Y546315D1*
G37*
G36*
G1X249285Y546315D2*
G1X249353Y545620D1*
G1X249556Y544951D1*
G1X249885Y544335D1*
G1X250329Y543795D1*
G1X250869Y543352D1*
G1X251485Y543022D1*
G1X252154Y542819D1*
G1X252675Y542768D1*
G1X253023Y542768D1*
G1X253544Y542819D1*
G1X254213Y543022D1*
G1X254829Y543352D1*
G1X255369Y543795D1*
G1X255813Y544335D1*
G1X256142Y544951D1*
G1X256345Y545620D1*
G1X256413Y546315D1*
G1X256345Y547011D1*
G1X256142Y547679D1*
G1X255813Y548296D1*
G1X255369Y548836D1*
G1X254829Y549279D1*
G1X254213Y549608D1*
G1X253544Y549811D1*
G1X253023Y549862D1*
G1X252675Y549862D1*
G1X252154Y549811D1*
G1X251485Y549608D1*
G1X250869Y549279D1*
G1X250329Y548836D1*
G1X249885Y548296D1*
G1X249556Y547679D1*
G1X249353Y547011D1*
G1X249285Y546315D1*
G37*
G36*
G1X312224Y553937D2*
G1X312292Y553241D1*
G1X312495Y552573D1*
G1X312825Y551956D1*
G1X313268Y551416D1*
G1X313808Y550973D1*
G1X314424Y550644D1*
G1X315093Y550441D1*
G1X315614Y550389D1*
G1X315963Y550389D1*
G1X316484Y550441D1*
G1X317152Y550644D1*
G1X317769Y550973D1*
G1X318309Y551416D1*
G1X318752Y551956D1*
G1X319081Y552573D1*
G1X319284Y553241D1*
G1X319353Y553937D1*
G1X319284Y554632D1*
G1X319081Y555301D1*
G1X318752Y555917D1*
G1X318309Y556457D1*
G1X317769Y556900D1*
G1X317152Y557230D1*
G1X316484Y557433D1*
G1X315963Y557484D1*
G1X315614Y557484D1*
G1X315093Y557433D1*
G1X314424Y557230D1*
G1X313808Y556900D1*
G1X313268Y556457D1*
G1X312825Y555917D1*
G1X312495Y555301D1*
G1X312292Y554632D1*
G1X312224Y553937D1*
G37*
G36*
G1X322224Y553937D2*
G1X322292Y553241D1*
G1X322495Y552573D1*
G1X322825Y551956D1*
G1X323268Y551416D1*
G1X323808Y550973D1*
G1X324424Y550644D1*
G1X325093Y550441D1*
G1X325614Y550389D1*
G1X325963Y550389D1*
G1X326484Y550441D1*
G1X327152Y550644D1*
G1X327769Y550973D1*
G1X328309Y551416D1*
G1X328752Y551956D1*
G1X329081Y552573D1*
G1X329284Y553241D1*
G1X329353Y553937D1*
G1X329284Y554632D1*
G1X329081Y555301D1*
G1X328752Y555917D1*
G1X328309Y556457D1*
G1X327769Y556900D1*
G1X327152Y557230D1*
G1X326484Y557433D1*
G1X325963Y557484D1*
G1X325614Y557484D1*
G1X325093Y557433D1*
G1X324424Y557230D1*
G1X323808Y556900D1*
G1X323268Y556457D1*
G1X322825Y555917D1*
G1X322495Y555301D1*
G1X322292Y554632D1*
G1X322224Y553937D1*
G37*
G1X514404Y550803D2*
G54D19*
G1X514685Y550521D1*
G1X515529Y550240D1*
G1X516091Y550240D1*
G1X516935Y550521D1*
G1X517497Y551084D1*
G1X517778Y551646D1*
G1X518060Y552771D1*
G1X518060Y553615D1*
G1X517778Y554740D1*
G1X517497Y555302D1*
G1X516935Y555865D1*
G1X516091Y556146D1*
G1X515529Y556146D1*
G1X514685Y555865D1*
G1X514404Y555583D1*
G1X511029Y550240D2*
G1X511592Y550521D1*
G1X511873Y550803D1*
G1X512154Y551365D1*
G1X512154Y553052D1*
G1X511873Y553615D1*
G1X511592Y553896D1*
G1X511029Y554177D1*
G1X510186Y554177D1*
G1X509623Y553896D1*
G1X509342Y553615D1*
G1X509061Y553052D1*
G1X509061Y551365D1*
G1X509342Y550803D1*
G1X509623Y550521D1*
G1X510186Y550240D1*
G1X511029Y550240D1*
G1X506530Y554177D2*
G1X506530Y550240D1*
G1X506530Y553615D2*
G1X506249Y553896D1*
G1X505686Y554177D1*
G1X504842Y554177D1*
G1X504280Y553896D1*
G1X503999Y553334D1*
G1X503999Y550240D1*
G1X501187Y554177D2*
G1X501187Y550240D1*
G1X501187Y553615D2*
G1X500905Y553896D1*
G1X500343Y554177D1*
G1X499499Y554177D1*
G1X498937Y553896D1*
G1X498656Y553334D1*
G1X498656Y550240D1*
G1X495000Y550240D2*
G1X495562Y550521D1*
G1X495844Y550803D1*
G1X496125Y551365D1*
G1X496125Y553052D1*
G1X495844Y553615D1*
G1X495562Y553896D1*
G1X495000Y554177D1*
G1X494156Y554177D1*
G1X493594Y553896D1*
G1X493313Y553615D1*
G1X493031Y553052D1*
G1X493031Y551365D1*
G1X493313Y550803D1*
G1X493594Y550521D1*
G1X494156Y550240D1*
G1X495000Y550240D1*
G1X490501Y550240D2*
G1X490501Y554177D1*
G1X490501Y553052D2*
G1X490219Y553615D1*
G1X489938Y553896D1*
G1X489376Y554177D1*
G1X488813Y554177D1*
G1X518341Y546106D2*
G1X516935Y540201D1*
G1X515810Y544419D1*
G1X514685Y540201D1*
G1X513279Y546106D1*
G1X511029Y540201D2*
G1X511029Y544138D1*
G1X511029Y546106D2*
G1X511310Y545825D1*
G1X511029Y545544D1*
G1X510748Y545825D1*
G1X511029Y546106D1*
G1X511029Y545544D1*
G1X508217Y544138D2*
G1X508217Y540201D1*
G1X508217Y543575D2*
G1X507936Y543857D1*
G1X507373Y544138D1*
G1X506530Y544138D1*
G1X505967Y543857D1*
G1X505686Y543294D1*
G1X505686Y540201D1*
G1X502874Y540201D2*
G1X502874Y544138D1*
G1X502874Y546106D2*
G1X503155Y545825D1*
G1X502874Y545544D1*
G1X502593Y545825D1*
G1X502874Y546106D1*
G1X502874Y545544D1*
G1X497531Y540201D2*
G1X497531Y543294D1*
G1X497812Y543857D1*
G1X498375Y544138D1*
G1X499499Y544138D1*
G1X500062Y543857D1*
G1X497531Y540482D2*
G1X498093Y540201D1*
G1X499499Y540201D1*
G1X500062Y540482D1*
G1X500343Y541044D1*
G1X500343Y541607D1*
G1X500062Y542169D1*
G1X499499Y542451D1*
G1X498093Y542451D1*
G1X497531Y542732D1*
G1X494719Y540201D2*
G1X494719Y544138D1*
G1X494719Y543013D2*
G1X494438Y543575D1*
G1X494156Y543857D1*
G1X493594Y544138D1*
G1X493031Y544138D1*
G1X488532Y540482D2*
G1X489094Y540201D1*
G1X490219Y540201D1*
G1X490782Y540482D1*
G1X491063Y540763D1*
G1X491344Y541326D1*
G1X491344Y543013D1*
G1X491063Y543575D1*
G1X490782Y543857D1*
G1X490219Y544138D1*
G1X489094Y544138D1*
G1X488532Y543857D1*
G1X486564Y544138D2*
G1X483470Y544138D1*
G1X486564Y540201D1*
G1X483470Y540201D1*
G1X481783Y544138D2*
G1X480377Y540201D1*
G1X478971Y544138D2*
G1X480377Y540201D1*
G1X480939Y538795D1*
G1X481220Y538514D1*
G1X481783Y538232D1*
G1X476721Y540201D2*
G1X476721Y546106D1*
G1X476159Y542451D2*
G1X474471Y540201D1*
G1X474471Y544138D2*
G1X476721Y541888D1*
G1X467160Y546106D2*
G1X467722Y544981D1*
G1X464910Y545544D2*
G1X464629Y545825D1*
G1X464066Y546106D1*
G1X462660Y546106D1*
G1X462098Y545825D1*
G1X461817Y545544D1*
G1X461535Y544981D1*
G1X461535Y544419D1*
G1X461817Y543575D1*
G1X465191Y540201D1*
G1X461535Y540201D1*
G1X457880Y546106D2*
G1X457317Y546106D1*
G1X456755Y545825D1*
G1X456474Y545544D1*
G1X456192Y544981D1*
G1X455911Y543857D1*
G1X455911Y542451D1*
G1X456192Y541326D1*
G1X456474Y540763D1*
G1X456755Y540482D1*
G1X457317Y540201D1*
G1X457880Y540201D1*
G1X458442Y540482D1*
G1X458723Y540763D1*
G1X459004Y541326D1*
G1X459286Y542451D1*
G1X459286Y543857D1*
G1X459004Y544981D1*
G1X458723Y545544D1*
G1X458442Y545825D1*
G1X457880Y546106D1*
G54D20*
G36*
G1X748188Y404079D2*
G1X748772Y401143D1*
G1X749918Y398376D1*
G1X751581Y395887D1*
G1X753698Y393769D1*
G1X756188Y392106D1*
G1X758954Y390960D1*
G1X761891Y390376D1*
G1X764886Y390376D1*
G1X767822Y390960D1*
G1X770589Y392106D1*
G1X773078Y393769D1*
G1X775196Y395887D1*
G1X776859Y398376D1*
G1X778005Y401143D1*
G1X778589Y404079D1*
G1X778589Y407074D1*
G1X778005Y410011D1*
G1X776859Y412777D1*
G1X775196Y415267D1*
G1X773078Y417384D1*
G1X770589Y419047D1*
G1X767822Y420193D1*
G1X764886Y420777D1*
G1X761891Y420777D1*
G1X758954Y420193D1*
G1X756188Y419047D1*
G1X753698Y417384D1*
G1X751581Y415267D1*
G1X749918Y412777D1*
G1X748772Y410011D1*
G1X748188Y407074D1*
G1X748188Y404079D1*
G37*
G36*
G1X412208Y404079D2*
G1X412792Y401143D1*
G1X413938Y398376D1*
G1X415601Y395887D1*
G1X417718Y393769D1*
G1X420208Y392106D1*
G1X422974Y390960D1*
G1X425911Y390376D1*
G1X428906Y390376D1*
G1X431842Y390960D1*
G1X434609Y392106D1*
G1X437098Y393769D1*
G1X439216Y395887D1*
G1X440879Y398376D1*
G1X442025Y401143D1*
G1X442609Y404079D1*
G1X442609Y407074D1*
G1X442025Y410011D1*
G1X440879Y412777D1*
G1X439216Y415267D1*
G1X437098Y417384D1*
G1X434609Y419047D1*
G1X431842Y420193D1*
G1X428906Y420777D1*
G1X425911Y420777D1*
G1X422974Y420193D1*
G1X420208Y419047D1*
G1X417718Y417384D1*
G1X415601Y415267D1*
G1X413938Y412777D1*
G1X412792Y410011D1*
G1X412208Y407074D1*
G1X412208Y404079D1*
G37*
G36*
G1X469341Y408524D2*
G1X469341Y401429D1*
G1X476436Y401429D1*
G1X476436Y408524D1*
G1X469341Y408524D1*
G37*
G36*
G1X719324Y404977D2*
G1X719392Y404281D1*
G1X719595Y403613D1*
G1X719925Y402996D1*
G1X720368Y402456D1*
G1X720908Y402013D1*
G1X721524Y401684D1*
G1X722193Y401481D1*
G1X722714Y401429D1*
G1X723063Y401429D1*
G1X723584Y401481D1*
G1X724252Y401684D1*
G1X724869Y402013D1*
G1X725409Y402456D1*
G1X725852Y402996D1*
G1X726181Y403613D1*
G1X726384Y404281D1*
G1X726453Y404977D1*
G1X726384Y405672D1*
G1X726181Y406341D1*
G1X725852Y406957D1*
G1X725409Y407497D1*
G1X724869Y407940D1*
G1X724252Y408270D1*
G1X723584Y408473D1*
G1X723063Y408524D1*
G1X722714Y408524D1*
G1X722193Y408473D1*
G1X721524Y408270D1*
G1X720908Y407940D1*
G1X720368Y407497D1*
G1X719925Y406957D1*
G1X719595Y406341D1*
G1X719392Y405672D1*
G1X719324Y404977D1*
G37*
G36*
G1X709341Y408524D2*
G1X709341Y401429D1*
G1X716436Y401429D1*
G1X716436Y408524D1*
G1X709341Y408524D1*
G37*
G36*
G1X479324Y404977D2*
G1X479392Y404281D1*
G1X479595Y403613D1*
G1X479925Y402996D1*
G1X480368Y402456D1*
G1X480908Y402013D1*
G1X481524Y401684D1*
G1X482193Y401481D1*
G1X482714Y401429D1*
G1X483063Y401429D1*
G1X483584Y401481D1*
G1X484252Y401684D1*
G1X484869Y402013D1*
G1X485409Y402456D1*
G1X485852Y402996D1*
G1X486181Y403613D1*
G1X486384Y404281D1*
G1X486453Y404977D1*
G1X486384Y405672D1*
G1X486181Y406341D1*
G1X485852Y406957D1*
G1X485409Y407497D1*
G1X484869Y407940D1*
G1X484252Y408270D1*
G1X483584Y408473D1*
G1X483063Y408524D1*
G1X482714Y408524D1*
G1X482193Y408473D1*
G1X481524Y408270D1*
G1X480908Y407940D1*
G1X480368Y407497D1*
G1X479925Y406957D1*
G1X479595Y406341D1*
G1X479392Y405672D1*
G1X479324Y404977D1*
G37*
G36*
G1X640030Y413977D2*
G1X640030Y406882D1*
G1X647125Y406882D1*
G1X647125Y413977D1*
G1X640030Y413977D1*
G37*
G36*
G1X650013Y410429D2*
G1X650081Y409734D1*
G1X650284Y409065D1*
G1X650614Y408449D1*
G1X651057Y407909D1*
G1X651597Y407466D1*
G1X652213Y407136D1*
G1X652882Y406934D1*
G1X653403Y406882D1*
G1X653752Y406882D1*
G1X654273Y406934D1*
G1X654941Y407136D1*
G1X655558Y407466D1*
G1X656098Y407909D1*
G1X656541Y408449D1*
G1X656870Y409065D1*
G1X657073Y409734D1*
G1X657142Y410429D1*
G1X657073Y411125D1*
G1X656870Y411793D1*
G1X656541Y412410D1*
G1X656098Y412950D1*
G1X655558Y413393D1*
G1X654941Y413722D1*
G1X654273Y413925D1*
G1X653752Y413977D1*
G1X653403Y413977D1*
G1X652882Y413925D1*
G1X652213Y413722D1*
G1X651597Y413393D1*
G1X651057Y412950D1*
G1X650614Y412410D1*
G1X650284Y411793D1*
G1X650081Y411125D1*
G1X650013Y410429D1*
G37*
G36*
G1X446176Y471577D2*
G1X446421Y469087D1*
G1X447148Y466693D1*
G1X448327Y464486D1*
G1X449914Y462552D1*
G1X451848Y460965D1*
G1X454054Y459786D1*
G1X456449Y459060D1*
G1X458314Y458876D1*
G1X477062Y458876D1*
G1X478928Y459060D1*
G1X481322Y459786D1*
G1X483529Y460965D1*
G1X485463Y462552D1*
G1X487050Y464486D1*
G1X488229Y466693D1*
G1X488955Y469087D1*
G1X489201Y471577D1*
G1X488955Y474066D1*
G1X488229Y476461D1*
G1X487050Y478667D1*
G1X485463Y480601D1*
G1X483529Y482188D1*
G1X481322Y483367D1*
G1X478928Y484094D1*
G1X477062Y484277D1*
G1X458314Y484277D1*
G1X456449Y484094D1*
G1X454054Y483367D1*
G1X451848Y482188D1*
G1X449914Y480601D1*
G1X448327Y478667D1*
G1X447148Y476461D1*
G1X446421Y474066D1*
G1X446176Y471577D1*
G37*
G36*
G1X713176Y471577D2*
G1X713421Y469087D1*
G1X714148Y466693D1*
G1X715327Y464486D1*
G1X716914Y462552D1*
G1X718848Y460965D1*
G1X721054Y459786D1*
G1X723449Y459060D1*
G1X725314Y458876D1*
G1X744062Y458876D1*
G1X745928Y459060D1*
G1X748322Y459786D1*
G1X750529Y460965D1*
G1X752463Y462552D1*
G1X754050Y464486D1*
G1X755229Y466693D1*
G1X755955Y469087D1*
G1X756201Y471577D1*
G1X755955Y474066D1*
G1X755229Y476461D1*
G1X754050Y478667D1*
G1X752463Y480601D1*
G1X750529Y482188D1*
G1X748322Y483367D1*
G1X745928Y484094D1*
G1X744062Y484277D1*
G1X725314Y484277D1*
G1X723449Y484094D1*
G1X721054Y483367D1*
G1X718848Y482188D1*
G1X716914Y480601D1*
G1X715327Y478667D1*
G1X714148Y476461D1*
G1X713421Y474066D1*
G1X713176Y471577D1*
G37*
G36*
G1X531690Y513677D2*
G1X531760Y512971D1*
G1X531966Y512292D1*
G1X532300Y511666D1*
G1X532750Y511118D1*
G1X533298Y510668D1*
G1X533924Y510334D1*
G1X534602Y510128D1*
G1X535131Y510076D1*
G1X535485Y510076D1*
G1X536014Y510128D1*
G1X536693Y510334D1*
G1X537319Y510668D1*
G1X537867Y511118D1*
G1X538317Y511666D1*
G1X538651Y512292D1*
G1X538857Y512971D1*
G1X538927Y513677D1*
G1X538857Y514383D1*
G1X538651Y515061D1*
G1X538317Y515687D1*
G1X537867Y516235D1*
G1X537319Y516685D1*
G1X536693Y517019D1*
G1X536014Y517225D1*
G1X535485Y517277D1*
G1X535131Y517277D1*
G1X534602Y517225D1*
G1X533924Y517019D1*
G1X533298Y516685D1*
G1X532750Y516235D1*
G1X532300Y515687D1*
G1X531966Y515061D1*
G1X531760Y514383D1*
G1X531690Y513677D1*
G37*
G36*
G1X541690Y513677D2*
G1X541760Y512971D1*
G1X541966Y512292D1*
G1X542300Y511666D1*
G1X542750Y511118D1*
G1X543298Y510668D1*
G1X543924Y510334D1*
G1X544602Y510128D1*
G1X545131Y510076D1*
G1X545485Y510076D1*
G1X546014Y510128D1*
G1X546693Y510334D1*
G1X547319Y510668D1*
G1X547867Y511118D1*
G1X548317Y511666D1*
G1X548651Y512292D1*
G1X548857Y512971D1*
G1X548927Y513677D1*
G1X548857Y514383D1*
G1X548651Y515061D1*
G1X548317Y515687D1*
G1X547867Y516235D1*
G1X547319Y516685D1*
G1X546693Y517019D1*
G1X546014Y517225D1*
G1X545485Y517277D1*
G1X545131Y517277D1*
G1X544602Y517225D1*
G1X543924Y517019D1*
G1X543298Y516685D1*
G1X542750Y516235D1*
G1X542300Y515687D1*
G1X541966Y515061D1*
G1X541760Y514383D1*
G1X541690Y513677D1*
G37*
G36*
G1X541690Y523677D2*
G1X541760Y522971D1*
G1X541966Y522292D1*
G1X542300Y521666D1*
G1X542750Y521118D1*
G1X543298Y520668D1*
G1X543924Y520334D1*
G1X544602Y520128D1*
G1X545131Y520076D1*
G1X545485Y520076D1*
G1X546014Y520128D1*
G1X546693Y520334D1*
G1X547319Y520668D1*
G1X547867Y521118D1*
G1X548317Y521666D1*
G1X548651Y522292D1*
G1X548857Y522971D1*
G1X548927Y523677D1*
G1X548857Y524383D1*
G1X548651Y525061D1*
G1X548317Y525687D1*
G1X547867Y526235D1*
G1X547319Y526685D1*
G1X546693Y527019D1*
G1X546014Y527225D1*
G1X545485Y527277D1*
G1X545131Y527277D1*
G1X544602Y527225D1*
G1X543924Y527019D1*
G1X543298Y526685D1*
G1X542750Y526235D1*
G1X542300Y525687D1*
G1X541966Y525061D1*
G1X541760Y524383D1*
G1X541690Y523677D1*
G37*
G36*
G1X531690Y523677D2*
G1X531760Y522971D1*
G1X531966Y522292D1*
G1X532300Y521666D1*
G1X532750Y521118D1*
G1X533298Y520668D1*
G1X533924Y520334D1*
G1X534602Y520128D1*
G1X535131Y520076D1*
G1X535485Y520076D1*
G1X536014Y520128D1*
G1X536693Y520334D1*
G1X537319Y520668D1*
G1X537867Y521118D1*
G1X538317Y521666D1*
G1X538651Y522292D1*
G1X538857Y522971D1*
G1X538927Y523677D1*
G1X538857Y524383D1*
G1X538651Y525061D1*
G1X538317Y525687D1*
G1X537867Y526235D1*
G1X537319Y526685D1*
G1X536693Y527019D1*
G1X536014Y527225D1*
G1X535485Y527277D1*
G1X535131Y527277D1*
G1X534602Y527225D1*
G1X533924Y527019D1*
G1X533298Y526685D1*
G1X532750Y526235D1*
G1X532300Y525687D1*
G1X531966Y525061D1*
G1X531760Y524383D1*
G1X531690Y523677D1*
G37*
G36*
G1X412208Y541019D2*
G1X412792Y538083D1*
G1X413938Y535316D1*
G1X415601Y532827D1*
G1X417718Y530709D1*
G1X420208Y529046D1*
G1X422974Y527900D1*
G1X425911Y527316D1*
G1X428906Y527316D1*
G1X431842Y527900D1*
G1X434609Y529046D1*
G1X437098Y530709D1*
G1X439216Y532827D1*
G1X440879Y535316D1*
G1X442025Y538083D1*
G1X442609Y541019D1*
G1X442609Y544014D1*
G1X442025Y546951D1*
G1X440879Y549717D1*
G1X439216Y552207D1*
G1X437098Y554324D1*
G1X434609Y555987D1*
G1X431842Y557133D1*
G1X428906Y557717D1*
G1X425911Y557717D1*
G1X422974Y557133D1*
G1X420208Y555987D1*
G1X417718Y554324D1*
G1X415601Y552207D1*
G1X413938Y549717D1*
G1X412792Y546951D1*
G1X412208Y544014D1*
G1X412208Y541019D1*
G37*
G36*
G1X748188Y541019D2*
G1X748772Y538083D1*
G1X749918Y535316D1*
G1X751581Y532827D1*
G1X753698Y530709D1*
G1X756188Y529046D1*
G1X758954Y527900D1*
G1X761891Y527316D1*
G1X764886Y527316D1*
G1X767822Y527900D1*
G1X770589Y529046D1*
G1X773078Y530709D1*
G1X775196Y532827D1*
G1X776859Y535316D1*
G1X778005Y538083D1*
G1X778589Y541019D1*
G1X778589Y544014D1*
G1X778005Y546951D1*
G1X776859Y549717D1*
G1X775196Y552207D1*
G1X773078Y554324D1*
G1X770589Y555987D1*
G1X767822Y557133D1*
G1X764886Y557717D1*
G1X761891Y557717D1*
G1X758954Y557133D1*
G1X756188Y555987D1*
G1X753698Y554324D1*
G1X751581Y552207D1*
G1X749918Y549717D1*
G1X748772Y546951D1*
G1X748188Y544014D1*
G1X748188Y541019D1*
G37*
G36*
G1X541690Y533677D2*
G1X541760Y532971D1*
G1X541966Y532292D1*
G1X542300Y531666D1*
G1X542750Y531118D1*
G1X543298Y530668D1*
G1X543924Y530334D1*
G1X544602Y530128D1*
G1X545131Y530076D1*
G1X545485Y530076D1*
G1X546014Y530128D1*
G1X546693Y530334D1*
G1X547319Y530668D1*
G1X547867Y531118D1*
G1X548317Y531666D1*
G1X548651Y532292D1*
G1X548857Y532971D1*
G1X548927Y533677D1*
G1X548857Y534383D1*
G1X548651Y535061D1*
G1X548317Y535687D1*
G1X547867Y536235D1*
G1X547319Y536685D1*
G1X546693Y537019D1*
G1X546014Y537225D1*
G1X545485Y537277D1*
G1X545131Y537277D1*
G1X544602Y537225D1*
G1X543924Y537019D1*
G1X543298Y536685D1*
G1X542750Y536235D1*
G1X542300Y535687D1*
G1X541966Y535061D1*
G1X541760Y534383D1*
G1X541690Y533677D1*
G37*
G36*
G1X531708Y537277D2*
G1X531708Y530076D1*
G1X538909Y530076D1*
G1X538909Y537277D1*
G1X531708Y537277D1*
G37*
G36*
G1X712241Y537484D2*
G1X712241Y530389D1*
G1X719336Y530389D1*
G1X719336Y537484D1*
G1X712241Y537484D1*
G37*
G36*
G1X722224Y533937D2*
G1X722292Y533241D1*
G1X722495Y532573D1*
G1X722825Y531956D1*
G1X723268Y531416D1*
G1X723808Y530973D1*
G1X724424Y530644D1*
G1X725093Y530441D1*
G1X725614Y530389D1*
G1X725963Y530389D1*
G1X726484Y530441D1*
G1X727152Y530644D1*
G1X727769Y530973D1*
G1X728309Y531416D1*
G1X728752Y531956D1*
G1X729081Y532573D1*
G1X729284Y533241D1*
G1X729353Y533937D1*
G1X729284Y534632D1*
G1X729081Y535301D1*
G1X728752Y535917D1*
G1X728309Y536457D1*
G1X727769Y536900D1*
G1X727152Y537230D1*
G1X726484Y537433D1*
G1X725963Y537484D1*
G1X725614Y537484D1*
G1X725093Y537433D1*
G1X724424Y537230D1*
G1X723808Y536900D1*
G1X723268Y536457D1*
G1X722825Y535917D1*
G1X722495Y535301D1*
G1X722292Y534632D1*
G1X722224Y533937D1*
G37*
G36*
G1X712224Y543937D2*
G1X712292Y543241D1*
G1X712495Y542573D1*
G1X712825Y541956D1*
G1X713268Y541416D1*
G1X713808Y540973D1*
G1X714424Y540644D1*
G1X715093Y540441D1*
G1X715614Y540389D1*
G1X715963Y540389D1*
G1X716484Y540441D1*
G1X717152Y540644D1*
G1X717769Y540973D1*
G1X718309Y541416D1*
G1X718752Y541956D1*
G1X719081Y542573D1*
G1X719284Y543241D1*
G1X719353Y543937D1*
G1X719284Y544632D1*
G1X719081Y545301D1*
G1X718752Y545917D1*
G1X718309Y546457D1*
G1X717769Y546900D1*
G1X717152Y547230D1*
G1X716484Y547433D1*
G1X715963Y547484D1*
G1X715614Y547484D1*
G1X715093Y547433D1*
G1X714424Y547230D1*
G1X713808Y546900D1*
G1X713268Y546457D1*
G1X712825Y545917D1*
G1X712495Y545301D1*
G1X712292Y544632D1*
G1X712224Y543937D1*
G37*
G36*
G1X722224Y543937D2*
G1X722292Y543241D1*
G1X722495Y542573D1*
G1X722825Y541956D1*
G1X723268Y541416D1*
G1X723808Y540973D1*
G1X724424Y540644D1*
G1X725093Y540441D1*
G1X725614Y540389D1*
G1X725963Y540389D1*
G1X726484Y540441D1*
G1X727152Y540644D1*
G1X727769Y540973D1*
G1X728309Y541416D1*
G1X728752Y541956D1*
G1X729081Y542573D1*
G1X729284Y543241D1*
G1X729353Y543937D1*
G1X729284Y544632D1*
G1X729081Y545301D1*
G1X728752Y545917D1*
G1X728309Y546457D1*
G1X727769Y546900D1*
G1X727152Y547230D1*
G1X726484Y547433D1*
G1X725963Y547484D1*
G1X725614Y547484D1*
G1X725093Y547433D1*
G1X724424Y547230D1*
G1X723808Y546900D1*
G1X723268Y546457D1*
G1X722825Y545917D1*
G1X722495Y545301D1*
G1X722292Y544632D1*
G1X722224Y543937D1*
G37*
G36*
G1X619302Y549862D2*
G1X619302Y542768D1*
G1X626396Y542768D1*
G1X626396Y549862D1*
G1X619302Y549862D1*
G37*
G36*
G1X629285Y546315D2*
G1X629353Y545620D1*
G1X629556Y544951D1*
G1X629885Y544335D1*
G1X630329Y543795D1*
G1X630869Y543352D1*
G1X631485Y543022D1*
G1X632154Y542819D1*
G1X632675Y542768D1*
G1X633023Y542768D1*
G1X633544Y542819D1*
G1X634213Y543022D1*
G1X634829Y543352D1*
G1X635369Y543795D1*
G1X635813Y544335D1*
G1X636142Y544951D1*
G1X636345Y545620D1*
G1X636413Y546315D1*
G1X636345Y547011D1*
G1X636142Y547679D1*
G1X635813Y548296D1*
G1X635369Y548836D1*
G1X634829Y549279D1*
G1X634213Y549608D1*
G1X633544Y549811D1*
G1X633023Y549862D1*
G1X632675Y549862D1*
G1X632154Y549811D1*
G1X631485Y549608D1*
G1X630869Y549279D1*
G1X630329Y548836D1*
G1X629885Y548296D1*
G1X629556Y547679D1*
G1X629353Y547011D1*
G1X629285Y546315D1*
G37*
G36*
G1X639285Y546315D2*
G1X639353Y545620D1*
G1X639556Y544951D1*
G1X639885Y544335D1*
G1X640329Y543795D1*
G1X640869Y543352D1*
G1X641485Y543022D1*
G1X642154Y542819D1*
G1X642675Y542768D1*
G1X643023Y542768D1*
G1X643544Y542819D1*
G1X644213Y543022D1*
G1X644829Y543352D1*
G1X645369Y543795D1*
G1X645813Y544335D1*
G1X646142Y544951D1*
G1X646345Y545620D1*
G1X646413Y546315D1*
G1X646345Y547011D1*
G1X646142Y547679D1*
G1X645813Y548296D1*
G1X645369Y548836D1*
G1X644829Y549279D1*
G1X644213Y549608D1*
G1X643544Y549811D1*
G1X643023Y549862D1*
G1X642675Y549862D1*
G1X642154Y549811D1*
G1X641485Y549608D1*
G1X640869Y549279D1*
G1X640329Y548836D1*
G1X639885Y548296D1*
G1X639556Y547679D1*
G1X639353Y547011D1*
G1X639285Y546315D1*
G37*
G36*
G1X649285Y546315D2*
G1X649353Y545620D1*
G1X649556Y544951D1*
G1X649885Y544335D1*
G1X650329Y543795D1*
G1X650869Y543352D1*
G1X651485Y543022D1*
G1X652154Y542819D1*
G1X652675Y542768D1*
G1X653023Y542768D1*
G1X653544Y542819D1*
G1X654213Y543022D1*
G1X654829Y543352D1*
G1X655369Y543795D1*
G1X655813Y544335D1*
G1X656142Y544951D1*
G1X656345Y545620D1*
G1X656413Y546315D1*
G1X656345Y547011D1*
G1X656142Y547679D1*
G1X655813Y548296D1*
G1X655369Y548836D1*
G1X654829Y549279D1*
G1X654213Y549608D1*
G1X653544Y549811D1*
G1X653023Y549862D1*
G1X652675Y549862D1*
G1X652154Y549811D1*
G1X651485Y549608D1*
G1X650869Y549279D1*
G1X650329Y548836D1*
G1X649885Y548296D1*
G1X649556Y547679D1*
G1X649353Y547011D1*
G1X649285Y546315D1*
G37*
G36*
G1X712224Y553937D2*
G1X712292Y553241D1*
G1X712495Y552573D1*
G1X712825Y551956D1*
G1X713268Y551416D1*
G1X713808Y550973D1*
G1X714424Y550644D1*
G1X715093Y550441D1*
G1X715614Y550389D1*
G1X715963Y550389D1*
G1X716484Y550441D1*
G1X717152Y550644D1*
G1X717769Y550973D1*
G1X718309Y551416D1*
G1X718752Y551956D1*
G1X719081Y552573D1*
G1X719284Y553241D1*
G1X719353Y553937D1*
G1X719284Y554632D1*
G1X719081Y555301D1*
G1X718752Y555917D1*
G1X718309Y556457D1*
G1X717769Y556900D1*
G1X717152Y557230D1*
G1X716484Y557433D1*
G1X715963Y557484D1*
G1X715614Y557484D1*
G1X715093Y557433D1*
G1X714424Y557230D1*
G1X713808Y556900D1*
G1X713268Y556457D1*
G1X712825Y555917D1*
G1X712495Y555301D1*
G1X712292Y554632D1*
G1X712224Y553937D1*
G37*
G36*
G1X722224Y553937D2*
G1X722292Y553241D1*
G1X722495Y552573D1*
G1X722825Y551956D1*
G1X723268Y551416D1*
G1X723808Y550973D1*
G1X724424Y550644D1*
G1X725093Y550441D1*
G1X725614Y550389D1*
G1X725963Y550389D1*
G1X726484Y550441D1*
G1X727152Y550644D1*
G1X727769Y550973D1*
G1X728309Y551416D1*
G1X728752Y551956D1*
G1X729081Y552573D1*
G1X729284Y553241D1*
G1X729353Y553937D1*
G1X729284Y554632D1*
G1X729081Y555301D1*
G1X728752Y555917D1*
G1X728309Y556457D1*
G1X727769Y556900D1*
G1X727152Y557230D1*
G1X726484Y557433D1*
G1X725963Y557484D1*
G1X725614Y557484D1*
G1X725093Y557433D1*
G1X724424Y557230D1*
G1X723808Y556900D1*
G1X723268Y556457D1*
G1X722825Y555917D1*
G1X722495Y555301D1*
G1X722292Y554632D1*
G1X722224Y553937D1*
G37*
M2*
