M48
INCH,TZ
FMAT,2
ICI,OFF
T01C.0157
T02C.0394
T03C.04
T04C.125
T05C.17
%
T01
G05
X3889Y7298
X3889Y11298
X3889Y26298
X3889Y30298
X3889Y45298
X3889Y49298
X10189Y49298
X10189Y45298
X10189Y30298
X10189Y26298
X10189Y11298
X10189Y7298
X13927Y9616
X13265Y11784
X13927Y28616
X13265Y30784
X13927Y47616
X13265Y49784
X16449Y13658
X17409Y4248
X17729Y8256
X17409Y23248
X16449Y32658
X16449Y51658
X18019Y6123
X17723Y9302
X18019Y25123
X17729Y27256
X17723Y28302
X17409Y42248
X18019Y44123
X17729Y46256
X17723Y47302
X20104Y42558
X20104Y23558
X20104Y4558
X22314Y6863
X22285Y14328
X22285Y14866
X22285Y15404
X22314Y25863
X22285Y33328
X22285Y33866
X22285Y34404
X22314Y44863
X22285Y52328
X22285Y52866
X22285Y53404
X23389Y2178
X24029Y9673
X23199Y10448
X24312Y9980
X23482Y10751
X23764Y11054
X24047Y11360
X23389Y21178
X24029Y28673
X23199Y29448
X23199Y48448
X24312Y28980
X23482Y29751
X23764Y30054
X24047Y30360
X23389Y40178
X24029Y47673
X24312Y47980
X23482Y48751
X24714Y7993
X24597Y10281
X23764Y49054
X24880Y10588
X24714Y26993
X24597Y29281
X24880Y29588
X24714Y45993
X24597Y48281
X24880Y48588
X24047Y49360
X25669Y12718
X25449Y13526
X25669Y31718
X25449Y32526
X25669Y50718
X25449Y51526
X26799Y11234
X26649Y14873
X26219Y14883
X26649Y15943
X26219Y15953
X26799Y30234
X26649Y33873
X26219Y33883
X26649Y34943
X26219Y34953
X26799Y49234
X26219Y52883
X26219Y53953
X27727Y12058
X27705Y12550
X27543Y13130
X27727Y31058
X27705Y31550
X27543Y32130
X27727Y50058
X27705Y50550
X27543Y51130
X26649Y52873
X26649Y53943
X29601Y15234
X28781Y15400
X28994Y16358
X29601Y34234
X28781Y34400
X28994Y35358
X29601Y53234
X28781Y53400
X28994Y54358
X30877Y49229
X30877Y45229
X30877Y30229
X30877Y26229
X30877Y11229
X30877Y7229
X37177Y7229
X37177Y11229
X37177Y26229
X37177Y30229
X37177Y45229
X37177Y49229
X43889Y49298
X43889Y45298
X43889Y30298
X43889Y26298
X43889Y11298
X43889Y7298
X50189Y7298
X50189Y11298
X50189Y26298
X50189Y30298
X50189Y45298
X50189Y49298
X53927Y9616
X53265Y11784
X53927Y28616
X53265Y30784
X53927Y47616
X53265Y49784
X57409Y4248
X56449Y13658
X57409Y23248
X56449Y32658
X56449Y51658
X58019Y6123
X57729Y8256
X57723Y9302
X58019Y25123
X57729Y27256
X57723Y28302
X57409Y42248
X58019Y44123
X57729Y46256
X57723Y47302
X60104Y42558
X60104Y23558
X60104Y4558
X62314Y6863
X63199Y10448
X62285Y14328
X62285Y14866
X62285Y15404
X62314Y25863
X62285Y33328
X62285Y33866
X62285Y34404
X62314Y44863
X62285Y52328
X62285Y52866
X62285Y53404
X63389Y2178
X64714Y7993
X64029Y9673
X64312Y9980
X63482Y10751
X63764Y11054
X64597Y10281
X64880Y10588
X64047Y11360
X63389Y21178
X63199Y29448
X63482Y29751
X63389Y40178
X63199Y48448
X63482Y48751
X65669Y12718
X65449Y13526
X64714Y26993
X64029Y28673
X64312Y28980
X64597Y29281
X63764Y30054
X63764Y49054
X64880Y29588
X64047Y30360
X64714Y45993
X64029Y47673
X64312Y47980
X64597Y48281
X64880Y48588
X64047Y49360
X66799Y11234
X66649Y14873
X66219Y14883
X66219Y15953
X65669Y31718
X65449Y32526
X66219Y33883
X66219Y34953
X65669Y50718
X65449Y51526
X66649Y52873
X66649Y34943
X66649Y33873
X66649Y15943
X66219Y52883
X66649Y53943
X66219Y53953
X67727Y12058
X67705Y12550
X67543Y13130
X66799Y30234
X67727Y31058
X67705Y31550
X67543Y32130
X66799Y49234
X67727Y50058
X67705Y50550
X67543Y51130
X69601Y15234
X68781Y15400
X68994Y16358
X69601Y34234
X68781Y34400
X68994Y35358
X69601Y53234
X68781Y53400
X68994Y54358
X70877Y49229
X70877Y45229
X70877Y30229
X70877Y26229
X70877Y11229
X70877Y7229
X77177Y7229
X77177Y11229
X77177Y26229
X77177Y30229
X77177Y45229
X77177Y49229
T02
X7289Y2498
X8289Y2498
X7289Y21498
X8289Y21498
X8289Y40498
X7289Y40498
X22285Y16632
X23285Y16632
X23285Y35632
X22285Y35632
X23285Y54632
X22285Y54632
X24285Y16632
X24358Y3043
X25358Y3043
X25285Y16632
X24358Y22043
X25358Y22043
X24285Y35632
X25285Y35632
X24358Y41043
X25358Y41043
X24285Y54632
X25285Y54632
X31289Y2498
X32289Y2498
X32579Y15394
X31579Y15394
X31579Y16394
X32579Y16394
X31579Y17394
X31289Y21498
X32579Y17394
X32289Y21498
X31289Y40498
X32579Y34394
X31579Y34394
X32579Y35394
X31579Y35394
X31579Y36394
X32579Y36394
X32289Y40498
X31579Y53394
X32579Y53394
X32579Y54394
X31579Y54394
X32579Y55394
X31579Y55394
X48289Y2498
X47289Y2498
X47289Y21498
X48289Y21498
X48289Y40498
X47289Y40498
X63285Y16632
X62285Y16632
X62285Y35632
X63285Y35632
X62285Y54632
X64358Y3043
X65285Y16632
X64285Y16632
X64358Y22043
X65285Y35632
X64285Y35632
X63285Y54632
X65358Y41043
X65358Y22043
X65358Y3043
X64358Y41043
X65285Y54632
X64285Y54632
X72289Y2498
X71289Y2498
X71289Y21498
X72579Y15394
X71579Y15394
X71579Y16394
X72579Y16394
X71579Y17394
X72579Y17394
X72289Y21498
X72579Y34394
X71579Y34394
X71579Y35394
X72579Y35394
X72579Y36394
X71579Y36394
X71289Y40498
X72289Y40498
X71579Y53394
X72579Y53394
X72579Y54394
X71579Y54394
X72579Y55394
X71579Y55394
T03
X13531Y13368
X14531Y13368
X14531Y14368
X13531Y14368
X14531Y15368
X13531Y15368
X13531Y32368
X14531Y32368
X13531Y33368
X14531Y33368
X14531Y34368
X13531Y34368
X13531Y51368
X14531Y51368
X13531Y52368
X14531Y52368
X13531Y53368
X14531Y53368
X53531Y13368
X54531Y13368
X54531Y14368
X53531Y14368
X54531Y15368
X53531Y15368
X54531Y32368
X53531Y32368
X54531Y33368
X53531Y33368
X54531Y34368
X53531Y34368
X53531Y51368
X54531Y51368
X54531Y52368
X53531Y52368
X54531Y53368
X53531Y53368
T04
G00X7644Y9158
M15
G01X5894Y9158
M17
G00X7644Y28158
M15
G01X5894Y28158
M17
G00X7644Y47158
M15
G01X5894Y47158
M17
G00X34344Y47158
M15
G01X32594Y47158
M17
G00X34344Y28158
M15
G01X32594Y28158
M17
G00X34344Y9158
M15
G01X32594Y9158
M17
G00X47644Y9158
M15
G01X45894Y9158
M17
G00X47644Y28158
M15
G01X45894Y28158
M17
G00X47644Y47158
M15
G01X45894Y47158
M17
G00X74344Y47158
M15
G01X72594Y47158
M17
G00X74344Y28158
M15
G01X72594Y28158
M17
G00X74344Y9158
M15
G01X72594Y9158
M17
T05
G05
X2741Y2558
X2741Y16252
X2741Y21558
X2741Y35252
X2741Y40558
X2741Y54252
X36339Y54252
X36339Y40558
X36339Y35252
X36339Y21558
X36339Y16252
X36339Y2558
X42741Y2558
X42741Y16252
X42741Y21558
X42741Y35252
X42741Y40558
X42741Y54252
X76339Y54252
X76339Y40558
X76339Y35252
X76339Y21558
X76339Y16252
X76339Y2558
M30
