G04 #@! TF.GenerationSoftware,KiCad,Pcbnew,(5.1.4)-1*
G04 #@! TF.CreationDate,2019-10-11T16:00:27-04:00*
G04 #@! TF.ProjectId,CellMan,43656c6c-4d61-46e2-9e6b-696361645f70,0.1*
G04 #@! TF.SameCoordinates,Original*
G04 #@! TF.FileFunction,Copper,L2,Bot*
G04 #@! TF.FilePolarity,Positive*
%FSLAX46Y46*%
G04 Gerber Fmt 4.6, Leading zero omitted, Abs format (unit mm)*
G04 Created by KiCad (PCBNEW (5.1.4)-1) date 2019-10-11 16:00:27*
%MOMM*%
%LPD*%
G04 APERTURE LIST*
%ADD10C,0.300000*%
%ADD11O,1.700000X1.700000*%
%ADD12R,1.700000X1.700000*%
%ADD13C,0.100000*%
%ADD14C,0.875000*%
%ADD15R,1.500000X0.450000*%
%ADD16C,9.000000*%
%ADD17C,1.150000*%
%ADD18R,1.600000X1.600000*%
%ADD19O,1.600000X1.600000*%
%ADD20C,0.800000*%
%ADD21C,0.250000*%
%ADD22C,2.700000*%
%ADD23C,1.500000*%
%ADD24C,0.254000*%
G04 APERTURE END LIST*
D10*
X116805000Y-119078571D02*
X116805000Y-117578571D01*
X116162143Y-119007142D02*
X116019285Y-119078571D01*
X115733571Y-119078571D01*
X115590714Y-119007142D01*
X115519285Y-118864285D01*
X115519285Y-118792857D01*
X115590714Y-118650000D01*
X115733571Y-118578571D01*
X115947857Y-118578571D01*
X116090714Y-118507142D01*
X116162143Y-118364285D01*
X116162143Y-118292857D01*
X116090714Y-118150000D01*
X115947857Y-118078571D01*
X115733571Y-118078571D01*
X115590714Y-118150000D01*
X113947857Y-118078571D02*
X113376428Y-118078571D01*
X113733571Y-117578571D02*
X113733571Y-118864285D01*
X113662143Y-119007142D01*
X113519285Y-119078571D01*
X113376428Y-119078571D01*
X112876428Y-119078571D02*
X112876428Y-117578571D01*
X112233571Y-119078571D02*
X112233571Y-118292857D01*
X112305000Y-118150000D01*
X112447857Y-118078571D01*
X112662143Y-118078571D01*
X112805000Y-118150000D01*
X112876428Y-118221428D01*
X111519285Y-119078571D02*
X111519285Y-118078571D01*
X111519285Y-117578571D02*
X111590714Y-117650000D01*
X111519285Y-117721428D01*
X111447857Y-117650000D01*
X111519285Y-117578571D01*
X111519285Y-117721428D01*
X110876428Y-119007142D02*
X110733571Y-119078571D01*
X110447857Y-119078571D01*
X110305000Y-119007142D01*
X110233571Y-118864285D01*
X110233571Y-118792857D01*
X110305000Y-118650000D01*
X110447857Y-118578571D01*
X110662143Y-118578571D01*
X110805000Y-118507142D01*
X110876428Y-118364285D01*
X110876428Y-118292857D01*
X110805000Y-118150000D01*
X110662143Y-118078571D01*
X110447857Y-118078571D01*
X110305000Y-118150000D01*
X117019285Y-120628571D02*
X116447857Y-120628571D01*
X116805000Y-120128571D02*
X116805000Y-121414285D01*
X116733571Y-121557142D01*
X116590714Y-121628571D01*
X116447857Y-121628571D01*
X115376428Y-121557142D02*
X115519285Y-121628571D01*
X115805000Y-121628571D01*
X115947857Y-121557142D01*
X116019285Y-121414285D01*
X116019285Y-120842857D01*
X115947857Y-120700000D01*
X115805000Y-120628571D01*
X115519285Y-120628571D01*
X115376428Y-120700000D01*
X115305000Y-120842857D01*
X115305000Y-120985714D01*
X116019285Y-121128571D01*
X114805000Y-121628571D02*
X114019285Y-120628571D01*
X114805000Y-120628571D02*
X114019285Y-121628571D01*
X113662143Y-120628571D02*
X113090714Y-120628571D01*
X113447857Y-120128571D02*
X113447857Y-121414285D01*
X113376428Y-121557142D01*
X113233571Y-121628571D01*
X113090714Y-121628571D01*
X111447857Y-121628571D02*
X111447857Y-120628571D01*
X111447857Y-120914285D02*
X111376428Y-120771428D01*
X111305000Y-120700000D01*
X111162143Y-120628571D01*
X111019285Y-120628571D01*
X109876428Y-120628571D02*
X109876428Y-121628571D01*
X110519285Y-120628571D02*
X110519285Y-121414285D01*
X110447857Y-121557142D01*
X110305000Y-121628571D01*
X110090714Y-121628571D01*
X109947857Y-121557142D01*
X109876428Y-121485714D01*
X108947857Y-121628571D02*
X109090714Y-121557142D01*
X109162143Y-121414285D01*
X109162143Y-120128571D01*
X107805000Y-121557142D02*
X107947857Y-121628571D01*
X108233571Y-121628571D01*
X108376428Y-121557142D01*
X108447857Y-121414285D01*
X108447857Y-120842857D01*
X108376428Y-120700000D01*
X108233571Y-120628571D01*
X107947857Y-120628571D01*
X107805000Y-120700000D01*
X107733571Y-120842857D01*
X107733571Y-120985714D01*
X108447857Y-121128571D01*
X107162143Y-121557142D02*
X107019285Y-121628571D01*
X106733571Y-121628571D01*
X106590714Y-121557142D01*
X106519285Y-121414285D01*
X106519285Y-121342857D01*
X106590714Y-121200000D01*
X106733571Y-121128571D01*
X106947857Y-121128571D01*
X107090714Y-121057142D01*
X107162143Y-120914285D01*
X107162143Y-120842857D01*
X107090714Y-120700000D01*
X106947857Y-120628571D01*
X106733571Y-120628571D01*
X106590714Y-120700000D01*
X116162143Y-124107142D02*
X116305000Y-124178571D01*
X116590714Y-124178571D01*
X116733571Y-124107142D01*
X116805000Y-124035714D01*
X116876428Y-123892857D01*
X116876428Y-123464285D01*
X116805000Y-123321428D01*
X116733571Y-123250000D01*
X116590714Y-123178571D01*
X116305000Y-123178571D01*
X116162143Y-123250000D01*
X115305000Y-124178571D02*
X115447857Y-124107142D01*
X115519285Y-124035714D01*
X115590714Y-123892857D01*
X115590714Y-123464285D01*
X115519285Y-123321428D01*
X115447857Y-123250000D01*
X115305000Y-123178571D01*
X115090714Y-123178571D01*
X114947857Y-123250000D01*
X114876428Y-123321428D01*
X114805000Y-123464285D01*
X114805000Y-123892857D01*
X114876428Y-124035714D01*
X114947857Y-124107142D01*
X115090714Y-124178571D01*
X115305000Y-124178571D01*
X114162143Y-124178571D02*
X114162143Y-123178571D01*
X114162143Y-123321428D02*
X114090714Y-123250000D01*
X113947857Y-123178571D01*
X113733571Y-123178571D01*
X113590714Y-123250000D01*
X113519285Y-123392857D01*
X113519285Y-124178571D01*
X113519285Y-123392857D02*
X113447857Y-123250000D01*
X113305000Y-123178571D01*
X113090714Y-123178571D01*
X112947857Y-123250000D01*
X112876428Y-123392857D01*
X112876428Y-124178571D01*
X112162143Y-123178571D02*
X112162143Y-124678571D01*
X112162143Y-123250000D02*
X112019285Y-123178571D01*
X111733571Y-123178571D01*
X111590714Y-123250000D01*
X111519285Y-123321428D01*
X111447857Y-123464285D01*
X111447857Y-123892857D01*
X111519285Y-124035714D01*
X111590714Y-124107142D01*
X111733571Y-124178571D01*
X112019285Y-124178571D01*
X112162143Y-124107142D01*
X110590714Y-124178571D02*
X110733571Y-124107142D01*
X110805000Y-123964285D01*
X110805000Y-122678571D01*
X110019285Y-124178571D02*
X110019285Y-123178571D01*
X110019285Y-122678571D02*
X110090714Y-122750000D01*
X110019285Y-122821428D01*
X109947857Y-122750000D01*
X110019285Y-122678571D01*
X110019285Y-122821428D01*
X108662143Y-124178571D02*
X108662143Y-123392857D01*
X108733571Y-123250000D01*
X108876428Y-123178571D01*
X109162143Y-123178571D01*
X109305000Y-123250000D01*
X108662143Y-124107142D02*
X108805000Y-124178571D01*
X109162143Y-124178571D01*
X109305000Y-124107142D01*
X109376428Y-123964285D01*
X109376428Y-123821428D01*
X109305000Y-123678571D01*
X109162143Y-123607142D01*
X108805000Y-123607142D01*
X108662143Y-123535714D01*
X107947857Y-123178571D02*
X107947857Y-124178571D01*
X107947857Y-123321428D02*
X107876428Y-123250000D01*
X107733571Y-123178571D01*
X107519285Y-123178571D01*
X107376428Y-123250000D01*
X107305000Y-123392857D01*
X107305000Y-124178571D01*
X106805000Y-123178571D02*
X106233571Y-123178571D01*
X106590714Y-122678571D02*
X106590714Y-123964285D01*
X106519285Y-124107142D01*
X106376428Y-124178571D01*
X106233571Y-124178571D01*
X105519285Y-124035714D02*
X105447857Y-124107142D01*
X105519285Y-124178571D01*
X105590714Y-124107142D01*
X105519285Y-124035714D01*
X105519285Y-124178571D01*
X105805000Y-122750000D02*
X105662143Y-122678571D01*
X105305000Y-122678571D01*
X105162143Y-122750000D01*
X105090714Y-122892857D01*
X105090714Y-123035714D01*
X105162143Y-123178571D01*
X105233571Y-123250000D01*
X105376428Y-123321428D01*
X105447857Y-123392857D01*
X105519285Y-123535714D01*
X105519285Y-123607142D01*
D11*
X102550000Y-120220000D03*
X102550000Y-122760000D03*
D12*
X102550000Y-125300000D03*
D11*
X154840000Y-121750000D03*
D12*
X152300000Y-121750000D03*
D13*
G36*
X106602691Y-94626053D02*
G01*
X106623926Y-94629203D01*
X106644750Y-94634419D01*
X106664962Y-94641651D01*
X106684368Y-94650830D01*
X106702781Y-94661866D01*
X106720024Y-94674654D01*
X106735930Y-94689070D01*
X106750346Y-94704976D01*
X106763134Y-94722219D01*
X106774170Y-94740632D01*
X106783349Y-94760038D01*
X106790581Y-94780250D01*
X106795797Y-94801074D01*
X106798947Y-94822309D01*
X106800000Y-94843750D01*
X106800000Y-95356250D01*
X106798947Y-95377691D01*
X106795797Y-95398926D01*
X106790581Y-95419750D01*
X106783349Y-95439962D01*
X106774170Y-95459368D01*
X106763134Y-95477781D01*
X106750346Y-95495024D01*
X106735930Y-95510930D01*
X106720024Y-95525346D01*
X106702781Y-95538134D01*
X106684368Y-95549170D01*
X106664962Y-95558349D01*
X106644750Y-95565581D01*
X106623926Y-95570797D01*
X106602691Y-95573947D01*
X106581250Y-95575000D01*
X106143750Y-95575000D01*
X106122309Y-95573947D01*
X106101074Y-95570797D01*
X106080250Y-95565581D01*
X106060038Y-95558349D01*
X106040632Y-95549170D01*
X106022219Y-95538134D01*
X106004976Y-95525346D01*
X105989070Y-95510930D01*
X105974654Y-95495024D01*
X105961866Y-95477781D01*
X105950830Y-95459368D01*
X105941651Y-95439962D01*
X105934419Y-95419750D01*
X105929203Y-95398926D01*
X105926053Y-95377691D01*
X105925000Y-95356250D01*
X105925000Y-94843750D01*
X105926053Y-94822309D01*
X105929203Y-94801074D01*
X105934419Y-94780250D01*
X105941651Y-94760038D01*
X105950830Y-94740632D01*
X105961866Y-94722219D01*
X105974654Y-94704976D01*
X105989070Y-94689070D01*
X106004976Y-94674654D01*
X106022219Y-94661866D01*
X106040632Y-94650830D01*
X106060038Y-94641651D01*
X106080250Y-94634419D01*
X106101074Y-94629203D01*
X106122309Y-94626053D01*
X106143750Y-94625000D01*
X106581250Y-94625000D01*
X106602691Y-94626053D01*
X106602691Y-94626053D01*
G37*
D14*
X106362500Y-95100000D03*
D13*
G36*
X108177691Y-94626053D02*
G01*
X108198926Y-94629203D01*
X108219750Y-94634419D01*
X108239962Y-94641651D01*
X108259368Y-94650830D01*
X108277781Y-94661866D01*
X108295024Y-94674654D01*
X108310930Y-94689070D01*
X108325346Y-94704976D01*
X108338134Y-94722219D01*
X108349170Y-94740632D01*
X108358349Y-94760038D01*
X108365581Y-94780250D01*
X108370797Y-94801074D01*
X108373947Y-94822309D01*
X108375000Y-94843750D01*
X108375000Y-95356250D01*
X108373947Y-95377691D01*
X108370797Y-95398926D01*
X108365581Y-95419750D01*
X108358349Y-95439962D01*
X108349170Y-95459368D01*
X108338134Y-95477781D01*
X108325346Y-95495024D01*
X108310930Y-95510930D01*
X108295024Y-95525346D01*
X108277781Y-95538134D01*
X108259368Y-95549170D01*
X108239962Y-95558349D01*
X108219750Y-95565581D01*
X108198926Y-95570797D01*
X108177691Y-95573947D01*
X108156250Y-95575000D01*
X107718750Y-95575000D01*
X107697309Y-95573947D01*
X107676074Y-95570797D01*
X107655250Y-95565581D01*
X107635038Y-95558349D01*
X107615632Y-95549170D01*
X107597219Y-95538134D01*
X107579976Y-95525346D01*
X107564070Y-95510930D01*
X107549654Y-95495024D01*
X107536866Y-95477781D01*
X107525830Y-95459368D01*
X107516651Y-95439962D01*
X107509419Y-95419750D01*
X107504203Y-95398926D01*
X107501053Y-95377691D01*
X107500000Y-95356250D01*
X107500000Y-94843750D01*
X107501053Y-94822309D01*
X107504203Y-94801074D01*
X107509419Y-94780250D01*
X107516651Y-94760038D01*
X107525830Y-94740632D01*
X107536866Y-94722219D01*
X107549654Y-94704976D01*
X107564070Y-94689070D01*
X107579976Y-94674654D01*
X107597219Y-94661866D01*
X107615632Y-94650830D01*
X107635038Y-94641651D01*
X107655250Y-94634419D01*
X107676074Y-94629203D01*
X107697309Y-94626053D01*
X107718750Y-94625000D01*
X108156250Y-94625000D01*
X108177691Y-94626053D01*
X108177691Y-94626053D01*
G37*
D14*
X107937500Y-95100000D03*
D15*
X155870000Y-114600000D03*
X158530000Y-115250000D03*
X158530000Y-113950000D03*
D16*
X170580000Y-99800000D03*
X170580000Y-109960000D03*
X102000000Y-109960000D03*
X112160000Y-109960000D03*
X180740000Y-99800000D03*
X180740000Y-109960000D03*
X102000000Y-99800000D03*
X112160000Y-99800000D03*
D11*
X180500000Y-91820000D03*
X180500000Y-89280000D03*
X180500000Y-86740000D03*
D12*
X180500000Y-84200000D03*
D11*
X157400000Y-109420000D03*
X157400000Y-106880000D03*
X157400000Y-104340000D03*
D12*
X157400000Y-101800000D03*
D13*
G36*
X163074505Y-96001204D02*
G01*
X163098773Y-96004804D01*
X163122572Y-96010765D01*
X163145671Y-96019030D01*
X163167850Y-96029520D01*
X163188893Y-96042132D01*
X163208599Y-96056747D01*
X163226777Y-96073223D01*
X163243253Y-96091401D01*
X163257868Y-96111107D01*
X163270480Y-96132150D01*
X163280970Y-96154329D01*
X163289235Y-96177428D01*
X163295196Y-96201227D01*
X163298796Y-96225495D01*
X163300000Y-96249999D01*
X163300000Y-97150001D01*
X163298796Y-97174505D01*
X163295196Y-97198773D01*
X163289235Y-97222572D01*
X163280970Y-97245671D01*
X163270480Y-97267850D01*
X163257868Y-97288893D01*
X163243253Y-97308599D01*
X163226777Y-97326777D01*
X163208599Y-97343253D01*
X163188893Y-97357868D01*
X163167850Y-97370480D01*
X163145671Y-97380970D01*
X163122572Y-97389235D01*
X163098773Y-97395196D01*
X163074505Y-97398796D01*
X163050001Y-97400000D01*
X162399999Y-97400000D01*
X162375495Y-97398796D01*
X162351227Y-97395196D01*
X162327428Y-97389235D01*
X162304329Y-97380970D01*
X162282150Y-97370480D01*
X162261107Y-97357868D01*
X162241401Y-97343253D01*
X162223223Y-97326777D01*
X162206747Y-97308599D01*
X162192132Y-97288893D01*
X162179520Y-97267850D01*
X162169030Y-97245671D01*
X162160765Y-97222572D01*
X162154804Y-97198773D01*
X162151204Y-97174505D01*
X162150000Y-97150001D01*
X162150000Y-96249999D01*
X162151204Y-96225495D01*
X162154804Y-96201227D01*
X162160765Y-96177428D01*
X162169030Y-96154329D01*
X162179520Y-96132150D01*
X162192132Y-96111107D01*
X162206747Y-96091401D01*
X162223223Y-96073223D01*
X162241401Y-96056747D01*
X162261107Y-96042132D01*
X162282150Y-96029520D01*
X162304329Y-96019030D01*
X162327428Y-96010765D01*
X162351227Y-96004804D01*
X162375495Y-96001204D01*
X162399999Y-96000000D01*
X163050001Y-96000000D01*
X163074505Y-96001204D01*
X163074505Y-96001204D01*
G37*
D17*
X162725000Y-96700000D03*
D13*
G36*
X165124505Y-96001204D02*
G01*
X165148773Y-96004804D01*
X165172572Y-96010765D01*
X165195671Y-96019030D01*
X165217850Y-96029520D01*
X165238893Y-96042132D01*
X165258599Y-96056747D01*
X165276777Y-96073223D01*
X165293253Y-96091401D01*
X165307868Y-96111107D01*
X165320480Y-96132150D01*
X165330970Y-96154329D01*
X165339235Y-96177428D01*
X165345196Y-96201227D01*
X165348796Y-96225495D01*
X165350000Y-96249999D01*
X165350000Y-97150001D01*
X165348796Y-97174505D01*
X165345196Y-97198773D01*
X165339235Y-97222572D01*
X165330970Y-97245671D01*
X165320480Y-97267850D01*
X165307868Y-97288893D01*
X165293253Y-97308599D01*
X165276777Y-97326777D01*
X165258599Y-97343253D01*
X165238893Y-97357868D01*
X165217850Y-97370480D01*
X165195671Y-97380970D01*
X165172572Y-97389235D01*
X165148773Y-97395196D01*
X165124505Y-97398796D01*
X165100001Y-97400000D01*
X164449999Y-97400000D01*
X164425495Y-97398796D01*
X164401227Y-97395196D01*
X164377428Y-97389235D01*
X164354329Y-97380970D01*
X164332150Y-97370480D01*
X164311107Y-97357868D01*
X164291401Y-97343253D01*
X164273223Y-97326777D01*
X164256747Y-97308599D01*
X164242132Y-97288893D01*
X164229520Y-97267850D01*
X164219030Y-97245671D01*
X164210765Y-97222572D01*
X164204804Y-97198773D01*
X164201204Y-97174505D01*
X164200000Y-97150001D01*
X164200000Y-96249999D01*
X164201204Y-96225495D01*
X164204804Y-96201227D01*
X164210765Y-96177428D01*
X164219030Y-96154329D01*
X164229520Y-96132150D01*
X164242132Y-96111107D01*
X164256747Y-96091401D01*
X164273223Y-96073223D01*
X164291401Y-96056747D01*
X164311107Y-96042132D01*
X164332150Y-96029520D01*
X164354329Y-96019030D01*
X164377428Y-96010765D01*
X164401227Y-96004804D01*
X164425495Y-96001204D01*
X164449999Y-96000000D01*
X165100001Y-96000000D01*
X165124505Y-96001204D01*
X165124505Y-96001204D01*
G37*
D17*
X164775000Y-96700000D03*
D13*
G36*
X149674505Y-110201204D02*
G01*
X149698773Y-110204804D01*
X149722572Y-110210765D01*
X149745671Y-110219030D01*
X149767850Y-110229520D01*
X149788893Y-110242132D01*
X149808599Y-110256747D01*
X149826777Y-110273223D01*
X149843253Y-110291401D01*
X149857868Y-110311107D01*
X149870480Y-110332150D01*
X149880970Y-110354329D01*
X149889235Y-110377428D01*
X149895196Y-110401227D01*
X149898796Y-110425495D01*
X149900000Y-110449999D01*
X149900000Y-111100001D01*
X149898796Y-111124505D01*
X149895196Y-111148773D01*
X149889235Y-111172572D01*
X149880970Y-111195671D01*
X149870480Y-111217850D01*
X149857868Y-111238893D01*
X149843253Y-111258599D01*
X149826777Y-111276777D01*
X149808599Y-111293253D01*
X149788893Y-111307868D01*
X149767850Y-111320480D01*
X149745671Y-111330970D01*
X149722572Y-111339235D01*
X149698773Y-111345196D01*
X149674505Y-111348796D01*
X149650001Y-111350000D01*
X148749999Y-111350000D01*
X148725495Y-111348796D01*
X148701227Y-111345196D01*
X148677428Y-111339235D01*
X148654329Y-111330970D01*
X148632150Y-111320480D01*
X148611107Y-111307868D01*
X148591401Y-111293253D01*
X148573223Y-111276777D01*
X148556747Y-111258599D01*
X148542132Y-111238893D01*
X148529520Y-111217850D01*
X148519030Y-111195671D01*
X148510765Y-111172572D01*
X148504804Y-111148773D01*
X148501204Y-111124505D01*
X148500000Y-111100001D01*
X148500000Y-110449999D01*
X148501204Y-110425495D01*
X148504804Y-110401227D01*
X148510765Y-110377428D01*
X148519030Y-110354329D01*
X148529520Y-110332150D01*
X148542132Y-110311107D01*
X148556747Y-110291401D01*
X148573223Y-110273223D01*
X148591401Y-110256747D01*
X148611107Y-110242132D01*
X148632150Y-110229520D01*
X148654329Y-110219030D01*
X148677428Y-110210765D01*
X148701227Y-110204804D01*
X148725495Y-110201204D01*
X148749999Y-110200000D01*
X149650001Y-110200000D01*
X149674505Y-110201204D01*
X149674505Y-110201204D01*
G37*
D17*
X149200000Y-110775000D03*
D13*
G36*
X149674505Y-112251204D02*
G01*
X149698773Y-112254804D01*
X149722572Y-112260765D01*
X149745671Y-112269030D01*
X149767850Y-112279520D01*
X149788893Y-112292132D01*
X149808599Y-112306747D01*
X149826777Y-112323223D01*
X149843253Y-112341401D01*
X149857868Y-112361107D01*
X149870480Y-112382150D01*
X149880970Y-112404329D01*
X149889235Y-112427428D01*
X149895196Y-112451227D01*
X149898796Y-112475495D01*
X149900000Y-112499999D01*
X149900000Y-113150001D01*
X149898796Y-113174505D01*
X149895196Y-113198773D01*
X149889235Y-113222572D01*
X149880970Y-113245671D01*
X149870480Y-113267850D01*
X149857868Y-113288893D01*
X149843253Y-113308599D01*
X149826777Y-113326777D01*
X149808599Y-113343253D01*
X149788893Y-113357868D01*
X149767850Y-113370480D01*
X149745671Y-113380970D01*
X149722572Y-113389235D01*
X149698773Y-113395196D01*
X149674505Y-113398796D01*
X149650001Y-113400000D01*
X148749999Y-113400000D01*
X148725495Y-113398796D01*
X148701227Y-113395196D01*
X148677428Y-113389235D01*
X148654329Y-113380970D01*
X148632150Y-113370480D01*
X148611107Y-113357868D01*
X148591401Y-113343253D01*
X148573223Y-113326777D01*
X148556747Y-113308599D01*
X148542132Y-113288893D01*
X148529520Y-113267850D01*
X148519030Y-113245671D01*
X148510765Y-113222572D01*
X148504804Y-113198773D01*
X148501204Y-113174505D01*
X148500000Y-113150001D01*
X148500000Y-112499999D01*
X148501204Y-112475495D01*
X148504804Y-112451227D01*
X148510765Y-112427428D01*
X148519030Y-112404329D01*
X148529520Y-112382150D01*
X148542132Y-112361107D01*
X148556747Y-112341401D01*
X148573223Y-112323223D01*
X148591401Y-112306747D01*
X148611107Y-112292132D01*
X148632150Y-112279520D01*
X148654329Y-112269030D01*
X148677428Y-112260765D01*
X148701227Y-112254804D01*
X148725495Y-112251204D01*
X148749999Y-112250000D01*
X149650001Y-112250000D01*
X149674505Y-112251204D01*
X149674505Y-112251204D01*
G37*
D17*
X149200000Y-112825000D03*
D13*
G36*
X143674505Y-110201204D02*
G01*
X143698773Y-110204804D01*
X143722572Y-110210765D01*
X143745671Y-110219030D01*
X143767850Y-110229520D01*
X143788893Y-110242132D01*
X143808599Y-110256747D01*
X143826777Y-110273223D01*
X143843253Y-110291401D01*
X143857868Y-110311107D01*
X143870480Y-110332150D01*
X143880970Y-110354329D01*
X143889235Y-110377428D01*
X143895196Y-110401227D01*
X143898796Y-110425495D01*
X143900000Y-110449999D01*
X143900000Y-111100001D01*
X143898796Y-111124505D01*
X143895196Y-111148773D01*
X143889235Y-111172572D01*
X143880970Y-111195671D01*
X143870480Y-111217850D01*
X143857868Y-111238893D01*
X143843253Y-111258599D01*
X143826777Y-111276777D01*
X143808599Y-111293253D01*
X143788893Y-111307868D01*
X143767850Y-111320480D01*
X143745671Y-111330970D01*
X143722572Y-111339235D01*
X143698773Y-111345196D01*
X143674505Y-111348796D01*
X143650001Y-111350000D01*
X142749999Y-111350000D01*
X142725495Y-111348796D01*
X142701227Y-111345196D01*
X142677428Y-111339235D01*
X142654329Y-111330970D01*
X142632150Y-111320480D01*
X142611107Y-111307868D01*
X142591401Y-111293253D01*
X142573223Y-111276777D01*
X142556747Y-111258599D01*
X142542132Y-111238893D01*
X142529520Y-111217850D01*
X142519030Y-111195671D01*
X142510765Y-111172572D01*
X142504804Y-111148773D01*
X142501204Y-111124505D01*
X142500000Y-111100001D01*
X142500000Y-110449999D01*
X142501204Y-110425495D01*
X142504804Y-110401227D01*
X142510765Y-110377428D01*
X142519030Y-110354329D01*
X142529520Y-110332150D01*
X142542132Y-110311107D01*
X142556747Y-110291401D01*
X142573223Y-110273223D01*
X142591401Y-110256747D01*
X142611107Y-110242132D01*
X142632150Y-110229520D01*
X142654329Y-110219030D01*
X142677428Y-110210765D01*
X142701227Y-110204804D01*
X142725495Y-110201204D01*
X142749999Y-110200000D01*
X143650001Y-110200000D01*
X143674505Y-110201204D01*
X143674505Y-110201204D01*
G37*
D17*
X143200000Y-110775000D03*
D13*
G36*
X143674505Y-112251204D02*
G01*
X143698773Y-112254804D01*
X143722572Y-112260765D01*
X143745671Y-112269030D01*
X143767850Y-112279520D01*
X143788893Y-112292132D01*
X143808599Y-112306747D01*
X143826777Y-112323223D01*
X143843253Y-112341401D01*
X143857868Y-112361107D01*
X143870480Y-112382150D01*
X143880970Y-112404329D01*
X143889235Y-112427428D01*
X143895196Y-112451227D01*
X143898796Y-112475495D01*
X143900000Y-112499999D01*
X143900000Y-113150001D01*
X143898796Y-113174505D01*
X143895196Y-113198773D01*
X143889235Y-113222572D01*
X143880970Y-113245671D01*
X143870480Y-113267850D01*
X143857868Y-113288893D01*
X143843253Y-113308599D01*
X143826777Y-113326777D01*
X143808599Y-113343253D01*
X143788893Y-113357868D01*
X143767850Y-113370480D01*
X143745671Y-113380970D01*
X143722572Y-113389235D01*
X143698773Y-113395196D01*
X143674505Y-113398796D01*
X143650001Y-113400000D01*
X142749999Y-113400000D01*
X142725495Y-113398796D01*
X142701227Y-113395196D01*
X142677428Y-113389235D01*
X142654329Y-113380970D01*
X142632150Y-113370480D01*
X142611107Y-113357868D01*
X142591401Y-113343253D01*
X142573223Y-113326777D01*
X142556747Y-113308599D01*
X142542132Y-113288893D01*
X142529520Y-113267850D01*
X142519030Y-113245671D01*
X142510765Y-113222572D01*
X142504804Y-113198773D01*
X142501204Y-113174505D01*
X142500000Y-113150001D01*
X142500000Y-112499999D01*
X142501204Y-112475495D01*
X142504804Y-112451227D01*
X142510765Y-112427428D01*
X142519030Y-112404329D01*
X142529520Y-112382150D01*
X142542132Y-112361107D01*
X142556747Y-112341401D01*
X142573223Y-112323223D01*
X142591401Y-112306747D01*
X142611107Y-112292132D01*
X142632150Y-112279520D01*
X142654329Y-112269030D01*
X142677428Y-112260765D01*
X142701227Y-112254804D01*
X142725495Y-112251204D01*
X142749999Y-112250000D01*
X143650001Y-112250000D01*
X143674505Y-112251204D01*
X143674505Y-112251204D01*
G37*
D17*
X143200000Y-112825000D03*
D18*
X131197200Y-110725300D03*
D19*
X138817200Y-103105300D03*
X133737200Y-110725300D03*
X136277200Y-103105300D03*
X136277200Y-110725300D03*
X133737200Y-103105300D03*
X138817200Y-110725300D03*
X131197200Y-103105300D03*
D11*
X102200000Y-84180000D03*
X102200000Y-86720000D03*
X102200000Y-89260000D03*
D12*
X102200000Y-91800000D03*
D13*
G36*
X122024505Y-112251204D02*
G01*
X122048773Y-112254804D01*
X122072572Y-112260765D01*
X122095671Y-112269030D01*
X122117850Y-112279520D01*
X122138893Y-112292132D01*
X122158599Y-112306747D01*
X122176777Y-112323223D01*
X122193253Y-112341401D01*
X122207868Y-112361107D01*
X122220480Y-112382150D01*
X122230970Y-112404329D01*
X122239235Y-112427428D01*
X122245196Y-112451227D01*
X122248796Y-112475495D01*
X122250000Y-112499999D01*
X122250000Y-113400001D01*
X122248796Y-113424505D01*
X122245196Y-113448773D01*
X122239235Y-113472572D01*
X122230970Y-113495671D01*
X122220480Y-113517850D01*
X122207868Y-113538893D01*
X122193253Y-113558599D01*
X122176777Y-113576777D01*
X122158599Y-113593253D01*
X122138893Y-113607868D01*
X122117850Y-113620480D01*
X122095671Y-113630970D01*
X122072572Y-113639235D01*
X122048773Y-113645196D01*
X122024505Y-113648796D01*
X122000001Y-113650000D01*
X121349999Y-113650000D01*
X121325495Y-113648796D01*
X121301227Y-113645196D01*
X121277428Y-113639235D01*
X121254329Y-113630970D01*
X121232150Y-113620480D01*
X121211107Y-113607868D01*
X121191401Y-113593253D01*
X121173223Y-113576777D01*
X121156747Y-113558599D01*
X121142132Y-113538893D01*
X121129520Y-113517850D01*
X121119030Y-113495671D01*
X121110765Y-113472572D01*
X121104804Y-113448773D01*
X121101204Y-113424505D01*
X121100000Y-113400001D01*
X121100000Y-112499999D01*
X121101204Y-112475495D01*
X121104804Y-112451227D01*
X121110765Y-112427428D01*
X121119030Y-112404329D01*
X121129520Y-112382150D01*
X121142132Y-112361107D01*
X121156747Y-112341401D01*
X121173223Y-112323223D01*
X121191401Y-112306747D01*
X121211107Y-112292132D01*
X121232150Y-112279520D01*
X121254329Y-112269030D01*
X121277428Y-112260765D01*
X121301227Y-112254804D01*
X121325495Y-112251204D01*
X121349999Y-112250000D01*
X122000001Y-112250000D01*
X122024505Y-112251204D01*
X122024505Y-112251204D01*
G37*
D17*
X121675000Y-112950000D03*
D13*
G36*
X124074505Y-112251204D02*
G01*
X124098773Y-112254804D01*
X124122572Y-112260765D01*
X124145671Y-112269030D01*
X124167850Y-112279520D01*
X124188893Y-112292132D01*
X124208599Y-112306747D01*
X124226777Y-112323223D01*
X124243253Y-112341401D01*
X124257868Y-112361107D01*
X124270480Y-112382150D01*
X124280970Y-112404329D01*
X124289235Y-112427428D01*
X124295196Y-112451227D01*
X124298796Y-112475495D01*
X124300000Y-112499999D01*
X124300000Y-113400001D01*
X124298796Y-113424505D01*
X124295196Y-113448773D01*
X124289235Y-113472572D01*
X124280970Y-113495671D01*
X124270480Y-113517850D01*
X124257868Y-113538893D01*
X124243253Y-113558599D01*
X124226777Y-113576777D01*
X124208599Y-113593253D01*
X124188893Y-113607868D01*
X124167850Y-113620480D01*
X124145671Y-113630970D01*
X124122572Y-113639235D01*
X124098773Y-113645196D01*
X124074505Y-113648796D01*
X124050001Y-113650000D01*
X123399999Y-113650000D01*
X123375495Y-113648796D01*
X123351227Y-113645196D01*
X123327428Y-113639235D01*
X123304329Y-113630970D01*
X123282150Y-113620480D01*
X123261107Y-113607868D01*
X123241401Y-113593253D01*
X123223223Y-113576777D01*
X123206747Y-113558599D01*
X123192132Y-113538893D01*
X123179520Y-113517850D01*
X123169030Y-113495671D01*
X123160765Y-113472572D01*
X123154804Y-113448773D01*
X123151204Y-113424505D01*
X123150000Y-113400001D01*
X123150000Y-112499999D01*
X123151204Y-112475495D01*
X123154804Y-112451227D01*
X123160765Y-112427428D01*
X123169030Y-112404329D01*
X123179520Y-112382150D01*
X123192132Y-112361107D01*
X123206747Y-112341401D01*
X123223223Y-112323223D01*
X123241401Y-112306747D01*
X123261107Y-112292132D01*
X123282150Y-112279520D01*
X123304329Y-112269030D01*
X123327428Y-112260765D01*
X123351227Y-112254804D01*
X123375495Y-112251204D01*
X123399999Y-112250000D01*
X124050001Y-112250000D01*
X124074505Y-112251204D01*
X124074505Y-112251204D01*
G37*
D17*
X123725000Y-112950000D03*
D13*
G36*
X124074505Y-110301204D02*
G01*
X124098773Y-110304804D01*
X124122572Y-110310765D01*
X124145671Y-110319030D01*
X124167850Y-110329520D01*
X124188893Y-110342132D01*
X124208599Y-110356747D01*
X124226777Y-110373223D01*
X124243253Y-110391401D01*
X124257868Y-110411107D01*
X124270480Y-110432150D01*
X124280970Y-110454329D01*
X124289235Y-110477428D01*
X124295196Y-110501227D01*
X124298796Y-110525495D01*
X124300000Y-110549999D01*
X124300000Y-111450001D01*
X124298796Y-111474505D01*
X124295196Y-111498773D01*
X124289235Y-111522572D01*
X124280970Y-111545671D01*
X124270480Y-111567850D01*
X124257868Y-111588893D01*
X124243253Y-111608599D01*
X124226777Y-111626777D01*
X124208599Y-111643253D01*
X124188893Y-111657868D01*
X124167850Y-111670480D01*
X124145671Y-111680970D01*
X124122572Y-111689235D01*
X124098773Y-111695196D01*
X124074505Y-111698796D01*
X124050001Y-111700000D01*
X123399999Y-111700000D01*
X123375495Y-111698796D01*
X123351227Y-111695196D01*
X123327428Y-111689235D01*
X123304329Y-111680970D01*
X123282150Y-111670480D01*
X123261107Y-111657868D01*
X123241401Y-111643253D01*
X123223223Y-111626777D01*
X123206747Y-111608599D01*
X123192132Y-111588893D01*
X123179520Y-111567850D01*
X123169030Y-111545671D01*
X123160765Y-111522572D01*
X123154804Y-111498773D01*
X123151204Y-111474505D01*
X123150000Y-111450001D01*
X123150000Y-110549999D01*
X123151204Y-110525495D01*
X123154804Y-110501227D01*
X123160765Y-110477428D01*
X123169030Y-110454329D01*
X123179520Y-110432150D01*
X123192132Y-110411107D01*
X123206747Y-110391401D01*
X123223223Y-110373223D01*
X123241401Y-110356747D01*
X123261107Y-110342132D01*
X123282150Y-110329520D01*
X123304329Y-110319030D01*
X123327428Y-110310765D01*
X123351227Y-110304804D01*
X123375495Y-110301204D01*
X123399999Y-110300000D01*
X124050001Y-110300000D01*
X124074505Y-110301204D01*
X124074505Y-110301204D01*
G37*
D17*
X123725000Y-111000000D03*
D13*
G36*
X122024505Y-110301204D02*
G01*
X122048773Y-110304804D01*
X122072572Y-110310765D01*
X122095671Y-110319030D01*
X122117850Y-110329520D01*
X122138893Y-110342132D01*
X122158599Y-110356747D01*
X122176777Y-110373223D01*
X122193253Y-110391401D01*
X122207868Y-110411107D01*
X122220480Y-110432150D01*
X122230970Y-110454329D01*
X122239235Y-110477428D01*
X122245196Y-110501227D01*
X122248796Y-110525495D01*
X122250000Y-110549999D01*
X122250000Y-111450001D01*
X122248796Y-111474505D01*
X122245196Y-111498773D01*
X122239235Y-111522572D01*
X122230970Y-111545671D01*
X122220480Y-111567850D01*
X122207868Y-111588893D01*
X122193253Y-111608599D01*
X122176777Y-111626777D01*
X122158599Y-111643253D01*
X122138893Y-111657868D01*
X122117850Y-111670480D01*
X122095671Y-111680970D01*
X122072572Y-111689235D01*
X122048773Y-111695196D01*
X122024505Y-111698796D01*
X122000001Y-111700000D01*
X121349999Y-111700000D01*
X121325495Y-111698796D01*
X121301227Y-111695196D01*
X121277428Y-111689235D01*
X121254329Y-111680970D01*
X121232150Y-111670480D01*
X121211107Y-111657868D01*
X121191401Y-111643253D01*
X121173223Y-111626777D01*
X121156747Y-111608599D01*
X121142132Y-111588893D01*
X121129520Y-111567850D01*
X121119030Y-111545671D01*
X121110765Y-111522572D01*
X121104804Y-111498773D01*
X121101204Y-111474505D01*
X121100000Y-111450001D01*
X121100000Y-110549999D01*
X121101204Y-110525495D01*
X121104804Y-110501227D01*
X121110765Y-110477428D01*
X121119030Y-110454329D01*
X121129520Y-110432150D01*
X121142132Y-110411107D01*
X121156747Y-110391401D01*
X121173223Y-110373223D01*
X121191401Y-110356747D01*
X121211107Y-110342132D01*
X121232150Y-110329520D01*
X121254329Y-110319030D01*
X121277428Y-110310765D01*
X121301227Y-110304804D01*
X121325495Y-110301204D01*
X121349999Y-110300000D01*
X122000001Y-110300000D01*
X122024505Y-110301204D01*
X122024505Y-110301204D01*
G37*
D17*
X121675000Y-111000000D03*
D13*
G36*
X122024505Y-108351204D02*
G01*
X122048773Y-108354804D01*
X122072572Y-108360765D01*
X122095671Y-108369030D01*
X122117850Y-108379520D01*
X122138893Y-108392132D01*
X122158599Y-108406747D01*
X122176777Y-108423223D01*
X122193253Y-108441401D01*
X122207868Y-108461107D01*
X122220480Y-108482150D01*
X122230970Y-108504329D01*
X122239235Y-108527428D01*
X122245196Y-108551227D01*
X122248796Y-108575495D01*
X122250000Y-108599999D01*
X122250000Y-109500001D01*
X122248796Y-109524505D01*
X122245196Y-109548773D01*
X122239235Y-109572572D01*
X122230970Y-109595671D01*
X122220480Y-109617850D01*
X122207868Y-109638893D01*
X122193253Y-109658599D01*
X122176777Y-109676777D01*
X122158599Y-109693253D01*
X122138893Y-109707868D01*
X122117850Y-109720480D01*
X122095671Y-109730970D01*
X122072572Y-109739235D01*
X122048773Y-109745196D01*
X122024505Y-109748796D01*
X122000001Y-109750000D01*
X121349999Y-109750000D01*
X121325495Y-109748796D01*
X121301227Y-109745196D01*
X121277428Y-109739235D01*
X121254329Y-109730970D01*
X121232150Y-109720480D01*
X121211107Y-109707868D01*
X121191401Y-109693253D01*
X121173223Y-109676777D01*
X121156747Y-109658599D01*
X121142132Y-109638893D01*
X121129520Y-109617850D01*
X121119030Y-109595671D01*
X121110765Y-109572572D01*
X121104804Y-109548773D01*
X121101204Y-109524505D01*
X121100000Y-109500001D01*
X121100000Y-108599999D01*
X121101204Y-108575495D01*
X121104804Y-108551227D01*
X121110765Y-108527428D01*
X121119030Y-108504329D01*
X121129520Y-108482150D01*
X121142132Y-108461107D01*
X121156747Y-108441401D01*
X121173223Y-108423223D01*
X121191401Y-108406747D01*
X121211107Y-108392132D01*
X121232150Y-108379520D01*
X121254329Y-108369030D01*
X121277428Y-108360765D01*
X121301227Y-108354804D01*
X121325495Y-108351204D01*
X121349999Y-108350000D01*
X122000001Y-108350000D01*
X122024505Y-108351204D01*
X122024505Y-108351204D01*
G37*
D17*
X121675000Y-109050000D03*
D13*
G36*
X124074505Y-108351204D02*
G01*
X124098773Y-108354804D01*
X124122572Y-108360765D01*
X124145671Y-108369030D01*
X124167850Y-108379520D01*
X124188893Y-108392132D01*
X124208599Y-108406747D01*
X124226777Y-108423223D01*
X124243253Y-108441401D01*
X124257868Y-108461107D01*
X124270480Y-108482150D01*
X124280970Y-108504329D01*
X124289235Y-108527428D01*
X124295196Y-108551227D01*
X124298796Y-108575495D01*
X124300000Y-108599999D01*
X124300000Y-109500001D01*
X124298796Y-109524505D01*
X124295196Y-109548773D01*
X124289235Y-109572572D01*
X124280970Y-109595671D01*
X124270480Y-109617850D01*
X124257868Y-109638893D01*
X124243253Y-109658599D01*
X124226777Y-109676777D01*
X124208599Y-109693253D01*
X124188893Y-109707868D01*
X124167850Y-109720480D01*
X124145671Y-109730970D01*
X124122572Y-109739235D01*
X124098773Y-109745196D01*
X124074505Y-109748796D01*
X124050001Y-109750000D01*
X123399999Y-109750000D01*
X123375495Y-109748796D01*
X123351227Y-109745196D01*
X123327428Y-109739235D01*
X123304329Y-109730970D01*
X123282150Y-109720480D01*
X123261107Y-109707868D01*
X123241401Y-109693253D01*
X123223223Y-109676777D01*
X123206747Y-109658599D01*
X123192132Y-109638893D01*
X123179520Y-109617850D01*
X123169030Y-109595671D01*
X123160765Y-109572572D01*
X123154804Y-109548773D01*
X123151204Y-109524505D01*
X123150000Y-109500001D01*
X123150000Y-108599999D01*
X123151204Y-108575495D01*
X123154804Y-108551227D01*
X123160765Y-108527428D01*
X123169030Y-108504329D01*
X123179520Y-108482150D01*
X123192132Y-108461107D01*
X123206747Y-108441401D01*
X123223223Y-108423223D01*
X123241401Y-108406747D01*
X123261107Y-108392132D01*
X123282150Y-108379520D01*
X123304329Y-108369030D01*
X123327428Y-108360765D01*
X123351227Y-108354804D01*
X123375495Y-108351204D01*
X123399999Y-108350000D01*
X124050001Y-108350000D01*
X124074505Y-108351204D01*
X124074505Y-108351204D01*
G37*
D17*
X123725000Y-109050000D03*
D13*
G36*
X124074505Y-106401204D02*
G01*
X124098773Y-106404804D01*
X124122572Y-106410765D01*
X124145671Y-106419030D01*
X124167850Y-106429520D01*
X124188893Y-106442132D01*
X124208599Y-106456747D01*
X124226777Y-106473223D01*
X124243253Y-106491401D01*
X124257868Y-106511107D01*
X124270480Y-106532150D01*
X124280970Y-106554329D01*
X124289235Y-106577428D01*
X124295196Y-106601227D01*
X124298796Y-106625495D01*
X124300000Y-106649999D01*
X124300000Y-107550001D01*
X124298796Y-107574505D01*
X124295196Y-107598773D01*
X124289235Y-107622572D01*
X124280970Y-107645671D01*
X124270480Y-107667850D01*
X124257868Y-107688893D01*
X124243253Y-107708599D01*
X124226777Y-107726777D01*
X124208599Y-107743253D01*
X124188893Y-107757868D01*
X124167850Y-107770480D01*
X124145671Y-107780970D01*
X124122572Y-107789235D01*
X124098773Y-107795196D01*
X124074505Y-107798796D01*
X124050001Y-107800000D01*
X123399999Y-107800000D01*
X123375495Y-107798796D01*
X123351227Y-107795196D01*
X123327428Y-107789235D01*
X123304329Y-107780970D01*
X123282150Y-107770480D01*
X123261107Y-107757868D01*
X123241401Y-107743253D01*
X123223223Y-107726777D01*
X123206747Y-107708599D01*
X123192132Y-107688893D01*
X123179520Y-107667850D01*
X123169030Y-107645671D01*
X123160765Y-107622572D01*
X123154804Y-107598773D01*
X123151204Y-107574505D01*
X123150000Y-107550001D01*
X123150000Y-106649999D01*
X123151204Y-106625495D01*
X123154804Y-106601227D01*
X123160765Y-106577428D01*
X123169030Y-106554329D01*
X123179520Y-106532150D01*
X123192132Y-106511107D01*
X123206747Y-106491401D01*
X123223223Y-106473223D01*
X123241401Y-106456747D01*
X123261107Y-106442132D01*
X123282150Y-106429520D01*
X123304329Y-106419030D01*
X123327428Y-106410765D01*
X123351227Y-106404804D01*
X123375495Y-106401204D01*
X123399999Y-106400000D01*
X124050001Y-106400000D01*
X124074505Y-106401204D01*
X124074505Y-106401204D01*
G37*
D17*
X123725000Y-107100000D03*
D13*
G36*
X122024505Y-106401204D02*
G01*
X122048773Y-106404804D01*
X122072572Y-106410765D01*
X122095671Y-106419030D01*
X122117850Y-106429520D01*
X122138893Y-106442132D01*
X122158599Y-106456747D01*
X122176777Y-106473223D01*
X122193253Y-106491401D01*
X122207868Y-106511107D01*
X122220480Y-106532150D01*
X122230970Y-106554329D01*
X122239235Y-106577428D01*
X122245196Y-106601227D01*
X122248796Y-106625495D01*
X122250000Y-106649999D01*
X122250000Y-107550001D01*
X122248796Y-107574505D01*
X122245196Y-107598773D01*
X122239235Y-107622572D01*
X122230970Y-107645671D01*
X122220480Y-107667850D01*
X122207868Y-107688893D01*
X122193253Y-107708599D01*
X122176777Y-107726777D01*
X122158599Y-107743253D01*
X122138893Y-107757868D01*
X122117850Y-107770480D01*
X122095671Y-107780970D01*
X122072572Y-107789235D01*
X122048773Y-107795196D01*
X122024505Y-107798796D01*
X122000001Y-107800000D01*
X121349999Y-107800000D01*
X121325495Y-107798796D01*
X121301227Y-107795196D01*
X121277428Y-107789235D01*
X121254329Y-107780970D01*
X121232150Y-107770480D01*
X121211107Y-107757868D01*
X121191401Y-107743253D01*
X121173223Y-107726777D01*
X121156747Y-107708599D01*
X121142132Y-107688893D01*
X121129520Y-107667850D01*
X121119030Y-107645671D01*
X121110765Y-107622572D01*
X121104804Y-107598773D01*
X121101204Y-107574505D01*
X121100000Y-107550001D01*
X121100000Y-106649999D01*
X121101204Y-106625495D01*
X121104804Y-106601227D01*
X121110765Y-106577428D01*
X121119030Y-106554329D01*
X121129520Y-106532150D01*
X121142132Y-106511107D01*
X121156747Y-106491401D01*
X121173223Y-106473223D01*
X121191401Y-106456747D01*
X121211107Y-106442132D01*
X121232150Y-106429520D01*
X121254329Y-106419030D01*
X121277428Y-106410765D01*
X121301227Y-106404804D01*
X121325495Y-106401204D01*
X121349999Y-106400000D01*
X122000001Y-106400000D01*
X122024505Y-106401204D01*
X122024505Y-106401204D01*
G37*
D17*
X121675000Y-107100000D03*
D13*
G36*
X124074505Y-104451204D02*
G01*
X124098773Y-104454804D01*
X124122572Y-104460765D01*
X124145671Y-104469030D01*
X124167850Y-104479520D01*
X124188893Y-104492132D01*
X124208599Y-104506747D01*
X124226777Y-104523223D01*
X124243253Y-104541401D01*
X124257868Y-104561107D01*
X124270480Y-104582150D01*
X124280970Y-104604329D01*
X124289235Y-104627428D01*
X124295196Y-104651227D01*
X124298796Y-104675495D01*
X124300000Y-104699999D01*
X124300000Y-105600001D01*
X124298796Y-105624505D01*
X124295196Y-105648773D01*
X124289235Y-105672572D01*
X124280970Y-105695671D01*
X124270480Y-105717850D01*
X124257868Y-105738893D01*
X124243253Y-105758599D01*
X124226777Y-105776777D01*
X124208599Y-105793253D01*
X124188893Y-105807868D01*
X124167850Y-105820480D01*
X124145671Y-105830970D01*
X124122572Y-105839235D01*
X124098773Y-105845196D01*
X124074505Y-105848796D01*
X124050001Y-105850000D01*
X123399999Y-105850000D01*
X123375495Y-105848796D01*
X123351227Y-105845196D01*
X123327428Y-105839235D01*
X123304329Y-105830970D01*
X123282150Y-105820480D01*
X123261107Y-105807868D01*
X123241401Y-105793253D01*
X123223223Y-105776777D01*
X123206747Y-105758599D01*
X123192132Y-105738893D01*
X123179520Y-105717850D01*
X123169030Y-105695671D01*
X123160765Y-105672572D01*
X123154804Y-105648773D01*
X123151204Y-105624505D01*
X123150000Y-105600001D01*
X123150000Y-104699999D01*
X123151204Y-104675495D01*
X123154804Y-104651227D01*
X123160765Y-104627428D01*
X123169030Y-104604329D01*
X123179520Y-104582150D01*
X123192132Y-104561107D01*
X123206747Y-104541401D01*
X123223223Y-104523223D01*
X123241401Y-104506747D01*
X123261107Y-104492132D01*
X123282150Y-104479520D01*
X123304329Y-104469030D01*
X123327428Y-104460765D01*
X123351227Y-104454804D01*
X123375495Y-104451204D01*
X123399999Y-104450000D01*
X124050001Y-104450000D01*
X124074505Y-104451204D01*
X124074505Y-104451204D01*
G37*
D17*
X123725000Y-105150000D03*
D13*
G36*
X122024505Y-104451204D02*
G01*
X122048773Y-104454804D01*
X122072572Y-104460765D01*
X122095671Y-104469030D01*
X122117850Y-104479520D01*
X122138893Y-104492132D01*
X122158599Y-104506747D01*
X122176777Y-104523223D01*
X122193253Y-104541401D01*
X122207868Y-104561107D01*
X122220480Y-104582150D01*
X122230970Y-104604329D01*
X122239235Y-104627428D01*
X122245196Y-104651227D01*
X122248796Y-104675495D01*
X122250000Y-104699999D01*
X122250000Y-105600001D01*
X122248796Y-105624505D01*
X122245196Y-105648773D01*
X122239235Y-105672572D01*
X122230970Y-105695671D01*
X122220480Y-105717850D01*
X122207868Y-105738893D01*
X122193253Y-105758599D01*
X122176777Y-105776777D01*
X122158599Y-105793253D01*
X122138893Y-105807868D01*
X122117850Y-105820480D01*
X122095671Y-105830970D01*
X122072572Y-105839235D01*
X122048773Y-105845196D01*
X122024505Y-105848796D01*
X122000001Y-105850000D01*
X121349999Y-105850000D01*
X121325495Y-105848796D01*
X121301227Y-105845196D01*
X121277428Y-105839235D01*
X121254329Y-105830970D01*
X121232150Y-105820480D01*
X121211107Y-105807868D01*
X121191401Y-105793253D01*
X121173223Y-105776777D01*
X121156747Y-105758599D01*
X121142132Y-105738893D01*
X121129520Y-105717850D01*
X121119030Y-105695671D01*
X121110765Y-105672572D01*
X121104804Y-105648773D01*
X121101204Y-105624505D01*
X121100000Y-105600001D01*
X121100000Y-104699999D01*
X121101204Y-104675495D01*
X121104804Y-104651227D01*
X121110765Y-104627428D01*
X121119030Y-104604329D01*
X121129520Y-104582150D01*
X121142132Y-104561107D01*
X121156747Y-104541401D01*
X121173223Y-104523223D01*
X121191401Y-104506747D01*
X121211107Y-104492132D01*
X121232150Y-104479520D01*
X121254329Y-104469030D01*
X121277428Y-104460765D01*
X121301227Y-104454804D01*
X121325495Y-104451204D01*
X121349999Y-104450000D01*
X122000001Y-104450000D01*
X122024505Y-104451204D01*
X122024505Y-104451204D01*
G37*
D17*
X121675000Y-105150000D03*
D13*
G36*
X124074505Y-102501204D02*
G01*
X124098773Y-102504804D01*
X124122572Y-102510765D01*
X124145671Y-102519030D01*
X124167850Y-102529520D01*
X124188893Y-102542132D01*
X124208599Y-102556747D01*
X124226777Y-102573223D01*
X124243253Y-102591401D01*
X124257868Y-102611107D01*
X124270480Y-102632150D01*
X124280970Y-102654329D01*
X124289235Y-102677428D01*
X124295196Y-102701227D01*
X124298796Y-102725495D01*
X124300000Y-102749999D01*
X124300000Y-103650001D01*
X124298796Y-103674505D01*
X124295196Y-103698773D01*
X124289235Y-103722572D01*
X124280970Y-103745671D01*
X124270480Y-103767850D01*
X124257868Y-103788893D01*
X124243253Y-103808599D01*
X124226777Y-103826777D01*
X124208599Y-103843253D01*
X124188893Y-103857868D01*
X124167850Y-103870480D01*
X124145671Y-103880970D01*
X124122572Y-103889235D01*
X124098773Y-103895196D01*
X124074505Y-103898796D01*
X124050001Y-103900000D01*
X123399999Y-103900000D01*
X123375495Y-103898796D01*
X123351227Y-103895196D01*
X123327428Y-103889235D01*
X123304329Y-103880970D01*
X123282150Y-103870480D01*
X123261107Y-103857868D01*
X123241401Y-103843253D01*
X123223223Y-103826777D01*
X123206747Y-103808599D01*
X123192132Y-103788893D01*
X123179520Y-103767850D01*
X123169030Y-103745671D01*
X123160765Y-103722572D01*
X123154804Y-103698773D01*
X123151204Y-103674505D01*
X123150000Y-103650001D01*
X123150000Y-102749999D01*
X123151204Y-102725495D01*
X123154804Y-102701227D01*
X123160765Y-102677428D01*
X123169030Y-102654329D01*
X123179520Y-102632150D01*
X123192132Y-102611107D01*
X123206747Y-102591401D01*
X123223223Y-102573223D01*
X123241401Y-102556747D01*
X123261107Y-102542132D01*
X123282150Y-102529520D01*
X123304329Y-102519030D01*
X123327428Y-102510765D01*
X123351227Y-102504804D01*
X123375495Y-102501204D01*
X123399999Y-102500000D01*
X124050001Y-102500000D01*
X124074505Y-102501204D01*
X124074505Y-102501204D01*
G37*
D17*
X123725000Y-103200000D03*
D13*
G36*
X122024505Y-102501204D02*
G01*
X122048773Y-102504804D01*
X122072572Y-102510765D01*
X122095671Y-102519030D01*
X122117850Y-102529520D01*
X122138893Y-102542132D01*
X122158599Y-102556747D01*
X122176777Y-102573223D01*
X122193253Y-102591401D01*
X122207868Y-102611107D01*
X122220480Y-102632150D01*
X122230970Y-102654329D01*
X122239235Y-102677428D01*
X122245196Y-102701227D01*
X122248796Y-102725495D01*
X122250000Y-102749999D01*
X122250000Y-103650001D01*
X122248796Y-103674505D01*
X122245196Y-103698773D01*
X122239235Y-103722572D01*
X122230970Y-103745671D01*
X122220480Y-103767850D01*
X122207868Y-103788893D01*
X122193253Y-103808599D01*
X122176777Y-103826777D01*
X122158599Y-103843253D01*
X122138893Y-103857868D01*
X122117850Y-103870480D01*
X122095671Y-103880970D01*
X122072572Y-103889235D01*
X122048773Y-103895196D01*
X122024505Y-103898796D01*
X122000001Y-103900000D01*
X121349999Y-103900000D01*
X121325495Y-103898796D01*
X121301227Y-103895196D01*
X121277428Y-103889235D01*
X121254329Y-103880970D01*
X121232150Y-103870480D01*
X121211107Y-103857868D01*
X121191401Y-103843253D01*
X121173223Y-103826777D01*
X121156747Y-103808599D01*
X121142132Y-103788893D01*
X121129520Y-103767850D01*
X121119030Y-103745671D01*
X121110765Y-103722572D01*
X121104804Y-103698773D01*
X121101204Y-103674505D01*
X121100000Y-103650001D01*
X121100000Y-102749999D01*
X121101204Y-102725495D01*
X121104804Y-102701227D01*
X121110765Y-102677428D01*
X121119030Y-102654329D01*
X121129520Y-102632150D01*
X121142132Y-102611107D01*
X121156747Y-102591401D01*
X121173223Y-102573223D01*
X121191401Y-102556747D01*
X121211107Y-102542132D01*
X121232150Y-102529520D01*
X121254329Y-102519030D01*
X121277428Y-102510765D01*
X121301227Y-102504804D01*
X121325495Y-102501204D01*
X121349999Y-102500000D01*
X122000001Y-102500000D01*
X122024505Y-102501204D01*
X122024505Y-102501204D01*
G37*
D17*
X121675000Y-103200000D03*
D13*
G36*
X155024505Y-100401204D02*
G01*
X155048773Y-100404804D01*
X155072572Y-100410765D01*
X155095671Y-100419030D01*
X155117850Y-100429520D01*
X155138893Y-100442132D01*
X155158599Y-100456747D01*
X155176777Y-100473223D01*
X155193253Y-100491401D01*
X155207868Y-100511107D01*
X155220480Y-100532150D01*
X155230970Y-100554329D01*
X155239235Y-100577428D01*
X155245196Y-100601227D01*
X155248796Y-100625495D01*
X155250000Y-100649999D01*
X155250000Y-101300001D01*
X155248796Y-101324505D01*
X155245196Y-101348773D01*
X155239235Y-101372572D01*
X155230970Y-101395671D01*
X155220480Y-101417850D01*
X155207868Y-101438893D01*
X155193253Y-101458599D01*
X155176777Y-101476777D01*
X155158599Y-101493253D01*
X155138893Y-101507868D01*
X155117850Y-101520480D01*
X155095671Y-101530970D01*
X155072572Y-101539235D01*
X155048773Y-101545196D01*
X155024505Y-101548796D01*
X155000001Y-101550000D01*
X154099999Y-101550000D01*
X154075495Y-101548796D01*
X154051227Y-101545196D01*
X154027428Y-101539235D01*
X154004329Y-101530970D01*
X153982150Y-101520480D01*
X153961107Y-101507868D01*
X153941401Y-101493253D01*
X153923223Y-101476777D01*
X153906747Y-101458599D01*
X153892132Y-101438893D01*
X153879520Y-101417850D01*
X153869030Y-101395671D01*
X153860765Y-101372572D01*
X153854804Y-101348773D01*
X153851204Y-101324505D01*
X153850000Y-101300001D01*
X153850000Y-100649999D01*
X153851204Y-100625495D01*
X153854804Y-100601227D01*
X153860765Y-100577428D01*
X153869030Y-100554329D01*
X153879520Y-100532150D01*
X153892132Y-100511107D01*
X153906747Y-100491401D01*
X153923223Y-100473223D01*
X153941401Y-100456747D01*
X153961107Y-100442132D01*
X153982150Y-100429520D01*
X154004329Y-100419030D01*
X154027428Y-100410765D01*
X154051227Y-100404804D01*
X154075495Y-100401204D01*
X154099999Y-100400000D01*
X155000001Y-100400000D01*
X155024505Y-100401204D01*
X155024505Y-100401204D01*
G37*
D17*
X154550000Y-100975000D03*
D13*
G36*
X155024505Y-102451204D02*
G01*
X155048773Y-102454804D01*
X155072572Y-102460765D01*
X155095671Y-102469030D01*
X155117850Y-102479520D01*
X155138893Y-102492132D01*
X155158599Y-102506747D01*
X155176777Y-102523223D01*
X155193253Y-102541401D01*
X155207868Y-102561107D01*
X155220480Y-102582150D01*
X155230970Y-102604329D01*
X155239235Y-102627428D01*
X155245196Y-102651227D01*
X155248796Y-102675495D01*
X155250000Y-102699999D01*
X155250000Y-103350001D01*
X155248796Y-103374505D01*
X155245196Y-103398773D01*
X155239235Y-103422572D01*
X155230970Y-103445671D01*
X155220480Y-103467850D01*
X155207868Y-103488893D01*
X155193253Y-103508599D01*
X155176777Y-103526777D01*
X155158599Y-103543253D01*
X155138893Y-103557868D01*
X155117850Y-103570480D01*
X155095671Y-103580970D01*
X155072572Y-103589235D01*
X155048773Y-103595196D01*
X155024505Y-103598796D01*
X155000001Y-103600000D01*
X154099999Y-103600000D01*
X154075495Y-103598796D01*
X154051227Y-103595196D01*
X154027428Y-103589235D01*
X154004329Y-103580970D01*
X153982150Y-103570480D01*
X153961107Y-103557868D01*
X153941401Y-103543253D01*
X153923223Y-103526777D01*
X153906747Y-103508599D01*
X153892132Y-103488893D01*
X153879520Y-103467850D01*
X153869030Y-103445671D01*
X153860765Y-103422572D01*
X153854804Y-103398773D01*
X153851204Y-103374505D01*
X153850000Y-103350001D01*
X153850000Y-102699999D01*
X153851204Y-102675495D01*
X153854804Y-102651227D01*
X153860765Y-102627428D01*
X153869030Y-102604329D01*
X153879520Y-102582150D01*
X153892132Y-102561107D01*
X153906747Y-102541401D01*
X153923223Y-102523223D01*
X153941401Y-102506747D01*
X153961107Y-102492132D01*
X153982150Y-102479520D01*
X154004329Y-102469030D01*
X154027428Y-102460765D01*
X154051227Y-102454804D01*
X154075495Y-102451204D01*
X154099999Y-102450000D01*
X155000001Y-102450000D01*
X155024505Y-102451204D01*
X155024505Y-102451204D01*
G37*
D17*
X154550000Y-103025000D03*
D13*
G36*
X155024505Y-104151204D02*
G01*
X155048773Y-104154804D01*
X155072572Y-104160765D01*
X155095671Y-104169030D01*
X155117850Y-104179520D01*
X155138893Y-104192132D01*
X155158599Y-104206747D01*
X155176777Y-104223223D01*
X155193253Y-104241401D01*
X155207868Y-104261107D01*
X155220480Y-104282150D01*
X155230970Y-104304329D01*
X155239235Y-104327428D01*
X155245196Y-104351227D01*
X155248796Y-104375495D01*
X155250000Y-104399999D01*
X155250000Y-105050001D01*
X155248796Y-105074505D01*
X155245196Y-105098773D01*
X155239235Y-105122572D01*
X155230970Y-105145671D01*
X155220480Y-105167850D01*
X155207868Y-105188893D01*
X155193253Y-105208599D01*
X155176777Y-105226777D01*
X155158599Y-105243253D01*
X155138893Y-105257868D01*
X155117850Y-105270480D01*
X155095671Y-105280970D01*
X155072572Y-105289235D01*
X155048773Y-105295196D01*
X155024505Y-105298796D01*
X155000001Y-105300000D01*
X154099999Y-105300000D01*
X154075495Y-105298796D01*
X154051227Y-105295196D01*
X154027428Y-105289235D01*
X154004329Y-105280970D01*
X153982150Y-105270480D01*
X153961107Y-105257868D01*
X153941401Y-105243253D01*
X153923223Y-105226777D01*
X153906747Y-105208599D01*
X153892132Y-105188893D01*
X153879520Y-105167850D01*
X153869030Y-105145671D01*
X153860765Y-105122572D01*
X153854804Y-105098773D01*
X153851204Y-105074505D01*
X153850000Y-105050001D01*
X153850000Y-104399999D01*
X153851204Y-104375495D01*
X153854804Y-104351227D01*
X153860765Y-104327428D01*
X153869030Y-104304329D01*
X153879520Y-104282150D01*
X153892132Y-104261107D01*
X153906747Y-104241401D01*
X153923223Y-104223223D01*
X153941401Y-104206747D01*
X153961107Y-104192132D01*
X153982150Y-104179520D01*
X154004329Y-104169030D01*
X154027428Y-104160765D01*
X154051227Y-104154804D01*
X154075495Y-104151204D01*
X154099999Y-104150000D01*
X155000001Y-104150000D01*
X155024505Y-104151204D01*
X155024505Y-104151204D01*
G37*
D17*
X154550000Y-104725000D03*
D13*
G36*
X155024505Y-106201204D02*
G01*
X155048773Y-106204804D01*
X155072572Y-106210765D01*
X155095671Y-106219030D01*
X155117850Y-106229520D01*
X155138893Y-106242132D01*
X155158599Y-106256747D01*
X155176777Y-106273223D01*
X155193253Y-106291401D01*
X155207868Y-106311107D01*
X155220480Y-106332150D01*
X155230970Y-106354329D01*
X155239235Y-106377428D01*
X155245196Y-106401227D01*
X155248796Y-106425495D01*
X155250000Y-106449999D01*
X155250000Y-107100001D01*
X155248796Y-107124505D01*
X155245196Y-107148773D01*
X155239235Y-107172572D01*
X155230970Y-107195671D01*
X155220480Y-107217850D01*
X155207868Y-107238893D01*
X155193253Y-107258599D01*
X155176777Y-107276777D01*
X155158599Y-107293253D01*
X155138893Y-107307868D01*
X155117850Y-107320480D01*
X155095671Y-107330970D01*
X155072572Y-107339235D01*
X155048773Y-107345196D01*
X155024505Y-107348796D01*
X155000001Y-107350000D01*
X154099999Y-107350000D01*
X154075495Y-107348796D01*
X154051227Y-107345196D01*
X154027428Y-107339235D01*
X154004329Y-107330970D01*
X153982150Y-107320480D01*
X153961107Y-107307868D01*
X153941401Y-107293253D01*
X153923223Y-107276777D01*
X153906747Y-107258599D01*
X153892132Y-107238893D01*
X153879520Y-107217850D01*
X153869030Y-107195671D01*
X153860765Y-107172572D01*
X153854804Y-107148773D01*
X153851204Y-107124505D01*
X153850000Y-107100001D01*
X153850000Y-106449999D01*
X153851204Y-106425495D01*
X153854804Y-106401227D01*
X153860765Y-106377428D01*
X153869030Y-106354329D01*
X153879520Y-106332150D01*
X153892132Y-106311107D01*
X153906747Y-106291401D01*
X153923223Y-106273223D01*
X153941401Y-106256747D01*
X153961107Y-106242132D01*
X153982150Y-106229520D01*
X154004329Y-106219030D01*
X154027428Y-106210765D01*
X154051227Y-106204804D01*
X154075495Y-106201204D01*
X154099999Y-106200000D01*
X155000001Y-106200000D01*
X155024505Y-106201204D01*
X155024505Y-106201204D01*
G37*
D17*
X154550000Y-106775000D03*
D13*
G36*
X122124505Y-99451204D02*
G01*
X122148773Y-99454804D01*
X122172572Y-99460765D01*
X122195671Y-99469030D01*
X122217850Y-99479520D01*
X122238893Y-99492132D01*
X122258599Y-99506747D01*
X122276777Y-99523223D01*
X122293253Y-99541401D01*
X122307868Y-99561107D01*
X122320480Y-99582150D01*
X122330970Y-99604329D01*
X122339235Y-99627428D01*
X122345196Y-99651227D01*
X122348796Y-99675495D01*
X122350000Y-99699999D01*
X122350000Y-100600001D01*
X122348796Y-100624505D01*
X122345196Y-100648773D01*
X122339235Y-100672572D01*
X122330970Y-100695671D01*
X122320480Y-100717850D01*
X122307868Y-100738893D01*
X122293253Y-100758599D01*
X122276777Y-100776777D01*
X122258599Y-100793253D01*
X122238893Y-100807868D01*
X122217850Y-100820480D01*
X122195671Y-100830970D01*
X122172572Y-100839235D01*
X122148773Y-100845196D01*
X122124505Y-100848796D01*
X122100001Y-100850000D01*
X121449999Y-100850000D01*
X121425495Y-100848796D01*
X121401227Y-100845196D01*
X121377428Y-100839235D01*
X121354329Y-100830970D01*
X121332150Y-100820480D01*
X121311107Y-100807868D01*
X121291401Y-100793253D01*
X121273223Y-100776777D01*
X121256747Y-100758599D01*
X121242132Y-100738893D01*
X121229520Y-100717850D01*
X121219030Y-100695671D01*
X121210765Y-100672572D01*
X121204804Y-100648773D01*
X121201204Y-100624505D01*
X121200000Y-100600001D01*
X121200000Y-99699999D01*
X121201204Y-99675495D01*
X121204804Y-99651227D01*
X121210765Y-99627428D01*
X121219030Y-99604329D01*
X121229520Y-99582150D01*
X121242132Y-99561107D01*
X121256747Y-99541401D01*
X121273223Y-99523223D01*
X121291401Y-99506747D01*
X121311107Y-99492132D01*
X121332150Y-99479520D01*
X121354329Y-99469030D01*
X121377428Y-99460765D01*
X121401227Y-99454804D01*
X121425495Y-99451204D01*
X121449999Y-99450000D01*
X122100001Y-99450000D01*
X122124505Y-99451204D01*
X122124505Y-99451204D01*
G37*
D17*
X121775000Y-100150000D03*
D13*
G36*
X124174505Y-99451204D02*
G01*
X124198773Y-99454804D01*
X124222572Y-99460765D01*
X124245671Y-99469030D01*
X124267850Y-99479520D01*
X124288893Y-99492132D01*
X124308599Y-99506747D01*
X124326777Y-99523223D01*
X124343253Y-99541401D01*
X124357868Y-99561107D01*
X124370480Y-99582150D01*
X124380970Y-99604329D01*
X124389235Y-99627428D01*
X124395196Y-99651227D01*
X124398796Y-99675495D01*
X124400000Y-99699999D01*
X124400000Y-100600001D01*
X124398796Y-100624505D01*
X124395196Y-100648773D01*
X124389235Y-100672572D01*
X124380970Y-100695671D01*
X124370480Y-100717850D01*
X124357868Y-100738893D01*
X124343253Y-100758599D01*
X124326777Y-100776777D01*
X124308599Y-100793253D01*
X124288893Y-100807868D01*
X124267850Y-100820480D01*
X124245671Y-100830970D01*
X124222572Y-100839235D01*
X124198773Y-100845196D01*
X124174505Y-100848796D01*
X124150001Y-100850000D01*
X123499999Y-100850000D01*
X123475495Y-100848796D01*
X123451227Y-100845196D01*
X123427428Y-100839235D01*
X123404329Y-100830970D01*
X123382150Y-100820480D01*
X123361107Y-100807868D01*
X123341401Y-100793253D01*
X123323223Y-100776777D01*
X123306747Y-100758599D01*
X123292132Y-100738893D01*
X123279520Y-100717850D01*
X123269030Y-100695671D01*
X123260765Y-100672572D01*
X123254804Y-100648773D01*
X123251204Y-100624505D01*
X123250000Y-100600001D01*
X123250000Y-99699999D01*
X123251204Y-99675495D01*
X123254804Y-99651227D01*
X123260765Y-99627428D01*
X123269030Y-99604329D01*
X123279520Y-99582150D01*
X123292132Y-99561107D01*
X123306747Y-99541401D01*
X123323223Y-99523223D01*
X123341401Y-99506747D01*
X123361107Y-99492132D01*
X123382150Y-99479520D01*
X123404329Y-99469030D01*
X123427428Y-99460765D01*
X123451227Y-99454804D01*
X123475495Y-99451204D01*
X123499999Y-99450000D01*
X124150001Y-99450000D01*
X124174505Y-99451204D01*
X124174505Y-99451204D01*
G37*
D17*
X123825000Y-100150000D03*
D13*
G36*
X124174505Y-97051204D02*
G01*
X124198773Y-97054804D01*
X124222572Y-97060765D01*
X124245671Y-97069030D01*
X124267850Y-97079520D01*
X124288893Y-97092132D01*
X124308599Y-97106747D01*
X124326777Y-97123223D01*
X124343253Y-97141401D01*
X124357868Y-97161107D01*
X124370480Y-97182150D01*
X124380970Y-97204329D01*
X124389235Y-97227428D01*
X124395196Y-97251227D01*
X124398796Y-97275495D01*
X124400000Y-97299999D01*
X124400000Y-98200001D01*
X124398796Y-98224505D01*
X124395196Y-98248773D01*
X124389235Y-98272572D01*
X124380970Y-98295671D01*
X124370480Y-98317850D01*
X124357868Y-98338893D01*
X124343253Y-98358599D01*
X124326777Y-98376777D01*
X124308599Y-98393253D01*
X124288893Y-98407868D01*
X124267850Y-98420480D01*
X124245671Y-98430970D01*
X124222572Y-98439235D01*
X124198773Y-98445196D01*
X124174505Y-98448796D01*
X124150001Y-98450000D01*
X123499999Y-98450000D01*
X123475495Y-98448796D01*
X123451227Y-98445196D01*
X123427428Y-98439235D01*
X123404329Y-98430970D01*
X123382150Y-98420480D01*
X123361107Y-98407868D01*
X123341401Y-98393253D01*
X123323223Y-98376777D01*
X123306747Y-98358599D01*
X123292132Y-98338893D01*
X123279520Y-98317850D01*
X123269030Y-98295671D01*
X123260765Y-98272572D01*
X123254804Y-98248773D01*
X123251204Y-98224505D01*
X123250000Y-98200001D01*
X123250000Y-97299999D01*
X123251204Y-97275495D01*
X123254804Y-97251227D01*
X123260765Y-97227428D01*
X123269030Y-97204329D01*
X123279520Y-97182150D01*
X123292132Y-97161107D01*
X123306747Y-97141401D01*
X123323223Y-97123223D01*
X123341401Y-97106747D01*
X123361107Y-97092132D01*
X123382150Y-97079520D01*
X123404329Y-97069030D01*
X123427428Y-97060765D01*
X123451227Y-97054804D01*
X123475495Y-97051204D01*
X123499999Y-97050000D01*
X124150001Y-97050000D01*
X124174505Y-97051204D01*
X124174505Y-97051204D01*
G37*
D17*
X123825000Y-97750000D03*
D13*
G36*
X122124505Y-97051204D02*
G01*
X122148773Y-97054804D01*
X122172572Y-97060765D01*
X122195671Y-97069030D01*
X122217850Y-97079520D01*
X122238893Y-97092132D01*
X122258599Y-97106747D01*
X122276777Y-97123223D01*
X122293253Y-97141401D01*
X122307868Y-97161107D01*
X122320480Y-97182150D01*
X122330970Y-97204329D01*
X122339235Y-97227428D01*
X122345196Y-97251227D01*
X122348796Y-97275495D01*
X122350000Y-97299999D01*
X122350000Y-98200001D01*
X122348796Y-98224505D01*
X122345196Y-98248773D01*
X122339235Y-98272572D01*
X122330970Y-98295671D01*
X122320480Y-98317850D01*
X122307868Y-98338893D01*
X122293253Y-98358599D01*
X122276777Y-98376777D01*
X122258599Y-98393253D01*
X122238893Y-98407868D01*
X122217850Y-98420480D01*
X122195671Y-98430970D01*
X122172572Y-98439235D01*
X122148773Y-98445196D01*
X122124505Y-98448796D01*
X122100001Y-98450000D01*
X121449999Y-98450000D01*
X121425495Y-98448796D01*
X121401227Y-98445196D01*
X121377428Y-98439235D01*
X121354329Y-98430970D01*
X121332150Y-98420480D01*
X121311107Y-98407868D01*
X121291401Y-98393253D01*
X121273223Y-98376777D01*
X121256747Y-98358599D01*
X121242132Y-98338893D01*
X121229520Y-98317850D01*
X121219030Y-98295671D01*
X121210765Y-98272572D01*
X121204804Y-98248773D01*
X121201204Y-98224505D01*
X121200000Y-98200001D01*
X121200000Y-97299999D01*
X121201204Y-97275495D01*
X121204804Y-97251227D01*
X121210765Y-97227428D01*
X121219030Y-97204329D01*
X121229520Y-97182150D01*
X121242132Y-97161107D01*
X121256747Y-97141401D01*
X121273223Y-97123223D01*
X121291401Y-97106747D01*
X121311107Y-97092132D01*
X121332150Y-97079520D01*
X121354329Y-97069030D01*
X121377428Y-97060765D01*
X121401227Y-97054804D01*
X121425495Y-97051204D01*
X121449999Y-97050000D01*
X122100001Y-97050000D01*
X122124505Y-97051204D01*
X122124505Y-97051204D01*
G37*
D17*
X121775000Y-97750000D03*
D13*
G36*
X164074505Y-103051204D02*
G01*
X164098773Y-103054804D01*
X164122572Y-103060765D01*
X164145671Y-103069030D01*
X164167850Y-103079520D01*
X164188893Y-103092132D01*
X164208599Y-103106747D01*
X164226777Y-103123223D01*
X164243253Y-103141401D01*
X164257868Y-103161107D01*
X164270480Y-103182150D01*
X164280970Y-103204329D01*
X164289235Y-103227428D01*
X164295196Y-103251227D01*
X164298796Y-103275495D01*
X164300000Y-103299999D01*
X164300000Y-103950001D01*
X164298796Y-103974505D01*
X164295196Y-103998773D01*
X164289235Y-104022572D01*
X164280970Y-104045671D01*
X164270480Y-104067850D01*
X164257868Y-104088893D01*
X164243253Y-104108599D01*
X164226777Y-104126777D01*
X164208599Y-104143253D01*
X164188893Y-104157868D01*
X164167850Y-104170480D01*
X164145671Y-104180970D01*
X164122572Y-104189235D01*
X164098773Y-104195196D01*
X164074505Y-104198796D01*
X164050001Y-104200000D01*
X163149999Y-104200000D01*
X163125495Y-104198796D01*
X163101227Y-104195196D01*
X163077428Y-104189235D01*
X163054329Y-104180970D01*
X163032150Y-104170480D01*
X163011107Y-104157868D01*
X162991401Y-104143253D01*
X162973223Y-104126777D01*
X162956747Y-104108599D01*
X162942132Y-104088893D01*
X162929520Y-104067850D01*
X162919030Y-104045671D01*
X162910765Y-104022572D01*
X162904804Y-103998773D01*
X162901204Y-103974505D01*
X162900000Y-103950001D01*
X162900000Y-103299999D01*
X162901204Y-103275495D01*
X162904804Y-103251227D01*
X162910765Y-103227428D01*
X162919030Y-103204329D01*
X162929520Y-103182150D01*
X162942132Y-103161107D01*
X162956747Y-103141401D01*
X162973223Y-103123223D01*
X162991401Y-103106747D01*
X163011107Y-103092132D01*
X163032150Y-103079520D01*
X163054329Y-103069030D01*
X163077428Y-103060765D01*
X163101227Y-103054804D01*
X163125495Y-103051204D01*
X163149999Y-103050000D01*
X164050001Y-103050000D01*
X164074505Y-103051204D01*
X164074505Y-103051204D01*
G37*
D17*
X163600000Y-103625000D03*
D13*
G36*
X164074505Y-105101204D02*
G01*
X164098773Y-105104804D01*
X164122572Y-105110765D01*
X164145671Y-105119030D01*
X164167850Y-105129520D01*
X164188893Y-105142132D01*
X164208599Y-105156747D01*
X164226777Y-105173223D01*
X164243253Y-105191401D01*
X164257868Y-105211107D01*
X164270480Y-105232150D01*
X164280970Y-105254329D01*
X164289235Y-105277428D01*
X164295196Y-105301227D01*
X164298796Y-105325495D01*
X164300000Y-105349999D01*
X164300000Y-106000001D01*
X164298796Y-106024505D01*
X164295196Y-106048773D01*
X164289235Y-106072572D01*
X164280970Y-106095671D01*
X164270480Y-106117850D01*
X164257868Y-106138893D01*
X164243253Y-106158599D01*
X164226777Y-106176777D01*
X164208599Y-106193253D01*
X164188893Y-106207868D01*
X164167850Y-106220480D01*
X164145671Y-106230970D01*
X164122572Y-106239235D01*
X164098773Y-106245196D01*
X164074505Y-106248796D01*
X164050001Y-106250000D01*
X163149999Y-106250000D01*
X163125495Y-106248796D01*
X163101227Y-106245196D01*
X163077428Y-106239235D01*
X163054329Y-106230970D01*
X163032150Y-106220480D01*
X163011107Y-106207868D01*
X162991401Y-106193253D01*
X162973223Y-106176777D01*
X162956747Y-106158599D01*
X162942132Y-106138893D01*
X162929520Y-106117850D01*
X162919030Y-106095671D01*
X162910765Y-106072572D01*
X162904804Y-106048773D01*
X162901204Y-106024505D01*
X162900000Y-106000001D01*
X162900000Y-105349999D01*
X162901204Y-105325495D01*
X162904804Y-105301227D01*
X162910765Y-105277428D01*
X162919030Y-105254329D01*
X162929520Y-105232150D01*
X162942132Y-105211107D01*
X162956747Y-105191401D01*
X162973223Y-105173223D01*
X162991401Y-105156747D01*
X163011107Y-105142132D01*
X163032150Y-105129520D01*
X163054329Y-105119030D01*
X163077428Y-105110765D01*
X163101227Y-105104804D01*
X163125495Y-105101204D01*
X163149999Y-105100000D01*
X164050001Y-105100000D01*
X164074505Y-105101204D01*
X164074505Y-105101204D01*
G37*
D17*
X163600000Y-105675000D03*
D13*
G36*
X170324505Y-119201204D02*
G01*
X170348773Y-119204804D01*
X170372572Y-119210765D01*
X170395671Y-119219030D01*
X170417850Y-119229520D01*
X170438893Y-119242132D01*
X170458599Y-119256747D01*
X170476777Y-119273223D01*
X170493253Y-119291401D01*
X170507868Y-119311107D01*
X170520480Y-119332150D01*
X170530970Y-119354329D01*
X170539235Y-119377428D01*
X170545196Y-119401227D01*
X170548796Y-119425495D01*
X170550000Y-119449999D01*
X170550000Y-120350001D01*
X170548796Y-120374505D01*
X170545196Y-120398773D01*
X170539235Y-120422572D01*
X170530970Y-120445671D01*
X170520480Y-120467850D01*
X170507868Y-120488893D01*
X170493253Y-120508599D01*
X170476777Y-120526777D01*
X170458599Y-120543253D01*
X170438893Y-120557868D01*
X170417850Y-120570480D01*
X170395671Y-120580970D01*
X170372572Y-120589235D01*
X170348773Y-120595196D01*
X170324505Y-120598796D01*
X170300001Y-120600000D01*
X169649999Y-120600000D01*
X169625495Y-120598796D01*
X169601227Y-120595196D01*
X169577428Y-120589235D01*
X169554329Y-120580970D01*
X169532150Y-120570480D01*
X169511107Y-120557868D01*
X169491401Y-120543253D01*
X169473223Y-120526777D01*
X169456747Y-120508599D01*
X169442132Y-120488893D01*
X169429520Y-120467850D01*
X169419030Y-120445671D01*
X169410765Y-120422572D01*
X169404804Y-120398773D01*
X169401204Y-120374505D01*
X169400000Y-120350001D01*
X169400000Y-119449999D01*
X169401204Y-119425495D01*
X169404804Y-119401227D01*
X169410765Y-119377428D01*
X169419030Y-119354329D01*
X169429520Y-119332150D01*
X169442132Y-119311107D01*
X169456747Y-119291401D01*
X169473223Y-119273223D01*
X169491401Y-119256747D01*
X169511107Y-119242132D01*
X169532150Y-119229520D01*
X169554329Y-119219030D01*
X169577428Y-119210765D01*
X169601227Y-119204804D01*
X169625495Y-119201204D01*
X169649999Y-119200000D01*
X170300001Y-119200000D01*
X170324505Y-119201204D01*
X170324505Y-119201204D01*
G37*
D17*
X169975000Y-119900000D03*
D13*
G36*
X172374505Y-119201204D02*
G01*
X172398773Y-119204804D01*
X172422572Y-119210765D01*
X172445671Y-119219030D01*
X172467850Y-119229520D01*
X172488893Y-119242132D01*
X172508599Y-119256747D01*
X172526777Y-119273223D01*
X172543253Y-119291401D01*
X172557868Y-119311107D01*
X172570480Y-119332150D01*
X172580970Y-119354329D01*
X172589235Y-119377428D01*
X172595196Y-119401227D01*
X172598796Y-119425495D01*
X172600000Y-119449999D01*
X172600000Y-120350001D01*
X172598796Y-120374505D01*
X172595196Y-120398773D01*
X172589235Y-120422572D01*
X172580970Y-120445671D01*
X172570480Y-120467850D01*
X172557868Y-120488893D01*
X172543253Y-120508599D01*
X172526777Y-120526777D01*
X172508599Y-120543253D01*
X172488893Y-120557868D01*
X172467850Y-120570480D01*
X172445671Y-120580970D01*
X172422572Y-120589235D01*
X172398773Y-120595196D01*
X172374505Y-120598796D01*
X172350001Y-120600000D01*
X171699999Y-120600000D01*
X171675495Y-120598796D01*
X171651227Y-120595196D01*
X171627428Y-120589235D01*
X171604329Y-120580970D01*
X171582150Y-120570480D01*
X171561107Y-120557868D01*
X171541401Y-120543253D01*
X171523223Y-120526777D01*
X171506747Y-120508599D01*
X171492132Y-120488893D01*
X171479520Y-120467850D01*
X171469030Y-120445671D01*
X171460765Y-120422572D01*
X171454804Y-120398773D01*
X171451204Y-120374505D01*
X171450000Y-120350001D01*
X171450000Y-119449999D01*
X171451204Y-119425495D01*
X171454804Y-119401227D01*
X171460765Y-119377428D01*
X171469030Y-119354329D01*
X171479520Y-119332150D01*
X171492132Y-119311107D01*
X171506747Y-119291401D01*
X171523223Y-119273223D01*
X171541401Y-119256747D01*
X171561107Y-119242132D01*
X171582150Y-119229520D01*
X171604329Y-119219030D01*
X171627428Y-119210765D01*
X171651227Y-119204804D01*
X171675495Y-119201204D01*
X171699999Y-119200000D01*
X172350001Y-119200000D01*
X172374505Y-119201204D01*
X172374505Y-119201204D01*
G37*
D17*
X172025000Y-119900000D03*
D13*
G36*
X148297705Y-106619604D02*
G01*
X148321973Y-106623204D01*
X148345772Y-106629165D01*
X148368871Y-106637430D01*
X148391050Y-106647920D01*
X148412093Y-106660532D01*
X148431799Y-106675147D01*
X148449977Y-106691623D01*
X148466453Y-106709801D01*
X148481068Y-106729507D01*
X148493680Y-106750550D01*
X148504170Y-106772729D01*
X148512435Y-106795828D01*
X148518396Y-106819627D01*
X148521996Y-106843895D01*
X148523200Y-106868399D01*
X148523200Y-107518401D01*
X148521996Y-107542905D01*
X148518396Y-107567173D01*
X148512435Y-107590972D01*
X148504170Y-107614071D01*
X148493680Y-107636250D01*
X148481068Y-107657293D01*
X148466453Y-107676999D01*
X148449977Y-107695177D01*
X148431799Y-107711653D01*
X148412093Y-107726268D01*
X148391050Y-107738880D01*
X148368871Y-107749370D01*
X148345772Y-107757635D01*
X148321973Y-107763596D01*
X148297705Y-107767196D01*
X148273201Y-107768400D01*
X147373199Y-107768400D01*
X147348695Y-107767196D01*
X147324427Y-107763596D01*
X147300628Y-107757635D01*
X147277529Y-107749370D01*
X147255350Y-107738880D01*
X147234307Y-107726268D01*
X147214601Y-107711653D01*
X147196423Y-107695177D01*
X147179947Y-107676999D01*
X147165332Y-107657293D01*
X147152720Y-107636250D01*
X147142230Y-107614071D01*
X147133965Y-107590972D01*
X147128004Y-107567173D01*
X147124404Y-107542905D01*
X147123200Y-107518401D01*
X147123200Y-106868399D01*
X147124404Y-106843895D01*
X147128004Y-106819627D01*
X147133965Y-106795828D01*
X147142230Y-106772729D01*
X147152720Y-106750550D01*
X147165332Y-106729507D01*
X147179947Y-106709801D01*
X147196423Y-106691623D01*
X147214601Y-106675147D01*
X147234307Y-106660532D01*
X147255350Y-106647920D01*
X147277529Y-106637430D01*
X147300628Y-106629165D01*
X147324427Y-106623204D01*
X147348695Y-106619604D01*
X147373199Y-106618400D01*
X148273201Y-106618400D01*
X148297705Y-106619604D01*
X148297705Y-106619604D01*
G37*
D17*
X147823200Y-107193400D03*
D13*
G36*
X148297705Y-104569604D02*
G01*
X148321973Y-104573204D01*
X148345772Y-104579165D01*
X148368871Y-104587430D01*
X148391050Y-104597920D01*
X148412093Y-104610532D01*
X148431799Y-104625147D01*
X148449977Y-104641623D01*
X148466453Y-104659801D01*
X148481068Y-104679507D01*
X148493680Y-104700550D01*
X148504170Y-104722729D01*
X148512435Y-104745828D01*
X148518396Y-104769627D01*
X148521996Y-104793895D01*
X148523200Y-104818399D01*
X148523200Y-105468401D01*
X148521996Y-105492905D01*
X148518396Y-105517173D01*
X148512435Y-105540972D01*
X148504170Y-105564071D01*
X148493680Y-105586250D01*
X148481068Y-105607293D01*
X148466453Y-105626999D01*
X148449977Y-105645177D01*
X148431799Y-105661653D01*
X148412093Y-105676268D01*
X148391050Y-105688880D01*
X148368871Y-105699370D01*
X148345772Y-105707635D01*
X148321973Y-105713596D01*
X148297705Y-105717196D01*
X148273201Y-105718400D01*
X147373199Y-105718400D01*
X147348695Y-105717196D01*
X147324427Y-105713596D01*
X147300628Y-105707635D01*
X147277529Y-105699370D01*
X147255350Y-105688880D01*
X147234307Y-105676268D01*
X147214601Y-105661653D01*
X147196423Y-105645177D01*
X147179947Y-105626999D01*
X147165332Y-105607293D01*
X147152720Y-105586250D01*
X147142230Y-105564071D01*
X147133965Y-105540972D01*
X147128004Y-105517173D01*
X147124404Y-105492905D01*
X147123200Y-105468401D01*
X147123200Y-104818399D01*
X147124404Y-104793895D01*
X147128004Y-104769627D01*
X147133965Y-104745828D01*
X147142230Y-104722729D01*
X147152720Y-104700550D01*
X147165332Y-104679507D01*
X147179947Y-104659801D01*
X147196423Y-104641623D01*
X147214601Y-104625147D01*
X147234307Y-104610532D01*
X147255350Y-104597920D01*
X147277529Y-104587430D01*
X147300628Y-104579165D01*
X147324427Y-104573204D01*
X147348695Y-104569604D01*
X147373199Y-104568400D01*
X148273201Y-104568400D01*
X148297705Y-104569604D01*
X148297705Y-104569604D01*
G37*
D17*
X147823200Y-105143400D03*
D13*
G36*
X145097705Y-106619604D02*
G01*
X145121973Y-106623204D01*
X145145772Y-106629165D01*
X145168871Y-106637430D01*
X145191050Y-106647920D01*
X145212093Y-106660532D01*
X145231799Y-106675147D01*
X145249977Y-106691623D01*
X145266453Y-106709801D01*
X145281068Y-106729507D01*
X145293680Y-106750550D01*
X145304170Y-106772729D01*
X145312435Y-106795828D01*
X145318396Y-106819627D01*
X145321996Y-106843895D01*
X145323200Y-106868399D01*
X145323200Y-107518401D01*
X145321996Y-107542905D01*
X145318396Y-107567173D01*
X145312435Y-107590972D01*
X145304170Y-107614071D01*
X145293680Y-107636250D01*
X145281068Y-107657293D01*
X145266453Y-107676999D01*
X145249977Y-107695177D01*
X145231799Y-107711653D01*
X145212093Y-107726268D01*
X145191050Y-107738880D01*
X145168871Y-107749370D01*
X145145772Y-107757635D01*
X145121973Y-107763596D01*
X145097705Y-107767196D01*
X145073201Y-107768400D01*
X144173199Y-107768400D01*
X144148695Y-107767196D01*
X144124427Y-107763596D01*
X144100628Y-107757635D01*
X144077529Y-107749370D01*
X144055350Y-107738880D01*
X144034307Y-107726268D01*
X144014601Y-107711653D01*
X143996423Y-107695177D01*
X143979947Y-107676999D01*
X143965332Y-107657293D01*
X143952720Y-107636250D01*
X143942230Y-107614071D01*
X143933965Y-107590972D01*
X143928004Y-107567173D01*
X143924404Y-107542905D01*
X143923200Y-107518401D01*
X143923200Y-106868399D01*
X143924404Y-106843895D01*
X143928004Y-106819627D01*
X143933965Y-106795828D01*
X143942230Y-106772729D01*
X143952720Y-106750550D01*
X143965332Y-106729507D01*
X143979947Y-106709801D01*
X143996423Y-106691623D01*
X144014601Y-106675147D01*
X144034307Y-106660532D01*
X144055350Y-106647920D01*
X144077529Y-106637430D01*
X144100628Y-106629165D01*
X144124427Y-106623204D01*
X144148695Y-106619604D01*
X144173199Y-106618400D01*
X145073201Y-106618400D01*
X145097705Y-106619604D01*
X145097705Y-106619604D01*
G37*
D17*
X144623200Y-107193400D03*
D13*
G36*
X145097705Y-104569604D02*
G01*
X145121973Y-104573204D01*
X145145772Y-104579165D01*
X145168871Y-104587430D01*
X145191050Y-104597920D01*
X145212093Y-104610532D01*
X145231799Y-104625147D01*
X145249977Y-104641623D01*
X145266453Y-104659801D01*
X145281068Y-104679507D01*
X145293680Y-104700550D01*
X145304170Y-104722729D01*
X145312435Y-104745828D01*
X145318396Y-104769627D01*
X145321996Y-104793895D01*
X145323200Y-104818399D01*
X145323200Y-105468401D01*
X145321996Y-105492905D01*
X145318396Y-105517173D01*
X145312435Y-105540972D01*
X145304170Y-105564071D01*
X145293680Y-105586250D01*
X145281068Y-105607293D01*
X145266453Y-105626999D01*
X145249977Y-105645177D01*
X145231799Y-105661653D01*
X145212093Y-105676268D01*
X145191050Y-105688880D01*
X145168871Y-105699370D01*
X145145772Y-105707635D01*
X145121973Y-105713596D01*
X145097705Y-105717196D01*
X145073201Y-105718400D01*
X144173199Y-105718400D01*
X144148695Y-105717196D01*
X144124427Y-105713596D01*
X144100628Y-105707635D01*
X144077529Y-105699370D01*
X144055350Y-105688880D01*
X144034307Y-105676268D01*
X144014601Y-105661653D01*
X143996423Y-105645177D01*
X143979947Y-105626999D01*
X143965332Y-105607293D01*
X143952720Y-105586250D01*
X143942230Y-105564071D01*
X143933965Y-105540972D01*
X143928004Y-105517173D01*
X143924404Y-105492905D01*
X143923200Y-105468401D01*
X143923200Y-104818399D01*
X143924404Y-104793895D01*
X143928004Y-104769627D01*
X143933965Y-104745828D01*
X143942230Y-104722729D01*
X143952720Y-104700550D01*
X143965332Y-104679507D01*
X143979947Y-104659801D01*
X143996423Y-104641623D01*
X144014601Y-104625147D01*
X144034307Y-104610532D01*
X144055350Y-104597920D01*
X144077529Y-104587430D01*
X144100628Y-104579165D01*
X144124427Y-104573204D01*
X144148695Y-104569604D01*
X144173199Y-104568400D01*
X145073201Y-104568400D01*
X145097705Y-104569604D01*
X145097705Y-104569604D01*
G37*
D17*
X144623200Y-105143400D03*
D13*
G36*
X147674505Y-110201204D02*
G01*
X147698773Y-110204804D01*
X147722572Y-110210765D01*
X147745671Y-110219030D01*
X147767850Y-110229520D01*
X147788893Y-110242132D01*
X147808599Y-110256747D01*
X147826777Y-110273223D01*
X147843253Y-110291401D01*
X147857868Y-110311107D01*
X147870480Y-110332150D01*
X147880970Y-110354329D01*
X147889235Y-110377428D01*
X147895196Y-110401227D01*
X147898796Y-110425495D01*
X147900000Y-110449999D01*
X147900000Y-111100001D01*
X147898796Y-111124505D01*
X147895196Y-111148773D01*
X147889235Y-111172572D01*
X147880970Y-111195671D01*
X147870480Y-111217850D01*
X147857868Y-111238893D01*
X147843253Y-111258599D01*
X147826777Y-111276777D01*
X147808599Y-111293253D01*
X147788893Y-111307868D01*
X147767850Y-111320480D01*
X147745671Y-111330970D01*
X147722572Y-111339235D01*
X147698773Y-111345196D01*
X147674505Y-111348796D01*
X147650001Y-111350000D01*
X146749999Y-111350000D01*
X146725495Y-111348796D01*
X146701227Y-111345196D01*
X146677428Y-111339235D01*
X146654329Y-111330970D01*
X146632150Y-111320480D01*
X146611107Y-111307868D01*
X146591401Y-111293253D01*
X146573223Y-111276777D01*
X146556747Y-111258599D01*
X146542132Y-111238893D01*
X146529520Y-111217850D01*
X146519030Y-111195671D01*
X146510765Y-111172572D01*
X146504804Y-111148773D01*
X146501204Y-111124505D01*
X146500000Y-111100001D01*
X146500000Y-110449999D01*
X146501204Y-110425495D01*
X146504804Y-110401227D01*
X146510765Y-110377428D01*
X146519030Y-110354329D01*
X146529520Y-110332150D01*
X146542132Y-110311107D01*
X146556747Y-110291401D01*
X146573223Y-110273223D01*
X146591401Y-110256747D01*
X146611107Y-110242132D01*
X146632150Y-110229520D01*
X146654329Y-110219030D01*
X146677428Y-110210765D01*
X146701227Y-110204804D01*
X146725495Y-110201204D01*
X146749999Y-110200000D01*
X147650001Y-110200000D01*
X147674505Y-110201204D01*
X147674505Y-110201204D01*
G37*
D17*
X147200000Y-110775000D03*
D13*
G36*
X147674505Y-112251204D02*
G01*
X147698773Y-112254804D01*
X147722572Y-112260765D01*
X147745671Y-112269030D01*
X147767850Y-112279520D01*
X147788893Y-112292132D01*
X147808599Y-112306747D01*
X147826777Y-112323223D01*
X147843253Y-112341401D01*
X147857868Y-112361107D01*
X147870480Y-112382150D01*
X147880970Y-112404329D01*
X147889235Y-112427428D01*
X147895196Y-112451227D01*
X147898796Y-112475495D01*
X147900000Y-112499999D01*
X147900000Y-113150001D01*
X147898796Y-113174505D01*
X147895196Y-113198773D01*
X147889235Y-113222572D01*
X147880970Y-113245671D01*
X147870480Y-113267850D01*
X147857868Y-113288893D01*
X147843253Y-113308599D01*
X147826777Y-113326777D01*
X147808599Y-113343253D01*
X147788893Y-113357868D01*
X147767850Y-113370480D01*
X147745671Y-113380970D01*
X147722572Y-113389235D01*
X147698773Y-113395196D01*
X147674505Y-113398796D01*
X147650001Y-113400000D01*
X146749999Y-113400000D01*
X146725495Y-113398796D01*
X146701227Y-113395196D01*
X146677428Y-113389235D01*
X146654329Y-113380970D01*
X146632150Y-113370480D01*
X146611107Y-113357868D01*
X146591401Y-113343253D01*
X146573223Y-113326777D01*
X146556747Y-113308599D01*
X146542132Y-113288893D01*
X146529520Y-113267850D01*
X146519030Y-113245671D01*
X146510765Y-113222572D01*
X146504804Y-113198773D01*
X146501204Y-113174505D01*
X146500000Y-113150001D01*
X146500000Y-112499999D01*
X146501204Y-112475495D01*
X146504804Y-112451227D01*
X146510765Y-112427428D01*
X146519030Y-112404329D01*
X146529520Y-112382150D01*
X146542132Y-112361107D01*
X146556747Y-112341401D01*
X146573223Y-112323223D01*
X146591401Y-112306747D01*
X146611107Y-112292132D01*
X146632150Y-112279520D01*
X146654329Y-112269030D01*
X146677428Y-112260765D01*
X146701227Y-112254804D01*
X146725495Y-112251204D01*
X146749999Y-112250000D01*
X147650001Y-112250000D01*
X147674505Y-112251204D01*
X147674505Y-112251204D01*
G37*
D17*
X147200000Y-112825000D03*
D13*
G36*
X145674505Y-110201204D02*
G01*
X145698773Y-110204804D01*
X145722572Y-110210765D01*
X145745671Y-110219030D01*
X145767850Y-110229520D01*
X145788893Y-110242132D01*
X145808599Y-110256747D01*
X145826777Y-110273223D01*
X145843253Y-110291401D01*
X145857868Y-110311107D01*
X145870480Y-110332150D01*
X145880970Y-110354329D01*
X145889235Y-110377428D01*
X145895196Y-110401227D01*
X145898796Y-110425495D01*
X145900000Y-110449999D01*
X145900000Y-111100001D01*
X145898796Y-111124505D01*
X145895196Y-111148773D01*
X145889235Y-111172572D01*
X145880970Y-111195671D01*
X145870480Y-111217850D01*
X145857868Y-111238893D01*
X145843253Y-111258599D01*
X145826777Y-111276777D01*
X145808599Y-111293253D01*
X145788893Y-111307868D01*
X145767850Y-111320480D01*
X145745671Y-111330970D01*
X145722572Y-111339235D01*
X145698773Y-111345196D01*
X145674505Y-111348796D01*
X145650001Y-111350000D01*
X144749999Y-111350000D01*
X144725495Y-111348796D01*
X144701227Y-111345196D01*
X144677428Y-111339235D01*
X144654329Y-111330970D01*
X144632150Y-111320480D01*
X144611107Y-111307868D01*
X144591401Y-111293253D01*
X144573223Y-111276777D01*
X144556747Y-111258599D01*
X144542132Y-111238893D01*
X144529520Y-111217850D01*
X144519030Y-111195671D01*
X144510765Y-111172572D01*
X144504804Y-111148773D01*
X144501204Y-111124505D01*
X144500000Y-111100001D01*
X144500000Y-110449999D01*
X144501204Y-110425495D01*
X144504804Y-110401227D01*
X144510765Y-110377428D01*
X144519030Y-110354329D01*
X144529520Y-110332150D01*
X144542132Y-110311107D01*
X144556747Y-110291401D01*
X144573223Y-110273223D01*
X144591401Y-110256747D01*
X144611107Y-110242132D01*
X144632150Y-110229520D01*
X144654329Y-110219030D01*
X144677428Y-110210765D01*
X144701227Y-110204804D01*
X144725495Y-110201204D01*
X144749999Y-110200000D01*
X145650001Y-110200000D01*
X145674505Y-110201204D01*
X145674505Y-110201204D01*
G37*
D17*
X145200000Y-110775000D03*
D13*
G36*
X145674505Y-112251204D02*
G01*
X145698773Y-112254804D01*
X145722572Y-112260765D01*
X145745671Y-112269030D01*
X145767850Y-112279520D01*
X145788893Y-112292132D01*
X145808599Y-112306747D01*
X145826777Y-112323223D01*
X145843253Y-112341401D01*
X145857868Y-112361107D01*
X145870480Y-112382150D01*
X145880970Y-112404329D01*
X145889235Y-112427428D01*
X145895196Y-112451227D01*
X145898796Y-112475495D01*
X145900000Y-112499999D01*
X145900000Y-113150001D01*
X145898796Y-113174505D01*
X145895196Y-113198773D01*
X145889235Y-113222572D01*
X145880970Y-113245671D01*
X145870480Y-113267850D01*
X145857868Y-113288893D01*
X145843253Y-113308599D01*
X145826777Y-113326777D01*
X145808599Y-113343253D01*
X145788893Y-113357868D01*
X145767850Y-113370480D01*
X145745671Y-113380970D01*
X145722572Y-113389235D01*
X145698773Y-113395196D01*
X145674505Y-113398796D01*
X145650001Y-113400000D01*
X144749999Y-113400000D01*
X144725495Y-113398796D01*
X144701227Y-113395196D01*
X144677428Y-113389235D01*
X144654329Y-113380970D01*
X144632150Y-113370480D01*
X144611107Y-113357868D01*
X144591401Y-113343253D01*
X144573223Y-113326777D01*
X144556747Y-113308599D01*
X144542132Y-113288893D01*
X144529520Y-113267850D01*
X144519030Y-113245671D01*
X144510765Y-113222572D01*
X144504804Y-113198773D01*
X144501204Y-113174505D01*
X144500000Y-113150001D01*
X144500000Y-112499999D01*
X144501204Y-112475495D01*
X144504804Y-112451227D01*
X144510765Y-112427428D01*
X144519030Y-112404329D01*
X144529520Y-112382150D01*
X144542132Y-112361107D01*
X144556747Y-112341401D01*
X144573223Y-112323223D01*
X144591401Y-112306747D01*
X144611107Y-112292132D01*
X144632150Y-112279520D01*
X144654329Y-112269030D01*
X144677428Y-112260765D01*
X144701227Y-112254804D01*
X144725495Y-112251204D01*
X144749999Y-112250000D01*
X145650001Y-112250000D01*
X145674505Y-112251204D01*
X145674505Y-112251204D01*
G37*
D17*
X145200000Y-112825000D03*
D20*
X122230000Y-84230000D03*
X105580000Y-84230000D03*
X112070000Y-84230000D03*
X118470000Y-84230000D03*
X176930000Y-84230000D03*
X108100000Y-91850000D03*
X110100000Y-91850000D03*
X112150000Y-91850000D03*
X105550000Y-91850000D03*
X130450000Y-91850000D03*
X134750000Y-98900000D03*
X146050000Y-99500000D03*
X122560000Y-91850000D03*
X121675000Y-103200000D03*
X123825000Y-100150000D03*
X157645100Y-112915700D03*
X176900000Y-91850000D03*
X159700000Y-91850000D03*
X164729827Y-97175000D03*
X134700000Y-93750002D03*
X149850000Y-89675000D03*
X159750000Y-94100000D03*
X119621300Y-106083100D03*
X119595900Y-107302300D03*
X119634000Y-108559600D03*
X119634000Y-109855000D03*
X119634000Y-111163100D03*
X130410000Y-94160000D03*
X119625000Y-96495000D03*
X119625000Y-99035000D03*
X119625000Y-104825000D03*
X121280000Y-94390000D03*
X145000000Y-100980000D03*
X146190000Y-106290000D03*
X161432157Y-113056609D03*
X148568047Y-95729153D03*
X152654000Y-94462600D03*
X163500000Y-94000000D03*
X132622509Y-98562226D03*
X132800000Y-94700000D03*
X159300000Y-99000000D03*
X163300000Y-109250000D03*
X161200000Y-107450000D03*
X147040300Y-110909000D03*
X145503600Y-110921700D03*
X128150000Y-119050000D03*
X128190000Y-122760000D03*
X131210000Y-122760000D03*
X147150000Y-119580000D03*
X147140000Y-122760000D03*
X164465403Y-113084597D03*
X172550000Y-115900000D03*
X170000000Y-115900000D03*
X155780000Y-118830000D03*
X159900000Y-112600000D03*
X172025000Y-119900000D03*
X110090000Y-89310000D03*
X133440000Y-89310000D03*
X147510000Y-89310000D03*
X174975010Y-89310000D03*
X108180000Y-86770000D03*
X148330000Y-86770000D03*
X134400000Y-88450000D03*
X174200000Y-86770000D03*
X145600000Y-93000002D03*
X141300000Y-93650000D03*
X158250000Y-123900000D03*
X159583333Y-123900000D03*
X157650000Y-94750000D03*
X160150000Y-97300000D03*
X120700000Y-116750000D03*
X134970000Y-111770000D03*
X123500000Y-116200000D03*
X123700000Y-112850000D03*
X142800000Y-104700000D03*
X153750000Y-99000000D03*
X123700000Y-111050000D03*
X152500000Y-98950000D03*
X142836027Y-103686027D03*
X123700000Y-109050000D03*
X142800000Y-102600000D03*
X151950000Y-98050000D03*
X123700000Y-107050000D03*
X145674847Y-96875153D03*
X149199600Y-94462600D03*
X123700000Y-105050000D03*
X144250000Y-97000000D03*
X149052015Y-93454579D03*
X123700000Y-103250000D03*
X144200000Y-96000000D03*
X147937652Y-93512340D03*
X121775000Y-100150000D03*
X121775000Y-97750000D03*
X108150000Y-95100000D03*
X147865800Y-105105100D03*
X144623200Y-105143400D03*
X147823200Y-107193400D03*
X144623200Y-107193400D03*
X172550000Y-122750000D03*
X171250000Y-122750000D03*
X162250000Y-123900000D03*
X160916666Y-123900000D03*
X168750000Y-122750000D03*
X170000000Y-122750000D03*
X153850000Y-115075000D03*
X163800000Y-103650000D03*
D21*
X109720000Y-84230000D02*
X112070000Y-84230000D01*
X119080000Y-84230000D02*
X122230000Y-84230000D01*
X180470000Y-84230000D02*
X180500000Y-84200000D01*
X102300000Y-84230000D02*
X105580000Y-84230000D01*
X105580000Y-84230000D02*
X109720000Y-84230000D01*
X112070000Y-84230000D02*
X112920000Y-84230000D01*
X112920000Y-84230000D02*
X118470000Y-84230000D01*
X118470000Y-84230000D02*
X119080000Y-84230000D01*
X122230000Y-84230000D02*
X176930000Y-84230000D01*
X176930000Y-84230000D02*
X180470000Y-84230000D01*
X121675000Y-112950000D02*
X121675000Y-111000000D01*
X121675000Y-111000000D02*
X121675000Y-109050000D01*
X121675000Y-109050000D02*
X121675000Y-107100000D01*
X121675000Y-107100000D02*
X121675000Y-105150000D01*
X121675000Y-105150000D02*
X121675000Y-103200000D01*
X108100000Y-91850000D02*
X110100000Y-91850000D01*
X110100000Y-91850000D02*
X112150000Y-91850000D01*
X180470000Y-91850000D02*
X180500000Y-91820000D01*
X102300000Y-91850000D02*
X105550000Y-91850000D01*
X105550000Y-91850000D02*
X109000000Y-91850000D01*
X154600000Y-102875000D02*
X154600000Y-104625000D01*
X161550000Y-102000000D02*
X161550000Y-91850000D01*
X161550000Y-103600000D02*
X161550000Y-102000000D01*
X163600000Y-105675000D02*
X163600000Y-105650000D01*
X163600000Y-105650000D02*
X161550000Y-103600000D01*
X160450000Y-103100000D02*
X161550000Y-102000000D01*
X154600000Y-102875000D02*
X154825000Y-103100000D01*
X154825000Y-103100000D02*
X160450000Y-103100000D01*
X123825000Y-100150000D02*
X123825000Y-100150000D01*
X123825000Y-100575000D02*
X123825000Y-100150000D01*
X121675000Y-103200000D02*
X121675000Y-103200000D01*
X123850000Y-96925000D02*
X123850000Y-91850000D01*
X123825000Y-96950000D02*
X123850000Y-96925000D01*
X123825000Y-97750000D02*
X123825000Y-96950000D01*
X123850000Y-91850000D02*
X130450000Y-91850000D01*
X149100000Y-91850000D02*
X149850000Y-91850000D01*
X130450000Y-91850000D02*
X134700000Y-91850000D01*
X134700000Y-91850000D02*
X139650000Y-91850000D01*
X139650000Y-91850000D02*
X149100000Y-91850000D01*
X149850000Y-91850000D02*
X150750000Y-91850000D01*
X150750000Y-91850000D02*
X159700000Y-91850000D01*
X150650000Y-91950000D02*
X150750000Y-91850000D01*
X146050000Y-99500000D02*
X150650000Y-94900000D01*
X150650000Y-94900000D02*
X150650000Y-91950000D01*
X112150000Y-91850000D02*
X122560000Y-91850000D01*
X123850000Y-91850000D02*
X122560000Y-91850000D01*
X121675000Y-103200000D02*
X121675000Y-102725000D01*
X123825000Y-100150000D02*
X123825000Y-97750000D01*
X163600000Y-106960800D02*
X163600000Y-105675000D01*
X157645100Y-112915700D02*
X163600000Y-106960800D01*
X176900000Y-91850000D02*
X180470000Y-91850000D01*
X159700000Y-91850000D02*
X161550000Y-91850000D01*
X165850000Y-91850000D02*
X176900000Y-91850000D01*
X164750000Y-95875000D02*
X164750000Y-91850000D01*
X164775000Y-95900000D02*
X164750000Y-95875000D01*
X164775000Y-96700000D02*
X164775000Y-95900000D01*
X161550000Y-91850000D02*
X164750000Y-91850000D01*
X164750000Y-91850000D02*
X165850000Y-91850000D01*
X134750000Y-98900000D02*
X134750000Y-93800002D01*
X134750000Y-93800002D02*
X134700000Y-93750002D01*
X134700000Y-91850000D02*
X134700000Y-93750002D01*
X149850000Y-89675000D02*
X149850000Y-91850000D01*
X147218100Y-112895500D02*
X145249600Y-112895500D01*
X147218100Y-112825000D02*
X149200000Y-112825000D01*
X143268400Y-112825000D02*
X145249600Y-112825000D01*
X120880001Y-93990001D02*
X121280000Y-94390000D01*
X107803505Y-93990001D02*
X120880001Y-93990001D01*
X106362500Y-95100000D02*
X106693506Y-95100000D01*
X106693506Y-95100000D02*
X107803505Y-93990001D01*
X149200000Y-110775000D02*
X147200000Y-110775000D01*
X143200000Y-110775000D02*
X145200000Y-110775000D01*
D22*
X102000000Y-99800000D02*
X102000000Y-109960000D01*
X102000000Y-99800000D02*
X112160000Y-99800000D01*
X112160000Y-99800000D02*
X112160000Y-109960000D01*
X102000000Y-109960000D02*
X112160000Y-109960000D01*
D23*
X101910000Y-122760000D02*
X102550000Y-122760000D01*
X99400000Y-120250000D02*
X101910000Y-122760000D01*
X102000000Y-109960000D02*
X99400000Y-112560000D01*
X99400000Y-112560000D02*
X99400000Y-120250000D01*
D21*
X128150000Y-122720000D02*
X128190000Y-122760000D01*
X128150000Y-119050000D02*
X128150000Y-122720000D01*
X131200000Y-122750000D02*
X131210000Y-122760000D01*
X131197200Y-110725300D02*
X131200000Y-110728100D01*
X131200000Y-110728100D02*
X131200000Y-122750000D01*
X147150000Y-122750000D02*
X147140000Y-122760000D01*
X147150000Y-119580000D02*
X147150000Y-122750000D01*
X152300000Y-120650000D02*
X152300000Y-121750000D01*
X155900000Y-117050000D02*
X152300000Y-120650000D01*
X164465403Y-113084597D02*
X160500000Y-117050000D01*
X160500000Y-117050000D02*
X155900000Y-117050000D01*
D22*
X170580000Y-99800000D02*
X170580000Y-109960000D01*
X170580000Y-99800000D02*
X180740000Y-99800000D01*
X180740000Y-99800000D02*
X180740000Y-109960000D01*
X180740000Y-109960000D02*
X170580000Y-109960000D01*
D23*
X171200000Y-110580000D02*
X170580000Y-109960000D01*
X171200000Y-115900000D02*
X171200000Y-110580000D01*
X171200000Y-115900000D02*
X170000000Y-115900000D01*
X172550000Y-115900000D02*
X171200000Y-115900000D01*
X167070000Y-118830000D02*
X156345685Y-118830000D01*
X156345685Y-118830000D02*
X155780000Y-118830000D01*
X170000000Y-115900000D02*
X167070000Y-118830000D01*
D21*
X159880000Y-112600000D02*
X158530000Y-113950000D01*
X159900000Y-112600000D02*
X159880000Y-112600000D01*
X102300000Y-89310000D02*
X110990000Y-89310000D01*
X110990000Y-89310000D02*
X133440000Y-89310000D01*
X133440000Y-89310000D02*
X147510000Y-89310000D01*
X175005010Y-89280000D02*
X174975010Y-89310000D01*
X180500000Y-89280000D02*
X175005010Y-89280000D01*
X174565010Y-88900000D02*
X174975010Y-89310000D01*
X147510000Y-89310000D02*
X147920000Y-88900000D01*
X147920000Y-88900000D02*
X174565010Y-88900000D01*
X102300000Y-86770000D02*
X109080000Y-86770000D01*
X180470000Y-86770000D02*
X180500000Y-86740000D01*
X134230000Y-86770000D02*
X148330000Y-86770000D01*
X132980000Y-86770000D02*
X134230000Y-86770000D01*
X109080000Y-86770000D02*
X132980000Y-86770000D01*
X134400000Y-88450000D02*
X134400000Y-86800000D01*
X148330000Y-86770000D02*
X173930000Y-86770000D01*
X173930000Y-86770000D02*
X180470000Y-86770000D01*
X156935000Y-104340000D02*
X157400000Y-104340000D01*
X154600000Y-106675000D02*
X156935000Y-104340000D01*
X143899999Y-93000002D02*
X145600000Y-93000002D01*
X141300000Y-93650000D02*
X143250001Y-93650000D01*
X143250001Y-93650000D02*
X143899999Y-93000002D01*
X155375000Y-101800000D02*
X157400000Y-101800000D01*
X154550000Y-100975000D02*
X155375000Y-101800000D01*
D23*
X157150000Y-124000000D02*
X159250000Y-124000000D01*
X156000000Y-122850000D02*
X157150000Y-124000000D01*
X154840000Y-121750000D02*
X155940000Y-122850000D01*
X155940000Y-122850000D02*
X156000000Y-122850000D01*
D21*
X157650000Y-94750000D02*
X160150000Y-97250000D01*
X160150000Y-97250000D02*
X160150000Y-97300000D01*
X142900000Y-104700000D02*
X142800000Y-104700000D01*
X144099980Y-103500020D02*
X142900000Y-104700000D01*
X153750000Y-99000000D02*
X149249980Y-103500020D01*
X149249980Y-103500020D02*
X144099980Y-103500020D01*
X143472044Y-103050010D02*
X142836027Y-103686027D01*
X152500000Y-98950000D02*
X148399990Y-103050010D01*
X148399990Y-103050010D02*
X143472044Y-103050010D01*
X142800000Y-102600000D02*
X147400000Y-102600000D01*
X147400000Y-102600000D02*
X151950000Y-98050000D01*
X148799601Y-94862599D02*
X149199600Y-94462600D01*
X147720101Y-94862599D02*
X148799601Y-94862599D01*
X145674847Y-96875153D02*
X145707547Y-96875153D01*
X145707547Y-96875153D02*
X147720101Y-94862599D01*
X148652016Y-93854578D02*
X149052015Y-93454579D01*
X146987660Y-94262340D02*
X148244254Y-94262340D01*
X148244254Y-94262340D02*
X148652016Y-93854578D01*
X144250000Y-97000000D02*
X146987660Y-94262340D01*
X146687660Y-93512340D02*
X147371967Y-93512340D01*
X147371967Y-93512340D02*
X147937652Y-93512340D01*
X144200000Y-96000000D02*
X146687660Y-93512340D01*
D23*
X162500000Y-123900000D02*
X163700000Y-122700000D01*
X161035000Y-123900000D02*
X162500000Y-123900000D01*
X163700000Y-122700000D02*
X173450000Y-122700000D01*
D21*
X155870000Y-114600000D02*
X154325000Y-114600000D01*
X154325000Y-114600000D02*
X153850000Y-115075000D01*
D24*
G36*
X139827000Y-109712933D02*
G01*
X139780614Y-109661781D01*
X139554620Y-109494263D01*
X139300287Y-109374054D01*
X139166239Y-109333396D01*
X138944200Y-109455385D01*
X138944200Y-110598300D01*
X138964200Y-110598300D01*
X138964200Y-110852300D01*
X138944200Y-110852300D01*
X138944200Y-111995215D01*
X139166239Y-112117204D01*
X139300287Y-112076546D01*
X139554620Y-111956337D01*
X139780614Y-111788819D01*
X139827000Y-111737667D01*
X139827000Y-114554000D01*
X139829440Y-114578776D01*
X139836667Y-114602601D01*
X139848403Y-114624557D01*
X139864197Y-114643803D01*
X139883443Y-114659597D01*
X139905399Y-114671333D01*
X139929224Y-114678560D01*
X139954000Y-114681000D01*
X152892924Y-114681000D01*
X152854774Y-114773102D01*
X152815000Y-114973061D01*
X152815000Y-115176939D01*
X152854774Y-115376898D01*
X152932795Y-115565256D01*
X153046063Y-115734774D01*
X153190226Y-115878937D01*
X153359744Y-115992205D01*
X153548102Y-116070226D01*
X153748061Y-116110000D01*
X153951939Y-116110000D01*
X154151898Y-116070226D01*
X154340256Y-115992205D01*
X154509774Y-115878937D01*
X154653937Y-115734774D01*
X154767205Y-115565256D01*
X154791439Y-115506750D01*
X157145000Y-115506750D01*
X157156109Y-115608773D01*
X157194194Y-115727918D01*
X157254792Y-115837343D01*
X157335574Y-115932844D01*
X157433434Y-116010750D01*
X157544613Y-116068067D01*
X157664838Y-116102593D01*
X157789488Y-116113001D01*
X158244250Y-116110000D01*
X158403000Y-115951250D01*
X158403000Y-115348000D01*
X158657000Y-115348000D01*
X158657000Y-115951250D01*
X158815750Y-116110000D01*
X159270512Y-116113001D01*
X159395162Y-116102593D01*
X159515387Y-116068067D01*
X159626566Y-116010750D01*
X159724426Y-115932844D01*
X159805208Y-115837343D01*
X159865806Y-115727918D01*
X159903891Y-115608773D01*
X159915000Y-115506750D01*
X159756250Y-115348000D01*
X158657000Y-115348000D01*
X158403000Y-115348000D01*
X157303750Y-115348000D01*
X157145000Y-115506750D01*
X154791439Y-115506750D01*
X154838019Y-115394297D01*
X154875820Y-115414502D01*
X154995518Y-115450812D01*
X155120000Y-115463072D01*
X156620000Y-115463072D01*
X156744482Y-115450812D01*
X156864180Y-115414502D01*
X156974494Y-115355537D01*
X157071185Y-115276185D01*
X157150537Y-115179494D01*
X157209502Y-115069180D01*
X157212162Y-115060412D01*
X157303750Y-115152000D01*
X158403000Y-115152000D01*
X158403000Y-115103000D01*
X158657000Y-115103000D01*
X158657000Y-115152000D01*
X159756250Y-115152000D01*
X159915000Y-114993250D01*
X159903891Y-114891227D01*
X159865806Y-114772082D01*
X159815366Y-114681000D01*
X161794199Y-114681000D01*
X160185199Y-116290000D01*
X155937323Y-116290000D01*
X155900000Y-116286324D01*
X155862677Y-116290000D01*
X155862667Y-116290000D01*
X155751014Y-116300997D01*
X155607753Y-116344454D01*
X155475724Y-116415026D01*
X155359999Y-116509999D01*
X155336201Y-116538997D01*
X151789003Y-120086196D01*
X151759999Y-120109999D01*
X151704871Y-120177174D01*
X151665026Y-120225724D01*
X151645674Y-120261928D01*
X151450000Y-120261928D01*
X151325518Y-120274188D01*
X151205820Y-120310498D01*
X151095506Y-120369463D01*
X150998815Y-120448815D01*
X150919463Y-120545506D01*
X150860498Y-120655820D01*
X150824188Y-120775518D01*
X150811928Y-120900000D01*
X150811928Y-122600000D01*
X150824188Y-122724482D01*
X150860498Y-122844180D01*
X150919463Y-122954494D01*
X150998815Y-123051185D01*
X151095506Y-123130537D01*
X151205820Y-123189502D01*
X151325518Y-123225812D01*
X151450000Y-123238072D01*
X153150000Y-123238072D01*
X153274482Y-123225812D01*
X153394180Y-123189502D01*
X153504494Y-123130537D01*
X153601185Y-123051185D01*
X153680537Y-122954494D01*
X153739502Y-122844180D01*
X153760393Y-122775313D01*
X153784866Y-122805134D01*
X154010986Y-122990706D01*
X154249519Y-123118204D01*
X154912550Y-123781236D01*
X154955919Y-123834081D01*
X155008764Y-123877450D01*
X155008766Y-123877452D01*
X155036241Y-123900000D01*
X155166812Y-124007157D01*
X155234826Y-124043511D01*
X156122550Y-124931236D01*
X156165919Y-124984081D01*
X156218764Y-125027450D01*
X156218766Y-125027452D01*
X156254962Y-125057157D01*
X156376812Y-125157157D01*
X156617419Y-125285764D01*
X156878493Y-125364960D01*
X157081963Y-125385000D01*
X157081971Y-125385000D01*
X157150000Y-125391700D01*
X157218029Y-125385000D01*
X159318037Y-125385000D01*
X159521507Y-125364960D01*
X159782581Y-125285764D01*
X160023188Y-125157157D01*
X160203425Y-125009240D01*
X160261812Y-125057157D01*
X160502419Y-125185764D01*
X160763493Y-125264960D01*
X160966963Y-125285000D01*
X162431971Y-125285000D01*
X162500000Y-125291700D01*
X162568029Y-125285000D01*
X162568037Y-125285000D01*
X162771507Y-125264960D01*
X163032581Y-125185764D01*
X163273188Y-125057157D01*
X163484081Y-124884081D01*
X163527454Y-124831231D01*
X164273686Y-124085000D01*
X173518037Y-124085000D01*
X173721507Y-124064960D01*
X173982581Y-123985764D01*
X174223188Y-123857157D01*
X174434081Y-123684081D01*
X174607157Y-123473188D01*
X174735764Y-123232581D01*
X174814960Y-122971507D01*
X174841701Y-122700000D01*
X174814960Y-122428493D01*
X174735764Y-122167419D01*
X174607157Y-121926812D01*
X174434081Y-121715919D01*
X174223188Y-121542843D01*
X173982581Y-121414236D01*
X173721507Y-121335040D01*
X173518037Y-121315000D01*
X163768026Y-121315000D01*
X163699999Y-121308300D01*
X163631972Y-121315000D01*
X163631963Y-121315000D01*
X163428493Y-121335040D01*
X163167419Y-121414236D01*
X162926812Y-121542843D01*
X162926810Y-121542844D01*
X162926811Y-121542844D01*
X162768766Y-121672548D01*
X162768764Y-121672550D01*
X162715919Y-121715919D01*
X162672550Y-121768764D01*
X161926315Y-122515000D01*
X160966963Y-122515000D01*
X160763493Y-122535040D01*
X160502419Y-122614236D01*
X160261812Y-122742843D01*
X160081575Y-122890760D01*
X160023188Y-122842843D01*
X159782581Y-122714236D01*
X159521507Y-122635040D01*
X159318037Y-122615000D01*
X157723686Y-122615000D01*
X157027454Y-121918769D01*
X156984081Y-121865919D01*
X156773188Y-121692843D01*
X156705175Y-121656489D01*
X156208204Y-121159519D01*
X156080706Y-120920986D01*
X155895134Y-120694866D01*
X155779540Y-120600000D01*
X168761928Y-120600000D01*
X168774188Y-120724482D01*
X168810498Y-120844180D01*
X168869463Y-120954494D01*
X168948815Y-121051185D01*
X169045506Y-121130537D01*
X169155820Y-121189502D01*
X169275518Y-121225812D01*
X169400000Y-121238072D01*
X169689250Y-121235000D01*
X169848000Y-121076250D01*
X169848000Y-120027000D01*
X168923750Y-120027000D01*
X168765000Y-120185750D01*
X168761928Y-120600000D01*
X155779540Y-120600000D01*
X155669014Y-120509294D01*
X155411034Y-120371401D01*
X155131111Y-120286487D01*
X154912950Y-120265000D01*
X154767050Y-120265000D01*
X154548889Y-120286487D01*
X154268966Y-120371401D01*
X154010986Y-120509294D01*
X153784866Y-120694866D01*
X153760393Y-120724687D01*
X153739502Y-120655820D01*
X153680537Y-120545506D01*
X153601185Y-120448815D01*
X153587345Y-120437457D01*
X154552749Y-119472052D01*
X154622843Y-119603188D01*
X154795919Y-119814081D01*
X155006812Y-119987157D01*
X155247419Y-120115764D01*
X155508493Y-120194960D01*
X155711963Y-120215000D01*
X167001971Y-120215000D01*
X167070000Y-120221700D01*
X167138029Y-120215000D01*
X167138037Y-120215000D01*
X167341507Y-120194960D01*
X167602581Y-120115764D01*
X167843188Y-119987157D01*
X168054081Y-119814081D01*
X168097454Y-119761231D01*
X168773207Y-119085478D01*
X168761928Y-119200000D01*
X168765000Y-119614250D01*
X168923750Y-119773000D01*
X169848000Y-119773000D01*
X169848000Y-118723750D01*
X170102000Y-118723750D01*
X170102000Y-119773000D01*
X170122000Y-119773000D01*
X170122000Y-120027000D01*
X170102000Y-120027000D01*
X170102000Y-121076250D01*
X170260750Y-121235000D01*
X170550000Y-121238072D01*
X170674482Y-121225812D01*
X170794180Y-121189502D01*
X170904494Y-121130537D01*
X171001185Y-121051185D01*
X171066658Y-120971406D01*
X171072038Y-120977962D01*
X171206613Y-121088405D01*
X171360149Y-121170472D01*
X171526745Y-121221008D01*
X171699999Y-121238072D01*
X172350001Y-121238072D01*
X172523255Y-121221008D01*
X172689851Y-121170472D01*
X172843387Y-121088405D01*
X172977962Y-120977962D01*
X173088405Y-120843387D01*
X173170472Y-120689851D01*
X173221008Y-120523255D01*
X173238072Y-120350001D01*
X173238072Y-119449999D01*
X173221008Y-119276745D01*
X173170472Y-119110149D01*
X173088405Y-118956613D01*
X172977962Y-118822038D01*
X172843387Y-118711595D01*
X172689851Y-118629528D01*
X172523255Y-118578992D01*
X172350001Y-118561928D01*
X171699999Y-118561928D01*
X171526745Y-118578992D01*
X171360149Y-118629528D01*
X171206613Y-118711595D01*
X171072038Y-118822038D01*
X171066658Y-118828594D01*
X171001185Y-118748815D01*
X170904494Y-118669463D01*
X170794180Y-118610498D01*
X170674482Y-118574188D01*
X170550000Y-118561928D01*
X170260750Y-118565000D01*
X170102000Y-118723750D01*
X169848000Y-118723750D01*
X169689250Y-118565000D01*
X169400000Y-118561928D01*
X169285478Y-118573207D01*
X170573686Y-117285000D01*
X171131963Y-117285000D01*
X171200000Y-117291701D01*
X171268036Y-117285000D01*
X172618037Y-117285000D01*
X172821507Y-117264960D01*
X173082581Y-117185764D01*
X173229938Y-117107000D01*
X183543000Y-117107000D01*
X183543000Y-126720000D01*
X118688635Y-126720000D01*
X118723906Y-118948061D01*
X127115000Y-118948061D01*
X127115000Y-119151939D01*
X127154774Y-119351898D01*
X127232795Y-119540256D01*
X127346063Y-119709774D01*
X127390000Y-119753711D01*
X127390001Y-122096288D01*
X127386063Y-122100226D01*
X127272795Y-122269744D01*
X127194774Y-122458102D01*
X127155000Y-122658061D01*
X127155000Y-122861939D01*
X127194774Y-123061898D01*
X127272795Y-123250256D01*
X127386063Y-123419774D01*
X127530226Y-123563937D01*
X127699744Y-123677205D01*
X127888102Y-123755226D01*
X128088061Y-123795000D01*
X128291939Y-123795000D01*
X128491898Y-123755226D01*
X128680256Y-123677205D01*
X128849774Y-123563937D01*
X128993937Y-123419774D01*
X129107205Y-123250256D01*
X129185226Y-123061898D01*
X129225000Y-122861939D01*
X129225000Y-122658061D01*
X129185226Y-122458102D01*
X129107205Y-122269744D01*
X128993937Y-122100226D01*
X128910000Y-122016289D01*
X128910000Y-119753711D01*
X128953937Y-119709774D01*
X129067205Y-119540256D01*
X129145226Y-119351898D01*
X129185000Y-119151939D01*
X129185000Y-118948061D01*
X129145226Y-118748102D01*
X129067205Y-118559744D01*
X128953937Y-118390226D01*
X128809774Y-118246063D01*
X128640256Y-118132795D01*
X128451898Y-118054774D01*
X128251939Y-118015000D01*
X128048061Y-118015000D01*
X127848102Y-118054774D01*
X127659744Y-118132795D01*
X127490226Y-118246063D01*
X127346063Y-118390226D01*
X127232795Y-118559744D01*
X127154774Y-118748102D01*
X127115000Y-118948061D01*
X118723906Y-118948061D01*
X118744425Y-114427000D01*
X128270000Y-114427000D01*
X128294776Y-114424560D01*
X128318601Y-114417333D01*
X128340557Y-114405597D01*
X128359803Y-114389803D01*
X128375597Y-114370557D01*
X128387333Y-114348601D01*
X128394560Y-114324776D01*
X128397000Y-114300000D01*
X128397000Y-109925300D01*
X129759128Y-109925300D01*
X129759128Y-111525300D01*
X129771388Y-111649782D01*
X129807698Y-111769480D01*
X129866663Y-111879794D01*
X129946015Y-111976485D01*
X130042706Y-112055837D01*
X130153020Y-112114802D01*
X130272718Y-112151112D01*
X130397200Y-112163372D01*
X130440000Y-112163372D01*
X130440001Y-122066288D01*
X130406063Y-122100226D01*
X130292795Y-122269744D01*
X130214774Y-122458102D01*
X130175000Y-122658061D01*
X130175000Y-122861939D01*
X130214774Y-123061898D01*
X130292795Y-123250256D01*
X130406063Y-123419774D01*
X130550226Y-123563937D01*
X130719744Y-123677205D01*
X130908102Y-123755226D01*
X131108061Y-123795000D01*
X131311939Y-123795000D01*
X131511898Y-123755226D01*
X131700256Y-123677205D01*
X131869774Y-123563937D01*
X132013937Y-123419774D01*
X132127205Y-123250256D01*
X132205226Y-123061898D01*
X132245000Y-122861939D01*
X132245000Y-122658061D01*
X146105000Y-122658061D01*
X146105000Y-122861939D01*
X146144774Y-123061898D01*
X146222795Y-123250256D01*
X146336063Y-123419774D01*
X146480226Y-123563937D01*
X146649744Y-123677205D01*
X146838102Y-123755226D01*
X147038061Y-123795000D01*
X147241939Y-123795000D01*
X147441898Y-123755226D01*
X147630256Y-123677205D01*
X147799774Y-123563937D01*
X147943937Y-123419774D01*
X148057205Y-123250256D01*
X148135226Y-123061898D01*
X148175000Y-122861939D01*
X148175000Y-122658061D01*
X148135226Y-122458102D01*
X148057205Y-122269744D01*
X147943937Y-122100226D01*
X147910000Y-122066289D01*
X147910000Y-120283711D01*
X147953937Y-120239774D01*
X148067205Y-120070256D01*
X148145226Y-119881898D01*
X148185000Y-119681939D01*
X148185000Y-119478061D01*
X148145226Y-119278102D01*
X148067205Y-119089744D01*
X147953937Y-118920226D01*
X147809774Y-118776063D01*
X147640256Y-118662795D01*
X147451898Y-118584774D01*
X147251939Y-118545000D01*
X147048061Y-118545000D01*
X146848102Y-118584774D01*
X146659744Y-118662795D01*
X146490226Y-118776063D01*
X146346063Y-118920226D01*
X146232795Y-119089744D01*
X146154774Y-119278102D01*
X146115000Y-119478061D01*
X146115000Y-119681939D01*
X146154774Y-119881898D01*
X146232795Y-120070256D01*
X146346063Y-120239774D01*
X146390000Y-120283711D01*
X146390001Y-122046288D01*
X146336063Y-122100226D01*
X146222795Y-122269744D01*
X146144774Y-122458102D01*
X146105000Y-122658061D01*
X132245000Y-122658061D01*
X132205226Y-122458102D01*
X132127205Y-122269744D01*
X132013937Y-122100226D01*
X131960000Y-122046289D01*
X131960000Y-112163372D01*
X131997200Y-112163372D01*
X132121682Y-112151112D01*
X132241380Y-112114802D01*
X132351694Y-112055837D01*
X132448385Y-111976485D01*
X132527737Y-111879794D01*
X132586702Y-111769480D01*
X132623012Y-111649782D01*
X132624781Y-111631818D01*
X132717592Y-111744908D01*
X132936099Y-111924232D01*
X133185392Y-112057482D01*
X133455891Y-112139536D01*
X133666708Y-112160300D01*
X133807692Y-112160300D01*
X134018509Y-112139536D01*
X134289008Y-112057482D01*
X134538301Y-111924232D01*
X134756808Y-111744908D01*
X134936132Y-111526401D01*
X135007200Y-111393442D01*
X135078268Y-111526401D01*
X135257592Y-111744908D01*
X135476099Y-111924232D01*
X135725392Y-112057482D01*
X135995891Y-112139536D01*
X136206708Y-112160300D01*
X136347692Y-112160300D01*
X136558509Y-112139536D01*
X136829008Y-112057482D01*
X137078301Y-111924232D01*
X137296808Y-111744908D01*
X137476132Y-111526401D01*
X137549779Y-111388618D01*
X137664815Y-111580431D01*
X137853786Y-111788819D01*
X138079780Y-111956337D01*
X138334113Y-112076546D01*
X138468161Y-112117204D01*
X138690200Y-111995215D01*
X138690200Y-110852300D01*
X138670200Y-110852300D01*
X138670200Y-110598300D01*
X138690200Y-110598300D01*
X138690200Y-109455385D01*
X138468161Y-109333396D01*
X138334113Y-109374054D01*
X138079780Y-109494263D01*
X137853786Y-109661781D01*
X137664815Y-109870169D01*
X137549779Y-110061982D01*
X137476132Y-109924199D01*
X137296808Y-109705692D01*
X137078301Y-109526368D01*
X136829008Y-109393118D01*
X136558509Y-109311064D01*
X136347692Y-109290300D01*
X136206708Y-109290300D01*
X135995891Y-109311064D01*
X135725392Y-109393118D01*
X135476099Y-109526368D01*
X135257592Y-109705692D01*
X135078268Y-109924199D01*
X135007200Y-110057158D01*
X134936132Y-109924199D01*
X134756808Y-109705692D01*
X134538301Y-109526368D01*
X134289008Y-109393118D01*
X134018509Y-109311064D01*
X133807692Y-109290300D01*
X133666708Y-109290300D01*
X133455891Y-109311064D01*
X133185392Y-109393118D01*
X132936099Y-109526368D01*
X132717592Y-109705692D01*
X132624781Y-109818782D01*
X132623012Y-109800818D01*
X132586702Y-109681120D01*
X132527737Y-109570806D01*
X132448385Y-109474115D01*
X132351694Y-109394763D01*
X132241380Y-109335798D01*
X132121682Y-109299488D01*
X131997200Y-109287228D01*
X130397200Y-109287228D01*
X130272718Y-109299488D01*
X130153020Y-109335798D01*
X130042706Y-109394763D01*
X129946015Y-109474115D01*
X129866663Y-109570806D01*
X129807698Y-109681120D01*
X129771388Y-109800818D01*
X129759128Y-109925300D01*
X128397000Y-109925300D01*
X128397000Y-108585000D01*
X139827000Y-108585000D01*
X139827000Y-109712933D01*
X139827000Y-109712933D01*
G37*
X139827000Y-109712933D02*
X139780614Y-109661781D01*
X139554620Y-109494263D01*
X139300287Y-109374054D01*
X139166239Y-109333396D01*
X138944200Y-109455385D01*
X138944200Y-110598300D01*
X138964200Y-110598300D01*
X138964200Y-110852300D01*
X138944200Y-110852300D01*
X138944200Y-111995215D01*
X139166239Y-112117204D01*
X139300287Y-112076546D01*
X139554620Y-111956337D01*
X139780614Y-111788819D01*
X139827000Y-111737667D01*
X139827000Y-114554000D01*
X139829440Y-114578776D01*
X139836667Y-114602601D01*
X139848403Y-114624557D01*
X139864197Y-114643803D01*
X139883443Y-114659597D01*
X139905399Y-114671333D01*
X139929224Y-114678560D01*
X139954000Y-114681000D01*
X152892924Y-114681000D01*
X152854774Y-114773102D01*
X152815000Y-114973061D01*
X152815000Y-115176939D01*
X152854774Y-115376898D01*
X152932795Y-115565256D01*
X153046063Y-115734774D01*
X153190226Y-115878937D01*
X153359744Y-115992205D01*
X153548102Y-116070226D01*
X153748061Y-116110000D01*
X153951939Y-116110000D01*
X154151898Y-116070226D01*
X154340256Y-115992205D01*
X154509774Y-115878937D01*
X154653937Y-115734774D01*
X154767205Y-115565256D01*
X154791439Y-115506750D01*
X157145000Y-115506750D01*
X157156109Y-115608773D01*
X157194194Y-115727918D01*
X157254792Y-115837343D01*
X157335574Y-115932844D01*
X157433434Y-116010750D01*
X157544613Y-116068067D01*
X157664838Y-116102593D01*
X157789488Y-116113001D01*
X158244250Y-116110000D01*
X158403000Y-115951250D01*
X158403000Y-115348000D01*
X158657000Y-115348000D01*
X158657000Y-115951250D01*
X158815750Y-116110000D01*
X159270512Y-116113001D01*
X159395162Y-116102593D01*
X159515387Y-116068067D01*
X159626566Y-116010750D01*
X159724426Y-115932844D01*
X159805208Y-115837343D01*
X159865806Y-115727918D01*
X159903891Y-115608773D01*
X159915000Y-115506750D01*
X159756250Y-115348000D01*
X158657000Y-115348000D01*
X158403000Y-115348000D01*
X157303750Y-115348000D01*
X157145000Y-115506750D01*
X154791439Y-115506750D01*
X154838019Y-115394297D01*
X154875820Y-115414502D01*
X154995518Y-115450812D01*
X155120000Y-115463072D01*
X156620000Y-115463072D01*
X156744482Y-115450812D01*
X156864180Y-115414502D01*
X156974494Y-115355537D01*
X157071185Y-115276185D01*
X157150537Y-115179494D01*
X157209502Y-115069180D01*
X157212162Y-115060412D01*
X157303750Y-115152000D01*
X158403000Y-115152000D01*
X158403000Y-115103000D01*
X158657000Y-115103000D01*
X158657000Y-115152000D01*
X159756250Y-115152000D01*
X159915000Y-114993250D01*
X159903891Y-114891227D01*
X159865806Y-114772082D01*
X159815366Y-114681000D01*
X161794199Y-114681000D01*
X160185199Y-116290000D01*
X155937323Y-116290000D01*
X155900000Y-116286324D01*
X155862677Y-116290000D01*
X155862667Y-116290000D01*
X155751014Y-116300997D01*
X155607753Y-116344454D01*
X155475724Y-116415026D01*
X155359999Y-116509999D01*
X155336201Y-116538997D01*
X151789003Y-120086196D01*
X151759999Y-120109999D01*
X151704871Y-120177174D01*
X151665026Y-120225724D01*
X151645674Y-120261928D01*
X151450000Y-120261928D01*
X151325518Y-120274188D01*
X151205820Y-120310498D01*
X151095506Y-120369463D01*
X150998815Y-120448815D01*
X150919463Y-120545506D01*
X150860498Y-120655820D01*
X150824188Y-120775518D01*
X150811928Y-120900000D01*
X150811928Y-122600000D01*
X150824188Y-122724482D01*
X150860498Y-122844180D01*
X150919463Y-122954494D01*
X150998815Y-123051185D01*
X151095506Y-123130537D01*
X151205820Y-123189502D01*
X151325518Y-123225812D01*
X151450000Y-123238072D01*
X153150000Y-123238072D01*
X153274482Y-123225812D01*
X153394180Y-123189502D01*
X153504494Y-123130537D01*
X153601185Y-123051185D01*
X153680537Y-122954494D01*
X153739502Y-122844180D01*
X153760393Y-122775313D01*
X153784866Y-122805134D01*
X154010986Y-122990706D01*
X154249519Y-123118204D01*
X154912550Y-123781236D01*
X154955919Y-123834081D01*
X155008764Y-123877450D01*
X155008766Y-123877452D01*
X155036241Y-123900000D01*
X155166812Y-124007157D01*
X155234826Y-124043511D01*
X156122550Y-124931236D01*
X156165919Y-124984081D01*
X156218764Y-125027450D01*
X156218766Y-125027452D01*
X156254962Y-125057157D01*
X156376812Y-125157157D01*
X156617419Y-125285764D01*
X156878493Y-125364960D01*
X157081963Y-125385000D01*
X157081971Y-125385000D01*
X157150000Y-125391700D01*
X157218029Y-125385000D01*
X159318037Y-125385000D01*
X159521507Y-125364960D01*
X159782581Y-125285764D01*
X160023188Y-125157157D01*
X160203425Y-125009240D01*
X160261812Y-125057157D01*
X160502419Y-125185764D01*
X160763493Y-125264960D01*
X160966963Y-125285000D01*
X162431971Y-125285000D01*
X162500000Y-125291700D01*
X162568029Y-125285000D01*
X162568037Y-125285000D01*
X162771507Y-125264960D01*
X163032581Y-125185764D01*
X163273188Y-125057157D01*
X163484081Y-124884081D01*
X163527454Y-124831231D01*
X164273686Y-124085000D01*
X173518037Y-124085000D01*
X173721507Y-124064960D01*
X173982581Y-123985764D01*
X174223188Y-123857157D01*
X174434081Y-123684081D01*
X174607157Y-123473188D01*
X174735764Y-123232581D01*
X174814960Y-122971507D01*
X174841701Y-122700000D01*
X174814960Y-122428493D01*
X174735764Y-122167419D01*
X174607157Y-121926812D01*
X174434081Y-121715919D01*
X174223188Y-121542843D01*
X173982581Y-121414236D01*
X173721507Y-121335040D01*
X173518037Y-121315000D01*
X163768026Y-121315000D01*
X163699999Y-121308300D01*
X163631972Y-121315000D01*
X163631963Y-121315000D01*
X163428493Y-121335040D01*
X163167419Y-121414236D01*
X162926812Y-121542843D01*
X162926810Y-121542844D01*
X162926811Y-121542844D01*
X162768766Y-121672548D01*
X162768764Y-121672550D01*
X162715919Y-121715919D01*
X162672550Y-121768764D01*
X161926315Y-122515000D01*
X160966963Y-122515000D01*
X160763493Y-122535040D01*
X160502419Y-122614236D01*
X160261812Y-122742843D01*
X160081575Y-122890760D01*
X160023188Y-122842843D01*
X159782581Y-122714236D01*
X159521507Y-122635040D01*
X159318037Y-122615000D01*
X157723686Y-122615000D01*
X157027454Y-121918769D01*
X156984081Y-121865919D01*
X156773188Y-121692843D01*
X156705175Y-121656489D01*
X156208204Y-121159519D01*
X156080706Y-120920986D01*
X155895134Y-120694866D01*
X155779540Y-120600000D01*
X168761928Y-120600000D01*
X168774188Y-120724482D01*
X168810498Y-120844180D01*
X168869463Y-120954494D01*
X168948815Y-121051185D01*
X169045506Y-121130537D01*
X169155820Y-121189502D01*
X169275518Y-121225812D01*
X169400000Y-121238072D01*
X169689250Y-121235000D01*
X169848000Y-121076250D01*
X169848000Y-120027000D01*
X168923750Y-120027000D01*
X168765000Y-120185750D01*
X168761928Y-120600000D01*
X155779540Y-120600000D01*
X155669014Y-120509294D01*
X155411034Y-120371401D01*
X155131111Y-120286487D01*
X154912950Y-120265000D01*
X154767050Y-120265000D01*
X154548889Y-120286487D01*
X154268966Y-120371401D01*
X154010986Y-120509294D01*
X153784866Y-120694866D01*
X153760393Y-120724687D01*
X153739502Y-120655820D01*
X153680537Y-120545506D01*
X153601185Y-120448815D01*
X153587345Y-120437457D01*
X154552749Y-119472052D01*
X154622843Y-119603188D01*
X154795919Y-119814081D01*
X155006812Y-119987157D01*
X155247419Y-120115764D01*
X155508493Y-120194960D01*
X155711963Y-120215000D01*
X167001971Y-120215000D01*
X167070000Y-120221700D01*
X167138029Y-120215000D01*
X167138037Y-120215000D01*
X167341507Y-120194960D01*
X167602581Y-120115764D01*
X167843188Y-119987157D01*
X168054081Y-119814081D01*
X168097454Y-119761231D01*
X168773207Y-119085478D01*
X168761928Y-119200000D01*
X168765000Y-119614250D01*
X168923750Y-119773000D01*
X169848000Y-119773000D01*
X169848000Y-118723750D01*
X170102000Y-118723750D01*
X170102000Y-119773000D01*
X170122000Y-119773000D01*
X170122000Y-120027000D01*
X170102000Y-120027000D01*
X170102000Y-121076250D01*
X170260750Y-121235000D01*
X170550000Y-121238072D01*
X170674482Y-121225812D01*
X170794180Y-121189502D01*
X170904494Y-121130537D01*
X171001185Y-121051185D01*
X171066658Y-120971406D01*
X171072038Y-120977962D01*
X171206613Y-121088405D01*
X171360149Y-121170472D01*
X171526745Y-121221008D01*
X171699999Y-121238072D01*
X172350001Y-121238072D01*
X172523255Y-121221008D01*
X172689851Y-121170472D01*
X172843387Y-121088405D01*
X172977962Y-120977962D01*
X173088405Y-120843387D01*
X173170472Y-120689851D01*
X173221008Y-120523255D01*
X173238072Y-120350001D01*
X173238072Y-119449999D01*
X173221008Y-119276745D01*
X173170472Y-119110149D01*
X173088405Y-118956613D01*
X172977962Y-118822038D01*
X172843387Y-118711595D01*
X172689851Y-118629528D01*
X172523255Y-118578992D01*
X172350001Y-118561928D01*
X171699999Y-118561928D01*
X171526745Y-118578992D01*
X171360149Y-118629528D01*
X171206613Y-118711595D01*
X171072038Y-118822038D01*
X171066658Y-118828594D01*
X171001185Y-118748815D01*
X170904494Y-118669463D01*
X170794180Y-118610498D01*
X170674482Y-118574188D01*
X170550000Y-118561928D01*
X170260750Y-118565000D01*
X170102000Y-118723750D01*
X169848000Y-118723750D01*
X169689250Y-118565000D01*
X169400000Y-118561928D01*
X169285478Y-118573207D01*
X170573686Y-117285000D01*
X171131963Y-117285000D01*
X171200000Y-117291701D01*
X171268036Y-117285000D01*
X172618037Y-117285000D01*
X172821507Y-117264960D01*
X173082581Y-117185764D01*
X173229938Y-117107000D01*
X183543000Y-117107000D01*
X183543000Y-126720000D01*
X118688635Y-126720000D01*
X118723906Y-118948061D01*
X127115000Y-118948061D01*
X127115000Y-119151939D01*
X127154774Y-119351898D01*
X127232795Y-119540256D01*
X127346063Y-119709774D01*
X127390000Y-119753711D01*
X127390001Y-122096288D01*
X127386063Y-122100226D01*
X127272795Y-122269744D01*
X127194774Y-122458102D01*
X127155000Y-122658061D01*
X127155000Y-122861939D01*
X127194774Y-123061898D01*
X127272795Y-123250256D01*
X127386063Y-123419774D01*
X127530226Y-123563937D01*
X127699744Y-123677205D01*
X127888102Y-123755226D01*
X128088061Y-123795000D01*
X128291939Y-123795000D01*
X128491898Y-123755226D01*
X128680256Y-123677205D01*
X128849774Y-123563937D01*
X128993937Y-123419774D01*
X129107205Y-123250256D01*
X129185226Y-123061898D01*
X129225000Y-122861939D01*
X129225000Y-122658061D01*
X129185226Y-122458102D01*
X129107205Y-122269744D01*
X128993937Y-122100226D01*
X128910000Y-122016289D01*
X128910000Y-119753711D01*
X128953937Y-119709774D01*
X129067205Y-119540256D01*
X129145226Y-119351898D01*
X129185000Y-119151939D01*
X129185000Y-118948061D01*
X129145226Y-118748102D01*
X129067205Y-118559744D01*
X128953937Y-118390226D01*
X128809774Y-118246063D01*
X128640256Y-118132795D01*
X128451898Y-118054774D01*
X128251939Y-118015000D01*
X128048061Y-118015000D01*
X127848102Y-118054774D01*
X127659744Y-118132795D01*
X127490226Y-118246063D01*
X127346063Y-118390226D01*
X127232795Y-118559744D01*
X127154774Y-118748102D01*
X127115000Y-118948061D01*
X118723906Y-118948061D01*
X118744425Y-114427000D01*
X128270000Y-114427000D01*
X128294776Y-114424560D01*
X128318601Y-114417333D01*
X128340557Y-114405597D01*
X128359803Y-114389803D01*
X128375597Y-114370557D01*
X128387333Y-114348601D01*
X128394560Y-114324776D01*
X128397000Y-114300000D01*
X128397000Y-109925300D01*
X129759128Y-109925300D01*
X129759128Y-111525300D01*
X129771388Y-111649782D01*
X129807698Y-111769480D01*
X129866663Y-111879794D01*
X129946015Y-111976485D01*
X130042706Y-112055837D01*
X130153020Y-112114802D01*
X130272718Y-112151112D01*
X130397200Y-112163372D01*
X130440000Y-112163372D01*
X130440001Y-122066288D01*
X130406063Y-122100226D01*
X130292795Y-122269744D01*
X130214774Y-122458102D01*
X130175000Y-122658061D01*
X130175000Y-122861939D01*
X130214774Y-123061898D01*
X130292795Y-123250256D01*
X130406063Y-123419774D01*
X130550226Y-123563937D01*
X130719744Y-123677205D01*
X130908102Y-123755226D01*
X131108061Y-123795000D01*
X131311939Y-123795000D01*
X131511898Y-123755226D01*
X131700256Y-123677205D01*
X131869774Y-123563937D01*
X132013937Y-123419774D01*
X132127205Y-123250256D01*
X132205226Y-123061898D01*
X132245000Y-122861939D01*
X132245000Y-122658061D01*
X146105000Y-122658061D01*
X146105000Y-122861939D01*
X146144774Y-123061898D01*
X146222795Y-123250256D01*
X146336063Y-123419774D01*
X146480226Y-123563937D01*
X146649744Y-123677205D01*
X146838102Y-123755226D01*
X147038061Y-123795000D01*
X147241939Y-123795000D01*
X147441898Y-123755226D01*
X147630256Y-123677205D01*
X147799774Y-123563937D01*
X147943937Y-123419774D01*
X148057205Y-123250256D01*
X148135226Y-123061898D01*
X148175000Y-122861939D01*
X148175000Y-122658061D01*
X148135226Y-122458102D01*
X148057205Y-122269744D01*
X147943937Y-122100226D01*
X147910000Y-122066289D01*
X147910000Y-120283711D01*
X147953937Y-120239774D01*
X148067205Y-120070256D01*
X148145226Y-119881898D01*
X148185000Y-119681939D01*
X148185000Y-119478061D01*
X148145226Y-119278102D01*
X148067205Y-119089744D01*
X147953937Y-118920226D01*
X147809774Y-118776063D01*
X147640256Y-118662795D01*
X147451898Y-118584774D01*
X147251939Y-118545000D01*
X147048061Y-118545000D01*
X146848102Y-118584774D01*
X146659744Y-118662795D01*
X146490226Y-118776063D01*
X146346063Y-118920226D01*
X146232795Y-119089744D01*
X146154774Y-119278102D01*
X146115000Y-119478061D01*
X146115000Y-119681939D01*
X146154774Y-119881898D01*
X146232795Y-120070256D01*
X146346063Y-120239774D01*
X146390000Y-120283711D01*
X146390001Y-122046288D01*
X146336063Y-122100226D01*
X146222795Y-122269744D01*
X146144774Y-122458102D01*
X146105000Y-122658061D01*
X132245000Y-122658061D01*
X132205226Y-122458102D01*
X132127205Y-122269744D01*
X132013937Y-122100226D01*
X131960000Y-122046289D01*
X131960000Y-112163372D01*
X131997200Y-112163372D01*
X132121682Y-112151112D01*
X132241380Y-112114802D01*
X132351694Y-112055837D01*
X132448385Y-111976485D01*
X132527737Y-111879794D01*
X132586702Y-111769480D01*
X132623012Y-111649782D01*
X132624781Y-111631818D01*
X132717592Y-111744908D01*
X132936099Y-111924232D01*
X133185392Y-112057482D01*
X133455891Y-112139536D01*
X133666708Y-112160300D01*
X133807692Y-112160300D01*
X134018509Y-112139536D01*
X134289008Y-112057482D01*
X134538301Y-111924232D01*
X134756808Y-111744908D01*
X134936132Y-111526401D01*
X135007200Y-111393442D01*
X135078268Y-111526401D01*
X135257592Y-111744908D01*
X135476099Y-111924232D01*
X135725392Y-112057482D01*
X135995891Y-112139536D01*
X136206708Y-112160300D01*
X136347692Y-112160300D01*
X136558509Y-112139536D01*
X136829008Y-112057482D01*
X137078301Y-111924232D01*
X137296808Y-111744908D01*
X137476132Y-111526401D01*
X137549779Y-111388618D01*
X137664815Y-111580431D01*
X137853786Y-111788819D01*
X138079780Y-111956337D01*
X138334113Y-112076546D01*
X138468161Y-112117204D01*
X138690200Y-111995215D01*
X138690200Y-110852300D01*
X138670200Y-110852300D01*
X138670200Y-110598300D01*
X138690200Y-110598300D01*
X138690200Y-109455385D01*
X138468161Y-109333396D01*
X138334113Y-109374054D01*
X138079780Y-109494263D01*
X137853786Y-109661781D01*
X137664815Y-109870169D01*
X137549779Y-110061982D01*
X137476132Y-109924199D01*
X137296808Y-109705692D01*
X137078301Y-109526368D01*
X136829008Y-109393118D01*
X136558509Y-109311064D01*
X136347692Y-109290300D01*
X136206708Y-109290300D01*
X135995891Y-109311064D01*
X135725392Y-109393118D01*
X135476099Y-109526368D01*
X135257592Y-109705692D01*
X135078268Y-109924199D01*
X135007200Y-110057158D01*
X134936132Y-109924199D01*
X134756808Y-109705692D01*
X134538301Y-109526368D01*
X134289008Y-109393118D01*
X134018509Y-109311064D01*
X133807692Y-109290300D01*
X133666708Y-109290300D01*
X133455891Y-109311064D01*
X133185392Y-109393118D01*
X132936099Y-109526368D01*
X132717592Y-109705692D01*
X132624781Y-109818782D01*
X132623012Y-109800818D01*
X132586702Y-109681120D01*
X132527737Y-109570806D01*
X132448385Y-109474115D01*
X132351694Y-109394763D01*
X132241380Y-109335798D01*
X132121682Y-109299488D01*
X131997200Y-109287228D01*
X130397200Y-109287228D01*
X130272718Y-109299488D01*
X130153020Y-109335798D01*
X130042706Y-109394763D01*
X129946015Y-109474115D01*
X129866663Y-109570806D01*
X129807698Y-109681120D01*
X129771388Y-109800818D01*
X129759128Y-109925300D01*
X128397000Y-109925300D01*
X128397000Y-108585000D01*
X139827000Y-108585000D01*
X139827000Y-109712933D01*
G36*
X123090000Y-96517024D02*
G01*
X123006613Y-96561595D01*
X122872038Y-96672038D01*
X122800000Y-96759816D01*
X122727962Y-96672038D01*
X122593387Y-96561595D01*
X122439851Y-96479528D01*
X122273255Y-96428992D01*
X122100001Y-96411928D01*
X121449999Y-96411928D01*
X121276745Y-96428992D01*
X121110149Y-96479528D01*
X120956613Y-96561595D01*
X120822038Y-96672038D01*
X120711595Y-96806613D01*
X120629528Y-96960149D01*
X120578992Y-97126745D01*
X120561928Y-97299999D01*
X120561928Y-98200001D01*
X120578992Y-98373255D01*
X120629528Y-98539851D01*
X120711595Y-98693387D01*
X120822038Y-98827962D01*
X120956613Y-98938405D01*
X120978306Y-98950000D01*
X120956613Y-98961595D01*
X120822038Y-99072038D01*
X120711595Y-99206613D01*
X120629528Y-99360149D01*
X120578992Y-99526745D01*
X120561928Y-99699999D01*
X120561928Y-100600001D01*
X120578992Y-100773255D01*
X120629528Y-100939851D01*
X120711595Y-101093387D01*
X120822038Y-101227962D01*
X120956613Y-101338405D01*
X121110149Y-101420472D01*
X121276745Y-101471008D01*
X121449999Y-101488072D01*
X122100001Y-101488072D01*
X122273255Y-101471008D01*
X122439851Y-101420472D01*
X122593387Y-101338405D01*
X122727962Y-101227962D01*
X122800000Y-101140184D01*
X122872038Y-101227962D01*
X123006613Y-101338405D01*
X123160149Y-101420472D01*
X123326745Y-101471008D01*
X123499999Y-101488072D01*
X124150001Y-101488072D01*
X124323255Y-101471008D01*
X124489851Y-101420472D01*
X124643387Y-101338405D01*
X124777962Y-101227962D01*
X124888405Y-101093387D01*
X124970472Y-100939851D01*
X125021008Y-100773255D01*
X125038072Y-100600001D01*
X125038072Y-99699999D01*
X125021008Y-99526745D01*
X124970472Y-99360149D01*
X124888405Y-99206613D01*
X124777962Y-99072038D01*
X124643387Y-98961595D01*
X124621694Y-98950000D01*
X124643387Y-98938405D01*
X124777962Y-98827962D01*
X124888405Y-98693387D01*
X124970472Y-98539851D01*
X125021008Y-98373255D01*
X125038072Y-98200001D01*
X125038072Y-97299999D01*
X125021008Y-97126745D01*
X124970472Y-96960149D01*
X124888405Y-96806613D01*
X124777962Y-96672038D01*
X124643387Y-96561595D01*
X124610000Y-96543749D01*
X124610000Y-93627000D01*
X133669190Y-93627000D01*
X133665000Y-93648063D01*
X133665000Y-93851941D01*
X133704774Y-94051900D01*
X133782795Y-94240258D01*
X133896063Y-94409776D01*
X133990001Y-94503714D01*
X133990000Y-98196289D01*
X133946063Y-98240226D01*
X133832795Y-98409744D01*
X133754774Y-98598102D01*
X133715000Y-98798061D01*
X133715000Y-99001939D01*
X133754774Y-99201898D01*
X133832795Y-99390256D01*
X133946063Y-99559774D01*
X134090226Y-99703937D01*
X134259744Y-99817205D01*
X134448102Y-99895226D01*
X134648061Y-99935000D01*
X134851939Y-99935000D01*
X135051898Y-99895226D01*
X135240256Y-99817205D01*
X135409774Y-99703937D01*
X135553937Y-99559774D01*
X135667205Y-99390256D01*
X135745226Y-99201898D01*
X135785000Y-99001939D01*
X135785000Y-98798061D01*
X135745226Y-98598102D01*
X135667205Y-98409744D01*
X135553937Y-98240226D01*
X135510000Y-98196289D01*
X135510000Y-94400702D01*
X135617205Y-94240258D01*
X135695226Y-94051900D01*
X135735000Y-93851941D01*
X135735000Y-93648063D01*
X135730810Y-93627000D01*
X140265000Y-93627000D01*
X140265000Y-93751939D01*
X140304774Y-93951898D01*
X140382795Y-94140256D01*
X140496063Y-94309774D01*
X140640226Y-94453937D01*
X140809744Y-94567205D01*
X140998102Y-94645226D01*
X141198061Y-94685000D01*
X141401939Y-94685000D01*
X141601898Y-94645226D01*
X141790256Y-94567205D01*
X141959774Y-94453937D01*
X142003711Y-94410000D01*
X143212679Y-94410000D01*
X143250001Y-94413676D01*
X143287323Y-94410000D01*
X143287334Y-94410000D01*
X143398987Y-94399003D01*
X143542248Y-94355546D01*
X143674277Y-94284974D01*
X143790002Y-94190001D01*
X143813804Y-94160998D01*
X144214801Y-93760002D01*
X144896289Y-93760002D01*
X144940226Y-93803939D01*
X145109744Y-93917207D01*
X145179215Y-93945983D01*
X144160199Y-94965000D01*
X144098061Y-94965000D01*
X143898102Y-95004774D01*
X143709744Y-95082795D01*
X143540226Y-95196063D01*
X143396063Y-95340226D01*
X143282795Y-95509744D01*
X143204774Y-95698102D01*
X143165000Y-95898061D01*
X143165000Y-96101939D01*
X143204774Y-96301898D01*
X143282795Y-96490256D01*
X143318644Y-96543908D01*
X143254774Y-96698102D01*
X143215000Y-96898061D01*
X143215000Y-97101939D01*
X143254774Y-97301898D01*
X143332795Y-97490256D01*
X143446063Y-97659774D01*
X143590226Y-97803937D01*
X143759744Y-97917205D01*
X143948102Y-97995226D01*
X144148061Y-98035000D01*
X144351939Y-98035000D01*
X144551898Y-97995226D01*
X144740256Y-97917205D01*
X144909774Y-97803937D01*
X145026791Y-97686920D01*
X145184591Y-97792358D01*
X145372949Y-97870379D01*
X145572908Y-97910153D01*
X145776786Y-97910153D01*
X145976745Y-97870379D01*
X146165103Y-97792358D01*
X146334621Y-97679090D01*
X146478784Y-97534927D01*
X146592052Y-97365409D01*
X146670073Y-97177051D01*
X146709847Y-96977092D01*
X146709847Y-96947654D01*
X148034903Y-95622599D01*
X148762279Y-95622599D01*
X148799601Y-95626275D01*
X148836923Y-95622599D01*
X148836934Y-95622599D01*
X148854310Y-95620888D01*
X146010199Y-98465000D01*
X145948061Y-98465000D01*
X145748102Y-98504774D01*
X145559744Y-98582795D01*
X145390226Y-98696063D01*
X145246063Y-98840226D01*
X145132795Y-99009744D01*
X145054774Y-99198102D01*
X145015000Y-99398061D01*
X145015000Y-99601939D01*
X145054774Y-99801898D01*
X145132795Y-99990256D01*
X145246063Y-100159774D01*
X145390226Y-100303937D01*
X145559744Y-100417205D01*
X145748102Y-100495226D01*
X145948061Y-100535000D01*
X146151939Y-100535000D01*
X146351898Y-100495226D01*
X146540256Y-100417205D01*
X146709774Y-100303937D01*
X146853937Y-100159774D01*
X146967205Y-99990256D01*
X147045226Y-99801898D01*
X147085000Y-99601939D01*
X147085000Y-99539801D01*
X151161009Y-95463794D01*
X151190001Y-95440001D01*
X151213795Y-95411008D01*
X151213799Y-95411004D01*
X151284973Y-95324277D01*
X151284974Y-95324276D01*
X151355546Y-95192247D01*
X151399003Y-95048986D01*
X151410000Y-94937333D01*
X151410000Y-94937324D01*
X151413676Y-94900001D01*
X151410000Y-94862678D01*
X151410000Y-93627000D01*
X160790001Y-93627000D01*
X160790001Y-96482851D01*
X160640256Y-96382795D01*
X160451898Y-96304774D01*
X160251939Y-96265000D01*
X160239802Y-96265000D01*
X158685000Y-94710199D01*
X158685000Y-94648061D01*
X158645226Y-94448102D01*
X158567205Y-94259744D01*
X158453937Y-94090226D01*
X158309774Y-93946063D01*
X158140256Y-93832795D01*
X157951898Y-93754774D01*
X157751939Y-93715000D01*
X157548061Y-93715000D01*
X157348102Y-93754774D01*
X157159744Y-93832795D01*
X156990226Y-93946063D01*
X156846063Y-94090226D01*
X156732795Y-94259744D01*
X156654774Y-94448102D01*
X156615000Y-94648061D01*
X156615000Y-94851939D01*
X156654774Y-95051898D01*
X156732795Y-95240256D01*
X156846063Y-95409774D01*
X156990226Y-95553937D01*
X157159744Y-95667205D01*
X157348102Y-95745226D01*
X157548061Y-95785000D01*
X157610199Y-95785000D01*
X159115000Y-97289802D01*
X159115000Y-97401939D01*
X159154774Y-97601898D01*
X159232795Y-97790256D01*
X159346063Y-97959774D01*
X159490226Y-98103937D01*
X159659744Y-98217205D01*
X159848102Y-98295226D01*
X160048061Y-98335000D01*
X160251939Y-98335000D01*
X160451898Y-98295226D01*
X160640256Y-98217205D01*
X160790000Y-98117149D01*
X160790000Y-101685198D01*
X160135199Y-102340000D01*
X158888072Y-102340000D01*
X158888072Y-100950000D01*
X158875812Y-100825518D01*
X158839502Y-100705820D01*
X158780537Y-100595506D01*
X158701185Y-100498815D01*
X158604494Y-100419463D01*
X158494180Y-100360498D01*
X158374482Y-100324188D01*
X158250000Y-100311928D01*
X156550000Y-100311928D01*
X156425518Y-100324188D01*
X156305820Y-100360498D01*
X156195506Y-100419463D01*
X156098815Y-100498815D01*
X156019463Y-100595506D01*
X155960498Y-100705820D01*
X155924188Y-100825518D01*
X155911928Y-100950000D01*
X155911928Y-101040000D01*
X155888072Y-101040000D01*
X155888072Y-100649999D01*
X155871008Y-100476745D01*
X155820472Y-100310149D01*
X155738405Y-100156613D01*
X155627962Y-100022038D01*
X155493387Y-99911595D01*
X155339851Y-99829528D01*
X155173255Y-99778992D01*
X155000001Y-99761928D01*
X154451783Y-99761928D01*
X154553937Y-99659774D01*
X154667205Y-99490256D01*
X154745226Y-99301898D01*
X154785000Y-99101939D01*
X154785000Y-98898061D01*
X154745226Y-98698102D01*
X154667205Y-98509744D01*
X154553937Y-98340226D01*
X154409774Y-98196063D01*
X154240256Y-98082795D01*
X154051898Y-98004774D01*
X153851939Y-97965000D01*
X153648061Y-97965000D01*
X153448102Y-98004774D01*
X153259744Y-98082795D01*
X153161890Y-98148179D01*
X153159774Y-98146063D01*
X152990256Y-98032795D01*
X152985000Y-98030618D01*
X152985000Y-97948061D01*
X152945226Y-97748102D01*
X152867205Y-97559744D01*
X152753937Y-97390226D01*
X152609774Y-97246063D01*
X152440256Y-97132795D01*
X152251898Y-97054774D01*
X152051939Y-97015000D01*
X151848061Y-97015000D01*
X151648102Y-97054774D01*
X151459744Y-97132795D01*
X151290226Y-97246063D01*
X151146063Y-97390226D01*
X151032795Y-97559744D01*
X150954774Y-97748102D01*
X150915000Y-97948061D01*
X150915000Y-98010198D01*
X147085199Y-101840000D01*
X143503711Y-101840000D01*
X143459774Y-101796063D01*
X143290256Y-101682795D01*
X143101898Y-101604774D01*
X142901939Y-101565000D01*
X142698061Y-101565000D01*
X142498102Y-101604774D01*
X142309744Y-101682795D01*
X142140226Y-101796063D01*
X141996063Y-101940226D01*
X141882795Y-102109744D01*
X141804774Y-102298102D01*
X141765000Y-102498061D01*
X141765000Y-102701939D01*
X141804774Y-102901898D01*
X141882795Y-103090256D01*
X141936060Y-103169973D01*
X141918822Y-103195771D01*
X141840801Y-103384129D01*
X141801027Y-103584088D01*
X141801027Y-103787966D01*
X141840801Y-103987925D01*
X141913591Y-104163654D01*
X141882795Y-104209744D01*
X141804774Y-104398102D01*
X141765000Y-104598061D01*
X141765000Y-104801939D01*
X141804774Y-105001898D01*
X141882795Y-105190256D01*
X141996063Y-105359774D01*
X142140226Y-105503937D01*
X142309744Y-105617205D01*
X142498102Y-105695226D01*
X142698061Y-105735000D01*
X142901939Y-105735000D01*
X143101898Y-105695226D01*
X143290256Y-105617205D01*
X143299196Y-105611232D01*
X143302192Y-105641655D01*
X143352728Y-105808251D01*
X143434795Y-105961787D01*
X143545238Y-106096362D01*
X143633016Y-106168400D01*
X143545238Y-106240438D01*
X143434795Y-106375013D01*
X143352728Y-106528549D01*
X143302192Y-106695145D01*
X143285128Y-106868399D01*
X143285128Y-107518401D01*
X143302192Y-107691655D01*
X143352728Y-107858251D01*
X143434795Y-108011787D01*
X143545238Y-108146362D01*
X143679813Y-108256805D01*
X143833349Y-108338872D01*
X143999945Y-108389408D01*
X144173199Y-108406472D01*
X145073201Y-108406472D01*
X145246455Y-108389408D01*
X145413051Y-108338872D01*
X145566587Y-108256805D01*
X145701162Y-108146362D01*
X145811605Y-108011787D01*
X145893672Y-107858251D01*
X145944208Y-107691655D01*
X145961272Y-107518401D01*
X145961272Y-106868399D01*
X145944208Y-106695145D01*
X145893672Y-106528549D01*
X145811605Y-106375013D01*
X145701162Y-106240438D01*
X145613384Y-106168400D01*
X145701162Y-106096362D01*
X145811605Y-105961787D01*
X145893672Y-105808251D01*
X145944208Y-105641655D01*
X145961272Y-105468401D01*
X145961272Y-104818399D01*
X145944208Y-104645145D01*
X145893672Y-104478549D01*
X145811605Y-104325013D01*
X145758267Y-104260020D01*
X146688133Y-104260020D01*
X146634795Y-104325013D01*
X146552728Y-104478549D01*
X146502192Y-104645145D01*
X146485128Y-104818399D01*
X146485128Y-105468401D01*
X146502192Y-105641655D01*
X146552728Y-105808251D01*
X146634795Y-105961787D01*
X146745238Y-106096362D01*
X146833016Y-106168400D01*
X146745238Y-106240438D01*
X146634795Y-106375013D01*
X146552728Y-106528549D01*
X146502192Y-106695145D01*
X146485128Y-106868399D01*
X146485128Y-107518401D01*
X146502192Y-107691655D01*
X146552728Y-107858251D01*
X146634795Y-108011787D01*
X146745238Y-108146362D01*
X146879813Y-108256805D01*
X147033349Y-108338872D01*
X147199945Y-108389408D01*
X147373199Y-108406472D01*
X148273201Y-108406472D01*
X148446455Y-108389408D01*
X148613051Y-108338872D01*
X148766587Y-108256805D01*
X148901162Y-108146362D01*
X149011605Y-108011787D01*
X149093672Y-107858251D01*
X149144208Y-107691655D01*
X149161272Y-107518401D01*
X149161272Y-106868399D01*
X149144208Y-106695145D01*
X149093672Y-106528549D01*
X149011605Y-106375013D01*
X148901162Y-106240438D01*
X148813384Y-106168400D01*
X148901162Y-106096362D01*
X149011605Y-105961787D01*
X149093672Y-105808251D01*
X149144208Y-105641655D01*
X149161272Y-105468401D01*
X149161272Y-104818399D01*
X149144208Y-104645145D01*
X149093672Y-104478549D01*
X149011605Y-104325013D01*
X148958267Y-104260020D01*
X149212658Y-104260020D01*
X149249980Y-104263696D01*
X149287302Y-104260020D01*
X149287313Y-104260020D01*
X149398966Y-104249023D01*
X149542227Y-104205566D01*
X149674256Y-104134994D01*
X149789981Y-104040021D01*
X149813784Y-104011017D01*
X153215984Y-100608818D01*
X153211928Y-100649999D01*
X153211928Y-101300001D01*
X153228992Y-101473255D01*
X153279528Y-101639851D01*
X153361595Y-101793387D01*
X153472038Y-101927962D01*
X153559816Y-102000000D01*
X153472038Y-102072038D01*
X153361595Y-102206613D01*
X153279528Y-102360149D01*
X153228992Y-102526745D01*
X153211928Y-102699999D01*
X153211928Y-103350001D01*
X153228992Y-103523255D01*
X153279528Y-103689851D01*
X153361595Y-103843387D01*
X153387539Y-103875000D01*
X153361595Y-103906613D01*
X153279528Y-104060149D01*
X153228992Y-104226745D01*
X153211928Y-104399999D01*
X153211928Y-105050001D01*
X153228992Y-105223255D01*
X153279528Y-105389851D01*
X153361595Y-105543387D01*
X153472038Y-105677962D01*
X153559816Y-105750000D01*
X153472038Y-105822038D01*
X153361595Y-105956613D01*
X153279528Y-106110149D01*
X153228992Y-106276745D01*
X153211928Y-106449999D01*
X153211928Y-107100001D01*
X153228992Y-107273255D01*
X153279528Y-107439851D01*
X153361595Y-107593387D01*
X153472038Y-107727962D01*
X153606613Y-107838405D01*
X153760149Y-107920472D01*
X153926745Y-107971008D01*
X154099999Y-107988072D01*
X155000001Y-107988072D01*
X155173255Y-107971008D01*
X155339851Y-107920472D01*
X155493387Y-107838405D01*
X155627962Y-107727962D01*
X155738405Y-107593387D01*
X155820472Y-107439851D01*
X155871008Y-107273255D01*
X155888072Y-107100001D01*
X155888072Y-106461729D01*
X156012939Y-106336863D01*
X155936487Y-106588889D01*
X155907815Y-106880000D01*
X155936487Y-107171111D01*
X156021401Y-107451034D01*
X156159294Y-107709014D01*
X156344866Y-107935134D01*
X156570986Y-108120706D01*
X156625791Y-108150000D01*
X156570986Y-108179294D01*
X156344866Y-108364866D01*
X156159294Y-108590986D01*
X156021401Y-108848966D01*
X155936487Y-109128889D01*
X155907815Y-109420000D01*
X155936487Y-109711111D01*
X156021401Y-109991034D01*
X156159294Y-110249014D01*
X156344866Y-110475134D01*
X156570986Y-110660706D01*
X156828966Y-110798599D01*
X157108889Y-110883513D01*
X157327050Y-110905000D01*
X157472950Y-110905000D01*
X157691111Y-110883513D01*
X157971034Y-110798599D01*
X158229014Y-110660706D01*
X158455134Y-110475134D01*
X158640706Y-110249014D01*
X158778599Y-109991034D01*
X158863513Y-109711111D01*
X158892185Y-109420000D01*
X158863513Y-109128889D01*
X158778599Y-108848966D01*
X158640706Y-108590986D01*
X158455134Y-108364866D01*
X158229014Y-108179294D01*
X158174209Y-108150000D01*
X158229014Y-108120706D01*
X158455134Y-107935134D01*
X158640706Y-107709014D01*
X158778599Y-107451034D01*
X158863513Y-107171111D01*
X158892185Y-106880000D01*
X158863513Y-106588889D01*
X158778599Y-106308966D01*
X158640706Y-106050986D01*
X158455134Y-105824866D01*
X158229014Y-105639294D01*
X158174209Y-105610000D01*
X158229014Y-105580706D01*
X158455134Y-105395134D01*
X158640706Y-105169014D01*
X158778599Y-104911034D01*
X158863513Y-104631111D01*
X158892185Y-104340000D01*
X158863513Y-104048889D01*
X158806214Y-103860000D01*
X160412678Y-103860000D01*
X160450000Y-103863676D01*
X160487322Y-103860000D01*
X160487333Y-103860000D01*
X160598986Y-103849003D01*
X160742247Y-103805546D01*
X160807564Y-103770633D01*
X160835788Y-103863676D01*
X160844454Y-103892246D01*
X160915026Y-104024276D01*
X160948469Y-104065026D01*
X161009999Y-104140001D01*
X161039003Y-104163804D01*
X162261928Y-105386730D01*
X162261928Y-106000001D01*
X162278992Y-106173255D01*
X162329528Y-106339851D01*
X162411595Y-106493387D01*
X162522038Y-106627962D01*
X162656613Y-106738405D01*
X162715902Y-106770096D01*
X157605299Y-111880700D01*
X157543161Y-111880700D01*
X157343202Y-111920474D01*
X157154844Y-111998495D01*
X156985326Y-112111763D01*
X156841163Y-112255926D01*
X156727895Y-112425444D01*
X156649874Y-112613802D01*
X156610100Y-112813761D01*
X156610100Y-113017639D01*
X156649874Y-113217598D01*
X156727895Y-113405956D01*
X156729336Y-113408112D01*
X150536875Y-113412150D01*
X150538072Y-113400000D01*
X150535000Y-113110750D01*
X150376250Y-112952000D01*
X149327000Y-112952000D01*
X149327000Y-112972000D01*
X149073000Y-112972000D01*
X149073000Y-112952000D01*
X147327000Y-112952000D01*
X147327000Y-112972000D01*
X147073000Y-112972000D01*
X147073000Y-112952000D01*
X145327000Y-112952000D01*
X145327000Y-112972000D01*
X145073000Y-112972000D01*
X145073000Y-112952000D01*
X143327000Y-112952000D01*
X143327000Y-112972000D01*
X143073000Y-112972000D01*
X143073000Y-112952000D01*
X142023750Y-112952000D01*
X141865000Y-113110750D01*
X141861928Y-113400000D01*
X141863682Y-113417805D01*
X140919200Y-113418421D01*
X140919200Y-110449999D01*
X141861928Y-110449999D01*
X141861928Y-111100001D01*
X141878992Y-111273255D01*
X141929528Y-111439851D01*
X142011595Y-111593387D01*
X142122038Y-111727962D01*
X142128594Y-111733342D01*
X142048815Y-111798815D01*
X141969463Y-111895506D01*
X141910498Y-112005820D01*
X141874188Y-112125518D01*
X141861928Y-112250000D01*
X141865000Y-112539250D01*
X142023750Y-112698000D01*
X143073000Y-112698000D01*
X143073000Y-112678000D01*
X143327000Y-112678000D01*
X143327000Y-112698000D01*
X145073000Y-112698000D01*
X145073000Y-112678000D01*
X145327000Y-112678000D01*
X145327000Y-112698000D01*
X147073000Y-112698000D01*
X147073000Y-112678000D01*
X147327000Y-112678000D01*
X147327000Y-112698000D01*
X149073000Y-112698000D01*
X149073000Y-112678000D01*
X149327000Y-112678000D01*
X149327000Y-112698000D01*
X150376250Y-112698000D01*
X150535000Y-112539250D01*
X150538072Y-112250000D01*
X150525812Y-112125518D01*
X150489502Y-112005820D01*
X150430537Y-111895506D01*
X150351185Y-111798815D01*
X150271406Y-111733342D01*
X150277962Y-111727962D01*
X150388405Y-111593387D01*
X150470472Y-111439851D01*
X150521008Y-111273255D01*
X150538072Y-111100001D01*
X150538072Y-110449999D01*
X150521008Y-110276745D01*
X150470472Y-110110149D01*
X150388405Y-109956613D01*
X150277962Y-109822038D01*
X150143387Y-109711595D01*
X149989851Y-109629528D01*
X149823255Y-109578992D01*
X149650001Y-109561928D01*
X148749999Y-109561928D01*
X148576745Y-109578992D01*
X148410149Y-109629528D01*
X148256613Y-109711595D01*
X148200000Y-109758056D01*
X148143387Y-109711595D01*
X147989851Y-109629528D01*
X147823255Y-109578992D01*
X147650001Y-109561928D01*
X146749999Y-109561928D01*
X146576745Y-109578992D01*
X146410149Y-109629528D01*
X146256613Y-109711595D01*
X146200000Y-109758056D01*
X146143387Y-109711595D01*
X145989851Y-109629528D01*
X145823255Y-109578992D01*
X145650001Y-109561928D01*
X144749999Y-109561928D01*
X144576745Y-109578992D01*
X144410149Y-109629528D01*
X144256613Y-109711595D01*
X144200000Y-109758056D01*
X144143387Y-109711595D01*
X143989851Y-109629528D01*
X143823255Y-109578992D01*
X143650001Y-109561928D01*
X142749999Y-109561928D01*
X142576745Y-109578992D01*
X142410149Y-109629528D01*
X142256613Y-109711595D01*
X142122038Y-109822038D01*
X142011595Y-109956613D01*
X141929528Y-110110149D01*
X141878992Y-110276745D01*
X141861928Y-110449999D01*
X140919200Y-110449999D01*
X140919200Y-107543600D01*
X140916760Y-107518824D01*
X140909533Y-107494999D01*
X140897797Y-107473043D01*
X140882003Y-107453797D01*
X140862757Y-107438003D01*
X140840801Y-107426267D01*
X140816976Y-107419040D01*
X140792200Y-107416600D01*
X127304800Y-107416600D01*
X127280024Y-107419040D01*
X127256199Y-107426267D01*
X127234243Y-107438003D01*
X127214997Y-107453797D01*
X127199203Y-107473043D01*
X127187467Y-107494999D01*
X127180240Y-107518824D01*
X127177800Y-107543600D01*
X127177800Y-113427381D01*
X124935231Y-113428843D01*
X124938072Y-113400001D01*
X124938072Y-112499999D01*
X124921008Y-112326745D01*
X124870472Y-112160149D01*
X124788405Y-112006613D01*
X124762461Y-111975000D01*
X124788405Y-111943387D01*
X124870472Y-111789851D01*
X124921008Y-111623255D01*
X124938072Y-111450001D01*
X124938072Y-110549999D01*
X124921008Y-110376745D01*
X124870472Y-110210149D01*
X124788405Y-110056613D01*
X124762461Y-110025000D01*
X124788405Y-109993387D01*
X124870472Y-109839851D01*
X124921008Y-109673255D01*
X124938072Y-109500001D01*
X124938072Y-108599999D01*
X124921008Y-108426745D01*
X124870472Y-108260149D01*
X124788405Y-108106613D01*
X124762461Y-108075000D01*
X124788405Y-108043387D01*
X124870472Y-107889851D01*
X124921008Y-107723255D01*
X124938072Y-107550001D01*
X124938072Y-106649999D01*
X124921008Y-106476745D01*
X124870472Y-106310149D01*
X124788405Y-106156613D01*
X124762461Y-106125000D01*
X124788405Y-106093387D01*
X124870472Y-105939851D01*
X124921008Y-105773255D01*
X124938072Y-105600001D01*
X124938072Y-104699999D01*
X124921008Y-104526745D01*
X124870472Y-104360149D01*
X124788405Y-104206613D01*
X124762461Y-104175000D01*
X124788405Y-104143387D01*
X124870472Y-103989851D01*
X124921008Y-103823255D01*
X124938072Y-103650001D01*
X124938072Y-103105300D01*
X129755257Y-103105300D01*
X129782964Y-103386609D01*
X129865018Y-103657108D01*
X129998268Y-103906401D01*
X130177592Y-104124908D01*
X130396099Y-104304232D01*
X130645392Y-104437482D01*
X130915891Y-104519536D01*
X131126708Y-104540300D01*
X131267692Y-104540300D01*
X131478509Y-104519536D01*
X131749008Y-104437482D01*
X131998301Y-104304232D01*
X132216808Y-104124908D01*
X132396132Y-103906401D01*
X132467200Y-103773442D01*
X132538268Y-103906401D01*
X132717592Y-104124908D01*
X132936099Y-104304232D01*
X133185392Y-104437482D01*
X133455891Y-104519536D01*
X133666708Y-104540300D01*
X133807692Y-104540300D01*
X134018509Y-104519536D01*
X134289008Y-104437482D01*
X134538301Y-104304232D01*
X134756808Y-104124908D01*
X134936132Y-103906401D01*
X135007200Y-103773442D01*
X135078268Y-103906401D01*
X135257592Y-104124908D01*
X135476099Y-104304232D01*
X135725392Y-104437482D01*
X135995891Y-104519536D01*
X136206708Y-104540300D01*
X136347692Y-104540300D01*
X136558509Y-104519536D01*
X136829008Y-104437482D01*
X137078301Y-104304232D01*
X137296808Y-104124908D01*
X137476132Y-103906401D01*
X137549779Y-103768618D01*
X137664815Y-103960431D01*
X137853786Y-104168819D01*
X138079780Y-104336337D01*
X138334113Y-104456546D01*
X138468161Y-104497204D01*
X138690200Y-104375215D01*
X138690200Y-103232300D01*
X138944200Y-103232300D01*
X138944200Y-104375215D01*
X139166239Y-104497204D01*
X139300287Y-104456546D01*
X139554620Y-104336337D01*
X139780614Y-104168819D01*
X139969585Y-103960431D01*
X140114270Y-103719181D01*
X140209109Y-103454340D01*
X140087824Y-103232300D01*
X138944200Y-103232300D01*
X138690200Y-103232300D01*
X138670200Y-103232300D01*
X138670200Y-102978300D01*
X138690200Y-102978300D01*
X138690200Y-101835385D01*
X138944200Y-101835385D01*
X138944200Y-102978300D01*
X140087824Y-102978300D01*
X140209109Y-102756260D01*
X140114270Y-102491419D01*
X139969585Y-102250169D01*
X139780614Y-102041781D01*
X139554620Y-101874263D01*
X139300287Y-101754054D01*
X139166239Y-101713396D01*
X138944200Y-101835385D01*
X138690200Y-101835385D01*
X138468161Y-101713396D01*
X138334113Y-101754054D01*
X138079780Y-101874263D01*
X137853786Y-102041781D01*
X137664815Y-102250169D01*
X137549779Y-102441982D01*
X137476132Y-102304199D01*
X137296808Y-102085692D01*
X137078301Y-101906368D01*
X136829008Y-101773118D01*
X136558509Y-101691064D01*
X136347692Y-101670300D01*
X136206708Y-101670300D01*
X135995891Y-101691064D01*
X135725392Y-101773118D01*
X135476099Y-101906368D01*
X135257592Y-102085692D01*
X135078268Y-102304199D01*
X135007200Y-102437158D01*
X134936132Y-102304199D01*
X134756808Y-102085692D01*
X134538301Y-101906368D01*
X134289008Y-101773118D01*
X134018509Y-101691064D01*
X133807692Y-101670300D01*
X133666708Y-101670300D01*
X133455891Y-101691064D01*
X133185392Y-101773118D01*
X132936099Y-101906368D01*
X132717592Y-102085692D01*
X132538268Y-102304199D01*
X132467200Y-102437158D01*
X132396132Y-102304199D01*
X132216808Y-102085692D01*
X131998301Y-101906368D01*
X131749008Y-101773118D01*
X131478509Y-101691064D01*
X131267692Y-101670300D01*
X131126708Y-101670300D01*
X130915891Y-101691064D01*
X130645392Y-101773118D01*
X130396099Y-101906368D01*
X130177592Y-102085692D01*
X129998268Y-102304199D01*
X129865018Y-102553492D01*
X129782964Y-102823991D01*
X129755257Y-103105300D01*
X124938072Y-103105300D01*
X124938072Y-102749999D01*
X124921008Y-102576745D01*
X124870472Y-102410149D01*
X124788405Y-102256613D01*
X124677962Y-102122038D01*
X124543387Y-102011595D01*
X124389851Y-101929528D01*
X124223255Y-101878992D01*
X124050001Y-101861928D01*
X123399999Y-101861928D01*
X123226745Y-101878992D01*
X123060149Y-101929528D01*
X122906613Y-102011595D01*
X122772038Y-102122038D01*
X122700000Y-102209816D01*
X122627962Y-102122038D01*
X122493387Y-102011595D01*
X122339851Y-101929528D01*
X122173255Y-101878992D01*
X122000001Y-101861928D01*
X121349999Y-101861928D01*
X121176745Y-101878992D01*
X121010149Y-101929528D01*
X120856613Y-102011595D01*
X120722038Y-102122038D01*
X120611595Y-102256613D01*
X120529528Y-102410149D01*
X120478992Y-102576745D01*
X120461928Y-102749999D01*
X120461928Y-103650001D01*
X120478992Y-103823255D01*
X120529528Y-103989851D01*
X120611595Y-104143387D01*
X120637539Y-104175000D01*
X120611595Y-104206613D01*
X120529528Y-104360149D01*
X120478992Y-104526745D01*
X120461928Y-104699999D01*
X120461928Y-105600001D01*
X120478992Y-105773255D01*
X120529528Y-105939851D01*
X120611595Y-106093387D01*
X120637539Y-106125000D01*
X120611595Y-106156613D01*
X120529528Y-106310149D01*
X120478992Y-106476745D01*
X120461928Y-106649999D01*
X120461928Y-107550001D01*
X120478992Y-107723255D01*
X120529528Y-107889851D01*
X120611595Y-108043387D01*
X120637539Y-108075000D01*
X120611595Y-108106613D01*
X120529528Y-108260149D01*
X120478992Y-108426745D01*
X120461928Y-108599999D01*
X120461928Y-109500001D01*
X120478992Y-109673255D01*
X120529528Y-109839851D01*
X120611595Y-109993387D01*
X120637539Y-110025000D01*
X120611595Y-110056613D01*
X120529528Y-110210149D01*
X120478992Y-110376745D01*
X120461928Y-110549999D01*
X120461928Y-111450001D01*
X120478992Y-111623255D01*
X120529528Y-111789851D01*
X120611595Y-111943387D01*
X120637539Y-111975000D01*
X120611595Y-112006613D01*
X120529528Y-112160149D01*
X120478992Y-112326745D01*
X120461928Y-112499999D01*
X120461928Y-113400001D01*
X120465056Y-113431758D01*
X118686620Y-113432917D01*
X118627380Y-93627000D01*
X123090001Y-93627000D01*
X123090000Y-96517024D01*
X123090000Y-96517024D01*
G37*
X123090000Y-96517024D02*
X123006613Y-96561595D01*
X122872038Y-96672038D01*
X122800000Y-96759816D01*
X122727962Y-96672038D01*
X122593387Y-96561595D01*
X122439851Y-96479528D01*
X122273255Y-96428992D01*
X122100001Y-96411928D01*
X121449999Y-96411928D01*
X121276745Y-96428992D01*
X121110149Y-96479528D01*
X120956613Y-96561595D01*
X120822038Y-96672038D01*
X120711595Y-96806613D01*
X120629528Y-96960149D01*
X120578992Y-97126745D01*
X120561928Y-97299999D01*
X120561928Y-98200001D01*
X120578992Y-98373255D01*
X120629528Y-98539851D01*
X120711595Y-98693387D01*
X120822038Y-98827962D01*
X120956613Y-98938405D01*
X120978306Y-98950000D01*
X120956613Y-98961595D01*
X120822038Y-99072038D01*
X120711595Y-99206613D01*
X120629528Y-99360149D01*
X120578992Y-99526745D01*
X120561928Y-99699999D01*
X120561928Y-100600001D01*
X120578992Y-100773255D01*
X120629528Y-100939851D01*
X120711595Y-101093387D01*
X120822038Y-101227962D01*
X120956613Y-101338405D01*
X121110149Y-101420472D01*
X121276745Y-101471008D01*
X121449999Y-101488072D01*
X122100001Y-101488072D01*
X122273255Y-101471008D01*
X122439851Y-101420472D01*
X122593387Y-101338405D01*
X122727962Y-101227962D01*
X122800000Y-101140184D01*
X122872038Y-101227962D01*
X123006613Y-101338405D01*
X123160149Y-101420472D01*
X123326745Y-101471008D01*
X123499999Y-101488072D01*
X124150001Y-101488072D01*
X124323255Y-101471008D01*
X124489851Y-101420472D01*
X124643387Y-101338405D01*
X124777962Y-101227962D01*
X124888405Y-101093387D01*
X124970472Y-100939851D01*
X125021008Y-100773255D01*
X125038072Y-100600001D01*
X125038072Y-99699999D01*
X125021008Y-99526745D01*
X124970472Y-99360149D01*
X124888405Y-99206613D01*
X124777962Y-99072038D01*
X124643387Y-98961595D01*
X124621694Y-98950000D01*
X124643387Y-98938405D01*
X124777962Y-98827962D01*
X124888405Y-98693387D01*
X124970472Y-98539851D01*
X125021008Y-98373255D01*
X125038072Y-98200001D01*
X125038072Y-97299999D01*
X125021008Y-97126745D01*
X124970472Y-96960149D01*
X124888405Y-96806613D01*
X124777962Y-96672038D01*
X124643387Y-96561595D01*
X124610000Y-96543749D01*
X124610000Y-93627000D01*
X133669190Y-93627000D01*
X133665000Y-93648063D01*
X133665000Y-93851941D01*
X133704774Y-94051900D01*
X133782795Y-94240258D01*
X133896063Y-94409776D01*
X133990001Y-94503714D01*
X133990000Y-98196289D01*
X133946063Y-98240226D01*
X133832795Y-98409744D01*
X133754774Y-98598102D01*
X133715000Y-98798061D01*
X133715000Y-99001939D01*
X133754774Y-99201898D01*
X133832795Y-99390256D01*
X133946063Y-99559774D01*
X134090226Y-99703937D01*
X134259744Y-99817205D01*
X134448102Y-99895226D01*
X134648061Y-99935000D01*
X134851939Y-99935000D01*
X135051898Y-99895226D01*
X135240256Y-99817205D01*
X135409774Y-99703937D01*
X135553937Y-99559774D01*
X135667205Y-99390256D01*
X135745226Y-99201898D01*
X135785000Y-99001939D01*
X135785000Y-98798061D01*
X135745226Y-98598102D01*
X135667205Y-98409744D01*
X135553937Y-98240226D01*
X135510000Y-98196289D01*
X135510000Y-94400702D01*
X135617205Y-94240258D01*
X135695226Y-94051900D01*
X135735000Y-93851941D01*
X135735000Y-93648063D01*
X135730810Y-93627000D01*
X140265000Y-93627000D01*
X140265000Y-93751939D01*
X140304774Y-93951898D01*
X140382795Y-94140256D01*
X140496063Y-94309774D01*
X140640226Y-94453937D01*
X140809744Y-94567205D01*
X140998102Y-94645226D01*
X141198061Y-94685000D01*
X141401939Y-94685000D01*
X141601898Y-94645226D01*
X141790256Y-94567205D01*
X141959774Y-94453937D01*
X142003711Y-94410000D01*
X143212679Y-94410000D01*
X143250001Y-94413676D01*
X143287323Y-94410000D01*
X143287334Y-94410000D01*
X143398987Y-94399003D01*
X143542248Y-94355546D01*
X143674277Y-94284974D01*
X143790002Y-94190001D01*
X143813804Y-94160998D01*
X144214801Y-93760002D01*
X144896289Y-93760002D01*
X144940226Y-93803939D01*
X145109744Y-93917207D01*
X145179215Y-93945983D01*
X144160199Y-94965000D01*
X144098061Y-94965000D01*
X143898102Y-95004774D01*
X143709744Y-95082795D01*
X143540226Y-95196063D01*
X143396063Y-95340226D01*
X143282795Y-95509744D01*
X143204774Y-95698102D01*
X143165000Y-95898061D01*
X143165000Y-96101939D01*
X143204774Y-96301898D01*
X143282795Y-96490256D01*
X143318644Y-96543908D01*
X143254774Y-96698102D01*
X143215000Y-96898061D01*
X143215000Y-97101939D01*
X143254774Y-97301898D01*
X143332795Y-97490256D01*
X143446063Y-97659774D01*
X143590226Y-97803937D01*
X143759744Y-97917205D01*
X143948102Y-97995226D01*
X144148061Y-98035000D01*
X144351939Y-98035000D01*
X144551898Y-97995226D01*
X144740256Y-97917205D01*
X144909774Y-97803937D01*
X145026791Y-97686920D01*
X145184591Y-97792358D01*
X145372949Y-97870379D01*
X145572908Y-97910153D01*
X145776786Y-97910153D01*
X145976745Y-97870379D01*
X146165103Y-97792358D01*
X146334621Y-97679090D01*
X146478784Y-97534927D01*
X146592052Y-97365409D01*
X146670073Y-97177051D01*
X146709847Y-96977092D01*
X146709847Y-96947654D01*
X148034903Y-95622599D01*
X148762279Y-95622599D01*
X148799601Y-95626275D01*
X148836923Y-95622599D01*
X148836934Y-95622599D01*
X148854310Y-95620888D01*
X146010199Y-98465000D01*
X145948061Y-98465000D01*
X145748102Y-98504774D01*
X145559744Y-98582795D01*
X145390226Y-98696063D01*
X145246063Y-98840226D01*
X145132795Y-99009744D01*
X145054774Y-99198102D01*
X145015000Y-99398061D01*
X145015000Y-99601939D01*
X145054774Y-99801898D01*
X145132795Y-99990256D01*
X145246063Y-100159774D01*
X145390226Y-100303937D01*
X145559744Y-100417205D01*
X145748102Y-100495226D01*
X145948061Y-100535000D01*
X146151939Y-100535000D01*
X146351898Y-100495226D01*
X146540256Y-100417205D01*
X146709774Y-100303937D01*
X146853937Y-100159774D01*
X146967205Y-99990256D01*
X147045226Y-99801898D01*
X147085000Y-99601939D01*
X147085000Y-99539801D01*
X151161009Y-95463794D01*
X151190001Y-95440001D01*
X151213795Y-95411008D01*
X151213799Y-95411004D01*
X151284973Y-95324277D01*
X151284974Y-95324276D01*
X151355546Y-95192247D01*
X151399003Y-95048986D01*
X151410000Y-94937333D01*
X151410000Y-94937324D01*
X151413676Y-94900001D01*
X151410000Y-94862678D01*
X151410000Y-93627000D01*
X160790001Y-93627000D01*
X160790001Y-96482851D01*
X160640256Y-96382795D01*
X160451898Y-96304774D01*
X160251939Y-96265000D01*
X160239802Y-96265000D01*
X158685000Y-94710199D01*
X158685000Y-94648061D01*
X158645226Y-94448102D01*
X158567205Y-94259744D01*
X158453937Y-94090226D01*
X158309774Y-93946063D01*
X158140256Y-93832795D01*
X157951898Y-93754774D01*
X157751939Y-93715000D01*
X157548061Y-93715000D01*
X157348102Y-93754774D01*
X157159744Y-93832795D01*
X156990226Y-93946063D01*
X156846063Y-94090226D01*
X156732795Y-94259744D01*
X156654774Y-94448102D01*
X156615000Y-94648061D01*
X156615000Y-94851939D01*
X156654774Y-95051898D01*
X156732795Y-95240256D01*
X156846063Y-95409774D01*
X156990226Y-95553937D01*
X157159744Y-95667205D01*
X157348102Y-95745226D01*
X157548061Y-95785000D01*
X157610199Y-95785000D01*
X159115000Y-97289802D01*
X159115000Y-97401939D01*
X159154774Y-97601898D01*
X159232795Y-97790256D01*
X159346063Y-97959774D01*
X159490226Y-98103937D01*
X159659744Y-98217205D01*
X159848102Y-98295226D01*
X160048061Y-98335000D01*
X160251939Y-98335000D01*
X160451898Y-98295226D01*
X160640256Y-98217205D01*
X160790000Y-98117149D01*
X160790000Y-101685198D01*
X160135199Y-102340000D01*
X158888072Y-102340000D01*
X158888072Y-100950000D01*
X158875812Y-100825518D01*
X158839502Y-100705820D01*
X158780537Y-100595506D01*
X158701185Y-100498815D01*
X158604494Y-100419463D01*
X158494180Y-100360498D01*
X158374482Y-100324188D01*
X158250000Y-100311928D01*
X156550000Y-100311928D01*
X156425518Y-100324188D01*
X156305820Y-100360498D01*
X156195506Y-100419463D01*
X156098815Y-100498815D01*
X156019463Y-100595506D01*
X155960498Y-100705820D01*
X155924188Y-100825518D01*
X155911928Y-100950000D01*
X155911928Y-101040000D01*
X155888072Y-101040000D01*
X155888072Y-100649999D01*
X155871008Y-100476745D01*
X155820472Y-100310149D01*
X155738405Y-100156613D01*
X155627962Y-100022038D01*
X155493387Y-99911595D01*
X155339851Y-99829528D01*
X155173255Y-99778992D01*
X155000001Y-99761928D01*
X154451783Y-99761928D01*
X154553937Y-99659774D01*
X154667205Y-99490256D01*
X154745226Y-99301898D01*
X154785000Y-99101939D01*
X154785000Y-98898061D01*
X154745226Y-98698102D01*
X154667205Y-98509744D01*
X154553937Y-98340226D01*
X154409774Y-98196063D01*
X154240256Y-98082795D01*
X154051898Y-98004774D01*
X153851939Y-97965000D01*
X153648061Y-97965000D01*
X153448102Y-98004774D01*
X153259744Y-98082795D01*
X153161890Y-98148179D01*
X153159774Y-98146063D01*
X152990256Y-98032795D01*
X152985000Y-98030618D01*
X152985000Y-97948061D01*
X152945226Y-97748102D01*
X152867205Y-97559744D01*
X152753937Y-97390226D01*
X152609774Y-97246063D01*
X152440256Y-97132795D01*
X152251898Y-97054774D01*
X152051939Y-97015000D01*
X151848061Y-97015000D01*
X151648102Y-97054774D01*
X151459744Y-97132795D01*
X151290226Y-97246063D01*
X151146063Y-97390226D01*
X151032795Y-97559744D01*
X150954774Y-97748102D01*
X150915000Y-97948061D01*
X150915000Y-98010198D01*
X147085199Y-101840000D01*
X143503711Y-101840000D01*
X143459774Y-101796063D01*
X143290256Y-101682795D01*
X143101898Y-101604774D01*
X142901939Y-101565000D01*
X142698061Y-101565000D01*
X142498102Y-101604774D01*
X142309744Y-101682795D01*
X142140226Y-101796063D01*
X141996063Y-101940226D01*
X141882795Y-102109744D01*
X141804774Y-102298102D01*
X141765000Y-102498061D01*
X141765000Y-102701939D01*
X141804774Y-102901898D01*
X141882795Y-103090256D01*
X141936060Y-103169973D01*
X141918822Y-103195771D01*
X141840801Y-103384129D01*
X141801027Y-103584088D01*
X141801027Y-103787966D01*
X141840801Y-103987925D01*
X141913591Y-104163654D01*
X141882795Y-104209744D01*
X141804774Y-104398102D01*
X141765000Y-104598061D01*
X141765000Y-104801939D01*
X141804774Y-105001898D01*
X141882795Y-105190256D01*
X141996063Y-105359774D01*
X142140226Y-105503937D01*
X142309744Y-105617205D01*
X142498102Y-105695226D01*
X142698061Y-105735000D01*
X142901939Y-105735000D01*
X143101898Y-105695226D01*
X143290256Y-105617205D01*
X143299196Y-105611232D01*
X143302192Y-105641655D01*
X143352728Y-105808251D01*
X143434795Y-105961787D01*
X143545238Y-106096362D01*
X143633016Y-106168400D01*
X143545238Y-106240438D01*
X143434795Y-106375013D01*
X143352728Y-106528549D01*
X143302192Y-106695145D01*
X143285128Y-106868399D01*
X143285128Y-107518401D01*
X143302192Y-107691655D01*
X143352728Y-107858251D01*
X143434795Y-108011787D01*
X143545238Y-108146362D01*
X143679813Y-108256805D01*
X143833349Y-108338872D01*
X143999945Y-108389408D01*
X144173199Y-108406472D01*
X145073201Y-108406472D01*
X145246455Y-108389408D01*
X145413051Y-108338872D01*
X145566587Y-108256805D01*
X145701162Y-108146362D01*
X145811605Y-108011787D01*
X145893672Y-107858251D01*
X145944208Y-107691655D01*
X145961272Y-107518401D01*
X145961272Y-106868399D01*
X145944208Y-106695145D01*
X145893672Y-106528549D01*
X145811605Y-106375013D01*
X145701162Y-106240438D01*
X145613384Y-106168400D01*
X145701162Y-106096362D01*
X145811605Y-105961787D01*
X145893672Y-105808251D01*
X145944208Y-105641655D01*
X145961272Y-105468401D01*
X145961272Y-104818399D01*
X145944208Y-104645145D01*
X145893672Y-104478549D01*
X145811605Y-104325013D01*
X145758267Y-104260020D01*
X146688133Y-104260020D01*
X146634795Y-104325013D01*
X146552728Y-104478549D01*
X146502192Y-104645145D01*
X146485128Y-104818399D01*
X146485128Y-105468401D01*
X146502192Y-105641655D01*
X146552728Y-105808251D01*
X146634795Y-105961787D01*
X146745238Y-106096362D01*
X146833016Y-106168400D01*
X146745238Y-106240438D01*
X146634795Y-106375013D01*
X146552728Y-106528549D01*
X146502192Y-106695145D01*
X146485128Y-106868399D01*
X146485128Y-107518401D01*
X146502192Y-107691655D01*
X146552728Y-107858251D01*
X146634795Y-108011787D01*
X146745238Y-108146362D01*
X146879813Y-108256805D01*
X147033349Y-108338872D01*
X147199945Y-108389408D01*
X147373199Y-108406472D01*
X148273201Y-108406472D01*
X148446455Y-108389408D01*
X148613051Y-108338872D01*
X148766587Y-108256805D01*
X148901162Y-108146362D01*
X149011605Y-108011787D01*
X149093672Y-107858251D01*
X149144208Y-107691655D01*
X149161272Y-107518401D01*
X149161272Y-106868399D01*
X149144208Y-106695145D01*
X149093672Y-106528549D01*
X149011605Y-106375013D01*
X148901162Y-106240438D01*
X148813384Y-106168400D01*
X148901162Y-106096362D01*
X149011605Y-105961787D01*
X149093672Y-105808251D01*
X149144208Y-105641655D01*
X149161272Y-105468401D01*
X149161272Y-104818399D01*
X149144208Y-104645145D01*
X149093672Y-104478549D01*
X149011605Y-104325013D01*
X148958267Y-104260020D01*
X149212658Y-104260020D01*
X149249980Y-104263696D01*
X149287302Y-104260020D01*
X149287313Y-104260020D01*
X149398966Y-104249023D01*
X149542227Y-104205566D01*
X149674256Y-104134994D01*
X149789981Y-104040021D01*
X149813784Y-104011017D01*
X153215984Y-100608818D01*
X153211928Y-100649999D01*
X153211928Y-101300001D01*
X153228992Y-101473255D01*
X153279528Y-101639851D01*
X153361595Y-101793387D01*
X153472038Y-101927962D01*
X153559816Y-102000000D01*
X153472038Y-102072038D01*
X153361595Y-102206613D01*
X153279528Y-102360149D01*
X153228992Y-102526745D01*
X153211928Y-102699999D01*
X153211928Y-103350001D01*
X153228992Y-103523255D01*
X153279528Y-103689851D01*
X153361595Y-103843387D01*
X153387539Y-103875000D01*
X153361595Y-103906613D01*
X153279528Y-104060149D01*
X153228992Y-104226745D01*
X153211928Y-104399999D01*
X153211928Y-105050001D01*
X153228992Y-105223255D01*
X153279528Y-105389851D01*
X153361595Y-105543387D01*
X153472038Y-105677962D01*
X153559816Y-105750000D01*
X153472038Y-105822038D01*
X153361595Y-105956613D01*
X153279528Y-106110149D01*
X153228992Y-106276745D01*
X153211928Y-106449999D01*
X153211928Y-107100001D01*
X153228992Y-107273255D01*
X153279528Y-107439851D01*
X153361595Y-107593387D01*
X153472038Y-107727962D01*
X153606613Y-107838405D01*
X153760149Y-107920472D01*
X153926745Y-107971008D01*
X154099999Y-107988072D01*
X155000001Y-107988072D01*
X155173255Y-107971008D01*
X155339851Y-107920472D01*
X155493387Y-107838405D01*
X155627962Y-107727962D01*
X155738405Y-107593387D01*
X155820472Y-107439851D01*
X155871008Y-107273255D01*
X155888072Y-107100001D01*
X155888072Y-106461729D01*
X156012939Y-106336863D01*
X155936487Y-106588889D01*
X155907815Y-106880000D01*
X155936487Y-107171111D01*
X156021401Y-107451034D01*
X156159294Y-107709014D01*
X156344866Y-107935134D01*
X156570986Y-108120706D01*
X156625791Y-108150000D01*
X156570986Y-108179294D01*
X156344866Y-108364866D01*
X156159294Y-108590986D01*
X156021401Y-108848966D01*
X155936487Y-109128889D01*
X155907815Y-109420000D01*
X155936487Y-109711111D01*
X156021401Y-109991034D01*
X156159294Y-110249014D01*
X156344866Y-110475134D01*
X156570986Y-110660706D01*
X156828966Y-110798599D01*
X157108889Y-110883513D01*
X157327050Y-110905000D01*
X157472950Y-110905000D01*
X157691111Y-110883513D01*
X157971034Y-110798599D01*
X158229014Y-110660706D01*
X158455134Y-110475134D01*
X158640706Y-110249014D01*
X158778599Y-109991034D01*
X158863513Y-109711111D01*
X158892185Y-109420000D01*
X158863513Y-109128889D01*
X158778599Y-108848966D01*
X158640706Y-108590986D01*
X158455134Y-108364866D01*
X158229014Y-108179294D01*
X158174209Y-108150000D01*
X158229014Y-108120706D01*
X158455134Y-107935134D01*
X158640706Y-107709014D01*
X158778599Y-107451034D01*
X158863513Y-107171111D01*
X158892185Y-106880000D01*
X158863513Y-106588889D01*
X158778599Y-106308966D01*
X158640706Y-106050986D01*
X158455134Y-105824866D01*
X158229014Y-105639294D01*
X158174209Y-105610000D01*
X158229014Y-105580706D01*
X158455134Y-105395134D01*
X158640706Y-105169014D01*
X158778599Y-104911034D01*
X158863513Y-104631111D01*
X158892185Y-104340000D01*
X158863513Y-104048889D01*
X158806214Y-103860000D01*
X160412678Y-103860000D01*
X160450000Y-103863676D01*
X160487322Y-103860000D01*
X160487333Y-103860000D01*
X160598986Y-103849003D01*
X160742247Y-103805546D01*
X160807564Y-103770633D01*
X160835788Y-103863676D01*
X160844454Y-103892246D01*
X160915026Y-104024276D01*
X160948469Y-104065026D01*
X161009999Y-104140001D01*
X161039003Y-104163804D01*
X162261928Y-105386730D01*
X162261928Y-106000001D01*
X162278992Y-106173255D01*
X162329528Y-106339851D01*
X162411595Y-106493387D01*
X162522038Y-106627962D01*
X162656613Y-106738405D01*
X162715902Y-106770096D01*
X157605299Y-111880700D01*
X157543161Y-111880700D01*
X157343202Y-111920474D01*
X157154844Y-111998495D01*
X156985326Y-112111763D01*
X156841163Y-112255926D01*
X156727895Y-112425444D01*
X156649874Y-112613802D01*
X156610100Y-112813761D01*
X156610100Y-113017639D01*
X156649874Y-113217598D01*
X156727895Y-113405956D01*
X156729336Y-113408112D01*
X150536875Y-113412150D01*
X150538072Y-113400000D01*
X150535000Y-113110750D01*
X150376250Y-112952000D01*
X149327000Y-112952000D01*
X149327000Y-112972000D01*
X149073000Y-112972000D01*
X149073000Y-112952000D01*
X147327000Y-112952000D01*
X147327000Y-112972000D01*
X147073000Y-112972000D01*
X147073000Y-112952000D01*
X145327000Y-112952000D01*
X145327000Y-112972000D01*
X145073000Y-112972000D01*
X145073000Y-112952000D01*
X143327000Y-112952000D01*
X143327000Y-112972000D01*
X143073000Y-112972000D01*
X143073000Y-112952000D01*
X142023750Y-112952000D01*
X141865000Y-113110750D01*
X141861928Y-113400000D01*
X141863682Y-113417805D01*
X140919200Y-113418421D01*
X140919200Y-110449999D01*
X141861928Y-110449999D01*
X141861928Y-111100001D01*
X141878992Y-111273255D01*
X141929528Y-111439851D01*
X142011595Y-111593387D01*
X142122038Y-111727962D01*
X142128594Y-111733342D01*
X142048815Y-111798815D01*
X141969463Y-111895506D01*
X141910498Y-112005820D01*
X141874188Y-112125518D01*
X141861928Y-112250000D01*
X141865000Y-112539250D01*
X142023750Y-112698000D01*
X143073000Y-112698000D01*
X143073000Y-112678000D01*
X143327000Y-112678000D01*
X143327000Y-112698000D01*
X145073000Y-112698000D01*
X145073000Y-112678000D01*
X145327000Y-112678000D01*
X145327000Y-112698000D01*
X147073000Y-112698000D01*
X147073000Y-112678000D01*
X147327000Y-112678000D01*
X147327000Y-112698000D01*
X149073000Y-112698000D01*
X149073000Y-112678000D01*
X149327000Y-112678000D01*
X149327000Y-112698000D01*
X150376250Y-112698000D01*
X150535000Y-112539250D01*
X150538072Y-112250000D01*
X150525812Y-112125518D01*
X150489502Y-112005820D01*
X150430537Y-111895506D01*
X150351185Y-111798815D01*
X150271406Y-111733342D01*
X150277962Y-111727962D01*
X150388405Y-111593387D01*
X150470472Y-111439851D01*
X150521008Y-111273255D01*
X150538072Y-111100001D01*
X150538072Y-110449999D01*
X150521008Y-110276745D01*
X150470472Y-110110149D01*
X150388405Y-109956613D01*
X150277962Y-109822038D01*
X150143387Y-109711595D01*
X149989851Y-109629528D01*
X149823255Y-109578992D01*
X149650001Y-109561928D01*
X148749999Y-109561928D01*
X148576745Y-109578992D01*
X148410149Y-109629528D01*
X148256613Y-109711595D01*
X148200000Y-109758056D01*
X148143387Y-109711595D01*
X147989851Y-109629528D01*
X147823255Y-109578992D01*
X147650001Y-109561928D01*
X146749999Y-109561928D01*
X146576745Y-109578992D01*
X146410149Y-109629528D01*
X146256613Y-109711595D01*
X146200000Y-109758056D01*
X146143387Y-109711595D01*
X145989851Y-109629528D01*
X145823255Y-109578992D01*
X145650001Y-109561928D01*
X144749999Y-109561928D01*
X144576745Y-109578992D01*
X144410149Y-109629528D01*
X144256613Y-109711595D01*
X144200000Y-109758056D01*
X144143387Y-109711595D01*
X143989851Y-109629528D01*
X143823255Y-109578992D01*
X143650001Y-109561928D01*
X142749999Y-109561928D01*
X142576745Y-109578992D01*
X142410149Y-109629528D01*
X142256613Y-109711595D01*
X142122038Y-109822038D01*
X142011595Y-109956613D01*
X141929528Y-110110149D01*
X141878992Y-110276745D01*
X141861928Y-110449999D01*
X140919200Y-110449999D01*
X140919200Y-107543600D01*
X140916760Y-107518824D01*
X140909533Y-107494999D01*
X140897797Y-107473043D01*
X140882003Y-107453797D01*
X140862757Y-107438003D01*
X140840801Y-107426267D01*
X140816976Y-107419040D01*
X140792200Y-107416600D01*
X127304800Y-107416600D01*
X127280024Y-107419040D01*
X127256199Y-107426267D01*
X127234243Y-107438003D01*
X127214997Y-107453797D01*
X127199203Y-107473043D01*
X127187467Y-107494999D01*
X127180240Y-107518824D01*
X127177800Y-107543600D01*
X127177800Y-113427381D01*
X124935231Y-113428843D01*
X124938072Y-113400001D01*
X124938072Y-112499999D01*
X124921008Y-112326745D01*
X124870472Y-112160149D01*
X124788405Y-112006613D01*
X124762461Y-111975000D01*
X124788405Y-111943387D01*
X124870472Y-111789851D01*
X124921008Y-111623255D01*
X124938072Y-111450001D01*
X124938072Y-110549999D01*
X124921008Y-110376745D01*
X124870472Y-110210149D01*
X124788405Y-110056613D01*
X124762461Y-110025000D01*
X124788405Y-109993387D01*
X124870472Y-109839851D01*
X124921008Y-109673255D01*
X124938072Y-109500001D01*
X124938072Y-108599999D01*
X124921008Y-108426745D01*
X124870472Y-108260149D01*
X124788405Y-108106613D01*
X124762461Y-108075000D01*
X124788405Y-108043387D01*
X124870472Y-107889851D01*
X124921008Y-107723255D01*
X124938072Y-107550001D01*
X124938072Y-106649999D01*
X124921008Y-106476745D01*
X124870472Y-106310149D01*
X124788405Y-106156613D01*
X124762461Y-106125000D01*
X124788405Y-106093387D01*
X124870472Y-105939851D01*
X124921008Y-105773255D01*
X124938072Y-105600001D01*
X124938072Y-104699999D01*
X124921008Y-104526745D01*
X124870472Y-104360149D01*
X124788405Y-104206613D01*
X124762461Y-104175000D01*
X124788405Y-104143387D01*
X124870472Y-103989851D01*
X124921008Y-103823255D01*
X124938072Y-103650001D01*
X124938072Y-103105300D01*
X129755257Y-103105300D01*
X129782964Y-103386609D01*
X129865018Y-103657108D01*
X129998268Y-103906401D01*
X130177592Y-104124908D01*
X130396099Y-104304232D01*
X130645392Y-104437482D01*
X130915891Y-104519536D01*
X131126708Y-104540300D01*
X131267692Y-104540300D01*
X131478509Y-104519536D01*
X131749008Y-104437482D01*
X131998301Y-104304232D01*
X132216808Y-104124908D01*
X132396132Y-103906401D01*
X132467200Y-103773442D01*
X132538268Y-103906401D01*
X132717592Y-104124908D01*
X132936099Y-104304232D01*
X133185392Y-104437482D01*
X133455891Y-104519536D01*
X133666708Y-104540300D01*
X133807692Y-104540300D01*
X134018509Y-104519536D01*
X134289008Y-104437482D01*
X134538301Y-104304232D01*
X134756808Y-104124908D01*
X134936132Y-103906401D01*
X135007200Y-103773442D01*
X135078268Y-103906401D01*
X135257592Y-104124908D01*
X135476099Y-104304232D01*
X135725392Y-104437482D01*
X135995891Y-104519536D01*
X136206708Y-104540300D01*
X136347692Y-104540300D01*
X136558509Y-104519536D01*
X136829008Y-104437482D01*
X137078301Y-104304232D01*
X137296808Y-104124908D01*
X137476132Y-103906401D01*
X137549779Y-103768618D01*
X137664815Y-103960431D01*
X137853786Y-104168819D01*
X138079780Y-104336337D01*
X138334113Y-104456546D01*
X138468161Y-104497204D01*
X138690200Y-104375215D01*
X138690200Y-103232300D01*
X138944200Y-103232300D01*
X138944200Y-104375215D01*
X139166239Y-104497204D01*
X139300287Y-104456546D01*
X139554620Y-104336337D01*
X139780614Y-104168819D01*
X139969585Y-103960431D01*
X140114270Y-103719181D01*
X140209109Y-103454340D01*
X140087824Y-103232300D01*
X138944200Y-103232300D01*
X138690200Y-103232300D01*
X138670200Y-103232300D01*
X138670200Y-102978300D01*
X138690200Y-102978300D01*
X138690200Y-101835385D01*
X138944200Y-101835385D01*
X138944200Y-102978300D01*
X140087824Y-102978300D01*
X140209109Y-102756260D01*
X140114270Y-102491419D01*
X139969585Y-102250169D01*
X139780614Y-102041781D01*
X139554620Y-101874263D01*
X139300287Y-101754054D01*
X139166239Y-101713396D01*
X138944200Y-101835385D01*
X138690200Y-101835385D01*
X138468161Y-101713396D01*
X138334113Y-101754054D01*
X138079780Y-101874263D01*
X137853786Y-102041781D01*
X137664815Y-102250169D01*
X137549779Y-102441982D01*
X137476132Y-102304199D01*
X137296808Y-102085692D01*
X137078301Y-101906368D01*
X136829008Y-101773118D01*
X136558509Y-101691064D01*
X136347692Y-101670300D01*
X136206708Y-101670300D01*
X135995891Y-101691064D01*
X135725392Y-101773118D01*
X135476099Y-101906368D01*
X135257592Y-102085692D01*
X135078268Y-102304199D01*
X135007200Y-102437158D01*
X134936132Y-102304199D01*
X134756808Y-102085692D01*
X134538301Y-101906368D01*
X134289008Y-101773118D01*
X134018509Y-101691064D01*
X133807692Y-101670300D01*
X133666708Y-101670300D01*
X133455891Y-101691064D01*
X133185392Y-101773118D01*
X132936099Y-101906368D01*
X132717592Y-102085692D01*
X132538268Y-102304199D01*
X132467200Y-102437158D01*
X132396132Y-102304199D01*
X132216808Y-102085692D01*
X131998301Y-101906368D01*
X131749008Y-101773118D01*
X131478509Y-101691064D01*
X131267692Y-101670300D01*
X131126708Y-101670300D01*
X130915891Y-101691064D01*
X130645392Y-101773118D01*
X130396099Y-101906368D01*
X130177592Y-102085692D01*
X129998268Y-102304199D01*
X129865018Y-102553492D01*
X129782964Y-102823991D01*
X129755257Y-103105300D01*
X124938072Y-103105300D01*
X124938072Y-102749999D01*
X124921008Y-102576745D01*
X124870472Y-102410149D01*
X124788405Y-102256613D01*
X124677962Y-102122038D01*
X124543387Y-102011595D01*
X124389851Y-101929528D01*
X124223255Y-101878992D01*
X124050001Y-101861928D01*
X123399999Y-101861928D01*
X123226745Y-101878992D01*
X123060149Y-101929528D01*
X122906613Y-102011595D01*
X122772038Y-102122038D01*
X122700000Y-102209816D01*
X122627962Y-102122038D01*
X122493387Y-102011595D01*
X122339851Y-101929528D01*
X122173255Y-101878992D01*
X122000001Y-101861928D01*
X121349999Y-101861928D01*
X121176745Y-101878992D01*
X121010149Y-101929528D01*
X120856613Y-102011595D01*
X120722038Y-102122038D01*
X120611595Y-102256613D01*
X120529528Y-102410149D01*
X120478992Y-102576745D01*
X120461928Y-102749999D01*
X120461928Y-103650001D01*
X120478992Y-103823255D01*
X120529528Y-103989851D01*
X120611595Y-104143387D01*
X120637539Y-104175000D01*
X120611595Y-104206613D01*
X120529528Y-104360149D01*
X120478992Y-104526745D01*
X120461928Y-104699999D01*
X120461928Y-105600001D01*
X120478992Y-105773255D01*
X120529528Y-105939851D01*
X120611595Y-106093387D01*
X120637539Y-106125000D01*
X120611595Y-106156613D01*
X120529528Y-106310149D01*
X120478992Y-106476745D01*
X120461928Y-106649999D01*
X120461928Y-107550001D01*
X120478992Y-107723255D01*
X120529528Y-107889851D01*
X120611595Y-108043387D01*
X120637539Y-108075000D01*
X120611595Y-108106613D01*
X120529528Y-108260149D01*
X120478992Y-108426745D01*
X120461928Y-108599999D01*
X120461928Y-109500001D01*
X120478992Y-109673255D01*
X120529528Y-109839851D01*
X120611595Y-109993387D01*
X120637539Y-110025000D01*
X120611595Y-110056613D01*
X120529528Y-110210149D01*
X120478992Y-110376745D01*
X120461928Y-110549999D01*
X120461928Y-111450001D01*
X120478992Y-111623255D01*
X120529528Y-111789851D01*
X120611595Y-111943387D01*
X120637539Y-111975000D01*
X120611595Y-112006613D01*
X120529528Y-112160149D01*
X120478992Y-112326745D01*
X120461928Y-112499999D01*
X120461928Y-113400001D01*
X120465056Y-113431758D01*
X118686620Y-113432917D01*
X118627380Y-93627000D01*
X123090001Y-93627000D01*
X123090000Y-96517024D01*
G36*
X164437826Y-112049597D02*
G01*
X164363464Y-112049597D01*
X164163505Y-112089371D01*
X163975147Y-112167392D01*
X163805629Y-112280660D01*
X163661466Y-112424823D01*
X163548198Y-112594341D01*
X163470177Y-112782699D01*
X163430403Y-112982658D01*
X163430403Y-113044795D01*
X163071221Y-113403977D01*
X160557261Y-113405616D01*
X160559774Y-113403937D01*
X160703937Y-113259774D01*
X160817205Y-113090256D01*
X160895226Y-112901898D01*
X160935000Y-112701939D01*
X160935000Y-112498061D01*
X160895226Y-112298102D01*
X160817205Y-112109744D01*
X160703937Y-111940226D01*
X160559774Y-111796063D01*
X160390256Y-111682795D01*
X160201898Y-111604774D01*
X160059210Y-111576392D01*
X164111004Y-107524598D01*
X164140001Y-107500801D01*
X164234974Y-107385076D01*
X164305546Y-107253047D01*
X164349003Y-107109786D01*
X164360000Y-106998133D01*
X164360000Y-106998124D01*
X164363676Y-106960801D01*
X164360000Y-106923478D01*
X164360000Y-106829527D01*
X164389851Y-106820472D01*
X164419496Y-106804626D01*
X164437826Y-112049597D01*
X164437826Y-112049597D01*
G37*
X164437826Y-112049597D02*
X164363464Y-112049597D01*
X164163505Y-112089371D01*
X163975147Y-112167392D01*
X163805629Y-112280660D01*
X163661466Y-112424823D01*
X163548198Y-112594341D01*
X163470177Y-112782699D01*
X163430403Y-112982658D01*
X163430403Y-113044795D01*
X163071221Y-113403977D01*
X160557261Y-113405616D01*
X160559774Y-113403937D01*
X160703937Y-113259774D01*
X160817205Y-113090256D01*
X160895226Y-112901898D01*
X160935000Y-112701939D01*
X160935000Y-112498061D01*
X160895226Y-112298102D01*
X160817205Y-112109744D01*
X160703937Y-111940226D01*
X160559774Y-111796063D01*
X160390256Y-111682795D01*
X160201898Y-111604774D01*
X160059210Y-111576392D01*
X164111004Y-107524598D01*
X164140001Y-107500801D01*
X164234974Y-107385076D01*
X164305546Y-107253047D01*
X164349003Y-107109786D01*
X164360000Y-106998133D01*
X164360000Y-106998124D01*
X164363676Y-106960801D01*
X164360000Y-106923478D01*
X164360000Y-106829527D01*
X164389851Y-106820472D01*
X164419496Y-106804626D01*
X164437826Y-112049597D01*
G36*
X163990000Y-95493749D02*
G01*
X163956613Y-95511595D01*
X163822038Y-95622038D01*
X163816658Y-95628594D01*
X163751185Y-95548815D01*
X163654494Y-95469463D01*
X163544180Y-95410498D01*
X163424482Y-95374188D01*
X163300000Y-95361928D01*
X163010750Y-95365000D01*
X162852000Y-95523750D01*
X162852000Y-96573000D01*
X162872000Y-96573000D01*
X162872000Y-96827000D01*
X162852000Y-96827000D01*
X162852000Y-97876250D01*
X163010750Y-98035000D01*
X163300000Y-98038072D01*
X163424482Y-98025812D01*
X163544180Y-97989502D01*
X163654494Y-97930537D01*
X163751185Y-97851185D01*
X163816658Y-97771406D01*
X163822038Y-97777962D01*
X163956613Y-97888405D01*
X164005826Y-97914710D01*
X164070053Y-97978937D01*
X164239571Y-98092205D01*
X164389265Y-98154211D01*
X164404408Y-102487309D01*
X164389851Y-102479528D01*
X164223255Y-102428992D01*
X164050001Y-102411928D01*
X163149999Y-102411928D01*
X162976745Y-102428992D01*
X162810149Y-102479528D01*
X162656613Y-102561595D01*
X162522038Y-102672038D01*
X162411595Y-102806613D01*
X162329528Y-102960149D01*
X162310000Y-103024525D01*
X162310000Y-102037323D01*
X162313676Y-102000000D01*
X162310000Y-101962677D01*
X162310000Y-98036373D01*
X162439250Y-98035000D01*
X162598000Y-97876250D01*
X162598000Y-96827000D01*
X162578000Y-96827000D01*
X162578000Y-96573000D01*
X162598000Y-96573000D01*
X162598000Y-95523750D01*
X162439250Y-95365000D01*
X162310000Y-95363627D01*
X162310000Y-93627000D01*
X163990001Y-93627000D01*
X163990000Y-95493749D01*
X163990000Y-95493749D01*
G37*
X163990000Y-95493749D02*
X163956613Y-95511595D01*
X163822038Y-95622038D01*
X163816658Y-95628594D01*
X163751185Y-95548815D01*
X163654494Y-95469463D01*
X163544180Y-95410498D01*
X163424482Y-95374188D01*
X163300000Y-95361928D01*
X163010750Y-95365000D01*
X162852000Y-95523750D01*
X162852000Y-96573000D01*
X162872000Y-96573000D01*
X162872000Y-96827000D01*
X162852000Y-96827000D01*
X162852000Y-97876250D01*
X163010750Y-98035000D01*
X163300000Y-98038072D01*
X163424482Y-98025812D01*
X163544180Y-97989502D01*
X163654494Y-97930537D01*
X163751185Y-97851185D01*
X163816658Y-97771406D01*
X163822038Y-97777962D01*
X163956613Y-97888405D01*
X164005826Y-97914710D01*
X164070053Y-97978937D01*
X164239571Y-98092205D01*
X164389265Y-98154211D01*
X164404408Y-102487309D01*
X164389851Y-102479528D01*
X164223255Y-102428992D01*
X164050001Y-102411928D01*
X163149999Y-102411928D01*
X162976745Y-102428992D01*
X162810149Y-102479528D01*
X162656613Y-102561595D01*
X162522038Y-102672038D01*
X162411595Y-102806613D01*
X162329528Y-102960149D01*
X162310000Y-103024525D01*
X162310000Y-102037323D01*
X162313676Y-102000000D01*
X162310000Y-101962677D01*
X162310000Y-98036373D01*
X162439250Y-98035000D01*
X162598000Y-97876250D01*
X162598000Y-96827000D01*
X162578000Y-96827000D01*
X162578000Y-96573000D01*
X162598000Y-96573000D01*
X162598000Y-95523750D01*
X162439250Y-95365000D01*
X162310000Y-95363627D01*
X162310000Y-93627000D01*
X163990001Y-93627000D01*
X163990000Y-95493749D01*
M02*
