G04 #@! TF.GenerationSoftware,KiCad,Pcbnew,(5.1.4)-1*
G04 #@! TF.CreationDate,2019-10-11T16:00:27-04:00*
G04 #@! TF.ProjectId,CellMan,43656c6c-4d61-46e2-9e6b-696361645f70,0.1*
G04 #@! TF.SameCoordinates,Original*
G04 #@! TF.FileFunction,Legend,Top*
G04 #@! TF.FilePolarity,Positive*
%FSLAX46Y46*%
G04 Gerber Fmt 4.6, Leading zero omitted, Abs format (unit mm)*
G04 Created by KiCad (PCBNEW (5.1.4)-1) date 2019-10-11 16:00:27*
%MOMM*%
%LPD*%
G04 APERTURE LIST*
%ADD10C,0.500000*%
%ADD11C,0.150000*%
%ADD12C,0.120000*%
G04 APERTURE END LIST*
D10*
X177172619Y-104864285D02*
X174125000Y-104864285D01*
X107060714Y-106397619D02*
X107060714Y-103350000D01*
X108584523Y-104873809D02*
X105536904Y-104873809D01*
D11*
X128016666Y-109462023D02*
X128016666Y-108985833D01*
X128302380Y-109557261D02*
X127302380Y-109223928D01*
X128302380Y-108890595D01*
X128302380Y-108128690D02*
X127302380Y-108128690D01*
X128254761Y-108128690D02*
X128302380Y-108223928D01*
X128302380Y-108414404D01*
X128254761Y-108509642D01*
X128207142Y-108557261D01*
X128111904Y-108604880D01*
X127826190Y-108604880D01*
X127730952Y-108557261D01*
X127683333Y-108509642D01*
X127635714Y-108414404D01*
X127635714Y-108223928D01*
X127683333Y-108128690D01*
X128302380Y-107223928D02*
X127302380Y-107223928D01*
X128254761Y-107223928D02*
X128302380Y-107319166D01*
X128302380Y-107509642D01*
X128254761Y-107604880D01*
X128207142Y-107652500D01*
X128111904Y-107700119D01*
X127826190Y-107700119D01*
X127730952Y-107652500D01*
X127683333Y-107604880D01*
X127635714Y-107509642D01*
X127635714Y-107319166D01*
X127683333Y-107223928D01*
X128302380Y-106747738D02*
X127635714Y-106747738D01*
X127826190Y-106747738D02*
X127730952Y-106700119D01*
X127683333Y-106652500D01*
X127635714Y-106557261D01*
X127635714Y-106462023D01*
X128254761Y-105747738D02*
X128302380Y-105842976D01*
X128302380Y-106033452D01*
X128254761Y-106128690D01*
X128159523Y-106176309D01*
X127778571Y-106176309D01*
X127683333Y-106128690D01*
X127635714Y-106033452D01*
X127635714Y-105842976D01*
X127683333Y-105747738D01*
X127778571Y-105700119D01*
X127873809Y-105700119D01*
X127969047Y-106176309D01*
X128254761Y-105319166D02*
X128302380Y-105223928D01*
X128302380Y-105033452D01*
X128254761Y-104938214D01*
X128159523Y-104890595D01*
X128111904Y-104890595D01*
X128016666Y-104938214D01*
X127969047Y-105033452D01*
X127969047Y-105176309D01*
X127921428Y-105271547D01*
X127826190Y-105319166D01*
X127778571Y-105319166D01*
X127683333Y-105271547D01*
X127635714Y-105176309D01*
X127635714Y-105033452D01*
X127683333Y-104938214D01*
X128254761Y-104509642D02*
X128302380Y-104414404D01*
X128302380Y-104223928D01*
X128254761Y-104128690D01*
X128159523Y-104081071D01*
X128111904Y-104081071D01*
X128016666Y-104128690D01*
X127969047Y-104223928D01*
X127969047Y-104366785D01*
X127921428Y-104462023D01*
X127826190Y-104509642D01*
X127778571Y-104509642D01*
X127683333Y-104462023D01*
X127635714Y-104366785D01*
X127635714Y-104223928D01*
X127683333Y-104128690D01*
X128254761Y-102938214D02*
X128302380Y-102795357D01*
X128302380Y-102557261D01*
X128254761Y-102462023D01*
X128207142Y-102414404D01*
X128111904Y-102366785D01*
X128016666Y-102366785D01*
X127921428Y-102414404D01*
X127873809Y-102462023D01*
X127826190Y-102557261D01*
X127778571Y-102747738D01*
X127730952Y-102842976D01*
X127683333Y-102890595D01*
X127588095Y-102938214D01*
X127492857Y-102938214D01*
X127397619Y-102890595D01*
X127350000Y-102842976D01*
X127302380Y-102747738D01*
X127302380Y-102509642D01*
X127350000Y-102366785D01*
X128254761Y-101557261D02*
X128302380Y-101652500D01*
X128302380Y-101842976D01*
X128254761Y-101938214D01*
X128159523Y-101985833D01*
X127778571Y-101985833D01*
X127683333Y-101938214D01*
X127635714Y-101842976D01*
X127635714Y-101652500D01*
X127683333Y-101557261D01*
X127778571Y-101509642D01*
X127873809Y-101509642D01*
X127969047Y-101985833D01*
X128302380Y-100938214D02*
X128254761Y-101033452D01*
X128159523Y-101081071D01*
X127302380Y-101081071D01*
X128254761Y-100176309D02*
X128302380Y-100271547D01*
X128302380Y-100462023D01*
X128254761Y-100557261D01*
X128159523Y-100604880D01*
X127778571Y-100604880D01*
X127683333Y-100557261D01*
X127635714Y-100462023D01*
X127635714Y-100271547D01*
X127683333Y-100176309D01*
X127778571Y-100128690D01*
X127873809Y-100128690D01*
X127969047Y-100604880D01*
X128254761Y-99271547D02*
X128302380Y-99366785D01*
X128302380Y-99557261D01*
X128254761Y-99652500D01*
X128207142Y-99700119D01*
X128111904Y-99747738D01*
X127826190Y-99747738D01*
X127730952Y-99700119D01*
X127683333Y-99652500D01*
X127635714Y-99557261D01*
X127635714Y-99366785D01*
X127683333Y-99271547D01*
X127635714Y-98985833D02*
X127635714Y-98604880D01*
X127302380Y-98842976D02*
X128159523Y-98842976D01*
X128254761Y-98795357D01*
X128302380Y-98700119D01*
X128302380Y-98604880D01*
X146893000Y-90759000D02*
X146893000Y-92359000D01*
X154193000Y-90759000D02*
X154193000Y-85009000D01*
X146543000Y-90759000D02*
X146543000Y-85009000D01*
X154193000Y-90759000D02*
X153743000Y-90759000D01*
X154193000Y-85009000D02*
X153743000Y-85009000D01*
X146543000Y-85009000D02*
X146993000Y-85009000D01*
X146543000Y-90759000D02*
X146893000Y-90759000D01*
D12*
X121410000Y-118161252D02*
X121410000Y-117638748D01*
X119990000Y-118161252D02*
X119990000Y-117638748D01*
X125525000Y-116640000D02*
X124115000Y-116640000D01*
X124115000Y-118960000D02*
X126850000Y-118960000D01*
X124115000Y-118970000D02*
X124115000Y-118300000D01*
X124115000Y-117300000D02*
X124115000Y-116640000D01*
X103820000Y-126570000D02*
X102550000Y-126570000D01*
X103820000Y-125300000D02*
X103820000Y-126570000D01*
X101507071Y-119840000D02*
X101110000Y-119840000D01*
X101507071Y-120600000D02*
X101110000Y-120600000D01*
X92450000Y-119840000D02*
X98450000Y-119840000D01*
X92450000Y-120600000D02*
X92450000Y-119840000D01*
X98450000Y-120600000D02*
X92450000Y-120600000D01*
X101110000Y-121490000D02*
X98450000Y-121490000D01*
X101507071Y-122380000D02*
X101110000Y-122380000D01*
X101507071Y-123140000D02*
X101110000Y-123140000D01*
X92450000Y-122380000D02*
X98450000Y-122380000D01*
X92450000Y-123140000D02*
X92450000Y-122380000D01*
X98450000Y-123140000D02*
X92450000Y-123140000D01*
X101110000Y-124030000D02*
X98450000Y-124030000D01*
X101440000Y-124920000D02*
X101110000Y-124920000D01*
X101440000Y-125680000D02*
X101110000Y-125680000D01*
X98450000Y-125020000D02*
X92450000Y-125020000D01*
X98450000Y-125140000D02*
X92450000Y-125140000D01*
X98450000Y-125260000D02*
X92450000Y-125260000D01*
X98450000Y-125380000D02*
X92450000Y-125380000D01*
X98450000Y-125500000D02*
X92450000Y-125500000D01*
X98450000Y-125620000D02*
X92450000Y-125620000D01*
X92450000Y-124920000D02*
X98450000Y-124920000D01*
X92450000Y-125680000D02*
X92450000Y-124920000D01*
X98450000Y-125680000D02*
X92450000Y-125680000D01*
X98450000Y-126630000D02*
X101110000Y-126630000D01*
X98450000Y-118890000D02*
X98450000Y-126630000D01*
X101110000Y-118890000D02*
X98450000Y-118890000D01*
X101110000Y-126630000D02*
X101110000Y-118890000D01*
X150970000Y-121750000D02*
X150970000Y-120420000D01*
X150970000Y-120420000D02*
X152300000Y-120420000D01*
X153570000Y-120420000D02*
X156170000Y-120420000D01*
X156170000Y-123080000D02*
X156170000Y-120420000D01*
X153570000Y-123080000D02*
X156170000Y-123080000D01*
X153570000Y-123080000D02*
X153570000Y-120420000D01*
D11*
X137775000Y-90350000D02*
X137775000Y-85950000D01*
X132250000Y-91925000D02*
X132250000Y-85950000D01*
X148700000Y-103725000D02*
X148700000Y-102375000D01*
X143575000Y-103725000D02*
X143575000Y-108375000D01*
X148825000Y-103725000D02*
X148825000Y-108375000D01*
X143575000Y-103725000D02*
X143800000Y-103725000D01*
X143575000Y-108375000D02*
X143800000Y-108375000D01*
X148825000Y-108375000D02*
X148600000Y-108375000D01*
X148825000Y-103725000D02*
X148700000Y-103725000D01*
D12*
X160040000Y-101375000D02*
X160040000Y-102785000D01*
X162360000Y-102785000D02*
X162360000Y-100050000D01*
X162370000Y-102785000D02*
X161700000Y-102785000D01*
X160700000Y-102785000D02*
X160040000Y-102785000D01*
X117940000Y-87375000D02*
X117940000Y-88785000D01*
X120260000Y-88785000D02*
X120260000Y-86050000D01*
X120270000Y-88785000D02*
X119600000Y-88785000D01*
X118600000Y-88785000D02*
X117940000Y-88785000D01*
X120390000Y-95875000D02*
X120390000Y-95165000D01*
X125009000Y-95875000D02*
X125009000Y-95165000D01*
X120390000Y-101635000D02*
X120390000Y-100925000D01*
X125009000Y-101635000D02*
X120390000Y-101635000D01*
X125009000Y-101635000D02*
X125009000Y-100985000D01*
X126400000Y-100985000D02*
X125009000Y-100985000D01*
X125009000Y-95165000D02*
X120390000Y-95165000D01*
X120390000Y-104205000D02*
X120390000Y-103495000D01*
X125009000Y-104205000D02*
X125009000Y-103495000D01*
X120390000Y-112505000D02*
X120390000Y-111795000D01*
X125009000Y-112505000D02*
X120390000Y-112505000D01*
X125009000Y-112505000D02*
X125009000Y-111855000D01*
X126400000Y-111855000D02*
X125009000Y-111855000D01*
X125009000Y-103495000D02*
X120390000Y-103495000D01*
X170650000Y-94710000D02*
X173525000Y-94710000D01*
X170650000Y-94710000D02*
X169150000Y-94710000D01*
X170650000Y-91490000D02*
X172150000Y-91490000D01*
X170650000Y-91490000D02*
X169150000Y-91490000D01*
D11*
X173185000Y-118400000D02*
X173185000Y-116650000D01*
X167430000Y-118400000D02*
X167430000Y-123900000D01*
X173840000Y-118400000D02*
X173840000Y-123900000D01*
X167430000Y-118400000D02*
X168180000Y-118400000D01*
X167430000Y-123900000D02*
X168180000Y-123900000D01*
X173840000Y-123900000D02*
X173090000Y-123900000D01*
X173840000Y-118400000D02*
X173185000Y-118400000D01*
D12*
X179230000Y-82930000D02*
X180500000Y-82930000D01*
X179230000Y-84200000D02*
X179230000Y-82930000D01*
X181542929Y-92200000D02*
X181940000Y-92200000D01*
X181542929Y-91440000D02*
X181940000Y-91440000D01*
X190600000Y-92200000D02*
X184600000Y-92200000D01*
X190600000Y-91440000D02*
X190600000Y-92200000D01*
X184600000Y-91440000D02*
X190600000Y-91440000D01*
X181940000Y-90550000D02*
X184600000Y-90550000D01*
X181542929Y-89660000D02*
X181940000Y-89660000D01*
X181542929Y-88900000D02*
X181940000Y-88900000D01*
X190600000Y-89660000D02*
X184600000Y-89660000D01*
X190600000Y-88900000D02*
X190600000Y-89660000D01*
X184600000Y-88900000D02*
X190600000Y-88900000D01*
X181940000Y-88010000D02*
X184600000Y-88010000D01*
X181542929Y-87120000D02*
X181940000Y-87120000D01*
X181542929Y-86360000D02*
X181940000Y-86360000D01*
X190600000Y-87120000D02*
X184600000Y-87120000D01*
X190600000Y-86360000D02*
X190600000Y-87120000D01*
X184600000Y-86360000D02*
X190600000Y-86360000D01*
X181940000Y-85470000D02*
X184600000Y-85470000D01*
X181610000Y-84580000D02*
X181940000Y-84580000D01*
X181610000Y-83820000D02*
X181940000Y-83820000D01*
X184600000Y-84480000D02*
X190600000Y-84480000D01*
X184600000Y-84360000D02*
X190600000Y-84360000D01*
X184600000Y-84240000D02*
X190600000Y-84240000D01*
X184600000Y-84120000D02*
X190600000Y-84120000D01*
X184600000Y-84000000D02*
X190600000Y-84000000D01*
X184600000Y-83880000D02*
X190600000Y-83880000D01*
X190600000Y-84580000D02*
X184600000Y-84580000D01*
X190600000Y-83820000D02*
X190600000Y-84580000D01*
X184600000Y-83820000D02*
X190600000Y-83820000D01*
X184600000Y-82870000D02*
X181940000Y-82870000D01*
X184600000Y-93150000D02*
X184600000Y-82870000D01*
X181940000Y-93150000D02*
X184600000Y-93150000D01*
X181940000Y-82870000D02*
X181940000Y-93150000D01*
X156070000Y-100470000D02*
X157400000Y-100470000D01*
X156070000Y-101800000D02*
X156070000Y-100470000D01*
X156070000Y-103070000D02*
X158730000Y-103070000D01*
X158730000Y-103070000D02*
X158730000Y-110750000D01*
X156070000Y-103070000D02*
X156070000Y-110750000D01*
X156070000Y-110750000D02*
X158730000Y-110750000D01*
X106260000Y-88211252D02*
X106260000Y-87688748D01*
X104840000Y-88211252D02*
X104840000Y-87688748D01*
X176240000Y-88211252D02*
X176240000Y-87688748D01*
X177660000Y-88211252D02*
X177660000Y-87688748D01*
X160410000Y-92638748D02*
X160410000Y-93161252D01*
X158990000Y-92638748D02*
X158990000Y-93161252D01*
X131060000Y-92738748D02*
X131060000Y-93261252D01*
X129640000Y-92738748D02*
X129640000Y-93261252D01*
X164910000Y-118261252D02*
X164910000Y-117738748D01*
X163490000Y-118261252D02*
X163490000Y-117738748D01*
X161938748Y-115710000D02*
X162461252Y-115710000D01*
X161938748Y-114290000D02*
X162461252Y-114290000D01*
X146160000Y-87785000D02*
X146160000Y-85100000D01*
X144240000Y-87785000D02*
X146160000Y-87785000D01*
X144240000Y-85100000D02*
X144240000Y-87785000D01*
X113060000Y-87085000D02*
X113060000Y-84400000D01*
X111140000Y-87085000D02*
X113060000Y-87085000D01*
X111140000Y-84400000D02*
X111140000Y-87085000D01*
X152760000Y-115070000D02*
X152760000Y-112385000D01*
X152760000Y-112385000D02*
X150840000Y-112385000D01*
X150840000Y-112385000D02*
X150840000Y-115070000D01*
X106520000Y-119448000D02*
X109205000Y-119448000D01*
X109205000Y-119448000D02*
X109205000Y-117528000D01*
X109205000Y-117528000D02*
X106520000Y-117528000D01*
X160310000Y-108650000D02*
X160310000Y-110660000D01*
X160310000Y-110660000D02*
X160665000Y-110660000D01*
X160310000Y-108650000D02*
X160310000Y-106640000D01*
X160310000Y-106640000D02*
X160665000Y-106640000D01*
X164630000Y-108650000D02*
X164630000Y-110660000D01*
X164630000Y-110660000D02*
X164275000Y-110660000D01*
X164630000Y-108650000D02*
X164630000Y-106640000D01*
X164630000Y-106640000D02*
X164275000Y-106640000D01*
X164275000Y-106640000D02*
X164275000Y-105175000D01*
X129867200Y-105915300D02*
G75*
G02X129867200Y-107915300I0J-1000000D01*
G01*
X129867200Y-107915300D02*
X129867200Y-109565300D01*
X129867200Y-109565300D02*
X140147200Y-109565300D01*
X140147200Y-109565300D02*
X140147200Y-104265300D01*
X140147200Y-104265300D02*
X129867200Y-104265300D01*
X129867200Y-104265300D02*
X129867200Y-105915300D01*
X103470000Y-93070000D02*
X102200000Y-93070000D01*
X103470000Y-91800000D02*
X103470000Y-93070000D01*
X101157071Y-83800000D02*
X100760000Y-83800000D01*
X101157071Y-84560000D02*
X100760000Y-84560000D01*
X92100000Y-83800000D02*
X98100000Y-83800000D01*
X92100000Y-84560000D02*
X92100000Y-83800000D01*
X98100000Y-84560000D02*
X92100000Y-84560000D01*
X100760000Y-85450000D02*
X98100000Y-85450000D01*
X101157071Y-86340000D02*
X100760000Y-86340000D01*
X101157071Y-87100000D02*
X100760000Y-87100000D01*
X92100000Y-86340000D02*
X98100000Y-86340000D01*
X92100000Y-87100000D02*
X92100000Y-86340000D01*
X98100000Y-87100000D02*
X92100000Y-87100000D01*
X100760000Y-87990000D02*
X98100000Y-87990000D01*
X101157071Y-88880000D02*
X100760000Y-88880000D01*
X101157071Y-89640000D02*
X100760000Y-89640000D01*
X92100000Y-88880000D02*
X98100000Y-88880000D01*
X92100000Y-89640000D02*
X92100000Y-88880000D01*
X98100000Y-89640000D02*
X92100000Y-89640000D01*
X100760000Y-90530000D02*
X98100000Y-90530000D01*
X101090000Y-91420000D02*
X100760000Y-91420000D01*
X101090000Y-92180000D02*
X100760000Y-92180000D01*
X98100000Y-91520000D02*
X92100000Y-91520000D01*
X98100000Y-91640000D02*
X92100000Y-91640000D01*
X98100000Y-91760000D02*
X92100000Y-91760000D01*
X98100000Y-91880000D02*
X92100000Y-91880000D01*
X98100000Y-92000000D02*
X92100000Y-92000000D01*
X98100000Y-92120000D02*
X92100000Y-92120000D01*
X92100000Y-91420000D02*
X98100000Y-91420000D01*
X92100000Y-92180000D02*
X92100000Y-91420000D01*
X98100000Y-92180000D02*
X92100000Y-92180000D01*
X98100000Y-93130000D02*
X100760000Y-93130000D01*
X98100000Y-82850000D02*
X98100000Y-93130000D01*
X100760000Y-82850000D02*
X98100000Y-82850000D01*
X100760000Y-93130000D02*
X100760000Y-82850000D01*
X109390000Y-90886252D02*
X109390000Y-90363748D01*
X110810000Y-90886252D02*
X110810000Y-90363748D01*
X108810000Y-90886252D02*
X108810000Y-90363748D01*
X107390000Y-90886252D02*
X107390000Y-90363748D01*
X107411252Y-95810000D02*
X106888748Y-95810000D01*
X107411252Y-94390000D02*
X106888748Y-94390000D01*
X122910000Y-87688748D02*
X122910000Y-88211252D01*
X121490000Y-87688748D02*
X121490000Y-88211252D01*
X144490000Y-90161252D02*
X144490000Y-89638748D01*
X145910000Y-90161252D02*
X145910000Y-89638748D01*
X112810000Y-90886252D02*
X112810000Y-90363748D01*
X111390000Y-90886252D02*
X111390000Y-90363748D01*
X153140000Y-113788748D02*
X153140000Y-114311252D01*
X154560000Y-113788748D02*
X154560000Y-114311252D01*
X111581252Y-119198000D02*
X111058748Y-119198000D01*
X111581252Y-117778000D02*
X111058748Y-117778000D01*
X150933200Y-104229652D02*
X150933200Y-103707148D01*
X149513200Y-104229652D02*
X149513200Y-103707148D01*
X145786948Y-100258400D02*
X146309452Y-100258400D01*
X145786948Y-101678400D02*
X146309452Y-101678400D01*
X138510000Y-99111252D02*
X138510000Y-98588748D01*
X137090000Y-99111252D02*
X137090000Y-98588748D01*
X147936400Y-114191752D02*
X147936400Y-113669248D01*
X146516400Y-114191752D02*
X146516400Y-113669248D01*
X144516400Y-114191752D02*
X144516400Y-113669248D01*
X145936400Y-114191752D02*
X145936400Y-113669248D01*
X131910000Y-113688748D02*
X131910000Y-114211252D01*
X130490000Y-113688748D02*
X130490000Y-114211252D01*
X162960000Y-119800000D02*
X162960000Y-117850000D01*
X162960000Y-119800000D02*
X162960000Y-121750000D01*
X157840000Y-119800000D02*
X157840000Y-117850000D01*
X157840000Y-119800000D02*
X157840000Y-123250000D01*
X136410000Y-99700000D02*
X136410000Y-97250000D01*
X133190000Y-97900000D02*
X133190000Y-99700000D01*
X135810000Y-114900000D02*
X135810000Y-113100000D01*
X132590000Y-113100000D02*
X132590000Y-115550000D01*
D11*
X145070380Y-88645904D02*
X145879904Y-88645904D01*
X145975142Y-88598285D01*
X146022761Y-88550666D01*
X146070380Y-88455428D01*
X146070380Y-88264952D01*
X146022761Y-88169714D01*
X145975142Y-88122095D01*
X145879904Y-88074476D01*
X145070380Y-88074476D01*
X146070380Y-87074476D02*
X146070380Y-87645904D01*
X146070380Y-87360190D02*
X145070380Y-87360190D01*
X145213238Y-87455428D01*
X145308476Y-87550666D01*
X145356095Y-87645904D01*
X121177380Y-115167857D02*
X120701190Y-115501190D01*
X121177380Y-115739285D02*
X120177380Y-115739285D01*
X120177380Y-115358333D01*
X120225000Y-115263095D01*
X120272619Y-115215476D01*
X120367857Y-115167857D01*
X120510714Y-115167857D01*
X120605952Y-115215476D01*
X120653571Y-115263095D01*
X120701190Y-115358333D01*
X120701190Y-115739285D01*
X121177380Y-114215476D02*
X121177380Y-114786904D01*
X121177380Y-114501190D02*
X120177380Y-114501190D01*
X120320238Y-114596428D01*
X120415476Y-114691666D01*
X120463095Y-114786904D01*
X121177380Y-113739285D02*
X121177380Y-113548809D01*
X121129761Y-113453571D01*
X121082142Y-113405952D01*
X120939285Y-113310714D01*
X120748809Y-113263095D01*
X120367857Y-113263095D01*
X120272619Y-113310714D01*
X120225000Y-113358333D01*
X120177380Y-113453571D01*
X120177380Y-113644047D01*
X120225000Y-113739285D01*
X120272619Y-113786904D01*
X120367857Y-113834523D01*
X120605952Y-113834523D01*
X120701190Y-113786904D01*
X120748809Y-113739285D01*
X120796428Y-113644047D01*
X120796428Y-113453571D01*
X120748809Y-113358333D01*
X120701190Y-113310714D01*
X120605952Y-113263095D01*
X124754761Y-115972619D02*
X124659523Y-115925000D01*
X124564285Y-115829761D01*
X124421428Y-115686904D01*
X124326190Y-115639285D01*
X124230952Y-115639285D01*
X124278571Y-115877380D02*
X124183333Y-115829761D01*
X124088095Y-115734523D01*
X124040476Y-115544047D01*
X124040476Y-115210714D01*
X124088095Y-115020238D01*
X124183333Y-114925000D01*
X124278571Y-114877380D01*
X124469047Y-114877380D01*
X124564285Y-114925000D01*
X124659523Y-115020238D01*
X124707142Y-115210714D01*
X124707142Y-115544047D01*
X124659523Y-115734523D01*
X124564285Y-115829761D01*
X124469047Y-115877380D01*
X124278571Y-115877380D01*
X125564285Y-115210714D02*
X125564285Y-115877380D01*
X125326190Y-114829761D02*
X125088095Y-115544047D01*
X125707142Y-115544047D01*
X104666666Y-124852380D02*
X104666666Y-125566666D01*
X104619047Y-125709523D01*
X104523809Y-125804761D01*
X104380952Y-125852380D01*
X104285714Y-125852380D01*
X105619047Y-124852380D02*
X105142857Y-124852380D01*
X105095238Y-125328571D01*
X105142857Y-125280952D01*
X105238095Y-125233333D01*
X105476190Y-125233333D01*
X105571428Y-125280952D01*
X105619047Y-125328571D01*
X105666666Y-125423809D01*
X105666666Y-125661904D01*
X105619047Y-125757142D01*
X105571428Y-125804761D01*
X105476190Y-125852380D01*
X105238095Y-125852380D01*
X105142857Y-125804761D01*
X105095238Y-125757142D01*
X151966666Y-118602380D02*
X151966666Y-119316666D01*
X151919047Y-119459523D01*
X151823809Y-119554761D01*
X151680952Y-119602380D01*
X151585714Y-119602380D01*
X152871428Y-118935714D02*
X152871428Y-119602380D01*
X152633333Y-118554761D02*
X152395238Y-119269047D01*
X153014285Y-119269047D01*
X130952380Y-88911904D02*
X131761904Y-88911904D01*
X131857142Y-88864285D01*
X131904761Y-88816666D01*
X131952380Y-88721428D01*
X131952380Y-88530952D01*
X131904761Y-88435714D01*
X131857142Y-88388095D01*
X131761904Y-88340476D01*
X130952380Y-88340476D01*
X130952380Y-87959523D02*
X130952380Y-87340476D01*
X131333333Y-87673809D01*
X131333333Y-87530952D01*
X131380952Y-87435714D01*
X131428571Y-87388095D01*
X131523809Y-87340476D01*
X131761904Y-87340476D01*
X131857142Y-87388095D01*
X131904761Y-87435714D01*
X131952380Y-87530952D01*
X131952380Y-87816666D01*
X131904761Y-87911904D01*
X131857142Y-87959523D01*
X149202380Y-106811904D02*
X150011904Y-106811904D01*
X150107142Y-106764285D01*
X150154761Y-106716666D01*
X150202380Y-106621428D01*
X150202380Y-106430952D01*
X150154761Y-106335714D01*
X150107142Y-106288095D01*
X150011904Y-106240476D01*
X149202380Y-106240476D01*
X149202380Y-105288095D02*
X149202380Y-105764285D01*
X149678571Y-105811904D01*
X149630952Y-105764285D01*
X149583333Y-105669047D01*
X149583333Y-105430952D01*
X149630952Y-105335714D01*
X149678571Y-105288095D01*
X149773809Y-105240476D01*
X150011904Y-105240476D01*
X150107142Y-105288095D01*
X150154761Y-105335714D01*
X150202380Y-105430952D01*
X150202380Y-105669047D01*
X150154761Y-105764285D01*
X150107142Y-105811904D01*
X163747619Y-102145238D02*
X163700000Y-102240476D01*
X163604761Y-102335714D01*
X163461904Y-102478571D01*
X163414285Y-102573809D01*
X163414285Y-102669047D01*
X163652380Y-102621428D02*
X163604761Y-102716666D01*
X163509523Y-102811904D01*
X163319047Y-102859523D01*
X162985714Y-102859523D01*
X162795238Y-102811904D01*
X162700000Y-102716666D01*
X162652380Y-102621428D01*
X162652380Y-102430952D01*
X162700000Y-102335714D01*
X162795238Y-102240476D01*
X162985714Y-102192857D01*
X163319047Y-102192857D01*
X163509523Y-102240476D01*
X163604761Y-102335714D01*
X163652380Y-102430952D01*
X163652380Y-102621428D01*
X162652380Y-101859523D02*
X162652380Y-101240476D01*
X163033333Y-101573809D01*
X163033333Y-101430952D01*
X163080952Y-101335714D01*
X163128571Y-101288095D01*
X163223809Y-101240476D01*
X163461904Y-101240476D01*
X163557142Y-101288095D01*
X163604761Y-101335714D01*
X163652380Y-101430952D01*
X163652380Y-101716666D01*
X163604761Y-101811904D01*
X163557142Y-101859523D01*
X117547619Y-88145238D02*
X117500000Y-88240476D01*
X117404761Y-88335714D01*
X117261904Y-88478571D01*
X117214285Y-88573809D01*
X117214285Y-88669047D01*
X117452380Y-88621428D02*
X117404761Y-88716666D01*
X117309523Y-88811904D01*
X117119047Y-88859523D01*
X116785714Y-88859523D01*
X116595238Y-88811904D01*
X116500000Y-88716666D01*
X116452380Y-88621428D01*
X116452380Y-88430952D01*
X116500000Y-88335714D01*
X116595238Y-88240476D01*
X116785714Y-88192857D01*
X117119047Y-88192857D01*
X117309523Y-88240476D01*
X117404761Y-88335714D01*
X117452380Y-88430952D01*
X117452380Y-88621428D01*
X117452380Y-87240476D02*
X117452380Y-87811904D01*
X117452380Y-87526190D02*
X116452380Y-87526190D01*
X116595238Y-87621428D01*
X116690476Y-87716666D01*
X116738095Y-87811904D01*
X118504761Y-99733333D02*
X118552380Y-99590476D01*
X118552380Y-99352380D01*
X118504761Y-99257142D01*
X118457142Y-99209523D01*
X118361904Y-99161904D01*
X118266666Y-99161904D01*
X118171428Y-99209523D01*
X118123809Y-99257142D01*
X118076190Y-99352380D01*
X118028571Y-99542857D01*
X117980952Y-99638095D01*
X117933333Y-99685714D01*
X117838095Y-99733333D01*
X117742857Y-99733333D01*
X117647619Y-99685714D01*
X117600000Y-99638095D01*
X117552380Y-99542857D01*
X117552380Y-99304761D01*
X117600000Y-99161904D01*
X117552380Y-98828571D02*
X118552380Y-98590476D01*
X117838095Y-98400000D01*
X118552380Y-98209523D01*
X117552380Y-97971428D01*
X117647619Y-97638095D02*
X117600000Y-97590476D01*
X117552380Y-97495238D01*
X117552380Y-97257142D01*
X117600000Y-97161904D01*
X117647619Y-97114285D01*
X117742857Y-97066666D01*
X117838095Y-97066666D01*
X117980952Y-97114285D01*
X118552380Y-97685714D01*
X118552380Y-97066666D01*
X118454761Y-109333333D02*
X118502380Y-109190476D01*
X118502380Y-108952380D01*
X118454761Y-108857142D01*
X118407142Y-108809523D01*
X118311904Y-108761904D01*
X118216666Y-108761904D01*
X118121428Y-108809523D01*
X118073809Y-108857142D01*
X118026190Y-108952380D01*
X117978571Y-109142857D01*
X117930952Y-109238095D01*
X117883333Y-109285714D01*
X117788095Y-109333333D01*
X117692857Y-109333333D01*
X117597619Y-109285714D01*
X117550000Y-109238095D01*
X117502380Y-109142857D01*
X117502380Y-108904761D01*
X117550000Y-108761904D01*
X117502380Y-108428571D02*
X118502380Y-108190476D01*
X117788095Y-108000000D01*
X118502380Y-107809523D01*
X117502380Y-107571428D01*
X118502380Y-106666666D02*
X118502380Y-107238095D01*
X118502380Y-106952380D02*
X117502380Y-106952380D01*
X117645238Y-107047619D01*
X117740476Y-107142857D01*
X117788095Y-107238095D01*
X169675595Y-90177380D02*
X169675595Y-90986904D01*
X169723214Y-91082142D01*
X169770833Y-91129761D01*
X169866071Y-91177380D01*
X170056547Y-91177380D01*
X170151785Y-91129761D01*
X170199404Y-91082142D01*
X170247023Y-90986904D01*
X170247023Y-90177380D01*
X170675595Y-90272619D02*
X170723214Y-90225000D01*
X170818452Y-90177380D01*
X171056547Y-90177380D01*
X171151785Y-90225000D01*
X171199404Y-90272619D01*
X171247023Y-90367857D01*
X171247023Y-90463095D01*
X171199404Y-90605952D01*
X170627976Y-91177380D01*
X171247023Y-91177380D01*
X173988095Y-96202380D02*
X173988095Y-95202380D01*
X173988095Y-95678571D02*
X174559523Y-95678571D01*
X174559523Y-96202380D02*
X174559523Y-95202380D01*
X175178571Y-95630952D02*
X175083333Y-95583333D01*
X175035714Y-95535714D01*
X174988095Y-95440476D01*
X174988095Y-95392857D01*
X175035714Y-95297619D01*
X175083333Y-95250000D01*
X175178571Y-95202380D01*
X175369047Y-95202380D01*
X175464285Y-95250000D01*
X175511904Y-95297619D01*
X175559523Y-95392857D01*
X175559523Y-95440476D01*
X175511904Y-95535714D01*
X175464285Y-95583333D01*
X175369047Y-95630952D01*
X175178571Y-95630952D01*
X175083333Y-95678571D01*
X175035714Y-95726190D01*
X174988095Y-95821428D01*
X174988095Y-96011904D01*
X175035714Y-96107142D01*
X175083333Y-96154761D01*
X175178571Y-96202380D01*
X175369047Y-96202380D01*
X175464285Y-96154761D01*
X175511904Y-96107142D01*
X175559523Y-96011904D01*
X175559523Y-95821428D01*
X175511904Y-95726190D01*
X175464285Y-95678571D01*
X175369047Y-95630952D01*
X165688095Y-105452380D02*
X165688095Y-104452380D01*
X165688095Y-104928571D02*
X166259523Y-104928571D01*
X166259523Y-105452380D02*
X166259523Y-104452380D01*
X166640476Y-104452380D02*
X167307142Y-104452380D01*
X166878571Y-105452380D01*
X97663095Y-105702380D02*
X97663095Y-104702380D01*
X97663095Y-105178571D02*
X98234523Y-105178571D01*
X98234523Y-105702380D02*
X98234523Y-104702380D01*
X99139285Y-104702380D02*
X98948809Y-104702380D01*
X98853571Y-104750000D01*
X98805952Y-104797619D01*
X98710714Y-104940476D01*
X98663095Y-105130952D01*
X98663095Y-105511904D01*
X98710714Y-105607142D01*
X98758333Y-105654761D01*
X98853571Y-105702380D01*
X99044047Y-105702380D01*
X99139285Y-105654761D01*
X99186904Y-105607142D01*
X99234523Y-105511904D01*
X99234523Y-105273809D01*
X99186904Y-105178571D01*
X99139285Y-105130952D01*
X99044047Y-105083333D01*
X98853571Y-105083333D01*
X98758333Y-105130952D01*
X98710714Y-105178571D01*
X98663095Y-105273809D01*
X114513095Y-105652380D02*
X114513095Y-104652380D01*
X114513095Y-105128571D02*
X115084523Y-105128571D01*
X115084523Y-105652380D02*
X115084523Y-104652380D01*
X116036904Y-104652380D02*
X115560714Y-104652380D01*
X115513095Y-105128571D01*
X115560714Y-105080952D01*
X115655952Y-105033333D01*
X115894047Y-105033333D01*
X115989285Y-105080952D01*
X116036904Y-105128571D01*
X116084523Y-105223809D01*
X116084523Y-105461904D01*
X116036904Y-105557142D01*
X115989285Y-105604761D01*
X115894047Y-105652380D01*
X115655952Y-105652380D01*
X115560714Y-105604761D01*
X115513095Y-105557142D01*
X184013095Y-96102380D02*
X184013095Y-95102380D01*
X184013095Y-95578571D02*
X184584523Y-95578571D01*
X184584523Y-96102380D02*
X184584523Y-95102380D01*
X185489285Y-95435714D02*
X185489285Y-96102380D01*
X185251190Y-95054761D02*
X185013095Y-95769047D01*
X185632142Y-95769047D01*
X183163095Y-105427380D02*
X183163095Y-104427380D01*
X183163095Y-104903571D02*
X183734523Y-104903571D01*
X183734523Y-105427380D02*
X183734523Y-104427380D01*
X184115476Y-104427380D02*
X184734523Y-104427380D01*
X184401190Y-104808333D01*
X184544047Y-104808333D01*
X184639285Y-104855952D01*
X184686904Y-104903571D01*
X184734523Y-104998809D01*
X184734523Y-105236904D01*
X184686904Y-105332142D01*
X184639285Y-105379761D01*
X184544047Y-105427380D01*
X184258333Y-105427380D01*
X184163095Y-105379761D01*
X184115476Y-105332142D01*
X98938095Y-95077380D02*
X98938095Y-94077380D01*
X98938095Y-94553571D02*
X99509523Y-94553571D01*
X99509523Y-95077380D02*
X99509523Y-94077380D01*
X99938095Y-94172619D02*
X99985714Y-94125000D01*
X100080952Y-94077380D01*
X100319047Y-94077380D01*
X100414285Y-94125000D01*
X100461904Y-94172619D01*
X100509523Y-94267857D01*
X100509523Y-94363095D01*
X100461904Y-94505952D01*
X99890476Y-95077380D01*
X100509523Y-95077380D01*
X114313095Y-95352380D02*
X114313095Y-94352380D01*
X114313095Y-94828571D02*
X114884523Y-94828571D01*
X114884523Y-95352380D02*
X114884523Y-94352380D01*
X115884523Y-95352380D02*
X115313095Y-95352380D01*
X115598809Y-95352380D02*
X115598809Y-94352380D01*
X115503571Y-94495238D01*
X115408333Y-94590476D01*
X115313095Y-94638095D01*
X175312619Y-121245238D02*
X175265000Y-121340476D01*
X175169761Y-121435714D01*
X175026904Y-121578571D01*
X174979285Y-121673809D01*
X174979285Y-121769047D01*
X175217380Y-121721428D02*
X175169761Y-121816666D01*
X175074523Y-121911904D01*
X174884047Y-121959523D01*
X174550714Y-121959523D01*
X174360238Y-121911904D01*
X174265000Y-121816666D01*
X174217380Y-121721428D01*
X174217380Y-121530952D01*
X174265000Y-121435714D01*
X174360238Y-121340476D01*
X174550714Y-121292857D01*
X174884047Y-121292857D01*
X175074523Y-121340476D01*
X175169761Y-121435714D01*
X175217380Y-121530952D01*
X175217380Y-121721428D01*
X174312619Y-120911904D02*
X174265000Y-120864285D01*
X174217380Y-120769047D01*
X174217380Y-120530952D01*
X174265000Y-120435714D01*
X174312619Y-120388095D01*
X174407857Y-120340476D01*
X174503095Y-120340476D01*
X174645952Y-120388095D01*
X175217380Y-120959523D01*
X175217380Y-120340476D01*
X177266666Y-92552380D02*
X177266666Y-93266666D01*
X177219047Y-93409523D01*
X177123809Y-93504761D01*
X176980952Y-93552380D01*
X176885714Y-93552380D01*
X177647619Y-92552380D02*
X178266666Y-92552380D01*
X177933333Y-92933333D01*
X178076190Y-92933333D01*
X178171428Y-92980952D01*
X178219047Y-93028571D01*
X178266666Y-93123809D01*
X178266666Y-93361904D01*
X178219047Y-93457142D01*
X178171428Y-93504761D01*
X178076190Y-93552380D01*
X177790476Y-93552380D01*
X177695238Y-93504761D01*
X177647619Y-93457142D01*
X157066666Y-98922380D02*
X157066666Y-99636666D01*
X157019047Y-99779523D01*
X156923809Y-99874761D01*
X156780952Y-99922380D01*
X156685714Y-99922380D01*
X157495238Y-99017619D02*
X157542857Y-98970000D01*
X157638095Y-98922380D01*
X157876190Y-98922380D01*
X157971428Y-98970000D01*
X158019047Y-99017619D01*
X158066666Y-99112857D01*
X158066666Y-99208095D01*
X158019047Y-99350952D01*
X157447619Y-99922380D01*
X158066666Y-99922380D01*
X104257142Y-88116666D02*
X104304761Y-88164285D01*
X104352380Y-88307142D01*
X104352380Y-88402380D01*
X104304761Y-88545238D01*
X104209523Y-88640476D01*
X104114285Y-88688095D01*
X103923809Y-88735714D01*
X103780952Y-88735714D01*
X103590476Y-88688095D01*
X103495238Y-88640476D01*
X103400000Y-88545238D01*
X103352380Y-88402380D01*
X103352380Y-88307142D01*
X103400000Y-88164285D01*
X103447619Y-88116666D01*
X104352380Y-87164285D02*
X104352380Y-87735714D01*
X104352380Y-87450000D02*
X103352380Y-87450000D01*
X103495238Y-87545238D01*
X103590476Y-87640476D01*
X103638095Y-87735714D01*
X175607142Y-88166666D02*
X175654761Y-88214285D01*
X175702380Y-88357142D01*
X175702380Y-88452380D01*
X175654761Y-88595238D01*
X175559523Y-88690476D01*
X175464285Y-88738095D01*
X175273809Y-88785714D01*
X175130952Y-88785714D01*
X174940476Y-88738095D01*
X174845238Y-88690476D01*
X174750000Y-88595238D01*
X174702380Y-88452380D01*
X174702380Y-88357142D01*
X174750000Y-88214285D01*
X174797619Y-88166666D01*
X174797619Y-87785714D02*
X174750000Y-87738095D01*
X174702380Y-87642857D01*
X174702380Y-87404761D01*
X174750000Y-87309523D01*
X174797619Y-87261904D01*
X174892857Y-87214285D01*
X174988095Y-87214285D01*
X175130952Y-87261904D01*
X175702380Y-87833333D01*
X175702380Y-87214285D01*
X161707142Y-93066666D02*
X161754761Y-93114285D01*
X161802380Y-93257142D01*
X161802380Y-93352380D01*
X161754761Y-93495238D01*
X161659523Y-93590476D01*
X161564285Y-93638095D01*
X161373809Y-93685714D01*
X161230952Y-93685714D01*
X161040476Y-93638095D01*
X160945238Y-93590476D01*
X160850000Y-93495238D01*
X160802380Y-93352380D01*
X160802380Y-93257142D01*
X160850000Y-93114285D01*
X160897619Y-93066666D01*
X160802380Y-92733333D02*
X160802380Y-92114285D01*
X161183333Y-92447619D01*
X161183333Y-92304761D01*
X161230952Y-92209523D01*
X161278571Y-92161904D01*
X161373809Y-92114285D01*
X161611904Y-92114285D01*
X161707142Y-92161904D01*
X161754761Y-92209523D01*
X161802380Y-92304761D01*
X161802380Y-92590476D01*
X161754761Y-92685714D01*
X161707142Y-92733333D01*
X130807142Y-90316666D02*
X130854761Y-90364285D01*
X130902380Y-90507142D01*
X130902380Y-90602380D01*
X130854761Y-90745238D01*
X130759523Y-90840476D01*
X130664285Y-90888095D01*
X130473809Y-90935714D01*
X130330952Y-90935714D01*
X130140476Y-90888095D01*
X130045238Y-90840476D01*
X129950000Y-90745238D01*
X129902380Y-90602380D01*
X129902380Y-90507142D01*
X129950000Y-90364285D01*
X129997619Y-90316666D01*
X129902380Y-89411904D02*
X129902380Y-89888095D01*
X130378571Y-89935714D01*
X130330952Y-89888095D01*
X130283333Y-89792857D01*
X130283333Y-89554761D01*
X130330952Y-89459523D01*
X130378571Y-89411904D01*
X130473809Y-89364285D01*
X130711904Y-89364285D01*
X130807142Y-89411904D01*
X130854761Y-89459523D01*
X130902380Y-89554761D01*
X130902380Y-89792857D01*
X130854761Y-89888095D01*
X130807142Y-89935714D01*
X164557142Y-121166666D02*
X164604761Y-121214285D01*
X164652380Y-121357142D01*
X164652380Y-121452380D01*
X164604761Y-121595238D01*
X164509523Y-121690476D01*
X164414285Y-121738095D01*
X164223809Y-121785714D01*
X164080952Y-121785714D01*
X163890476Y-121738095D01*
X163795238Y-121690476D01*
X163700000Y-121595238D01*
X163652380Y-121452380D01*
X163652380Y-121357142D01*
X163700000Y-121214285D01*
X163747619Y-121166666D01*
X163652380Y-120309523D02*
X163652380Y-120500000D01*
X163700000Y-120595238D01*
X163747619Y-120642857D01*
X163890476Y-120738095D01*
X164080952Y-120785714D01*
X164461904Y-120785714D01*
X164557142Y-120738095D01*
X164604761Y-120690476D01*
X164652380Y-120595238D01*
X164652380Y-120404761D01*
X164604761Y-120309523D01*
X164557142Y-120261904D01*
X164461904Y-120214285D01*
X164223809Y-120214285D01*
X164128571Y-120261904D01*
X164080952Y-120309523D01*
X164033333Y-120404761D01*
X164033333Y-120595238D01*
X164080952Y-120690476D01*
X164128571Y-120738095D01*
X164223809Y-120785714D01*
X159033333Y-115557142D02*
X158985714Y-115604761D01*
X158842857Y-115652380D01*
X158747619Y-115652380D01*
X158604761Y-115604761D01*
X158509523Y-115509523D01*
X158461904Y-115414285D01*
X158414285Y-115223809D01*
X158414285Y-115080952D01*
X158461904Y-114890476D01*
X158509523Y-114795238D01*
X158604761Y-114700000D01*
X158747619Y-114652380D01*
X158842857Y-114652380D01*
X158985714Y-114700000D01*
X159033333Y-114747619D01*
X159366666Y-114652380D02*
X160033333Y-114652380D01*
X159604761Y-115652380D01*
X144002380Y-86838095D02*
X143002380Y-86838095D01*
X143002380Y-86600000D01*
X143050000Y-86457142D01*
X143145238Y-86361904D01*
X143240476Y-86314285D01*
X143430952Y-86266666D01*
X143573809Y-86266666D01*
X143764285Y-86314285D01*
X143859523Y-86361904D01*
X143954761Y-86457142D01*
X144002380Y-86600000D01*
X144002380Y-86838095D01*
X144002380Y-85314285D02*
X144002380Y-85885714D01*
X144002380Y-85600000D02*
X143002380Y-85600000D01*
X143145238Y-85695238D01*
X143240476Y-85790476D01*
X143288095Y-85885714D01*
X114352380Y-86338095D02*
X113352380Y-86338095D01*
X113352380Y-86100000D01*
X113400000Y-85957142D01*
X113495238Y-85861904D01*
X113590476Y-85814285D01*
X113780952Y-85766666D01*
X113923809Y-85766666D01*
X114114285Y-85814285D01*
X114209523Y-85861904D01*
X114304761Y-85957142D01*
X114352380Y-86100000D01*
X114352380Y-86338095D01*
X113447619Y-85385714D02*
X113400000Y-85338095D01*
X113352380Y-85242857D01*
X113352380Y-85004761D01*
X113400000Y-84909523D01*
X113447619Y-84861904D01*
X113542857Y-84814285D01*
X113638095Y-84814285D01*
X113780952Y-84861904D01*
X114352380Y-85433333D01*
X114352380Y-84814285D01*
X152302380Y-111688095D02*
X151302380Y-111688095D01*
X151302380Y-111450000D01*
X151350000Y-111307142D01*
X151445238Y-111211904D01*
X151540476Y-111164285D01*
X151730952Y-111116666D01*
X151873809Y-111116666D01*
X152064285Y-111164285D01*
X152159523Y-111211904D01*
X152254761Y-111307142D01*
X152302380Y-111450000D01*
X152302380Y-111688095D01*
X151302380Y-110783333D02*
X151302380Y-110164285D01*
X151683333Y-110497619D01*
X151683333Y-110354761D01*
X151730952Y-110259523D01*
X151778571Y-110211904D01*
X151873809Y-110164285D01*
X152111904Y-110164285D01*
X152207142Y-110211904D01*
X152254761Y-110259523D01*
X152302380Y-110354761D01*
X152302380Y-110640476D01*
X152254761Y-110735714D01*
X152207142Y-110783333D01*
X106781904Y-117140380D02*
X106781904Y-116140380D01*
X107020000Y-116140380D01*
X107162857Y-116188000D01*
X107258095Y-116283238D01*
X107305714Y-116378476D01*
X107353333Y-116568952D01*
X107353333Y-116711809D01*
X107305714Y-116902285D01*
X107258095Y-116997523D01*
X107162857Y-117092761D01*
X107020000Y-117140380D01*
X106781904Y-117140380D01*
X108210476Y-116473714D02*
X108210476Y-117140380D01*
X107972380Y-116092761D02*
X107734285Y-116807047D01*
X108353333Y-116807047D01*
X165922380Y-110126190D02*
X164922380Y-110126190D01*
X165874761Y-109697619D02*
X165922380Y-109554761D01*
X165922380Y-109316666D01*
X165874761Y-109221428D01*
X165827142Y-109173809D01*
X165731904Y-109126190D01*
X165636666Y-109126190D01*
X165541428Y-109173809D01*
X165493809Y-109221428D01*
X165446190Y-109316666D01*
X165398571Y-109507142D01*
X165350952Y-109602380D01*
X165303333Y-109650000D01*
X165208095Y-109697619D01*
X165112857Y-109697619D01*
X165017619Y-109650000D01*
X164970000Y-109602380D01*
X164922380Y-109507142D01*
X164922380Y-109269047D01*
X164970000Y-109126190D01*
X164922380Y-108507142D02*
X164922380Y-108316666D01*
X164970000Y-108221428D01*
X165065238Y-108126190D01*
X165255714Y-108078571D01*
X165589047Y-108078571D01*
X165779523Y-108126190D01*
X165874761Y-108221428D01*
X165922380Y-108316666D01*
X165922380Y-108507142D01*
X165874761Y-108602380D01*
X165779523Y-108697619D01*
X165589047Y-108745238D01*
X165255714Y-108745238D01*
X165065238Y-108697619D01*
X164970000Y-108602380D01*
X164922380Y-108507142D01*
X165922380Y-107126190D02*
X165922380Y-107697619D01*
X165922380Y-107411904D02*
X164922380Y-107411904D01*
X165065238Y-107507142D01*
X165160476Y-107602380D01*
X165208095Y-107697619D01*
X141502380Y-108326190D02*
X140502380Y-108326190D01*
X141454761Y-107897619D02*
X141502380Y-107754761D01*
X141502380Y-107516666D01*
X141454761Y-107421428D01*
X141407142Y-107373809D01*
X141311904Y-107326190D01*
X141216666Y-107326190D01*
X141121428Y-107373809D01*
X141073809Y-107421428D01*
X141026190Y-107516666D01*
X140978571Y-107707142D01*
X140930952Y-107802380D01*
X140883333Y-107850000D01*
X140788095Y-107897619D01*
X140692857Y-107897619D01*
X140597619Y-107850000D01*
X140550000Y-107802380D01*
X140502380Y-107707142D01*
X140502380Y-107469047D01*
X140550000Y-107326190D01*
X140502380Y-106707142D02*
X140502380Y-106516666D01*
X140550000Y-106421428D01*
X140645238Y-106326190D01*
X140835714Y-106278571D01*
X141169047Y-106278571D01*
X141359523Y-106326190D01*
X141454761Y-106421428D01*
X141502380Y-106516666D01*
X141502380Y-106707142D01*
X141454761Y-106802380D01*
X141359523Y-106897619D01*
X141169047Y-106945238D01*
X140835714Y-106945238D01*
X140645238Y-106897619D01*
X140550000Y-106802380D01*
X140502380Y-106707142D01*
X140597619Y-105897619D02*
X140550000Y-105850000D01*
X140502380Y-105754761D01*
X140502380Y-105516666D01*
X140550000Y-105421428D01*
X140597619Y-105373809D01*
X140692857Y-105326190D01*
X140788095Y-105326190D01*
X140930952Y-105373809D01*
X141502380Y-105945238D01*
X141502380Y-105326190D01*
X105316666Y-84627380D02*
X105316666Y-85341666D01*
X105269047Y-85484523D01*
X105173809Y-85579761D01*
X105030952Y-85627380D01*
X104935714Y-85627380D01*
X106316666Y-85627380D02*
X105745238Y-85627380D01*
X106030952Y-85627380D02*
X106030952Y-84627380D01*
X105935714Y-84770238D01*
X105840476Y-84865476D01*
X105745238Y-84913095D01*
X110352380Y-87966666D02*
X109876190Y-88300000D01*
X110352380Y-88538095D02*
X109352380Y-88538095D01*
X109352380Y-88157142D01*
X109400000Y-88061904D01*
X109447619Y-88014285D01*
X109542857Y-87966666D01*
X109685714Y-87966666D01*
X109780952Y-88014285D01*
X109828571Y-88061904D01*
X109876190Y-88157142D01*
X109876190Y-88538095D01*
X110352380Y-87490476D02*
X110352380Y-87300000D01*
X110304761Y-87204761D01*
X110257142Y-87157142D01*
X110114285Y-87061904D01*
X109923809Y-87014285D01*
X109542857Y-87014285D01*
X109447619Y-87061904D01*
X109400000Y-87109523D01*
X109352380Y-87204761D01*
X109352380Y-87395238D01*
X109400000Y-87490476D01*
X109447619Y-87538095D01*
X109542857Y-87585714D01*
X109780952Y-87585714D01*
X109876190Y-87538095D01*
X109923809Y-87490476D01*
X109971428Y-87395238D01*
X109971428Y-87204761D01*
X109923809Y-87109523D01*
X109876190Y-87061904D01*
X109780952Y-87014285D01*
X108552380Y-87966667D02*
X108076190Y-88300000D01*
X108552380Y-88538095D02*
X107552380Y-88538095D01*
X107552380Y-88157143D01*
X107600000Y-88061905D01*
X107647619Y-88014286D01*
X107742857Y-87966667D01*
X107885714Y-87966667D01*
X107980952Y-88014286D01*
X108028571Y-88061905D01*
X108076190Y-88157143D01*
X108076190Y-88538095D01*
X108552380Y-87014286D02*
X108552380Y-87585714D01*
X108552380Y-87300000D02*
X107552380Y-87300000D01*
X107695238Y-87395238D01*
X107790476Y-87490476D01*
X107838095Y-87585714D01*
X107552380Y-86395238D02*
X107552380Y-86300000D01*
X107600000Y-86204762D01*
X107647619Y-86157143D01*
X107742857Y-86109524D01*
X107933333Y-86061905D01*
X108171428Y-86061905D01*
X108361904Y-86109524D01*
X108457142Y-86157143D01*
X108504761Y-86204762D01*
X108552380Y-86300000D01*
X108552380Y-86395238D01*
X108504761Y-86490476D01*
X108457142Y-86538095D01*
X108361904Y-86585714D01*
X108171428Y-86633333D01*
X107933333Y-86633333D01*
X107742857Y-86585714D01*
X107647619Y-86538095D01*
X107600000Y-86490476D01*
X107552380Y-86395238D01*
X107373143Y-97536481D02*
X107039810Y-97060291D01*
X106801715Y-97536481D02*
X106801715Y-96536481D01*
X107182667Y-96536481D01*
X107277905Y-96584101D01*
X107325524Y-96631720D01*
X107373143Y-96726958D01*
X107373143Y-96869815D01*
X107325524Y-96965053D01*
X107277905Y-97012672D01*
X107182667Y-97060291D01*
X106801715Y-97060291D01*
X108325524Y-97536481D02*
X107754096Y-97536481D01*
X108039810Y-97536481D02*
X108039810Y-96536481D01*
X107944572Y-96679339D01*
X107849334Y-96774577D01*
X107754096Y-96822196D01*
X108658858Y-96536481D02*
X109277905Y-96536481D01*
X108944572Y-96917434D01*
X109087429Y-96917434D01*
X109182667Y-96965053D01*
X109230286Y-97012672D01*
X109277905Y-97107910D01*
X109277905Y-97346005D01*
X109230286Y-97441243D01*
X109182667Y-97488862D01*
X109087429Y-97536481D01*
X108801715Y-97536481D01*
X108706477Y-97488862D01*
X108658858Y-97441243D01*
X122627380Y-91892857D02*
X122151190Y-92226190D01*
X122627380Y-92464285D02*
X121627380Y-92464285D01*
X121627380Y-92083333D01*
X121675000Y-91988095D01*
X121722619Y-91940476D01*
X121817857Y-91892857D01*
X121960714Y-91892857D01*
X122055952Y-91940476D01*
X122103571Y-91988095D01*
X122151190Y-92083333D01*
X122151190Y-92464285D01*
X122627380Y-90940476D02*
X122627380Y-91511904D01*
X122627380Y-91226190D02*
X121627380Y-91226190D01*
X121770238Y-91321428D01*
X121865476Y-91416666D01*
X121913095Y-91511904D01*
X121960714Y-90083333D02*
X122627380Y-90083333D01*
X121579761Y-90321428D02*
X122294047Y-90559523D01*
X122294047Y-89940476D01*
X144002380Y-90542857D02*
X143526190Y-90876190D01*
X144002380Y-91114285D02*
X143002380Y-91114285D01*
X143002380Y-90733333D01*
X143050000Y-90638095D01*
X143097619Y-90590476D01*
X143192857Y-90542857D01*
X143335714Y-90542857D01*
X143430952Y-90590476D01*
X143478571Y-90638095D01*
X143526190Y-90733333D01*
X143526190Y-91114285D01*
X144002380Y-89590476D02*
X144002380Y-90161904D01*
X144002380Y-89876190D02*
X143002380Y-89876190D01*
X143145238Y-89971428D01*
X143240476Y-90066666D01*
X143288095Y-90161904D01*
X143002380Y-88685714D02*
X143002380Y-89161904D01*
X143478571Y-89209523D01*
X143430952Y-89161904D01*
X143383333Y-89066666D01*
X143383333Y-88828571D01*
X143430952Y-88733333D01*
X143478571Y-88685714D01*
X143573809Y-88638095D01*
X143811904Y-88638095D01*
X143907142Y-88685714D01*
X143954761Y-88733333D01*
X144002380Y-88828571D01*
X144002380Y-89066666D01*
X143954761Y-89161904D01*
X143907142Y-89209523D01*
X114352380Y-91267857D02*
X113876190Y-91601190D01*
X114352380Y-91839285D02*
X113352380Y-91839285D01*
X113352380Y-91458333D01*
X113400000Y-91363095D01*
X113447619Y-91315476D01*
X113542857Y-91267857D01*
X113685714Y-91267857D01*
X113780952Y-91315476D01*
X113828571Y-91363095D01*
X113876190Y-91458333D01*
X113876190Y-91839285D01*
X114352380Y-90315476D02*
X114352380Y-90886904D01*
X114352380Y-90601190D02*
X113352380Y-90601190D01*
X113495238Y-90696428D01*
X113590476Y-90791666D01*
X113638095Y-90886904D01*
X113352380Y-89458333D02*
X113352380Y-89648809D01*
X113400000Y-89744047D01*
X113447619Y-89791666D01*
X113590476Y-89886904D01*
X113780952Y-89934523D01*
X114161904Y-89934523D01*
X114257142Y-89886904D01*
X114304761Y-89839285D01*
X114352380Y-89744047D01*
X114352380Y-89553571D01*
X114304761Y-89458333D01*
X114257142Y-89410714D01*
X114161904Y-89363095D01*
X113923809Y-89363095D01*
X113828571Y-89410714D01*
X113780952Y-89458333D01*
X113733333Y-89553571D01*
X113733333Y-89744047D01*
X113780952Y-89839285D01*
X113828571Y-89886904D01*
X113923809Y-89934523D01*
X154302380Y-111192857D02*
X153826190Y-111526190D01*
X154302380Y-111764285D02*
X153302380Y-111764285D01*
X153302380Y-111383333D01*
X153350000Y-111288095D01*
X153397619Y-111240476D01*
X153492857Y-111192857D01*
X153635714Y-111192857D01*
X153730952Y-111240476D01*
X153778571Y-111288095D01*
X153826190Y-111383333D01*
X153826190Y-111764285D01*
X153397619Y-110811904D02*
X153350000Y-110764285D01*
X153302380Y-110669047D01*
X153302380Y-110430952D01*
X153350000Y-110335714D01*
X153397619Y-110288095D01*
X153492857Y-110240476D01*
X153588095Y-110240476D01*
X153730952Y-110288095D01*
X154302380Y-110859523D01*
X154302380Y-110240476D01*
X153302380Y-109621428D02*
X153302380Y-109526190D01*
X153350000Y-109430952D01*
X153397619Y-109383333D01*
X153492857Y-109335714D01*
X153683333Y-109288095D01*
X153921428Y-109288095D01*
X154111904Y-109335714D01*
X154207142Y-109383333D01*
X154254761Y-109430952D01*
X154302380Y-109526190D01*
X154302380Y-109621428D01*
X154254761Y-109716666D01*
X154207142Y-109764285D01*
X154111904Y-109811904D01*
X153921428Y-109859523D01*
X153683333Y-109859523D01*
X153492857Y-109811904D01*
X153397619Y-109764285D01*
X153350000Y-109716666D01*
X153302380Y-109621428D01*
X110677142Y-117140380D02*
X110343809Y-116664190D01*
X110105714Y-117140380D02*
X110105714Y-116140380D01*
X110486666Y-116140380D01*
X110581904Y-116188000D01*
X110629523Y-116235619D01*
X110677142Y-116330857D01*
X110677142Y-116473714D01*
X110629523Y-116568952D01*
X110581904Y-116616571D01*
X110486666Y-116664190D01*
X110105714Y-116664190D01*
X111058095Y-116235619D02*
X111105714Y-116188000D01*
X111200952Y-116140380D01*
X111439047Y-116140380D01*
X111534285Y-116188000D01*
X111581904Y-116235619D01*
X111629523Y-116330857D01*
X111629523Y-116426095D01*
X111581904Y-116568952D01*
X111010476Y-117140380D01*
X111629523Y-117140380D01*
X112581904Y-117140380D02*
X112010476Y-117140380D01*
X112296190Y-117140380D02*
X112296190Y-116140380D01*
X112200952Y-116283238D01*
X112105714Y-116378476D01*
X112010476Y-116426095D01*
X152275580Y-104611257D02*
X151799390Y-104944590D01*
X152275580Y-105182685D02*
X151275580Y-105182685D01*
X151275580Y-104801733D01*
X151323200Y-104706495D01*
X151370819Y-104658876D01*
X151466057Y-104611257D01*
X151608914Y-104611257D01*
X151704152Y-104658876D01*
X151751771Y-104706495D01*
X151799390Y-104801733D01*
X151799390Y-105182685D01*
X151370819Y-104230304D02*
X151323200Y-104182685D01*
X151275580Y-104087447D01*
X151275580Y-103849352D01*
X151323200Y-103754114D01*
X151370819Y-103706495D01*
X151466057Y-103658876D01*
X151561295Y-103658876D01*
X151704152Y-103706495D01*
X152275580Y-104277923D01*
X152275580Y-103658876D01*
X151370819Y-103277923D02*
X151323200Y-103230304D01*
X151275580Y-103135066D01*
X151275580Y-102896971D01*
X151323200Y-102801733D01*
X151370819Y-102754114D01*
X151466057Y-102706495D01*
X151561295Y-102706495D01*
X151704152Y-102754114D01*
X152275580Y-103325542D01*
X152275580Y-102706495D01*
X145357142Y-99652380D02*
X145023809Y-99176190D01*
X144785714Y-99652380D02*
X144785714Y-98652380D01*
X145166666Y-98652380D01*
X145261904Y-98700000D01*
X145309523Y-98747619D01*
X145357142Y-98842857D01*
X145357142Y-98985714D01*
X145309523Y-99080952D01*
X145261904Y-99128571D01*
X145166666Y-99176190D01*
X144785714Y-99176190D01*
X145738095Y-98747619D02*
X145785714Y-98700000D01*
X145880952Y-98652380D01*
X146119047Y-98652380D01*
X146214285Y-98700000D01*
X146261904Y-98747619D01*
X146309523Y-98842857D01*
X146309523Y-98938095D01*
X146261904Y-99080952D01*
X145690476Y-99652380D01*
X146309523Y-99652380D01*
X146642857Y-98652380D02*
X147261904Y-98652380D01*
X146928571Y-99033333D01*
X147071428Y-99033333D01*
X147166666Y-99080952D01*
X147214285Y-99128571D01*
X147261904Y-99223809D01*
X147261904Y-99461904D01*
X147214285Y-99557142D01*
X147166666Y-99604761D01*
X147071428Y-99652380D01*
X146785714Y-99652380D01*
X146690476Y-99604761D01*
X146642857Y-99557142D01*
X140052380Y-99442857D02*
X139576190Y-99776190D01*
X140052380Y-100014285D02*
X139052380Y-100014285D01*
X139052380Y-99633333D01*
X139100000Y-99538095D01*
X139147619Y-99490476D01*
X139242857Y-99442857D01*
X139385714Y-99442857D01*
X139480952Y-99490476D01*
X139528571Y-99538095D01*
X139576190Y-99633333D01*
X139576190Y-100014285D01*
X139147619Y-99061904D02*
X139100000Y-99014285D01*
X139052380Y-98919047D01*
X139052380Y-98680952D01*
X139100000Y-98585714D01*
X139147619Y-98538095D01*
X139242857Y-98490476D01*
X139338095Y-98490476D01*
X139480952Y-98538095D01*
X140052380Y-99109523D01*
X140052380Y-98490476D01*
X139052380Y-97633333D02*
X139052380Y-97823809D01*
X139100000Y-97919047D01*
X139147619Y-97966666D01*
X139290476Y-98061904D01*
X139480952Y-98109523D01*
X139861904Y-98109523D01*
X139957142Y-98061904D01*
X140004761Y-98014285D01*
X140052380Y-97919047D01*
X140052380Y-97728571D01*
X140004761Y-97633333D01*
X139957142Y-97585714D01*
X139861904Y-97538095D01*
X139623809Y-97538095D01*
X139528571Y-97585714D01*
X139480952Y-97633333D01*
X139433333Y-97728571D01*
X139433333Y-97919047D01*
X139480952Y-98014285D01*
X139528571Y-98061904D01*
X139623809Y-98109523D01*
X149452380Y-114842857D02*
X148976190Y-115176190D01*
X149452380Y-115414285D02*
X148452380Y-115414285D01*
X148452380Y-115033333D01*
X148500000Y-114938095D01*
X148547619Y-114890476D01*
X148642857Y-114842857D01*
X148785714Y-114842857D01*
X148880952Y-114890476D01*
X148928571Y-114938095D01*
X148976190Y-115033333D01*
X148976190Y-115414285D01*
X148547619Y-114461904D02*
X148500000Y-114414285D01*
X148452380Y-114319047D01*
X148452380Y-114080952D01*
X148500000Y-113985714D01*
X148547619Y-113938095D01*
X148642857Y-113890476D01*
X148738095Y-113890476D01*
X148880952Y-113938095D01*
X149452380Y-114509523D01*
X149452380Y-113890476D01*
X149452380Y-113414285D02*
X149452380Y-113223809D01*
X149404761Y-113128571D01*
X149357142Y-113080952D01*
X149214285Y-112985714D01*
X149023809Y-112938095D01*
X148642857Y-112938095D01*
X148547619Y-112985714D01*
X148500000Y-113033333D01*
X148452380Y-113128571D01*
X148452380Y-113319047D01*
X148500000Y-113414285D01*
X148547619Y-113461904D01*
X148642857Y-113509523D01*
X148880952Y-113509523D01*
X148976190Y-113461904D01*
X149023809Y-113414285D01*
X149071428Y-113319047D01*
X149071428Y-113128571D01*
X149023809Y-113033333D01*
X148976190Y-112985714D01*
X148880952Y-112938095D01*
X143852380Y-115042857D02*
X143376190Y-115376190D01*
X143852380Y-115614285D02*
X142852380Y-115614285D01*
X142852380Y-115233333D01*
X142900000Y-115138095D01*
X142947619Y-115090476D01*
X143042857Y-115042857D01*
X143185714Y-115042857D01*
X143280952Y-115090476D01*
X143328571Y-115138095D01*
X143376190Y-115233333D01*
X143376190Y-115614285D01*
X142852380Y-114709523D02*
X142852380Y-114090476D01*
X143233333Y-114423809D01*
X143233333Y-114280952D01*
X143280952Y-114185714D01*
X143328571Y-114138095D01*
X143423809Y-114090476D01*
X143661904Y-114090476D01*
X143757142Y-114138095D01*
X143804761Y-114185714D01*
X143852380Y-114280952D01*
X143852380Y-114566666D01*
X143804761Y-114661904D01*
X143757142Y-114709523D01*
X142852380Y-113471428D02*
X142852380Y-113376190D01*
X142900000Y-113280952D01*
X142947619Y-113233333D01*
X143042857Y-113185714D01*
X143233333Y-113138095D01*
X143471428Y-113138095D01*
X143661904Y-113185714D01*
X143757142Y-113233333D01*
X143804761Y-113280952D01*
X143852380Y-113376190D01*
X143852380Y-113471428D01*
X143804761Y-113566666D01*
X143757142Y-113614285D01*
X143661904Y-113661904D01*
X143471428Y-113709523D01*
X143233333Y-113709523D01*
X143042857Y-113661904D01*
X142947619Y-113614285D01*
X142900000Y-113566666D01*
X142852380Y-113471428D01*
X129902380Y-114592857D02*
X129426190Y-114926190D01*
X129902380Y-115164285D02*
X128902380Y-115164285D01*
X128902380Y-114783333D01*
X128950000Y-114688095D01*
X128997619Y-114640476D01*
X129092857Y-114592857D01*
X129235714Y-114592857D01*
X129330952Y-114640476D01*
X129378571Y-114688095D01*
X129426190Y-114783333D01*
X129426190Y-115164285D01*
X128902380Y-114259523D02*
X128902380Y-113640476D01*
X129283333Y-113973809D01*
X129283333Y-113830952D01*
X129330952Y-113735714D01*
X129378571Y-113688095D01*
X129473809Y-113640476D01*
X129711904Y-113640476D01*
X129807142Y-113688095D01*
X129854761Y-113735714D01*
X129902380Y-113830952D01*
X129902380Y-114116666D01*
X129854761Y-114211904D01*
X129807142Y-114259523D01*
X129902380Y-112688095D02*
X129902380Y-113259523D01*
X129902380Y-112973809D02*
X128902380Y-112973809D01*
X129045238Y-113069047D01*
X129140476Y-113164285D01*
X129188095Y-113259523D01*
X156152380Y-118861904D02*
X156961904Y-118861904D01*
X157057142Y-118814285D01*
X157104761Y-118766666D01*
X157152380Y-118671428D01*
X157152380Y-118480952D01*
X157104761Y-118385714D01*
X157057142Y-118338095D01*
X156961904Y-118290476D01*
X156152380Y-118290476D01*
X156485714Y-117385714D02*
X157152380Y-117385714D01*
X156104761Y-117623809D02*
X156819047Y-117861904D01*
X156819047Y-117242857D01*
X131238095Y-98252380D02*
X131238095Y-99061904D01*
X131285714Y-99157142D01*
X131333333Y-99204761D01*
X131428571Y-99252380D01*
X131619047Y-99252380D01*
X131714285Y-99204761D01*
X131761904Y-99157142D01*
X131809523Y-99061904D01*
X131809523Y-98252380D01*
X132428571Y-98680952D02*
X132333333Y-98633333D01*
X132285714Y-98585714D01*
X132238095Y-98490476D01*
X132238095Y-98442857D01*
X132285714Y-98347619D01*
X132333333Y-98300000D01*
X132428571Y-98252380D01*
X132619047Y-98252380D01*
X132714285Y-98300000D01*
X132761904Y-98347619D01*
X132809523Y-98442857D01*
X132809523Y-98490476D01*
X132761904Y-98585714D01*
X132714285Y-98633333D01*
X132619047Y-98680952D01*
X132428571Y-98680952D01*
X132333333Y-98728571D01*
X132285714Y-98776190D01*
X132238095Y-98871428D01*
X132238095Y-99061904D01*
X132285714Y-99157142D01*
X132333333Y-99204761D01*
X132428571Y-99252380D01*
X132619047Y-99252380D01*
X132714285Y-99204761D01*
X132761904Y-99157142D01*
X132809523Y-99061904D01*
X132809523Y-98871428D01*
X132761904Y-98776190D01*
X132714285Y-98728571D01*
X132619047Y-98680952D01*
X133652380Y-119161904D02*
X134461904Y-119161904D01*
X134557142Y-119114285D01*
X134604761Y-119066666D01*
X134652380Y-118971428D01*
X134652380Y-118780952D01*
X134604761Y-118685714D01*
X134557142Y-118638095D01*
X134461904Y-118590476D01*
X133652380Y-118590476D01*
X134652380Y-118066666D02*
X134652380Y-117876190D01*
X134604761Y-117780952D01*
X134557142Y-117733333D01*
X134414285Y-117638095D01*
X134223809Y-117590476D01*
X133842857Y-117590476D01*
X133747619Y-117638095D01*
X133700000Y-117685714D01*
X133652380Y-117780952D01*
X133652380Y-117971428D01*
X133700000Y-118066666D01*
X133747619Y-118114285D01*
X133842857Y-118161904D01*
X134080952Y-118161904D01*
X134176190Y-118114285D01*
X134223809Y-118066666D01*
X134271428Y-117971428D01*
X134271428Y-117780952D01*
X134223809Y-117685714D01*
X134176190Y-117638095D01*
X134080952Y-117590476D01*
M02*
