G04 #@! TF.GenerationSoftware,KiCad,Pcbnew,(5.1.4)-1*
G04 #@! TF.CreationDate,2019-10-11T16:00:27-04:00*
G04 #@! TF.ProjectId,CellMan,43656c6c-4d61-46e2-9e6b-696361645f70,0.1*
G04 #@! TF.SameCoordinates,Original*
G04 #@! TF.FileFunction,Paste,Bot*
G04 #@! TF.FilePolarity,Positive*
%FSLAX46Y46*%
G04 Gerber Fmt 4.6, Leading zero omitted, Abs format (unit mm)*
G04 Created by KiCad (PCBNEW (5.1.4)-1) date 2019-10-11 16:00:27*
%MOMM*%
%LPD*%
G04 APERTURE LIST*
%ADD10C,0.100000*%
%ADD11C,0.875000*%
%ADD12R,1.500000X0.450000*%
%ADD13C,1.150000*%
G04 APERTURE END LIST*
D10*
G36*
X106602691Y-94626053D02*
G01*
X106623926Y-94629203D01*
X106644750Y-94634419D01*
X106664962Y-94641651D01*
X106684368Y-94650830D01*
X106702781Y-94661866D01*
X106720024Y-94674654D01*
X106735930Y-94689070D01*
X106750346Y-94704976D01*
X106763134Y-94722219D01*
X106774170Y-94740632D01*
X106783349Y-94760038D01*
X106790581Y-94780250D01*
X106795797Y-94801074D01*
X106798947Y-94822309D01*
X106800000Y-94843750D01*
X106800000Y-95356250D01*
X106798947Y-95377691D01*
X106795797Y-95398926D01*
X106790581Y-95419750D01*
X106783349Y-95439962D01*
X106774170Y-95459368D01*
X106763134Y-95477781D01*
X106750346Y-95495024D01*
X106735930Y-95510930D01*
X106720024Y-95525346D01*
X106702781Y-95538134D01*
X106684368Y-95549170D01*
X106664962Y-95558349D01*
X106644750Y-95565581D01*
X106623926Y-95570797D01*
X106602691Y-95573947D01*
X106581250Y-95575000D01*
X106143750Y-95575000D01*
X106122309Y-95573947D01*
X106101074Y-95570797D01*
X106080250Y-95565581D01*
X106060038Y-95558349D01*
X106040632Y-95549170D01*
X106022219Y-95538134D01*
X106004976Y-95525346D01*
X105989070Y-95510930D01*
X105974654Y-95495024D01*
X105961866Y-95477781D01*
X105950830Y-95459368D01*
X105941651Y-95439962D01*
X105934419Y-95419750D01*
X105929203Y-95398926D01*
X105926053Y-95377691D01*
X105925000Y-95356250D01*
X105925000Y-94843750D01*
X105926053Y-94822309D01*
X105929203Y-94801074D01*
X105934419Y-94780250D01*
X105941651Y-94760038D01*
X105950830Y-94740632D01*
X105961866Y-94722219D01*
X105974654Y-94704976D01*
X105989070Y-94689070D01*
X106004976Y-94674654D01*
X106022219Y-94661866D01*
X106040632Y-94650830D01*
X106060038Y-94641651D01*
X106080250Y-94634419D01*
X106101074Y-94629203D01*
X106122309Y-94626053D01*
X106143750Y-94625000D01*
X106581250Y-94625000D01*
X106602691Y-94626053D01*
X106602691Y-94626053D01*
G37*
D11*
X106362500Y-95100000D03*
D10*
G36*
X108177691Y-94626053D02*
G01*
X108198926Y-94629203D01*
X108219750Y-94634419D01*
X108239962Y-94641651D01*
X108259368Y-94650830D01*
X108277781Y-94661866D01*
X108295024Y-94674654D01*
X108310930Y-94689070D01*
X108325346Y-94704976D01*
X108338134Y-94722219D01*
X108349170Y-94740632D01*
X108358349Y-94760038D01*
X108365581Y-94780250D01*
X108370797Y-94801074D01*
X108373947Y-94822309D01*
X108375000Y-94843750D01*
X108375000Y-95356250D01*
X108373947Y-95377691D01*
X108370797Y-95398926D01*
X108365581Y-95419750D01*
X108358349Y-95439962D01*
X108349170Y-95459368D01*
X108338134Y-95477781D01*
X108325346Y-95495024D01*
X108310930Y-95510930D01*
X108295024Y-95525346D01*
X108277781Y-95538134D01*
X108259368Y-95549170D01*
X108239962Y-95558349D01*
X108219750Y-95565581D01*
X108198926Y-95570797D01*
X108177691Y-95573947D01*
X108156250Y-95575000D01*
X107718750Y-95575000D01*
X107697309Y-95573947D01*
X107676074Y-95570797D01*
X107655250Y-95565581D01*
X107635038Y-95558349D01*
X107615632Y-95549170D01*
X107597219Y-95538134D01*
X107579976Y-95525346D01*
X107564070Y-95510930D01*
X107549654Y-95495024D01*
X107536866Y-95477781D01*
X107525830Y-95459368D01*
X107516651Y-95439962D01*
X107509419Y-95419750D01*
X107504203Y-95398926D01*
X107501053Y-95377691D01*
X107500000Y-95356250D01*
X107500000Y-94843750D01*
X107501053Y-94822309D01*
X107504203Y-94801074D01*
X107509419Y-94780250D01*
X107516651Y-94760038D01*
X107525830Y-94740632D01*
X107536866Y-94722219D01*
X107549654Y-94704976D01*
X107564070Y-94689070D01*
X107579976Y-94674654D01*
X107597219Y-94661866D01*
X107615632Y-94650830D01*
X107635038Y-94641651D01*
X107655250Y-94634419D01*
X107676074Y-94629203D01*
X107697309Y-94626053D01*
X107718750Y-94625000D01*
X108156250Y-94625000D01*
X108177691Y-94626053D01*
X108177691Y-94626053D01*
G37*
D11*
X107937500Y-95100000D03*
D12*
X155870000Y-114600000D03*
X158530000Y-115250000D03*
X158530000Y-113950000D03*
D10*
G36*
X163074505Y-96001204D02*
G01*
X163098773Y-96004804D01*
X163122572Y-96010765D01*
X163145671Y-96019030D01*
X163167850Y-96029520D01*
X163188893Y-96042132D01*
X163208599Y-96056747D01*
X163226777Y-96073223D01*
X163243253Y-96091401D01*
X163257868Y-96111107D01*
X163270480Y-96132150D01*
X163280970Y-96154329D01*
X163289235Y-96177428D01*
X163295196Y-96201227D01*
X163298796Y-96225495D01*
X163300000Y-96249999D01*
X163300000Y-97150001D01*
X163298796Y-97174505D01*
X163295196Y-97198773D01*
X163289235Y-97222572D01*
X163280970Y-97245671D01*
X163270480Y-97267850D01*
X163257868Y-97288893D01*
X163243253Y-97308599D01*
X163226777Y-97326777D01*
X163208599Y-97343253D01*
X163188893Y-97357868D01*
X163167850Y-97370480D01*
X163145671Y-97380970D01*
X163122572Y-97389235D01*
X163098773Y-97395196D01*
X163074505Y-97398796D01*
X163050001Y-97400000D01*
X162399999Y-97400000D01*
X162375495Y-97398796D01*
X162351227Y-97395196D01*
X162327428Y-97389235D01*
X162304329Y-97380970D01*
X162282150Y-97370480D01*
X162261107Y-97357868D01*
X162241401Y-97343253D01*
X162223223Y-97326777D01*
X162206747Y-97308599D01*
X162192132Y-97288893D01*
X162179520Y-97267850D01*
X162169030Y-97245671D01*
X162160765Y-97222572D01*
X162154804Y-97198773D01*
X162151204Y-97174505D01*
X162150000Y-97150001D01*
X162150000Y-96249999D01*
X162151204Y-96225495D01*
X162154804Y-96201227D01*
X162160765Y-96177428D01*
X162169030Y-96154329D01*
X162179520Y-96132150D01*
X162192132Y-96111107D01*
X162206747Y-96091401D01*
X162223223Y-96073223D01*
X162241401Y-96056747D01*
X162261107Y-96042132D01*
X162282150Y-96029520D01*
X162304329Y-96019030D01*
X162327428Y-96010765D01*
X162351227Y-96004804D01*
X162375495Y-96001204D01*
X162399999Y-96000000D01*
X163050001Y-96000000D01*
X163074505Y-96001204D01*
X163074505Y-96001204D01*
G37*
D13*
X162725000Y-96700000D03*
D10*
G36*
X165124505Y-96001204D02*
G01*
X165148773Y-96004804D01*
X165172572Y-96010765D01*
X165195671Y-96019030D01*
X165217850Y-96029520D01*
X165238893Y-96042132D01*
X165258599Y-96056747D01*
X165276777Y-96073223D01*
X165293253Y-96091401D01*
X165307868Y-96111107D01*
X165320480Y-96132150D01*
X165330970Y-96154329D01*
X165339235Y-96177428D01*
X165345196Y-96201227D01*
X165348796Y-96225495D01*
X165350000Y-96249999D01*
X165350000Y-97150001D01*
X165348796Y-97174505D01*
X165345196Y-97198773D01*
X165339235Y-97222572D01*
X165330970Y-97245671D01*
X165320480Y-97267850D01*
X165307868Y-97288893D01*
X165293253Y-97308599D01*
X165276777Y-97326777D01*
X165258599Y-97343253D01*
X165238893Y-97357868D01*
X165217850Y-97370480D01*
X165195671Y-97380970D01*
X165172572Y-97389235D01*
X165148773Y-97395196D01*
X165124505Y-97398796D01*
X165100001Y-97400000D01*
X164449999Y-97400000D01*
X164425495Y-97398796D01*
X164401227Y-97395196D01*
X164377428Y-97389235D01*
X164354329Y-97380970D01*
X164332150Y-97370480D01*
X164311107Y-97357868D01*
X164291401Y-97343253D01*
X164273223Y-97326777D01*
X164256747Y-97308599D01*
X164242132Y-97288893D01*
X164229520Y-97267850D01*
X164219030Y-97245671D01*
X164210765Y-97222572D01*
X164204804Y-97198773D01*
X164201204Y-97174505D01*
X164200000Y-97150001D01*
X164200000Y-96249999D01*
X164201204Y-96225495D01*
X164204804Y-96201227D01*
X164210765Y-96177428D01*
X164219030Y-96154329D01*
X164229520Y-96132150D01*
X164242132Y-96111107D01*
X164256747Y-96091401D01*
X164273223Y-96073223D01*
X164291401Y-96056747D01*
X164311107Y-96042132D01*
X164332150Y-96029520D01*
X164354329Y-96019030D01*
X164377428Y-96010765D01*
X164401227Y-96004804D01*
X164425495Y-96001204D01*
X164449999Y-96000000D01*
X165100001Y-96000000D01*
X165124505Y-96001204D01*
X165124505Y-96001204D01*
G37*
D13*
X164775000Y-96700000D03*
D10*
G36*
X149674505Y-110201204D02*
G01*
X149698773Y-110204804D01*
X149722572Y-110210765D01*
X149745671Y-110219030D01*
X149767850Y-110229520D01*
X149788893Y-110242132D01*
X149808599Y-110256747D01*
X149826777Y-110273223D01*
X149843253Y-110291401D01*
X149857868Y-110311107D01*
X149870480Y-110332150D01*
X149880970Y-110354329D01*
X149889235Y-110377428D01*
X149895196Y-110401227D01*
X149898796Y-110425495D01*
X149900000Y-110449999D01*
X149900000Y-111100001D01*
X149898796Y-111124505D01*
X149895196Y-111148773D01*
X149889235Y-111172572D01*
X149880970Y-111195671D01*
X149870480Y-111217850D01*
X149857868Y-111238893D01*
X149843253Y-111258599D01*
X149826777Y-111276777D01*
X149808599Y-111293253D01*
X149788893Y-111307868D01*
X149767850Y-111320480D01*
X149745671Y-111330970D01*
X149722572Y-111339235D01*
X149698773Y-111345196D01*
X149674505Y-111348796D01*
X149650001Y-111350000D01*
X148749999Y-111350000D01*
X148725495Y-111348796D01*
X148701227Y-111345196D01*
X148677428Y-111339235D01*
X148654329Y-111330970D01*
X148632150Y-111320480D01*
X148611107Y-111307868D01*
X148591401Y-111293253D01*
X148573223Y-111276777D01*
X148556747Y-111258599D01*
X148542132Y-111238893D01*
X148529520Y-111217850D01*
X148519030Y-111195671D01*
X148510765Y-111172572D01*
X148504804Y-111148773D01*
X148501204Y-111124505D01*
X148500000Y-111100001D01*
X148500000Y-110449999D01*
X148501204Y-110425495D01*
X148504804Y-110401227D01*
X148510765Y-110377428D01*
X148519030Y-110354329D01*
X148529520Y-110332150D01*
X148542132Y-110311107D01*
X148556747Y-110291401D01*
X148573223Y-110273223D01*
X148591401Y-110256747D01*
X148611107Y-110242132D01*
X148632150Y-110229520D01*
X148654329Y-110219030D01*
X148677428Y-110210765D01*
X148701227Y-110204804D01*
X148725495Y-110201204D01*
X148749999Y-110200000D01*
X149650001Y-110200000D01*
X149674505Y-110201204D01*
X149674505Y-110201204D01*
G37*
D13*
X149200000Y-110775000D03*
D10*
G36*
X149674505Y-112251204D02*
G01*
X149698773Y-112254804D01*
X149722572Y-112260765D01*
X149745671Y-112269030D01*
X149767850Y-112279520D01*
X149788893Y-112292132D01*
X149808599Y-112306747D01*
X149826777Y-112323223D01*
X149843253Y-112341401D01*
X149857868Y-112361107D01*
X149870480Y-112382150D01*
X149880970Y-112404329D01*
X149889235Y-112427428D01*
X149895196Y-112451227D01*
X149898796Y-112475495D01*
X149900000Y-112499999D01*
X149900000Y-113150001D01*
X149898796Y-113174505D01*
X149895196Y-113198773D01*
X149889235Y-113222572D01*
X149880970Y-113245671D01*
X149870480Y-113267850D01*
X149857868Y-113288893D01*
X149843253Y-113308599D01*
X149826777Y-113326777D01*
X149808599Y-113343253D01*
X149788893Y-113357868D01*
X149767850Y-113370480D01*
X149745671Y-113380970D01*
X149722572Y-113389235D01*
X149698773Y-113395196D01*
X149674505Y-113398796D01*
X149650001Y-113400000D01*
X148749999Y-113400000D01*
X148725495Y-113398796D01*
X148701227Y-113395196D01*
X148677428Y-113389235D01*
X148654329Y-113380970D01*
X148632150Y-113370480D01*
X148611107Y-113357868D01*
X148591401Y-113343253D01*
X148573223Y-113326777D01*
X148556747Y-113308599D01*
X148542132Y-113288893D01*
X148529520Y-113267850D01*
X148519030Y-113245671D01*
X148510765Y-113222572D01*
X148504804Y-113198773D01*
X148501204Y-113174505D01*
X148500000Y-113150001D01*
X148500000Y-112499999D01*
X148501204Y-112475495D01*
X148504804Y-112451227D01*
X148510765Y-112427428D01*
X148519030Y-112404329D01*
X148529520Y-112382150D01*
X148542132Y-112361107D01*
X148556747Y-112341401D01*
X148573223Y-112323223D01*
X148591401Y-112306747D01*
X148611107Y-112292132D01*
X148632150Y-112279520D01*
X148654329Y-112269030D01*
X148677428Y-112260765D01*
X148701227Y-112254804D01*
X148725495Y-112251204D01*
X148749999Y-112250000D01*
X149650001Y-112250000D01*
X149674505Y-112251204D01*
X149674505Y-112251204D01*
G37*
D13*
X149200000Y-112825000D03*
D10*
G36*
X143674505Y-110201204D02*
G01*
X143698773Y-110204804D01*
X143722572Y-110210765D01*
X143745671Y-110219030D01*
X143767850Y-110229520D01*
X143788893Y-110242132D01*
X143808599Y-110256747D01*
X143826777Y-110273223D01*
X143843253Y-110291401D01*
X143857868Y-110311107D01*
X143870480Y-110332150D01*
X143880970Y-110354329D01*
X143889235Y-110377428D01*
X143895196Y-110401227D01*
X143898796Y-110425495D01*
X143900000Y-110449999D01*
X143900000Y-111100001D01*
X143898796Y-111124505D01*
X143895196Y-111148773D01*
X143889235Y-111172572D01*
X143880970Y-111195671D01*
X143870480Y-111217850D01*
X143857868Y-111238893D01*
X143843253Y-111258599D01*
X143826777Y-111276777D01*
X143808599Y-111293253D01*
X143788893Y-111307868D01*
X143767850Y-111320480D01*
X143745671Y-111330970D01*
X143722572Y-111339235D01*
X143698773Y-111345196D01*
X143674505Y-111348796D01*
X143650001Y-111350000D01*
X142749999Y-111350000D01*
X142725495Y-111348796D01*
X142701227Y-111345196D01*
X142677428Y-111339235D01*
X142654329Y-111330970D01*
X142632150Y-111320480D01*
X142611107Y-111307868D01*
X142591401Y-111293253D01*
X142573223Y-111276777D01*
X142556747Y-111258599D01*
X142542132Y-111238893D01*
X142529520Y-111217850D01*
X142519030Y-111195671D01*
X142510765Y-111172572D01*
X142504804Y-111148773D01*
X142501204Y-111124505D01*
X142500000Y-111100001D01*
X142500000Y-110449999D01*
X142501204Y-110425495D01*
X142504804Y-110401227D01*
X142510765Y-110377428D01*
X142519030Y-110354329D01*
X142529520Y-110332150D01*
X142542132Y-110311107D01*
X142556747Y-110291401D01*
X142573223Y-110273223D01*
X142591401Y-110256747D01*
X142611107Y-110242132D01*
X142632150Y-110229520D01*
X142654329Y-110219030D01*
X142677428Y-110210765D01*
X142701227Y-110204804D01*
X142725495Y-110201204D01*
X142749999Y-110200000D01*
X143650001Y-110200000D01*
X143674505Y-110201204D01*
X143674505Y-110201204D01*
G37*
D13*
X143200000Y-110775000D03*
D10*
G36*
X143674505Y-112251204D02*
G01*
X143698773Y-112254804D01*
X143722572Y-112260765D01*
X143745671Y-112269030D01*
X143767850Y-112279520D01*
X143788893Y-112292132D01*
X143808599Y-112306747D01*
X143826777Y-112323223D01*
X143843253Y-112341401D01*
X143857868Y-112361107D01*
X143870480Y-112382150D01*
X143880970Y-112404329D01*
X143889235Y-112427428D01*
X143895196Y-112451227D01*
X143898796Y-112475495D01*
X143900000Y-112499999D01*
X143900000Y-113150001D01*
X143898796Y-113174505D01*
X143895196Y-113198773D01*
X143889235Y-113222572D01*
X143880970Y-113245671D01*
X143870480Y-113267850D01*
X143857868Y-113288893D01*
X143843253Y-113308599D01*
X143826777Y-113326777D01*
X143808599Y-113343253D01*
X143788893Y-113357868D01*
X143767850Y-113370480D01*
X143745671Y-113380970D01*
X143722572Y-113389235D01*
X143698773Y-113395196D01*
X143674505Y-113398796D01*
X143650001Y-113400000D01*
X142749999Y-113400000D01*
X142725495Y-113398796D01*
X142701227Y-113395196D01*
X142677428Y-113389235D01*
X142654329Y-113380970D01*
X142632150Y-113370480D01*
X142611107Y-113357868D01*
X142591401Y-113343253D01*
X142573223Y-113326777D01*
X142556747Y-113308599D01*
X142542132Y-113288893D01*
X142529520Y-113267850D01*
X142519030Y-113245671D01*
X142510765Y-113222572D01*
X142504804Y-113198773D01*
X142501204Y-113174505D01*
X142500000Y-113150001D01*
X142500000Y-112499999D01*
X142501204Y-112475495D01*
X142504804Y-112451227D01*
X142510765Y-112427428D01*
X142519030Y-112404329D01*
X142529520Y-112382150D01*
X142542132Y-112361107D01*
X142556747Y-112341401D01*
X142573223Y-112323223D01*
X142591401Y-112306747D01*
X142611107Y-112292132D01*
X142632150Y-112279520D01*
X142654329Y-112269030D01*
X142677428Y-112260765D01*
X142701227Y-112254804D01*
X142725495Y-112251204D01*
X142749999Y-112250000D01*
X143650001Y-112250000D01*
X143674505Y-112251204D01*
X143674505Y-112251204D01*
G37*
D13*
X143200000Y-112825000D03*
D10*
G36*
X122024505Y-112251204D02*
G01*
X122048773Y-112254804D01*
X122072572Y-112260765D01*
X122095671Y-112269030D01*
X122117850Y-112279520D01*
X122138893Y-112292132D01*
X122158599Y-112306747D01*
X122176777Y-112323223D01*
X122193253Y-112341401D01*
X122207868Y-112361107D01*
X122220480Y-112382150D01*
X122230970Y-112404329D01*
X122239235Y-112427428D01*
X122245196Y-112451227D01*
X122248796Y-112475495D01*
X122250000Y-112499999D01*
X122250000Y-113400001D01*
X122248796Y-113424505D01*
X122245196Y-113448773D01*
X122239235Y-113472572D01*
X122230970Y-113495671D01*
X122220480Y-113517850D01*
X122207868Y-113538893D01*
X122193253Y-113558599D01*
X122176777Y-113576777D01*
X122158599Y-113593253D01*
X122138893Y-113607868D01*
X122117850Y-113620480D01*
X122095671Y-113630970D01*
X122072572Y-113639235D01*
X122048773Y-113645196D01*
X122024505Y-113648796D01*
X122000001Y-113650000D01*
X121349999Y-113650000D01*
X121325495Y-113648796D01*
X121301227Y-113645196D01*
X121277428Y-113639235D01*
X121254329Y-113630970D01*
X121232150Y-113620480D01*
X121211107Y-113607868D01*
X121191401Y-113593253D01*
X121173223Y-113576777D01*
X121156747Y-113558599D01*
X121142132Y-113538893D01*
X121129520Y-113517850D01*
X121119030Y-113495671D01*
X121110765Y-113472572D01*
X121104804Y-113448773D01*
X121101204Y-113424505D01*
X121100000Y-113400001D01*
X121100000Y-112499999D01*
X121101204Y-112475495D01*
X121104804Y-112451227D01*
X121110765Y-112427428D01*
X121119030Y-112404329D01*
X121129520Y-112382150D01*
X121142132Y-112361107D01*
X121156747Y-112341401D01*
X121173223Y-112323223D01*
X121191401Y-112306747D01*
X121211107Y-112292132D01*
X121232150Y-112279520D01*
X121254329Y-112269030D01*
X121277428Y-112260765D01*
X121301227Y-112254804D01*
X121325495Y-112251204D01*
X121349999Y-112250000D01*
X122000001Y-112250000D01*
X122024505Y-112251204D01*
X122024505Y-112251204D01*
G37*
D13*
X121675000Y-112950000D03*
D10*
G36*
X124074505Y-112251204D02*
G01*
X124098773Y-112254804D01*
X124122572Y-112260765D01*
X124145671Y-112269030D01*
X124167850Y-112279520D01*
X124188893Y-112292132D01*
X124208599Y-112306747D01*
X124226777Y-112323223D01*
X124243253Y-112341401D01*
X124257868Y-112361107D01*
X124270480Y-112382150D01*
X124280970Y-112404329D01*
X124289235Y-112427428D01*
X124295196Y-112451227D01*
X124298796Y-112475495D01*
X124300000Y-112499999D01*
X124300000Y-113400001D01*
X124298796Y-113424505D01*
X124295196Y-113448773D01*
X124289235Y-113472572D01*
X124280970Y-113495671D01*
X124270480Y-113517850D01*
X124257868Y-113538893D01*
X124243253Y-113558599D01*
X124226777Y-113576777D01*
X124208599Y-113593253D01*
X124188893Y-113607868D01*
X124167850Y-113620480D01*
X124145671Y-113630970D01*
X124122572Y-113639235D01*
X124098773Y-113645196D01*
X124074505Y-113648796D01*
X124050001Y-113650000D01*
X123399999Y-113650000D01*
X123375495Y-113648796D01*
X123351227Y-113645196D01*
X123327428Y-113639235D01*
X123304329Y-113630970D01*
X123282150Y-113620480D01*
X123261107Y-113607868D01*
X123241401Y-113593253D01*
X123223223Y-113576777D01*
X123206747Y-113558599D01*
X123192132Y-113538893D01*
X123179520Y-113517850D01*
X123169030Y-113495671D01*
X123160765Y-113472572D01*
X123154804Y-113448773D01*
X123151204Y-113424505D01*
X123150000Y-113400001D01*
X123150000Y-112499999D01*
X123151204Y-112475495D01*
X123154804Y-112451227D01*
X123160765Y-112427428D01*
X123169030Y-112404329D01*
X123179520Y-112382150D01*
X123192132Y-112361107D01*
X123206747Y-112341401D01*
X123223223Y-112323223D01*
X123241401Y-112306747D01*
X123261107Y-112292132D01*
X123282150Y-112279520D01*
X123304329Y-112269030D01*
X123327428Y-112260765D01*
X123351227Y-112254804D01*
X123375495Y-112251204D01*
X123399999Y-112250000D01*
X124050001Y-112250000D01*
X124074505Y-112251204D01*
X124074505Y-112251204D01*
G37*
D13*
X123725000Y-112950000D03*
D10*
G36*
X124074505Y-110301204D02*
G01*
X124098773Y-110304804D01*
X124122572Y-110310765D01*
X124145671Y-110319030D01*
X124167850Y-110329520D01*
X124188893Y-110342132D01*
X124208599Y-110356747D01*
X124226777Y-110373223D01*
X124243253Y-110391401D01*
X124257868Y-110411107D01*
X124270480Y-110432150D01*
X124280970Y-110454329D01*
X124289235Y-110477428D01*
X124295196Y-110501227D01*
X124298796Y-110525495D01*
X124300000Y-110549999D01*
X124300000Y-111450001D01*
X124298796Y-111474505D01*
X124295196Y-111498773D01*
X124289235Y-111522572D01*
X124280970Y-111545671D01*
X124270480Y-111567850D01*
X124257868Y-111588893D01*
X124243253Y-111608599D01*
X124226777Y-111626777D01*
X124208599Y-111643253D01*
X124188893Y-111657868D01*
X124167850Y-111670480D01*
X124145671Y-111680970D01*
X124122572Y-111689235D01*
X124098773Y-111695196D01*
X124074505Y-111698796D01*
X124050001Y-111700000D01*
X123399999Y-111700000D01*
X123375495Y-111698796D01*
X123351227Y-111695196D01*
X123327428Y-111689235D01*
X123304329Y-111680970D01*
X123282150Y-111670480D01*
X123261107Y-111657868D01*
X123241401Y-111643253D01*
X123223223Y-111626777D01*
X123206747Y-111608599D01*
X123192132Y-111588893D01*
X123179520Y-111567850D01*
X123169030Y-111545671D01*
X123160765Y-111522572D01*
X123154804Y-111498773D01*
X123151204Y-111474505D01*
X123150000Y-111450001D01*
X123150000Y-110549999D01*
X123151204Y-110525495D01*
X123154804Y-110501227D01*
X123160765Y-110477428D01*
X123169030Y-110454329D01*
X123179520Y-110432150D01*
X123192132Y-110411107D01*
X123206747Y-110391401D01*
X123223223Y-110373223D01*
X123241401Y-110356747D01*
X123261107Y-110342132D01*
X123282150Y-110329520D01*
X123304329Y-110319030D01*
X123327428Y-110310765D01*
X123351227Y-110304804D01*
X123375495Y-110301204D01*
X123399999Y-110300000D01*
X124050001Y-110300000D01*
X124074505Y-110301204D01*
X124074505Y-110301204D01*
G37*
D13*
X123725000Y-111000000D03*
D10*
G36*
X122024505Y-110301204D02*
G01*
X122048773Y-110304804D01*
X122072572Y-110310765D01*
X122095671Y-110319030D01*
X122117850Y-110329520D01*
X122138893Y-110342132D01*
X122158599Y-110356747D01*
X122176777Y-110373223D01*
X122193253Y-110391401D01*
X122207868Y-110411107D01*
X122220480Y-110432150D01*
X122230970Y-110454329D01*
X122239235Y-110477428D01*
X122245196Y-110501227D01*
X122248796Y-110525495D01*
X122250000Y-110549999D01*
X122250000Y-111450001D01*
X122248796Y-111474505D01*
X122245196Y-111498773D01*
X122239235Y-111522572D01*
X122230970Y-111545671D01*
X122220480Y-111567850D01*
X122207868Y-111588893D01*
X122193253Y-111608599D01*
X122176777Y-111626777D01*
X122158599Y-111643253D01*
X122138893Y-111657868D01*
X122117850Y-111670480D01*
X122095671Y-111680970D01*
X122072572Y-111689235D01*
X122048773Y-111695196D01*
X122024505Y-111698796D01*
X122000001Y-111700000D01*
X121349999Y-111700000D01*
X121325495Y-111698796D01*
X121301227Y-111695196D01*
X121277428Y-111689235D01*
X121254329Y-111680970D01*
X121232150Y-111670480D01*
X121211107Y-111657868D01*
X121191401Y-111643253D01*
X121173223Y-111626777D01*
X121156747Y-111608599D01*
X121142132Y-111588893D01*
X121129520Y-111567850D01*
X121119030Y-111545671D01*
X121110765Y-111522572D01*
X121104804Y-111498773D01*
X121101204Y-111474505D01*
X121100000Y-111450001D01*
X121100000Y-110549999D01*
X121101204Y-110525495D01*
X121104804Y-110501227D01*
X121110765Y-110477428D01*
X121119030Y-110454329D01*
X121129520Y-110432150D01*
X121142132Y-110411107D01*
X121156747Y-110391401D01*
X121173223Y-110373223D01*
X121191401Y-110356747D01*
X121211107Y-110342132D01*
X121232150Y-110329520D01*
X121254329Y-110319030D01*
X121277428Y-110310765D01*
X121301227Y-110304804D01*
X121325495Y-110301204D01*
X121349999Y-110300000D01*
X122000001Y-110300000D01*
X122024505Y-110301204D01*
X122024505Y-110301204D01*
G37*
D13*
X121675000Y-111000000D03*
D10*
G36*
X122024505Y-108351204D02*
G01*
X122048773Y-108354804D01*
X122072572Y-108360765D01*
X122095671Y-108369030D01*
X122117850Y-108379520D01*
X122138893Y-108392132D01*
X122158599Y-108406747D01*
X122176777Y-108423223D01*
X122193253Y-108441401D01*
X122207868Y-108461107D01*
X122220480Y-108482150D01*
X122230970Y-108504329D01*
X122239235Y-108527428D01*
X122245196Y-108551227D01*
X122248796Y-108575495D01*
X122250000Y-108599999D01*
X122250000Y-109500001D01*
X122248796Y-109524505D01*
X122245196Y-109548773D01*
X122239235Y-109572572D01*
X122230970Y-109595671D01*
X122220480Y-109617850D01*
X122207868Y-109638893D01*
X122193253Y-109658599D01*
X122176777Y-109676777D01*
X122158599Y-109693253D01*
X122138893Y-109707868D01*
X122117850Y-109720480D01*
X122095671Y-109730970D01*
X122072572Y-109739235D01*
X122048773Y-109745196D01*
X122024505Y-109748796D01*
X122000001Y-109750000D01*
X121349999Y-109750000D01*
X121325495Y-109748796D01*
X121301227Y-109745196D01*
X121277428Y-109739235D01*
X121254329Y-109730970D01*
X121232150Y-109720480D01*
X121211107Y-109707868D01*
X121191401Y-109693253D01*
X121173223Y-109676777D01*
X121156747Y-109658599D01*
X121142132Y-109638893D01*
X121129520Y-109617850D01*
X121119030Y-109595671D01*
X121110765Y-109572572D01*
X121104804Y-109548773D01*
X121101204Y-109524505D01*
X121100000Y-109500001D01*
X121100000Y-108599999D01*
X121101204Y-108575495D01*
X121104804Y-108551227D01*
X121110765Y-108527428D01*
X121119030Y-108504329D01*
X121129520Y-108482150D01*
X121142132Y-108461107D01*
X121156747Y-108441401D01*
X121173223Y-108423223D01*
X121191401Y-108406747D01*
X121211107Y-108392132D01*
X121232150Y-108379520D01*
X121254329Y-108369030D01*
X121277428Y-108360765D01*
X121301227Y-108354804D01*
X121325495Y-108351204D01*
X121349999Y-108350000D01*
X122000001Y-108350000D01*
X122024505Y-108351204D01*
X122024505Y-108351204D01*
G37*
D13*
X121675000Y-109050000D03*
D10*
G36*
X124074505Y-108351204D02*
G01*
X124098773Y-108354804D01*
X124122572Y-108360765D01*
X124145671Y-108369030D01*
X124167850Y-108379520D01*
X124188893Y-108392132D01*
X124208599Y-108406747D01*
X124226777Y-108423223D01*
X124243253Y-108441401D01*
X124257868Y-108461107D01*
X124270480Y-108482150D01*
X124280970Y-108504329D01*
X124289235Y-108527428D01*
X124295196Y-108551227D01*
X124298796Y-108575495D01*
X124300000Y-108599999D01*
X124300000Y-109500001D01*
X124298796Y-109524505D01*
X124295196Y-109548773D01*
X124289235Y-109572572D01*
X124280970Y-109595671D01*
X124270480Y-109617850D01*
X124257868Y-109638893D01*
X124243253Y-109658599D01*
X124226777Y-109676777D01*
X124208599Y-109693253D01*
X124188893Y-109707868D01*
X124167850Y-109720480D01*
X124145671Y-109730970D01*
X124122572Y-109739235D01*
X124098773Y-109745196D01*
X124074505Y-109748796D01*
X124050001Y-109750000D01*
X123399999Y-109750000D01*
X123375495Y-109748796D01*
X123351227Y-109745196D01*
X123327428Y-109739235D01*
X123304329Y-109730970D01*
X123282150Y-109720480D01*
X123261107Y-109707868D01*
X123241401Y-109693253D01*
X123223223Y-109676777D01*
X123206747Y-109658599D01*
X123192132Y-109638893D01*
X123179520Y-109617850D01*
X123169030Y-109595671D01*
X123160765Y-109572572D01*
X123154804Y-109548773D01*
X123151204Y-109524505D01*
X123150000Y-109500001D01*
X123150000Y-108599999D01*
X123151204Y-108575495D01*
X123154804Y-108551227D01*
X123160765Y-108527428D01*
X123169030Y-108504329D01*
X123179520Y-108482150D01*
X123192132Y-108461107D01*
X123206747Y-108441401D01*
X123223223Y-108423223D01*
X123241401Y-108406747D01*
X123261107Y-108392132D01*
X123282150Y-108379520D01*
X123304329Y-108369030D01*
X123327428Y-108360765D01*
X123351227Y-108354804D01*
X123375495Y-108351204D01*
X123399999Y-108350000D01*
X124050001Y-108350000D01*
X124074505Y-108351204D01*
X124074505Y-108351204D01*
G37*
D13*
X123725000Y-109050000D03*
D10*
G36*
X124074505Y-106401204D02*
G01*
X124098773Y-106404804D01*
X124122572Y-106410765D01*
X124145671Y-106419030D01*
X124167850Y-106429520D01*
X124188893Y-106442132D01*
X124208599Y-106456747D01*
X124226777Y-106473223D01*
X124243253Y-106491401D01*
X124257868Y-106511107D01*
X124270480Y-106532150D01*
X124280970Y-106554329D01*
X124289235Y-106577428D01*
X124295196Y-106601227D01*
X124298796Y-106625495D01*
X124300000Y-106649999D01*
X124300000Y-107550001D01*
X124298796Y-107574505D01*
X124295196Y-107598773D01*
X124289235Y-107622572D01*
X124280970Y-107645671D01*
X124270480Y-107667850D01*
X124257868Y-107688893D01*
X124243253Y-107708599D01*
X124226777Y-107726777D01*
X124208599Y-107743253D01*
X124188893Y-107757868D01*
X124167850Y-107770480D01*
X124145671Y-107780970D01*
X124122572Y-107789235D01*
X124098773Y-107795196D01*
X124074505Y-107798796D01*
X124050001Y-107800000D01*
X123399999Y-107800000D01*
X123375495Y-107798796D01*
X123351227Y-107795196D01*
X123327428Y-107789235D01*
X123304329Y-107780970D01*
X123282150Y-107770480D01*
X123261107Y-107757868D01*
X123241401Y-107743253D01*
X123223223Y-107726777D01*
X123206747Y-107708599D01*
X123192132Y-107688893D01*
X123179520Y-107667850D01*
X123169030Y-107645671D01*
X123160765Y-107622572D01*
X123154804Y-107598773D01*
X123151204Y-107574505D01*
X123150000Y-107550001D01*
X123150000Y-106649999D01*
X123151204Y-106625495D01*
X123154804Y-106601227D01*
X123160765Y-106577428D01*
X123169030Y-106554329D01*
X123179520Y-106532150D01*
X123192132Y-106511107D01*
X123206747Y-106491401D01*
X123223223Y-106473223D01*
X123241401Y-106456747D01*
X123261107Y-106442132D01*
X123282150Y-106429520D01*
X123304329Y-106419030D01*
X123327428Y-106410765D01*
X123351227Y-106404804D01*
X123375495Y-106401204D01*
X123399999Y-106400000D01*
X124050001Y-106400000D01*
X124074505Y-106401204D01*
X124074505Y-106401204D01*
G37*
D13*
X123725000Y-107100000D03*
D10*
G36*
X122024505Y-106401204D02*
G01*
X122048773Y-106404804D01*
X122072572Y-106410765D01*
X122095671Y-106419030D01*
X122117850Y-106429520D01*
X122138893Y-106442132D01*
X122158599Y-106456747D01*
X122176777Y-106473223D01*
X122193253Y-106491401D01*
X122207868Y-106511107D01*
X122220480Y-106532150D01*
X122230970Y-106554329D01*
X122239235Y-106577428D01*
X122245196Y-106601227D01*
X122248796Y-106625495D01*
X122250000Y-106649999D01*
X122250000Y-107550001D01*
X122248796Y-107574505D01*
X122245196Y-107598773D01*
X122239235Y-107622572D01*
X122230970Y-107645671D01*
X122220480Y-107667850D01*
X122207868Y-107688893D01*
X122193253Y-107708599D01*
X122176777Y-107726777D01*
X122158599Y-107743253D01*
X122138893Y-107757868D01*
X122117850Y-107770480D01*
X122095671Y-107780970D01*
X122072572Y-107789235D01*
X122048773Y-107795196D01*
X122024505Y-107798796D01*
X122000001Y-107800000D01*
X121349999Y-107800000D01*
X121325495Y-107798796D01*
X121301227Y-107795196D01*
X121277428Y-107789235D01*
X121254329Y-107780970D01*
X121232150Y-107770480D01*
X121211107Y-107757868D01*
X121191401Y-107743253D01*
X121173223Y-107726777D01*
X121156747Y-107708599D01*
X121142132Y-107688893D01*
X121129520Y-107667850D01*
X121119030Y-107645671D01*
X121110765Y-107622572D01*
X121104804Y-107598773D01*
X121101204Y-107574505D01*
X121100000Y-107550001D01*
X121100000Y-106649999D01*
X121101204Y-106625495D01*
X121104804Y-106601227D01*
X121110765Y-106577428D01*
X121119030Y-106554329D01*
X121129520Y-106532150D01*
X121142132Y-106511107D01*
X121156747Y-106491401D01*
X121173223Y-106473223D01*
X121191401Y-106456747D01*
X121211107Y-106442132D01*
X121232150Y-106429520D01*
X121254329Y-106419030D01*
X121277428Y-106410765D01*
X121301227Y-106404804D01*
X121325495Y-106401204D01*
X121349999Y-106400000D01*
X122000001Y-106400000D01*
X122024505Y-106401204D01*
X122024505Y-106401204D01*
G37*
D13*
X121675000Y-107100000D03*
D10*
G36*
X124074505Y-104451204D02*
G01*
X124098773Y-104454804D01*
X124122572Y-104460765D01*
X124145671Y-104469030D01*
X124167850Y-104479520D01*
X124188893Y-104492132D01*
X124208599Y-104506747D01*
X124226777Y-104523223D01*
X124243253Y-104541401D01*
X124257868Y-104561107D01*
X124270480Y-104582150D01*
X124280970Y-104604329D01*
X124289235Y-104627428D01*
X124295196Y-104651227D01*
X124298796Y-104675495D01*
X124300000Y-104699999D01*
X124300000Y-105600001D01*
X124298796Y-105624505D01*
X124295196Y-105648773D01*
X124289235Y-105672572D01*
X124280970Y-105695671D01*
X124270480Y-105717850D01*
X124257868Y-105738893D01*
X124243253Y-105758599D01*
X124226777Y-105776777D01*
X124208599Y-105793253D01*
X124188893Y-105807868D01*
X124167850Y-105820480D01*
X124145671Y-105830970D01*
X124122572Y-105839235D01*
X124098773Y-105845196D01*
X124074505Y-105848796D01*
X124050001Y-105850000D01*
X123399999Y-105850000D01*
X123375495Y-105848796D01*
X123351227Y-105845196D01*
X123327428Y-105839235D01*
X123304329Y-105830970D01*
X123282150Y-105820480D01*
X123261107Y-105807868D01*
X123241401Y-105793253D01*
X123223223Y-105776777D01*
X123206747Y-105758599D01*
X123192132Y-105738893D01*
X123179520Y-105717850D01*
X123169030Y-105695671D01*
X123160765Y-105672572D01*
X123154804Y-105648773D01*
X123151204Y-105624505D01*
X123150000Y-105600001D01*
X123150000Y-104699999D01*
X123151204Y-104675495D01*
X123154804Y-104651227D01*
X123160765Y-104627428D01*
X123169030Y-104604329D01*
X123179520Y-104582150D01*
X123192132Y-104561107D01*
X123206747Y-104541401D01*
X123223223Y-104523223D01*
X123241401Y-104506747D01*
X123261107Y-104492132D01*
X123282150Y-104479520D01*
X123304329Y-104469030D01*
X123327428Y-104460765D01*
X123351227Y-104454804D01*
X123375495Y-104451204D01*
X123399999Y-104450000D01*
X124050001Y-104450000D01*
X124074505Y-104451204D01*
X124074505Y-104451204D01*
G37*
D13*
X123725000Y-105150000D03*
D10*
G36*
X122024505Y-104451204D02*
G01*
X122048773Y-104454804D01*
X122072572Y-104460765D01*
X122095671Y-104469030D01*
X122117850Y-104479520D01*
X122138893Y-104492132D01*
X122158599Y-104506747D01*
X122176777Y-104523223D01*
X122193253Y-104541401D01*
X122207868Y-104561107D01*
X122220480Y-104582150D01*
X122230970Y-104604329D01*
X122239235Y-104627428D01*
X122245196Y-104651227D01*
X122248796Y-104675495D01*
X122250000Y-104699999D01*
X122250000Y-105600001D01*
X122248796Y-105624505D01*
X122245196Y-105648773D01*
X122239235Y-105672572D01*
X122230970Y-105695671D01*
X122220480Y-105717850D01*
X122207868Y-105738893D01*
X122193253Y-105758599D01*
X122176777Y-105776777D01*
X122158599Y-105793253D01*
X122138893Y-105807868D01*
X122117850Y-105820480D01*
X122095671Y-105830970D01*
X122072572Y-105839235D01*
X122048773Y-105845196D01*
X122024505Y-105848796D01*
X122000001Y-105850000D01*
X121349999Y-105850000D01*
X121325495Y-105848796D01*
X121301227Y-105845196D01*
X121277428Y-105839235D01*
X121254329Y-105830970D01*
X121232150Y-105820480D01*
X121211107Y-105807868D01*
X121191401Y-105793253D01*
X121173223Y-105776777D01*
X121156747Y-105758599D01*
X121142132Y-105738893D01*
X121129520Y-105717850D01*
X121119030Y-105695671D01*
X121110765Y-105672572D01*
X121104804Y-105648773D01*
X121101204Y-105624505D01*
X121100000Y-105600001D01*
X121100000Y-104699999D01*
X121101204Y-104675495D01*
X121104804Y-104651227D01*
X121110765Y-104627428D01*
X121119030Y-104604329D01*
X121129520Y-104582150D01*
X121142132Y-104561107D01*
X121156747Y-104541401D01*
X121173223Y-104523223D01*
X121191401Y-104506747D01*
X121211107Y-104492132D01*
X121232150Y-104479520D01*
X121254329Y-104469030D01*
X121277428Y-104460765D01*
X121301227Y-104454804D01*
X121325495Y-104451204D01*
X121349999Y-104450000D01*
X122000001Y-104450000D01*
X122024505Y-104451204D01*
X122024505Y-104451204D01*
G37*
D13*
X121675000Y-105150000D03*
D10*
G36*
X124074505Y-102501204D02*
G01*
X124098773Y-102504804D01*
X124122572Y-102510765D01*
X124145671Y-102519030D01*
X124167850Y-102529520D01*
X124188893Y-102542132D01*
X124208599Y-102556747D01*
X124226777Y-102573223D01*
X124243253Y-102591401D01*
X124257868Y-102611107D01*
X124270480Y-102632150D01*
X124280970Y-102654329D01*
X124289235Y-102677428D01*
X124295196Y-102701227D01*
X124298796Y-102725495D01*
X124300000Y-102749999D01*
X124300000Y-103650001D01*
X124298796Y-103674505D01*
X124295196Y-103698773D01*
X124289235Y-103722572D01*
X124280970Y-103745671D01*
X124270480Y-103767850D01*
X124257868Y-103788893D01*
X124243253Y-103808599D01*
X124226777Y-103826777D01*
X124208599Y-103843253D01*
X124188893Y-103857868D01*
X124167850Y-103870480D01*
X124145671Y-103880970D01*
X124122572Y-103889235D01*
X124098773Y-103895196D01*
X124074505Y-103898796D01*
X124050001Y-103900000D01*
X123399999Y-103900000D01*
X123375495Y-103898796D01*
X123351227Y-103895196D01*
X123327428Y-103889235D01*
X123304329Y-103880970D01*
X123282150Y-103870480D01*
X123261107Y-103857868D01*
X123241401Y-103843253D01*
X123223223Y-103826777D01*
X123206747Y-103808599D01*
X123192132Y-103788893D01*
X123179520Y-103767850D01*
X123169030Y-103745671D01*
X123160765Y-103722572D01*
X123154804Y-103698773D01*
X123151204Y-103674505D01*
X123150000Y-103650001D01*
X123150000Y-102749999D01*
X123151204Y-102725495D01*
X123154804Y-102701227D01*
X123160765Y-102677428D01*
X123169030Y-102654329D01*
X123179520Y-102632150D01*
X123192132Y-102611107D01*
X123206747Y-102591401D01*
X123223223Y-102573223D01*
X123241401Y-102556747D01*
X123261107Y-102542132D01*
X123282150Y-102529520D01*
X123304329Y-102519030D01*
X123327428Y-102510765D01*
X123351227Y-102504804D01*
X123375495Y-102501204D01*
X123399999Y-102500000D01*
X124050001Y-102500000D01*
X124074505Y-102501204D01*
X124074505Y-102501204D01*
G37*
D13*
X123725000Y-103200000D03*
D10*
G36*
X122024505Y-102501204D02*
G01*
X122048773Y-102504804D01*
X122072572Y-102510765D01*
X122095671Y-102519030D01*
X122117850Y-102529520D01*
X122138893Y-102542132D01*
X122158599Y-102556747D01*
X122176777Y-102573223D01*
X122193253Y-102591401D01*
X122207868Y-102611107D01*
X122220480Y-102632150D01*
X122230970Y-102654329D01*
X122239235Y-102677428D01*
X122245196Y-102701227D01*
X122248796Y-102725495D01*
X122250000Y-102749999D01*
X122250000Y-103650001D01*
X122248796Y-103674505D01*
X122245196Y-103698773D01*
X122239235Y-103722572D01*
X122230970Y-103745671D01*
X122220480Y-103767850D01*
X122207868Y-103788893D01*
X122193253Y-103808599D01*
X122176777Y-103826777D01*
X122158599Y-103843253D01*
X122138893Y-103857868D01*
X122117850Y-103870480D01*
X122095671Y-103880970D01*
X122072572Y-103889235D01*
X122048773Y-103895196D01*
X122024505Y-103898796D01*
X122000001Y-103900000D01*
X121349999Y-103900000D01*
X121325495Y-103898796D01*
X121301227Y-103895196D01*
X121277428Y-103889235D01*
X121254329Y-103880970D01*
X121232150Y-103870480D01*
X121211107Y-103857868D01*
X121191401Y-103843253D01*
X121173223Y-103826777D01*
X121156747Y-103808599D01*
X121142132Y-103788893D01*
X121129520Y-103767850D01*
X121119030Y-103745671D01*
X121110765Y-103722572D01*
X121104804Y-103698773D01*
X121101204Y-103674505D01*
X121100000Y-103650001D01*
X121100000Y-102749999D01*
X121101204Y-102725495D01*
X121104804Y-102701227D01*
X121110765Y-102677428D01*
X121119030Y-102654329D01*
X121129520Y-102632150D01*
X121142132Y-102611107D01*
X121156747Y-102591401D01*
X121173223Y-102573223D01*
X121191401Y-102556747D01*
X121211107Y-102542132D01*
X121232150Y-102529520D01*
X121254329Y-102519030D01*
X121277428Y-102510765D01*
X121301227Y-102504804D01*
X121325495Y-102501204D01*
X121349999Y-102500000D01*
X122000001Y-102500000D01*
X122024505Y-102501204D01*
X122024505Y-102501204D01*
G37*
D13*
X121675000Y-103200000D03*
D10*
G36*
X155024505Y-100401204D02*
G01*
X155048773Y-100404804D01*
X155072572Y-100410765D01*
X155095671Y-100419030D01*
X155117850Y-100429520D01*
X155138893Y-100442132D01*
X155158599Y-100456747D01*
X155176777Y-100473223D01*
X155193253Y-100491401D01*
X155207868Y-100511107D01*
X155220480Y-100532150D01*
X155230970Y-100554329D01*
X155239235Y-100577428D01*
X155245196Y-100601227D01*
X155248796Y-100625495D01*
X155250000Y-100649999D01*
X155250000Y-101300001D01*
X155248796Y-101324505D01*
X155245196Y-101348773D01*
X155239235Y-101372572D01*
X155230970Y-101395671D01*
X155220480Y-101417850D01*
X155207868Y-101438893D01*
X155193253Y-101458599D01*
X155176777Y-101476777D01*
X155158599Y-101493253D01*
X155138893Y-101507868D01*
X155117850Y-101520480D01*
X155095671Y-101530970D01*
X155072572Y-101539235D01*
X155048773Y-101545196D01*
X155024505Y-101548796D01*
X155000001Y-101550000D01*
X154099999Y-101550000D01*
X154075495Y-101548796D01*
X154051227Y-101545196D01*
X154027428Y-101539235D01*
X154004329Y-101530970D01*
X153982150Y-101520480D01*
X153961107Y-101507868D01*
X153941401Y-101493253D01*
X153923223Y-101476777D01*
X153906747Y-101458599D01*
X153892132Y-101438893D01*
X153879520Y-101417850D01*
X153869030Y-101395671D01*
X153860765Y-101372572D01*
X153854804Y-101348773D01*
X153851204Y-101324505D01*
X153850000Y-101300001D01*
X153850000Y-100649999D01*
X153851204Y-100625495D01*
X153854804Y-100601227D01*
X153860765Y-100577428D01*
X153869030Y-100554329D01*
X153879520Y-100532150D01*
X153892132Y-100511107D01*
X153906747Y-100491401D01*
X153923223Y-100473223D01*
X153941401Y-100456747D01*
X153961107Y-100442132D01*
X153982150Y-100429520D01*
X154004329Y-100419030D01*
X154027428Y-100410765D01*
X154051227Y-100404804D01*
X154075495Y-100401204D01*
X154099999Y-100400000D01*
X155000001Y-100400000D01*
X155024505Y-100401204D01*
X155024505Y-100401204D01*
G37*
D13*
X154550000Y-100975000D03*
D10*
G36*
X155024505Y-102451204D02*
G01*
X155048773Y-102454804D01*
X155072572Y-102460765D01*
X155095671Y-102469030D01*
X155117850Y-102479520D01*
X155138893Y-102492132D01*
X155158599Y-102506747D01*
X155176777Y-102523223D01*
X155193253Y-102541401D01*
X155207868Y-102561107D01*
X155220480Y-102582150D01*
X155230970Y-102604329D01*
X155239235Y-102627428D01*
X155245196Y-102651227D01*
X155248796Y-102675495D01*
X155250000Y-102699999D01*
X155250000Y-103350001D01*
X155248796Y-103374505D01*
X155245196Y-103398773D01*
X155239235Y-103422572D01*
X155230970Y-103445671D01*
X155220480Y-103467850D01*
X155207868Y-103488893D01*
X155193253Y-103508599D01*
X155176777Y-103526777D01*
X155158599Y-103543253D01*
X155138893Y-103557868D01*
X155117850Y-103570480D01*
X155095671Y-103580970D01*
X155072572Y-103589235D01*
X155048773Y-103595196D01*
X155024505Y-103598796D01*
X155000001Y-103600000D01*
X154099999Y-103600000D01*
X154075495Y-103598796D01*
X154051227Y-103595196D01*
X154027428Y-103589235D01*
X154004329Y-103580970D01*
X153982150Y-103570480D01*
X153961107Y-103557868D01*
X153941401Y-103543253D01*
X153923223Y-103526777D01*
X153906747Y-103508599D01*
X153892132Y-103488893D01*
X153879520Y-103467850D01*
X153869030Y-103445671D01*
X153860765Y-103422572D01*
X153854804Y-103398773D01*
X153851204Y-103374505D01*
X153850000Y-103350001D01*
X153850000Y-102699999D01*
X153851204Y-102675495D01*
X153854804Y-102651227D01*
X153860765Y-102627428D01*
X153869030Y-102604329D01*
X153879520Y-102582150D01*
X153892132Y-102561107D01*
X153906747Y-102541401D01*
X153923223Y-102523223D01*
X153941401Y-102506747D01*
X153961107Y-102492132D01*
X153982150Y-102479520D01*
X154004329Y-102469030D01*
X154027428Y-102460765D01*
X154051227Y-102454804D01*
X154075495Y-102451204D01*
X154099999Y-102450000D01*
X155000001Y-102450000D01*
X155024505Y-102451204D01*
X155024505Y-102451204D01*
G37*
D13*
X154550000Y-103025000D03*
D10*
G36*
X155024505Y-104151204D02*
G01*
X155048773Y-104154804D01*
X155072572Y-104160765D01*
X155095671Y-104169030D01*
X155117850Y-104179520D01*
X155138893Y-104192132D01*
X155158599Y-104206747D01*
X155176777Y-104223223D01*
X155193253Y-104241401D01*
X155207868Y-104261107D01*
X155220480Y-104282150D01*
X155230970Y-104304329D01*
X155239235Y-104327428D01*
X155245196Y-104351227D01*
X155248796Y-104375495D01*
X155250000Y-104399999D01*
X155250000Y-105050001D01*
X155248796Y-105074505D01*
X155245196Y-105098773D01*
X155239235Y-105122572D01*
X155230970Y-105145671D01*
X155220480Y-105167850D01*
X155207868Y-105188893D01*
X155193253Y-105208599D01*
X155176777Y-105226777D01*
X155158599Y-105243253D01*
X155138893Y-105257868D01*
X155117850Y-105270480D01*
X155095671Y-105280970D01*
X155072572Y-105289235D01*
X155048773Y-105295196D01*
X155024505Y-105298796D01*
X155000001Y-105300000D01*
X154099999Y-105300000D01*
X154075495Y-105298796D01*
X154051227Y-105295196D01*
X154027428Y-105289235D01*
X154004329Y-105280970D01*
X153982150Y-105270480D01*
X153961107Y-105257868D01*
X153941401Y-105243253D01*
X153923223Y-105226777D01*
X153906747Y-105208599D01*
X153892132Y-105188893D01*
X153879520Y-105167850D01*
X153869030Y-105145671D01*
X153860765Y-105122572D01*
X153854804Y-105098773D01*
X153851204Y-105074505D01*
X153850000Y-105050001D01*
X153850000Y-104399999D01*
X153851204Y-104375495D01*
X153854804Y-104351227D01*
X153860765Y-104327428D01*
X153869030Y-104304329D01*
X153879520Y-104282150D01*
X153892132Y-104261107D01*
X153906747Y-104241401D01*
X153923223Y-104223223D01*
X153941401Y-104206747D01*
X153961107Y-104192132D01*
X153982150Y-104179520D01*
X154004329Y-104169030D01*
X154027428Y-104160765D01*
X154051227Y-104154804D01*
X154075495Y-104151204D01*
X154099999Y-104150000D01*
X155000001Y-104150000D01*
X155024505Y-104151204D01*
X155024505Y-104151204D01*
G37*
D13*
X154550000Y-104725000D03*
D10*
G36*
X155024505Y-106201204D02*
G01*
X155048773Y-106204804D01*
X155072572Y-106210765D01*
X155095671Y-106219030D01*
X155117850Y-106229520D01*
X155138893Y-106242132D01*
X155158599Y-106256747D01*
X155176777Y-106273223D01*
X155193253Y-106291401D01*
X155207868Y-106311107D01*
X155220480Y-106332150D01*
X155230970Y-106354329D01*
X155239235Y-106377428D01*
X155245196Y-106401227D01*
X155248796Y-106425495D01*
X155250000Y-106449999D01*
X155250000Y-107100001D01*
X155248796Y-107124505D01*
X155245196Y-107148773D01*
X155239235Y-107172572D01*
X155230970Y-107195671D01*
X155220480Y-107217850D01*
X155207868Y-107238893D01*
X155193253Y-107258599D01*
X155176777Y-107276777D01*
X155158599Y-107293253D01*
X155138893Y-107307868D01*
X155117850Y-107320480D01*
X155095671Y-107330970D01*
X155072572Y-107339235D01*
X155048773Y-107345196D01*
X155024505Y-107348796D01*
X155000001Y-107350000D01*
X154099999Y-107350000D01*
X154075495Y-107348796D01*
X154051227Y-107345196D01*
X154027428Y-107339235D01*
X154004329Y-107330970D01*
X153982150Y-107320480D01*
X153961107Y-107307868D01*
X153941401Y-107293253D01*
X153923223Y-107276777D01*
X153906747Y-107258599D01*
X153892132Y-107238893D01*
X153879520Y-107217850D01*
X153869030Y-107195671D01*
X153860765Y-107172572D01*
X153854804Y-107148773D01*
X153851204Y-107124505D01*
X153850000Y-107100001D01*
X153850000Y-106449999D01*
X153851204Y-106425495D01*
X153854804Y-106401227D01*
X153860765Y-106377428D01*
X153869030Y-106354329D01*
X153879520Y-106332150D01*
X153892132Y-106311107D01*
X153906747Y-106291401D01*
X153923223Y-106273223D01*
X153941401Y-106256747D01*
X153961107Y-106242132D01*
X153982150Y-106229520D01*
X154004329Y-106219030D01*
X154027428Y-106210765D01*
X154051227Y-106204804D01*
X154075495Y-106201204D01*
X154099999Y-106200000D01*
X155000001Y-106200000D01*
X155024505Y-106201204D01*
X155024505Y-106201204D01*
G37*
D13*
X154550000Y-106775000D03*
D10*
G36*
X122124505Y-99451204D02*
G01*
X122148773Y-99454804D01*
X122172572Y-99460765D01*
X122195671Y-99469030D01*
X122217850Y-99479520D01*
X122238893Y-99492132D01*
X122258599Y-99506747D01*
X122276777Y-99523223D01*
X122293253Y-99541401D01*
X122307868Y-99561107D01*
X122320480Y-99582150D01*
X122330970Y-99604329D01*
X122339235Y-99627428D01*
X122345196Y-99651227D01*
X122348796Y-99675495D01*
X122350000Y-99699999D01*
X122350000Y-100600001D01*
X122348796Y-100624505D01*
X122345196Y-100648773D01*
X122339235Y-100672572D01*
X122330970Y-100695671D01*
X122320480Y-100717850D01*
X122307868Y-100738893D01*
X122293253Y-100758599D01*
X122276777Y-100776777D01*
X122258599Y-100793253D01*
X122238893Y-100807868D01*
X122217850Y-100820480D01*
X122195671Y-100830970D01*
X122172572Y-100839235D01*
X122148773Y-100845196D01*
X122124505Y-100848796D01*
X122100001Y-100850000D01*
X121449999Y-100850000D01*
X121425495Y-100848796D01*
X121401227Y-100845196D01*
X121377428Y-100839235D01*
X121354329Y-100830970D01*
X121332150Y-100820480D01*
X121311107Y-100807868D01*
X121291401Y-100793253D01*
X121273223Y-100776777D01*
X121256747Y-100758599D01*
X121242132Y-100738893D01*
X121229520Y-100717850D01*
X121219030Y-100695671D01*
X121210765Y-100672572D01*
X121204804Y-100648773D01*
X121201204Y-100624505D01*
X121200000Y-100600001D01*
X121200000Y-99699999D01*
X121201204Y-99675495D01*
X121204804Y-99651227D01*
X121210765Y-99627428D01*
X121219030Y-99604329D01*
X121229520Y-99582150D01*
X121242132Y-99561107D01*
X121256747Y-99541401D01*
X121273223Y-99523223D01*
X121291401Y-99506747D01*
X121311107Y-99492132D01*
X121332150Y-99479520D01*
X121354329Y-99469030D01*
X121377428Y-99460765D01*
X121401227Y-99454804D01*
X121425495Y-99451204D01*
X121449999Y-99450000D01*
X122100001Y-99450000D01*
X122124505Y-99451204D01*
X122124505Y-99451204D01*
G37*
D13*
X121775000Y-100150000D03*
D10*
G36*
X124174505Y-99451204D02*
G01*
X124198773Y-99454804D01*
X124222572Y-99460765D01*
X124245671Y-99469030D01*
X124267850Y-99479520D01*
X124288893Y-99492132D01*
X124308599Y-99506747D01*
X124326777Y-99523223D01*
X124343253Y-99541401D01*
X124357868Y-99561107D01*
X124370480Y-99582150D01*
X124380970Y-99604329D01*
X124389235Y-99627428D01*
X124395196Y-99651227D01*
X124398796Y-99675495D01*
X124400000Y-99699999D01*
X124400000Y-100600001D01*
X124398796Y-100624505D01*
X124395196Y-100648773D01*
X124389235Y-100672572D01*
X124380970Y-100695671D01*
X124370480Y-100717850D01*
X124357868Y-100738893D01*
X124343253Y-100758599D01*
X124326777Y-100776777D01*
X124308599Y-100793253D01*
X124288893Y-100807868D01*
X124267850Y-100820480D01*
X124245671Y-100830970D01*
X124222572Y-100839235D01*
X124198773Y-100845196D01*
X124174505Y-100848796D01*
X124150001Y-100850000D01*
X123499999Y-100850000D01*
X123475495Y-100848796D01*
X123451227Y-100845196D01*
X123427428Y-100839235D01*
X123404329Y-100830970D01*
X123382150Y-100820480D01*
X123361107Y-100807868D01*
X123341401Y-100793253D01*
X123323223Y-100776777D01*
X123306747Y-100758599D01*
X123292132Y-100738893D01*
X123279520Y-100717850D01*
X123269030Y-100695671D01*
X123260765Y-100672572D01*
X123254804Y-100648773D01*
X123251204Y-100624505D01*
X123250000Y-100600001D01*
X123250000Y-99699999D01*
X123251204Y-99675495D01*
X123254804Y-99651227D01*
X123260765Y-99627428D01*
X123269030Y-99604329D01*
X123279520Y-99582150D01*
X123292132Y-99561107D01*
X123306747Y-99541401D01*
X123323223Y-99523223D01*
X123341401Y-99506747D01*
X123361107Y-99492132D01*
X123382150Y-99479520D01*
X123404329Y-99469030D01*
X123427428Y-99460765D01*
X123451227Y-99454804D01*
X123475495Y-99451204D01*
X123499999Y-99450000D01*
X124150001Y-99450000D01*
X124174505Y-99451204D01*
X124174505Y-99451204D01*
G37*
D13*
X123825000Y-100150000D03*
D10*
G36*
X124174505Y-97051204D02*
G01*
X124198773Y-97054804D01*
X124222572Y-97060765D01*
X124245671Y-97069030D01*
X124267850Y-97079520D01*
X124288893Y-97092132D01*
X124308599Y-97106747D01*
X124326777Y-97123223D01*
X124343253Y-97141401D01*
X124357868Y-97161107D01*
X124370480Y-97182150D01*
X124380970Y-97204329D01*
X124389235Y-97227428D01*
X124395196Y-97251227D01*
X124398796Y-97275495D01*
X124400000Y-97299999D01*
X124400000Y-98200001D01*
X124398796Y-98224505D01*
X124395196Y-98248773D01*
X124389235Y-98272572D01*
X124380970Y-98295671D01*
X124370480Y-98317850D01*
X124357868Y-98338893D01*
X124343253Y-98358599D01*
X124326777Y-98376777D01*
X124308599Y-98393253D01*
X124288893Y-98407868D01*
X124267850Y-98420480D01*
X124245671Y-98430970D01*
X124222572Y-98439235D01*
X124198773Y-98445196D01*
X124174505Y-98448796D01*
X124150001Y-98450000D01*
X123499999Y-98450000D01*
X123475495Y-98448796D01*
X123451227Y-98445196D01*
X123427428Y-98439235D01*
X123404329Y-98430970D01*
X123382150Y-98420480D01*
X123361107Y-98407868D01*
X123341401Y-98393253D01*
X123323223Y-98376777D01*
X123306747Y-98358599D01*
X123292132Y-98338893D01*
X123279520Y-98317850D01*
X123269030Y-98295671D01*
X123260765Y-98272572D01*
X123254804Y-98248773D01*
X123251204Y-98224505D01*
X123250000Y-98200001D01*
X123250000Y-97299999D01*
X123251204Y-97275495D01*
X123254804Y-97251227D01*
X123260765Y-97227428D01*
X123269030Y-97204329D01*
X123279520Y-97182150D01*
X123292132Y-97161107D01*
X123306747Y-97141401D01*
X123323223Y-97123223D01*
X123341401Y-97106747D01*
X123361107Y-97092132D01*
X123382150Y-97079520D01*
X123404329Y-97069030D01*
X123427428Y-97060765D01*
X123451227Y-97054804D01*
X123475495Y-97051204D01*
X123499999Y-97050000D01*
X124150001Y-97050000D01*
X124174505Y-97051204D01*
X124174505Y-97051204D01*
G37*
D13*
X123825000Y-97750000D03*
D10*
G36*
X122124505Y-97051204D02*
G01*
X122148773Y-97054804D01*
X122172572Y-97060765D01*
X122195671Y-97069030D01*
X122217850Y-97079520D01*
X122238893Y-97092132D01*
X122258599Y-97106747D01*
X122276777Y-97123223D01*
X122293253Y-97141401D01*
X122307868Y-97161107D01*
X122320480Y-97182150D01*
X122330970Y-97204329D01*
X122339235Y-97227428D01*
X122345196Y-97251227D01*
X122348796Y-97275495D01*
X122350000Y-97299999D01*
X122350000Y-98200001D01*
X122348796Y-98224505D01*
X122345196Y-98248773D01*
X122339235Y-98272572D01*
X122330970Y-98295671D01*
X122320480Y-98317850D01*
X122307868Y-98338893D01*
X122293253Y-98358599D01*
X122276777Y-98376777D01*
X122258599Y-98393253D01*
X122238893Y-98407868D01*
X122217850Y-98420480D01*
X122195671Y-98430970D01*
X122172572Y-98439235D01*
X122148773Y-98445196D01*
X122124505Y-98448796D01*
X122100001Y-98450000D01*
X121449999Y-98450000D01*
X121425495Y-98448796D01*
X121401227Y-98445196D01*
X121377428Y-98439235D01*
X121354329Y-98430970D01*
X121332150Y-98420480D01*
X121311107Y-98407868D01*
X121291401Y-98393253D01*
X121273223Y-98376777D01*
X121256747Y-98358599D01*
X121242132Y-98338893D01*
X121229520Y-98317850D01*
X121219030Y-98295671D01*
X121210765Y-98272572D01*
X121204804Y-98248773D01*
X121201204Y-98224505D01*
X121200000Y-98200001D01*
X121200000Y-97299999D01*
X121201204Y-97275495D01*
X121204804Y-97251227D01*
X121210765Y-97227428D01*
X121219030Y-97204329D01*
X121229520Y-97182150D01*
X121242132Y-97161107D01*
X121256747Y-97141401D01*
X121273223Y-97123223D01*
X121291401Y-97106747D01*
X121311107Y-97092132D01*
X121332150Y-97079520D01*
X121354329Y-97069030D01*
X121377428Y-97060765D01*
X121401227Y-97054804D01*
X121425495Y-97051204D01*
X121449999Y-97050000D01*
X122100001Y-97050000D01*
X122124505Y-97051204D01*
X122124505Y-97051204D01*
G37*
D13*
X121775000Y-97750000D03*
D10*
G36*
X164074505Y-103051204D02*
G01*
X164098773Y-103054804D01*
X164122572Y-103060765D01*
X164145671Y-103069030D01*
X164167850Y-103079520D01*
X164188893Y-103092132D01*
X164208599Y-103106747D01*
X164226777Y-103123223D01*
X164243253Y-103141401D01*
X164257868Y-103161107D01*
X164270480Y-103182150D01*
X164280970Y-103204329D01*
X164289235Y-103227428D01*
X164295196Y-103251227D01*
X164298796Y-103275495D01*
X164300000Y-103299999D01*
X164300000Y-103950001D01*
X164298796Y-103974505D01*
X164295196Y-103998773D01*
X164289235Y-104022572D01*
X164280970Y-104045671D01*
X164270480Y-104067850D01*
X164257868Y-104088893D01*
X164243253Y-104108599D01*
X164226777Y-104126777D01*
X164208599Y-104143253D01*
X164188893Y-104157868D01*
X164167850Y-104170480D01*
X164145671Y-104180970D01*
X164122572Y-104189235D01*
X164098773Y-104195196D01*
X164074505Y-104198796D01*
X164050001Y-104200000D01*
X163149999Y-104200000D01*
X163125495Y-104198796D01*
X163101227Y-104195196D01*
X163077428Y-104189235D01*
X163054329Y-104180970D01*
X163032150Y-104170480D01*
X163011107Y-104157868D01*
X162991401Y-104143253D01*
X162973223Y-104126777D01*
X162956747Y-104108599D01*
X162942132Y-104088893D01*
X162929520Y-104067850D01*
X162919030Y-104045671D01*
X162910765Y-104022572D01*
X162904804Y-103998773D01*
X162901204Y-103974505D01*
X162900000Y-103950001D01*
X162900000Y-103299999D01*
X162901204Y-103275495D01*
X162904804Y-103251227D01*
X162910765Y-103227428D01*
X162919030Y-103204329D01*
X162929520Y-103182150D01*
X162942132Y-103161107D01*
X162956747Y-103141401D01*
X162973223Y-103123223D01*
X162991401Y-103106747D01*
X163011107Y-103092132D01*
X163032150Y-103079520D01*
X163054329Y-103069030D01*
X163077428Y-103060765D01*
X163101227Y-103054804D01*
X163125495Y-103051204D01*
X163149999Y-103050000D01*
X164050001Y-103050000D01*
X164074505Y-103051204D01*
X164074505Y-103051204D01*
G37*
D13*
X163600000Y-103625000D03*
D10*
G36*
X164074505Y-105101204D02*
G01*
X164098773Y-105104804D01*
X164122572Y-105110765D01*
X164145671Y-105119030D01*
X164167850Y-105129520D01*
X164188893Y-105142132D01*
X164208599Y-105156747D01*
X164226777Y-105173223D01*
X164243253Y-105191401D01*
X164257868Y-105211107D01*
X164270480Y-105232150D01*
X164280970Y-105254329D01*
X164289235Y-105277428D01*
X164295196Y-105301227D01*
X164298796Y-105325495D01*
X164300000Y-105349999D01*
X164300000Y-106000001D01*
X164298796Y-106024505D01*
X164295196Y-106048773D01*
X164289235Y-106072572D01*
X164280970Y-106095671D01*
X164270480Y-106117850D01*
X164257868Y-106138893D01*
X164243253Y-106158599D01*
X164226777Y-106176777D01*
X164208599Y-106193253D01*
X164188893Y-106207868D01*
X164167850Y-106220480D01*
X164145671Y-106230970D01*
X164122572Y-106239235D01*
X164098773Y-106245196D01*
X164074505Y-106248796D01*
X164050001Y-106250000D01*
X163149999Y-106250000D01*
X163125495Y-106248796D01*
X163101227Y-106245196D01*
X163077428Y-106239235D01*
X163054329Y-106230970D01*
X163032150Y-106220480D01*
X163011107Y-106207868D01*
X162991401Y-106193253D01*
X162973223Y-106176777D01*
X162956747Y-106158599D01*
X162942132Y-106138893D01*
X162929520Y-106117850D01*
X162919030Y-106095671D01*
X162910765Y-106072572D01*
X162904804Y-106048773D01*
X162901204Y-106024505D01*
X162900000Y-106000001D01*
X162900000Y-105349999D01*
X162901204Y-105325495D01*
X162904804Y-105301227D01*
X162910765Y-105277428D01*
X162919030Y-105254329D01*
X162929520Y-105232150D01*
X162942132Y-105211107D01*
X162956747Y-105191401D01*
X162973223Y-105173223D01*
X162991401Y-105156747D01*
X163011107Y-105142132D01*
X163032150Y-105129520D01*
X163054329Y-105119030D01*
X163077428Y-105110765D01*
X163101227Y-105104804D01*
X163125495Y-105101204D01*
X163149999Y-105100000D01*
X164050001Y-105100000D01*
X164074505Y-105101204D01*
X164074505Y-105101204D01*
G37*
D13*
X163600000Y-105675000D03*
D10*
G36*
X170324505Y-119201204D02*
G01*
X170348773Y-119204804D01*
X170372572Y-119210765D01*
X170395671Y-119219030D01*
X170417850Y-119229520D01*
X170438893Y-119242132D01*
X170458599Y-119256747D01*
X170476777Y-119273223D01*
X170493253Y-119291401D01*
X170507868Y-119311107D01*
X170520480Y-119332150D01*
X170530970Y-119354329D01*
X170539235Y-119377428D01*
X170545196Y-119401227D01*
X170548796Y-119425495D01*
X170550000Y-119449999D01*
X170550000Y-120350001D01*
X170548796Y-120374505D01*
X170545196Y-120398773D01*
X170539235Y-120422572D01*
X170530970Y-120445671D01*
X170520480Y-120467850D01*
X170507868Y-120488893D01*
X170493253Y-120508599D01*
X170476777Y-120526777D01*
X170458599Y-120543253D01*
X170438893Y-120557868D01*
X170417850Y-120570480D01*
X170395671Y-120580970D01*
X170372572Y-120589235D01*
X170348773Y-120595196D01*
X170324505Y-120598796D01*
X170300001Y-120600000D01*
X169649999Y-120600000D01*
X169625495Y-120598796D01*
X169601227Y-120595196D01*
X169577428Y-120589235D01*
X169554329Y-120580970D01*
X169532150Y-120570480D01*
X169511107Y-120557868D01*
X169491401Y-120543253D01*
X169473223Y-120526777D01*
X169456747Y-120508599D01*
X169442132Y-120488893D01*
X169429520Y-120467850D01*
X169419030Y-120445671D01*
X169410765Y-120422572D01*
X169404804Y-120398773D01*
X169401204Y-120374505D01*
X169400000Y-120350001D01*
X169400000Y-119449999D01*
X169401204Y-119425495D01*
X169404804Y-119401227D01*
X169410765Y-119377428D01*
X169419030Y-119354329D01*
X169429520Y-119332150D01*
X169442132Y-119311107D01*
X169456747Y-119291401D01*
X169473223Y-119273223D01*
X169491401Y-119256747D01*
X169511107Y-119242132D01*
X169532150Y-119229520D01*
X169554329Y-119219030D01*
X169577428Y-119210765D01*
X169601227Y-119204804D01*
X169625495Y-119201204D01*
X169649999Y-119200000D01*
X170300001Y-119200000D01*
X170324505Y-119201204D01*
X170324505Y-119201204D01*
G37*
D13*
X169975000Y-119900000D03*
D10*
G36*
X172374505Y-119201204D02*
G01*
X172398773Y-119204804D01*
X172422572Y-119210765D01*
X172445671Y-119219030D01*
X172467850Y-119229520D01*
X172488893Y-119242132D01*
X172508599Y-119256747D01*
X172526777Y-119273223D01*
X172543253Y-119291401D01*
X172557868Y-119311107D01*
X172570480Y-119332150D01*
X172580970Y-119354329D01*
X172589235Y-119377428D01*
X172595196Y-119401227D01*
X172598796Y-119425495D01*
X172600000Y-119449999D01*
X172600000Y-120350001D01*
X172598796Y-120374505D01*
X172595196Y-120398773D01*
X172589235Y-120422572D01*
X172580970Y-120445671D01*
X172570480Y-120467850D01*
X172557868Y-120488893D01*
X172543253Y-120508599D01*
X172526777Y-120526777D01*
X172508599Y-120543253D01*
X172488893Y-120557868D01*
X172467850Y-120570480D01*
X172445671Y-120580970D01*
X172422572Y-120589235D01*
X172398773Y-120595196D01*
X172374505Y-120598796D01*
X172350001Y-120600000D01*
X171699999Y-120600000D01*
X171675495Y-120598796D01*
X171651227Y-120595196D01*
X171627428Y-120589235D01*
X171604329Y-120580970D01*
X171582150Y-120570480D01*
X171561107Y-120557868D01*
X171541401Y-120543253D01*
X171523223Y-120526777D01*
X171506747Y-120508599D01*
X171492132Y-120488893D01*
X171479520Y-120467850D01*
X171469030Y-120445671D01*
X171460765Y-120422572D01*
X171454804Y-120398773D01*
X171451204Y-120374505D01*
X171450000Y-120350001D01*
X171450000Y-119449999D01*
X171451204Y-119425495D01*
X171454804Y-119401227D01*
X171460765Y-119377428D01*
X171469030Y-119354329D01*
X171479520Y-119332150D01*
X171492132Y-119311107D01*
X171506747Y-119291401D01*
X171523223Y-119273223D01*
X171541401Y-119256747D01*
X171561107Y-119242132D01*
X171582150Y-119229520D01*
X171604329Y-119219030D01*
X171627428Y-119210765D01*
X171651227Y-119204804D01*
X171675495Y-119201204D01*
X171699999Y-119200000D01*
X172350001Y-119200000D01*
X172374505Y-119201204D01*
X172374505Y-119201204D01*
G37*
D13*
X172025000Y-119900000D03*
D10*
G36*
X148297705Y-106619604D02*
G01*
X148321973Y-106623204D01*
X148345772Y-106629165D01*
X148368871Y-106637430D01*
X148391050Y-106647920D01*
X148412093Y-106660532D01*
X148431799Y-106675147D01*
X148449977Y-106691623D01*
X148466453Y-106709801D01*
X148481068Y-106729507D01*
X148493680Y-106750550D01*
X148504170Y-106772729D01*
X148512435Y-106795828D01*
X148518396Y-106819627D01*
X148521996Y-106843895D01*
X148523200Y-106868399D01*
X148523200Y-107518401D01*
X148521996Y-107542905D01*
X148518396Y-107567173D01*
X148512435Y-107590972D01*
X148504170Y-107614071D01*
X148493680Y-107636250D01*
X148481068Y-107657293D01*
X148466453Y-107676999D01*
X148449977Y-107695177D01*
X148431799Y-107711653D01*
X148412093Y-107726268D01*
X148391050Y-107738880D01*
X148368871Y-107749370D01*
X148345772Y-107757635D01*
X148321973Y-107763596D01*
X148297705Y-107767196D01*
X148273201Y-107768400D01*
X147373199Y-107768400D01*
X147348695Y-107767196D01*
X147324427Y-107763596D01*
X147300628Y-107757635D01*
X147277529Y-107749370D01*
X147255350Y-107738880D01*
X147234307Y-107726268D01*
X147214601Y-107711653D01*
X147196423Y-107695177D01*
X147179947Y-107676999D01*
X147165332Y-107657293D01*
X147152720Y-107636250D01*
X147142230Y-107614071D01*
X147133965Y-107590972D01*
X147128004Y-107567173D01*
X147124404Y-107542905D01*
X147123200Y-107518401D01*
X147123200Y-106868399D01*
X147124404Y-106843895D01*
X147128004Y-106819627D01*
X147133965Y-106795828D01*
X147142230Y-106772729D01*
X147152720Y-106750550D01*
X147165332Y-106729507D01*
X147179947Y-106709801D01*
X147196423Y-106691623D01*
X147214601Y-106675147D01*
X147234307Y-106660532D01*
X147255350Y-106647920D01*
X147277529Y-106637430D01*
X147300628Y-106629165D01*
X147324427Y-106623204D01*
X147348695Y-106619604D01*
X147373199Y-106618400D01*
X148273201Y-106618400D01*
X148297705Y-106619604D01*
X148297705Y-106619604D01*
G37*
D13*
X147823200Y-107193400D03*
D10*
G36*
X148297705Y-104569604D02*
G01*
X148321973Y-104573204D01*
X148345772Y-104579165D01*
X148368871Y-104587430D01*
X148391050Y-104597920D01*
X148412093Y-104610532D01*
X148431799Y-104625147D01*
X148449977Y-104641623D01*
X148466453Y-104659801D01*
X148481068Y-104679507D01*
X148493680Y-104700550D01*
X148504170Y-104722729D01*
X148512435Y-104745828D01*
X148518396Y-104769627D01*
X148521996Y-104793895D01*
X148523200Y-104818399D01*
X148523200Y-105468401D01*
X148521996Y-105492905D01*
X148518396Y-105517173D01*
X148512435Y-105540972D01*
X148504170Y-105564071D01*
X148493680Y-105586250D01*
X148481068Y-105607293D01*
X148466453Y-105626999D01*
X148449977Y-105645177D01*
X148431799Y-105661653D01*
X148412093Y-105676268D01*
X148391050Y-105688880D01*
X148368871Y-105699370D01*
X148345772Y-105707635D01*
X148321973Y-105713596D01*
X148297705Y-105717196D01*
X148273201Y-105718400D01*
X147373199Y-105718400D01*
X147348695Y-105717196D01*
X147324427Y-105713596D01*
X147300628Y-105707635D01*
X147277529Y-105699370D01*
X147255350Y-105688880D01*
X147234307Y-105676268D01*
X147214601Y-105661653D01*
X147196423Y-105645177D01*
X147179947Y-105626999D01*
X147165332Y-105607293D01*
X147152720Y-105586250D01*
X147142230Y-105564071D01*
X147133965Y-105540972D01*
X147128004Y-105517173D01*
X147124404Y-105492905D01*
X147123200Y-105468401D01*
X147123200Y-104818399D01*
X147124404Y-104793895D01*
X147128004Y-104769627D01*
X147133965Y-104745828D01*
X147142230Y-104722729D01*
X147152720Y-104700550D01*
X147165332Y-104679507D01*
X147179947Y-104659801D01*
X147196423Y-104641623D01*
X147214601Y-104625147D01*
X147234307Y-104610532D01*
X147255350Y-104597920D01*
X147277529Y-104587430D01*
X147300628Y-104579165D01*
X147324427Y-104573204D01*
X147348695Y-104569604D01*
X147373199Y-104568400D01*
X148273201Y-104568400D01*
X148297705Y-104569604D01*
X148297705Y-104569604D01*
G37*
D13*
X147823200Y-105143400D03*
D10*
G36*
X145097705Y-106619604D02*
G01*
X145121973Y-106623204D01*
X145145772Y-106629165D01*
X145168871Y-106637430D01*
X145191050Y-106647920D01*
X145212093Y-106660532D01*
X145231799Y-106675147D01*
X145249977Y-106691623D01*
X145266453Y-106709801D01*
X145281068Y-106729507D01*
X145293680Y-106750550D01*
X145304170Y-106772729D01*
X145312435Y-106795828D01*
X145318396Y-106819627D01*
X145321996Y-106843895D01*
X145323200Y-106868399D01*
X145323200Y-107518401D01*
X145321996Y-107542905D01*
X145318396Y-107567173D01*
X145312435Y-107590972D01*
X145304170Y-107614071D01*
X145293680Y-107636250D01*
X145281068Y-107657293D01*
X145266453Y-107676999D01*
X145249977Y-107695177D01*
X145231799Y-107711653D01*
X145212093Y-107726268D01*
X145191050Y-107738880D01*
X145168871Y-107749370D01*
X145145772Y-107757635D01*
X145121973Y-107763596D01*
X145097705Y-107767196D01*
X145073201Y-107768400D01*
X144173199Y-107768400D01*
X144148695Y-107767196D01*
X144124427Y-107763596D01*
X144100628Y-107757635D01*
X144077529Y-107749370D01*
X144055350Y-107738880D01*
X144034307Y-107726268D01*
X144014601Y-107711653D01*
X143996423Y-107695177D01*
X143979947Y-107676999D01*
X143965332Y-107657293D01*
X143952720Y-107636250D01*
X143942230Y-107614071D01*
X143933965Y-107590972D01*
X143928004Y-107567173D01*
X143924404Y-107542905D01*
X143923200Y-107518401D01*
X143923200Y-106868399D01*
X143924404Y-106843895D01*
X143928004Y-106819627D01*
X143933965Y-106795828D01*
X143942230Y-106772729D01*
X143952720Y-106750550D01*
X143965332Y-106729507D01*
X143979947Y-106709801D01*
X143996423Y-106691623D01*
X144014601Y-106675147D01*
X144034307Y-106660532D01*
X144055350Y-106647920D01*
X144077529Y-106637430D01*
X144100628Y-106629165D01*
X144124427Y-106623204D01*
X144148695Y-106619604D01*
X144173199Y-106618400D01*
X145073201Y-106618400D01*
X145097705Y-106619604D01*
X145097705Y-106619604D01*
G37*
D13*
X144623200Y-107193400D03*
D10*
G36*
X145097705Y-104569604D02*
G01*
X145121973Y-104573204D01*
X145145772Y-104579165D01*
X145168871Y-104587430D01*
X145191050Y-104597920D01*
X145212093Y-104610532D01*
X145231799Y-104625147D01*
X145249977Y-104641623D01*
X145266453Y-104659801D01*
X145281068Y-104679507D01*
X145293680Y-104700550D01*
X145304170Y-104722729D01*
X145312435Y-104745828D01*
X145318396Y-104769627D01*
X145321996Y-104793895D01*
X145323200Y-104818399D01*
X145323200Y-105468401D01*
X145321996Y-105492905D01*
X145318396Y-105517173D01*
X145312435Y-105540972D01*
X145304170Y-105564071D01*
X145293680Y-105586250D01*
X145281068Y-105607293D01*
X145266453Y-105626999D01*
X145249977Y-105645177D01*
X145231799Y-105661653D01*
X145212093Y-105676268D01*
X145191050Y-105688880D01*
X145168871Y-105699370D01*
X145145772Y-105707635D01*
X145121973Y-105713596D01*
X145097705Y-105717196D01*
X145073201Y-105718400D01*
X144173199Y-105718400D01*
X144148695Y-105717196D01*
X144124427Y-105713596D01*
X144100628Y-105707635D01*
X144077529Y-105699370D01*
X144055350Y-105688880D01*
X144034307Y-105676268D01*
X144014601Y-105661653D01*
X143996423Y-105645177D01*
X143979947Y-105626999D01*
X143965332Y-105607293D01*
X143952720Y-105586250D01*
X143942230Y-105564071D01*
X143933965Y-105540972D01*
X143928004Y-105517173D01*
X143924404Y-105492905D01*
X143923200Y-105468401D01*
X143923200Y-104818399D01*
X143924404Y-104793895D01*
X143928004Y-104769627D01*
X143933965Y-104745828D01*
X143942230Y-104722729D01*
X143952720Y-104700550D01*
X143965332Y-104679507D01*
X143979947Y-104659801D01*
X143996423Y-104641623D01*
X144014601Y-104625147D01*
X144034307Y-104610532D01*
X144055350Y-104597920D01*
X144077529Y-104587430D01*
X144100628Y-104579165D01*
X144124427Y-104573204D01*
X144148695Y-104569604D01*
X144173199Y-104568400D01*
X145073201Y-104568400D01*
X145097705Y-104569604D01*
X145097705Y-104569604D01*
G37*
D13*
X144623200Y-105143400D03*
D10*
G36*
X147674505Y-110201204D02*
G01*
X147698773Y-110204804D01*
X147722572Y-110210765D01*
X147745671Y-110219030D01*
X147767850Y-110229520D01*
X147788893Y-110242132D01*
X147808599Y-110256747D01*
X147826777Y-110273223D01*
X147843253Y-110291401D01*
X147857868Y-110311107D01*
X147870480Y-110332150D01*
X147880970Y-110354329D01*
X147889235Y-110377428D01*
X147895196Y-110401227D01*
X147898796Y-110425495D01*
X147900000Y-110449999D01*
X147900000Y-111100001D01*
X147898796Y-111124505D01*
X147895196Y-111148773D01*
X147889235Y-111172572D01*
X147880970Y-111195671D01*
X147870480Y-111217850D01*
X147857868Y-111238893D01*
X147843253Y-111258599D01*
X147826777Y-111276777D01*
X147808599Y-111293253D01*
X147788893Y-111307868D01*
X147767850Y-111320480D01*
X147745671Y-111330970D01*
X147722572Y-111339235D01*
X147698773Y-111345196D01*
X147674505Y-111348796D01*
X147650001Y-111350000D01*
X146749999Y-111350000D01*
X146725495Y-111348796D01*
X146701227Y-111345196D01*
X146677428Y-111339235D01*
X146654329Y-111330970D01*
X146632150Y-111320480D01*
X146611107Y-111307868D01*
X146591401Y-111293253D01*
X146573223Y-111276777D01*
X146556747Y-111258599D01*
X146542132Y-111238893D01*
X146529520Y-111217850D01*
X146519030Y-111195671D01*
X146510765Y-111172572D01*
X146504804Y-111148773D01*
X146501204Y-111124505D01*
X146500000Y-111100001D01*
X146500000Y-110449999D01*
X146501204Y-110425495D01*
X146504804Y-110401227D01*
X146510765Y-110377428D01*
X146519030Y-110354329D01*
X146529520Y-110332150D01*
X146542132Y-110311107D01*
X146556747Y-110291401D01*
X146573223Y-110273223D01*
X146591401Y-110256747D01*
X146611107Y-110242132D01*
X146632150Y-110229520D01*
X146654329Y-110219030D01*
X146677428Y-110210765D01*
X146701227Y-110204804D01*
X146725495Y-110201204D01*
X146749999Y-110200000D01*
X147650001Y-110200000D01*
X147674505Y-110201204D01*
X147674505Y-110201204D01*
G37*
D13*
X147200000Y-110775000D03*
D10*
G36*
X147674505Y-112251204D02*
G01*
X147698773Y-112254804D01*
X147722572Y-112260765D01*
X147745671Y-112269030D01*
X147767850Y-112279520D01*
X147788893Y-112292132D01*
X147808599Y-112306747D01*
X147826777Y-112323223D01*
X147843253Y-112341401D01*
X147857868Y-112361107D01*
X147870480Y-112382150D01*
X147880970Y-112404329D01*
X147889235Y-112427428D01*
X147895196Y-112451227D01*
X147898796Y-112475495D01*
X147900000Y-112499999D01*
X147900000Y-113150001D01*
X147898796Y-113174505D01*
X147895196Y-113198773D01*
X147889235Y-113222572D01*
X147880970Y-113245671D01*
X147870480Y-113267850D01*
X147857868Y-113288893D01*
X147843253Y-113308599D01*
X147826777Y-113326777D01*
X147808599Y-113343253D01*
X147788893Y-113357868D01*
X147767850Y-113370480D01*
X147745671Y-113380970D01*
X147722572Y-113389235D01*
X147698773Y-113395196D01*
X147674505Y-113398796D01*
X147650001Y-113400000D01*
X146749999Y-113400000D01*
X146725495Y-113398796D01*
X146701227Y-113395196D01*
X146677428Y-113389235D01*
X146654329Y-113380970D01*
X146632150Y-113370480D01*
X146611107Y-113357868D01*
X146591401Y-113343253D01*
X146573223Y-113326777D01*
X146556747Y-113308599D01*
X146542132Y-113288893D01*
X146529520Y-113267850D01*
X146519030Y-113245671D01*
X146510765Y-113222572D01*
X146504804Y-113198773D01*
X146501204Y-113174505D01*
X146500000Y-113150001D01*
X146500000Y-112499999D01*
X146501204Y-112475495D01*
X146504804Y-112451227D01*
X146510765Y-112427428D01*
X146519030Y-112404329D01*
X146529520Y-112382150D01*
X146542132Y-112361107D01*
X146556747Y-112341401D01*
X146573223Y-112323223D01*
X146591401Y-112306747D01*
X146611107Y-112292132D01*
X146632150Y-112279520D01*
X146654329Y-112269030D01*
X146677428Y-112260765D01*
X146701227Y-112254804D01*
X146725495Y-112251204D01*
X146749999Y-112250000D01*
X147650001Y-112250000D01*
X147674505Y-112251204D01*
X147674505Y-112251204D01*
G37*
D13*
X147200000Y-112825000D03*
D10*
G36*
X145674505Y-110201204D02*
G01*
X145698773Y-110204804D01*
X145722572Y-110210765D01*
X145745671Y-110219030D01*
X145767850Y-110229520D01*
X145788893Y-110242132D01*
X145808599Y-110256747D01*
X145826777Y-110273223D01*
X145843253Y-110291401D01*
X145857868Y-110311107D01*
X145870480Y-110332150D01*
X145880970Y-110354329D01*
X145889235Y-110377428D01*
X145895196Y-110401227D01*
X145898796Y-110425495D01*
X145900000Y-110449999D01*
X145900000Y-111100001D01*
X145898796Y-111124505D01*
X145895196Y-111148773D01*
X145889235Y-111172572D01*
X145880970Y-111195671D01*
X145870480Y-111217850D01*
X145857868Y-111238893D01*
X145843253Y-111258599D01*
X145826777Y-111276777D01*
X145808599Y-111293253D01*
X145788893Y-111307868D01*
X145767850Y-111320480D01*
X145745671Y-111330970D01*
X145722572Y-111339235D01*
X145698773Y-111345196D01*
X145674505Y-111348796D01*
X145650001Y-111350000D01*
X144749999Y-111350000D01*
X144725495Y-111348796D01*
X144701227Y-111345196D01*
X144677428Y-111339235D01*
X144654329Y-111330970D01*
X144632150Y-111320480D01*
X144611107Y-111307868D01*
X144591401Y-111293253D01*
X144573223Y-111276777D01*
X144556747Y-111258599D01*
X144542132Y-111238893D01*
X144529520Y-111217850D01*
X144519030Y-111195671D01*
X144510765Y-111172572D01*
X144504804Y-111148773D01*
X144501204Y-111124505D01*
X144500000Y-111100001D01*
X144500000Y-110449999D01*
X144501204Y-110425495D01*
X144504804Y-110401227D01*
X144510765Y-110377428D01*
X144519030Y-110354329D01*
X144529520Y-110332150D01*
X144542132Y-110311107D01*
X144556747Y-110291401D01*
X144573223Y-110273223D01*
X144591401Y-110256747D01*
X144611107Y-110242132D01*
X144632150Y-110229520D01*
X144654329Y-110219030D01*
X144677428Y-110210765D01*
X144701227Y-110204804D01*
X144725495Y-110201204D01*
X144749999Y-110200000D01*
X145650001Y-110200000D01*
X145674505Y-110201204D01*
X145674505Y-110201204D01*
G37*
D13*
X145200000Y-110775000D03*
D10*
G36*
X145674505Y-112251204D02*
G01*
X145698773Y-112254804D01*
X145722572Y-112260765D01*
X145745671Y-112269030D01*
X145767850Y-112279520D01*
X145788893Y-112292132D01*
X145808599Y-112306747D01*
X145826777Y-112323223D01*
X145843253Y-112341401D01*
X145857868Y-112361107D01*
X145870480Y-112382150D01*
X145880970Y-112404329D01*
X145889235Y-112427428D01*
X145895196Y-112451227D01*
X145898796Y-112475495D01*
X145900000Y-112499999D01*
X145900000Y-113150001D01*
X145898796Y-113174505D01*
X145895196Y-113198773D01*
X145889235Y-113222572D01*
X145880970Y-113245671D01*
X145870480Y-113267850D01*
X145857868Y-113288893D01*
X145843253Y-113308599D01*
X145826777Y-113326777D01*
X145808599Y-113343253D01*
X145788893Y-113357868D01*
X145767850Y-113370480D01*
X145745671Y-113380970D01*
X145722572Y-113389235D01*
X145698773Y-113395196D01*
X145674505Y-113398796D01*
X145650001Y-113400000D01*
X144749999Y-113400000D01*
X144725495Y-113398796D01*
X144701227Y-113395196D01*
X144677428Y-113389235D01*
X144654329Y-113380970D01*
X144632150Y-113370480D01*
X144611107Y-113357868D01*
X144591401Y-113343253D01*
X144573223Y-113326777D01*
X144556747Y-113308599D01*
X144542132Y-113288893D01*
X144529520Y-113267850D01*
X144519030Y-113245671D01*
X144510765Y-113222572D01*
X144504804Y-113198773D01*
X144501204Y-113174505D01*
X144500000Y-113150001D01*
X144500000Y-112499999D01*
X144501204Y-112475495D01*
X144504804Y-112451227D01*
X144510765Y-112427428D01*
X144519030Y-112404329D01*
X144529520Y-112382150D01*
X144542132Y-112361107D01*
X144556747Y-112341401D01*
X144573223Y-112323223D01*
X144591401Y-112306747D01*
X144611107Y-112292132D01*
X144632150Y-112279520D01*
X144654329Y-112269030D01*
X144677428Y-112260765D01*
X144701227Y-112254804D01*
X144725495Y-112251204D01*
X144749999Y-112250000D01*
X145650001Y-112250000D01*
X145674505Y-112251204D01*
X145674505Y-112251204D01*
G37*
D13*
X145200000Y-112825000D03*
M02*
