G04 #@! TF.GenerationSoftware,KiCad,Pcbnew,(5.1.4)-1*
G04 #@! TF.CreationDate,2019-10-11T16:00:27-04:00*
G04 #@! TF.ProjectId,CellMan,43656c6c-4d61-46e2-9e6b-696361645f70,0.1*
G04 #@! TF.SameCoordinates,Original*
G04 #@! TF.FileFunction,Soldermask,Top*
G04 #@! TF.FilePolarity,Negative*
%FSLAX46Y46*%
G04 Gerber Fmt 4.6, Leading zero omitted, Abs format (unit mm)*
G04 Created by KiCad (PCBNEW (5.1.4)-1) date 2019-10-11 16:00:27*
%MOMM*%
%LPD*%
G04 APERTURE LIST*
%ADD10C,0.300000*%
%ADD11C,0.100000*%
G04 APERTURE END LIST*
D10*
X180385714Y-120160714D02*
X180314285Y-120232142D01*
X180100000Y-120303571D01*
X179957142Y-120303571D01*
X179742857Y-120232142D01*
X179600000Y-120089285D01*
X179528571Y-119946428D01*
X179457142Y-119660714D01*
X179457142Y-119446428D01*
X179528571Y-119160714D01*
X179600000Y-119017857D01*
X179742857Y-118875000D01*
X179957142Y-118803571D01*
X180100000Y-118803571D01*
X180314285Y-118875000D01*
X180385714Y-118946428D01*
X181242857Y-120303571D02*
X181100000Y-120232142D01*
X181028571Y-120160714D01*
X180957142Y-120017857D01*
X180957142Y-119589285D01*
X181028571Y-119446428D01*
X181100000Y-119375000D01*
X181242857Y-119303571D01*
X181457142Y-119303571D01*
X181600000Y-119375000D01*
X181671428Y-119446428D01*
X181742857Y-119589285D01*
X181742857Y-120017857D01*
X181671428Y-120160714D01*
X181600000Y-120232142D01*
X181457142Y-120303571D01*
X181242857Y-120303571D01*
X182385714Y-119303571D02*
X182385714Y-120303571D01*
X182385714Y-119446428D02*
X182457142Y-119375000D01*
X182600000Y-119303571D01*
X182814285Y-119303571D01*
X182957142Y-119375000D01*
X183028571Y-119517857D01*
X183028571Y-120303571D01*
X183742857Y-119303571D02*
X183742857Y-120303571D01*
X183742857Y-119446428D02*
X183814285Y-119375000D01*
X183957142Y-119303571D01*
X184171428Y-119303571D01*
X184314285Y-119375000D01*
X184385714Y-119517857D01*
X184385714Y-120303571D01*
X185314285Y-120303571D02*
X185171428Y-120232142D01*
X185100000Y-120160714D01*
X185028571Y-120017857D01*
X185028571Y-119589285D01*
X185100000Y-119446428D01*
X185171428Y-119375000D01*
X185314285Y-119303571D01*
X185528571Y-119303571D01*
X185671428Y-119375000D01*
X185742857Y-119446428D01*
X185814285Y-119589285D01*
X185814285Y-120017857D01*
X185742857Y-120160714D01*
X185671428Y-120232142D01*
X185528571Y-120303571D01*
X185314285Y-120303571D01*
X186457142Y-120303571D02*
X186457142Y-119303571D01*
X186457142Y-119589285D02*
X186528571Y-119446428D01*
X186600000Y-119375000D01*
X186742857Y-119303571D01*
X186885714Y-119303571D01*
X177492857Y-121353571D02*
X177850000Y-122853571D01*
X178135714Y-121782142D01*
X178421428Y-122853571D01*
X178778571Y-121353571D01*
X179350000Y-122853571D02*
X179350000Y-121853571D01*
X179350000Y-121353571D02*
X179278571Y-121425000D01*
X179350000Y-121496428D01*
X179421428Y-121425000D01*
X179350000Y-121353571D01*
X179350000Y-121496428D01*
X180064285Y-121853571D02*
X180064285Y-122853571D01*
X180064285Y-121996428D02*
X180135714Y-121925000D01*
X180278571Y-121853571D01*
X180492857Y-121853571D01*
X180635714Y-121925000D01*
X180707142Y-122067857D01*
X180707142Y-122853571D01*
X181421428Y-122853571D02*
X181421428Y-121853571D01*
X181421428Y-121353571D02*
X181350000Y-121425000D01*
X181421428Y-121496428D01*
X181492857Y-121425000D01*
X181421428Y-121353571D01*
X181421428Y-121496428D01*
X182778571Y-122853571D02*
X182778571Y-122067857D01*
X182707142Y-121925000D01*
X182564285Y-121853571D01*
X182278571Y-121853571D01*
X182135714Y-121925000D01*
X182778571Y-122782142D02*
X182635714Y-122853571D01*
X182278571Y-122853571D01*
X182135714Y-122782142D01*
X182064285Y-122639285D01*
X182064285Y-122496428D01*
X182135714Y-122353571D01*
X182278571Y-122282142D01*
X182635714Y-122282142D01*
X182778571Y-122210714D01*
X183492857Y-122853571D02*
X183492857Y-121853571D01*
X183492857Y-122139285D02*
X183564285Y-121996428D01*
X183635714Y-121925000D01*
X183778571Y-121853571D01*
X183921428Y-121853571D01*
X185064285Y-122782142D02*
X184921428Y-122853571D01*
X184635714Y-122853571D01*
X184492857Y-122782142D01*
X184421428Y-122710714D01*
X184350000Y-122567857D01*
X184350000Y-122139285D01*
X184421428Y-121996428D01*
X184492857Y-121925000D01*
X184635714Y-121853571D01*
X184921428Y-121853571D01*
X185064285Y-121925000D01*
X185564285Y-121853571D02*
X186350000Y-121853571D01*
X185564285Y-122853571D01*
X186350000Y-122853571D01*
X186778571Y-121853571D02*
X187135714Y-122853571D01*
X187492857Y-121853571D02*
X187135714Y-122853571D01*
X186992857Y-123210714D01*
X186921428Y-123282142D01*
X186778571Y-123353571D01*
X188064285Y-122853571D02*
X188064285Y-121353571D01*
X188207142Y-122282142D02*
X188635714Y-122853571D01*
X188635714Y-121853571D02*
X188064285Y-122425000D01*
D11*
G36*
X103451000Y-126201000D02*
G01*
X101649000Y-126201000D01*
X101649000Y-124399000D01*
X103451000Y-124399000D01*
X103451000Y-126201000D01*
X103451000Y-126201000D01*
G37*
G36*
X172866000Y-125776000D02*
G01*
X172214000Y-125776000D01*
X172214000Y-123924000D01*
X172866000Y-123924000D01*
X172866000Y-125776000D01*
X172866000Y-125776000D01*
G37*
G36*
X171596000Y-125776000D02*
G01*
X170944000Y-125776000D01*
X170944000Y-123924000D01*
X171596000Y-123924000D01*
X171596000Y-125776000D01*
X171596000Y-125776000D01*
G37*
G36*
X169056000Y-125776000D02*
G01*
X168404000Y-125776000D01*
X168404000Y-123924000D01*
X169056000Y-123924000D01*
X169056000Y-125776000D01*
X169056000Y-125776000D01*
G37*
G36*
X170326000Y-125776000D02*
G01*
X169674000Y-125776000D01*
X169674000Y-123924000D01*
X170326000Y-123924000D01*
X170326000Y-125776000D01*
X170326000Y-125776000D01*
G37*
G36*
X102660443Y-121865519D02*
G01*
X102726627Y-121872037D01*
X102896466Y-121923557D01*
X103052991Y-122007222D01*
X103088729Y-122036552D01*
X103190186Y-122119814D01*
X103273448Y-122221271D01*
X103302778Y-122257009D01*
X103386443Y-122413534D01*
X103437963Y-122583373D01*
X103455359Y-122760000D01*
X103437963Y-122936627D01*
X103386443Y-123106466D01*
X103302778Y-123262991D01*
X103287627Y-123281452D01*
X103190186Y-123400186D01*
X103088729Y-123483448D01*
X103052991Y-123512778D01*
X102896466Y-123596443D01*
X102726627Y-123647963D01*
X102660443Y-123654481D01*
X102594260Y-123661000D01*
X102505740Y-123661000D01*
X102439557Y-123654481D01*
X102373373Y-123647963D01*
X102203534Y-123596443D01*
X102047009Y-123512778D01*
X102011271Y-123483448D01*
X101909814Y-123400186D01*
X101812373Y-123281452D01*
X101797222Y-123262991D01*
X101713557Y-123106466D01*
X101662037Y-122936627D01*
X101644641Y-122760000D01*
X101662037Y-122583373D01*
X101713557Y-122413534D01*
X101797222Y-122257009D01*
X101826552Y-122221271D01*
X101909814Y-122119814D01*
X102011271Y-122036552D01*
X102047009Y-122007222D01*
X102203534Y-121923557D01*
X102373373Y-121872037D01*
X102439557Y-121865519D01*
X102505740Y-121859000D01*
X102594260Y-121859000D01*
X102660443Y-121865519D01*
X102660443Y-121865519D01*
G37*
G36*
X160024928Y-121451764D02*
G01*
X160046009Y-121458160D01*
X160065445Y-121468548D01*
X160082476Y-121482524D01*
X160096452Y-121499555D01*
X160106840Y-121518991D01*
X160113236Y-121540072D01*
X160116000Y-121568140D01*
X160116000Y-123181860D01*
X160113236Y-123209928D01*
X160106840Y-123231009D01*
X160096452Y-123250445D01*
X160082476Y-123267476D01*
X160065445Y-123281452D01*
X160046009Y-123291840D01*
X160024928Y-123298236D01*
X159996860Y-123301000D01*
X159533140Y-123301000D01*
X159505072Y-123298236D01*
X159483991Y-123291840D01*
X159464555Y-123281452D01*
X159447524Y-123267476D01*
X159433548Y-123250445D01*
X159423160Y-123231009D01*
X159416764Y-123209928D01*
X159414000Y-123181860D01*
X159414000Y-121568140D01*
X159416764Y-121540072D01*
X159423160Y-121518991D01*
X159433548Y-121499555D01*
X159447524Y-121482524D01*
X159464555Y-121468548D01*
X159483991Y-121458160D01*
X159505072Y-121451764D01*
X159533140Y-121449000D01*
X159996860Y-121449000D01*
X160024928Y-121451764D01*
X160024928Y-121451764D01*
G37*
G36*
X162564928Y-121451764D02*
G01*
X162586009Y-121458160D01*
X162605445Y-121468548D01*
X162622476Y-121482524D01*
X162636452Y-121499555D01*
X162646840Y-121518991D01*
X162653236Y-121540072D01*
X162656000Y-121568140D01*
X162656000Y-123181860D01*
X162653236Y-123209928D01*
X162646840Y-123231009D01*
X162636452Y-123250445D01*
X162622476Y-123267476D01*
X162605445Y-123281452D01*
X162586009Y-123291840D01*
X162564928Y-123298236D01*
X162536860Y-123301000D01*
X162073140Y-123301000D01*
X162045072Y-123298236D01*
X162023991Y-123291840D01*
X162004555Y-123281452D01*
X161987524Y-123267476D01*
X161973548Y-123250445D01*
X161963160Y-123231009D01*
X161956764Y-123209928D01*
X161954000Y-123181860D01*
X161954000Y-121568140D01*
X161956764Y-121540072D01*
X161963160Y-121518991D01*
X161973548Y-121499555D01*
X161987524Y-121482524D01*
X162004555Y-121468548D01*
X162023991Y-121458160D01*
X162045072Y-121451764D01*
X162073140Y-121449000D01*
X162536860Y-121449000D01*
X162564928Y-121451764D01*
X162564928Y-121451764D01*
G37*
G36*
X161294928Y-121451764D02*
G01*
X161316009Y-121458160D01*
X161335445Y-121468548D01*
X161352476Y-121482524D01*
X161366452Y-121499555D01*
X161376840Y-121518991D01*
X161383236Y-121540072D01*
X161386000Y-121568140D01*
X161386000Y-123181860D01*
X161383236Y-123209928D01*
X161376840Y-123231009D01*
X161366452Y-123250445D01*
X161352476Y-123267476D01*
X161335445Y-123281452D01*
X161316009Y-123291840D01*
X161294928Y-123298236D01*
X161266860Y-123301000D01*
X160803140Y-123301000D01*
X160775072Y-123298236D01*
X160753991Y-123291840D01*
X160734555Y-123281452D01*
X160717524Y-123267476D01*
X160703548Y-123250445D01*
X160693160Y-123231009D01*
X160686764Y-123209928D01*
X160684000Y-123181860D01*
X160684000Y-121568140D01*
X160686764Y-121540072D01*
X160693160Y-121518991D01*
X160703548Y-121499555D01*
X160717524Y-121482524D01*
X160734555Y-121468548D01*
X160753991Y-121458160D01*
X160775072Y-121451764D01*
X160803140Y-121449000D01*
X161266860Y-121449000D01*
X161294928Y-121451764D01*
X161294928Y-121451764D01*
G37*
G36*
X158754928Y-121451764D02*
G01*
X158776009Y-121458160D01*
X158795445Y-121468548D01*
X158812476Y-121482524D01*
X158826452Y-121499555D01*
X158836840Y-121518991D01*
X158843236Y-121540072D01*
X158846000Y-121568140D01*
X158846000Y-123181860D01*
X158843236Y-123209928D01*
X158836840Y-123231009D01*
X158826452Y-123250445D01*
X158812476Y-123267476D01*
X158795445Y-123281452D01*
X158776009Y-123291840D01*
X158754928Y-123298236D01*
X158726860Y-123301000D01*
X158263140Y-123301000D01*
X158235072Y-123298236D01*
X158213991Y-123291840D01*
X158194555Y-123281452D01*
X158177524Y-123267476D01*
X158163548Y-123250445D01*
X158153160Y-123231009D01*
X158146764Y-123209928D01*
X158144000Y-123181860D01*
X158144000Y-121568140D01*
X158146764Y-121540072D01*
X158153160Y-121518991D01*
X158163548Y-121499555D01*
X158177524Y-121482524D01*
X158194555Y-121468548D01*
X158213991Y-121458160D01*
X158235072Y-121451764D01*
X158263140Y-121449000D01*
X158726860Y-121449000D01*
X158754928Y-121451764D01*
X158754928Y-121451764D01*
G37*
G36*
X154950442Y-120855518D02*
G01*
X155016627Y-120862037D01*
X155186466Y-120913557D01*
X155342991Y-120997222D01*
X155378729Y-121026552D01*
X155480186Y-121109814D01*
X155563448Y-121211271D01*
X155592778Y-121247009D01*
X155676443Y-121403534D01*
X155727963Y-121573373D01*
X155745359Y-121750000D01*
X155727963Y-121926627D01*
X155676443Y-122096466D01*
X155592778Y-122252991D01*
X155563448Y-122288729D01*
X155480186Y-122390186D01*
X155378729Y-122473448D01*
X155342991Y-122502778D01*
X155186466Y-122586443D01*
X155016627Y-122637963D01*
X154950443Y-122644481D01*
X154884260Y-122651000D01*
X154795740Y-122651000D01*
X154729557Y-122644481D01*
X154663373Y-122637963D01*
X154493534Y-122586443D01*
X154337009Y-122502778D01*
X154301271Y-122473448D01*
X154199814Y-122390186D01*
X154116552Y-122288729D01*
X154087222Y-122252991D01*
X154003557Y-122096466D01*
X153952037Y-121926627D01*
X153934641Y-121750000D01*
X153952037Y-121573373D01*
X154003557Y-121403534D01*
X154087222Y-121247009D01*
X154116552Y-121211271D01*
X154199814Y-121109814D01*
X154301271Y-121026552D01*
X154337009Y-120997222D01*
X154493534Y-120913557D01*
X154663373Y-120862037D01*
X154729558Y-120855518D01*
X154795740Y-120849000D01*
X154884260Y-120849000D01*
X154950442Y-120855518D01*
X154950442Y-120855518D01*
G37*
G36*
X153201000Y-122651000D02*
G01*
X151399000Y-122651000D01*
X151399000Y-120849000D01*
X153201000Y-120849000D01*
X153201000Y-122651000D01*
X153201000Y-122651000D01*
G37*
G36*
X102660442Y-119325518D02*
G01*
X102726627Y-119332037D01*
X102896466Y-119383557D01*
X103052991Y-119467222D01*
X103079130Y-119488674D01*
X103190186Y-119579814D01*
X103273448Y-119681271D01*
X103302778Y-119717009D01*
X103386443Y-119873534D01*
X103437963Y-120043373D01*
X103455359Y-120220000D01*
X103437963Y-120396627D01*
X103386443Y-120566466D01*
X103302778Y-120722991D01*
X103273448Y-120758729D01*
X103190186Y-120860186D01*
X103088729Y-120943448D01*
X103052991Y-120972778D01*
X102896466Y-121056443D01*
X102726627Y-121107963D01*
X102660442Y-121114482D01*
X102594260Y-121121000D01*
X102505740Y-121121000D01*
X102439558Y-121114482D01*
X102373373Y-121107963D01*
X102203534Y-121056443D01*
X102047009Y-120972778D01*
X102011271Y-120943448D01*
X101909814Y-120860186D01*
X101826552Y-120758729D01*
X101797222Y-120722991D01*
X101713557Y-120566466D01*
X101662037Y-120396627D01*
X101644641Y-120220000D01*
X101662037Y-120043373D01*
X101713557Y-119873534D01*
X101797222Y-119717009D01*
X101826552Y-119681271D01*
X101909814Y-119579814D01*
X102020870Y-119488674D01*
X102047009Y-119467222D01*
X102203534Y-119383557D01*
X102373373Y-119332037D01*
X102439558Y-119325518D01*
X102505740Y-119319000D01*
X102594260Y-119319000D01*
X102660442Y-119325518D01*
X102660442Y-119325518D01*
G37*
G36*
X164788674Y-118403465D02*
G01*
X164826367Y-118414899D01*
X164861103Y-118433466D01*
X164891548Y-118458452D01*
X164916534Y-118488897D01*
X164935101Y-118523633D01*
X164946535Y-118561326D01*
X164951000Y-118606661D01*
X164951000Y-119443339D01*
X164946535Y-119488674D01*
X164935101Y-119526367D01*
X164916534Y-119561103D01*
X164891548Y-119591548D01*
X164861103Y-119616534D01*
X164826367Y-119635101D01*
X164788674Y-119646535D01*
X164743339Y-119651000D01*
X163656661Y-119651000D01*
X163611326Y-119646535D01*
X163573633Y-119635101D01*
X163538897Y-119616534D01*
X163508452Y-119591548D01*
X163483466Y-119561103D01*
X163464899Y-119526367D01*
X163453465Y-119488674D01*
X163449000Y-119443339D01*
X163449000Y-118606661D01*
X163453465Y-118561326D01*
X163464899Y-118523633D01*
X163483466Y-118488897D01*
X163508452Y-118458452D01*
X163538897Y-118433466D01*
X163573633Y-118414899D01*
X163611326Y-118403465D01*
X163656661Y-118399000D01*
X164743339Y-118399000D01*
X164788674Y-118403465D01*
X164788674Y-118403465D01*
G37*
G36*
X121288674Y-118303465D02*
G01*
X121326367Y-118314899D01*
X121361103Y-118333466D01*
X121391548Y-118358452D01*
X121416534Y-118388897D01*
X121435101Y-118423633D01*
X121446535Y-118461326D01*
X121451000Y-118506661D01*
X121451000Y-119343339D01*
X121446535Y-119388674D01*
X121435101Y-119426367D01*
X121416534Y-119461103D01*
X121391548Y-119491548D01*
X121361103Y-119516534D01*
X121326367Y-119535101D01*
X121288674Y-119546535D01*
X121243339Y-119551000D01*
X120156661Y-119551000D01*
X120111326Y-119546535D01*
X120073633Y-119535101D01*
X120038897Y-119516534D01*
X120008452Y-119491548D01*
X119983466Y-119461103D01*
X119964899Y-119426367D01*
X119953465Y-119388674D01*
X119949000Y-119343339D01*
X119949000Y-118506661D01*
X119953465Y-118461326D01*
X119964899Y-118423633D01*
X119983466Y-118388897D01*
X120008452Y-118358452D01*
X120038897Y-118333466D01*
X120073633Y-118314899D01*
X120111326Y-118303465D01*
X120156661Y-118299000D01*
X121243339Y-118299000D01*
X121288674Y-118303465D01*
X121288674Y-118303465D01*
G37*
G36*
X108829468Y-117741565D02*
G01*
X108868138Y-117753296D01*
X108903777Y-117772346D01*
X108935017Y-117797983D01*
X108960654Y-117829223D01*
X108979704Y-117864862D01*
X108991435Y-117903532D01*
X108996000Y-117949888D01*
X108996000Y-119026112D01*
X108991435Y-119072468D01*
X108979704Y-119111138D01*
X108960654Y-119146777D01*
X108935017Y-119178017D01*
X108903777Y-119203654D01*
X108868138Y-119222704D01*
X108829468Y-119234435D01*
X108783112Y-119239000D01*
X108131888Y-119239000D01*
X108085532Y-119234435D01*
X108046862Y-119222704D01*
X108011223Y-119203654D01*
X107979983Y-119178017D01*
X107954346Y-119146777D01*
X107935296Y-119111138D01*
X107923565Y-119072468D01*
X107919000Y-119026112D01*
X107919000Y-117949888D01*
X107923565Y-117903532D01*
X107935296Y-117864862D01*
X107954346Y-117829223D01*
X107979983Y-117797983D01*
X108011223Y-117772346D01*
X108046862Y-117753296D01*
X108085532Y-117741565D01*
X108131888Y-117737000D01*
X108783112Y-117737000D01*
X108829468Y-117741565D01*
X108829468Y-117741565D01*
G37*
G36*
X106954468Y-117741565D02*
G01*
X106993138Y-117753296D01*
X107028777Y-117772346D01*
X107060017Y-117797983D01*
X107085654Y-117829223D01*
X107104704Y-117864862D01*
X107116435Y-117903532D01*
X107121000Y-117949888D01*
X107121000Y-119026112D01*
X107116435Y-119072468D01*
X107104704Y-119111138D01*
X107085654Y-119146777D01*
X107060017Y-119178017D01*
X107028777Y-119203654D01*
X106993138Y-119222704D01*
X106954468Y-119234435D01*
X106908112Y-119239000D01*
X106256888Y-119239000D01*
X106210532Y-119234435D01*
X106171862Y-119222704D01*
X106136223Y-119203654D01*
X106104983Y-119178017D01*
X106079346Y-119146777D01*
X106060296Y-119111138D01*
X106048565Y-119072468D01*
X106044000Y-119026112D01*
X106044000Y-117949888D01*
X106048565Y-117903532D01*
X106060296Y-117864862D01*
X106079346Y-117829223D01*
X106104983Y-117797983D01*
X106136223Y-117772346D01*
X106171862Y-117753296D01*
X106210532Y-117741565D01*
X106256888Y-117737000D01*
X106908112Y-117737000D01*
X106954468Y-117741565D01*
X106954468Y-117741565D01*
G37*
G36*
X112808674Y-117741465D02*
G01*
X112846367Y-117752899D01*
X112881103Y-117771466D01*
X112911548Y-117796452D01*
X112936534Y-117826897D01*
X112955101Y-117861633D01*
X112966535Y-117899326D01*
X112971000Y-117944661D01*
X112971000Y-119031339D01*
X112966535Y-119076674D01*
X112955101Y-119114367D01*
X112936534Y-119149103D01*
X112911548Y-119179548D01*
X112881103Y-119204534D01*
X112846367Y-119223101D01*
X112808674Y-119234535D01*
X112763339Y-119239000D01*
X111926661Y-119239000D01*
X111881326Y-119234535D01*
X111843633Y-119223101D01*
X111808897Y-119204534D01*
X111778452Y-119179548D01*
X111753466Y-119149103D01*
X111734899Y-119114367D01*
X111723465Y-119076674D01*
X111719000Y-119031339D01*
X111719000Y-117944661D01*
X111723465Y-117899326D01*
X111734899Y-117861633D01*
X111753466Y-117826897D01*
X111778452Y-117796452D01*
X111808897Y-117771466D01*
X111843633Y-117752899D01*
X111881326Y-117741465D01*
X111926661Y-117737000D01*
X112763339Y-117737000D01*
X112808674Y-117741465D01*
X112808674Y-117741465D01*
G37*
G36*
X110758674Y-117741465D02*
G01*
X110796367Y-117752899D01*
X110831103Y-117771466D01*
X110861548Y-117796452D01*
X110886534Y-117826897D01*
X110905101Y-117861633D01*
X110916535Y-117899326D01*
X110921000Y-117944661D01*
X110921000Y-119031339D01*
X110916535Y-119076674D01*
X110905101Y-119114367D01*
X110886534Y-119149103D01*
X110861548Y-119179548D01*
X110831103Y-119204534D01*
X110796367Y-119223101D01*
X110758674Y-119234535D01*
X110713339Y-119239000D01*
X109876661Y-119239000D01*
X109831326Y-119234535D01*
X109793633Y-119223101D01*
X109758897Y-119204534D01*
X109728452Y-119179548D01*
X109703466Y-119149103D01*
X109684899Y-119114367D01*
X109673465Y-119076674D01*
X109669000Y-119031339D01*
X109669000Y-117944661D01*
X109673465Y-117899326D01*
X109684899Y-117861633D01*
X109703466Y-117826897D01*
X109728452Y-117796452D01*
X109758897Y-117771466D01*
X109793633Y-117752899D01*
X109831326Y-117741465D01*
X109876661Y-117737000D01*
X110713339Y-117737000D01*
X110758674Y-117741465D01*
X110758674Y-117741465D01*
G37*
G36*
X126981000Y-118726000D02*
G01*
X125379000Y-118726000D01*
X125379000Y-118174000D01*
X126981000Y-118174000D01*
X126981000Y-118726000D01*
X126981000Y-118726000D01*
G37*
G36*
X170326000Y-118376000D02*
G01*
X169674000Y-118376000D01*
X169674000Y-116524000D01*
X170326000Y-116524000D01*
X170326000Y-118376000D01*
X170326000Y-118376000D01*
G37*
G36*
X172866000Y-118376000D02*
G01*
X172214000Y-118376000D01*
X172214000Y-116524000D01*
X172866000Y-116524000D01*
X172866000Y-118376000D01*
X172866000Y-118376000D01*
G37*
G36*
X171596000Y-118376000D02*
G01*
X170944000Y-118376000D01*
X170944000Y-116524000D01*
X171596000Y-116524000D01*
X171596000Y-118376000D01*
X171596000Y-118376000D01*
G37*
G36*
X169056000Y-118376000D02*
G01*
X168404000Y-118376000D01*
X168404000Y-116524000D01*
X169056000Y-116524000D01*
X169056000Y-118376000D01*
X169056000Y-118376000D01*
G37*
G36*
X158754928Y-116301764D02*
G01*
X158776009Y-116308160D01*
X158795445Y-116318548D01*
X158812476Y-116332524D01*
X158826452Y-116349555D01*
X158836840Y-116368991D01*
X158843236Y-116390072D01*
X158846000Y-116418140D01*
X158846000Y-118031860D01*
X158843236Y-118059928D01*
X158836840Y-118081009D01*
X158826452Y-118100445D01*
X158812476Y-118117476D01*
X158795445Y-118131452D01*
X158776009Y-118141840D01*
X158754928Y-118148236D01*
X158726860Y-118151000D01*
X158263140Y-118151000D01*
X158235072Y-118148236D01*
X158213991Y-118141840D01*
X158194555Y-118131452D01*
X158177524Y-118117476D01*
X158163548Y-118100445D01*
X158153160Y-118081009D01*
X158146764Y-118059928D01*
X158144000Y-118031860D01*
X158144000Y-116418140D01*
X158146764Y-116390072D01*
X158153160Y-116368991D01*
X158163548Y-116349555D01*
X158177524Y-116332524D01*
X158194555Y-116318548D01*
X158213991Y-116308160D01*
X158235072Y-116301764D01*
X158263140Y-116299000D01*
X158726860Y-116299000D01*
X158754928Y-116301764D01*
X158754928Y-116301764D01*
G37*
G36*
X162564928Y-116301764D02*
G01*
X162586009Y-116308160D01*
X162605445Y-116318548D01*
X162622476Y-116332524D01*
X162636452Y-116349555D01*
X162646840Y-116368991D01*
X162653236Y-116390072D01*
X162656000Y-116418140D01*
X162656000Y-118031860D01*
X162653236Y-118059928D01*
X162646840Y-118081009D01*
X162636452Y-118100445D01*
X162622476Y-118117476D01*
X162605445Y-118131452D01*
X162586009Y-118141840D01*
X162564928Y-118148236D01*
X162536860Y-118151000D01*
X162073140Y-118151000D01*
X162045072Y-118148236D01*
X162023991Y-118141840D01*
X162004555Y-118131452D01*
X161987524Y-118117476D01*
X161973548Y-118100445D01*
X161963160Y-118081009D01*
X161956764Y-118059928D01*
X161954000Y-118031860D01*
X161954000Y-116418140D01*
X161956764Y-116390072D01*
X161963160Y-116368991D01*
X161973548Y-116349555D01*
X161987524Y-116332524D01*
X162004555Y-116318548D01*
X162023991Y-116308160D01*
X162045072Y-116301764D01*
X162073140Y-116299000D01*
X162536860Y-116299000D01*
X162564928Y-116301764D01*
X162564928Y-116301764D01*
G37*
G36*
X161294928Y-116301764D02*
G01*
X161316009Y-116308160D01*
X161335445Y-116318548D01*
X161352476Y-116332524D01*
X161366452Y-116349555D01*
X161376840Y-116368991D01*
X161383236Y-116390072D01*
X161386000Y-116418140D01*
X161386000Y-118031860D01*
X161383236Y-118059928D01*
X161376840Y-118081009D01*
X161366452Y-118100445D01*
X161352476Y-118117476D01*
X161335445Y-118131452D01*
X161316009Y-118141840D01*
X161294928Y-118148236D01*
X161266860Y-118151000D01*
X160803140Y-118151000D01*
X160775072Y-118148236D01*
X160753991Y-118141840D01*
X160734555Y-118131452D01*
X160717524Y-118117476D01*
X160703548Y-118100445D01*
X160693160Y-118081009D01*
X160686764Y-118059928D01*
X160684000Y-118031860D01*
X160684000Y-116418140D01*
X160686764Y-116390072D01*
X160693160Y-116368991D01*
X160703548Y-116349555D01*
X160717524Y-116332524D01*
X160734555Y-116318548D01*
X160753991Y-116308160D01*
X160775072Y-116301764D01*
X160803140Y-116299000D01*
X161266860Y-116299000D01*
X161294928Y-116301764D01*
X161294928Y-116301764D01*
G37*
G36*
X160024928Y-116301764D02*
G01*
X160046009Y-116308160D01*
X160065445Y-116318548D01*
X160082476Y-116332524D01*
X160096452Y-116349555D01*
X160106840Y-116368991D01*
X160113236Y-116390072D01*
X160116000Y-116418140D01*
X160116000Y-118031860D01*
X160113236Y-118059928D01*
X160106840Y-118081009D01*
X160096452Y-118100445D01*
X160082476Y-118117476D01*
X160065445Y-118131452D01*
X160046009Y-118141840D01*
X160024928Y-118148236D01*
X159996860Y-118151000D01*
X159533140Y-118151000D01*
X159505072Y-118148236D01*
X159483991Y-118141840D01*
X159464555Y-118131452D01*
X159447524Y-118117476D01*
X159433548Y-118100445D01*
X159423160Y-118081009D01*
X159416764Y-118059928D01*
X159414000Y-118031860D01*
X159414000Y-116418140D01*
X159416764Y-116390072D01*
X159423160Y-116368991D01*
X159433548Y-116349555D01*
X159447524Y-116332524D01*
X159464555Y-116318548D01*
X159483991Y-116308160D01*
X159505072Y-116301764D01*
X159533140Y-116299000D01*
X159996860Y-116299000D01*
X160024928Y-116301764D01*
X160024928Y-116301764D01*
G37*
G36*
X124321000Y-118076000D02*
G01*
X122719000Y-118076000D01*
X122719000Y-117524000D01*
X124321000Y-117524000D01*
X124321000Y-118076000D01*
X124321000Y-118076000D01*
G37*
G36*
X164788674Y-116353465D02*
G01*
X164826367Y-116364899D01*
X164861103Y-116383466D01*
X164891548Y-116408452D01*
X164916534Y-116438897D01*
X164935101Y-116473633D01*
X164946535Y-116511326D01*
X164951000Y-116556661D01*
X164951000Y-117393339D01*
X164946535Y-117438674D01*
X164935101Y-117476367D01*
X164916534Y-117511103D01*
X164891548Y-117541548D01*
X164861103Y-117566534D01*
X164826367Y-117585101D01*
X164788674Y-117596535D01*
X164743339Y-117601000D01*
X163656661Y-117601000D01*
X163611326Y-117596535D01*
X163573633Y-117585101D01*
X163538897Y-117566534D01*
X163508452Y-117541548D01*
X163483466Y-117511103D01*
X163464899Y-117476367D01*
X163453465Y-117438674D01*
X163449000Y-117393339D01*
X163449000Y-116556661D01*
X163453465Y-116511326D01*
X163464899Y-116473633D01*
X163483466Y-116438897D01*
X163508452Y-116408452D01*
X163538897Y-116383466D01*
X163573633Y-116364899D01*
X163611326Y-116353465D01*
X163656661Y-116349000D01*
X164743339Y-116349000D01*
X164788674Y-116353465D01*
X164788674Y-116353465D01*
G37*
G36*
X121288674Y-116253465D02*
G01*
X121326367Y-116264899D01*
X121361103Y-116283466D01*
X121391548Y-116308452D01*
X121416534Y-116338897D01*
X121435101Y-116373633D01*
X121446535Y-116411326D01*
X121451000Y-116456661D01*
X121451000Y-117293339D01*
X121446535Y-117338674D01*
X121435101Y-117376367D01*
X121416534Y-117411103D01*
X121391548Y-117441548D01*
X121361103Y-117466534D01*
X121326367Y-117485101D01*
X121288674Y-117496535D01*
X121243339Y-117501000D01*
X120156661Y-117501000D01*
X120111326Y-117496535D01*
X120073633Y-117485101D01*
X120038897Y-117466534D01*
X120008452Y-117441548D01*
X119983466Y-117411103D01*
X119964899Y-117376367D01*
X119953465Y-117338674D01*
X119949000Y-117293339D01*
X119949000Y-116456661D01*
X119953465Y-116411326D01*
X119964899Y-116373633D01*
X119983466Y-116338897D01*
X120008452Y-116308452D01*
X120038897Y-116283466D01*
X120073633Y-116264899D01*
X120111326Y-116253465D01*
X120156661Y-116249000D01*
X121243339Y-116249000D01*
X121288674Y-116253465D01*
X121288674Y-116253465D01*
G37*
G36*
X126981000Y-117426000D02*
G01*
X125379000Y-117426000D01*
X125379000Y-116874000D01*
X126981000Y-116874000D01*
X126981000Y-117426000D01*
X126981000Y-117426000D01*
G37*
G36*
X163688674Y-114253465D02*
G01*
X163726367Y-114264899D01*
X163761103Y-114283466D01*
X163791548Y-114308452D01*
X163816534Y-114338897D01*
X163835101Y-114373633D01*
X163846535Y-114411326D01*
X163851000Y-114456661D01*
X163851000Y-115543339D01*
X163846535Y-115588674D01*
X163835101Y-115626367D01*
X163816534Y-115661103D01*
X163791548Y-115691548D01*
X163761103Y-115716534D01*
X163726367Y-115735101D01*
X163688674Y-115746535D01*
X163643339Y-115751000D01*
X162806661Y-115751000D01*
X162761326Y-115746535D01*
X162723633Y-115735101D01*
X162688897Y-115716534D01*
X162658452Y-115691548D01*
X162633466Y-115661103D01*
X162614899Y-115626367D01*
X162603465Y-115588674D01*
X162599000Y-115543339D01*
X162599000Y-114456661D01*
X162603465Y-114411326D01*
X162614899Y-114373633D01*
X162633466Y-114338897D01*
X162658452Y-114308452D01*
X162688897Y-114283466D01*
X162723633Y-114264899D01*
X162761326Y-114253465D01*
X162806661Y-114249000D01*
X163643339Y-114249000D01*
X163688674Y-114253465D01*
X163688674Y-114253465D01*
G37*
G36*
X161638674Y-114253465D02*
G01*
X161676367Y-114264899D01*
X161711103Y-114283466D01*
X161741548Y-114308452D01*
X161766534Y-114338897D01*
X161785101Y-114373633D01*
X161796535Y-114411326D01*
X161801000Y-114456661D01*
X161801000Y-115543339D01*
X161796535Y-115588674D01*
X161785101Y-115626367D01*
X161766534Y-115661103D01*
X161741548Y-115691548D01*
X161711103Y-115716534D01*
X161676367Y-115735101D01*
X161638674Y-115746535D01*
X161593339Y-115751000D01*
X160756661Y-115751000D01*
X160711326Y-115746535D01*
X160673633Y-115735101D01*
X160638897Y-115716534D01*
X160608452Y-115691548D01*
X160583466Y-115661103D01*
X160564899Y-115626367D01*
X160553465Y-115588674D01*
X160549000Y-115543339D01*
X160549000Y-114456661D01*
X160553465Y-114411326D01*
X160564899Y-114373633D01*
X160583466Y-114338897D01*
X160608452Y-114308452D01*
X160638897Y-114283466D01*
X160673633Y-114264899D01*
X160711326Y-114253465D01*
X160756661Y-114249000D01*
X161593339Y-114249000D01*
X161638674Y-114253465D01*
X161638674Y-114253465D01*
G37*
G36*
X154438674Y-114453465D02*
G01*
X154476367Y-114464899D01*
X154511103Y-114483466D01*
X154541548Y-114508452D01*
X154566534Y-114538897D01*
X154585101Y-114573633D01*
X154596535Y-114611326D01*
X154601000Y-114656661D01*
X154601000Y-115493339D01*
X154596535Y-115538674D01*
X154585101Y-115576367D01*
X154566534Y-115611103D01*
X154541548Y-115641548D01*
X154511103Y-115666534D01*
X154476367Y-115685101D01*
X154438674Y-115696535D01*
X154393339Y-115701000D01*
X153306661Y-115701000D01*
X153261326Y-115696535D01*
X153223633Y-115685101D01*
X153188897Y-115666534D01*
X153158452Y-115641548D01*
X153133466Y-115611103D01*
X153114899Y-115576367D01*
X153103465Y-115538674D01*
X153099000Y-115493339D01*
X153099000Y-114656661D01*
X153103465Y-114611326D01*
X153114899Y-114573633D01*
X153133466Y-114538897D01*
X153158452Y-114508452D01*
X153188897Y-114483466D01*
X153223633Y-114464899D01*
X153261326Y-114453465D01*
X153306661Y-114449000D01*
X154393339Y-114449000D01*
X154438674Y-114453465D01*
X154438674Y-114453465D01*
G37*
G36*
X135526000Y-115681000D02*
G01*
X132874000Y-115681000D01*
X132874000Y-114519000D01*
X135526000Y-114519000D01*
X135526000Y-115681000D01*
X135526000Y-115681000D01*
G37*
G36*
X131788674Y-114353465D02*
G01*
X131826367Y-114364899D01*
X131861103Y-114383466D01*
X131891548Y-114408452D01*
X131916534Y-114438897D01*
X131935101Y-114473633D01*
X131946535Y-114511326D01*
X131951000Y-114556661D01*
X131951000Y-115393339D01*
X131946535Y-115438674D01*
X131935101Y-115476367D01*
X131916534Y-115511103D01*
X131891548Y-115541548D01*
X131861103Y-115566534D01*
X131826367Y-115585101D01*
X131788674Y-115596535D01*
X131743339Y-115601000D01*
X130656661Y-115601000D01*
X130611326Y-115596535D01*
X130573633Y-115585101D01*
X130538897Y-115566534D01*
X130508452Y-115541548D01*
X130483466Y-115511103D01*
X130464899Y-115476367D01*
X130453465Y-115438674D01*
X130449000Y-115393339D01*
X130449000Y-114556661D01*
X130453465Y-114511326D01*
X130464899Y-114473633D01*
X130483466Y-114438897D01*
X130508452Y-114408452D01*
X130538897Y-114383466D01*
X130573633Y-114364899D01*
X130611326Y-114353465D01*
X130656661Y-114349000D01*
X131743339Y-114349000D01*
X131788674Y-114353465D01*
X131788674Y-114353465D01*
G37*
G36*
X147815074Y-114333965D02*
G01*
X147852767Y-114345399D01*
X147887503Y-114363966D01*
X147917948Y-114388952D01*
X147942934Y-114419397D01*
X147961501Y-114454133D01*
X147972935Y-114491826D01*
X147977400Y-114537161D01*
X147977400Y-115373839D01*
X147972935Y-115419174D01*
X147961501Y-115456867D01*
X147942934Y-115491603D01*
X147917948Y-115522048D01*
X147887503Y-115547034D01*
X147852767Y-115565601D01*
X147815074Y-115577035D01*
X147769739Y-115581500D01*
X146683061Y-115581500D01*
X146637726Y-115577035D01*
X146600033Y-115565601D01*
X146565297Y-115547034D01*
X146534852Y-115522048D01*
X146509866Y-115491603D01*
X146491299Y-115456867D01*
X146479865Y-115419174D01*
X146475400Y-115373839D01*
X146475400Y-114537161D01*
X146479865Y-114491826D01*
X146491299Y-114454133D01*
X146509866Y-114419397D01*
X146534852Y-114388952D01*
X146565297Y-114363966D01*
X146600033Y-114345399D01*
X146637726Y-114333965D01*
X146683061Y-114329500D01*
X147769739Y-114329500D01*
X147815074Y-114333965D01*
X147815074Y-114333965D01*
G37*
G36*
X145815074Y-114333965D02*
G01*
X145852767Y-114345399D01*
X145887503Y-114363966D01*
X145917948Y-114388952D01*
X145942934Y-114419397D01*
X145961501Y-114454133D01*
X145972935Y-114491826D01*
X145977400Y-114537161D01*
X145977400Y-115373839D01*
X145972935Y-115419174D01*
X145961501Y-115456867D01*
X145942934Y-115491603D01*
X145917948Y-115522048D01*
X145887503Y-115547034D01*
X145852767Y-115565601D01*
X145815074Y-115577035D01*
X145769739Y-115581500D01*
X144683061Y-115581500D01*
X144637726Y-115577035D01*
X144600033Y-115565601D01*
X144565297Y-115547034D01*
X144534852Y-115522048D01*
X144509866Y-115491603D01*
X144491299Y-115456867D01*
X144479865Y-115419174D01*
X144475400Y-115373839D01*
X144475400Y-114537161D01*
X144479865Y-114491826D01*
X144491299Y-114454133D01*
X144509866Y-114419397D01*
X144534852Y-114388952D01*
X144565297Y-114363966D01*
X144600033Y-114345399D01*
X144637726Y-114333965D01*
X144683061Y-114329500D01*
X145769739Y-114329500D01*
X145815074Y-114333965D01*
X145815074Y-114333965D01*
G37*
G36*
X152384468Y-114473565D02*
G01*
X152423138Y-114485296D01*
X152458777Y-114504346D01*
X152490017Y-114529983D01*
X152515654Y-114561223D01*
X152534704Y-114596862D01*
X152546435Y-114635532D01*
X152551000Y-114681888D01*
X152551000Y-115333112D01*
X152546435Y-115379468D01*
X152534704Y-115418138D01*
X152515654Y-115453777D01*
X152490017Y-115485017D01*
X152458777Y-115510654D01*
X152423138Y-115529704D01*
X152384468Y-115541435D01*
X152338112Y-115546000D01*
X151261888Y-115546000D01*
X151215532Y-115541435D01*
X151176862Y-115529704D01*
X151141223Y-115510654D01*
X151109983Y-115485017D01*
X151084346Y-115453777D01*
X151065296Y-115418138D01*
X151053565Y-115379468D01*
X151049000Y-115333112D01*
X151049000Y-114681888D01*
X151053565Y-114635532D01*
X151065296Y-114596862D01*
X151084346Y-114561223D01*
X151109983Y-114529983D01*
X151141223Y-114504346D01*
X151176862Y-114485296D01*
X151215532Y-114473565D01*
X151261888Y-114469000D01*
X152338112Y-114469000D01*
X152384468Y-114473565D01*
X152384468Y-114473565D01*
G37*
G36*
X171907477Y-105583892D02*
G01*
X172100874Y-105664000D01*
X172735707Y-105926956D01*
X173481093Y-106425008D01*
X174114992Y-107058907D01*
X174613044Y-107804293D01*
X174778608Y-108204000D01*
X174956108Y-108632523D01*
X175131000Y-109511764D01*
X175131000Y-110408236D01*
X174956108Y-111287477D01*
X174836473Y-111576300D01*
X174613044Y-112115707D01*
X174114992Y-112861093D01*
X173481093Y-113494992D01*
X172735707Y-113993044D01*
X172250541Y-114194006D01*
X171907477Y-114336108D01*
X171028236Y-114511000D01*
X170131764Y-114511000D01*
X169252523Y-114336108D01*
X168909459Y-114194006D01*
X168424293Y-113993044D01*
X167678907Y-113494992D01*
X167045008Y-112861093D01*
X166546956Y-112115707D01*
X166323527Y-111576300D01*
X166203892Y-111287477D01*
X166029000Y-110408236D01*
X166029000Y-109511764D01*
X166203892Y-108632523D01*
X166381392Y-108204000D01*
X166546956Y-107804293D01*
X167045008Y-107058907D01*
X167678907Y-106425008D01*
X168424293Y-105926956D01*
X169059126Y-105664000D01*
X169252523Y-105583892D01*
X170131764Y-105409000D01*
X171028236Y-105409000D01*
X171907477Y-105583892D01*
X171907477Y-105583892D01*
G37*
G36*
X103327477Y-105583892D02*
G01*
X103520874Y-105664000D01*
X104155707Y-105926956D01*
X104901093Y-106425008D01*
X105534992Y-107058907D01*
X106033044Y-107804293D01*
X106198608Y-108204000D01*
X106376108Y-108632523D01*
X106551000Y-109511764D01*
X106551000Y-110408236D01*
X106376108Y-111287477D01*
X106256473Y-111576300D01*
X106033044Y-112115707D01*
X105534992Y-112861093D01*
X104901093Y-113494992D01*
X104155707Y-113993044D01*
X103670541Y-114194006D01*
X103327477Y-114336108D01*
X102448236Y-114511000D01*
X101551764Y-114511000D01*
X100672523Y-114336108D01*
X100329459Y-114194006D01*
X99844293Y-113993044D01*
X99098907Y-113494992D01*
X98465008Y-112861093D01*
X97966956Y-112115707D01*
X97743527Y-111576300D01*
X97623892Y-111287477D01*
X97449000Y-110408236D01*
X97449000Y-109511764D01*
X97623892Y-108632523D01*
X97801392Y-108204000D01*
X97966956Y-107804293D01*
X98465008Y-107058907D01*
X99098907Y-106425008D01*
X99844293Y-105926956D01*
X100479126Y-105664000D01*
X100672523Y-105583892D01*
X101551764Y-105409000D01*
X102448236Y-105409000D01*
X103327477Y-105583892D01*
X103327477Y-105583892D01*
G37*
G36*
X182067477Y-105583892D02*
G01*
X182260874Y-105664000D01*
X182895707Y-105926956D01*
X183641093Y-106425008D01*
X184274992Y-107058907D01*
X184773044Y-107804293D01*
X184938608Y-108204000D01*
X185116108Y-108632523D01*
X185291000Y-109511764D01*
X185291000Y-110408236D01*
X185116108Y-111287477D01*
X184996473Y-111576300D01*
X184773044Y-112115707D01*
X184274992Y-112861093D01*
X183641093Y-113494992D01*
X182895707Y-113993044D01*
X182410541Y-114194006D01*
X182067477Y-114336108D01*
X181188236Y-114511000D01*
X180291764Y-114511000D01*
X179412523Y-114336108D01*
X179069459Y-114194006D01*
X178584293Y-113993044D01*
X177838907Y-113494992D01*
X177205008Y-112861093D01*
X176706956Y-112115707D01*
X176483527Y-111576300D01*
X176363892Y-111287477D01*
X176189000Y-110408236D01*
X176189000Y-109511764D01*
X176363892Y-108632523D01*
X176541392Y-108204000D01*
X176706956Y-107804293D01*
X177205008Y-107058907D01*
X177838907Y-106425008D01*
X178584293Y-105926956D01*
X179219126Y-105664000D01*
X179412523Y-105583892D01*
X180291764Y-105409000D01*
X181188236Y-105409000D01*
X182067477Y-105583892D01*
X182067477Y-105583892D01*
G37*
G36*
X113487477Y-105583892D02*
G01*
X113680874Y-105664000D01*
X114315707Y-105926956D01*
X115061093Y-106425008D01*
X115694992Y-107058907D01*
X116193044Y-107804293D01*
X116358608Y-108204000D01*
X116536108Y-108632523D01*
X116711000Y-109511764D01*
X116711000Y-110408236D01*
X116536108Y-111287477D01*
X116416473Y-111576300D01*
X116193044Y-112115707D01*
X115694992Y-112861093D01*
X115061093Y-113494992D01*
X114315707Y-113993044D01*
X113830541Y-114194006D01*
X113487477Y-114336108D01*
X112608236Y-114511000D01*
X111711764Y-114511000D01*
X110832523Y-114336108D01*
X110489459Y-114194006D01*
X110004293Y-113993044D01*
X109258907Y-113494992D01*
X108625008Y-112861093D01*
X108126956Y-112115707D01*
X107903527Y-111576300D01*
X107783892Y-111287477D01*
X107609000Y-110408236D01*
X107609000Y-109511764D01*
X107783892Y-108632523D01*
X107961392Y-108204000D01*
X108126956Y-107804293D01*
X108625008Y-107058907D01*
X109258907Y-106425008D01*
X110004293Y-105926956D01*
X110639126Y-105664000D01*
X110832523Y-105583892D01*
X111711764Y-105409000D01*
X112608236Y-105409000D01*
X113487477Y-105583892D01*
X113487477Y-105583892D01*
G37*
G36*
X152384468Y-112598565D02*
G01*
X152423138Y-112610296D01*
X152458777Y-112629346D01*
X152490017Y-112654983D01*
X152515654Y-112686223D01*
X152534704Y-112721862D01*
X152546435Y-112760532D01*
X152551000Y-112806888D01*
X152551000Y-113458112D01*
X152546435Y-113504468D01*
X152534704Y-113543138D01*
X152515654Y-113578777D01*
X152490017Y-113610017D01*
X152458777Y-113635654D01*
X152423138Y-113654704D01*
X152384468Y-113666435D01*
X152338112Y-113671000D01*
X151261888Y-113671000D01*
X151215532Y-113666435D01*
X151176862Y-113654704D01*
X151141223Y-113635654D01*
X151109983Y-113610017D01*
X151084346Y-113578777D01*
X151065296Y-113543138D01*
X151053565Y-113504468D01*
X151049000Y-113458112D01*
X151049000Y-112806888D01*
X151053565Y-112760532D01*
X151065296Y-112721862D01*
X151084346Y-112686223D01*
X151109983Y-112654983D01*
X151141223Y-112629346D01*
X151176862Y-112610296D01*
X151215532Y-112598565D01*
X151261888Y-112594000D01*
X152338112Y-112594000D01*
X152384468Y-112598565D01*
X152384468Y-112598565D01*
G37*
G36*
X154438674Y-112403465D02*
G01*
X154476367Y-112414899D01*
X154511103Y-112433466D01*
X154541548Y-112458452D01*
X154566534Y-112488897D01*
X154585101Y-112523633D01*
X154596535Y-112561326D01*
X154601000Y-112606661D01*
X154601000Y-113443339D01*
X154596535Y-113488674D01*
X154585101Y-113526367D01*
X154566534Y-113561103D01*
X154541548Y-113591548D01*
X154511103Y-113616534D01*
X154476367Y-113635101D01*
X154438674Y-113646535D01*
X154393339Y-113651000D01*
X153306661Y-113651000D01*
X153261326Y-113646535D01*
X153223633Y-113635101D01*
X153188897Y-113616534D01*
X153158452Y-113591548D01*
X153133466Y-113561103D01*
X153114899Y-113526367D01*
X153103465Y-113488674D01*
X153099000Y-113443339D01*
X153099000Y-112606661D01*
X153103465Y-112561326D01*
X153114899Y-112523633D01*
X153133466Y-112488897D01*
X153158452Y-112458452D01*
X153188897Y-112433466D01*
X153223633Y-112414899D01*
X153261326Y-112403465D01*
X153306661Y-112399000D01*
X154393339Y-112399000D01*
X154438674Y-112403465D01*
X154438674Y-112403465D01*
G37*
G36*
X131788674Y-112303465D02*
G01*
X131826367Y-112314899D01*
X131861103Y-112333466D01*
X131891548Y-112358452D01*
X131916534Y-112388897D01*
X131935101Y-112423633D01*
X131946535Y-112461326D01*
X131951000Y-112506661D01*
X131951000Y-113343339D01*
X131946535Y-113388674D01*
X131935101Y-113426367D01*
X131916534Y-113461103D01*
X131891548Y-113491548D01*
X131861103Y-113516534D01*
X131826367Y-113535101D01*
X131788674Y-113546535D01*
X131743339Y-113551000D01*
X130656661Y-113551000D01*
X130611326Y-113546535D01*
X130573633Y-113535101D01*
X130538897Y-113516534D01*
X130508452Y-113491548D01*
X130483466Y-113461103D01*
X130464899Y-113426367D01*
X130453465Y-113388674D01*
X130449000Y-113343339D01*
X130449000Y-112506661D01*
X130453465Y-112461326D01*
X130464899Y-112423633D01*
X130483466Y-112388897D01*
X130508452Y-112358452D01*
X130538897Y-112333466D01*
X130573633Y-112314899D01*
X130611326Y-112303465D01*
X130656661Y-112299000D01*
X131743339Y-112299000D01*
X131788674Y-112303465D01*
X131788674Y-112303465D01*
G37*
G36*
X147815074Y-112283965D02*
G01*
X147852767Y-112295399D01*
X147887503Y-112313966D01*
X147917948Y-112338952D01*
X147942934Y-112369397D01*
X147961501Y-112404133D01*
X147972935Y-112441826D01*
X147977400Y-112487161D01*
X147977400Y-113323839D01*
X147972935Y-113369174D01*
X147961501Y-113406867D01*
X147942934Y-113441603D01*
X147917948Y-113472048D01*
X147887503Y-113497034D01*
X147852767Y-113515601D01*
X147815074Y-113527035D01*
X147769739Y-113531500D01*
X146683061Y-113531500D01*
X146637726Y-113527035D01*
X146600033Y-113515601D01*
X146565297Y-113497034D01*
X146534852Y-113472048D01*
X146509866Y-113441603D01*
X146491299Y-113406867D01*
X146479865Y-113369174D01*
X146475400Y-113323839D01*
X146475400Y-112487161D01*
X146479865Y-112441826D01*
X146491299Y-112404133D01*
X146509866Y-112369397D01*
X146534852Y-112338952D01*
X146565297Y-112313966D01*
X146600033Y-112295399D01*
X146637726Y-112283965D01*
X146683061Y-112279500D01*
X147769739Y-112279500D01*
X147815074Y-112283965D01*
X147815074Y-112283965D01*
G37*
G36*
X145815074Y-112283965D02*
G01*
X145852767Y-112295399D01*
X145887503Y-112313966D01*
X145917948Y-112338952D01*
X145942934Y-112369397D01*
X145961501Y-112404133D01*
X145972935Y-112441826D01*
X145977400Y-112487161D01*
X145977400Y-113323839D01*
X145972935Y-113369174D01*
X145961501Y-113406867D01*
X145942934Y-113441603D01*
X145917948Y-113472048D01*
X145887503Y-113497034D01*
X145852767Y-113515601D01*
X145815074Y-113527035D01*
X145769739Y-113531500D01*
X144683061Y-113531500D01*
X144637726Y-113527035D01*
X144600033Y-113515601D01*
X144565297Y-113497034D01*
X144534852Y-113472048D01*
X144509866Y-113441603D01*
X144491299Y-113406867D01*
X144479865Y-113369174D01*
X144475400Y-113323839D01*
X144475400Y-112487161D01*
X144479865Y-112441826D01*
X144491299Y-112404133D01*
X144509866Y-112369397D01*
X144534852Y-112338952D01*
X144565297Y-112313966D01*
X144600033Y-112295399D01*
X144637726Y-112283965D01*
X144683061Y-112279500D01*
X145769739Y-112279500D01*
X145815074Y-112283965D01*
X145815074Y-112283965D01*
G37*
G36*
X135526000Y-113481000D02*
G01*
X134774000Y-113481000D01*
X134774000Y-112319000D01*
X135526000Y-112319000D01*
X135526000Y-113481000D01*
X135526000Y-113481000D01*
G37*
G36*
X133626000Y-113481000D02*
G01*
X132874000Y-113481000D01*
X132874000Y-112319000D01*
X133626000Y-112319000D01*
X133626000Y-113481000D01*
X133626000Y-113481000D01*
G37*
G36*
X163984987Y-110626524D02*
G01*
X164003730Y-110632210D01*
X164020997Y-110641439D01*
X164036136Y-110653864D01*
X164048561Y-110669003D01*
X164057790Y-110686270D01*
X164063476Y-110705013D01*
X164066000Y-110730640D01*
X164066000Y-112069360D01*
X164063476Y-112094987D01*
X164057790Y-112113730D01*
X164048561Y-112130997D01*
X164036136Y-112146136D01*
X164020997Y-112158561D01*
X164003730Y-112167790D01*
X163984987Y-112173476D01*
X163959360Y-112176000D01*
X163520640Y-112176000D01*
X163495013Y-112173476D01*
X163476270Y-112167790D01*
X163459003Y-112158561D01*
X163443864Y-112146136D01*
X163431439Y-112130997D01*
X163422210Y-112113730D01*
X163416524Y-112094987D01*
X163414000Y-112069360D01*
X163414000Y-110730640D01*
X163416524Y-110705013D01*
X163422210Y-110686270D01*
X163431439Y-110669003D01*
X163443864Y-110653864D01*
X163459003Y-110641439D01*
X163476270Y-110632210D01*
X163495013Y-110626524D01*
X163520640Y-110624000D01*
X163959360Y-110624000D01*
X163984987Y-110626524D01*
X163984987Y-110626524D01*
G37*
G36*
X161444987Y-110626524D02*
G01*
X161463730Y-110632210D01*
X161480997Y-110641439D01*
X161496136Y-110653864D01*
X161508561Y-110669003D01*
X161517790Y-110686270D01*
X161523476Y-110705013D01*
X161526000Y-110730640D01*
X161526000Y-112069360D01*
X161523476Y-112094987D01*
X161517790Y-112113730D01*
X161508561Y-112130997D01*
X161496136Y-112146136D01*
X161480997Y-112158561D01*
X161463730Y-112167790D01*
X161444987Y-112173476D01*
X161419360Y-112176000D01*
X160980640Y-112176000D01*
X160955013Y-112173476D01*
X160936270Y-112167790D01*
X160919003Y-112158561D01*
X160903864Y-112146136D01*
X160891439Y-112130997D01*
X160882210Y-112113730D01*
X160876524Y-112094987D01*
X160874000Y-112069360D01*
X160874000Y-110730640D01*
X160876524Y-110705013D01*
X160882210Y-110686270D01*
X160891439Y-110669003D01*
X160903864Y-110653864D01*
X160919003Y-110641439D01*
X160936270Y-110632210D01*
X160955013Y-110626524D01*
X160980640Y-110624000D01*
X161419360Y-110624000D01*
X161444987Y-110626524D01*
X161444987Y-110626524D01*
G37*
G36*
X126451000Y-111606000D02*
G01*
X125099000Y-111606000D01*
X125099000Y-110744000D01*
X126451000Y-110744000D01*
X126451000Y-111606000D01*
X126451000Y-111606000D01*
G37*
G36*
X120301000Y-111606000D02*
G01*
X118949000Y-111606000D01*
X118949000Y-110744000D01*
X120301000Y-110744000D01*
X120301000Y-111606000D01*
X120301000Y-111606000D01*
G37*
G36*
X138984023Y-109886613D02*
G01*
X139144442Y-109935276D01*
X139277106Y-110006186D01*
X139292278Y-110014296D01*
X139421859Y-110120641D01*
X139528204Y-110250222D01*
X139528205Y-110250224D01*
X139607224Y-110398058D01*
X139607225Y-110398061D01*
X139616283Y-110427920D01*
X139655887Y-110558477D01*
X139672317Y-110725300D01*
X139655887Y-110892123D01*
X139607224Y-111052542D01*
X139536314Y-111185206D01*
X139528204Y-111200378D01*
X139421859Y-111329959D01*
X139292278Y-111436304D01*
X139292276Y-111436305D01*
X139144442Y-111515324D01*
X138984023Y-111563987D01*
X138859004Y-111576300D01*
X138775396Y-111576300D01*
X138650377Y-111563987D01*
X138489958Y-111515324D01*
X138342124Y-111436305D01*
X138342122Y-111436304D01*
X138212541Y-111329959D01*
X138106196Y-111200378D01*
X138098086Y-111185206D01*
X138027176Y-111052542D01*
X137978513Y-110892123D01*
X137962083Y-110725300D01*
X137978513Y-110558477D01*
X138018117Y-110427920D01*
X138027175Y-110398061D01*
X138027176Y-110398058D01*
X138106195Y-110250224D01*
X138106196Y-110250222D01*
X138212541Y-110120641D01*
X138342122Y-110014296D01*
X138357294Y-110006186D01*
X138489958Y-109935276D01*
X138650377Y-109886613D01*
X138775396Y-109874300D01*
X138859004Y-109874300D01*
X138984023Y-109886613D01*
X138984023Y-109886613D01*
G37*
G36*
X132048200Y-111576300D02*
G01*
X130346200Y-111576300D01*
X130346200Y-109874300D01*
X132048200Y-109874300D01*
X132048200Y-111576300D01*
X132048200Y-111576300D01*
G37*
G36*
X136444023Y-109886613D02*
G01*
X136604442Y-109935276D01*
X136737106Y-110006186D01*
X136752278Y-110014296D01*
X136881859Y-110120641D01*
X136988204Y-110250222D01*
X136988205Y-110250224D01*
X137067224Y-110398058D01*
X137067225Y-110398061D01*
X137076283Y-110427920D01*
X137115887Y-110558477D01*
X137132317Y-110725300D01*
X137115887Y-110892123D01*
X137067224Y-111052542D01*
X136996314Y-111185206D01*
X136988204Y-111200378D01*
X136881859Y-111329959D01*
X136752278Y-111436304D01*
X136752276Y-111436305D01*
X136604442Y-111515324D01*
X136444023Y-111563987D01*
X136319004Y-111576300D01*
X136235396Y-111576300D01*
X136110377Y-111563987D01*
X135949958Y-111515324D01*
X135802124Y-111436305D01*
X135802122Y-111436304D01*
X135672541Y-111329959D01*
X135566196Y-111200378D01*
X135558086Y-111185206D01*
X135487176Y-111052542D01*
X135438513Y-110892123D01*
X135422083Y-110725300D01*
X135438513Y-110558477D01*
X135478117Y-110427920D01*
X135487175Y-110398061D01*
X135487176Y-110398058D01*
X135566195Y-110250224D01*
X135566196Y-110250222D01*
X135672541Y-110120641D01*
X135802122Y-110014296D01*
X135817294Y-110006186D01*
X135949958Y-109935276D01*
X136110377Y-109886613D01*
X136235396Y-109874300D01*
X136319004Y-109874300D01*
X136444023Y-109886613D01*
X136444023Y-109886613D01*
G37*
G36*
X133904023Y-109886613D02*
G01*
X134064442Y-109935276D01*
X134197106Y-110006186D01*
X134212278Y-110014296D01*
X134341859Y-110120641D01*
X134448204Y-110250222D01*
X134448205Y-110250224D01*
X134527224Y-110398058D01*
X134527225Y-110398061D01*
X134536283Y-110427920D01*
X134575887Y-110558477D01*
X134592317Y-110725300D01*
X134575887Y-110892123D01*
X134527224Y-111052542D01*
X134456314Y-111185206D01*
X134448204Y-111200378D01*
X134341859Y-111329959D01*
X134212278Y-111436304D01*
X134212276Y-111436305D01*
X134064442Y-111515324D01*
X133904023Y-111563987D01*
X133779004Y-111576300D01*
X133695396Y-111576300D01*
X133570377Y-111563987D01*
X133409958Y-111515324D01*
X133262124Y-111436305D01*
X133262122Y-111436304D01*
X133132541Y-111329959D01*
X133026196Y-111200378D01*
X133018086Y-111185206D01*
X132947176Y-111052542D01*
X132898513Y-110892123D01*
X132882083Y-110725300D01*
X132898513Y-110558477D01*
X132938117Y-110427920D01*
X132947175Y-110398061D01*
X132947176Y-110398058D01*
X133026195Y-110250224D01*
X133026196Y-110250222D01*
X133132541Y-110120641D01*
X133262122Y-110014296D01*
X133277294Y-110006186D01*
X133409958Y-109935276D01*
X133570377Y-109886613D01*
X133695396Y-109874300D01*
X133779004Y-109874300D01*
X133904023Y-109886613D01*
X133904023Y-109886613D01*
G37*
G36*
X120301000Y-110336000D02*
G01*
X118949000Y-110336000D01*
X118949000Y-109474000D01*
X120301000Y-109474000D01*
X120301000Y-110336000D01*
X120301000Y-110336000D01*
G37*
G36*
X126451000Y-110336000D02*
G01*
X125099000Y-110336000D01*
X125099000Y-109474000D01*
X126451000Y-109474000D01*
X126451000Y-110336000D01*
X126451000Y-110336000D01*
G37*
G36*
X157510443Y-108525519D02*
G01*
X157576627Y-108532037D01*
X157746466Y-108583557D01*
X157902991Y-108667222D01*
X157938729Y-108696552D01*
X158040186Y-108779814D01*
X158123448Y-108881271D01*
X158152778Y-108917009D01*
X158236443Y-109073534D01*
X158287963Y-109243373D01*
X158305359Y-109420000D01*
X158287963Y-109596627D01*
X158236443Y-109766466D01*
X158152778Y-109922991D01*
X158123448Y-109958729D01*
X158040186Y-110060186D01*
X157966520Y-110120641D01*
X157902991Y-110172778D01*
X157746466Y-110256443D01*
X157576627Y-110307963D01*
X157510442Y-110314482D01*
X157444260Y-110321000D01*
X157355740Y-110321000D01*
X157289558Y-110314482D01*
X157223373Y-110307963D01*
X157053534Y-110256443D01*
X156897009Y-110172778D01*
X156833480Y-110120641D01*
X156759814Y-110060186D01*
X156676552Y-109958729D01*
X156647222Y-109922991D01*
X156563557Y-109766466D01*
X156512037Y-109596627D01*
X156494641Y-109420000D01*
X156512037Y-109243373D01*
X156563557Y-109073534D01*
X156647222Y-108917009D01*
X156676552Y-108881271D01*
X156759814Y-108779814D01*
X156861271Y-108696552D01*
X156897009Y-108667222D01*
X157053534Y-108583557D01*
X157223373Y-108532037D01*
X157289557Y-108525519D01*
X157355740Y-108519000D01*
X157444260Y-108519000D01*
X157510443Y-108525519D01*
X157510443Y-108525519D01*
G37*
G36*
X148426000Y-109776000D02*
G01*
X143974000Y-109776000D01*
X143974000Y-108224000D01*
X148426000Y-108224000D01*
X148426000Y-109776000D01*
X148426000Y-109776000D01*
G37*
G36*
X126451000Y-109066000D02*
G01*
X125099000Y-109066000D01*
X125099000Y-108204000D01*
X126451000Y-108204000D01*
X126451000Y-109066000D01*
X126451000Y-109066000D01*
G37*
G36*
X120301000Y-109066000D02*
G01*
X118949000Y-109066000D01*
X118949000Y-108204000D01*
X120301000Y-108204000D01*
X120301000Y-109066000D01*
X120301000Y-109066000D01*
G37*
G36*
X126451000Y-107796000D02*
G01*
X125099000Y-107796000D01*
X125099000Y-106934000D01*
X126451000Y-106934000D01*
X126451000Y-107796000D01*
X126451000Y-107796000D01*
G37*
G36*
X120301000Y-107796000D02*
G01*
X118949000Y-107796000D01*
X118949000Y-106934000D01*
X120301000Y-106934000D01*
X120301000Y-107796000D01*
X120301000Y-107796000D01*
G37*
G36*
X157510443Y-105985519D02*
G01*
X157576627Y-105992037D01*
X157746466Y-106043557D01*
X157902991Y-106127222D01*
X157938729Y-106156552D01*
X158040186Y-106239814D01*
X158123448Y-106341271D01*
X158152778Y-106377009D01*
X158236443Y-106533534D01*
X158287963Y-106703373D01*
X158305359Y-106880000D01*
X158287963Y-107056627D01*
X158236443Y-107226466D01*
X158152778Y-107382991D01*
X158123448Y-107418729D01*
X158040186Y-107520186D01*
X157938729Y-107603448D01*
X157902991Y-107632778D01*
X157746466Y-107716443D01*
X157576627Y-107767963D01*
X157510443Y-107774481D01*
X157444260Y-107781000D01*
X157355740Y-107781000D01*
X157289557Y-107774481D01*
X157223373Y-107767963D01*
X157053534Y-107716443D01*
X156897009Y-107632778D01*
X156861271Y-107603448D01*
X156759814Y-107520186D01*
X156676552Y-107418729D01*
X156647222Y-107382991D01*
X156563557Y-107226466D01*
X156512037Y-107056627D01*
X156494641Y-106880000D01*
X156512037Y-106703373D01*
X156563557Y-106533534D01*
X156647222Y-106377009D01*
X156676552Y-106341271D01*
X156759814Y-106239814D01*
X156861271Y-106156552D01*
X156897009Y-106127222D01*
X157053534Y-106043557D01*
X157223373Y-105992037D01*
X157289557Y-105985519D01*
X157355740Y-105979000D01*
X157444260Y-105979000D01*
X157510443Y-105985519D01*
X157510443Y-105985519D01*
G37*
G36*
X163984987Y-105126524D02*
G01*
X164003730Y-105132210D01*
X164020997Y-105141439D01*
X164036136Y-105153864D01*
X164048561Y-105169003D01*
X164057790Y-105186270D01*
X164063476Y-105205013D01*
X164066000Y-105230640D01*
X164066000Y-106569360D01*
X164063476Y-106594987D01*
X164057790Y-106613730D01*
X164048561Y-106630997D01*
X164036136Y-106646136D01*
X164020997Y-106658561D01*
X164003730Y-106667790D01*
X163984987Y-106673476D01*
X163959360Y-106676000D01*
X163520640Y-106676000D01*
X163495013Y-106673476D01*
X163476270Y-106667790D01*
X163459003Y-106658561D01*
X163443864Y-106646136D01*
X163431439Y-106630997D01*
X163422210Y-106613730D01*
X163416524Y-106594987D01*
X163414000Y-106569360D01*
X163414000Y-105230640D01*
X163416524Y-105205013D01*
X163422210Y-105186270D01*
X163431439Y-105169003D01*
X163443864Y-105153864D01*
X163459003Y-105141439D01*
X163476270Y-105132210D01*
X163495013Y-105126524D01*
X163520640Y-105124000D01*
X163959360Y-105124000D01*
X163984987Y-105126524D01*
X163984987Y-105126524D01*
G37*
G36*
X161444987Y-105126524D02*
G01*
X161463730Y-105132210D01*
X161480997Y-105141439D01*
X161496136Y-105153864D01*
X161508561Y-105169003D01*
X161517790Y-105186270D01*
X161523476Y-105205013D01*
X161526000Y-105230640D01*
X161526000Y-106569360D01*
X161523476Y-106594987D01*
X161517790Y-106613730D01*
X161508561Y-106630997D01*
X161496136Y-106646136D01*
X161480997Y-106658561D01*
X161463730Y-106667790D01*
X161444987Y-106673476D01*
X161419360Y-106676000D01*
X160980640Y-106676000D01*
X160955013Y-106673476D01*
X160936270Y-106667790D01*
X160919003Y-106658561D01*
X160903864Y-106646136D01*
X160891439Y-106630997D01*
X160882210Y-106613730D01*
X160876524Y-106594987D01*
X160874000Y-106569360D01*
X160874000Y-105230640D01*
X160876524Y-105205013D01*
X160882210Y-105186270D01*
X160891439Y-105169003D01*
X160903864Y-105153864D01*
X160919003Y-105141439D01*
X160936270Y-105132210D01*
X160955013Y-105126524D01*
X160980640Y-105124000D01*
X161419360Y-105124000D01*
X161444987Y-105126524D01*
X161444987Y-105126524D01*
G37*
G36*
X126451000Y-106526000D02*
G01*
X125099000Y-106526000D01*
X125099000Y-105664000D01*
X126451000Y-105664000D01*
X126451000Y-106526000D01*
X126451000Y-106526000D01*
G37*
G36*
X120301000Y-106526000D02*
G01*
X118949000Y-106526000D01*
X118949000Y-105664000D01*
X120301000Y-105664000D01*
X120301000Y-106526000D01*
X120301000Y-106526000D01*
G37*
G36*
X150811874Y-104371865D02*
G01*
X150849567Y-104383299D01*
X150884303Y-104401866D01*
X150914748Y-104426852D01*
X150939734Y-104457297D01*
X150958301Y-104492033D01*
X150969735Y-104529726D01*
X150974200Y-104575061D01*
X150974200Y-105411739D01*
X150969735Y-105457074D01*
X150958301Y-105494767D01*
X150939734Y-105529503D01*
X150914748Y-105559948D01*
X150884303Y-105584934D01*
X150849567Y-105603501D01*
X150811874Y-105614935D01*
X150766539Y-105619400D01*
X149679861Y-105619400D01*
X149634526Y-105614935D01*
X149596833Y-105603501D01*
X149562097Y-105584934D01*
X149531652Y-105559948D01*
X149506666Y-105529503D01*
X149488099Y-105494767D01*
X149476665Y-105457074D01*
X149472200Y-105411739D01*
X149472200Y-104575061D01*
X149476665Y-104529726D01*
X149488099Y-104492033D01*
X149506666Y-104457297D01*
X149531652Y-104426852D01*
X149562097Y-104401866D01*
X149596833Y-104383299D01*
X149634526Y-104371865D01*
X149679861Y-104367400D01*
X150766539Y-104367400D01*
X150811874Y-104371865D01*
X150811874Y-104371865D01*
G37*
G36*
X120301000Y-105256000D02*
G01*
X118949000Y-105256000D01*
X118949000Y-104394000D01*
X120301000Y-104394000D01*
X120301000Y-105256000D01*
X120301000Y-105256000D01*
G37*
G36*
X126451000Y-105256000D02*
G01*
X125099000Y-105256000D01*
X125099000Y-104394000D01*
X126451000Y-104394000D01*
X126451000Y-105256000D01*
X126451000Y-105256000D01*
G37*
G36*
X157510443Y-103445519D02*
G01*
X157576627Y-103452037D01*
X157746466Y-103503557D01*
X157746468Y-103503558D01*
X157805168Y-103534934D01*
X157902991Y-103587222D01*
X157938729Y-103616552D01*
X158040186Y-103699814D01*
X158123448Y-103801271D01*
X158152778Y-103837009D01*
X158236443Y-103993534D01*
X158287963Y-104163373D01*
X158305359Y-104340000D01*
X158287963Y-104516627D01*
X158236443Y-104686466D01*
X158152778Y-104842991D01*
X158123448Y-104878729D01*
X158040186Y-104980186D01*
X157938729Y-105063448D01*
X157902991Y-105092778D01*
X157746466Y-105176443D01*
X157576627Y-105227963D01*
X157510442Y-105234482D01*
X157444260Y-105241000D01*
X157355740Y-105241000D01*
X157289558Y-105234482D01*
X157223373Y-105227963D01*
X157053534Y-105176443D01*
X156897009Y-105092778D01*
X156861271Y-105063448D01*
X156759814Y-104980186D01*
X156676552Y-104878729D01*
X156647222Y-104842991D01*
X156563557Y-104686466D01*
X156512037Y-104516627D01*
X156494641Y-104340000D01*
X156512037Y-104163373D01*
X156563557Y-103993534D01*
X156647222Y-103837009D01*
X156676552Y-103801271D01*
X156759814Y-103699814D01*
X156861271Y-103616552D01*
X156897009Y-103587222D01*
X156994832Y-103534934D01*
X157053532Y-103503558D01*
X157053534Y-103503557D01*
X157223373Y-103452037D01*
X157289558Y-103445518D01*
X157355740Y-103439000D01*
X157444260Y-103439000D01*
X157510443Y-103445519D01*
X157510443Y-103445519D01*
G37*
G36*
X171907477Y-95423892D02*
G01*
X172250541Y-95565994D01*
X172735707Y-95766956D01*
X173481093Y-96265008D01*
X174114992Y-96898907D01*
X174613044Y-97644293D01*
X174814006Y-98129459D01*
X174956108Y-98472523D01*
X175131000Y-99351764D01*
X175131000Y-100248236D01*
X174956108Y-101127477D01*
X174823663Y-101447227D01*
X174613044Y-101955707D01*
X174114992Y-102701093D01*
X173481093Y-103334992D01*
X172735707Y-103833044D01*
X172348254Y-103993532D01*
X171907477Y-104176108D01*
X171028236Y-104351000D01*
X170131764Y-104351000D01*
X169252523Y-104176108D01*
X168811746Y-103993532D01*
X168424293Y-103833044D01*
X167678907Y-103334992D01*
X167045008Y-102701093D01*
X166546956Y-101955707D01*
X166336337Y-101447227D01*
X166203892Y-101127477D01*
X166029000Y-100248236D01*
X166029000Y-99351764D01*
X166203892Y-98472523D01*
X166345994Y-98129459D01*
X166546956Y-97644293D01*
X167045008Y-96898907D01*
X167678907Y-96265008D01*
X168424293Y-95766956D01*
X168909459Y-95565994D01*
X169252523Y-95423892D01*
X170131764Y-95249000D01*
X171028236Y-95249000D01*
X171907477Y-95423892D01*
X171907477Y-95423892D01*
G37*
G36*
X113487477Y-95423892D02*
G01*
X113830541Y-95565994D01*
X114315707Y-95766956D01*
X115061093Y-96265008D01*
X115694992Y-96898907D01*
X116193044Y-97644293D01*
X116394006Y-98129459D01*
X116536108Y-98472523D01*
X116711000Y-99351764D01*
X116711000Y-100248236D01*
X116536108Y-101127477D01*
X116403663Y-101447227D01*
X116193044Y-101955707D01*
X115694992Y-102701093D01*
X115061093Y-103334992D01*
X114315707Y-103833044D01*
X113928254Y-103993532D01*
X113487477Y-104176108D01*
X112608236Y-104351000D01*
X111711764Y-104351000D01*
X110832523Y-104176108D01*
X110391746Y-103993532D01*
X110004293Y-103833044D01*
X109258907Y-103334992D01*
X108625008Y-102701093D01*
X108126956Y-101955707D01*
X107916337Y-101447227D01*
X107783892Y-101127477D01*
X107609000Y-100248236D01*
X107609000Y-99351764D01*
X107783892Y-98472523D01*
X107925994Y-98129459D01*
X108126956Y-97644293D01*
X108625008Y-96898907D01*
X109258907Y-96265008D01*
X110004293Y-95766956D01*
X110489459Y-95565994D01*
X110832523Y-95423892D01*
X111711764Y-95249000D01*
X112608236Y-95249000D01*
X113487477Y-95423892D01*
X113487477Y-95423892D01*
G37*
G36*
X103327477Y-95423892D02*
G01*
X103670541Y-95565994D01*
X104155707Y-95766956D01*
X104901093Y-96265008D01*
X105534992Y-96898907D01*
X106033044Y-97644293D01*
X106234006Y-98129459D01*
X106376108Y-98472523D01*
X106551000Y-99351764D01*
X106551000Y-100248236D01*
X106376108Y-101127477D01*
X106243663Y-101447227D01*
X106033044Y-101955707D01*
X105534992Y-102701093D01*
X104901093Y-103334992D01*
X104155707Y-103833044D01*
X103768254Y-103993532D01*
X103327477Y-104176108D01*
X102448236Y-104351000D01*
X101551764Y-104351000D01*
X100672523Y-104176108D01*
X100231746Y-103993532D01*
X99844293Y-103833044D01*
X99098907Y-103334992D01*
X98465008Y-102701093D01*
X97966956Y-101955707D01*
X97756337Y-101447227D01*
X97623892Y-101127477D01*
X97449000Y-100248236D01*
X97449000Y-99351764D01*
X97623892Y-98472523D01*
X97765994Y-98129459D01*
X97966956Y-97644293D01*
X98465008Y-96898907D01*
X99098907Y-96265008D01*
X99844293Y-95766956D01*
X100329459Y-95565994D01*
X100672523Y-95423892D01*
X101551764Y-95249000D01*
X102448236Y-95249000D01*
X103327477Y-95423892D01*
X103327477Y-95423892D01*
G37*
G36*
X182067477Y-95423892D02*
G01*
X182410541Y-95565994D01*
X182895707Y-95766956D01*
X183641093Y-96265008D01*
X184274992Y-96898907D01*
X184773044Y-97644293D01*
X184974006Y-98129459D01*
X185116108Y-98472523D01*
X185291000Y-99351764D01*
X185291000Y-100248236D01*
X185116108Y-101127477D01*
X184983663Y-101447227D01*
X184773044Y-101955707D01*
X184274992Y-102701093D01*
X183641093Y-103334992D01*
X182895707Y-103833044D01*
X182508254Y-103993532D01*
X182067477Y-104176108D01*
X181188236Y-104351000D01*
X180291764Y-104351000D01*
X179412523Y-104176108D01*
X178971746Y-103993532D01*
X178584293Y-103833044D01*
X177838907Y-103334992D01*
X177205008Y-102701093D01*
X176706956Y-101955707D01*
X176496337Y-101447227D01*
X176363892Y-101127477D01*
X176189000Y-100248236D01*
X176189000Y-99351764D01*
X176363892Y-98472523D01*
X176505994Y-98129459D01*
X176706956Y-97644293D01*
X177205008Y-96898907D01*
X177838907Y-96265008D01*
X178584293Y-95766956D01*
X179069459Y-95565994D01*
X179412523Y-95423892D01*
X180291764Y-95249000D01*
X181188236Y-95249000D01*
X182067477Y-95423892D01*
X182067477Y-95423892D01*
G37*
G36*
X161476000Y-104181000D02*
G01*
X160924000Y-104181000D01*
X160924000Y-102579000D01*
X161476000Y-102579000D01*
X161476000Y-104181000D01*
X161476000Y-104181000D01*
G37*
G36*
X138984023Y-102266613D02*
G01*
X139144442Y-102315276D01*
X139234230Y-102363269D01*
X139292278Y-102394296D01*
X139421859Y-102500641D01*
X139528204Y-102630222D01*
X139528205Y-102630224D01*
X139607224Y-102778058D01*
X139655887Y-102938477D01*
X139672317Y-103105300D01*
X139655887Y-103272123D01*
X139607224Y-103432542D01*
X139558589Y-103523531D01*
X139528204Y-103580378D01*
X139421859Y-103709959D01*
X139292278Y-103816304D01*
X139292276Y-103816305D01*
X139144442Y-103895324D01*
X138984023Y-103943987D01*
X138859004Y-103956300D01*
X138775396Y-103956300D01*
X138650377Y-103943987D01*
X138489958Y-103895324D01*
X138342124Y-103816305D01*
X138342122Y-103816304D01*
X138212541Y-103709959D01*
X138106196Y-103580378D01*
X138075811Y-103523531D01*
X138027176Y-103432542D01*
X137978513Y-103272123D01*
X137962083Y-103105300D01*
X137978513Y-102938477D01*
X138027176Y-102778058D01*
X138106195Y-102630224D01*
X138106196Y-102630222D01*
X138212541Y-102500641D01*
X138342122Y-102394296D01*
X138400170Y-102363269D01*
X138489958Y-102315276D01*
X138650377Y-102266613D01*
X138775396Y-102254300D01*
X138859004Y-102254300D01*
X138984023Y-102266613D01*
X138984023Y-102266613D01*
G37*
G36*
X133904023Y-102266613D02*
G01*
X134064442Y-102315276D01*
X134154230Y-102363269D01*
X134212278Y-102394296D01*
X134341859Y-102500641D01*
X134448204Y-102630222D01*
X134448205Y-102630224D01*
X134527224Y-102778058D01*
X134575887Y-102938477D01*
X134592317Y-103105300D01*
X134575887Y-103272123D01*
X134527224Y-103432542D01*
X134478589Y-103523531D01*
X134448204Y-103580378D01*
X134341859Y-103709959D01*
X134212278Y-103816304D01*
X134212276Y-103816305D01*
X134064442Y-103895324D01*
X133904023Y-103943987D01*
X133779004Y-103956300D01*
X133695396Y-103956300D01*
X133570377Y-103943987D01*
X133409958Y-103895324D01*
X133262124Y-103816305D01*
X133262122Y-103816304D01*
X133132541Y-103709959D01*
X133026196Y-103580378D01*
X132995811Y-103523531D01*
X132947176Y-103432542D01*
X132898513Y-103272123D01*
X132882083Y-103105300D01*
X132898513Y-102938477D01*
X132947176Y-102778058D01*
X133026195Y-102630224D01*
X133026196Y-102630222D01*
X133132541Y-102500641D01*
X133262122Y-102394296D01*
X133320170Y-102363269D01*
X133409958Y-102315276D01*
X133570377Y-102266613D01*
X133695396Y-102254300D01*
X133779004Y-102254300D01*
X133904023Y-102266613D01*
X133904023Y-102266613D01*
G37*
G36*
X136444023Y-102266613D02*
G01*
X136604442Y-102315276D01*
X136694230Y-102363269D01*
X136752278Y-102394296D01*
X136881859Y-102500641D01*
X136988204Y-102630222D01*
X136988205Y-102630224D01*
X137067224Y-102778058D01*
X137115887Y-102938477D01*
X137132317Y-103105300D01*
X137115887Y-103272123D01*
X137067224Y-103432542D01*
X137018589Y-103523531D01*
X136988204Y-103580378D01*
X136881859Y-103709959D01*
X136752278Y-103816304D01*
X136752276Y-103816305D01*
X136604442Y-103895324D01*
X136444023Y-103943987D01*
X136319004Y-103956300D01*
X136235396Y-103956300D01*
X136110377Y-103943987D01*
X135949958Y-103895324D01*
X135802124Y-103816305D01*
X135802122Y-103816304D01*
X135672541Y-103709959D01*
X135566196Y-103580378D01*
X135535811Y-103523531D01*
X135487176Y-103432542D01*
X135438513Y-103272123D01*
X135422083Y-103105300D01*
X135438513Y-102938477D01*
X135487176Y-102778058D01*
X135566195Y-102630224D01*
X135566196Y-102630222D01*
X135672541Y-102500641D01*
X135802122Y-102394296D01*
X135860170Y-102363269D01*
X135949958Y-102315276D01*
X136110377Y-102266613D01*
X136235396Y-102254300D01*
X136319004Y-102254300D01*
X136444023Y-102266613D01*
X136444023Y-102266613D01*
G37*
G36*
X131364023Y-102266613D02*
G01*
X131524442Y-102315276D01*
X131614230Y-102363269D01*
X131672278Y-102394296D01*
X131801859Y-102500641D01*
X131908204Y-102630222D01*
X131908205Y-102630224D01*
X131987224Y-102778058D01*
X132035887Y-102938477D01*
X132052317Y-103105300D01*
X132035887Y-103272123D01*
X131987224Y-103432542D01*
X131938589Y-103523531D01*
X131908204Y-103580378D01*
X131801859Y-103709959D01*
X131672278Y-103816304D01*
X131672276Y-103816305D01*
X131524442Y-103895324D01*
X131364023Y-103943987D01*
X131239004Y-103956300D01*
X131155396Y-103956300D01*
X131030377Y-103943987D01*
X130869958Y-103895324D01*
X130722124Y-103816305D01*
X130722122Y-103816304D01*
X130592541Y-103709959D01*
X130486196Y-103580378D01*
X130455811Y-103523531D01*
X130407176Y-103432542D01*
X130358513Y-103272123D01*
X130342083Y-103105300D01*
X130358513Y-102938477D01*
X130407176Y-102778058D01*
X130486195Y-102630224D01*
X130486196Y-102630222D01*
X130592541Y-102500641D01*
X130722122Y-102394296D01*
X130780170Y-102363269D01*
X130869958Y-102315276D01*
X131030377Y-102266613D01*
X131155396Y-102254300D01*
X131239004Y-102254300D01*
X131364023Y-102266613D01*
X131364023Y-102266613D01*
G37*
G36*
X148426000Y-103876000D02*
G01*
X143974000Y-103876000D01*
X143974000Y-102324000D01*
X148426000Y-102324000D01*
X148426000Y-103876000D01*
X148426000Y-103876000D01*
G37*
G36*
X150811874Y-102321865D02*
G01*
X150849567Y-102333299D01*
X150884303Y-102351866D01*
X150914748Y-102376852D01*
X150939734Y-102407297D01*
X150958301Y-102442033D01*
X150969735Y-102479726D01*
X150974200Y-102525061D01*
X150974200Y-103361739D01*
X150969735Y-103407074D01*
X150958301Y-103444767D01*
X150939734Y-103479503D01*
X150914748Y-103509948D01*
X150884303Y-103534934D01*
X150849567Y-103553501D01*
X150811874Y-103564935D01*
X150766539Y-103569400D01*
X149679861Y-103569400D01*
X149634526Y-103564935D01*
X149596833Y-103553501D01*
X149562097Y-103534934D01*
X149531652Y-103509948D01*
X149506666Y-103479503D01*
X149488099Y-103444767D01*
X149476665Y-103407074D01*
X149472200Y-103361739D01*
X149472200Y-102525061D01*
X149476665Y-102479726D01*
X149488099Y-102442033D01*
X149506666Y-102407297D01*
X149531652Y-102376852D01*
X149562097Y-102351866D01*
X149596833Y-102333299D01*
X149634526Y-102321865D01*
X149679861Y-102317400D01*
X150766539Y-102317400D01*
X150811874Y-102321865D01*
X150811874Y-102321865D01*
G37*
G36*
X158301000Y-102701000D02*
G01*
X156499000Y-102701000D01*
X156499000Y-100899000D01*
X158301000Y-100899000D01*
X158301000Y-102701000D01*
X158301000Y-102701000D01*
G37*
G36*
X145486874Y-100221865D02*
G01*
X145524567Y-100233299D01*
X145559303Y-100251866D01*
X145589748Y-100276852D01*
X145614734Y-100307297D01*
X145633301Y-100342033D01*
X145644735Y-100379726D01*
X145649200Y-100425061D01*
X145649200Y-101511739D01*
X145644735Y-101557074D01*
X145633301Y-101594767D01*
X145614734Y-101629503D01*
X145589748Y-101659948D01*
X145559303Y-101684934D01*
X145524567Y-101703501D01*
X145486874Y-101714935D01*
X145441539Y-101719400D01*
X144604861Y-101719400D01*
X144559526Y-101714935D01*
X144521833Y-101703501D01*
X144487097Y-101684934D01*
X144456652Y-101659948D01*
X144431666Y-101629503D01*
X144413099Y-101594767D01*
X144401665Y-101557074D01*
X144397200Y-101511739D01*
X144397200Y-100425061D01*
X144401665Y-100379726D01*
X144413099Y-100342033D01*
X144431666Y-100307297D01*
X144456652Y-100276852D01*
X144487097Y-100251866D01*
X144521833Y-100233299D01*
X144559526Y-100221865D01*
X144604861Y-100217400D01*
X145441539Y-100217400D01*
X145486874Y-100221865D01*
X145486874Y-100221865D01*
G37*
G36*
X147536874Y-100221865D02*
G01*
X147574567Y-100233299D01*
X147609303Y-100251866D01*
X147639748Y-100276852D01*
X147664734Y-100307297D01*
X147683301Y-100342033D01*
X147694735Y-100379726D01*
X147699200Y-100425061D01*
X147699200Y-101511739D01*
X147694735Y-101557074D01*
X147683301Y-101594767D01*
X147664734Y-101629503D01*
X147639748Y-101659948D01*
X147609303Y-101684934D01*
X147574567Y-101703501D01*
X147536874Y-101714935D01*
X147491539Y-101719400D01*
X146654861Y-101719400D01*
X146609526Y-101714935D01*
X146571833Y-101703501D01*
X146537097Y-101684934D01*
X146506652Y-101659948D01*
X146481666Y-101629503D01*
X146463099Y-101594767D01*
X146451665Y-101557074D01*
X146447200Y-101511739D01*
X146447200Y-100425061D01*
X146451665Y-100379726D01*
X146463099Y-100342033D01*
X146481666Y-100307297D01*
X146506652Y-100276852D01*
X146537097Y-100251866D01*
X146571833Y-100233299D01*
X146609526Y-100221865D01*
X146654861Y-100217400D01*
X147491539Y-100217400D01*
X147536874Y-100221865D01*
X147536874Y-100221865D01*
G37*
G36*
X160826000Y-101521000D02*
G01*
X160274000Y-101521000D01*
X160274000Y-99919000D01*
X160826000Y-99919000D01*
X160826000Y-101521000D01*
X160826000Y-101521000D01*
G37*
G36*
X162126000Y-101521000D02*
G01*
X161574000Y-101521000D01*
X161574000Y-99919000D01*
X162126000Y-99919000D01*
X162126000Y-101521000D01*
X162126000Y-101521000D01*
G37*
G36*
X120301000Y-100736000D02*
G01*
X118949000Y-100736000D01*
X118949000Y-99874000D01*
X120301000Y-99874000D01*
X120301000Y-100736000D01*
X120301000Y-100736000D01*
G37*
G36*
X126451000Y-100736000D02*
G01*
X125099000Y-100736000D01*
X125099000Y-99874000D01*
X126451000Y-99874000D01*
X126451000Y-100736000D01*
X126451000Y-100736000D01*
G37*
G36*
X138388674Y-99253465D02*
G01*
X138426367Y-99264899D01*
X138461103Y-99283466D01*
X138491548Y-99308452D01*
X138516534Y-99338897D01*
X138535101Y-99373633D01*
X138546535Y-99411326D01*
X138551000Y-99456661D01*
X138551000Y-100293339D01*
X138546535Y-100338674D01*
X138535101Y-100376367D01*
X138516534Y-100411103D01*
X138491548Y-100441548D01*
X138461103Y-100466534D01*
X138426367Y-100485101D01*
X138388674Y-100496535D01*
X138343339Y-100501000D01*
X137256661Y-100501000D01*
X137211326Y-100496535D01*
X137173633Y-100485101D01*
X137138897Y-100466534D01*
X137108452Y-100441548D01*
X137083466Y-100411103D01*
X137064899Y-100376367D01*
X137053465Y-100338674D01*
X137049000Y-100293339D01*
X137049000Y-99456661D01*
X137053465Y-99411326D01*
X137064899Y-99373633D01*
X137083466Y-99338897D01*
X137108452Y-99308452D01*
X137138897Y-99283466D01*
X137173633Y-99264899D01*
X137211326Y-99253465D01*
X137256661Y-99249000D01*
X138343339Y-99249000D01*
X138388674Y-99253465D01*
X138388674Y-99253465D01*
G37*
G36*
X136126000Y-100481000D02*
G01*
X135374000Y-100481000D01*
X135374000Y-99319000D01*
X136126000Y-99319000D01*
X136126000Y-100481000D01*
X136126000Y-100481000D01*
G37*
G36*
X134226000Y-100481000D02*
G01*
X133474000Y-100481000D01*
X133474000Y-99319000D01*
X134226000Y-99319000D01*
X134226000Y-100481000D01*
X134226000Y-100481000D01*
G37*
G36*
X120301000Y-99466000D02*
G01*
X118949000Y-99466000D01*
X118949000Y-98604000D01*
X120301000Y-98604000D01*
X120301000Y-99466000D01*
X120301000Y-99466000D01*
G37*
G36*
X126451000Y-99466000D02*
G01*
X125099000Y-99466000D01*
X125099000Y-98604000D01*
X126451000Y-98604000D01*
X126451000Y-99466000D01*
X126451000Y-99466000D01*
G37*
G36*
X138388674Y-97203465D02*
G01*
X138426367Y-97214899D01*
X138461103Y-97233466D01*
X138491548Y-97258452D01*
X138516534Y-97288897D01*
X138535101Y-97323633D01*
X138546535Y-97361326D01*
X138551000Y-97406661D01*
X138551000Y-98243339D01*
X138546535Y-98288674D01*
X138535101Y-98326367D01*
X138516534Y-98361103D01*
X138491548Y-98391548D01*
X138461103Y-98416534D01*
X138426367Y-98435101D01*
X138388674Y-98446535D01*
X138343339Y-98451000D01*
X137256661Y-98451000D01*
X137211326Y-98446535D01*
X137173633Y-98435101D01*
X137138897Y-98416534D01*
X137108452Y-98391548D01*
X137083466Y-98361103D01*
X137064899Y-98326367D01*
X137053465Y-98288674D01*
X137049000Y-98243339D01*
X137049000Y-97406661D01*
X137053465Y-97361326D01*
X137064899Y-97323633D01*
X137083466Y-97288897D01*
X137108452Y-97258452D01*
X137138897Y-97233466D01*
X137173633Y-97214899D01*
X137211326Y-97203465D01*
X137256661Y-97199000D01*
X138343339Y-97199000D01*
X138388674Y-97203465D01*
X138388674Y-97203465D01*
G37*
G36*
X136126000Y-98281000D02*
G01*
X133474000Y-98281000D01*
X133474000Y-97119000D01*
X136126000Y-97119000D01*
X136126000Y-98281000D01*
X136126000Y-98281000D01*
G37*
G36*
X126451000Y-98196000D02*
G01*
X125099000Y-98196000D01*
X125099000Y-97334000D01*
X126451000Y-97334000D01*
X126451000Y-98196000D01*
X126451000Y-98196000D01*
G37*
G36*
X120301000Y-98196000D02*
G01*
X118949000Y-98196000D01*
X118949000Y-97334000D01*
X120301000Y-97334000D01*
X120301000Y-98196000D01*
X120301000Y-98196000D01*
G37*
G36*
X126451000Y-96926000D02*
G01*
X125099000Y-96926000D01*
X125099000Y-96064000D01*
X126451000Y-96064000D01*
X126451000Y-96926000D01*
X126451000Y-96926000D01*
G37*
G36*
X120301000Y-96926000D02*
G01*
X118949000Y-96926000D01*
X118949000Y-96064000D01*
X120301000Y-96064000D01*
X120301000Y-96926000D01*
X120301000Y-96926000D01*
G37*
G36*
X108638674Y-94353465D02*
G01*
X108676367Y-94364899D01*
X108711103Y-94383466D01*
X108741548Y-94408452D01*
X108766534Y-94438897D01*
X108785101Y-94473633D01*
X108796535Y-94511326D01*
X108801000Y-94556661D01*
X108801000Y-95643339D01*
X108796535Y-95688674D01*
X108785101Y-95726367D01*
X108766534Y-95761103D01*
X108741548Y-95791548D01*
X108711103Y-95816534D01*
X108676367Y-95835101D01*
X108638674Y-95846535D01*
X108593339Y-95851000D01*
X107756661Y-95851000D01*
X107711326Y-95846535D01*
X107673633Y-95835101D01*
X107638897Y-95816534D01*
X107608452Y-95791548D01*
X107583466Y-95761103D01*
X107564899Y-95726367D01*
X107553465Y-95688674D01*
X107549000Y-95643339D01*
X107549000Y-94556661D01*
X107553465Y-94511326D01*
X107564899Y-94473633D01*
X107583466Y-94438897D01*
X107608452Y-94408452D01*
X107638897Y-94383466D01*
X107673633Y-94364899D01*
X107711326Y-94353465D01*
X107756661Y-94349000D01*
X108593339Y-94349000D01*
X108638674Y-94353465D01*
X108638674Y-94353465D01*
G37*
G36*
X106588674Y-94353465D02*
G01*
X106626367Y-94364899D01*
X106661103Y-94383466D01*
X106691548Y-94408452D01*
X106716534Y-94438897D01*
X106735101Y-94473633D01*
X106746535Y-94511326D01*
X106751000Y-94556661D01*
X106751000Y-95643339D01*
X106746535Y-95688674D01*
X106735101Y-95726367D01*
X106716534Y-95761103D01*
X106691548Y-95791548D01*
X106661103Y-95816534D01*
X106626367Y-95835101D01*
X106588674Y-95846535D01*
X106543339Y-95851000D01*
X105706661Y-95851000D01*
X105661326Y-95846535D01*
X105623633Y-95835101D01*
X105588897Y-95816534D01*
X105558452Y-95791548D01*
X105533466Y-95761103D01*
X105514899Y-95726367D01*
X105503465Y-95688674D01*
X105499000Y-95643339D01*
X105499000Y-94556661D01*
X105503465Y-94511326D01*
X105514899Y-94473633D01*
X105533466Y-94438897D01*
X105558452Y-94408452D01*
X105588897Y-94383466D01*
X105623633Y-94364899D01*
X105661326Y-94353465D01*
X105706661Y-94349000D01*
X106543339Y-94349000D01*
X106588674Y-94353465D01*
X106588674Y-94353465D01*
G37*
G36*
X130938674Y-93403465D02*
G01*
X130976367Y-93414899D01*
X131011103Y-93433466D01*
X131041548Y-93458452D01*
X131066534Y-93488897D01*
X131085101Y-93523633D01*
X131096535Y-93561326D01*
X131101000Y-93606661D01*
X131101000Y-94443339D01*
X131096535Y-94488674D01*
X131085101Y-94526367D01*
X131066534Y-94561103D01*
X131041548Y-94591548D01*
X131011103Y-94616534D01*
X130976367Y-94635101D01*
X130938674Y-94646535D01*
X130893339Y-94651000D01*
X129806661Y-94651000D01*
X129761326Y-94646535D01*
X129723633Y-94635101D01*
X129688897Y-94616534D01*
X129658452Y-94591548D01*
X129633466Y-94561103D01*
X129614899Y-94526367D01*
X129603465Y-94488674D01*
X129599000Y-94443339D01*
X129599000Y-93606661D01*
X129603465Y-93561326D01*
X129614899Y-93523633D01*
X129633466Y-93488897D01*
X129658452Y-93458452D01*
X129688897Y-93433466D01*
X129723633Y-93414899D01*
X129761326Y-93403465D01*
X129806661Y-93399000D01*
X130893339Y-93399000D01*
X130938674Y-93403465D01*
X130938674Y-93403465D01*
G37*
G36*
X160288674Y-93303465D02*
G01*
X160326367Y-93314899D01*
X160361103Y-93333466D01*
X160391548Y-93358452D01*
X160416534Y-93388897D01*
X160435101Y-93423633D01*
X160446535Y-93461326D01*
X160451000Y-93506661D01*
X160451000Y-94343339D01*
X160446535Y-94388674D01*
X160435101Y-94426367D01*
X160416534Y-94461103D01*
X160391548Y-94491548D01*
X160361103Y-94516534D01*
X160326367Y-94535101D01*
X160288674Y-94546535D01*
X160243339Y-94551000D01*
X159156661Y-94551000D01*
X159111326Y-94546535D01*
X159073633Y-94535101D01*
X159038897Y-94516534D01*
X159008452Y-94491548D01*
X158983466Y-94461103D01*
X158964899Y-94426367D01*
X158953465Y-94388674D01*
X158949000Y-94343339D01*
X158949000Y-93506661D01*
X158953465Y-93461326D01*
X158964899Y-93423633D01*
X158983466Y-93388897D01*
X159008452Y-93358452D01*
X159038897Y-93333466D01*
X159073633Y-93314899D01*
X159111326Y-93303465D01*
X159156661Y-93299000D01*
X160243339Y-93299000D01*
X160288674Y-93303465D01*
X160288674Y-93303465D01*
G37*
G36*
X173525170Y-91875803D02*
G01*
X173536875Y-91879354D01*
X173547665Y-91885121D01*
X173557119Y-91892881D01*
X173564879Y-91902335D01*
X173570646Y-91913125D01*
X173574197Y-91924830D01*
X173576000Y-91943138D01*
X173576000Y-92306862D01*
X173574197Y-92325170D01*
X173570646Y-92336875D01*
X173564879Y-92347665D01*
X173553370Y-92361688D01*
X173544355Y-92370704D01*
X173530741Y-92391078D01*
X173521365Y-92413717D01*
X173516585Y-92437751D01*
X173516585Y-92462255D01*
X173521366Y-92486288D01*
X173530744Y-92508926D01*
X173544358Y-92529301D01*
X173553374Y-92538317D01*
X173564879Y-92552335D01*
X173570646Y-92563125D01*
X173574197Y-92574830D01*
X173576000Y-92593138D01*
X173576000Y-92956862D01*
X173574197Y-92975170D01*
X173570646Y-92986875D01*
X173564879Y-92997665D01*
X173553370Y-93011688D01*
X173544355Y-93020704D01*
X173530741Y-93041078D01*
X173521365Y-93063717D01*
X173516585Y-93087751D01*
X173516585Y-93112255D01*
X173521366Y-93136288D01*
X173530744Y-93158926D01*
X173544358Y-93179301D01*
X173553374Y-93188317D01*
X173564879Y-93202335D01*
X173570646Y-93213125D01*
X173574197Y-93224830D01*
X173576000Y-93243138D01*
X173576000Y-93606862D01*
X173574197Y-93625170D01*
X173570646Y-93636875D01*
X173564879Y-93647665D01*
X173553370Y-93661688D01*
X173544355Y-93670704D01*
X173530741Y-93691078D01*
X173521365Y-93713717D01*
X173516585Y-93737751D01*
X173516585Y-93762255D01*
X173521366Y-93786288D01*
X173530744Y-93808926D01*
X173544358Y-93829301D01*
X173553374Y-93838317D01*
X173564879Y-93852335D01*
X173570646Y-93863125D01*
X173574197Y-93874830D01*
X173576000Y-93893138D01*
X173576000Y-94256862D01*
X173574197Y-94275170D01*
X173570646Y-94286875D01*
X173564879Y-94297665D01*
X173557119Y-94307119D01*
X173547665Y-94314879D01*
X173536875Y-94320646D01*
X173525170Y-94324197D01*
X173506862Y-94326000D01*
X172118138Y-94326000D01*
X172099830Y-94324197D01*
X172088125Y-94320646D01*
X172077335Y-94314879D01*
X172067881Y-94307119D01*
X172060121Y-94297665D01*
X172054354Y-94286875D01*
X172050803Y-94275170D01*
X172049000Y-94256862D01*
X172049000Y-93893138D01*
X172050803Y-93874830D01*
X172054354Y-93863125D01*
X172060121Y-93852335D01*
X172071630Y-93838312D01*
X172080645Y-93829296D01*
X172094259Y-93808922D01*
X172103635Y-93786283D01*
X172108415Y-93762249D01*
X172108415Y-93737745D01*
X172103634Y-93713712D01*
X172094256Y-93691074D01*
X172080642Y-93670699D01*
X172071626Y-93661683D01*
X172060121Y-93647665D01*
X172054354Y-93636875D01*
X172050803Y-93625170D01*
X172049000Y-93606862D01*
X172049000Y-93243138D01*
X172050803Y-93224830D01*
X172054354Y-93213125D01*
X172060121Y-93202335D01*
X172071630Y-93188312D01*
X172080645Y-93179296D01*
X172094259Y-93158922D01*
X172103635Y-93136283D01*
X172108415Y-93112249D01*
X172108415Y-93087745D01*
X172103634Y-93063712D01*
X172094256Y-93041074D01*
X172080642Y-93020699D01*
X172071626Y-93011683D01*
X172060121Y-92997665D01*
X172054354Y-92986875D01*
X172050803Y-92975170D01*
X172049000Y-92956862D01*
X172049000Y-92593138D01*
X172050803Y-92574830D01*
X172054354Y-92563125D01*
X172060121Y-92552335D01*
X172071630Y-92538312D01*
X172080645Y-92529296D01*
X172094259Y-92508922D01*
X172103635Y-92486283D01*
X172108415Y-92462249D01*
X172108415Y-92437745D01*
X172103634Y-92413712D01*
X172094256Y-92391074D01*
X172080642Y-92370699D01*
X172071626Y-92361683D01*
X172060121Y-92347665D01*
X172054354Y-92336875D01*
X172050803Y-92325170D01*
X172049000Y-92306862D01*
X172049000Y-91943138D01*
X172050803Y-91924830D01*
X172054354Y-91913125D01*
X172060121Y-91902335D01*
X172067881Y-91892881D01*
X172077335Y-91885121D01*
X172088125Y-91879354D01*
X172099830Y-91875803D01*
X172118138Y-91874000D01*
X173506862Y-91874000D01*
X173525170Y-91875803D01*
X173525170Y-91875803D01*
G37*
G36*
X169200170Y-91875803D02*
G01*
X169211875Y-91879354D01*
X169222665Y-91885121D01*
X169232119Y-91892881D01*
X169239879Y-91902335D01*
X169245646Y-91913125D01*
X169249197Y-91924830D01*
X169251000Y-91943138D01*
X169251000Y-92306862D01*
X169249197Y-92325170D01*
X169245646Y-92336875D01*
X169239879Y-92347665D01*
X169228370Y-92361688D01*
X169219355Y-92370704D01*
X169205741Y-92391078D01*
X169196365Y-92413717D01*
X169191585Y-92437751D01*
X169191585Y-92462255D01*
X169196366Y-92486288D01*
X169205744Y-92508926D01*
X169219358Y-92529301D01*
X169228374Y-92538317D01*
X169239879Y-92552335D01*
X169245646Y-92563125D01*
X169249197Y-92574830D01*
X169251000Y-92593138D01*
X169251000Y-92956862D01*
X169249197Y-92975170D01*
X169245646Y-92986875D01*
X169239879Y-92997665D01*
X169228370Y-93011688D01*
X169219355Y-93020704D01*
X169205741Y-93041078D01*
X169196365Y-93063717D01*
X169191585Y-93087751D01*
X169191585Y-93112255D01*
X169196366Y-93136288D01*
X169205744Y-93158926D01*
X169219358Y-93179301D01*
X169228374Y-93188317D01*
X169239879Y-93202335D01*
X169245646Y-93213125D01*
X169249197Y-93224830D01*
X169251000Y-93243138D01*
X169251000Y-93606862D01*
X169249197Y-93625170D01*
X169245646Y-93636875D01*
X169239879Y-93647665D01*
X169228370Y-93661688D01*
X169219355Y-93670704D01*
X169205741Y-93691078D01*
X169196365Y-93713717D01*
X169191585Y-93737751D01*
X169191585Y-93762255D01*
X169196366Y-93786288D01*
X169205744Y-93808926D01*
X169219358Y-93829301D01*
X169228374Y-93838317D01*
X169239879Y-93852335D01*
X169245646Y-93863125D01*
X169249197Y-93874830D01*
X169251000Y-93893138D01*
X169251000Y-94256862D01*
X169249197Y-94275170D01*
X169245646Y-94286875D01*
X169239879Y-94297665D01*
X169232119Y-94307119D01*
X169222665Y-94314879D01*
X169211875Y-94320646D01*
X169200170Y-94324197D01*
X169181862Y-94326000D01*
X167793138Y-94326000D01*
X167774830Y-94324197D01*
X167763125Y-94320646D01*
X167752335Y-94314879D01*
X167742881Y-94307119D01*
X167735121Y-94297665D01*
X167729354Y-94286875D01*
X167725803Y-94275170D01*
X167724000Y-94256862D01*
X167724000Y-93893138D01*
X167725803Y-93874830D01*
X167729354Y-93863125D01*
X167735121Y-93852335D01*
X167746630Y-93838312D01*
X167755645Y-93829296D01*
X167769259Y-93808922D01*
X167778635Y-93786283D01*
X167783415Y-93762249D01*
X167783415Y-93737745D01*
X167778634Y-93713712D01*
X167769256Y-93691074D01*
X167755642Y-93670699D01*
X167746626Y-93661683D01*
X167735121Y-93647665D01*
X167729354Y-93636875D01*
X167725803Y-93625170D01*
X167724000Y-93606862D01*
X167724000Y-93243138D01*
X167725803Y-93224830D01*
X167729354Y-93213125D01*
X167735121Y-93202335D01*
X167746630Y-93188312D01*
X167755645Y-93179296D01*
X167769259Y-93158922D01*
X167778635Y-93136283D01*
X167783415Y-93112249D01*
X167783415Y-93087745D01*
X167778634Y-93063712D01*
X167769256Y-93041074D01*
X167755642Y-93020699D01*
X167746626Y-93011683D01*
X167735121Y-92997665D01*
X167729354Y-92986875D01*
X167725803Y-92975170D01*
X167724000Y-92956862D01*
X167724000Y-92593138D01*
X167725803Y-92574830D01*
X167729354Y-92563125D01*
X167735121Y-92552335D01*
X167746630Y-92538312D01*
X167755645Y-92529296D01*
X167769259Y-92508922D01*
X167778635Y-92486283D01*
X167783415Y-92462249D01*
X167783415Y-92437745D01*
X167778634Y-92413712D01*
X167769256Y-92391074D01*
X167755642Y-92370699D01*
X167746626Y-92361683D01*
X167735121Y-92347665D01*
X167729354Y-92336875D01*
X167725803Y-92325170D01*
X167724000Y-92306862D01*
X167724000Y-91943138D01*
X167725803Y-91924830D01*
X167729354Y-91913125D01*
X167735121Y-91902335D01*
X167742881Y-91892881D01*
X167752335Y-91885121D01*
X167763125Y-91879354D01*
X167774830Y-91875803D01*
X167793138Y-91874000D01*
X169181862Y-91874000D01*
X169200170Y-91875803D01*
X169200170Y-91875803D01*
G37*
G36*
X171424322Y-92127972D02*
G01*
X171457206Y-92137947D01*
X171487502Y-92154141D01*
X171514062Y-92175938D01*
X171535859Y-92202498D01*
X171552053Y-92232794D01*
X171562028Y-92265678D01*
X171566000Y-92306008D01*
X171566000Y-93893992D01*
X171562028Y-93934322D01*
X171552053Y-93967206D01*
X171535859Y-93997502D01*
X171514062Y-94024062D01*
X171487502Y-94045859D01*
X171457206Y-94062053D01*
X171424322Y-94072028D01*
X171383992Y-94076000D01*
X169916008Y-94076000D01*
X169875678Y-94072028D01*
X169842794Y-94062053D01*
X169812498Y-94045859D01*
X169785938Y-94024062D01*
X169764141Y-93997502D01*
X169747947Y-93967206D01*
X169737972Y-93934322D01*
X169734000Y-93893992D01*
X169734000Y-92306008D01*
X169737972Y-92265678D01*
X169747947Y-92232794D01*
X169764141Y-92202498D01*
X169785938Y-92175938D01*
X169812498Y-92154141D01*
X169842794Y-92137947D01*
X169875678Y-92127972D01*
X169916008Y-92124000D01*
X171383992Y-92124000D01*
X171424322Y-92127972D01*
X171424322Y-92127972D01*
G37*
G36*
X180610442Y-90925518D02*
G01*
X180676627Y-90932037D01*
X180846466Y-90983557D01*
X181002991Y-91067222D01*
X181006216Y-91069869D01*
X181140186Y-91179814D01*
X181210012Y-91264899D01*
X181252778Y-91317009D01*
X181336443Y-91473534D01*
X181387963Y-91643373D01*
X181405359Y-91820000D01*
X181387963Y-91996627D01*
X181336443Y-92166466D01*
X181252778Y-92322991D01*
X181239907Y-92338674D01*
X181140186Y-92460186D01*
X181044988Y-92538312D01*
X181002991Y-92572778D01*
X180846466Y-92656443D01*
X180676627Y-92707963D01*
X180610442Y-92714482D01*
X180544260Y-92721000D01*
X180455740Y-92721000D01*
X180389558Y-92714482D01*
X180323373Y-92707963D01*
X180153534Y-92656443D01*
X179997009Y-92572778D01*
X179955012Y-92538312D01*
X179859814Y-92460186D01*
X179760093Y-92338674D01*
X179747222Y-92322991D01*
X179663557Y-92166466D01*
X179612037Y-91996627D01*
X179594641Y-91820000D01*
X179612037Y-91643373D01*
X179663557Y-91473534D01*
X179747222Y-91317009D01*
X179789988Y-91264899D01*
X179859814Y-91179814D01*
X179993784Y-91069869D01*
X179997009Y-91067222D01*
X180153534Y-90983557D01*
X180323373Y-90932037D01*
X180389557Y-90925519D01*
X180455740Y-90919000D01*
X180544260Y-90919000D01*
X180610442Y-90925518D01*
X180610442Y-90925518D01*
G37*
G36*
X103101000Y-92701000D02*
G01*
X101299000Y-92701000D01*
X101299000Y-90899000D01*
X103101000Y-90899000D01*
X103101000Y-92701000D01*
X103101000Y-92701000D01*
G37*
G36*
X130938674Y-91353465D02*
G01*
X130976367Y-91364899D01*
X131011103Y-91383466D01*
X131041548Y-91408452D01*
X131066534Y-91438897D01*
X131085101Y-91473633D01*
X131096535Y-91511326D01*
X131101000Y-91556661D01*
X131101000Y-92393339D01*
X131096535Y-92438674D01*
X131085101Y-92476367D01*
X131066534Y-92511103D01*
X131041548Y-92541548D01*
X131011103Y-92566534D01*
X130976367Y-92585101D01*
X130938674Y-92596535D01*
X130893339Y-92601000D01*
X129806661Y-92601000D01*
X129761326Y-92596535D01*
X129723633Y-92585101D01*
X129688897Y-92566534D01*
X129658452Y-92541548D01*
X129633466Y-92511103D01*
X129614899Y-92476367D01*
X129603465Y-92438674D01*
X129599000Y-92393339D01*
X129599000Y-91556661D01*
X129603465Y-91511326D01*
X129614899Y-91473633D01*
X129633466Y-91438897D01*
X129658452Y-91408452D01*
X129688897Y-91383466D01*
X129723633Y-91364899D01*
X129761326Y-91353465D01*
X129806661Y-91349000D01*
X130893339Y-91349000D01*
X130938674Y-91353465D01*
X130938674Y-91353465D01*
G37*
G36*
X160288674Y-91253465D02*
G01*
X160326367Y-91264899D01*
X160361103Y-91283466D01*
X160391548Y-91308452D01*
X160416534Y-91338897D01*
X160435101Y-91373633D01*
X160446535Y-91411326D01*
X160451000Y-91456661D01*
X160451000Y-92293339D01*
X160446535Y-92338674D01*
X160435101Y-92376367D01*
X160416534Y-92411103D01*
X160391548Y-92441548D01*
X160361103Y-92466534D01*
X160326367Y-92485101D01*
X160288674Y-92496535D01*
X160243339Y-92501000D01*
X159156661Y-92501000D01*
X159111326Y-92496535D01*
X159073633Y-92485101D01*
X159038897Y-92466534D01*
X159008452Y-92441548D01*
X158983466Y-92411103D01*
X158964899Y-92376367D01*
X158953465Y-92338674D01*
X158949000Y-92293339D01*
X158949000Y-91456661D01*
X158953465Y-91411326D01*
X158964899Y-91373633D01*
X158983466Y-91338897D01*
X159008452Y-91308452D01*
X159038897Y-91283466D01*
X159073633Y-91264899D01*
X159111326Y-91253465D01*
X159156661Y-91249000D01*
X160243339Y-91249000D01*
X160288674Y-91253465D01*
X160288674Y-91253465D01*
G37*
G36*
X153569000Y-92410000D02*
G01*
X147167000Y-92410000D01*
X147167000Y-90558000D01*
X153569000Y-90558000D01*
X153569000Y-92410000D01*
X153569000Y-92410000D01*
G37*
G36*
X108688674Y-91028465D02*
G01*
X108726367Y-91039899D01*
X108761103Y-91058466D01*
X108791548Y-91083452D01*
X108816534Y-91113897D01*
X108835101Y-91148633D01*
X108846535Y-91186326D01*
X108851000Y-91231661D01*
X108851000Y-92068339D01*
X108846535Y-92113674D01*
X108835101Y-92151367D01*
X108816534Y-92186103D01*
X108791548Y-92216548D01*
X108761103Y-92241534D01*
X108726367Y-92260101D01*
X108688674Y-92271535D01*
X108643339Y-92276000D01*
X107556661Y-92276000D01*
X107511326Y-92271535D01*
X107473633Y-92260101D01*
X107438897Y-92241534D01*
X107408452Y-92216548D01*
X107383466Y-92186103D01*
X107364899Y-92151367D01*
X107353465Y-92113674D01*
X107349000Y-92068339D01*
X107349000Y-91231661D01*
X107353465Y-91186326D01*
X107364899Y-91148633D01*
X107383466Y-91113897D01*
X107408452Y-91083452D01*
X107438897Y-91058466D01*
X107473633Y-91039899D01*
X107511326Y-91028465D01*
X107556661Y-91024000D01*
X108643339Y-91024000D01*
X108688674Y-91028465D01*
X108688674Y-91028465D01*
G37*
G36*
X112688674Y-91028465D02*
G01*
X112726367Y-91039899D01*
X112761103Y-91058466D01*
X112791548Y-91083452D01*
X112816534Y-91113897D01*
X112835101Y-91148633D01*
X112846535Y-91186326D01*
X112851000Y-91231661D01*
X112851000Y-92068339D01*
X112846535Y-92113674D01*
X112835101Y-92151367D01*
X112816534Y-92186103D01*
X112791548Y-92216548D01*
X112761103Y-92241534D01*
X112726367Y-92260101D01*
X112688674Y-92271535D01*
X112643339Y-92276000D01*
X111556661Y-92276000D01*
X111511326Y-92271535D01*
X111473633Y-92260101D01*
X111438897Y-92241534D01*
X111408452Y-92216548D01*
X111383466Y-92186103D01*
X111364899Y-92151367D01*
X111353465Y-92113674D01*
X111349000Y-92068339D01*
X111349000Y-91231661D01*
X111353465Y-91186326D01*
X111364899Y-91148633D01*
X111383466Y-91113897D01*
X111408452Y-91083452D01*
X111438897Y-91058466D01*
X111473633Y-91039899D01*
X111511326Y-91028465D01*
X111556661Y-91024000D01*
X112643339Y-91024000D01*
X112688674Y-91028465D01*
X112688674Y-91028465D01*
G37*
G36*
X110688674Y-91028465D02*
G01*
X110726367Y-91039899D01*
X110761103Y-91058466D01*
X110791548Y-91083452D01*
X110816534Y-91113897D01*
X110835101Y-91148633D01*
X110846535Y-91186326D01*
X110851000Y-91231661D01*
X110851000Y-92068339D01*
X110846535Y-92113674D01*
X110835101Y-92151367D01*
X110816534Y-92186103D01*
X110791548Y-92216548D01*
X110761103Y-92241534D01*
X110726367Y-92260101D01*
X110688674Y-92271535D01*
X110643339Y-92276000D01*
X109556661Y-92276000D01*
X109511326Y-92271535D01*
X109473633Y-92260101D01*
X109438897Y-92241534D01*
X109408452Y-92216548D01*
X109383466Y-92186103D01*
X109364899Y-92151367D01*
X109353465Y-92113674D01*
X109349000Y-92068339D01*
X109349000Y-91231661D01*
X109353465Y-91186326D01*
X109364899Y-91148633D01*
X109383466Y-91113897D01*
X109408452Y-91083452D01*
X109438897Y-91058466D01*
X109473633Y-91039899D01*
X109511326Y-91028465D01*
X109556661Y-91024000D01*
X110643339Y-91024000D01*
X110688674Y-91028465D01*
X110688674Y-91028465D01*
G37*
G36*
X137601000Y-91901000D02*
G01*
X132499000Y-91901000D01*
X132499000Y-90299000D01*
X137601000Y-90299000D01*
X137601000Y-91901000D01*
X137601000Y-91901000D01*
G37*
G36*
X145788674Y-90303465D02*
G01*
X145826367Y-90314899D01*
X145861103Y-90333466D01*
X145891548Y-90358452D01*
X145916534Y-90388897D01*
X145935101Y-90423633D01*
X145946535Y-90461326D01*
X145951000Y-90506661D01*
X145951000Y-91343339D01*
X145946535Y-91388674D01*
X145935101Y-91426367D01*
X145916534Y-91461103D01*
X145891548Y-91491548D01*
X145861103Y-91516534D01*
X145826367Y-91535101D01*
X145788674Y-91546535D01*
X145743339Y-91551000D01*
X144656661Y-91551000D01*
X144611326Y-91546535D01*
X144573633Y-91535101D01*
X144538897Y-91516534D01*
X144508452Y-91491548D01*
X144483466Y-91461103D01*
X144464899Y-91426367D01*
X144453465Y-91388674D01*
X144449000Y-91343339D01*
X144449000Y-90506661D01*
X144453465Y-90461326D01*
X144464899Y-90423633D01*
X144483466Y-90388897D01*
X144508452Y-90358452D01*
X144538897Y-90333466D01*
X144573633Y-90314899D01*
X144611326Y-90303465D01*
X144656661Y-90299000D01*
X145743339Y-90299000D01*
X145788674Y-90303465D01*
X145788674Y-90303465D01*
G37*
G36*
X110688674Y-88978465D02*
G01*
X110726367Y-88989899D01*
X110761103Y-89008466D01*
X110791548Y-89033452D01*
X110816534Y-89063897D01*
X110835101Y-89098633D01*
X110846535Y-89136326D01*
X110851000Y-89181661D01*
X110851000Y-90018339D01*
X110846535Y-90063674D01*
X110835101Y-90101367D01*
X110816534Y-90136103D01*
X110791548Y-90166548D01*
X110761103Y-90191534D01*
X110726367Y-90210101D01*
X110688674Y-90221535D01*
X110643339Y-90226000D01*
X109556661Y-90226000D01*
X109511326Y-90221535D01*
X109473633Y-90210101D01*
X109438897Y-90191534D01*
X109408452Y-90166548D01*
X109383466Y-90136103D01*
X109364899Y-90101367D01*
X109353465Y-90063674D01*
X109349000Y-90018339D01*
X109349000Y-89181661D01*
X109353465Y-89136326D01*
X109364899Y-89098633D01*
X109383466Y-89063897D01*
X109408452Y-89033452D01*
X109438897Y-89008466D01*
X109473633Y-88989899D01*
X109511326Y-88978465D01*
X109556661Y-88974000D01*
X110643339Y-88974000D01*
X110688674Y-88978465D01*
X110688674Y-88978465D01*
G37*
G36*
X112688674Y-88978465D02*
G01*
X112726367Y-88989899D01*
X112761103Y-89008466D01*
X112791548Y-89033452D01*
X112816534Y-89063897D01*
X112835101Y-89098633D01*
X112846535Y-89136326D01*
X112851000Y-89181661D01*
X112851000Y-90018339D01*
X112846535Y-90063674D01*
X112835101Y-90101367D01*
X112816534Y-90136103D01*
X112791548Y-90166548D01*
X112761103Y-90191534D01*
X112726367Y-90210101D01*
X112688674Y-90221535D01*
X112643339Y-90226000D01*
X111556661Y-90226000D01*
X111511326Y-90221535D01*
X111473633Y-90210101D01*
X111438897Y-90191534D01*
X111408452Y-90166548D01*
X111383466Y-90136103D01*
X111364899Y-90101367D01*
X111353465Y-90063674D01*
X111349000Y-90018339D01*
X111349000Y-89181661D01*
X111353465Y-89136326D01*
X111364899Y-89098633D01*
X111383466Y-89063897D01*
X111408452Y-89033452D01*
X111438897Y-89008466D01*
X111473633Y-88989899D01*
X111511326Y-88978465D01*
X111556661Y-88974000D01*
X112643339Y-88974000D01*
X112688674Y-88978465D01*
X112688674Y-88978465D01*
G37*
G36*
X108688674Y-88978465D02*
G01*
X108726367Y-88989899D01*
X108761103Y-89008466D01*
X108791548Y-89033452D01*
X108816534Y-89063897D01*
X108835101Y-89098633D01*
X108846535Y-89136326D01*
X108851000Y-89181661D01*
X108851000Y-90018339D01*
X108846535Y-90063674D01*
X108835101Y-90101367D01*
X108816534Y-90136103D01*
X108791548Y-90166548D01*
X108761103Y-90191534D01*
X108726367Y-90210101D01*
X108688674Y-90221535D01*
X108643339Y-90226000D01*
X107556661Y-90226000D01*
X107511326Y-90221535D01*
X107473633Y-90210101D01*
X107438897Y-90191534D01*
X107408452Y-90166548D01*
X107383466Y-90136103D01*
X107364899Y-90101367D01*
X107353465Y-90063674D01*
X107349000Y-90018339D01*
X107349000Y-89181661D01*
X107353465Y-89136326D01*
X107364899Y-89098633D01*
X107383466Y-89063897D01*
X107408452Y-89033452D01*
X107438897Y-89008466D01*
X107473633Y-88989899D01*
X107511326Y-88978465D01*
X107556661Y-88974000D01*
X108643339Y-88974000D01*
X108688674Y-88978465D01*
X108688674Y-88978465D01*
G37*
G36*
X180589603Y-88383466D02*
G01*
X180676627Y-88392037D01*
X180846466Y-88443557D01*
X181002991Y-88527222D01*
X181038729Y-88556552D01*
X181140186Y-88639814D01*
X181223448Y-88741271D01*
X181252778Y-88777009D01*
X181336443Y-88933534D01*
X181387963Y-89103373D01*
X181405359Y-89280000D01*
X181387963Y-89456627D01*
X181336443Y-89626466D01*
X181252778Y-89782991D01*
X181223448Y-89818729D01*
X181140186Y-89920186D01*
X181038729Y-90003448D01*
X181002991Y-90032778D01*
X180846466Y-90116443D01*
X180676627Y-90167963D01*
X180610442Y-90174482D01*
X180544260Y-90181000D01*
X180455740Y-90181000D01*
X180389558Y-90174482D01*
X180323373Y-90167963D01*
X180153534Y-90116443D01*
X179997009Y-90032778D01*
X179961271Y-90003448D01*
X179859814Y-89920186D01*
X179776552Y-89818729D01*
X179747222Y-89782991D01*
X179663557Y-89626466D01*
X179612037Y-89456627D01*
X179594641Y-89280000D01*
X179612037Y-89103373D01*
X179663557Y-88933534D01*
X179747222Y-88777009D01*
X179776552Y-88741271D01*
X179859814Y-88639814D01*
X179961271Y-88556552D01*
X179997009Y-88527222D01*
X180153534Y-88443557D01*
X180323373Y-88392037D01*
X180410397Y-88383466D01*
X180455740Y-88379000D01*
X180544260Y-88379000D01*
X180589603Y-88383466D01*
X180589603Y-88383466D01*
G37*
G36*
X119376000Y-90181000D02*
G01*
X118824000Y-90181000D01*
X118824000Y-88579000D01*
X119376000Y-88579000D01*
X119376000Y-90181000D01*
X119376000Y-90181000D01*
G37*
G36*
X102304153Y-88364899D02*
G01*
X102376627Y-88372037D01*
X102546466Y-88423557D01*
X102546468Y-88423558D01*
X102575165Y-88438897D01*
X102702991Y-88507222D01*
X102727361Y-88527222D01*
X102840186Y-88619814D01*
X102923448Y-88721271D01*
X102952778Y-88757009D01*
X103036443Y-88913534D01*
X103087963Y-89083373D01*
X103105359Y-89260000D01*
X103087963Y-89436627D01*
X103036443Y-89606466D01*
X102952778Y-89762991D01*
X102936366Y-89782989D01*
X102840186Y-89900186D01*
X102738729Y-89983448D01*
X102702991Y-90012778D01*
X102546466Y-90096443D01*
X102376627Y-90147963D01*
X102310442Y-90154482D01*
X102244260Y-90161000D01*
X102155740Y-90161000D01*
X102089558Y-90154482D01*
X102023373Y-90147963D01*
X101853534Y-90096443D01*
X101697009Y-90012778D01*
X101661271Y-89983448D01*
X101559814Y-89900186D01*
X101463634Y-89782989D01*
X101447222Y-89762991D01*
X101363557Y-89606466D01*
X101312037Y-89436627D01*
X101294641Y-89260000D01*
X101312037Y-89083373D01*
X101363557Y-88913534D01*
X101447222Y-88757009D01*
X101476552Y-88721271D01*
X101559814Y-88619814D01*
X101672639Y-88527222D01*
X101697009Y-88507222D01*
X101824835Y-88438897D01*
X101853532Y-88423558D01*
X101853534Y-88423557D01*
X102023373Y-88372037D01*
X102095847Y-88364899D01*
X102155740Y-88359000D01*
X102244260Y-88359000D01*
X102304153Y-88364899D01*
X102304153Y-88364899D01*
G37*
G36*
X106138674Y-88353465D02*
G01*
X106176367Y-88364899D01*
X106211103Y-88383466D01*
X106241548Y-88408452D01*
X106266534Y-88438897D01*
X106285101Y-88473633D01*
X106296535Y-88511326D01*
X106301000Y-88556661D01*
X106301000Y-89393339D01*
X106296535Y-89438674D01*
X106285101Y-89476367D01*
X106266534Y-89511103D01*
X106241548Y-89541548D01*
X106211103Y-89566534D01*
X106176367Y-89585101D01*
X106138674Y-89596535D01*
X106093339Y-89601000D01*
X105006661Y-89601000D01*
X104961326Y-89596535D01*
X104923633Y-89585101D01*
X104888897Y-89566534D01*
X104858452Y-89541548D01*
X104833466Y-89511103D01*
X104814899Y-89476367D01*
X104803465Y-89438674D01*
X104799000Y-89393339D01*
X104799000Y-88556661D01*
X104803465Y-88511326D01*
X104814899Y-88473633D01*
X104833466Y-88438897D01*
X104858452Y-88408452D01*
X104888897Y-88383466D01*
X104923633Y-88364899D01*
X104961326Y-88353465D01*
X105006661Y-88349000D01*
X106093339Y-88349000D01*
X106138674Y-88353465D01*
X106138674Y-88353465D01*
G37*
G36*
X177538674Y-88353465D02*
G01*
X177576367Y-88364899D01*
X177611103Y-88383466D01*
X177641548Y-88408452D01*
X177666534Y-88438897D01*
X177685101Y-88473633D01*
X177696535Y-88511326D01*
X177701000Y-88556661D01*
X177701000Y-89393339D01*
X177696535Y-89438674D01*
X177685101Y-89476367D01*
X177666534Y-89511103D01*
X177641548Y-89541548D01*
X177611103Y-89566534D01*
X177576367Y-89585101D01*
X177538674Y-89596535D01*
X177493339Y-89601000D01*
X176406661Y-89601000D01*
X176361326Y-89596535D01*
X176323633Y-89585101D01*
X176288897Y-89566534D01*
X176258452Y-89541548D01*
X176233466Y-89511103D01*
X176214899Y-89476367D01*
X176203465Y-89438674D01*
X176199000Y-89393339D01*
X176199000Y-88556661D01*
X176203465Y-88511326D01*
X176214899Y-88473633D01*
X176233466Y-88438897D01*
X176258452Y-88408452D01*
X176288897Y-88383466D01*
X176323633Y-88364899D01*
X176361326Y-88353465D01*
X176406661Y-88349000D01*
X177493339Y-88349000D01*
X177538674Y-88353465D01*
X177538674Y-88353465D01*
G37*
G36*
X122788674Y-88353465D02*
G01*
X122826367Y-88364899D01*
X122861103Y-88383466D01*
X122891548Y-88408452D01*
X122916534Y-88438897D01*
X122935101Y-88473633D01*
X122946535Y-88511326D01*
X122951000Y-88556661D01*
X122951000Y-89393339D01*
X122946535Y-89438674D01*
X122935101Y-89476367D01*
X122916534Y-89511103D01*
X122891548Y-89541548D01*
X122861103Y-89566534D01*
X122826367Y-89585101D01*
X122788674Y-89596535D01*
X122743339Y-89601000D01*
X121656661Y-89601000D01*
X121611326Y-89596535D01*
X121573633Y-89585101D01*
X121538897Y-89566534D01*
X121508452Y-89541548D01*
X121483466Y-89511103D01*
X121464899Y-89476367D01*
X121453465Y-89438674D01*
X121449000Y-89393339D01*
X121449000Y-88556661D01*
X121453465Y-88511326D01*
X121464899Y-88473633D01*
X121483466Y-88438897D01*
X121508452Y-88408452D01*
X121538897Y-88383466D01*
X121573633Y-88364899D01*
X121611326Y-88353465D01*
X121656661Y-88349000D01*
X122743339Y-88349000D01*
X122788674Y-88353465D01*
X122788674Y-88353465D01*
G37*
G36*
X145788674Y-88253465D02*
G01*
X145826367Y-88264899D01*
X145861103Y-88283466D01*
X145891548Y-88308452D01*
X145916534Y-88338897D01*
X145935101Y-88373633D01*
X145946535Y-88411326D01*
X145951000Y-88456661D01*
X145951000Y-89293339D01*
X145946535Y-89338674D01*
X145935101Y-89376367D01*
X145916534Y-89411103D01*
X145891548Y-89441548D01*
X145861103Y-89466534D01*
X145826367Y-89485101D01*
X145788674Y-89496535D01*
X145743339Y-89501000D01*
X144656661Y-89501000D01*
X144611326Y-89496535D01*
X144573633Y-89485101D01*
X144538897Y-89466534D01*
X144508452Y-89441548D01*
X144483466Y-89411103D01*
X144464899Y-89376367D01*
X144453465Y-89338674D01*
X144449000Y-89293339D01*
X144449000Y-88456661D01*
X144453465Y-88411326D01*
X144464899Y-88373633D01*
X144483466Y-88338897D01*
X144508452Y-88308452D01*
X144538897Y-88283466D01*
X144573633Y-88264899D01*
X144611326Y-88253465D01*
X144656661Y-88249000D01*
X145743339Y-88249000D01*
X145788674Y-88253465D01*
X145788674Y-88253465D01*
G37*
G36*
X180610443Y-85845519D02*
G01*
X180676627Y-85852037D01*
X180846466Y-85903557D01*
X181002991Y-85987222D01*
X181019779Y-86001000D01*
X181140186Y-86099814D01*
X181223448Y-86201271D01*
X181252778Y-86237009D01*
X181252779Y-86237011D01*
X181333965Y-86388897D01*
X181336443Y-86393534D01*
X181387963Y-86563373D01*
X181405359Y-86740000D01*
X181387963Y-86916627D01*
X181336443Y-87086466D01*
X181252778Y-87242991D01*
X181223448Y-87278729D01*
X181140186Y-87380186D01*
X181057385Y-87448138D01*
X181002991Y-87492778D01*
X180846466Y-87576443D01*
X180676627Y-87627963D01*
X180610442Y-87634482D01*
X180544260Y-87641000D01*
X180455740Y-87641000D01*
X180389558Y-87634482D01*
X180323373Y-87627963D01*
X180153534Y-87576443D01*
X179997009Y-87492778D01*
X179942615Y-87448138D01*
X179859814Y-87380186D01*
X179776552Y-87278729D01*
X179747222Y-87242991D01*
X179663557Y-87086466D01*
X179612037Y-86916627D01*
X179594641Y-86740000D01*
X179612037Y-86563373D01*
X179663557Y-86393534D01*
X179666036Y-86388897D01*
X179747221Y-86237011D01*
X179747222Y-86237009D01*
X179776552Y-86201271D01*
X179859814Y-86099814D01*
X179980221Y-86001000D01*
X179997009Y-85987222D01*
X180153534Y-85903557D01*
X180323373Y-85852037D01*
X180389557Y-85845519D01*
X180455740Y-85839000D01*
X180544260Y-85839000D01*
X180610443Y-85845519D01*
X180610443Y-85845519D01*
G37*
G36*
X102310442Y-85825518D02*
G01*
X102376627Y-85832037D01*
X102546466Y-85883557D01*
X102702991Y-85967222D01*
X102727361Y-85987222D01*
X102840186Y-86079814D01*
X102923448Y-86181271D01*
X102952778Y-86217009D01*
X103036443Y-86373534D01*
X103087963Y-86543373D01*
X103105359Y-86720000D01*
X103087963Y-86896627D01*
X103036443Y-87066466D01*
X102952778Y-87222991D01*
X102936366Y-87242989D01*
X102840186Y-87360186D01*
X102738729Y-87443448D01*
X102702991Y-87472778D01*
X102702989Y-87472779D01*
X102565003Y-87546535D01*
X102546466Y-87556443D01*
X102376627Y-87607963D01*
X102310443Y-87614481D01*
X102244260Y-87621000D01*
X102155740Y-87621000D01*
X102089557Y-87614481D01*
X102023373Y-87607963D01*
X101853534Y-87556443D01*
X101834998Y-87546535D01*
X101697011Y-87472779D01*
X101697009Y-87472778D01*
X101661271Y-87443448D01*
X101559814Y-87360186D01*
X101463634Y-87242989D01*
X101447222Y-87222991D01*
X101363557Y-87066466D01*
X101312037Y-86896627D01*
X101294641Y-86720000D01*
X101312037Y-86543373D01*
X101363557Y-86373534D01*
X101447222Y-86217009D01*
X101476552Y-86181271D01*
X101559814Y-86079814D01*
X101672639Y-85987222D01*
X101697009Y-85967222D01*
X101853534Y-85883557D01*
X102023373Y-85832037D01*
X102089558Y-85825518D01*
X102155740Y-85819000D01*
X102244260Y-85819000D01*
X102310442Y-85825518D01*
X102310442Y-85825518D01*
G37*
G36*
X145784468Y-86503565D02*
G01*
X145823138Y-86515296D01*
X145858777Y-86534346D01*
X145890017Y-86559983D01*
X145915654Y-86591223D01*
X145934704Y-86626862D01*
X145946435Y-86665532D01*
X145951000Y-86711888D01*
X145951000Y-87363112D01*
X145946435Y-87409468D01*
X145934704Y-87448138D01*
X145915654Y-87483777D01*
X145890017Y-87515017D01*
X145858777Y-87540654D01*
X145823138Y-87559704D01*
X145784468Y-87571435D01*
X145738112Y-87576000D01*
X144661888Y-87576000D01*
X144615532Y-87571435D01*
X144576862Y-87559704D01*
X144541223Y-87540654D01*
X144509983Y-87515017D01*
X144484346Y-87483777D01*
X144465296Y-87448138D01*
X144453565Y-87409468D01*
X144449000Y-87363112D01*
X144449000Y-86711888D01*
X144453565Y-86665532D01*
X144465296Y-86626862D01*
X144484346Y-86591223D01*
X144509983Y-86559983D01*
X144541223Y-86534346D01*
X144576862Y-86515296D01*
X144615532Y-86503565D01*
X144661888Y-86499000D01*
X145738112Y-86499000D01*
X145784468Y-86503565D01*
X145784468Y-86503565D01*
G37*
G36*
X106138674Y-86303465D02*
G01*
X106176367Y-86314899D01*
X106211103Y-86333466D01*
X106241548Y-86358452D01*
X106266534Y-86388897D01*
X106285101Y-86423633D01*
X106296535Y-86461326D01*
X106301000Y-86506661D01*
X106301000Y-87343339D01*
X106296535Y-87388674D01*
X106285101Y-87426367D01*
X106266534Y-87461103D01*
X106241548Y-87491548D01*
X106211103Y-87516534D01*
X106176367Y-87535101D01*
X106138674Y-87546535D01*
X106093339Y-87551000D01*
X105006661Y-87551000D01*
X104961326Y-87546535D01*
X104923633Y-87535101D01*
X104888897Y-87516534D01*
X104858452Y-87491548D01*
X104833466Y-87461103D01*
X104814899Y-87426367D01*
X104803465Y-87388674D01*
X104799000Y-87343339D01*
X104799000Y-86506661D01*
X104803465Y-86461326D01*
X104814899Y-86423633D01*
X104833466Y-86388897D01*
X104858452Y-86358452D01*
X104888897Y-86333466D01*
X104923633Y-86314899D01*
X104961326Y-86303465D01*
X105006661Y-86299000D01*
X106093339Y-86299000D01*
X106138674Y-86303465D01*
X106138674Y-86303465D01*
G37*
G36*
X177538674Y-86303465D02*
G01*
X177576367Y-86314899D01*
X177611103Y-86333466D01*
X177641548Y-86358452D01*
X177666534Y-86388897D01*
X177685101Y-86423633D01*
X177696535Y-86461326D01*
X177701000Y-86506661D01*
X177701000Y-87343339D01*
X177696535Y-87388674D01*
X177685101Y-87426367D01*
X177666534Y-87461103D01*
X177641548Y-87491548D01*
X177611103Y-87516534D01*
X177576367Y-87535101D01*
X177538674Y-87546535D01*
X177493339Y-87551000D01*
X176406661Y-87551000D01*
X176361326Y-87546535D01*
X176323633Y-87535101D01*
X176288897Y-87516534D01*
X176258452Y-87491548D01*
X176233466Y-87461103D01*
X176214899Y-87426367D01*
X176203465Y-87388674D01*
X176199000Y-87343339D01*
X176199000Y-86506661D01*
X176203465Y-86461326D01*
X176214899Y-86423633D01*
X176233466Y-86388897D01*
X176258452Y-86358452D01*
X176288897Y-86333466D01*
X176323633Y-86314899D01*
X176361326Y-86303465D01*
X176406661Y-86299000D01*
X177493339Y-86299000D01*
X177538674Y-86303465D01*
X177538674Y-86303465D01*
G37*
G36*
X122788674Y-86303465D02*
G01*
X122826367Y-86314899D01*
X122861103Y-86333466D01*
X122891548Y-86358452D01*
X122916534Y-86388897D01*
X122935101Y-86423633D01*
X122946535Y-86461326D01*
X122951000Y-86506661D01*
X122951000Y-87343339D01*
X122946535Y-87388674D01*
X122935101Y-87426367D01*
X122916534Y-87461103D01*
X122891548Y-87491548D01*
X122861103Y-87516534D01*
X122826367Y-87535101D01*
X122788674Y-87546535D01*
X122743339Y-87551000D01*
X121656661Y-87551000D01*
X121611326Y-87546535D01*
X121573633Y-87535101D01*
X121538897Y-87516534D01*
X121508452Y-87491548D01*
X121483466Y-87461103D01*
X121464899Y-87426367D01*
X121453465Y-87388674D01*
X121449000Y-87343339D01*
X121449000Y-86506661D01*
X121453465Y-86461326D01*
X121464899Y-86423633D01*
X121483466Y-86388897D01*
X121508452Y-86358452D01*
X121538897Y-86333466D01*
X121573633Y-86314899D01*
X121611326Y-86303465D01*
X121656661Y-86299000D01*
X122743339Y-86299000D01*
X122788674Y-86303465D01*
X122788674Y-86303465D01*
G37*
G36*
X120026000Y-87521000D02*
G01*
X119474000Y-87521000D01*
X119474000Y-85919000D01*
X120026000Y-85919000D01*
X120026000Y-87521000D01*
X120026000Y-87521000D01*
G37*
G36*
X118726000Y-87521000D02*
G01*
X118174000Y-87521000D01*
X118174000Y-85919000D01*
X118726000Y-85919000D01*
X118726000Y-87521000D01*
X118726000Y-87521000D01*
G37*
G36*
X112684468Y-85803565D02*
G01*
X112723138Y-85815296D01*
X112758777Y-85834346D01*
X112790017Y-85859983D01*
X112815654Y-85891223D01*
X112834704Y-85926862D01*
X112846435Y-85965532D01*
X112851000Y-86011888D01*
X112851000Y-86663112D01*
X112846435Y-86709468D01*
X112834704Y-86748138D01*
X112815654Y-86783777D01*
X112790017Y-86815017D01*
X112758777Y-86840654D01*
X112723138Y-86859704D01*
X112684468Y-86871435D01*
X112638112Y-86876000D01*
X111561888Y-86876000D01*
X111515532Y-86871435D01*
X111476862Y-86859704D01*
X111441223Y-86840654D01*
X111409983Y-86815017D01*
X111384346Y-86783777D01*
X111365296Y-86748138D01*
X111353565Y-86709468D01*
X111349000Y-86663112D01*
X111349000Y-86011888D01*
X111353565Y-85965532D01*
X111365296Y-85926862D01*
X111384346Y-85891223D01*
X111409983Y-85859983D01*
X111441223Y-85834346D01*
X111476862Y-85815296D01*
X111515532Y-85803565D01*
X111561888Y-85799000D01*
X112638112Y-85799000D01*
X112684468Y-85803565D01*
X112684468Y-85803565D01*
G37*
G36*
X137601000Y-86001000D02*
G01*
X132499000Y-86001000D01*
X132499000Y-84399000D01*
X137601000Y-84399000D01*
X137601000Y-86001000D01*
X137601000Y-86001000D01*
G37*
G36*
X145784468Y-84628565D02*
G01*
X145823138Y-84640296D01*
X145858777Y-84659346D01*
X145890017Y-84684983D01*
X145915654Y-84716223D01*
X145934704Y-84751862D01*
X145946435Y-84790532D01*
X145951000Y-84836888D01*
X145951000Y-85488112D01*
X145946435Y-85534468D01*
X145934704Y-85573138D01*
X145915654Y-85608777D01*
X145890017Y-85640017D01*
X145858777Y-85665654D01*
X145823138Y-85684704D01*
X145784468Y-85696435D01*
X145738112Y-85701000D01*
X144661888Y-85701000D01*
X144615532Y-85696435D01*
X144576862Y-85684704D01*
X144541223Y-85665654D01*
X144509983Y-85640017D01*
X144484346Y-85608777D01*
X144465296Y-85573138D01*
X144453565Y-85534468D01*
X144449000Y-85488112D01*
X144449000Y-84836888D01*
X144453565Y-84790532D01*
X144465296Y-84751862D01*
X144484346Y-84716223D01*
X144509983Y-84684983D01*
X144541223Y-84659346D01*
X144576862Y-84640296D01*
X144615532Y-84628565D01*
X144661888Y-84624000D01*
X145738112Y-84624000D01*
X145784468Y-84628565D01*
X145784468Y-84628565D01*
G37*
G36*
X153569000Y-85210000D02*
G01*
X147167000Y-85210000D01*
X147167000Y-83358000D01*
X153569000Y-83358000D01*
X153569000Y-85210000D01*
X153569000Y-85210000D01*
G37*
G36*
X181401000Y-85101000D02*
G01*
X179599000Y-85101000D01*
X179599000Y-83299000D01*
X181401000Y-83299000D01*
X181401000Y-85101000D01*
X181401000Y-85101000D01*
G37*
G36*
X102310443Y-83285519D02*
G01*
X102376627Y-83292037D01*
X102546466Y-83343557D01*
X102702991Y-83427222D01*
X102738729Y-83456552D01*
X102840186Y-83539814D01*
X102923448Y-83641271D01*
X102952778Y-83677009D01*
X103036443Y-83833534D01*
X103087963Y-84003373D01*
X103105359Y-84180000D01*
X103087963Y-84356627D01*
X103036443Y-84526466D01*
X102952778Y-84682991D01*
X102951143Y-84684983D01*
X102840186Y-84820186D01*
X102765672Y-84881337D01*
X102702991Y-84932778D01*
X102546466Y-85016443D01*
X102376627Y-85067963D01*
X102310442Y-85074482D01*
X102244260Y-85081000D01*
X102155740Y-85081000D01*
X102089558Y-85074482D01*
X102023373Y-85067963D01*
X101853534Y-85016443D01*
X101697009Y-84932778D01*
X101634328Y-84881337D01*
X101559814Y-84820186D01*
X101448857Y-84684983D01*
X101447222Y-84682991D01*
X101363557Y-84526466D01*
X101312037Y-84356627D01*
X101294641Y-84180000D01*
X101312037Y-84003373D01*
X101363557Y-83833534D01*
X101447222Y-83677009D01*
X101476552Y-83641271D01*
X101559814Y-83539814D01*
X101661271Y-83456552D01*
X101697009Y-83427222D01*
X101853534Y-83343557D01*
X102023373Y-83292037D01*
X102089557Y-83285519D01*
X102155740Y-83279000D01*
X102244260Y-83279000D01*
X102310443Y-83285519D01*
X102310443Y-83285519D01*
G37*
G36*
X112684468Y-83928565D02*
G01*
X112723138Y-83940296D01*
X112758777Y-83959346D01*
X112790017Y-83984983D01*
X112815654Y-84016223D01*
X112834704Y-84051862D01*
X112846435Y-84090532D01*
X112851000Y-84136888D01*
X112851000Y-84788112D01*
X112846435Y-84834468D01*
X112834704Y-84873138D01*
X112815654Y-84908777D01*
X112790017Y-84940017D01*
X112758777Y-84965654D01*
X112723138Y-84984704D01*
X112684468Y-84996435D01*
X112638112Y-85001000D01*
X111561888Y-85001000D01*
X111515532Y-84996435D01*
X111476862Y-84984704D01*
X111441223Y-84965654D01*
X111409983Y-84940017D01*
X111384346Y-84908777D01*
X111365296Y-84873138D01*
X111353565Y-84834468D01*
X111349000Y-84788112D01*
X111349000Y-84136888D01*
X111353565Y-84090532D01*
X111365296Y-84051862D01*
X111384346Y-84016223D01*
X111409983Y-83984983D01*
X111441223Y-83959346D01*
X111476862Y-83940296D01*
X111515532Y-83928565D01*
X111561888Y-83924000D01*
X112638112Y-83924000D01*
X112684468Y-83928565D01*
X112684468Y-83928565D01*
G37*
M02*
