G04 #@! TF.GenerationSoftware,KiCad,Pcbnew,(5.1.4)-1*
G04 #@! TF.CreationDate,2019-10-11T16:00:27-04:00*
G04 #@! TF.ProjectId,CellMan,43656c6c-4d61-46e2-9e6b-696361645f70,0.1*
G04 #@! TF.SameCoordinates,Original*
G04 #@! TF.FileFunction,Copper,L1,Top*
G04 #@! TF.FilePolarity,Positive*
%FSLAX46Y46*%
G04 Gerber Fmt 4.6, Leading zero omitted, Abs format (unit mm)*
G04 Created by KiCad (PCBNEW (5.1.4)-1) date 2019-10-11 16:00:27*
%MOMM*%
%LPD*%
G04 APERTURE LIST*
%ADD10C,0.300000*%
%ADD11R,0.450000X1.750000*%
%ADD12C,0.100000*%
%ADD13C,1.150000*%
%ADD14R,1.500000X0.450000*%
%ADD15O,1.700000X1.700000*%
%ADD16R,1.700000X1.700000*%
%ADD17R,0.450000X1.500000*%
%ADD18R,0.450000X1.450000*%
%ADD19R,1.250000X0.760000*%
%ADD20C,0.400000*%
%ADD21C,1.730000*%
%ADD22C,9.000000*%
%ADD23R,0.550000X1.750000*%
%ADD24C,0.975000*%
%ADD25C,0.550000*%
%ADD26R,1.600000X1.600000*%
%ADD27O,1.600000X1.600000*%
%ADD28C,0.600000*%
%ADD29R,0.650000X1.060000*%
%ADD30C,0.800000*%
%ADD31C,0.250000*%
%ADD32C,1.500000*%
G04 APERTURE END LIST*
D10*
X180385714Y-120160714D02*
X180314285Y-120232142D01*
X180100000Y-120303571D01*
X179957142Y-120303571D01*
X179742857Y-120232142D01*
X179600000Y-120089285D01*
X179528571Y-119946428D01*
X179457142Y-119660714D01*
X179457142Y-119446428D01*
X179528571Y-119160714D01*
X179600000Y-119017857D01*
X179742857Y-118875000D01*
X179957142Y-118803571D01*
X180100000Y-118803571D01*
X180314285Y-118875000D01*
X180385714Y-118946428D01*
X181242857Y-120303571D02*
X181100000Y-120232142D01*
X181028571Y-120160714D01*
X180957142Y-120017857D01*
X180957142Y-119589285D01*
X181028571Y-119446428D01*
X181100000Y-119375000D01*
X181242857Y-119303571D01*
X181457142Y-119303571D01*
X181600000Y-119375000D01*
X181671428Y-119446428D01*
X181742857Y-119589285D01*
X181742857Y-120017857D01*
X181671428Y-120160714D01*
X181600000Y-120232142D01*
X181457142Y-120303571D01*
X181242857Y-120303571D01*
X182385714Y-119303571D02*
X182385714Y-120303571D01*
X182385714Y-119446428D02*
X182457142Y-119375000D01*
X182600000Y-119303571D01*
X182814285Y-119303571D01*
X182957142Y-119375000D01*
X183028571Y-119517857D01*
X183028571Y-120303571D01*
X183742857Y-119303571D02*
X183742857Y-120303571D01*
X183742857Y-119446428D02*
X183814285Y-119375000D01*
X183957142Y-119303571D01*
X184171428Y-119303571D01*
X184314285Y-119375000D01*
X184385714Y-119517857D01*
X184385714Y-120303571D01*
X185314285Y-120303571D02*
X185171428Y-120232142D01*
X185100000Y-120160714D01*
X185028571Y-120017857D01*
X185028571Y-119589285D01*
X185100000Y-119446428D01*
X185171428Y-119375000D01*
X185314285Y-119303571D01*
X185528571Y-119303571D01*
X185671428Y-119375000D01*
X185742857Y-119446428D01*
X185814285Y-119589285D01*
X185814285Y-120017857D01*
X185742857Y-120160714D01*
X185671428Y-120232142D01*
X185528571Y-120303571D01*
X185314285Y-120303571D01*
X186457142Y-120303571D02*
X186457142Y-119303571D01*
X186457142Y-119589285D02*
X186528571Y-119446428D01*
X186600000Y-119375000D01*
X186742857Y-119303571D01*
X186885714Y-119303571D01*
X177492857Y-121353571D02*
X177850000Y-122853571D01*
X178135714Y-121782142D01*
X178421428Y-122853571D01*
X178778571Y-121353571D01*
X179350000Y-122853571D02*
X179350000Y-121853571D01*
X179350000Y-121353571D02*
X179278571Y-121425000D01*
X179350000Y-121496428D01*
X179421428Y-121425000D01*
X179350000Y-121353571D01*
X179350000Y-121496428D01*
X180064285Y-121853571D02*
X180064285Y-122853571D01*
X180064285Y-121996428D02*
X180135714Y-121925000D01*
X180278571Y-121853571D01*
X180492857Y-121853571D01*
X180635714Y-121925000D01*
X180707142Y-122067857D01*
X180707142Y-122853571D01*
X181421428Y-122853571D02*
X181421428Y-121853571D01*
X181421428Y-121353571D02*
X181350000Y-121425000D01*
X181421428Y-121496428D01*
X181492857Y-121425000D01*
X181421428Y-121353571D01*
X181421428Y-121496428D01*
X182778571Y-122853571D02*
X182778571Y-122067857D01*
X182707142Y-121925000D01*
X182564285Y-121853571D01*
X182278571Y-121853571D01*
X182135714Y-121925000D01*
X182778571Y-122782142D02*
X182635714Y-122853571D01*
X182278571Y-122853571D01*
X182135714Y-122782142D01*
X182064285Y-122639285D01*
X182064285Y-122496428D01*
X182135714Y-122353571D01*
X182278571Y-122282142D01*
X182635714Y-122282142D01*
X182778571Y-122210714D01*
X183492857Y-122853571D02*
X183492857Y-121853571D01*
X183492857Y-122139285D02*
X183564285Y-121996428D01*
X183635714Y-121925000D01*
X183778571Y-121853571D01*
X183921428Y-121853571D01*
X185064285Y-122782142D02*
X184921428Y-122853571D01*
X184635714Y-122853571D01*
X184492857Y-122782142D01*
X184421428Y-122710714D01*
X184350000Y-122567857D01*
X184350000Y-122139285D01*
X184421428Y-121996428D01*
X184492857Y-121925000D01*
X184635714Y-121853571D01*
X184921428Y-121853571D01*
X185064285Y-121925000D01*
X185564285Y-121853571D02*
X186350000Y-121853571D01*
X185564285Y-122853571D01*
X186350000Y-122853571D01*
X186778571Y-121853571D02*
X187135714Y-122853571D01*
X187492857Y-121853571D02*
X187135714Y-122853571D01*
X186992857Y-123210714D01*
X186921428Y-123282142D01*
X186778571Y-123353571D01*
X188064285Y-122853571D02*
X188064285Y-121353571D01*
X188207142Y-122282142D02*
X188635714Y-122853571D01*
X188635714Y-121853571D02*
X188064285Y-122425000D01*
D11*
X147443000Y-84284000D03*
X148093000Y-84284000D03*
X148743000Y-84284000D03*
X149393000Y-84284000D03*
X150043000Y-84284000D03*
X150693000Y-84284000D03*
X151343000Y-84284000D03*
X151993000Y-84284000D03*
X152643000Y-84284000D03*
X153293000Y-84284000D03*
X153293000Y-91484000D03*
X152643000Y-91484000D03*
X151993000Y-91484000D03*
X151343000Y-91484000D03*
X150693000Y-91484000D03*
X150043000Y-91484000D03*
X149393000Y-91484000D03*
X148743000Y-91484000D03*
X148093000Y-91484000D03*
X147443000Y-91484000D03*
D12*
G36*
X121174505Y-116301204D02*
G01*
X121198773Y-116304804D01*
X121222572Y-116310765D01*
X121245671Y-116319030D01*
X121267850Y-116329520D01*
X121288893Y-116342132D01*
X121308599Y-116356747D01*
X121326777Y-116373223D01*
X121343253Y-116391401D01*
X121357868Y-116411107D01*
X121370480Y-116432150D01*
X121380970Y-116454329D01*
X121389235Y-116477428D01*
X121395196Y-116501227D01*
X121398796Y-116525495D01*
X121400000Y-116549999D01*
X121400000Y-117200001D01*
X121398796Y-117224505D01*
X121395196Y-117248773D01*
X121389235Y-117272572D01*
X121380970Y-117295671D01*
X121370480Y-117317850D01*
X121357868Y-117338893D01*
X121343253Y-117358599D01*
X121326777Y-117376777D01*
X121308599Y-117393253D01*
X121288893Y-117407868D01*
X121267850Y-117420480D01*
X121245671Y-117430970D01*
X121222572Y-117439235D01*
X121198773Y-117445196D01*
X121174505Y-117448796D01*
X121150001Y-117450000D01*
X120249999Y-117450000D01*
X120225495Y-117448796D01*
X120201227Y-117445196D01*
X120177428Y-117439235D01*
X120154329Y-117430970D01*
X120132150Y-117420480D01*
X120111107Y-117407868D01*
X120091401Y-117393253D01*
X120073223Y-117376777D01*
X120056747Y-117358599D01*
X120042132Y-117338893D01*
X120029520Y-117317850D01*
X120019030Y-117295671D01*
X120010765Y-117272572D01*
X120004804Y-117248773D01*
X120001204Y-117224505D01*
X120000000Y-117200001D01*
X120000000Y-116549999D01*
X120001204Y-116525495D01*
X120004804Y-116501227D01*
X120010765Y-116477428D01*
X120019030Y-116454329D01*
X120029520Y-116432150D01*
X120042132Y-116411107D01*
X120056747Y-116391401D01*
X120073223Y-116373223D01*
X120091401Y-116356747D01*
X120111107Y-116342132D01*
X120132150Y-116329520D01*
X120154329Y-116319030D01*
X120177428Y-116310765D01*
X120201227Y-116304804D01*
X120225495Y-116301204D01*
X120249999Y-116300000D01*
X121150001Y-116300000D01*
X121174505Y-116301204D01*
X121174505Y-116301204D01*
G37*
D13*
X120700000Y-116875000D03*
D12*
G36*
X121174505Y-118351204D02*
G01*
X121198773Y-118354804D01*
X121222572Y-118360765D01*
X121245671Y-118369030D01*
X121267850Y-118379520D01*
X121288893Y-118392132D01*
X121308599Y-118406747D01*
X121326777Y-118423223D01*
X121343253Y-118441401D01*
X121357868Y-118461107D01*
X121370480Y-118482150D01*
X121380970Y-118504329D01*
X121389235Y-118527428D01*
X121395196Y-118551227D01*
X121398796Y-118575495D01*
X121400000Y-118599999D01*
X121400000Y-119250001D01*
X121398796Y-119274505D01*
X121395196Y-119298773D01*
X121389235Y-119322572D01*
X121380970Y-119345671D01*
X121370480Y-119367850D01*
X121357868Y-119388893D01*
X121343253Y-119408599D01*
X121326777Y-119426777D01*
X121308599Y-119443253D01*
X121288893Y-119457868D01*
X121267850Y-119470480D01*
X121245671Y-119480970D01*
X121222572Y-119489235D01*
X121198773Y-119495196D01*
X121174505Y-119498796D01*
X121150001Y-119500000D01*
X120249999Y-119500000D01*
X120225495Y-119498796D01*
X120201227Y-119495196D01*
X120177428Y-119489235D01*
X120154329Y-119480970D01*
X120132150Y-119470480D01*
X120111107Y-119457868D01*
X120091401Y-119443253D01*
X120073223Y-119426777D01*
X120056747Y-119408599D01*
X120042132Y-119388893D01*
X120029520Y-119367850D01*
X120019030Y-119345671D01*
X120010765Y-119322572D01*
X120004804Y-119298773D01*
X120001204Y-119274505D01*
X120000000Y-119250001D01*
X120000000Y-118599999D01*
X120001204Y-118575495D01*
X120004804Y-118551227D01*
X120010765Y-118527428D01*
X120019030Y-118504329D01*
X120029520Y-118482150D01*
X120042132Y-118461107D01*
X120056747Y-118441401D01*
X120073223Y-118423223D01*
X120091401Y-118406747D01*
X120111107Y-118392132D01*
X120132150Y-118379520D01*
X120154329Y-118369030D01*
X120177428Y-118360765D01*
X120201227Y-118354804D01*
X120225495Y-118351204D01*
X120249999Y-118350000D01*
X121150001Y-118350000D01*
X121174505Y-118351204D01*
X121174505Y-118351204D01*
G37*
D13*
X120700000Y-118925000D03*
D14*
X123520000Y-117800000D03*
X126180000Y-117150000D03*
X126180000Y-118450000D03*
D15*
X102550000Y-120220000D03*
X102550000Y-122760000D03*
D16*
X102550000Y-125300000D03*
D15*
X154840000Y-121750000D03*
D16*
X152300000Y-121750000D03*
D17*
X132775000Y-91100000D03*
X133425000Y-91100000D03*
X134075000Y-91100000D03*
X134725000Y-91100000D03*
X135375000Y-91100000D03*
X136025000Y-91100000D03*
X136675000Y-91100000D03*
X137325000Y-91100000D03*
X137325000Y-85200000D03*
X136675000Y-85200000D03*
X136025000Y-85200000D03*
X135375000Y-85200000D03*
X134725000Y-85200000D03*
X134075000Y-85200000D03*
X133425000Y-85200000D03*
X132775000Y-85200000D03*
D18*
X148150000Y-109000000D03*
X147500000Y-109000000D03*
X146850000Y-109000000D03*
X146200000Y-109000000D03*
X145550000Y-109000000D03*
X144900000Y-109000000D03*
X144250000Y-109000000D03*
X144250000Y-103100000D03*
X144900000Y-103100000D03*
X145550000Y-103100000D03*
X146200000Y-103100000D03*
X146850000Y-103100000D03*
X147500000Y-103100000D03*
X148150000Y-103100000D03*
D17*
X161200000Y-103380000D03*
X160550000Y-100720000D03*
X161850000Y-100720000D03*
X119100000Y-89380000D03*
X118450000Y-86720000D03*
X119750000Y-86720000D03*
D19*
X119625000Y-100305000D03*
X125775000Y-96495000D03*
X119625000Y-99035000D03*
X125775000Y-97765000D03*
X119625000Y-97765000D03*
X125775000Y-99035000D03*
X119625000Y-96495000D03*
X125775000Y-100305000D03*
X119625000Y-111175000D03*
X125775000Y-104825000D03*
X119625000Y-109905000D03*
X125775000Y-106095000D03*
X119625000Y-108635000D03*
X125775000Y-107365000D03*
X119625000Y-107365000D03*
X125775000Y-108635000D03*
X119625000Y-106095000D03*
X125775000Y-109905000D03*
X119625000Y-104825000D03*
X125775000Y-111175000D03*
D12*
G36*
X169109802Y-93875482D02*
G01*
X169119509Y-93876921D01*
X169129028Y-93879306D01*
X169138268Y-93882612D01*
X169147140Y-93886808D01*
X169155557Y-93891853D01*
X169163439Y-93897699D01*
X169170711Y-93904289D01*
X169177301Y-93911561D01*
X169183147Y-93919443D01*
X169188192Y-93927860D01*
X169192388Y-93936732D01*
X169195694Y-93945972D01*
X169198079Y-93955491D01*
X169199518Y-93965198D01*
X169200000Y-93975000D01*
X169200000Y-94175000D01*
X169199518Y-94184802D01*
X169198079Y-94194509D01*
X169195694Y-94204028D01*
X169192388Y-94213268D01*
X169188192Y-94222140D01*
X169183147Y-94230557D01*
X169177301Y-94238439D01*
X169170711Y-94245711D01*
X169163439Y-94252301D01*
X169155557Y-94258147D01*
X169147140Y-94263192D01*
X169138268Y-94267388D01*
X169129028Y-94270694D01*
X169119509Y-94273079D01*
X169109802Y-94274518D01*
X169100000Y-94275000D01*
X167875000Y-94275000D01*
X167865198Y-94274518D01*
X167855491Y-94273079D01*
X167845972Y-94270694D01*
X167836732Y-94267388D01*
X167827860Y-94263192D01*
X167819443Y-94258147D01*
X167811561Y-94252301D01*
X167804289Y-94245711D01*
X167797699Y-94238439D01*
X167791853Y-94230557D01*
X167786808Y-94222140D01*
X167782612Y-94213268D01*
X167779306Y-94204028D01*
X167776921Y-94194509D01*
X167775482Y-94184802D01*
X167775000Y-94175000D01*
X167775000Y-93975000D01*
X167775482Y-93965198D01*
X167776921Y-93955491D01*
X167779306Y-93945972D01*
X167782612Y-93936732D01*
X167786808Y-93927860D01*
X167791853Y-93919443D01*
X167797699Y-93911561D01*
X167804289Y-93904289D01*
X167811561Y-93897699D01*
X167819443Y-93891853D01*
X167827860Y-93886808D01*
X167836732Y-93882612D01*
X167845972Y-93879306D01*
X167855491Y-93876921D01*
X167865198Y-93875482D01*
X167875000Y-93875000D01*
X169100000Y-93875000D01*
X169109802Y-93875482D01*
X169109802Y-93875482D01*
G37*
D20*
X168487500Y-94075000D03*
D12*
G36*
X169109802Y-93225482D02*
G01*
X169119509Y-93226921D01*
X169129028Y-93229306D01*
X169138268Y-93232612D01*
X169147140Y-93236808D01*
X169155557Y-93241853D01*
X169163439Y-93247699D01*
X169170711Y-93254289D01*
X169177301Y-93261561D01*
X169183147Y-93269443D01*
X169188192Y-93277860D01*
X169192388Y-93286732D01*
X169195694Y-93295972D01*
X169198079Y-93305491D01*
X169199518Y-93315198D01*
X169200000Y-93325000D01*
X169200000Y-93525000D01*
X169199518Y-93534802D01*
X169198079Y-93544509D01*
X169195694Y-93554028D01*
X169192388Y-93563268D01*
X169188192Y-93572140D01*
X169183147Y-93580557D01*
X169177301Y-93588439D01*
X169170711Y-93595711D01*
X169163439Y-93602301D01*
X169155557Y-93608147D01*
X169147140Y-93613192D01*
X169138268Y-93617388D01*
X169129028Y-93620694D01*
X169119509Y-93623079D01*
X169109802Y-93624518D01*
X169100000Y-93625000D01*
X167875000Y-93625000D01*
X167865198Y-93624518D01*
X167855491Y-93623079D01*
X167845972Y-93620694D01*
X167836732Y-93617388D01*
X167827860Y-93613192D01*
X167819443Y-93608147D01*
X167811561Y-93602301D01*
X167804289Y-93595711D01*
X167797699Y-93588439D01*
X167791853Y-93580557D01*
X167786808Y-93572140D01*
X167782612Y-93563268D01*
X167779306Y-93554028D01*
X167776921Y-93544509D01*
X167775482Y-93534802D01*
X167775000Y-93525000D01*
X167775000Y-93325000D01*
X167775482Y-93315198D01*
X167776921Y-93305491D01*
X167779306Y-93295972D01*
X167782612Y-93286732D01*
X167786808Y-93277860D01*
X167791853Y-93269443D01*
X167797699Y-93261561D01*
X167804289Y-93254289D01*
X167811561Y-93247699D01*
X167819443Y-93241853D01*
X167827860Y-93236808D01*
X167836732Y-93232612D01*
X167845972Y-93229306D01*
X167855491Y-93226921D01*
X167865198Y-93225482D01*
X167875000Y-93225000D01*
X169100000Y-93225000D01*
X169109802Y-93225482D01*
X169109802Y-93225482D01*
G37*
D20*
X168487500Y-93425000D03*
D12*
G36*
X169109802Y-92575482D02*
G01*
X169119509Y-92576921D01*
X169129028Y-92579306D01*
X169138268Y-92582612D01*
X169147140Y-92586808D01*
X169155557Y-92591853D01*
X169163439Y-92597699D01*
X169170711Y-92604289D01*
X169177301Y-92611561D01*
X169183147Y-92619443D01*
X169188192Y-92627860D01*
X169192388Y-92636732D01*
X169195694Y-92645972D01*
X169198079Y-92655491D01*
X169199518Y-92665198D01*
X169200000Y-92675000D01*
X169200000Y-92875000D01*
X169199518Y-92884802D01*
X169198079Y-92894509D01*
X169195694Y-92904028D01*
X169192388Y-92913268D01*
X169188192Y-92922140D01*
X169183147Y-92930557D01*
X169177301Y-92938439D01*
X169170711Y-92945711D01*
X169163439Y-92952301D01*
X169155557Y-92958147D01*
X169147140Y-92963192D01*
X169138268Y-92967388D01*
X169129028Y-92970694D01*
X169119509Y-92973079D01*
X169109802Y-92974518D01*
X169100000Y-92975000D01*
X167875000Y-92975000D01*
X167865198Y-92974518D01*
X167855491Y-92973079D01*
X167845972Y-92970694D01*
X167836732Y-92967388D01*
X167827860Y-92963192D01*
X167819443Y-92958147D01*
X167811561Y-92952301D01*
X167804289Y-92945711D01*
X167797699Y-92938439D01*
X167791853Y-92930557D01*
X167786808Y-92922140D01*
X167782612Y-92913268D01*
X167779306Y-92904028D01*
X167776921Y-92894509D01*
X167775482Y-92884802D01*
X167775000Y-92875000D01*
X167775000Y-92675000D01*
X167775482Y-92665198D01*
X167776921Y-92655491D01*
X167779306Y-92645972D01*
X167782612Y-92636732D01*
X167786808Y-92627860D01*
X167791853Y-92619443D01*
X167797699Y-92611561D01*
X167804289Y-92604289D01*
X167811561Y-92597699D01*
X167819443Y-92591853D01*
X167827860Y-92586808D01*
X167836732Y-92582612D01*
X167845972Y-92579306D01*
X167855491Y-92576921D01*
X167865198Y-92575482D01*
X167875000Y-92575000D01*
X169100000Y-92575000D01*
X169109802Y-92575482D01*
X169109802Y-92575482D01*
G37*
D20*
X168487500Y-92775000D03*
D12*
G36*
X169109802Y-91925482D02*
G01*
X169119509Y-91926921D01*
X169129028Y-91929306D01*
X169138268Y-91932612D01*
X169147140Y-91936808D01*
X169155557Y-91941853D01*
X169163439Y-91947699D01*
X169170711Y-91954289D01*
X169177301Y-91961561D01*
X169183147Y-91969443D01*
X169188192Y-91977860D01*
X169192388Y-91986732D01*
X169195694Y-91995972D01*
X169198079Y-92005491D01*
X169199518Y-92015198D01*
X169200000Y-92025000D01*
X169200000Y-92225000D01*
X169199518Y-92234802D01*
X169198079Y-92244509D01*
X169195694Y-92254028D01*
X169192388Y-92263268D01*
X169188192Y-92272140D01*
X169183147Y-92280557D01*
X169177301Y-92288439D01*
X169170711Y-92295711D01*
X169163439Y-92302301D01*
X169155557Y-92308147D01*
X169147140Y-92313192D01*
X169138268Y-92317388D01*
X169129028Y-92320694D01*
X169119509Y-92323079D01*
X169109802Y-92324518D01*
X169100000Y-92325000D01*
X167875000Y-92325000D01*
X167865198Y-92324518D01*
X167855491Y-92323079D01*
X167845972Y-92320694D01*
X167836732Y-92317388D01*
X167827860Y-92313192D01*
X167819443Y-92308147D01*
X167811561Y-92302301D01*
X167804289Y-92295711D01*
X167797699Y-92288439D01*
X167791853Y-92280557D01*
X167786808Y-92272140D01*
X167782612Y-92263268D01*
X167779306Y-92254028D01*
X167776921Y-92244509D01*
X167775482Y-92234802D01*
X167775000Y-92225000D01*
X167775000Y-92025000D01*
X167775482Y-92015198D01*
X167776921Y-92005491D01*
X167779306Y-91995972D01*
X167782612Y-91986732D01*
X167786808Y-91977860D01*
X167791853Y-91969443D01*
X167797699Y-91961561D01*
X167804289Y-91954289D01*
X167811561Y-91947699D01*
X167819443Y-91941853D01*
X167827860Y-91936808D01*
X167836732Y-91932612D01*
X167845972Y-91929306D01*
X167855491Y-91926921D01*
X167865198Y-91925482D01*
X167875000Y-91925000D01*
X169100000Y-91925000D01*
X169109802Y-91925482D01*
X169109802Y-91925482D01*
G37*
D20*
X168487500Y-92125000D03*
D12*
G36*
X173434802Y-91925482D02*
G01*
X173444509Y-91926921D01*
X173454028Y-91929306D01*
X173463268Y-91932612D01*
X173472140Y-91936808D01*
X173480557Y-91941853D01*
X173488439Y-91947699D01*
X173495711Y-91954289D01*
X173502301Y-91961561D01*
X173508147Y-91969443D01*
X173513192Y-91977860D01*
X173517388Y-91986732D01*
X173520694Y-91995972D01*
X173523079Y-92005491D01*
X173524518Y-92015198D01*
X173525000Y-92025000D01*
X173525000Y-92225000D01*
X173524518Y-92234802D01*
X173523079Y-92244509D01*
X173520694Y-92254028D01*
X173517388Y-92263268D01*
X173513192Y-92272140D01*
X173508147Y-92280557D01*
X173502301Y-92288439D01*
X173495711Y-92295711D01*
X173488439Y-92302301D01*
X173480557Y-92308147D01*
X173472140Y-92313192D01*
X173463268Y-92317388D01*
X173454028Y-92320694D01*
X173444509Y-92323079D01*
X173434802Y-92324518D01*
X173425000Y-92325000D01*
X172200000Y-92325000D01*
X172190198Y-92324518D01*
X172180491Y-92323079D01*
X172170972Y-92320694D01*
X172161732Y-92317388D01*
X172152860Y-92313192D01*
X172144443Y-92308147D01*
X172136561Y-92302301D01*
X172129289Y-92295711D01*
X172122699Y-92288439D01*
X172116853Y-92280557D01*
X172111808Y-92272140D01*
X172107612Y-92263268D01*
X172104306Y-92254028D01*
X172101921Y-92244509D01*
X172100482Y-92234802D01*
X172100000Y-92225000D01*
X172100000Y-92025000D01*
X172100482Y-92015198D01*
X172101921Y-92005491D01*
X172104306Y-91995972D01*
X172107612Y-91986732D01*
X172111808Y-91977860D01*
X172116853Y-91969443D01*
X172122699Y-91961561D01*
X172129289Y-91954289D01*
X172136561Y-91947699D01*
X172144443Y-91941853D01*
X172152860Y-91936808D01*
X172161732Y-91932612D01*
X172170972Y-91929306D01*
X172180491Y-91926921D01*
X172190198Y-91925482D01*
X172200000Y-91925000D01*
X173425000Y-91925000D01*
X173434802Y-91925482D01*
X173434802Y-91925482D01*
G37*
D20*
X172812500Y-92125000D03*
D12*
G36*
X173434802Y-92575482D02*
G01*
X173444509Y-92576921D01*
X173454028Y-92579306D01*
X173463268Y-92582612D01*
X173472140Y-92586808D01*
X173480557Y-92591853D01*
X173488439Y-92597699D01*
X173495711Y-92604289D01*
X173502301Y-92611561D01*
X173508147Y-92619443D01*
X173513192Y-92627860D01*
X173517388Y-92636732D01*
X173520694Y-92645972D01*
X173523079Y-92655491D01*
X173524518Y-92665198D01*
X173525000Y-92675000D01*
X173525000Y-92875000D01*
X173524518Y-92884802D01*
X173523079Y-92894509D01*
X173520694Y-92904028D01*
X173517388Y-92913268D01*
X173513192Y-92922140D01*
X173508147Y-92930557D01*
X173502301Y-92938439D01*
X173495711Y-92945711D01*
X173488439Y-92952301D01*
X173480557Y-92958147D01*
X173472140Y-92963192D01*
X173463268Y-92967388D01*
X173454028Y-92970694D01*
X173444509Y-92973079D01*
X173434802Y-92974518D01*
X173425000Y-92975000D01*
X172200000Y-92975000D01*
X172190198Y-92974518D01*
X172180491Y-92973079D01*
X172170972Y-92970694D01*
X172161732Y-92967388D01*
X172152860Y-92963192D01*
X172144443Y-92958147D01*
X172136561Y-92952301D01*
X172129289Y-92945711D01*
X172122699Y-92938439D01*
X172116853Y-92930557D01*
X172111808Y-92922140D01*
X172107612Y-92913268D01*
X172104306Y-92904028D01*
X172101921Y-92894509D01*
X172100482Y-92884802D01*
X172100000Y-92875000D01*
X172100000Y-92675000D01*
X172100482Y-92665198D01*
X172101921Y-92655491D01*
X172104306Y-92645972D01*
X172107612Y-92636732D01*
X172111808Y-92627860D01*
X172116853Y-92619443D01*
X172122699Y-92611561D01*
X172129289Y-92604289D01*
X172136561Y-92597699D01*
X172144443Y-92591853D01*
X172152860Y-92586808D01*
X172161732Y-92582612D01*
X172170972Y-92579306D01*
X172180491Y-92576921D01*
X172190198Y-92575482D01*
X172200000Y-92575000D01*
X173425000Y-92575000D01*
X173434802Y-92575482D01*
X173434802Y-92575482D01*
G37*
D20*
X172812500Y-92775000D03*
D12*
G36*
X173434802Y-93225482D02*
G01*
X173444509Y-93226921D01*
X173454028Y-93229306D01*
X173463268Y-93232612D01*
X173472140Y-93236808D01*
X173480557Y-93241853D01*
X173488439Y-93247699D01*
X173495711Y-93254289D01*
X173502301Y-93261561D01*
X173508147Y-93269443D01*
X173513192Y-93277860D01*
X173517388Y-93286732D01*
X173520694Y-93295972D01*
X173523079Y-93305491D01*
X173524518Y-93315198D01*
X173525000Y-93325000D01*
X173525000Y-93525000D01*
X173524518Y-93534802D01*
X173523079Y-93544509D01*
X173520694Y-93554028D01*
X173517388Y-93563268D01*
X173513192Y-93572140D01*
X173508147Y-93580557D01*
X173502301Y-93588439D01*
X173495711Y-93595711D01*
X173488439Y-93602301D01*
X173480557Y-93608147D01*
X173472140Y-93613192D01*
X173463268Y-93617388D01*
X173454028Y-93620694D01*
X173444509Y-93623079D01*
X173434802Y-93624518D01*
X173425000Y-93625000D01*
X172200000Y-93625000D01*
X172190198Y-93624518D01*
X172180491Y-93623079D01*
X172170972Y-93620694D01*
X172161732Y-93617388D01*
X172152860Y-93613192D01*
X172144443Y-93608147D01*
X172136561Y-93602301D01*
X172129289Y-93595711D01*
X172122699Y-93588439D01*
X172116853Y-93580557D01*
X172111808Y-93572140D01*
X172107612Y-93563268D01*
X172104306Y-93554028D01*
X172101921Y-93544509D01*
X172100482Y-93534802D01*
X172100000Y-93525000D01*
X172100000Y-93325000D01*
X172100482Y-93315198D01*
X172101921Y-93305491D01*
X172104306Y-93295972D01*
X172107612Y-93286732D01*
X172111808Y-93277860D01*
X172116853Y-93269443D01*
X172122699Y-93261561D01*
X172129289Y-93254289D01*
X172136561Y-93247699D01*
X172144443Y-93241853D01*
X172152860Y-93236808D01*
X172161732Y-93232612D01*
X172170972Y-93229306D01*
X172180491Y-93226921D01*
X172190198Y-93225482D01*
X172200000Y-93225000D01*
X173425000Y-93225000D01*
X173434802Y-93225482D01*
X173434802Y-93225482D01*
G37*
D20*
X172812500Y-93425000D03*
D12*
G36*
X173434802Y-93875482D02*
G01*
X173444509Y-93876921D01*
X173454028Y-93879306D01*
X173463268Y-93882612D01*
X173472140Y-93886808D01*
X173480557Y-93891853D01*
X173488439Y-93897699D01*
X173495711Y-93904289D01*
X173502301Y-93911561D01*
X173508147Y-93919443D01*
X173513192Y-93927860D01*
X173517388Y-93936732D01*
X173520694Y-93945972D01*
X173523079Y-93955491D01*
X173524518Y-93965198D01*
X173525000Y-93975000D01*
X173525000Y-94175000D01*
X173524518Y-94184802D01*
X173523079Y-94194509D01*
X173520694Y-94204028D01*
X173517388Y-94213268D01*
X173513192Y-94222140D01*
X173508147Y-94230557D01*
X173502301Y-94238439D01*
X173495711Y-94245711D01*
X173488439Y-94252301D01*
X173480557Y-94258147D01*
X173472140Y-94263192D01*
X173463268Y-94267388D01*
X173454028Y-94270694D01*
X173444509Y-94273079D01*
X173434802Y-94274518D01*
X173425000Y-94275000D01*
X172200000Y-94275000D01*
X172190198Y-94274518D01*
X172180491Y-94273079D01*
X172170972Y-94270694D01*
X172161732Y-94267388D01*
X172152860Y-94263192D01*
X172144443Y-94258147D01*
X172136561Y-94252301D01*
X172129289Y-94245711D01*
X172122699Y-94238439D01*
X172116853Y-94230557D01*
X172111808Y-94222140D01*
X172107612Y-94213268D01*
X172104306Y-94204028D01*
X172101921Y-94194509D01*
X172100482Y-94184802D01*
X172100000Y-94175000D01*
X172100000Y-93975000D01*
X172100482Y-93965198D01*
X172101921Y-93955491D01*
X172104306Y-93945972D01*
X172107612Y-93936732D01*
X172111808Y-93927860D01*
X172116853Y-93919443D01*
X172122699Y-93911561D01*
X172129289Y-93904289D01*
X172136561Y-93897699D01*
X172144443Y-93891853D01*
X172152860Y-93886808D01*
X172161732Y-93882612D01*
X172170972Y-93879306D01*
X172180491Y-93876921D01*
X172190198Y-93875482D01*
X172200000Y-93875000D01*
X173425000Y-93875000D01*
X173434802Y-93875482D01*
X173434802Y-93875482D01*
G37*
D20*
X172812500Y-94075000D03*
D12*
G36*
X171289504Y-92176204D02*
G01*
X171313773Y-92179804D01*
X171337571Y-92185765D01*
X171360671Y-92194030D01*
X171382849Y-92204520D01*
X171403893Y-92217133D01*
X171423598Y-92231747D01*
X171441777Y-92248223D01*
X171458253Y-92266402D01*
X171472867Y-92286107D01*
X171485480Y-92307151D01*
X171495970Y-92329329D01*
X171504235Y-92352429D01*
X171510196Y-92376227D01*
X171513796Y-92400496D01*
X171515000Y-92425000D01*
X171515000Y-93775000D01*
X171513796Y-93799504D01*
X171510196Y-93823773D01*
X171504235Y-93847571D01*
X171495970Y-93870671D01*
X171485480Y-93892849D01*
X171472867Y-93913893D01*
X171458253Y-93933598D01*
X171441777Y-93951777D01*
X171423598Y-93968253D01*
X171403893Y-93982867D01*
X171382849Y-93995480D01*
X171360671Y-94005970D01*
X171337571Y-94014235D01*
X171313773Y-94020196D01*
X171289504Y-94023796D01*
X171265000Y-94025000D01*
X170035000Y-94025000D01*
X170010496Y-94023796D01*
X169986227Y-94020196D01*
X169962429Y-94014235D01*
X169939329Y-94005970D01*
X169917151Y-93995480D01*
X169896107Y-93982867D01*
X169876402Y-93968253D01*
X169858223Y-93951777D01*
X169841747Y-93933598D01*
X169827133Y-93913893D01*
X169814520Y-93892849D01*
X169804030Y-93870671D01*
X169795765Y-93847571D01*
X169789804Y-93823773D01*
X169786204Y-93799504D01*
X169785000Y-93775000D01*
X169785000Y-92425000D01*
X169786204Y-92400496D01*
X169789804Y-92376227D01*
X169795765Y-92352429D01*
X169804030Y-92329329D01*
X169814520Y-92307151D01*
X169827133Y-92286107D01*
X169841747Y-92266402D01*
X169858223Y-92248223D01*
X169876402Y-92231747D01*
X169896107Y-92217133D01*
X169917151Y-92204520D01*
X169939329Y-92194030D01*
X169962429Y-92185765D01*
X169986227Y-92179804D01*
X170010496Y-92176204D01*
X170035000Y-92175000D01*
X171265000Y-92175000D01*
X171289504Y-92176204D01*
X171289504Y-92176204D01*
G37*
D21*
X170650000Y-93100000D03*
D22*
X170580000Y-99800000D03*
X170580000Y-109960000D03*
X102000000Y-109960000D03*
X112160000Y-109960000D03*
X180740000Y-99800000D03*
X180740000Y-109960000D03*
X102000000Y-99800000D03*
X112160000Y-99800000D03*
D23*
X172540000Y-124850000D03*
X171270000Y-124850000D03*
X170000000Y-124850000D03*
X168730000Y-124850000D03*
X168730000Y-117450000D03*
X170000000Y-117450000D03*
X171270000Y-117450000D03*
X172540000Y-117450000D03*
D15*
X180500000Y-91820000D03*
X180500000Y-89280000D03*
X180500000Y-86740000D03*
D16*
X180500000Y-84200000D03*
D15*
X157400000Y-109420000D03*
X157400000Y-106880000D03*
X157400000Y-104340000D03*
D16*
X157400000Y-101800000D03*
D12*
G36*
X106024505Y-86351204D02*
G01*
X106048773Y-86354804D01*
X106072572Y-86360765D01*
X106095671Y-86369030D01*
X106117850Y-86379520D01*
X106138893Y-86392132D01*
X106158599Y-86406747D01*
X106176777Y-86423223D01*
X106193253Y-86441401D01*
X106207868Y-86461107D01*
X106220480Y-86482150D01*
X106230970Y-86504329D01*
X106239235Y-86527428D01*
X106245196Y-86551227D01*
X106248796Y-86575495D01*
X106250000Y-86599999D01*
X106250000Y-87250001D01*
X106248796Y-87274505D01*
X106245196Y-87298773D01*
X106239235Y-87322572D01*
X106230970Y-87345671D01*
X106220480Y-87367850D01*
X106207868Y-87388893D01*
X106193253Y-87408599D01*
X106176777Y-87426777D01*
X106158599Y-87443253D01*
X106138893Y-87457868D01*
X106117850Y-87470480D01*
X106095671Y-87480970D01*
X106072572Y-87489235D01*
X106048773Y-87495196D01*
X106024505Y-87498796D01*
X106000001Y-87500000D01*
X105099999Y-87500000D01*
X105075495Y-87498796D01*
X105051227Y-87495196D01*
X105027428Y-87489235D01*
X105004329Y-87480970D01*
X104982150Y-87470480D01*
X104961107Y-87457868D01*
X104941401Y-87443253D01*
X104923223Y-87426777D01*
X104906747Y-87408599D01*
X104892132Y-87388893D01*
X104879520Y-87367850D01*
X104869030Y-87345671D01*
X104860765Y-87322572D01*
X104854804Y-87298773D01*
X104851204Y-87274505D01*
X104850000Y-87250001D01*
X104850000Y-86599999D01*
X104851204Y-86575495D01*
X104854804Y-86551227D01*
X104860765Y-86527428D01*
X104869030Y-86504329D01*
X104879520Y-86482150D01*
X104892132Y-86461107D01*
X104906747Y-86441401D01*
X104923223Y-86423223D01*
X104941401Y-86406747D01*
X104961107Y-86392132D01*
X104982150Y-86379520D01*
X105004329Y-86369030D01*
X105027428Y-86360765D01*
X105051227Y-86354804D01*
X105075495Y-86351204D01*
X105099999Y-86350000D01*
X106000001Y-86350000D01*
X106024505Y-86351204D01*
X106024505Y-86351204D01*
G37*
D13*
X105550000Y-86925000D03*
D12*
G36*
X106024505Y-88401204D02*
G01*
X106048773Y-88404804D01*
X106072572Y-88410765D01*
X106095671Y-88419030D01*
X106117850Y-88429520D01*
X106138893Y-88442132D01*
X106158599Y-88456747D01*
X106176777Y-88473223D01*
X106193253Y-88491401D01*
X106207868Y-88511107D01*
X106220480Y-88532150D01*
X106230970Y-88554329D01*
X106239235Y-88577428D01*
X106245196Y-88601227D01*
X106248796Y-88625495D01*
X106250000Y-88649999D01*
X106250000Y-89300001D01*
X106248796Y-89324505D01*
X106245196Y-89348773D01*
X106239235Y-89372572D01*
X106230970Y-89395671D01*
X106220480Y-89417850D01*
X106207868Y-89438893D01*
X106193253Y-89458599D01*
X106176777Y-89476777D01*
X106158599Y-89493253D01*
X106138893Y-89507868D01*
X106117850Y-89520480D01*
X106095671Y-89530970D01*
X106072572Y-89539235D01*
X106048773Y-89545196D01*
X106024505Y-89548796D01*
X106000001Y-89550000D01*
X105099999Y-89550000D01*
X105075495Y-89548796D01*
X105051227Y-89545196D01*
X105027428Y-89539235D01*
X105004329Y-89530970D01*
X104982150Y-89520480D01*
X104961107Y-89507868D01*
X104941401Y-89493253D01*
X104923223Y-89476777D01*
X104906747Y-89458599D01*
X104892132Y-89438893D01*
X104879520Y-89417850D01*
X104869030Y-89395671D01*
X104860765Y-89372572D01*
X104854804Y-89348773D01*
X104851204Y-89324505D01*
X104850000Y-89300001D01*
X104850000Y-88649999D01*
X104851204Y-88625495D01*
X104854804Y-88601227D01*
X104860765Y-88577428D01*
X104869030Y-88554329D01*
X104879520Y-88532150D01*
X104892132Y-88511107D01*
X104906747Y-88491401D01*
X104923223Y-88473223D01*
X104941401Y-88456747D01*
X104961107Y-88442132D01*
X104982150Y-88429520D01*
X105004329Y-88419030D01*
X105027428Y-88410765D01*
X105051227Y-88404804D01*
X105075495Y-88401204D01*
X105099999Y-88400000D01*
X106000001Y-88400000D01*
X106024505Y-88401204D01*
X106024505Y-88401204D01*
G37*
D13*
X105550000Y-88975000D03*
D12*
G36*
X177424505Y-88401204D02*
G01*
X177448773Y-88404804D01*
X177472572Y-88410765D01*
X177495671Y-88419030D01*
X177517850Y-88429520D01*
X177538893Y-88442132D01*
X177558599Y-88456747D01*
X177576777Y-88473223D01*
X177593253Y-88491401D01*
X177607868Y-88511107D01*
X177620480Y-88532150D01*
X177630970Y-88554329D01*
X177639235Y-88577428D01*
X177645196Y-88601227D01*
X177648796Y-88625495D01*
X177650000Y-88649999D01*
X177650000Y-89300001D01*
X177648796Y-89324505D01*
X177645196Y-89348773D01*
X177639235Y-89372572D01*
X177630970Y-89395671D01*
X177620480Y-89417850D01*
X177607868Y-89438893D01*
X177593253Y-89458599D01*
X177576777Y-89476777D01*
X177558599Y-89493253D01*
X177538893Y-89507868D01*
X177517850Y-89520480D01*
X177495671Y-89530970D01*
X177472572Y-89539235D01*
X177448773Y-89545196D01*
X177424505Y-89548796D01*
X177400001Y-89550000D01*
X176499999Y-89550000D01*
X176475495Y-89548796D01*
X176451227Y-89545196D01*
X176427428Y-89539235D01*
X176404329Y-89530970D01*
X176382150Y-89520480D01*
X176361107Y-89507868D01*
X176341401Y-89493253D01*
X176323223Y-89476777D01*
X176306747Y-89458599D01*
X176292132Y-89438893D01*
X176279520Y-89417850D01*
X176269030Y-89395671D01*
X176260765Y-89372572D01*
X176254804Y-89348773D01*
X176251204Y-89324505D01*
X176250000Y-89300001D01*
X176250000Y-88649999D01*
X176251204Y-88625495D01*
X176254804Y-88601227D01*
X176260765Y-88577428D01*
X176269030Y-88554329D01*
X176279520Y-88532150D01*
X176292132Y-88511107D01*
X176306747Y-88491401D01*
X176323223Y-88473223D01*
X176341401Y-88456747D01*
X176361107Y-88442132D01*
X176382150Y-88429520D01*
X176404329Y-88419030D01*
X176427428Y-88410765D01*
X176451227Y-88404804D01*
X176475495Y-88401204D01*
X176499999Y-88400000D01*
X177400001Y-88400000D01*
X177424505Y-88401204D01*
X177424505Y-88401204D01*
G37*
D13*
X176950000Y-88975000D03*
D12*
G36*
X177424505Y-86351204D02*
G01*
X177448773Y-86354804D01*
X177472572Y-86360765D01*
X177495671Y-86369030D01*
X177517850Y-86379520D01*
X177538893Y-86392132D01*
X177558599Y-86406747D01*
X177576777Y-86423223D01*
X177593253Y-86441401D01*
X177607868Y-86461107D01*
X177620480Y-86482150D01*
X177630970Y-86504329D01*
X177639235Y-86527428D01*
X177645196Y-86551227D01*
X177648796Y-86575495D01*
X177650000Y-86599999D01*
X177650000Y-87250001D01*
X177648796Y-87274505D01*
X177645196Y-87298773D01*
X177639235Y-87322572D01*
X177630970Y-87345671D01*
X177620480Y-87367850D01*
X177607868Y-87388893D01*
X177593253Y-87408599D01*
X177576777Y-87426777D01*
X177558599Y-87443253D01*
X177538893Y-87457868D01*
X177517850Y-87470480D01*
X177495671Y-87480970D01*
X177472572Y-87489235D01*
X177448773Y-87495196D01*
X177424505Y-87498796D01*
X177400001Y-87500000D01*
X176499999Y-87500000D01*
X176475495Y-87498796D01*
X176451227Y-87495196D01*
X176427428Y-87489235D01*
X176404329Y-87480970D01*
X176382150Y-87470480D01*
X176361107Y-87457868D01*
X176341401Y-87443253D01*
X176323223Y-87426777D01*
X176306747Y-87408599D01*
X176292132Y-87388893D01*
X176279520Y-87367850D01*
X176269030Y-87345671D01*
X176260765Y-87322572D01*
X176254804Y-87298773D01*
X176251204Y-87274505D01*
X176250000Y-87250001D01*
X176250000Y-86599999D01*
X176251204Y-86575495D01*
X176254804Y-86551227D01*
X176260765Y-86527428D01*
X176269030Y-86504329D01*
X176279520Y-86482150D01*
X176292132Y-86461107D01*
X176306747Y-86441401D01*
X176323223Y-86423223D01*
X176341401Y-86406747D01*
X176361107Y-86392132D01*
X176382150Y-86379520D01*
X176404329Y-86369030D01*
X176427428Y-86360765D01*
X176451227Y-86354804D01*
X176475495Y-86351204D01*
X176499999Y-86350000D01*
X177400001Y-86350000D01*
X177424505Y-86351204D01*
X177424505Y-86351204D01*
G37*
D13*
X176950000Y-86925000D03*
D12*
G36*
X160174505Y-91301204D02*
G01*
X160198773Y-91304804D01*
X160222572Y-91310765D01*
X160245671Y-91319030D01*
X160267850Y-91329520D01*
X160288893Y-91342132D01*
X160308599Y-91356747D01*
X160326777Y-91373223D01*
X160343253Y-91391401D01*
X160357868Y-91411107D01*
X160370480Y-91432150D01*
X160380970Y-91454329D01*
X160389235Y-91477428D01*
X160395196Y-91501227D01*
X160398796Y-91525495D01*
X160400000Y-91549999D01*
X160400000Y-92200001D01*
X160398796Y-92224505D01*
X160395196Y-92248773D01*
X160389235Y-92272572D01*
X160380970Y-92295671D01*
X160370480Y-92317850D01*
X160357868Y-92338893D01*
X160343253Y-92358599D01*
X160326777Y-92376777D01*
X160308599Y-92393253D01*
X160288893Y-92407868D01*
X160267850Y-92420480D01*
X160245671Y-92430970D01*
X160222572Y-92439235D01*
X160198773Y-92445196D01*
X160174505Y-92448796D01*
X160150001Y-92450000D01*
X159249999Y-92450000D01*
X159225495Y-92448796D01*
X159201227Y-92445196D01*
X159177428Y-92439235D01*
X159154329Y-92430970D01*
X159132150Y-92420480D01*
X159111107Y-92407868D01*
X159091401Y-92393253D01*
X159073223Y-92376777D01*
X159056747Y-92358599D01*
X159042132Y-92338893D01*
X159029520Y-92317850D01*
X159019030Y-92295671D01*
X159010765Y-92272572D01*
X159004804Y-92248773D01*
X159001204Y-92224505D01*
X159000000Y-92200001D01*
X159000000Y-91549999D01*
X159001204Y-91525495D01*
X159004804Y-91501227D01*
X159010765Y-91477428D01*
X159019030Y-91454329D01*
X159029520Y-91432150D01*
X159042132Y-91411107D01*
X159056747Y-91391401D01*
X159073223Y-91373223D01*
X159091401Y-91356747D01*
X159111107Y-91342132D01*
X159132150Y-91329520D01*
X159154329Y-91319030D01*
X159177428Y-91310765D01*
X159201227Y-91304804D01*
X159225495Y-91301204D01*
X159249999Y-91300000D01*
X160150001Y-91300000D01*
X160174505Y-91301204D01*
X160174505Y-91301204D01*
G37*
D13*
X159700000Y-91875000D03*
D12*
G36*
X160174505Y-93351204D02*
G01*
X160198773Y-93354804D01*
X160222572Y-93360765D01*
X160245671Y-93369030D01*
X160267850Y-93379520D01*
X160288893Y-93392132D01*
X160308599Y-93406747D01*
X160326777Y-93423223D01*
X160343253Y-93441401D01*
X160357868Y-93461107D01*
X160370480Y-93482150D01*
X160380970Y-93504329D01*
X160389235Y-93527428D01*
X160395196Y-93551227D01*
X160398796Y-93575495D01*
X160400000Y-93599999D01*
X160400000Y-94250001D01*
X160398796Y-94274505D01*
X160395196Y-94298773D01*
X160389235Y-94322572D01*
X160380970Y-94345671D01*
X160370480Y-94367850D01*
X160357868Y-94388893D01*
X160343253Y-94408599D01*
X160326777Y-94426777D01*
X160308599Y-94443253D01*
X160288893Y-94457868D01*
X160267850Y-94470480D01*
X160245671Y-94480970D01*
X160222572Y-94489235D01*
X160198773Y-94495196D01*
X160174505Y-94498796D01*
X160150001Y-94500000D01*
X159249999Y-94500000D01*
X159225495Y-94498796D01*
X159201227Y-94495196D01*
X159177428Y-94489235D01*
X159154329Y-94480970D01*
X159132150Y-94470480D01*
X159111107Y-94457868D01*
X159091401Y-94443253D01*
X159073223Y-94426777D01*
X159056747Y-94408599D01*
X159042132Y-94388893D01*
X159029520Y-94367850D01*
X159019030Y-94345671D01*
X159010765Y-94322572D01*
X159004804Y-94298773D01*
X159001204Y-94274505D01*
X159000000Y-94250001D01*
X159000000Y-93599999D01*
X159001204Y-93575495D01*
X159004804Y-93551227D01*
X159010765Y-93527428D01*
X159019030Y-93504329D01*
X159029520Y-93482150D01*
X159042132Y-93461107D01*
X159056747Y-93441401D01*
X159073223Y-93423223D01*
X159091401Y-93406747D01*
X159111107Y-93392132D01*
X159132150Y-93379520D01*
X159154329Y-93369030D01*
X159177428Y-93360765D01*
X159201227Y-93354804D01*
X159225495Y-93351204D01*
X159249999Y-93350000D01*
X160150001Y-93350000D01*
X160174505Y-93351204D01*
X160174505Y-93351204D01*
G37*
D13*
X159700000Y-93925000D03*
D12*
G36*
X130824505Y-91401204D02*
G01*
X130848773Y-91404804D01*
X130872572Y-91410765D01*
X130895671Y-91419030D01*
X130917850Y-91429520D01*
X130938893Y-91442132D01*
X130958599Y-91456747D01*
X130976777Y-91473223D01*
X130993253Y-91491401D01*
X131007868Y-91511107D01*
X131020480Y-91532150D01*
X131030970Y-91554329D01*
X131039235Y-91577428D01*
X131045196Y-91601227D01*
X131048796Y-91625495D01*
X131050000Y-91649999D01*
X131050000Y-92300001D01*
X131048796Y-92324505D01*
X131045196Y-92348773D01*
X131039235Y-92372572D01*
X131030970Y-92395671D01*
X131020480Y-92417850D01*
X131007868Y-92438893D01*
X130993253Y-92458599D01*
X130976777Y-92476777D01*
X130958599Y-92493253D01*
X130938893Y-92507868D01*
X130917850Y-92520480D01*
X130895671Y-92530970D01*
X130872572Y-92539235D01*
X130848773Y-92545196D01*
X130824505Y-92548796D01*
X130800001Y-92550000D01*
X129899999Y-92550000D01*
X129875495Y-92548796D01*
X129851227Y-92545196D01*
X129827428Y-92539235D01*
X129804329Y-92530970D01*
X129782150Y-92520480D01*
X129761107Y-92507868D01*
X129741401Y-92493253D01*
X129723223Y-92476777D01*
X129706747Y-92458599D01*
X129692132Y-92438893D01*
X129679520Y-92417850D01*
X129669030Y-92395671D01*
X129660765Y-92372572D01*
X129654804Y-92348773D01*
X129651204Y-92324505D01*
X129650000Y-92300001D01*
X129650000Y-91649999D01*
X129651204Y-91625495D01*
X129654804Y-91601227D01*
X129660765Y-91577428D01*
X129669030Y-91554329D01*
X129679520Y-91532150D01*
X129692132Y-91511107D01*
X129706747Y-91491401D01*
X129723223Y-91473223D01*
X129741401Y-91456747D01*
X129761107Y-91442132D01*
X129782150Y-91429520D01*
X129804329Y-91419030D01*
X129827428Y-91410765D01*
X129851227Y-91404804D01*
X129875495Y-91401204D01*
X129899999Y-91400000D01*
X130800001Y-91400000D01*
X130824505Y-91401204D01*
X130824505Y-91401204D01*
G37*
D13*
X130350000Y-91975000D03*
D12*
G36*
X130824505Y-93451204D02*
G01*
X130848773Y-93454804D01*
X130872572Y-93460765D01*
X130895671Y-93469030D01*
X130917850Y-93479520D01*
X130938893Y-93492132D01*
X130958599Y-93506747D01*
X130976777Y-93523223D01*
X130993253Y-93541401D01*
X131007868Y-93561107D01*
X131020480Y-93582150D01*
X131030970Y-93604329D01*
X131039235Y-93627428D01*
X131045196Y-93651227D01*
X131048796Y-93675495D01*
X131050000Y-93699999D01*
X131050000Y-94350001D01*
X131048796Y-94374505D01*
X131045196Y-94398773D01*
X131039235Y-94422572D01*
X131030970Y-94445671D01*
X131020480Y-94467850D01*
X131007868Y-94488893D01*
X130993253Y-94508599D01*
X130976777Y-94526777D01*
X130958599Y-94543253D01*
X130938893Y-94557868D01*
X130917850Y-94570480D01*
X130895671Y-94580970D01*
X130872572Y-94589235D01*
X130848773Y-94595196D01*
X130824505Y-94598796D01*
X130800001Y-94600000D01*
X129899999Y-94600000D01*
X129875495Y-94598796D01*
X129851227Y-94595196D01*
X129827428Y-94589235D01*
X129804329Y-94580970D01*
X129782150Y-94570480D01*
X129761107Y-94557868D01*
X129741401Y-94543253D01*
X129723223Y-94526777D01*
X129706747Y-94508599D01*
X129692132Y-94488893D01*
X129679520Y-94467850D01*
X129669030Y-94445671D01*
X129660765Y-94422572D01*
X129654804Y-94398773D01*
X129651204Y-94374505D01*
X129650000Y-94350001D01*
X129650000Y-93699999D01*
X129651204Y-93675495D01*
X129654804Y-93651227D01*
X129660765Y-93627428D01*
X129669030Y-93604329D01*
X129679520Y-93582150D01*
X129692132Y-93561107D01*
X129706747Y-93541401D01*
X129723223Y-93523223D01*
X129741401Y-93506747D01*
X129761107Y-93492132D01*
X129782150Y-93479520D01*
X129804329Y-93469030D01*
X129827428Y-93460765D01*
X129851227Y-93454804D01*
X129875495Y-93451204D01*
X129899999Y-93450000D01*
X130800001Y-93450000D01*
X130824505Y-93451204D01*
X130824505Y-93451204D01*
G37*
D13*
X130350000Y-94025000D03*
D12*
G36*
X164674505Y-116401204D02*
G01*
X164698773Y-116404804D01*
X164722572Y-116410765D01*
X164745671Y-116419030D01*
X164767850Y-116429520D01*
X164788893Y-116442132D01*
X164808599Y-116456747D01*
X164826777Y-116473223D01*
X164843253Y-116491401D01*
X164857868Y-116511107D01*
X164870480Y-116532150D01*
X164880970Y-116554329D01*
X164889235Y-116577428D01*
X164895196Y-116601227D01*
X164898796Y-116625495D01*
X164900000Y-116649999D01*
X164900000Y-117300001D01*
X164898796Y-117324505D01*
X164895196Y-117348773D01*
X164889235Y-117372572D01*
X164880970Y-117395671D01*
X164870480Y-117417850D01*
X164857868Y-117438893D01*
X164843253Y-117458599D01*
X164826777Y-117476777D01*
X164808599Y-117493253D01*
X164788893Y-117507868D01*
X164767850Y-117520480D01*
X164745671Y-117530970D01*
X164722572Y-117539235D01*
X164698773Y-117545196D01*
X164674505Y-117548796D01*
X164650001Y-117550000D01*
X163749999Y-117550000D01*
X163725495Y-117548796D01*
X163701227Y-117545196D01*
X163677428Y-117539235D01*
X163654329Y-117530970D01*
X163632150Y-117520480D01*
X163611107Y-117507868D01*
X163591401Y-117493253D01*
X163573223Y-117476777D01*
X163556747Y-117458599D01*
X163542132Y-117438893D01*
X163529520Y-117417850D01*
X163519030Y-117395671D01*
X163510765Y-117372572D01*
X163504804Y-117348773D01*
X163501204Y-117324505D01*
X163500000Y-117300001D01*
X163500000Y-116649999D01*
X163501204Y-116625495D01*
X163504804Y-116601227D01*
X163510765Y-116577428D01*
X163519030Y-116554329D01*
X163529520Y-116532150D01*
X163542132Y-116511107D01*
X163556747Y-116491401D01*
X163573223Y-116473223D01*
X163591401Y-116456747D01*
X163611107Y-116442132D01*
X163632150Y-116429520D01*
X163654329Y-116419030D01*
X163677428Y-116410765D01*
X163701227Y-116404804D01*
X163725495Y-116401204D01*
X163749999Y-116400000D01*
X164650001Y-116400000D01*
X164674505Y-116401204D01*
X164674505Y-116401204D01*
G37*
D13*
X164200000Y-116975000D03*
D12*
G36*
X164674505Y-118451204D02*
G01*
X164698773Y-118454804D01*
X164722572Y-118460765D01*
X164745671Y-118469030D01*
X164767850Y-118479520D01*
X164788893Y-118492132D01*
X164808599Y-118506747D01*
X164826777Y-118523223D01*
X164843253Y-118541401D01*
X164857868Y-118561107D01*
X164870480Y-118582150D01*
X164880970Y-118604329D01*
X164889235Y-118627428D01*
X164895196Y-118651227D01*
X164898796Y-118675495D01*
X164900000Y-118699999D01*
X164900000Y-119350001D01*
X164898796Y-119374505D01*
X164895196Y-119398773D01*
X164889235Y-119422572D01*
X164880970Y-119445671D01*
X164870480Y-119467850D01*
X164857868Y-119488893D01*
X164843253Y-119508599D01*
X164826777Y-119526777D01*
X164808599Y-119543253D01*
X164788893Y-119557868D01*
X164767850Y-119570480D01*
X164745671Y-119580970D01*
X164722572Y-119589235D01*
X164698773Y-119595196D01*
X164674505Y-119598796D01*
X164650001Y-119600000D01*
X163749999Y-119600000D01*
X163725495Y-119598796D01*
X163701227Y-119595196D01*
X163677428Y-119589235D01*
X163654329Y-119580970D01*
X163632150Y-119570480D01*
X163611107Y-119557868D01*
X163591401Y-119543253D01*
X163573223Y-119526777D01*
X163556747Y-119508599D01*
X163542132Y-119488893D01*
X163529520Y-119467850D01*
X163519030Y-119445671D01*
X163510765Y-119422572D01*
X163504804Y-119398773D01*
X163501204Y-119374505D01*
X163500000Y-119350001D01*
X163500000Y-118699999D01*
X163501204Y-118675495D01*
X163504804Y-118651227D01*
X163510765Y-118627428D01*
X163519030Y-118604329D01*
X163529520Y-118582150D01*
X163542132Y-118561107D01*
X163556747Y-118541401D01*
X163573223Y-118523223D01*
X163591401Y-118506747D01*
X163611107Y-118492132D01*
X163632150Y-118479520D01*
X163654329Y-118469030D01*
X163677428Y-118460765D01*
X163701227Y-118454804D01*
X163725495Y-118451204D01*
X163749999Y-118450000D01*
X164650001Y-118450000D01*
X164674505Y-118451204D01*
X164674505Y-118451204D01*
G37*
D13*
X164200000Y-119025000D03*
D12*
G36*
X163574505Y-114301204D02*
G01*
X163598773Y-114304804D01*
X163622572Y-114310765D01*
X163645671Y-114319030D01*
X163667850Y-114329520D01*
X163688893Y-114342132D01*
X163708599Y-114356747D01*
X163726777Y-114373223D01*
X163743253Y-114391401D01*
X163757868Y-114411107D01*
X163770480Y-114432150D01*
X163780970Y-114454329D01*
X163789235Y-114477428D01*
X163795196Y-114501227D01*
X163798796Y-114525495D01*
X163800000Y-114549999D01*
X163800000Y-115450001D01*
X163798796Y-115474505D01*
X163795196Y-115498773D01*
X163789235Y-115522572D01*
X163780970Y-115545671D01*
X163770480Y-115567850D01*
X163757868Y-115588893D01*
X163743253Y-115608599D01*
X163726777Y-115626777D01*
X163708599Y-115643253D01*
X163688893Y-115657868D01*
X163667850Y-115670480D01*
X163645671Y-115680970D01*
X163622572Y-115689235D01*
X163598773Y-115695196D01*
X163574505Y-115698796D01*
X163550001Y-115700000D01*
X162899999Y-115700000D01*
X162875495Y-115698796D01*
X162851227Y-115695196D01*
X162827428Y-115689235D01*
X162804329Y-115680970D01*
X162782150Y-115670480D01*
X162761107Y-115657868D01*
X162741401Y-115643253D01*
X162723223Y-115626777D01*
X162706747Y-115608599D01*
X162692132Y-115588893D01*
X162679520Y-115567850D01*
X162669030Y-115545671D01*
X162660765Y-115522572D01*
X162654804Y-115498773D01*
X162651204Y-115474505D01*
X162650000Y-115450001D01*
X162650000Y-114549999D01*
X162651204Y-114525495D01*
X162654804Y-114501227D01*
X162660765Y-114477428D01*
X162669030Y-114454329D01*
X162679520Y-114432150D01*
X162692132Y-114411107D01*
X162706747Y-114391401D01*
X162723223Y-114373223D01*
X162741401Y-114356747D01*
X162761107Y-114342132D01*
X162782150Y-114329520D01*
X162804329Y-114319030D01*
X162827428Y-114310765D01*
X162851227Y-114304804D01*
X162875495Y-114301204D01*
X162899999Y-114300000D01*
X163550001Y-114300000D01*
X163574505Y-114301204D01*
X163574505Y-114301204D01*
G37*
D13*
X163225000Y-115000000D03*
D12*
G36*
X161524505Y-114301204D02*
G01*
X161548773Y-114304804D01*
X161572572Y-114310765D01*
X161595671Y-114319030D01*
X161617850Y-114329520D01*
X161638893Y-114342132D01*
X161658599Y-114356747D01*
X161676777Y-114373223D01*
X161693253Y-114391401D01*
X161707868Y-114411107D01*
X161720480Y-114432150D01*
X161730970Y-114454329D01*
X161739235Y-114477428D01*
X161745196Y-114501227D01*
X161748796Y-114525495D01*
X161750000Y-114549999D01*
X161750000Y-115450001D01*
X161748796Y-115474505D01*
X161745196Y-115498773D01*
X161739235Y-115522572D01*
X161730970Y-115545671D01*
X161720480Y-115567850D01*
X161707868Y-115588893D01*
X161693253Y-115608599D01*
X161676777Y-115626777D01*
X161658599Y-115643253D01*
X161638893Y-115657868D01*
X161617850Y-115670480D01*
X161595671Y-115680970D01*
X161572572Y-115689235D01*
X161548773Y-115695196D01*
X161524505Y-115698796D01*
X161500001Y-115700000D01*
X160849999Y-115700000D01*
X160825495Y-115698796D01*
X160801227Y-115695196D01*
X160777428Y-115689235D01*
X160754329Y-115680970D01*
X160732150Y-115670480D01*
X160711107Y-115657868D01*
X160691401Y-115643253D01*
X160673223Y-115626777D01*
X160656747Y-115608599D01*
X160642132Y-115588893D01*
X160629520Y-115567850D01*
X160619030Y-115545671D01*
X160610765Y-115522572D01*
X160604804Y-115498773D01*
X160601204Y-115474505D01*
X160600000Y-115450001D01*
X160600000Y-114549999D01*
X160601204Y-114525495D01*
X160604804Y-114501227D01*
X160610765Y-114477428D01*
X160619030Y-114454329D01*
X160629520Y-114432150D01*
X160642132Y-114411107D01*
X160656747Y-114391401D01*
X160673223Y-114373223D01*
X160691401Y-114356747D01*
X160711107Y-114342132D01*
X160732150Y-114329520D01*
X160754329Y-114319030D01*
X160777428Y-114310765D01*
X160801227Y-114304804D01*
X160825495Y-114301204D01*
X160849999Y-114300000D01*
X161500001Y-114300000D01*
X161524505Y-114301204D01*
X161524505Y-114301204D01*
G37*
D13*
X161175000Y-115000000D03*
D12*
G36*
X145680142Y-84676174D02*
G01*
X145703803Y-84679684D01*
X145727007Y-84685496D01*
X145749529Y-84693554D01*
X145771153Y-84703782D01*
X145791670Y-84716079D01*
X145810883Y-84730329D01*
X145828607Y-84746393D01*
X145844671Y-84764117D01*
X145858921Y-84783330D01*
X145871218Y-84803847D01*
X145881446Y-84825471D01*
X145889504Y-84847993D01*
X145895316Y-84871197D01*
X145898826Y-84894858D01*
X145900000Y-84918750D01*
X145900000Y-85406250D01*
X145898826Y-85430142D01*
X145895316Y-85453803D01*
X145889504Y-85477007D01*
X145881446Y-85499529D01*
X145871218Y-85521153D01*
X145858921Y-85541670D01*
X145844671Y-85560883D01*
X145828607Y-85578607D01*
X145810883Y-85594671D01*
X145791670Y-85608921D01*
X145771153Y-85621218D01*
X145749529Y-85631446D01*
X145727007Y-85639504D01*
X145703803Y-85645316D01*
X145680142Y-85648826D01*
X145656250Y-85650000D01*
X144743750Y-85650000D01*
X144719858Y-85648826D01*
X144696197Y-85645316D01*
X144672993Y-85639504D01*
X144650471Y-85631446D01*
X144628847Y-85621218D01*
X144608330Y-85608921D01*
X144589117Y-85594671D01*
X144571393Y-85578607D01*
X144555329Y-85560883D01*
X144541079Y-85541670D01*
X144528782Y-85521153D01*
X144518554Y-85499529D01*
X144510496Y-85477007D01*
X144504684Y-85453803D01*
X144501174Y-85430142D01*
X144500000Y-85406250D01*
X144500000Y-84918750D01*
X144501174Y-84894858D01*
X144504684Y-84871197D01*
X144510496Y-84847993D01*
X144518554Y-84825471D01*
X144528782Y-84803847D01*
X144541079Y-84783330D01*
X144555329Y-84764117D01*
X144571393Y-84746393D01*
X144589117Y-84730329D01*
X144608330Y-84716079D01*
X144628847Y-84703782D01*
X144650471Y-84693554D01*
X144672993Y-84685496D01*
X144696197Y-84679684D01*
X144719858Y-84676174D01*
X144743750Y-84675000D01*
X145656250Y-84675000D01*
X145680142Y-84676174D01*
X145680142Y-84676174D01*
G37*
D24*
X145200000Y-85162500D03*
D12*
G36*
X145680142Y-86551174D02*
G01*
X145703803Y-86554684D01*
X145727007Y-86560496D01*
X145749529Y-86568554D01*
X145771153Y-86578782D01*
X145791670Y-86591079D01*
X145810883Y-86605329D01*
X145828607Y-86621393D01*
X145844671Y-86639117D01*
X145858921Y-86658330D01*
X145871218Y-86678847D01*
X145881446Y-86700471D01*
X145889504Y-86722993D01*
X145895316Y-86746197D01*
X145898826Y-86769858D01*
X145900000Y-86793750D01*
X145900000Y-87281250D01*
X145898826Y-87305142D01*
X145895316Y-87328803D01*
X145889504Y-87352007D01*
X145881446Y-87374529D01*
X145871218Y-87396153D01*
X145858921Y-87416670D01*
X145844671Y-87435883D01*
X145828607Y-87453607D01*
X145810883Y-87469671D01*
X145791670Y-87483921D01*
X145771153Y-87496218D01*
X145749529Y-87506446D01*
X145727007Y-87514504D01*
X145703803Y-87520316D01*
X145680142Y-87523826D01*
X145656250Y-87525000D01*
X144743750Y-87525000D01*
X144719858Y-87523826D01*
X144696197Y-87520316D01*
X144672993Y-87514504D01*
X144650471Y-87506446D01*
X144628847Y-87496218D01*
X144608330Y-87483921D01*
X144589117Y-87469671D01*
X144571393Y-87453607D01*
X144555329Y-87435883D01*
X144541079Y-87416670D01*
X144528782Y-87396153D01*
X144518554Y-87374529D01*
X144510496Y-87352007D01*
X144504684Y-87328803D01*
X144501174Y-87305142D01*
X144500000Y-87281250D01*
X144500000Y-86793750D01*
X144501174Y-86769858D01*
X144504684Y-86746197D01*
X144510496Y-86722993D01*
X144518554Y-86700471D01*
X144528782Y-86678847D01*
X144541079Y-86658330D01*
X144555329Y-86639117D01*
X144571393Y-86621393D01*
X144589117Y-86605329D01*
X144608330Y-86591079D01*
X144628847Y-86578782D01*
X144650471Y-86568554D01*
X144672993Y-86560496D01*
X144696197Y-86554684D01*
X144719858Y-86551174D01*
X144743750Y-86550000D01*
X145656250Y-86550000D01*
X145680142Y-86551174D01*
X145680142Y-86551174D01*
G37*
D24*
X145200000Y-87037500D03*
D12*
G36*
X112580142Y-83976174D02*
G01*
X112603803Y-83979684D01*
X112627007Y-83985496D01*
X112649529Y-83993554D01*
X112671153Y-84003782D01*
X112691670Y-84016079D01*
X112710883Y-84030329D01*
X112728607Y-84046393D01*
X112744671Y-84064117D01*
X112758921Y-84083330D01*
X112771218Y-84103847D01*
X112781446Y-84125471D01*
X112789504Y-84147993D01*
X112795316Y-84171197D01*
X112798826Y-84194858D01*
X112800000Y-84218750D01*
X112800000Y-84706250D01*
X112798826Y-84730142D01*
X112795316Y-84753803D01*
X112789504Y-84777007D01*
X112781446Y-84799529D01*
X112771218Y-84821153D01*
X112758921Y-84841670D01*
X112744671Y-84860883D01*
X112728607Y-84878607D01*
X112710883Y-84894671D01*
X112691670Y-84908921D01*
X112671153Y-84921218D01*
X112649529Y-84931446D01*
X112627007Y-84939504D01*
X112603803Y-84945316D01*
X112580142Y-84948826D01*
X112556250Y-84950000D01*
X111643750Y-84950000D01*
X111619858Y-84948826D01*
X111596197Y-84945316D01*
X111572993Y-84939504D01*
X111550471Y-84931446D01*
X111528847Y-84921218D01*
X111508330Y-84908921D01*
X111489117Y-84894671D01*
X111471393Y-84878607D01*
X111455329Y-84860883D01*
X111441079Y-84841670D01*
X111428782Y-84821153D01*
X111418554Y-84799529D01*
X111410496Y-84777007D01*
X111404684Y-84753803D01*
X111401174Y-84730142D01*
X111400000Y-84706250D01*
X111400000Y-84218750D01*
X111401174Y-84194858D01*
X111404684Y-84171197D01*
X111410496Y-84147993D01*
X111418554Y-84125471D01*
X111428782Y-84103847D01*
X111441079Y-84083330D01*
X111455329Y-84064117D01*
X111471393Y-84046393D01*
X111489117Y-84030329D01*
X111508330Y-84016079D01*
X111528847Y-84003782D01*
X111550471Y-83993554D01*
X111572993Y-83985496D01*
X111596197Y-83979684D01*
X111619858Y-83976174D01*
X111643750Y-83975000D01*
X112556250Y-83975000D01*
X112580142Y-83976174D01*
X112580142Y-83976174D01*
G37*
D24*
X112100000Y-84462500D03*
D12*
G36*
X112580142Y-85851174D02*
G01*
X112603803Y-85854684D01*
X112627007Y-85860496D01*
X112649529Y-85868554D01*
X112671153Y-85878782D01*
X112691670Y-85891079D01*
X112710883Y-85905329D01*
X112728607Y-85921393D01*
X112744671Y-85939117D01*
X112758921Y-85958330D01*
X112771218Y-85978847D01*
X112781446Y-86000471D01*
X112789504Y-86022993D01*
X112795316Y-86046197D01*
X112798826Y-86069858D01*
X112800000Y-86093750D01*
X112800000Y-86581250D01*
X112798826Y-86605142D01*
X112795316Y-86628803D01*
X112789504Y-86652007D01*
X112781446Y-86674529D01*
X112771218Y-86696153D01*
X112758921Y-86716670D01*
X112744671Y-86735883D01*
X112728607Y-86753607D01*
X112710883Y-86769671D01*
X112691670Y-86783921D01*
X112671153Y-86796218D01*
X112649529Y-86806446D01*
X112627007Y-86814504D01*
X112603803Y-86820316D01*
X112580142Y-86823826D01*
X112556250Y-86825000D01*
X111643750Y-86825000D01*
X111619858Y-86823826D01*
X111596197Y-86820316D01*
X111572993Y-86814504D01*
X111550471Y-86806446D01*
X111528847Y-86796218D01*
X111508330Y-86783921D01*
X111489117Y-86769671D01*
X111471393Y-86753607D01*
X111455329Y-86735883D01*
X111441079Y-86716670D01*
X111428782Y-86696153D01*
X111418554Y-86674529D01*
X111410496Y-86652007D01*
X111404684Y-86628803D01*
X111401174Y-86605142D01*
X111400000Y-86581250D01*
X111400000Y-86093750D01*
X111401174Y-86069858D01*
X111404684Y-86046197D01*
X111410496Y-86022993D01*
X111418554Y-86000471D01*
X111428782Y-85978847D01*
X111441079Y-85958330D01*
X111455329Y-85939117D01*
X111471393Y-85921393D01*
X111489117Y-85905329D01*
X111508330Y-85891079D01*
X111528847Y-85878782D01*
X111550471Y-85868554D01*
X111572993Y-85860496D01*
X111596197Y-85854684D01*
X111619858Y-85851174D01*
X111643750Y-85850000D01*
X112556250Y-85850000D01*
X112580142Y-85851174D01*
X112580142Y-85851174D01*
G37*
D24*
X112100000Y-86337500D03*
D12*
G36*
X152280142Y-112646174D02*
G01*
X152303803Y-112649684D01*
X152327007Y-112655496D01*
X152349529Y-112663554D01*
X152371153Y-112673782D01*
X152391670Y-112686079D01*
X152410883Y-112700329D01*
X152428607Y-112716393D01*
X152444671Y-112734117D01*
X152458921Y-112753330D01*
X152471218Y-112773847D01*
X152481446Y-112795471D01*
X152489504Y-112817993D01*
X152495316Y-112841197D01*
X152498826Y-112864858D01*
X152500000Y-112888750D01*
X152500000Y-113376250D01*
X152498826Y-113400142D01*
X152495316Y-113423803D01*
X152489504Y-113447007D01*
X152481446Y-113469529D01*
X152471218Y-113491153D01*
X152458921Y-113511670D01*
X152444671Y-113530883D01*
X152428607Y-113548607D01*
X152410883Y-113564671D01*
X152391670Y-113578921D01*
X152371153Y-113591218D01*
X152349529Y-113601446D01*
X152327007Y-113609504D01*
X152303803Y-113615316D01*
X152280142Y-113618826D01*
X152256250Y-113620000D01*
X151343750Y-113620000D01*
X151319858Y-113618826D01*
X151296197Y-113615316D01*
X151272993Y-113609504D01*
X151250471Y-113601446D01*
X151228847Y-113591218D01*
X151208330Y-113578921D01*
X151189117Y-113564671D01*
X151171393Y-113548607D01*
X151155329Y-113530883D01*
X151141079Y-113511670D01*
X151128782Y-113491153D01*
X151118554Y-113469529D01*
X151110496Y-113447007D01*
X151104684Y-113423803D01*
X151101174Y-113400142D01*
X151100000Y-113376250D01*
X151100000Y-112888750D01*
X151101174Y-112864858D01*
X151104684Y-112841197D01*
X151110496Y-112817993D01*
X151118554Y-112795471D01*
X151128782Y-112773847D01*
X151141079Y-112753330D01*
X151155329Y-112734117D01*
X151171393Y-112716393D01*
X151189117Y-112700329D01*
X151208330Y-112686079D01*
X151228847Y-112673782D01*
X151250471Y-112663554D01*
X151272993Y-112655496D01*
X151296197Y-112649684D01*
X151319858Y-112646174D01*
X151343750Y-112645000D01*
X152256250Y-112645000D01*
X152280142Y-112646174D01*
X152280142Y-112646174D01*
G37*
D24*
X151800000Y-113132500D03*
D12*
G36*
X152280142Y-114521174D02*
G01*
X152303803Y-114524684D01*
X152327007Y-114530496D01*
X152349529Y-114538554D01*
X152371153Y-114548782D01*
X152391670Y-114561079D01*
X152410883Y-114575329D01*
X152428607Y-114591393D01*
X152444671Y-114609117D01*
X152458921Y-114628330D01*
X152471218Y-114648847D01*
X152481446Y-114670471D01*
X152489504Y-114692993D01*
X152495316Y-114716197D01*
X152498826Y-114739858D01*
X152500000Y-114763750D01*
X152500000Y-115251250D01*
X152498826Y-115275142D01*
X152495316Y-115298803D01*
X152489504Y-115322007D01*
X152481446Y-115344529D01*
X152471218Y-115366153D01*
X152458921Y-115386670D01*
X152444671Y-115405883D01*
X152428607Y-115423607D01*
X152410883Y-115439671D01*
X152391670Y-115453921D01*
X152371153Y-115466218D01*
X152349529Y-115476446D01*
X152327007Y-115484504D01*
X152303803Y-115490316D01*
X152280142Y-115493826D01*
X152256250Y-115495000D01*
X151343750Y-115495000D01*
X151319858Y-115493826D01*
X151296197Y-115490316D01*
X151272993Y-115484504D01*
X151250471Y-115476446D01*
X151228847Y-115466218D01*
X151208330Y-115453921D01*
X151189117Y-115439671D01*
X151171393Y-115423607D01*
X151155329Y-115405883D01*
X151141079Y-115386670D01*
X151128782Y-115366153D01*
X151118554Y-115344529D01*
X151110496Y-115322007D01*
X151104684Y-115298803D01*
X151101174Y-115275142D01*
X151100000Y-115251250D01*
X151100000Y-114763750D01*
X151101174Y-114739858D01*
X151104684Y-114716197D01*
X151110496Y-114692993D01*
X151118554Y-114670471D01*
X151128782Y-114648847D01*
X151141079Y-114628330D01*
X151155329Y-114609117D01*
X151171393Y-114591393D01*
X151189117Y-114575329D01*
X151208330Y-114561079D01*
X151228847Y-114548782D01*
X151250471Y-114538554D01*
X151272993Y-114530496D01*
X151296197Y-114524684D01*
X151319858Y-114521174D01*
X151343750Y-114520000D01*
X152256250Y-114520000D01*
X152280142Y-114521174D01*
X152280142Y-114521174D01*
G37*
D24*
X151800000Y-115007500D03*
D12*
G36*
X108725142Y-117789174D02*
G01*
X108748803Y-117792684D01*
X108772007Y-117798496D01*
X108794529Y-117806554D01*
X108816153Y-117816782D01*
X108836670Y-117829079D01*
X108855883Y-117843329D01*
X108873607Y-117859393D01*
X108889671Y-117877117D01*
X108903921Y-117896330D01*
X108916218Y-117916847D01*
X108926446Y-117938471D01*
X108934504Y-117960993D01*
X108940316Y-117984197D01*
X108943826Y-118007858D01*
X108945000Y-118031750D01*
X108945000Y-118944250D01*
X108943826Y-118968142D01*
X108940316Y-118991803D01*
X108934504Y-119015007D01*
X108926446Y-119037529D01*
X108916218Y-119059153D01*
X108903921Y-119079670D01*
X108889671Y-119098883D01*
X108873607Y-119116607D01*
X108855883Y-119132671D01*
X108836670Y-119146921D01*
X108816153Y-119159218D01*
X108794529Y-119169446D01*
X108772007Y-119177504D01*
X108748803Y-119183316D01*
X108725142Y-119186826D01*
X108701250Y-119188000D01*
X108213750Y-119188000D01*
X108189858Y-119186826D01*
X108166197Y-119183316D01*
X108142993Y-119177504D01*
X108120471Y-119169446D01*
X108098847Y-119159218D01*
X108078330Y-119146921D01*
X108059117Y-119132671D01*
X108041393Y-119116607D01*
X108025329Y-119098883D01*
X108011079Y-119079670D01*
X107998782Y-119059153D01*
X107988554Y-119037529D01*
X107980496Y-119015007D01*
X107974684Y-118991803D01*
X107971174Y-118968142D01*
X107970000Y-118944250D01*
X107970000Y-118031750D01*
X107971174Y-118007858D01*
X107974684Y-117984197D01*
X107980496Y-117960993D01*
X107988554Y-117938471D01*
X107998782Y-117916847D01*
X108011079Y-117896330D01*
X108025329Y-117877117D01*
X108041393Y-117859393D01*
X108059117Y-117843329D01*
X108078330Y-117829079D01*
X108098847Y-117816782D01*
X108120471Y-117806554D01*
X108142993Y-117798496D01*
X108166197Y-117792684D01*
X108189858Y-117789174D01*
X108213750Y-117788000D01*
X108701250Y-117788000D01*
X108725142Y-117789174D01*
X108725142Y-117789174D01*
G37*
D24*
X108457500Y-118488000D03*
D12*
G36*
X106850142Y-117789174D02*
G01*
X106873803Y-117792684D01*
X106897007Y-117798496D01*
X106919529Y-117806554D01*
X106941153Y-117816782D01*
X106961670Y-117829079D01*
X106980883Y-117843329D01*
X106998607Y-117859393D01*
X107014671Y-117877117D01*
X107028921Y-117896330D01*
X107041218Y-117916847D01*
X107051446Y-117938471D01*
X107059504Y-117960993D01*
X107065316Y-117984197D01*
X107068826Y-118007858D01*
X107070000Y-118031750D01*
X107070000Y-118944250D01*
X107068826Y-118968142D01*
X107065316Y-118991803D01*
X107059504Y-119015007D01*
X107051446Y-119037529D01*
X107041218Y-119059153D01*
X107028921Y-119079670D01*
X107014671Y-119098883D01*
X106998607Y-119116607D01*
X106980883Y-119132671D01*
X106961670Y-119146921D01*
X106941153Y-119159218D01*
X106919529Y-119169446D01*
X106897007Y-119177504D01*
X106873803Y-119183316D01*
X106850142Y-119186826D01*
X106826250Y-119188000D01*
X106338750Y-119188000D01*
X106314858Y-119186826D01*
X106291197Y-119183316D01*
X106267993Y-119177504D01*
X106245471Y-119169446D01*
X106223847Y-119159218D01*
X106203330Y-119146921D01*
X106184117Y-119132671D01*
X106166393Y-119116607D01*
X106150329Y-119098883D01*
X106136079Y-119079670D01*
X106123782Y-119059153D01*
X106113554Y-119037529D01*
X106105496Y-119015007D01*
X106099684Y-118991803D01*
X106096174Y-118968142D01*
X106095000Y-118944250D01*
X106095000Y-118031750D01*
X106096174Y-118007858D01*
X106099684Y-117984197D01*
X106105496Y-117960993D01*
X106113554Y-117938471D01*
X106123782Y-117916847D01*
X106136079Y-117896330D01*
X106150329Y-117877117D01*
X106166393Y-117859393D01*
X106184117Y-117843329D01*
X106203330Y-117829079D01*
X106223847Y-117816782D01*
X106245471Y-117806554D01*
X106267993Y-117798496D01*
X106291197Y-117792684D01*
X106314858Y-117789174D01*
X106338750Y-117788000D01*
X106826250Y-117788000D01*
X106850142Y-117789174D01*
X106850142Y-117789174D01*
G37*
D24*
X106582500Y-118488000D03*
D12*
G36*
X163890977Y-105175662D02*
G01*
X163904325Y-105177642D01*
X163917414Y-105180921D01*
X163930119Y-105185467D01*
X163942317Y-105191236D01*
X163953891Y-105198173D01*
X163964729Y-105206211D01*
X163974727Y-105215273D01*
X163983789Y-105225271D01*
X163991827Y-105236109D01*
X163998764Y-105247683D01*
X164004533Y-105259881D01*
X164009079Y-105272586D01*
X164012358Y-105285675D01*
X164014338Y-105299023D01*
X164015000Y-105312500D01*
X164015000Y-106487500D01*
X164014338Y-106500977D01*
X164012358Y-106514325D01*
X164009079Y-106527414D01*
X164004533Y-106540119D01*
X163998764Y-106552317D01*
X163991827Y-106563891D01*
X163983789Y-106574729D01*
X163974727Y-106584727D01*
X163964729Y-106593789D01*
X163953891Y-106601827D01*
X163942317Y-106608764D01*
X163930119Y-106614533D01*
X163917414Y-106619079D01*
X163904325Y-106622358D01*
X163890977Y-106624338D01*
X163877500Y-106625000D01*
X163602500Y-106625000D01*
X163589023Y-106624338D01*
X163575675Y-106622358D01*
X163562586Y-106619079D01*
X163549881Y-106614533D01*
X163537683Y-106608764D01*
X163526109Y-106601827D01*
X163515271Y-106593789D01*
X163505273Y-106584727D01*
X163496211Y-106574729D01*
X163488173Y-106563891D01*
X163481236Y-106552317D01*
X163475467Y-106540119D01*
X163470921Y-106527414D01*
X163467642Y-106514325D01*
X163465662Y-106500977D01*
X163465000Y-106487500D01*
X163465000Y-105312500D01*
X163465662Y-105299023D01*
X163467642Y-105285675D01*
X163470921Y-105272586D01*
X163475467Y-105259881D01*
X163481236Y-105247683D01*
X163488173Y-105236109D01*
X163496211Y-105225271D01*
X163505273Y-105215273D01*
X163515271Y-105206211D01*
X163526109Y-105198173D01*
X163537683Y-105191236D01*
X163549881Y-105185467D01*
X163562586Y-105180921D01*
X163575675Y-105177642D01*
X163589023Y-105175662D01*
X163602500Y-105175000D01*
X163877500Y-105175000D01*
X163890977Y-105175662D01*
X163890977Y-105175662D01*
G37*
D25*
X163740000Y-105900000D03*
D12*
G36*
X161350977Y-105175662D02*
G01*
X161364325Y-105177642D01*
X161377414Y-105180921D01*
X161390119Y-105185467D01*
X161402317Y-105191236D01*
X161413891Y-105198173D01*
X161424729Y-105206211D01*
X161434727Y-105215273D01*
X161443789Y-105225271D01*
X161451827Y-105236109D01*
X161458764Y-105247683D01*
X161464533Y-105259881D01*
X161469079Y-105272586D01*
X161472358Y-105285675D01*
X161474338Y-105299023D01*
X161475000Y-105312500D01*
X161475000Y-106487500D01*
X161474338Y-106500977D01*
X161472358Y-106514325D01*
X161469079Y-106527414D01*
X161464533Y-106540119D01*
X161458764Y-106552317D01*
X161451827Y-106563891D01*
X161443789Y-106574729D01*
X161434727Y-106584727D01*
X161424729Y-106593789D01*
X161413891Y-106601827D01*
X161402317Y-106608764D01*
X161390119Y-106614533D01*
X161377414Y-106619079D01*
X161364325Y-106622358D01*
X161350977Y-106624338D01*
X161337500Y-106625000D01*
X161062500Y-106625000D01*
X161049023Y-106624338D01*
X161035675Y-106622358D01*
X161022586Y-106619079D01*
X161009881Y-106614533D01*
X160997683Y-106608764D01*
X160986109Y-106601827D01*
X160975271Y-106593789D01*
X160965273Y-106584727D01*
X160956211Y-106574729D01*
X160948173Y-106563891D01*
X160941236Y-106552317D01*
X160935467Y-106540119D01*
X160930921Y-106527414D01*
X160927642Y-106514325D01*
X160925662Y-106500977D01*
X160925000Y-106487500D01*
X160925000Y-105312500D01*
X160925662Y-105299023D01*
X160927642Y-105285675D01*
X160930921Y-105272586D01*
X160935467Y-105259881D01*
X160941236Y-105247683D01*
X160948173Y-105236109D01*
X160956211Y-105225271D01*
X160965273Y-105215273D01*
X160975271Y-105206211D01*
X160986109Y-105198173D01*
X160997683Y-105191236D01*
X161009881Y-105185467D01*
X161022586Y-105180921D01*
X161035675Y-105177642D01*
X161049023Y-105175662D01*
X161062500Y-105175000D01*
X161337500Y-105175000D01*
X161350977Y-105175662D01*
X161350977Y-105175662D01*
G37*
D25*
X161200000Y-105900000D03*
D12*
G36*
X161350977Y-110675662D02*
G01*
X161364325Y-110677642D01*
X161377414Y-110680921D01*
X161390119Y-110685467D01*
X161402317Y-110691236D01*
X161413891Y-110698173D01*
X161424729Y-110706211D01*
X161434727Y-110715273D01*
X161443789Y-110725271D01*
X161451827Y-110736109D01*
X161458764Y-110747683D01*
X161464533Y-110759881D01*
X161469079Y-110772586D01*
X161472358Y-110785675D01*
X161474338Y-110799023D01*
X161475000Y-110812500D01*
X161475000Y-111987500D01*
X161474338Y-112000977D01*
X161472358Y-112014325D01*
X161469079Y-112027414D01*
X161464533Y-112040119D01*
X161458764Y-112052317D01*
X161451827Y-112063891D01*
X161443789Y-112074729D01*
X161434727Y-112084727D01*
X161424729Y-112093789D01*
X161413891Y-112101827D01*
X161402317Y-112108764D01*
X161390119Y-112114533D01*
X161377414Y-112119079D01*
X161364325Y-112122358D01*
X161350977Y-112124338D01*
X161337500Y-112125000D01*
X161062500Y-112125000D01*
X161049023Y-112124338D01*
X161035675Y-112122358D01*
X161022586Y-112119079D01*
X161009881Y-112114533D01*
X160997683Y-112108764D01*
X160986109Y-112101827D01*
X160975271Y-112093789D01*
X160965273Y-112084727D01*
X160956211Y-112074729D01*
X160948173Y-112063891D01*
X160941236Y-112052317D01*
X160935467Y-112040119D01*
X160930921Y-112027414D01*
X160927642Y-112014325D01*
X160925662Y-112000977D01*
X160925000Y-111987500D01*
X160925000Y-110812500D01*
X160925662Y-110799023D01*
X160927642Y-110785675D01*
X160930921Y-110772586D01*
X160935467Y-110759881D01*
X160941236Y-110747683D01*
X160948173Y-110736109D01*
X160956211Y-110725271D01*
X160965273Y-110715273D01*
X160975271Y-110706211D01*
X160986109Y-110698173D01*
X160997683Y-110691236D01*
X161009881Y-110685467D01*
X161022586Y-110680921D01*
X161035675Y-110677642D01*
X161049023Y-110675662D01*
X161062500Y-110675000D01*
X161337500Y-110675000D01*
X161350977Y-110675662D01*
X161350977Y-110675662D01*
G37*
D25*
X161200000Y-111400000D03*
D12*
G36*
X163890977Y-110675662D02*
G01*
X163904325Y-110677642D01*
X163917414Y-110680921D01*
X163930119Y-110685467D01*
X163942317Y-110691236D01*
X163953891Y-110698173D01*
X163964729Y-110706211D01*
X163974727Y-110715273D01*
X163983789Y-110725271D01*
X163991827Y-110736109D01*
X163998764Y-110747683D01*
X164004533Y-110759881D01*
X164009079Y-110772586D01*
X164012358Y-110785675D01*
X164014338Y-110799023D01*
X164015000Y-110812500D01*
X164015000Y-111987500D01*
X164014338Y-112000977D01*
X164012358Y-112014325D01*
X164009079Y-112027414D01*
X164004533Y-112040119D01*
X163998764Y-112052317D01*
X163991827Y-112063891D01*
X163983789Y-112074729D01*
X163974727Y-112084727D01*
X163964729Y-112093789D01*
X163953891Y-112101827D01*
X163942317Y-112108764D01*
X163930119Y-112114533D01*
X163917414Y-112119079D01*
X163904325Y-112122358D01*
X163890977Y-112124338D01*
X163877500Y-112125000D01*
X163602500Y-112125000D01*
X163589023Y-112124338D01*
X163575675Y-112122358D01*
X163562586Y-112119079D01*
X163549881Y-112114533D01*
X163537683Y-112108764D01*
X163526109Y-112101827D01*
X163515271Y-112093789D01*
X163505273Y-112084727D01*
X163496211Y-112074729D01*
X163488173Y-112063891D01*
X163481236Y-112052317D01*
X163475467Y-112040119D01*
X163470921Y-112027414D01*
X163467642Y-112014325D01*
X163465662Y-112000977D01*
X163465000Y-111987500D01*
X163465000Y-110812500D01*
X163465662Y-110799023D01*
X163467642Y-110785675D01*
X163470921Y-110772586D01*
X163475467Y-110759881D01*
X163481236Y-110747683D01*
X163488173Y-110736109D01*
X163496211Y-110725271D01*
X163505273Y-110715273D01*
X163515271Y-110706211D01*
X163526109Y-110698173D01*
X163537683Y-110691236D01*
X163549881Y-110685467D01*
X163562586Y-110680921D01*
X163575675Y-110677642D01*
X163589023Y-110675662D01*
X163602500Y-110675000D01*
X163877500Y-110675000D01*
X163890977Y-110675662D01*
X163890977Y-110675662D01*
G37*
D25*
X163740000Y-111400000D03*
D26*
X131197200Y-110725300D03*
D27*
X138817200Y-103105300D03*
X133737200Y-110725300D03*
X136277200Y-103105300D03*
X136277200Y-110725300D03*
X133737200Y-103105300D03*
X138817200Y-110725300D03*
X131197200Y-103105300D03*
D15*
X102200000Y-84180000D03*
X102200000Y-86720000D03*
X102200000Y-89260000D03*
D16*
X102200000Y-91800000D03*
D12*
G36*
X110574505Y-91076204D02*
G01*
X110598773Y-91079804D01*
X110622572Y-91085765D01*
X110645671Y-91094030D01*
X110667850Y-91104520D01*
X110688893Y-91117132D01*
X110708599Y-91131747D01*
X110726777Y-91148223D01*
X110743253Y-91166401D01*
X110757868Y-91186107D01*
X110770480Y-91207150D01*
X110780970Y-91229329D01*
X110789235Y-91252428D01*
X110795196Y-91276227D01*
X110798796Y-91300495D01*
X110800000Y-91324999D01*
X110800000Y-91975001D01*
X110798796Y-91999505D01*
X110795196Y-92023773D01*
X110789235Y-92047572D01*
X110780970Y-92070671D01*
X110770480Y-92092850D01*
X110757868Y-92113893D01*
X110743253Y-92133599D01*
X110726777Y-92151777D01*
X110708599Y-92168253D01*
X110688893Y-92182868D01*
X110667850Y-92195480D01*
X110645671Y-92205970D01*
X110622572Y-92214235D01*
X110598773Y-92220196D01*
X110574505Y-92223796D01*
X110550001Y-92225000D01*
X109649999Y-92225000D01*
X109625495Y-92223796D01*
X109601227Y-92220196D01*
X109577428Y-92214235D01*
X109554329Y-92205970D01*
X109532150Y-92195480D01*
X109511107Y-92182868D01*
X109491401Y-92168253D01*
X109473223Y-92151777D01*
X109456747Y-92133599D01*
X109442132Y-92113893D01*
X109429520Y-92092850D01*
X109419030Y-92070671D01*
X109410765Y-92047572D01*
X109404804Y-92023773D01*
X109401204Y-91999505D01*
X109400000Y-91975001D01*
X109400000Y-91324999D01*
X109401204Y-91300495D01*
X109404804Y-91276227D01*
X109410765Y-91252428D01*
X109419030Y-91229329D01*
X109429520Y-91207150D01*
X109442132Y-91186107D01*
X109456747Y-91166401D01*
X109473223Y-91148223D01*
X109491401Y-91131747D01*
X109511107Y-91117132D01*
X109532150Y-91104520D01*
X109554329Y-91094030D01*
X109577428Y-91085765D01*
X109601227Y-91079804D01*
X109625495Y-91076204D01*
X109649999Y-91075000D01*
X110550001Y-91075000D01*
X110574505Y-91076204D01*
X110574505Y-91076204D01*
G37*
D13*
X110100000Y-91650000D03*
D12*
G36*
X110574505Y-89026204D02*
G01*
X110598773Y-89029804D01*
X110622572Y-89035765D01*
X110645671Y-89044030D01*
X110667850Y-89054520D01*
X110688893Y-89067132D01*
X110708599Y-89081747D01*
X110726777Y-89098223D01*
X110743253Y-89116401D01*
X110757868Y-89136107D01*
X110770480Y-89157150D01*
X110780970Y-89179329D01*
X110789235Y-89202428D01*
X110795196Y-89226227D01*
X110798796Y-89250495D01*
X110800000Y-89274999D01*
X110800000Y-89925001D01*
X110798796Y-89949505D01*
X110795196Y-89973773D01*
X110789235Y-89997572D01*
X110780970Y-90020671D01*
X110770480Y-90042850D01*
X110757868Y-90063893D01*
X110743253Y-90083599D01*
X110726777Y-90101777D01*
X110708599Y-90118253D01*
X110688893Y-90132868D01*
X110667850Y-90145480D01*
X110645671Y-90155970D01*
X110622572Y-90164235D01*
X110598773Y-90170196D01*
X110574505Y-90173796D01*
X110550001Y-90175000D01*
X109649999Y-90175000D01*
X109625495Y-90173796D01*
X109601227Y-90170196D01*
X109577428Y-90164235D01*
X109554329Y-90155970D01*
X109532150Y-90145480D01*
X109511107Y-90132868D01*
X109491401Y-90118253D01*
X109473223Y-90101777D01*
X109456747Y-90083599D01*
X109442132Y-90063893D01*
X109429520Y-90042850D01*
X109419030Y-90020671D01*
X109410765Y-89997572D01*
X109404804Y-89973773D01*
X109401204Y-89949505D01*
X109400000Y-89925001D01*
X109400000Y-89274999D01*
X109401204Y-89250495D01*
X109404804Y-89226227D01*
X109410765Y-89202428D01*
X109419030Y-89179329D01*
X109429520Y-89157150D01*
X109442132Y-89136107D01*
X109456747Y-89116401D01*
X109473223Y-89098223D01*
X109491401Y-89081747D01*
X109511107Y-89067132D01*
X109532150Y-89054520D01*
X109554329Y-89044030D01*
X109577428Y-89035765D01*
X109601227Y-89029804D01*
X109625495Y-89026204D01*
X109649999Y-89025000D01*
X110550001Y-89025000D01*
X110574505Y-89026204D01*
X110574505Y-89026204D01*
G37*
D13*
X110100000Y-89600000D03*
D12*
G36*
X108574505Y-89026204D02*
G01*
X108598773Y-89029804D01*
X108622572Y-89035765D01*
X108645671Y-89044030D01*
X108667850Y-89054520D01*
X108688893Y-89067132D01*
X108708599Y-89081747D01*
X108726777Y-89098223D01*
X108743253Y-89116401D01*
X108757868Y-89136107D01*
X108770480Y-89157150D01*
X108780970Y-89179329D01*
X108789235Y-89202428D01*
X108795196Y-89226227D01*
X108798796Y-89250495D01*
X108800000Y-89274999D01*
X108800000Y-89925001D01*
X108798796Y-89949505D01*
X108795196Y-89973773D01*
X108789235Y-89997572D01*
X108780970Y-90020671D01*
X108770480Y-90042850D01*
X108757868Y-90063893D01*
X108743253Y-90083599D01*
X108726777Y-90101777D01*
X108708599Y-90118253D01*
X108688893Y-90132868D01*
X108667850Y-90145480D01*
X108645671Y-90155970D01*
X108622572Y-90164235D01*
X108598773Y-90170196D01*
X108574505Y-90173796D01*
X108550001Y-90175000D01*
X107649999Y-90175000D01*
X107625495Y-90173796D01*
X107601227Y-90170196D01*
X107577428Y-90164235D01*
X107554329Y-90155970D01*
X107532150Y-90145480D01*
X107511107Y-90132868D01*
X107491401Y-90118253D01*
X107473223Y-90101777D01*
X107456747Y-90083599D01*
X107442132Y-90063893D01*
X107429520Y-90042850D01*
X107419030Y-90020671D01*
X107410765Y-89997572D01*
X107404804Y-89973773D01*
X107401204Y-89949505D01*
X107400000Y-89925001D01*
X107400000Y-89274999D01*
X107401204Y-89250495D01*
X107404804Y-89226227D01*
X107410765Y-89202428D01*
X107419030Y-89179329D01*
X107429520Y-89157150D01*
X107442132Y-89136107D01*
X107456747Y-89116401D01*
X107473223Y-89098223D01*
X107491401Y-89081747D01*
X107511107Y-89067132D01*
X107532150Y-89054520D01*
X107554329Y-89044030D01*
X107577428Y-89035765D01*
X107601227Y-89029804D01*
X107625495Y-89026204D01*
X107649999Y-89025000D01*
X108550001Y-89025000D01*
X108574505Y-89026204D01*
X108574505Y-89026204D01*
G37*
D13*
X108100000Y-89600000D03*
D12*
G36*
X108574505Y-91076204D02*
G01*
X108598773Y-91079804D01*
X108622572Y-91085765D01*
X108645671Y-91094030D01*
X108667850Y-91104520D01*
X108688893Y-91117132D01*
X108708599Y-91131747D01*
X108726777Y-91148223D01*
X108743253Y-91166401D01*
X108757868Y-91186107D01*
X108770480Y-91207150D01*
X108780970Y-91229329D01*
X108789235Y-91252428D01*
X108795196Y-91276227D01*
X108798796Y-91300495D01*
X108800000Y-91324999D01*
X108800000Y-91975001D01*
X108798796Y-91999505D01*
X108795196Y-92023773D01*
X108789235Y-92047572D01*
X108780970Y-92070671D01*
X108770480Y-92092850D01*
X108757868Y-92113893D01*
X108743253Y-92133599D01*
X108726777Y-92151777D01*
X108708599Y-92168253D01*
X108688893Y-92182868D01*
X108667850Y-92195480D01*
X108645671Y-92205970D01*
X108622572Y-92214235D01*
X108598773Y-92220196D01*
X108574505Y-92223796D01*
X108550001Y-92225000D01*
X107649999Y-92225000D01*
X107625495Y-92223796D01*
X107601227Y-92220196D01*
X107577428Y-92214235D01*
X107554329Y-92205970D01*
X107532150Y-92195480D01*
X107511107Y-92182868D01*
X107491401Y-92168253D01*
X107473223Y-92151777D01*
X107456747Y-92133599D01*
X107442132Y-92113893D01*
X107429520Y-92092850D01*
X107419030Y-92070671D01*
X107410765Y-92047572D01*
X107404804Y-92023773D01*
X107401204Y-91999505D01*
X107400000Y-91975001D01*
X107400000Y-91324999D01*
X107401204Y-91300495D01*
X107404804Y-91276227D01*
X107410765Y-91252428D01*
X107419030Y-91229329D01*
X107429520Y-91207150D01*
X107442132Y-91186107D01*
X107456747Y-91166401D01*
X107473223Y-91148223D01*
X107491401Y-91131747D01*
X107511107Y-91117132D01*
X107532150Y-91104520D01*
X107554329Y-91094030D01*
X107577428Y-91085765D01*
X107601227Y-91079804D01*
X107625495Y-91076204D01*
X107649999Y-91075000D01*
X108550001Y-91075000D01*
X108574505Y-91076204D01*
X108574505Y-91076204D01*
G37*
D13*
X108100000Y-91650000D03*
D12*
G36*
X108524505Y-94401204D02*
G01*
X108548773Y-94404804D01*
X108572572Y-94410765D01*
X108595671Y-94419030D01*
X108617850Y-94429520D01*
X108638893Y-94442132D01*
X108658599Y-94456747D01*
X108676777Y-94473223D01*
X108693253Y-94491401D01*
X108707868Y-94511107D01*
X108720480Y-94532150D01*
X108730970Y-94554329D01*
X108739235Y-94577428D01*
X108745196Y-94601227D01*
X108748796Y-94625495D01*
X108750000Y-94649999D01*
X108750000Y-95550001D01*
X108748796Y-95574505D01*
X108745196Y-95598773D01*
X108739235Y-95622572D01*
X108730970Y-95645671D01*
X108720480Y-95667850D01*
X108707868Y-95688893D01*
X108693253Y-95708599D01*
X108676777Y-95726777D01*
X108658599Y-95743253D01*
X108638893Y-95757868D01*
X108617850Y-95770480D01*
X108595671Y-95780970D01*
X108572572Y-95789235D01*
X108548773Y-95795196D01*
X108524505Y-95798796D01*
X108500001Y-95800000D01*
X107849999Y-95800000D01*
X107825495Y-95798796D01*
X107801227Y-95795196D01*
X107777428Y-95789235D01*
X107754329Y-95780970D01*
X107732150Y-95770480D01*
X107711107Y-95757868D01*
X107691401Y-95743253D01*
X107673223Y-95726777D01*
X107656747Y-95708599D01*
X107642132Y-95688893D01*
X107629520Y-95667850D01*
X107619030Y-95645671D01*
X107610765Y-95622572D01*
X107604804Y-95598773D01*
X107601204Y-95574505D01*
X107600000Y-95550001D01*
X107600000Y-94649999D01*
X107601204Y-94625495D01*
X107604804Y-94601227D01*
X107610765Y-94577428D01*
X107619030Y-94554329D01*
X107629520Y-94532150D01*
X107642132Y-94511107D01*
X107656747Y-94491401D01*
X107673223Y-94473223D01*
X107691401Y-94456747D01*
X107711107Y-94442132D01*
X107732150Y-94429520D01*
X107754329Y-94419030D01*
X107777428Y-94410765D01*
X107801227Y-94404804D01*
X107825495Y-94401204D01*
X107849999Y-94400000D01*
X108500001Y-94400000D01*
X108524505Y-94401204D01*
X108524505Y-94401204D01*
G37*
D13*
X108175000Y-95100000D03*
D12*
G36*
X106474505Y-94401204D02*
G01*
X106498773Y-94404804D01*
X106522572Y-94410765D01*
X106545671Y-94419030D01*
X106567850Y-94429520D01*
X106588893Y-94442132D01*
X106608599Y-94456747D01*
X106626777Y-94473223D01*
X106643253Y-94491401D01*
X106657868Y-94511107D01*
X106670480Y-94532150D01*
X106680970Y-94554329D01*
X106689235Y-94577428D01*
X106695196Y-94601227D01*
X106698796Y-94625495D01*
X106700000Y-94649999D01*
X106700000Y-95550001D01*
X106698796Y-95574505D01*
X106695196Y-95598773D01*
X106689235Y-95622572D01*
X106680970Y-95645671D01*
X106670480Y-95667850D01*
X106657868Y-95688893D01*
X106643253Y-95708599D01*
X106626777Y-95726777D01*
X106608599Y-95743253D01*
X106588893Y-95757868D01*
X106567850Y-95770480D01*
X106545671Y-95780970D01*
X106522572Y-95789235D01*
X106498773Y-95795196D01*
X106474505Y-95798796D01*
X106450001Y-95800000D01*
X105799999Y-95800000D01*
X105775495Y-95798796D01*
X105751227Y-95795196D01*
X105727428Y-95789235D01*
X105704329Y-95780970D01*
X105682150Y-95770480D01*
X105661107Y-95757868D01*
X105641401Y-95743253D01*
X105623223Y-95726777D01*
X105606747Y-95708599D01*
X105592132Y-95688893D01*
X105579520Y-95667850D01*
X105569030Y-95645671D01*
X105560765Y-95622572D01*
X105554804Y-95598773D01*
X105551204Y-95574505D01*
X105550000Y-95550001D01*
X105550000Y-94649999D01*
X105551204Y-94625495D01*
X105554804Y-94601227D01*
X105560765Y-94577428D01*
X105569030Y-94554329D01*
X105579520Y-94532150D01*
X105592132Y-94511107D01*
X105606747Y-94491401D01*
X105623223Y-94473223D01*
X105641401Y-94456747D01*
X105661107Y-94442132D01*
X105682150Y-94429520D01*
X105704329Y-94419030D01*
X105727428Y-94410765D01*
X105751227Y-94404804D01*
X105775495Y-94401204D01*
X105799999Y-94400000D01*
X106450001Y-94400000D01*
X106474505Y-94401204D01*
X106474505Y-94401204D01*
G37*
D13*
X106125000Y-95100000D03*
D12*
G36*
X122674505Y-86351204D02*
G01*
X122698773Y-86354804D01*
X122722572Y-86360765D01*
X122745671Y-86369030D01*
X122767850Y-86379520D01*
X122788893Y-86392132D01*
X122808599Y-86406747D01*
X122826777Y-86423223D01*
X122843253Y-86441401D01*
X122857868Y-86461107D01*
X122870480Y-86482150D01*
X122880970Y-86504329D01*
X122889235Y-86527428D01*
X122895196Y-86551227D01*
X122898796Y-86575495D01*
X122900000Y-86599999D01*
X122900000Y-87250001D01*
X122898796Y-87274505D01*
X122895196Y-87298773D01*
X122889235Y-87322572D01*
X122880970Y-87345671D01*
X122870480Y-87367850D01*
X122857868Y-87388893D01*
X122843253Y-87408599D01*
X122826777Y-87426777D01*
X122808599Y-87443253D01*
X122788893Y-87457868D01*
X122767850Y-87470480D01*
X122745671Y-87480970D01*
X122722572Y-87489235D01*
X122698773Y-87495196D01*
X122674505Y-87498796D01*
X122650001Y-87500000D01*
X121749999Y-87500000D01*
X121725495Y-87498796D01*
X121701227Y-87495196D01*
X121677428Y-87489235D01*
X121654329Y-87480970D01*
X121632150Y-87470480D01*
X121611107Y-87457868D01*
X121591401Y-87443253D01*
X121573223Y-87426777D01*
X121556747Y-87408599D01*
X121542132Y-87388893D01*
X121529520Y-87367850D01*
X121519030Y-87345671D01*
X121510765Y-87322572D01*
X121504804Y-87298773D01*
X121501204Y-87274505D01*
X121500000Y-87250001D01*
X121500000Y-86599999D01*
X121501204Y-86575495D01*
X121504804Y-86551227D01*
X121510765Y-86527428D01*
X121519030Y-86504329D01*
X121529520Y-86482150D01*
X121542132Y-86461107D01*
X121556747Y-86441401D01*
X121573223Y-86423223D01*
X121591401Y-86406747D01*
X121611107Y-86392132D01*
X121632150Y-86379520D01*
X121654329Y-86369030D01*
X121677428Y-86360765D01*
X121701227Y-86354804D01*
X121725495Y-86351204D01*
X121749999Y-86350000D01*
X122650001Y-86350000D01*
X122674505Y-86351204D01*
X122674505Y-86351204D01*
G37*
D13*
X122200000Y-86925000D03*
D12*
G36*
X122674505Y-88401204D02*
G01*
X122698773Y-88404804D01*
X122722572Y-88410765D01*
X122745671Y-88419030D01*
X122767850Y-88429520D01*
X122788893Y-88442132D01*
X122808599Y-88456747D01*
X122826777Y-88473223D01*
X122843253Y-88491401D01*
X122857868Y-88511107D01*
X122870480Y-88532150D01*
X122880970Y-88554329D01*
X122889235Y-88577428D01*
X122895196Y-88601227D01*
X122898796Y-88625495D01*
X122900000Y-88649999D01*
X122900000Y-89300001D01*
X122898796Y-89324505D01*
X122895196Y-89348773D01*
X122889235Y-89372572D01*
X122880970Y-89395671D01*
X122870480Y-89417850D01*
X122857868Y-89438893D01*
X122843253Y-89458599D01*
X122826777Y-89476777D01*
X122808599Y-89493253D01*
X122788893Y-89507868D01*
X122767850Y-89520480D01*
X122745671Y-89530970D01*
X122722572Y-89539235D01*
X122698773Y-89545196D01*
X122674505Y-89548796D01*
X122650001Y-89550000D01*
X121749999Y-89550000D01*
X121725495Y-89548796D01*
X121701227Y-89545196D01*
X121677428Y-89539235D01*
X121654329Y-89530970D01*
X121632150Y-89520480D01*
X121611107Y-89507868D01*
X121591401Y-89493253D01*
X121573223Y-89476777D01*
X121556747Y-89458599D01*
X121542132Y-89438893D01*
X121529520Y-89417850D01*
X121519030Y-89395671D01*
X121510765Y-89372572D01*
X121504804Y-89348773D01*
X121501204Y-89324505D01*
X121500000Y-89300001D01*
X121500000Y-88649999D01*
X121501204Y-88625495D01*
X121504804Y-88601227D01*
X121510765Y-88577428D01*
X121519030Y-88554329D01*
X121529520Y-88532150D01*
X121542132Y-88511107D01*
X121556747Y-88491401D01*
X121573223Y-88473223D01*
X121591401Y-88456747D01*
X121611107Y-88442132D01*
X121632150Y-88429520D01*
X121654329Y-88419030D01*
X121677428Y-88410765D01*
X121701227Y-88404804D01*
X121725495Y-88401204D01*
X121749999Y-88400000D01*
X122650001Y-88400000D01*
X122674505Y-88401204D01*
X122674505Y-88401204D01*
G37*
D13*
X122200000Y-88975000D03*
D12*
G36*
X145674505Y-90351204D02*
G01*
X145698773Y-90354804D01*
X145722572Y-90360765D01*
X145745671Y-90369030D01*
X145767850Y-90379520D01*
X145788893Y-90392132D01*
X145808599Y-90406747D01*
X145826777Y-90423223D01*
X145843253Y-90441401D01*
X145857868Y-90461107D01*
X145870480Y-90482150D01*
X145880970Y-90504329D01*
X145889235Y-90527428D01*
X145895196Y-90551227D01*
X145898796Y-90575495D01*
X145900000Y-90599999D01*
X145900000Y-91250001D01*
X145898796Y-91274505D01*
X145895196Y-91298773D01*
X145889235Y-91322572D01*
X145880970Y-91345671D01*
X145870480Y-91367850D01*
X145857868Y-91388893D01*
X145843253Y-91408599D01*
X145826777Y-91426777D01*
X145808599Y-91443253D01*
X145788893Y-91457868D01*
X145767850Y-91470480D01*
X145745671Y-91480970D01*
X145722572Y-91489235D01*
X145698773Y-91495196D01*
X145674505Y-91498796D01*
X145650001Y-91500000D01*
X144749999Y-91500000D01*
X144725495Y-91498796D01*
X144701227Y-91495196D01*
X144677428Y-91489235D01*
X144654329Y-91480970D01*
X144632150Y-91470480D01*
X144611107Y-91457868D01*
X144591401Y-91443253D01*
X144573223Y-91426777D01*
X144556747Y-91408599D01*
X144542132Y-91388893D01*
X144529520Y-91367850D01*
X144519030Y-91345671D01*
X144510765Y-91322572D01*
X144504804Y-91298773D01*
X144501204Y-91274505D01*
X144500000Y-91250001D01*
X144500000Y-90599999D01*
X144501204Y-90575495D01*
X144504804Y-90551227D01*
X144510765Y-90527428D01*
X144519030Y-90504329D01*
X144529520Y-90482150D01*
X144542132Y-90461107D01*
X144556747Y-90441401D01*
X144573223Y-90423223D01*
X144591401Y-90406747D01*
X144611107Y-90392132D01*
X144632150Y-90379520D01*
X144654329Y-90369030D01*
X144677428Y-90360765D01*
X144701227Y-90354804D01*
X144725495Y-90351204D01*
X144749999Y-90350000D01*
X145650001Y-90350000D01*
X145674505Y-90351204D01*
X145674505Y-90351204D01*
G37*
D13*
X145200000Y-90925000D03*
D12*
G36*
X145674505Y-88301204D02*
G01*
X145698773Y-88304804D01*
X145722572Y-88310765D01*
X145745671Y-88319030D01*
X145767850Y-88329520D01*
X145788893Y-88342132D01*
X145808599Y-88356747D01*
X145826777Y-88373223D01*
X145843253Y-88391401D01*
X145857868Y-88411107D01*
X145870480Y-88432150D01*
X145880970Y-88454329D01*
X145889235Y-88477428D01*
X145895196Y-88501227D01*
X145898796Y-88525495D01*
X145900000Y-88549999D01*
X145900000Y-89200001D01*
X145898796Y-89224505D01*
X145895196Y-89248773D01*
X145889235Y-89272572D01*
X145880970Y-89295671D01*
X145870480Y-89317850D01*
X145857868Y-89338893D01*
X145843253Y-89358599D01*
X145826777Y-89376777D01*
X145808599Y-89393253D01*
X145788893Y-89407868D01*
X145767850Y-89420480D01*
X145745671Y-89430970D01*
X145722572Y-89439235D01*
X145698773Y-89445196D01*
X145674505Y-89448796D01*
X145650001Y-89450000D01*
X144749999Y-89450000D01*
X144725495Y-89448796D01*
X144701227Y-89445196D01*
X144677428Y-89439235D01*
X144654329Y-89430970D01*
X144632150Y-89420480D01*
X144611107Y-89407868D01*
X144591401Y-89393253D01*
X144573223Y-89376777D01*
X144556747Y-89358599D01*
X144542132Y-89338893D01*
X144529520Y-89317850D01*
X144519030Y-89295671D01*
X144510765Y-89272572D01*
X144504804Y-89248773D01*
X144501204Y-89224505D01*
X144500000Y-89200001D01*
X144500000Y-88549999D01*
X144501204Y-88525495D01*
X144504804Y-88501227D01*
X144510765Y-88477428D01*
X144519030Y-88454329D01*
X144529520Y-88432150D01*
X144542132Y-88411107D01*
X144556747Y-88391401D01*
X144573223Y-88373223D01*
X144591401Y-88356747D01*
X144611107Y-88342132D01*
X144632150Y-88329520D01*
X144654329Y-88319030D01*
X144677428Y-88310765D01*
X144701227Y-88304804D01*
X144725495Y-88301204D01*
X144749999Y-88300000D01*
X145650001Y-88300000D01*
X145674505Y-88301204D01*
X145674505Y-88301204D01*
G37*
D13*
X145200000Y-88875000D03*
D12*
G36*
X112574505Y-89026204D02*
G01*
X112598773Y-89029804D01*
X112622572Y-89035765D01*
X112645671Y-89044030D01*
X112667850Y-89054520D01*
X112688893Y-89067132D01*
X112708599Y-89081747D01*
X112726777Y-89098223D01*
X112743253Y-89116401D01*
X112757868Y-89136107D01*
X112770480Y-89157150D01*
X112780970Y-89179329D01*
X112789235Y-89202428D01*
X112795196Y-89226227D01*
X112798796Y-89250495D01*
X112800000Y-89274999D01*
X112800000Y-89925001D01*
X112798796Y-89949505D01*
X112795196Y-89973773D01*
X112789235Y-89997572D01*
X112780970Y-90020671D01*
X112770480Y-90042850D01*
X112757868Y-90063893D01*
X112743253Y-90083599D01*
X112726777Y-90101777D01*
X112708599Y-90118253D01*
X112688893Y-90132868D01*
X112667850Y-90145480D01*
X112645671Y-90155970D01*
X112622572Y-90164235D01*
X112598773Y-90170196D01*
X112574505Y-90173796D01*
X112550001Y-90175000D01*
X111649999Y-90175000D01*
X111625495Y-90173796D01*
X111601227Y-90170196D01*
X111577428Y-90164235D01*
X111554329Y-90155970D01*
X111532150Y-90145480D01*
X111511107Y-90132868D01*
X111491401Y-90118253D01*
X111473223Y-90101777D01*
X111456747Y-90083599D01*
X111442132Y-90063893D01*
X111429520Y-90042850D01*
X111419030Y-90020671D01*
X111410765Y-89997572D01*
X111404804Y-89973773D01*
X111401204Y-89949505D01*
X111400000Y-89925001D01*
X111400000Y-89274999D01*
X111401204Y-89250495D01*
X111404804Y-89226227D01*
X111410765Y-89202428D01*
X111419030Y-89179329D01*
X111429520Y-89157150D01*
X111442132Y-89136107D01*
X111456747Y-89116401D01*
X111473223Y-89098223D01*
X111491401Y-89081747D01*
X111511107Y-89067132D01*
X111532150Y-89054520D01*
X111554329Y-89044030D01*
X111577428Y-89035765D01*
X111601227Y-89029804D01*
X111625495Y-89026204D01*
X111649999Y-89025000D01*
X112550001Y-89025000D01*
X112574505Y-89026204D01*
X112574505Y-89026204D01*
G37*
D13*
X112100000Y-89600000D03*
D12*
G36*
X112574505Y-91076204D02*
G01*
X112598773Y-91079804D01*
X112622572Y-91085765D01*
X112645671Y-91094030D01*
X112667850Y-91104520D01*
X112688893Y-91117132D01*
X112708599Y-91131747D01*
X112726777Y-91148223D01*
X112743253Y-91166401D01*
X112757868Y-91186107D01*
X112770480Y-91207150D01*
X112780970Y-91229329D01*
X112789235Y-91252428D01*
X112795196Y-91276227D01*
X112798796Y-91300495D01*
X112800000Y-91324999D01*
X112800000Y-91975001D01*
X112798796Y-91999505D01*
X112795196Y-92023773D01*
X112789235Y-92047572D01*
X112780970Y-92070671D01*
X112770480Y-92092850D01*
X112757868Y-92113893D01*
X112743253Y-92133599D01*
X112726777Y-92151777D01*
X112708599Y-92168253D01*
X112688893Y-92182868D01*
X112667850Y-92195480D01*
X112645671Y-92205970D01*
X112622572Y-92214235D01*
X112598773Y-92220196D01*
X112574505Y-92223796D01*
X112550001Y-92225000D01*
X111649999Y-92225000D01*
X111625495Y-92223796D01*
X111601227Y-92220196D01*
X111577428Y-92214235D01*
X111554329Y-92205970D01*
X111532150Y-92195480D01*
X111511107Y-92182868D01*
X111491401Y-92168253D01*
X111473223Y-92151777D01*
X111456747Y-92133599D01*
X111442132Y-92113893D01*
X111429520Y-92092850D01*
X111419030Y-92070671D01*
X111410765Y-92047572D01*
X111404804Y-92023773D01*
X111401204Y-91999505D01*
X111400000Y-91975001D01*
X111400000Y-91324999D01*
X111401204Y-91300495D01*
X111404804Y-91276227D01*
X111410765Y-91252428D01*
X111419030Y-91229329D01*
X111429520Y-91207150D01*
X111442132Y-91186107D01*
X111456747Y-91166401D01*
X111473223Y-91148223D01*
X111491401Y-91131747D01*
X111511107Y-91117132D01*
X111532150Y-91104520D01*
X111554329Y-91094030D01*
X111577428Y-91085765D01*
X111601227Y-91079804D01*
X111625495Y-91076204D01*
X111649999Y-91075000D01*
X112550001Y-91075000D01*
X112574505Y-91076204D01*
X112574505Y-91076204D01*
G37*
D13*
X112100000Y-91650000D03*
D12*
G36*
X154324505Y-114501204D02*
G01*
X154348773Y-114504804D01*
X154372572Y-114510765D01*
X154395671Y-114519030D01*
X154417850Y-114529520D01*
X154438893Y-114542132D01*
X154458599Y-114556747D01*
X154476777Y-114573223D01*
X154493253Y-114591401D01*
X154507868Y-114611107D01*
X154520480Y-114632150D01*
X154530970Y-114654329D01*
X154539235Y-114677428D01*
X154545196Y-114701227D01*
X154548796Y-114725495D01*
X154550000Y-114749999D01*
X154550000Y-115400001D01*
X154548796Y-115424505D01*
X154545196Y-115448773D01*
X154539235Y-115472572D01*
X154530970Y-115495671D01*
X154520480Y-115517850D01*
X154507868Y-115538893D01*
X154493253Y-115558599D01*
X154476777Y-115576777D01*
X154458599Y-115593253D01*
X154438893Y-115607868D01*
X154417850Y-115620480D01*
X154395671Y-115630970D01*
X154372572Y-115639235D01*
X154348773Y-115645196D01*
X154324505Y-115648796D01*
X154300001Y-115650000D01*
X153399999Y-115650000D01*
X153375495Y-115648796D01*
X153351227Y-115645196D01*
X153327428Y-115639235D01*
X153304329Y-115630970D01*
X153282150Y-115620480D01*
X153261107Y-115607868D01*
X153241401Y-115593253D01*
X153223223Y-115576777D01*
X153206747Y-115558599D01*
X153192132Y-115538893D01*
X153179520Y-115517850D01*
X153169030Y-115495671D01*
X153160765Y-115472572D01*
X153154804Y-115448773D01*
X153151204Y-115424505D01*
X153150000Y-115400001D01*
X153150000Y-114749999D01*
X153151204Y-114725495D01*
X153154804Y-114701227D01*
X153160765Y-114677428D01*
X153169030Y-114654329D01*
X153179520Y-114632150D01*
X153192132Y-114611107D01*
X153206747Y-114591401D01*
X153223223Y-114573223D01*
X153241401Y-114556747D01*
X153261107Y-114542132D01*
X153282150Y-114529520D01*
X153304329Y-114519030D01*
X153327428Y-114510765D01*
X153351227Y-114504804D01*
X153375495Y-114501204D01*
X153399999Y-114500000D01*
X154300001Y-114500000D01*
X154324505Y-114501204D01*
X154324505Y-114501204D01*
G37*
D13*
X153850000Y-115075000D03*
D12*
G36*
X154324505Y-112451204D02*
G01*
X154348773Y-112454804D01*
X154372572Y-112460765D01*
X154395671Y-112469030D01*
X154417850Y-112479520D01*
X154438893Y-112492132D01*
X154458599Y-112506747D01*
X154476777Y-112523223D01*
X154493253Y-112541401D01*
X154507868Y-112561107D01*
X154520480Y-112582150D01*
X154530970Y-112604329D01*
X154539235Y-112627428D01*
X154545196Y-112651227D01*
X154548796Y-112675495D01*
X154550000Y-112699999D01*
X154550000Y-113350001D01*
X154548796Y-113374505D01*
X154545196Y-113398773D01*
X154539235Y-113422572D01*
X154530970Y-113445671D01*
X154520480Y-113467850D01*
X154507868Y-113488893D01*
X154493253Y-113508599D01*
X154476777Y-113526777D01*
X154458599Y-113543253D01*
X154438893Y-113557868D01*
X154417850Y-113570480D01*
X154395671Y-113580970D01*
X154372572Y-113589235D01*
X154348773Y-113595196D01*
X154324505Y-113598796D01*
X154300001Y-113600000D01*
X153399999Y-113600000D01*
X153375495Y-113598796D01*
X153351227Y-113595196D01*
X153327428Y-113589235D01*
X153304329Y-113580970D01*
X153282150Y-113570480D01*
X153261107Y-113557868D01*
X153241401Y-113543253D01*
X153223223Y-113526777D01*
X153206747Y-113508599D01*
X153192132Y-113488893D01*
X153179520Y-113467850D01*
X153169030Y-113445671D01*
X153160765Y-113422572D01*
X153154804Y-113398773D01*
X153151204Y-113374505D01*
X153150000Y-113350001D01*
X153150000Y-112699999D01*
X153151204Y-112675495D01*
X153154804Y-112651227D01*
X153160765Y-112627428D01*
X153169030Y-112604329D01*
X153179520Y-112582150D01*
X153192132Y-112561107D01*
X153206747Y-112541401D01*
X153223223Y-112523223D01*
X153241401Y-112506747D01*
X153261107Y-112492132D01*
X153282150Y-112479520D01*
X153304329Y-112469030D01*
X153327428Y-112460765D01*
X153351227Y-112454804D01*
X153375495Y-112451204D01*
X153399999Y-112450000D01*
X154300001Y-112450000D01*
X154324505Y-112451204D01*
X154324505Y-112451204D01*
G37*
D13*
X153850000Y-113025000D03*
D12*
G36*
X112694505Y-117789204D02*
G01*
X112718773Y-117792804D01*
X112742572Y-117798765D01*
X112765671Y-117807030D01*
X112787850Y-117817520D01*
X112808893Y-117830132D01*
X112828599Y-117844747D01*
X112846777Y-117861223D01*
X112863253Y-117879401D01*
X112877868Y-117899107D01*
X112890480Y-117920150D01*
X112900970Y-117942329D01*
X112909235Y-117965428D01*
X112915196Y-117989227D01*
X112918796Y-118013495D01*
X112920000Y-118037999D01*
X112920000Y-118938001D01*
X112918796Y-118962505D01*
X112915196Y-118986773D01*
X112909235Y-119010572D01*
X112900970Y-119033671D01*
X112890480Y-119055850D01*
X112877868Y-119076893D01*
X112863253Y-119096599D01*
X112846777Y-119114777D01*
X112828599Y-119131253D01*
X112808893Y-119145868D01*
X112787850Y-119158480D01*
X112765671Y-119168970D01*
X112742572Y-119177235D01*
X112718773Y-119183196D01*
X112694505Y-119186796D01*
X112670001Y-119188000D01*
X112019999Y-119188000D01*
X111995495Y-119186796D01*
X111971227Y-119183196D01*
X111947428Y-119177235D01*
X111924329Y-119168970D01*
X111902150Y-119158480D01*
X111881107Y-119145868D01*
X111861401Y-119131253D01*
X111843223Y-119114777D01*
X111826747Y-119096599D01*
X111812132Y-119076893D01*
X111799520Y-119055850D01*
X111789030Y-119033671D01*
X111780765Y-119010572D01*
X111774804Y-118986773D01*
X111771204Y-118962505D01*
X111770000Y-118938001D01*
X111770000Y-118037999D01*
X111771204Y-118013495D01*
X111774804Y-117989227D01*
X111780765Y-117965428D01*
X111789030Y-117942329D01*
X111799520Y-117920150D01*
X111812132Y-117899107D01*
X111826747Y-117879401D01*
X111843223Y-117861223D01*
X111861401Y-117844747D01*
X111881107Y-117830132D01*
X111902150Y-117817520D01*
X111924329Y-117807030D01*
X111947428Y-117798765D01*
X111971227Y-117792804D01*
X111995495Y-117789204D01*
X112019999Y-117788000D01*
X112670001Y-117788000D01*
X112694505Y-117789204D01*
X112694505Y-117789204D01*
G37*
D13*
X112345000Y-118488000D03*
D12*
G36*
X110644505Y-117789204D02*
G01*
X110668773Y-117792804D01*
X110692572Y-117798765D01*
X110715671Y-117807030D01*
X110737850Y-117817520D01*
X110758893Y-117830132D01*
X110778599Y-117844747D01*
X110796777Y-117861223D01*
X110813253Y-117879401D01*
X110827868Y-117899107D01*
X110840480Y-117920150D01*
X110850970Y-117942329D01*
X110859235Y-117965428D01*
X110865196Y-117989227D01*
X110868796Y-118013495D01*
X110870000Y-118037999D01*
X110870000Y-118938001D01*
X110868796Y-118962505D01*
X110865196Y-118986773D01*
X110859235Y-119010572D01*
X110850970Y-119033671D01*
X110840480Y-119055850D01*
X110827868Y-119076893D01*
X110813253Y-119096599D01*
X110796777Y-119114777D01*
X110778599Y-119131253D01*
X110758893Y-119145868D01*
X110737850Y-119158480D01*
X110715671Y-119168970D01*
X110692572Y-119177235D01*
X110668773Y-119183196D01*
X110644505Y-119186796D01*
X110620001Y-119188000D01*
X109969999Y-119188000D01*
X109945495Y-119186796D01*
X109921227Y-119183196D01*
X109897428Y-119177235D01*
X109874329Y-119168970D01*
X109852150Y-119158480D01*
X109831107Y-119145868D01*
X109811401Y-119131253D01*
X109793223Y-119114777D01*
X109776747Y-119096599D01*
X109762132Y-119076893D01*
X109749520Y-119055850D01*
X109739030Y-119033671D01*
X109730765Y-119010572D01*
X109724804Y-118986773D01*
X109721204Y-118962505D01*
X109720000Y-118938001D01*
X109720000Y-118037999D01*
X109721204Y-118013495D01*
X109724804Y-117989227D01*
X109730765Y-117965428D01*
X109739030Y-117942329D01*
X109749520Y-117920150D01*
X109762132Y-117899107D01*
X109776747Y-117879401D01*
X109793223Y-117861223D01*
X109811401Y-117844747D01*
X109831107Y-117830132D01*
X109852150Y-117817520D01*
X109874329Y-117807030D01*
X109897428Y-117798765D01*
X109921227Y-117792804D01*
X109945495Y-117789204D01*
X109969999Y-117788000D01*
X110620001Y-117788000D01*
X110644505Y-117789204D01*
X110644505Y-117789204D01*
G37*
D13*
X110295000Y-118488000D03*
D12*
G36*
X150697705Y-102369604D02*
G01*
X150721973Y-102373204D01*
X150745772Y-102379165D01*
X150768871Y-102387430D01*
X150791050Y-102397920D01*
X150812093Y-102410532D01*
X150831799Y-102425147D01*
X150849977Y-102441623D01*
X150866453Y-102459801D01*
X150881068Y-102479507D01*
X150893680Y-102500550D01*
X150904170Y-102522729D01*
X150912435Y-102545828D01*
X150918396Y-102569627D01*
X150921996Y-102593895D01*
X150923200Y-102618399D01*
X150923200Y-103268401D01*
X150921996Y-103292905D01*
X150918396Y-103317173D01*
X150912435Y-103340972D01*
X150904170Y-103364071D01*
X150893680Y-103386250D01*
X150881068Y-103407293D01*
X150866453Y-103426999D01*
X150849977Y-103445177D01*
X150831799Y-103461653D01*
X150812093Y-103476268D01*
X150791050Y-103488880D01*
X150768871Y-103499370D01*
X150745772Y-103507635D01*
X150721973Y-103513596D01*
X150697705Y-103517196D01*
X150673201Y-103518400D01*
X149773199Y-103518400D01*
X149748695Y-103517196D01*
X149724427Y-103513596D01*
X149700628Y-103507635D01*
X149677529Y-103499370D01*
X149655350Y-103488880D01*
X149634307Y-103476268D01*
X149614601Y-103461653D01*
X149596423Y-103445177D01*
X149579947Y-103426999D01*
X149565332Y-103407293D01*
X149552720Y-103386250D01*
X149542230Y-103364071D01*
X149533965Y-103340972D01*
X149528004Y-103317173D01*
X149524404Y-103292905D01*
X149523200Y-103268401D01*
X149523200Y-102618399D01*
X149524404Y-102593895D01*
X149528004Y-102569627D01*
X149533965Y-102545828D01*
X149542230Y-102522729D01*
X149552720Y-102500550D01*
X149565332Y-102479507D01*
X149579947Y-102459801D01*
X149596423Y-102441623D01*
X149614601Y-102425147D01*
X149634307Y-102410532D01*
X149655350Y-102397920D01*
X149677529Y-102387430D01*
X149700628Y-102379165D01*
X149724427Y-102373204D01*
X149748695Y-102369604D01*
X149773199Y-102368400D01*
X150673201Y-102368400D01*
X150697705Y-102369604D01*
X150697705Y-102369604D01*
G37*
D13*
X150223200Y-102943400D03*
D12*
G36*
X150697705Y-104419604D02*
G01*
X150721973Y-104423204D01*
X150745772Y-104429165D01*
X150768871Y-104437430D01*
X150791050Y-104447920D01*
X150812093Y-104460532D01*
X150831799Y-104475147D01*
X150849977Y-104491623D01*
X150866453Y-104509801D01*
X150881068Y-104529507D01*
X150893680Y-104550550D01*
X150904170Y-104572729D01*
X150912435Y-104595828D01*
X150918396Y-104619627D01*
X150921996Y-104643895D01*
X150923200Y-104668399D01*
X150923200Y-105318401D01*
X150921996Y-105342905D01*
X150918396Y-105367173D01*
X150912435Y-105390972D01*
X150904170Y-105414071D01*
X150893680Y-105436250D01*
X150881068Y-105457293D01*
X150866453Y-105476999D01*
X150849977Y-105495177D01*
X150831799Y-105511653D01*
X150812093Y-105526268D01*
X150791050Y-105538880D01*
X150768871Y-105549370D01*
X150745772Y-105557635D01*
X150721973Y-105563596D01*
X150697705Y-105567196D01*
X150673201Y-105568400D01*
X149773199Y-105568400D01*
X149748695Y-105567196D01*
X149724427Y-105563596D01*
X149700628Y-105557635D01*
X149677529Y-105549370D01*
X149655350Y-105538880D01*
X149634307Y-105526268D01*
X149614601Y-105511653D01*
X149596423Y-105495177D01*
X149579947Y-105476999D01*
X149565332Y-105457293D01*
X149552720Y-105436250D01*
X149542230Y-105414071D01*
X149533965Y-105390972D01*
X149528004Y-105367173D01*
X149524404Y-105342905D01*
X149523200Y-105318401D01*
X149523200Y-104668399D01*
X149524404Y-104643895D01*
X149528004Y-104619627D01*
X149533965Y-104595828D01*
X149542230Y-104572729D01*
X149552720Y-104550550D01*
X149565332Y-104529507D01*
X149579947Y-104509801D01*
X149596423Y-104491623D01*
X149614601Y-104475147D01*
X149634307Y-104460532D01*
X149655350Y-104447920D01*
X149677529Y-104437430D01*
X149700628Y-104429165D01*
X149724427Y-104423204D01*
X149748695Y-104419604D01*
X149773199Y-104418400D01*
X150673201Y-104418400D01*
X150697705Y-104419604D01*
X150697705Y-104419604D01*
G37*
D13*
X150223200Y-104993400D03*
D12*
G36*
X145372705Y-100269604D02*
G01*
X145396973Y-100273204D01*
X145420772Y-100279165D01*
X145443871Y-100287430D01*
X145466050Y-100297920D01*
X145487093Y-100310532D01*
X145506799Y-100325147D01*
X145524977Y-100341623D01*
X145541453Y-100359801D01*
X145556068Y-100379507D01*
X145568680Y-100400550D01*
X145579170Y-100422729D01*
X145587435Y-100445828D01*
X145593396Y-100469627D01*
X145596996Y-100493895D01*
X145598200Y-100518399D01*
X145598200Y-101418401D01*
X145596996Y-101442905D01*
X145593396Y-101467173D01*
X145587435Y-101490972D01*
X145579170Y-101514071D01*
X145568680Y-101536250D01*
X145556068Y-101557293D01*
X145541453Y-101576999D01*
X145524977Y-101595177D01*
X145506799Y-101611653D01*
X145487093Y-101626268D01*
X145466050Y-101638880D01*
X145443871Y-101649370D01*
X145420772Y-101657635D01*
X145396973Y-101663596D01*
X145372705Y-101667196D01*
X145348201Y-101668400D01*
X144698199Y-101668400D01*
X144673695Y-101667196D01*
X144649427Y-101663596D01*
X144625628Y-101657635D01*
X144602529Y-101649370D01*
X144580350Y-101638880D01*
X144559307Y-101626268D01*
X144539601Y-101611653D01*
X144521423Y-101595177D01*
X144504947Y-101576999D01*
X144490332Y-101557293D01*
X144477720Y-101536250D01*
X144467230Y-101514071D01*
X144458965Y-101490972D01*
X144453004Y-101467173D01*
X144449404Y-101442905D01*
X144448200Y-101418401D01*
X144448200Y-100518399D01*
X144449404Y-100493895D01*
X144453004Y-100469627D01*
X144458965Y-100445828D01*
X144467230Y-100422729D01*
X144477720Y-100400550D01*
X144490332Y-100379507D01*
X144504947Y-100359801D01*
X144521423Y-100341623D01*
X144539601Y-100325147D01*
X144559307Y-100310532D01*
X144580350Y-100297920D01*
X144602529Y-100287430D01*
X144625628Y-100279165D01*
X144649427Y-100273204D01*
X144673695Y-100269604D01*
X144698199Y-100268400D01*
X145348201Y-100268400D01*
X145372705Y-100269604D01*
X145372705Y-100269604D01*
G37*
D13*
X145023200Y-100968400D03*
D12*
G36*
X147422705Y-100269604D02*
G01*
X147446973Y-100273204D01*
X147470772Y-100279165D01*
X147493871Y-100287430D01*
X147516050Y-100297920D01*
X147537093Y-100310532D01*
X147556799Y-100325147D01*
X147574977Y-100341623D01*
X147591453Y-100359801D01*
X147606068Y-100379507D01*
X147618680Y-100400550D01*
X147629170Y-100422729D01*
X147637435Y-100445828D01*
X147643396Y-100469627D01*
X147646996Y-100493895D01*
X147648200Y-100518399D01*
X147648200Y-101418401D01*
X147646996Y-101442905D01*
X147643396Y-101467173D01*
X147637435Y-101490972D01*
X147629170Y-101514071D01*
X147618680Y-101536250D01*
X147606068Y-101557293D01*
X147591453Y-101576999D01*
X147574977Y-101595177D01*
X147556799Y-101611653D01*
X147537093Y-101626268D01*
X147516050Y-101638880D01*
X147493871Y-101649370D01*
X147470772Y-101657635D01*
X147446973Y-101663596D01*
X147422705Y-101667196D01*
X147398201Y-101668400D01*
X146748199Y-101668400D01*
X146723695Y-101667196D01*
X146699427Y-101663596D01*
X146675628Y-101657635D01*
X146652529Y-101649370D01*
X146630350Y-101638880D01*
X146609307Y-101626268D01*
X146589601Y-101611653D01*
X146571423Y-101595177D01*
X146554947Y-101576999D01*
X146540332Y-101557293D01*
X146527720Y-101536250D01*
X146517230Y-101514071D01*
X146508965Y-101490972D01*
X146503004Y-101467173D01*
X146499404Y-101442905D01*
X146498200Y-101418401D01*
X146498200Y-100518399D01*
X146499404Y-100493895D01*
X146503004Y-100469627D01*
X146508965Y-100445828D01*
X146517230Y-100422729D01*
X146527720Y-100400550D01*
X146540332Y-100379507D01*
X146554947Y-100359801D01*
X146571423Y-100341623D01*
X146589601Y-100325147D01*
X146609307Y-100310532D01*
X146630350Y-100297920D01*
X146652529Y-100287430D01*
X146675628Y-100279165D01*
X146699427Y-100273204D01*
X146723695Y-100269604D01*
X146748199Y-100268400D01*
X147398201Y-100268400D01*
X147422705Y-100269604D01*
X147422705Y-100269604D01*
G37*
D13*
X147073200Y-100968400D03*
D12*
G36*
X138274505Y-97251204D02*
G01*
X138298773Y-97254804D01*
X138322572Y-97260765D01*
X138345671Y-97269030D01*
X138367850Y-97279520D01*
X138388893Y-97292132D01*
X138408599Y-97306747D01*
X138426777Y-97323223D01*
X138443253Y-97341401D01*
X138457868Y-97361107D01*
X138470480Y-97382150D01*
X138480970Y-97404329D01*
X138489235Y-97427428D01*
X138495196Y-97451227D01*
X138498796Y-97475495D01*
X138500000Y-97499999D01*
X138500000Y-98150001D01*
X138498796Y-98174505D01*
X138495196Y-98198773D01*
X138489235Y-98222572D01*
X138480970Y-98245671D01*
X138470480Y-98267850D01*
X138457868Y-98288893D01*
X138443253Y-98308599D01*
X138426777Y-98326777D01*
X138408599Y-98343253D01*
X138388893Y-98357868D01*
X138367850Y-98370480D01*
X138345671Y-98380970D01*
X138322572Y-98389235D01*
X138298773Y-98395196D01*
X138274505Y-98398796D01*
X138250001Y-98400000D01*
X137349999Y-98400000D01*
X137325495Y-98398796D01*
X137301227Y-98395196D01*
X137277428Y-98389235D01*
X137254329Y-98380970D01*
X137232150Y-98370480D01*
X137211107Y-98357868D01*
X137191401Y-98343253D01*
X137173223Y-98326777D01*
X137156747Y-98308599D01*
X137142132Y-98288893D01*
X137129520Y-98267850D01*
X137119030Y-98245671D01*
X137110765Y-98222572D01*
X137104804Y-98198773D01*
X137101204Y-98174505D01*
X137100000Y-98150001D01*
X137100000Y-97499999D01*
X137101204Y-97475495D01*
X137104804Y-97451227D01*
X137110765Y-97427428D01*
X137119030Y-97404329D01*
X137129520Y-97382150D01*
X137142132Y-97361107D01*
X137156747Y-97341401D01*
X137173223Y-97323223D01*
X137191401Y-97306747D01*
X137211107Y-97292132D01*
X137232150Y-97279520D01*
X137254329Y-97269030D01*
X137277428Y-97260765D01*
X137301227Y-97254804D01*
X137325495Y-97251204D01*
X137349999Y-97250000D01*
X138250001Y-97250000D01*
X138274505Y-97251204D01*
X138274505Y-97251204D01*
G37*
D13*
X137800000Y-97825000D03*
D12*
G36*
X138274505Y-99301204D02*
G01*
X138298773Y-99304804D01*
X138322572Y-99310765D01*
X138345671Y-99319030D01*
X138367850Y-99329520D01*
X138388893Y-99342132D01*
X138408599Y-99356747D01*
X138426777Y-99373223D01*
X138443253Y-99391401D01*
X138457868Y-99411107D01*
X138470480Y-99432150D01*
X138480970Y-99454329D01*
X138489235Y-99477428D01*
X138495196Y-99501227D01*
X138498796Y-99525495D01*
X138500000Y-99549999D01*
X138500000Y-100200001D01*
X138498796Y-100224505D01*
X138495196Y-100248773D01*
X138489235Y-100272572D01*
X138480970Y-100295671D01*
X138470480Y-100317850D01*
X138457868Y-100338893D01*
X138443253Y-100358599D01*
X138426777Y-100376777D01*
X138408599Y-100393253D01*
X138388893Y-100407868D01*
X138367850Y-100420480D01*
X138345671Y-100430970D01*
X138322572Y-100439235D01*
X138298773Y-100445196D01*
X138274505Y-100448796D01*
X138250001Y-100450000D01*
X137349999Y-100450000D01*
X137325495Y-100448796D01*
X137301227Y-100445196D01*
X137277428Y-100439235D01*
X137254329Y-100430970D01*
X137232150Y-100420480D01*
X137211107Y-100407868D01*
X137191401Y-100393253D01*
X137173223Y-100376777D01*
X137156747Y-100358599D01*
X137142132Y-100338893D01*
X137129520Y-100317850D01*
X137119030Y-100295671D01*
X137110765Y-100272572D01*
X137104804Y-100248773D01*
X137101204Y-100224505D01*
X137100000Y-100200001D01*
X137100000Y-99549999D01*
X137101204Y-99525495D01*
X137104804Y-99501227D01*
X137110765Y-99477428D01*
X137119030Y-99454329D01*
X137129520Y-99432150D01*
X137142132Y-99411107D01*
X137156747Y-99391401D01*
X137173223Y-99373223D01*
X137191401Y-99356747D01*
X137211107Y-99342132D01*
X137232150Y-99329520D01*
X137254329Y-99319030D01*
X137277428Y-99310765D01*
X137301227Y-99304804D01*
X137325495Y-99301204D01*
X137349999Y-99300000D01*
X138250001Y-99300000D01*
X138274505Y-99301204D01*
X138274505Y-99301204D01*
G37*
D13*
X137800000Y-99875000D03*
D12*
G36*
X147700905Y-112331704D02*
G01*
X147725173Y-112335304D01*
X147748972Y-112341265D01*
X147772071Y-112349530D01*
X147794250Y-112360020D01*
X147815293Y-112372632D01*
X147834999Y-112387247D01*
X147853177Y-112403723D01*
X147869653Y-112421901D01*
X147884268Y-112441607D01*
X147896880Y-112462650D01*
X147907370Y-112484829D01*
X147915635Y-112507928D01*
X147921596Y-112531727D01*
X147925196Y-112555995D01*
X147926400Y-112580499D01*
X147926400Y-113230501D01*
X147925196Y-113255005D01*
X147921596Y-113279273D01*
X147915635Y-113303072D01*
X147907370Y-113326171D01*
X147896880Y-113348350D01*
X147884268Y-113369393D01*
X147869653Y-113389099D01*
X147853177Y-113407277D01*
X147834999Y-113423753D01*
X147815293Y-113438368D01*
X147794250Y-113450980D01*
X147772071Y-113461470D01*
X147748972Y-113469735D01*
X147725173Y-113475696D01*
X147700905Y-113479296D01*
X147676401Y-113480500D01*
X146776399Y-113480500D01*
X146751895Y-113479296D01*
X146727627Y-113475696D01*
X146703828Y-113469735D01*
X146680729Y-113461470D01*
X146658550Y-113450980D01*
X146637507Y-113438368D01*
X146617801Y-113423753D01*
X146599623Y-113407277D01*
X146583147Y-113389099D01*
X146568532Y-113369393D01*
X146555920Y-113348350D01*
X146545430Y-113326171D01*
X146537165Y-113303072D01*
X146531204Y-113279273D01*
X146527604Y-113255005D01*
X146526400Y-113230501D01*
X146526400Y-112580499D01*
X146527604Y-112555995D01*
X146531204Y-112531727D01*
X146537165Y-112507928D01*
X146545430Y-112484829D01*
X146555920Y-112462650D01*
X146568532Y-112441607D01*
X146583147Y-112421901D01*
X146599623Y-112403723D01*
X146617801Y-112387247D01*
X146637507Y-112372632D01*
X146658550Y-112360020D01*
X146680729Y-112349530D01*
X146703828Y-112341265D01*
X146727627Y-112335304D01*
X146751895Y-112331704D01*
X146776399Y-112330500D01*
X147676401Y-112330500D01*
X147700905Y-112331704D01*
X147700905Y-112331704D01*
G37*
D13*
X147226400Y-112905500D03*
D12*
G36*
X147700905Y-114381704D02*
G01*
X147725173Y-114385304D01*
X147748972Y-114391265D01*
X147772071Y-114399530D01*
X147794250Y-114410020D01*
X147815293Y-114422632D01*
X147834999Y-114437247D01*
X147853177Y-114453723D01*
X147869653Y-114471901D01*
X147884268Y-114491607D01*
X147896880Y-114512650D01*
X147907370Y-114534829D01*
X147915635Y-114557928D01*
X147921596Y-114581727D01*
X147925196Y-114605995D01*
X147926400Y-114630499D01*
X147926400Y-115280501D01*
X147925196Y-115305005D01*
X147921596Y-115329273D01*
X147915635Y-115353072D01*
X147907370Y-115376171D01*
X147896880Y-115398350D01*
X147884268Y-115419393D01*
X147869653Y-115439099D01*
X147853177Y-115457277D01*
X147834999Y-115473753D01*
X147815293Y-115488368D01*
X147794250Y-115500980D01*
X147772071Y-115511470D01*
X147748972Y-115519735D01*
X147725173Y-115525696D01*
X147700905Y-115529296D01*
X147676401Y-115530500D01*
X146776399Y-115530500D01*
X146751895Y-115529296D01*
X146727627Y-115525696D01*
X146703828Y-115519735D01*
X146680729Y-115511470D01*
X146658550Y-115500980D01*
X146637507Y-115488368D01*
X146617801Y-115473753D01*
X146599623Y-115457277D01*
X146583147Y-115439099D01*
X146568532Y-115419393D01*
X146555920Y-115398350D01*
X146545430Y-115376171D01*
X146537165Y-115353072D01*
X146531204Y-115329273D01*
X146527604Y-115305005D01*
X146526400Y-115280501D01*
X146526400Y-114630499D01*
X146527604Y-114605995D01*
X146531204Y-114581727D01*
X146537165Y-114557928D01*
X146545430Y-114534829D01*
X146555920Y-114512650D01*
X146568532Y-114491607D01*
X146583147Y-114471901D01*
X146599623Y-114453723D01*
X146617801Y-114437247D01*
X146637507Y-114422632D01*
X146658550Y-114410020D01*
X146680729Y-114399530D01*
X146703828Y-114391265D01*
X146727627Y-114385304D01*
X146751895Y-114381704D01*
X146776399Y-114380500D01*
X147676401Y-114380500D01*
X147700905Y-114381704D01*
X147700905Y-114381704D01*
G37*
D13*
X147226400Y-114955500D03*
D12*
G36*
X145700905Y-114381704D02*
G01*
X145725173Y-114385304D01*
X145748972Y-114391265D01*
X145772071Y-114399530D01*
X145794250Y-114410020D01*
X145815293Y-114422632D01*
X145834999Y-114437247D01*
X145853177Y-114453723D01*
X145869653Y-114471901D01*
X145884268Y-114491607D01*
X145896880Y-114512650D01*
X145907370Y-114534829D01*
X145915635Y-114557928D01*
X145921596Y-114581727D01*
X145925196Y-114605995D01*
X145926400Y-114630499D01*
X145926400Y-115280501D01*
X145925196Y-115305005D01*
X145921596Y-115329273D01*
X145915635Y-115353072D01*
X145907370Y-115376171D01*
X145896880Y-115398350D01*
X145884268Y-115419393D01*
X145869653Y-115439099D01*
X145853177Y-115457277D01*
X145834999Y-115473753D01*
X145815293Y-115488368D01*
X145794250Y-115500980D01*
X145772071Y-115511470D01*
X145748972Y-115519735D01*
X145725173Y-115525696D01*
X145700905Y-115529296D01*
X145676401Y-115530500D01*
X144776399Y-115530500D01*
X144751895Y-115529296D01*
X144727627Y-115525696D01*
X144703828Y-115519735D01*
X144680729Y-115511470D01*
X144658550Y-115500980D01*
X144637507Y-115488368D01*
X144617801Y-115473753D01*
X144599623Y-115457277D01*
X144583147Y-115439099D01*
X144568532Y-115419393D01*
X144555920Y-115398350D01*
X144545430Y-115376171D01*
X144537165Y-115353072D01*
X144531204Y-115329273D01*
X144527604Y-115305005D01*
X144526400Y-115280501D01*
X144526400Y-114630499D01*
X144527604Y-114605995D01*
X144531204Y-114581727D01*
X144537165Y-114557928D01*
X144545430Y-114534829D01*
X144555920Y-114512650D01*
X144568532Y-114491607D01*
X144583147Y-114471901D01*
X144599623Y-114453723D01*
X144617801Y-114437247D01*
X144637507Y-114422632D01*
X144658550Y-114410020D01*
X144680729Y-114399530D01*
X144703828Y-114391265D01*
X144727627Y-114385304D01*
X144751895Y-114381704D01*
X144776399Y-114380500D01*
X145676401Y-114380500D01*
X145700905Y-114381704D01*
X145700905Y-114381704D01*
G37*
D13*
X145226400Y-114955500D03*
D12*
G36*
X145700905Y-112331704D02*
G01*
X145725173Y-112335304D01*
X145748972Y-112341265D01*
X145772071Y-112349530D01*
X145794250Y-112360020D01*
X145815293Y-112372632D01*
X145834999Y-112387247D01*
X145853177Y-112403723D01*
X145869653Y-112421901D01*
X145884268Y-112441607D01*
X145896880Y-112462650D01*
X145907370Y-112484829D01*
X145915635Y-112507928D01*
X145921596Y-112531727D01*
X145925196Y-112555995D01*
X145926400Y-112580499D01*
X145926400Y-113230501D01*
X145925196Y-113255005D01*
X145921596Y-113279273D01*
X145915635Y-113303072D01*
X145907370Y-113326171D01*
X145896880Y-113348350D01*
X145884268Y-113369393D01*
X145869653Y-113389099D01*
X145853177Y-113407277D01*
X145834999Y-113423753D01*
X145815293Y-113438368D01*
X145794250Y-113450980D01*
X145772071Y-113461470D01*
X145748972Y-113469735D01*
X145725173Y-113475696D01*
X145700905Y-113479296D01*
X145676401Y-113480500D01*
X144776399Y-113480500D01*
X144751895Y-113479296D01*
X144727627Y-113475696D01*
X144703828Y-113469735D01*
X144680729Y-113461470D01*
X144658550Y-113450980D01*
X144637507Y-113438368D01*
X144617801Y-113423753D01*
X144599623Y-113407277D01*
X144583147Y-113389099D01*
X144568532Y-113369393D01*
X144555920Y-113348350D01*
X144545430Y-113326171D01*
X144537165Y-113303072D01*
X144531204Y-113279273D01*
X144527604Y-113255005D01*
X144526400Y-113230501D01*
X144526400Y-112580499D01*
X144527604Y-112555995D01*
X144531204Y-112531727D01*
X144537165Y-112507928D01*
X144545430Y-112484829D01*
X144555920Y-112462650D01*
X144568532Y-112441607D01*
X144583147Y-112421901D01*
X144599623Y-112403723D01*
X144617801Y-112387247D01*
X144637507Y-112372632D01*
X144658550Y-112360020D01*
X144680729Y-112349530D01*
X144703828Y-112341265D01*
X144727627Y-112335304D01*
X144751895Y-112331704D01*
X144776399Y-112330500D01*
X145676401Y-112330500D01*
X145700905Y-112331704D01*
X145700905Y-112331704D01*
G37*
D13*
X145226400Y-112905500D03*
D12*
G36*
X131674505Y-112351204D02*
G01*
X131698773Y-112354804D01*
X131722572Y-112360765D01*
X131745671Y-112369030D01*
X131767850Y-112379520D01*
X131788893Y-112392132D01*
X131808599Y-112406747D01*
X131826777Y-112423223D01*
X131843253Y-112441401D01*
X131857868Y-112461107D01*
X131870480Y-112482150D01*
X131880970Y-112504329D01*
X131889235Y-112527428D01*
X131895196Y-112551227D01*
X131898796Y-112575495D01*
X131900000Y-112599999D01*
X131900000Y-113250001D01*
X131898796Y-113274505D01*
X131895196Y-113298773D01*
X131889235Y-113322572D01*
X131880970Y-113345671D01*
X131870480Y-113367850D01*
X131857868Y-113388893D01*
X131843253Y-113408599D01*
X131826777Y-113426777D01*
X131808599Y-113443253D01*
X131788893Y-113457868D01*
X131767850Y-113470480D01*
X131745671Y-113480970D01*
X131722572Y-113489235D01*
X131698773Y-113495196D01*
X131674505Y-113498796D01*
X131650001Y-113500000D01*
X130749999Y-113500000D01*
X130725495Y-113498796D01*
X130701227Y-113495196D01*
X130677428Y-113489235D01*
X130654329Y-113480970D01*
X130632150Y-113470480D01*
X130611107Y-113457868D01*
X130591401Y-113443253D01*
X130573223Y-113426777D01*
X130556747Y-113408599D01*
X130542132Y-113388893D01*
X130529520Y-113367850D01*
X130519030Y-113345671D01*
X130510765Y-113322572D01*
X130504804Y-113298773D01*
X130501204Y-113274505D01*
X130500000Y-113250001D01*
X130500000Y-112599999D01*
X130501204Y-112575495D01*
X130504804Y-112551227D01*
X130510765Y-112527428D01*
X130519030Y-112504329D01*
X130529520Y-112482150D01*
X130542132Y-112461107D01*
X130556747Y-112441401D01*
X130573223Y-112423223D01*
X130591401Y-112406747D01*
X130611107Y-112392132D01*
X130632150Y-112379520D01*
X130654329Y-112369030D01*
X130677428Y-112360765D01*
X130701227Y-112354804D01*
X130725495Y-112351204D01*
X130749999Y-112350000D01*
X131650001Y-112350000D01*
X131674505Y-112351204D01*
X131674505Y-112351204D01*
G37*
D13*
X131200000Y-112925000D03*
D12*
G36*
X131674505Y-114401204D02*
G01*
X131698773Y-114404804D01*
X131722572Y-114410765D01*
X131745671Y-114419030D01*
X131767850Y-114429520D01*
X131788893Y-114442132D01*
X131808599Y-114456747D01*
X131826777Y-114473223D01*
X131843253Y-114491401D01*
X131857868Y-114511107D01*
X131870480Y-114532150D01*
X131880970Y-114554329D01*
X131889235Y-114577428D01*
X131895196Y-114601227D01*
X131898796Y-114625495D01*
X131900000Y-114649999D01*
X131900000Y-115300001D01*
X131898796Y-115324505D01*
X131895196Y-115348773D01*
X131889235Y-115372572D01*
X131880970Y-115395671D01*
X131870480Y-115417850D01*
X131857868Y-115438893D01*
X131843253Y-115458599D01*
X131826777Y-115476777D01*
X131808599Y-115493253D01*
X131788893Y-115507868D01*
X131767850Y-115520480D01*
X131745671Y-115530970D01*
X131722572Y-115539235D01*
X131698773Y-115545196D01*
X131674505Y-115548796D01*
X131650001Y-115550000D01*
X130749999Y-115550000D01*
X130725495Y-115548796D01*
X130701227Y-115545196D01*
X130677428Y-115539235D01*
X130654329Y-115530970D01*
X130632150Y-115520480D01*
X130611107Y-115507868D01*
X130591401Y-115493253D01*
X130573223Y-115476777D01*
X130556747Y-115458599D01*
X130542132Y-115438893D01*
X130529520Y-115417850D01*
X130519030Y-115395671D01*
X130510765Y-115372572D01*
X130504804Y-115348773D01*
X130501204Y-115324505D01*
X130500000Y-115300001D01*
X130500000Y-114649999D01*
X130501204Y-114625495D01*
X130504804Y-114601227D01*
X130510765Y-114577428D01*
X130519030Y-114554329D01*
X130529520Y-114532150D01*
X130542132Y-114511107D01*
X130556747Y-114491401D01*
X130573223Y-114473223D01*
X130591401Y-114456747D01*
X130611107Y-114442132D01*
X130632150Y-114429520D01*
X130654329Y-114419030D01*
X130677428Y-114410765D01*
X130701227Y-114404804D01*
X130725495Y-114401204D01*
X130749999Y-114400000D01*
X131650001Y-114400000D01*
X131674505Y-114401204D01*
X131674505Y-114401204D01*
G37*
D13*
X131200000Y-114975000D03*
D12*
G36*
X158659703Y-121500722D02*
G01*
X158674264Y-121502882D01*
X158688543Y-121506459D01*
X158702403Y-121511418D01*
X158715710Y-121517712D01*
X158728336Y-121525280D01*
X158740159Y-121534048D01*
X158751066Y-121543934D01*
X158760952Y-121554841D01*
X158769720Y-121566664D01*
X158777288Y-121579290D01*
X158783582Y-121592597D01*
X158788541Y-121606457D01*
X158792118Y-121620736D01*
X158794278Y-121635297D01*
X158795000Y-121650000D01*
X158795000Y-123100000D01*
X158794278Y-123114703D01*
X158792118Y-123129264D01*
X158788541Y-123143543D01*
X158783582Y-123157403D01*
X158777288Y-123170710D01*
X158769720Y-123183336D01*
X158760952Y-123195159D01*
X158751066Y-123206066D01*
X158740159Y-123215952D01*
X158728336Y-123224720D01*
X158715710Y-123232288D01*
X158702403Y-123238582D01*
X158688543Y-123243541D01*
X158674264Y-123247118D01*
X158659703Y-123249278D01*
X158645000Y-123250000D01*
X158345000Y-123250000D01*
X158330297Y-123249278D01*
X158315736Y-123247118D01*
X158301457Y-123243541D01*
X158287597Y-123238582D01*
X158274290Y-123232288D01*
X158261664Y-123224720D01*
X158249841Y-123215952D01*
X158238934Y-123206066D01*
X158229048Y-123195159D01*
X158220280Y-123183336D01*
X158212712Y-123170710D01*
X158206418Y-123157403D01*
X158201459Y-123143543D01*
X158197882Y-123129264D01*
X158195722Y-123114703D01*
X158195000Y-123100000D01*
X158195000Y-121650000D01*
X158195722Y-121635297D01*
X158197882Y-121620736D01*
X158201459Y-121606457D01*
X158206418Y-121592597D01*
X158212712Y-121579290D01*
X158220280Y-121566664D01*
X158229048Y-121554841D01*
X158238934Y-121543934D01*
X158249841Y-121534048D01*
X158261664Y-121525280D01*
X158274290Y-121517712D01*
X158287597Y-121511418D01*
X158301457Y-121506459D01*
X158315736Y-121502882D01*
X158330297Y-121500722D01*
X158345000Y-121500000D01*
X158645000Y-121500000D01*
X158659703Y-121500722D01*
X158659703Y-121500722D01*
G37*
D28*
X158495000Y-122375000D03*
D12*
G36*
X159929703Y-121500722D02*
G01*
X159944264Y-121502882D01*
X159958543Y-121506459D01*
X159972403Y-121511418D01*
X159985710Y-121517712D01*
X159998336Y-121525280D01*
X160010159Y-121534048D01*
X160021066Y-121543934D01*
X160030952Y-121554841D01*
X160039720Y-121566664D01*
X160047288Y-121579290D01*
X160053582Y-121592597D01*
X160058541Y-121606457D01*
X160062118Y-121620736D01*
X160064278Y-121635297D01*
X160065000Y-121650000D01*
X160065000Y-123100000D01*
X160064278Y-123114703D01*
X160062118Y-123129264D01*
X160058541Y-123143543D01*
X160053582Y-123157403D01*
X160047288Y-123170710D01*
X160039720Y-123183336D01*
X160030952Y-123195159D01*
X160021066Y-123206066D01*
X160010159Y-123215952D01*
X159998336Y-123224720D01*
X159985710Y-123232288D01*
X159972403Y-123238582D01*
X159958543Y-123243541D01*
X159944264Y-123247118D01*
X159929703Y-123249278D01*
X159915000Y-123250000D01*
X159615000Y-123250000D01*
X159600297Y-123249278D01*
X159585736Y-123247118D01*
X159571457Y-123243541D01*
X159557597Y-123238582D01*
X159544290Y-123232288D01*
X159531664Y-123224720D01*
X159519841Y-123215952D01*
X159508934Y-123206066D01*
X159499048Y-123195159D01*
X159490280Y-123183336D01*
X159482712Y-123170710D01*
X159476418Y-123157403D01*
X159471459Y-123143543D01*
X159467882Y-123129264D01*
X159465722Y-123114703D01*
X159465000Y-123100000D01*
X159465000Y-121650000D01*
X159465722Y-121635297D01*
X159467882Y-121620736D01*
X159471459Y-121606457D01*
X159476418Y-121592597D01*
X159482712Y-121579290D01*
X159490280Y-121566664D01*
X159499048Y-121554841D01*
X159508934Y-121543934D01*
X159519841Y-121534048D01*
X159531664Y-121525280D01*
X159544290Y-121517712D01*
X159557597Y-121511418D01*
X159571457Y-121506459D01*
X159585736Y-121502882D01*
X159600297Y-121500722D01*
X159615000Y-121500000D01*
X159915000Y-121500000D01*
X159929703Y-121500722D01*
X159929703Y-121500722D01*
G37*
D28*
X159765000Y-122375000D03*
D12*
G36*
X161199703Y-121500722D02*
G01*
X161214264Y-121502882D01*
X161228543Y-121506459D01*
X161242403Y-121511418D01*
X161255710Y-121517712D01*
X161268336Y-121525280D01*
X161280159Y-121534048D01*
X161291066Y-121543934D01*
X161300952Y-121554841D01*
X161309720Y-121566664D01*
X161317288Y-121579290D01*
X161323582Y-121592597D01*
X161328541Y-121606457D01*
X161332118Y-121620736D01*
X161334278Y-121635297D01*
X161335000Y-121650000D01*
X161335000Y-123100000D01*
X161334278Y-123114703D01*
X161332118Y-123129264D01*
X161328541Y-123143543D01*
X161323582Y-123157403D01*
X161317288Y-123170710D01*
X161309720Y-123183336D01*
X161300952Y-123195159D01*
X161291066Y-123206066D01*
X161280159Y-123215952D01*
X161268336Y-123224720D01*
X161255710Y-123232288D01*
X161242403Y-123238582D01*
X161228543Y-123243541D01*
X161214264Y-123247118D01*
X161199703Y-123249278D01*
X161185000Y-123250000D01*
X160885000Y-123250000D01*
X160870297Y-123249278D01*
X160855736Y-123247118D01*
X160841457Y-123243541D01*
X160827597Y-123238582D01*
X160814290Y-123232288D01*
X160801664Y-123224720D01*
X160789841Y-123215952D01*
X160778934Y-123206066D01*
X160769048Y-123195159D01*
X160760280Y-123183336D01*
X160752712Y-123170710D01*
X160746418Y-123157403D01*
X160741459Y-123143543D01*
X160737882Y-123129264D01*
X160735722Y-123114703D01*
X160735000Y-123100000D01*
X160735000Y-121650000D01*
X160735722Y-121635297D01*
X160737882Y-121620736D01*
X160741459Y-121606457D01*
X160746418Y-121592597D01*
X160752712Y-121579290D01*
X160760280Y-121566664D01*
X160769048Y-121554841D01*
X160778934Y-121543934D01*
X160789841Y-121534048D01*
X160801664Y-121525280D01*
X160814290Y-121517712D01*
X160827597Y-121511418D01*
X160841457Y-121506459D01*
X160855736Y-121502882D01*
X160870297Y-121500722D01*
X160885000Y-121500000D01*
X161185000Y-121500000D01*
X161199703Y-121500722D01*
X161199703Y-121500722D01*
G37*
D28*
X161035000Y-122375000D03*
D12*
G36*
X162469703Y-121500722D02*
G01*
X162484264Y-121502882D01*
X162498543Y-121506459D01*
X162512403Y-121511418D01*
X162525710Y-121517712D01*
X162538336Y-121525280D01*
X162550159Y-121534048D01*
X162561066Y-121543934D01*
X162570952Y-121554841D01*
X162579720Y-121566664D01*
X162587288Y-121579290D01*
X162593582Y-121592597D01*
X162598541Y-121606457D01*
X162602118Y-121620736D01*
X162604278Y-121635297D01*
X162605000Y-121650000D01*
X162605000Y-123100000D01*
X162604278Y-123114703D01*
X162602118Y-123129264D01*
X162598541Y-123143543D01*
X162593582Y-123157403D01*
X162587288Y-123170710D01*
X162579720Y-123183336D01*
X162570952Y-123195159D01*
X162561066Y-123206066D01*
X162550159Y-123215952D01*
X162538336Y-123224720D01*
X162525710Y-123232288D01*
X162512403Y-123238582D01*
X162498543Y-123243541D01*
X162484264Y-123247118D01*
X162469703Y-123249278D01*
X162455000Y-123250000D01*
X162155000Y-123250000D01*
X162140297Y-123249278D01*
X162125736Y-123247118D01*
X162111457Y-123243541D01*
X162097597Y-123238582D01*
X162084290Y-123232288D01*
X162071664Y-123224720D01*
X162059841Y-123215952D01*
X162048934Y-123206066D01*
X162039048Y-123195159D01*
X162030280Y-123183336D01*
X162022712Y-123170710D01*
X162016418Y-123157403D01*
X162011459Y-123143543D01*
X162007882Y-123129264D01*
X162005722Y-123114703D01*
X162005000Y-123100000D01*
X162005000Y-121650000D01*
X162005722Y-121635297D01*
X162007882Y-121620736D01*
X162011459Y-121606457D01*
X162016418Y-121592597D01*
X162022712Y-121579290D01*
X162030280Y-121566664D01*
X162039048Y-121554841D01*
X162048934Y-121543934D01*
X162059841Y-121534048D01*
X162071664Y-121525280D01*
X162084290Y-121517712D01*
X162097597Y-121511418D01*
X162111457Y-121506459D01*
X162125736Y-121502882D01*
X162140297Y-121500722D01*
X162155000Y-121500000D01*
X162455000Y-121500000D01*
X162469703Y-121500722D01*
X162469703Y-121500722D01*
G37*
D28*
X162305000Y-122375000D03*
D12*
G36*
X162469703Y-116350722D02*
G01*
X162484264Y-116352882D01*
X162498543Y-116356459D01*
X162512403Y-116361418D01*
X162525710Y-116367712D01*
X162538336Y-116375280D01*
X162550159Y-116384048D01*
X162561066Y-116393934D01*
X162570952Y-116404841D01*
X162579720Y-116416664D01*
X162587288Y-116429290D01*
X162593582Y-116442597D01*
X162598541Y-116456457D01*
X162602118Y-116470736D01*
X162604278Y-116485297D01*
X162605000Y-116500000D01*
X162605000Y-117950000D01*
X162604278Y-117964703D01*
X162602118Y-117979264D01*
X162598541Y-117993543D01*
X162593582Y-118007403D01*
X162587288Y-118020710D01*
X162579720Y-118033336D01*
X162570952Y-118045159D01*
X162561066Y-118056066D01*
X162550159Y-118065952D01*
X162538336Y-118074720D01*
X162525710Y-118082288D01*
X162512403Y-118088582D01*
X162498543Y-118093541D01*
X162484264Y-118097118D01*
X162469703Y-118099278D01*
X162455000Y-118100000D01*
X162155000Y-118100000D01*
X162140297Y-118099278D01*
X162125736Y-118097118D01*
X162111457Y-118093541D01*
X162097597Y-118088582D01*
X162084290Y-118082288D01*
X162071664Y-118074720D01*
X162059841Y-118065952D01*
X162048934Y-118056066D01*
X162039048Y-118045159D01*
X162030280Y-118033336D01*
X162022712Y-118020710D01*
X162016418Y-118007403D01*
X162011459Y-117993543D01*
X162007882Y-117979264D01*
X162005722Y-117964703D01*
X162005000Y-117950000D01*
X162005000Y-116500000D01*
X162005722Y-116485297D01*
X162007882Y-116470736D01*
X162011459Y-116456457D01*
X162016418Y-116442597D01*
X162022712Y-116429290D01*
X162030280Y-116416664D01*
X162039048Y-116404841D01*
X162048934Y-116393934D01*
X162059841Y-116384048D01*
X162071664Y-116375280D01*
X162084290Y-116367712D01*
X162097597Y-116361418D01*
X162111457Y-116356459D01*
X162125736Y-116352882D01*
X162140297Y-116350722D01*
X162155000Y-116350000D01*
X162455000Y-116350000D01*
X162469703Y-116350722D01*
X162469703Y-116350722D01*
G37*
D28*
X162305000Y-117225000D03*
D12*
G36*
X161199703Y-116350722D02*
G01*
X161214264Y-116352882D01*
X161228543Y-116356459D01*
X161242403Y-116361418D01*
X161255710Y-116367712D01*
X161268336Y-116375280D01*
X161280159Y-116384048D01*
X161291066Y-116393934D01*
X161300952Y-116404841D01*
X161309720Y-116416664D01*
X161317288Y-116429290D01*
X161323582Y-116442597D01*
X161328541Y-116456457D01*
X161332118Y-116470736D01*
X161334278Y-116485297D01*
X161335000Y-116500000D01*
X161335000Y-117950000D01*
X161334278Y-117964703D01*
X161332118Y-117979264D01*
X161328541Y-117993543D01*
X161323582Y-118007403D01*
X161317288Y-118020710D01*
X161309720Y-118033336D01*
X161300952Y-118045159D01*
X161291066Y-118056066D01*
X161280159Y-118065952D01*
X161268336Y-118074720D01*
X161255710Y-118082288D01*
X161242403Y-118088582D01*
X161228543Y-118093541D01*
X161214264Y-118097118D01*
X161199703Y-118099278D01*
X161185000Y-118100000D01*
X160885000Y-118100000D01*
X160870297Y-118099278D01*
X160855736Y-118097118D01*
X160841457Y-118093541D01*
X160827597Y-118088582D01*
X160814290Y-118082288D01*
X160801664Y-118074720D01*
X160789841Y-118065952D01*
X160778934Y-118056066D01*
X160769048Y-118045159D01*
X160760280Y-118033336D01*
X160752712Y-118020710D01*
X160746418Y-118007403D01*
X160741459Y-117993543D01*
X160737882Y-117979264D01*
X160735722Y-117964703D01*
X160735000Y-117950000D01*
X160735000Y-116500000D01*
X160735722Y-116485297D01*
X160737882Y-116470736D01*
X160741459Y-116456457D01*
X160746418Y-116442597D01*
X160752712Y-116429290D01*
X160760280Y-116416664D01*
X160769048Y-116404841D01*
X160778934Y-116393934D01*
X160789841Y-116384048D01*
X160801664Y-116375280D01*
X160814290Y-116367712D01*
X160827597Y-116361418D01*
X160841457Y-116356459D01*
X160855736Y-116352882D01*
X160870297Y-116350722D01*
X160885000Y-116350000D01*
X161185000Y-116350000D01*
X161199703Y-116350722D01*
X161199703Y-116350722D01*
G37*
D28*
X161035000Y-117225000D03*
D12*
G36*
X159929703Y-116350722D02*
G01*
X159944264Y-116352882D01*
X159958543Y-116356459D01*
X159972403Y-116361418D01*
X159985710Y-116367712D01*
X159998336Y-116375280D01*
X160010159Y-116384048D01*
X160021066Y-116393934D01*
X160030952Y-116404841D01*
X160039720Y-116416664D01*
X160047288Y-116429290D01*
X160053582Y-116442597D01*
X160058541Y-116456457D01*
X160062118Y-116470736D01*
X160064278Y-116485297D01*
X160065000Y-116500000D01*
X160065000Y-117950000D01*
X160064278Y-117964703D01*
X160062118Y-117979264D01*
X160058541Y-117993543D01*
X160053582Y-118007403D01*
X160047288Y-118020710D01*
X160039720Y-118033336D01*
X160030952Y-118045159D01*
X160021066Y-118056066D01*
X160010159Y-118065952D01*
X159998336Y-118074720D01*
X159985710Y-118082288D01*
X159972403Y-118088582D01*
X159958543Y-118093541D01*
X159944264Y-118097118D01*
X159929703Y-118099278D01*
X159915000Y-118100000D01*
X159615000Y-118100000D01*
X159600297Y-118099278D01*
X159585736Y-118097118D01*
X159571457Y-118093541D01*
X159557597Y-118088582D01*
X159544290Y-118082288D01*
X159531664Y-118074720D01*
X159519841Y-118065952D01*
X159508934Y-118056066D01*
X159499048Y-118045159D01*
X159490280Y-118033336D01*
X159482712Y-118020710D01*
X159476418Y-118007403D01*
X159471459Y-117993543D01*
X159467882Y-117979264D01*
X159465722Y-117964703D01*
X159465000Y-117950000D01*
X159465000Y-116500000D01*
X159465722Y-116485297D01*
X159467882Y-116470736D01*
X159471459Y-116456457D01*
X159476418Y-116442597D01*
X159482712Y-116429290D01*
X159490280Y-116416664D01*
X159499048Y-116404841D01*
X159508934Y-116393934D01*
X159519841Y-116384048D01*
X159531664Y-116375280D01*
X159544290Y-116367712D01*
X159557597Y-116361418D01*
X159571457Y-116356459D01*
X159585736Y-116352882D01*
X159600297Y-116350722D01*
X159615000Y-116350000D01*
X159915000Y-116350000D01*
X159929703Y-116350722D01*
X159929703Y-116350722D01*
G37*
D28*
X159765000Y-117225000D03*
D12*
G36*
X158659703Y-116350722D02*
G01*
X158674264Y-116352882D01*
X158688543Y-116356459D01*
X158702403Y-116361418D01*
X158715710Y-116367712D01*
X158728336Y-116375280D01*
X158740159Y-116384048D01*
X158751066Y-116393934D01*
X158760952Y-116404841D01*
X158769720Y-116416664D01*
X158777288Y-116429290D01*
X158783582Y-116442597D01*
X158788541Y-116456457D01*
X158792118Y-116470736D01*
X158794278Y-116485297D01*
X158795000Y-116500000D01*
X158795000Y-117950000D01*
X158794278Y-117964703D01*
X158792118Y-117979264D01*
X158788541Y-117993543D01*
X158783582Y-118007403D01*
X158777288Y-118020710D01*
X158769720Y-118033336D01*
X158760952Y-118045159D01*
X158751066Y-118056066D01*
X158740159Y-118065952D01*
X158728336Y-118074720D01*
X158715710Y-118082288D01*
X158702403Y-118088582D01*
X158688543Y-118093541D01*
X158674264Y-118097118D01*
X158659703Y-118099278D01*
X158645000Y-118100000D01*
X158345000Y-118100000D01*
X158330297Y-118099278D01*
X158315736Y-118097118D01*
X158301457Y-118093541D01*
X158287597Y-118088582D01*
X158274290Y-118082288D01*
X158261664Y-118074720D01*
X158249841Y-118065952D01*
X158238934Y-118056066D01*
X158229048Y-118045159D01*
X158220280Y-118033336D01*
X158212712Y-118020710D01*
X158206418Y-118007403D01*
X158201459Y-117993543D01*
X158197882Y-117979264D01*
X158195722Y-117964703D01*
X158195000Y-117950000D01*
X158195000Y-116500000D01*
X158195722Y-116485297D01*
X158197882Y-116470736D01*
X158201459Y-116456457D01*
X158206418Y-116442597D01*
X158212712Y-116429290D01*
X158220280Y-116416664D01*
X158229048Y-116404841D01*
X158238934Y-116393934D01*
X158249841Y-116384048D01*
X158261664Y-116375280D01*
X158274290Y-116367712D01*
X158287597Y-116361418D01*
X158301457Y-116356459D01*
X158315736Y-116352882D01*
X158330297Y-116350722D01*
X158345000Y-116350000D01*
X158645000Y-116350000D01*
X158659703Y-116350722D01*
X158659703Y-116350722D01*
G37*
D28*
X158495000Y-117225000D03*
D29*
X135750000Y-99900000D03*
X133850000Y-99900000D03*
X133850000Y-97700000D03*
X134800000Y-97700000D03*
X135750000Y-97700000D03*
X133250000Y-115100000D03*
X134200000Y-115100000D03*
X135150000Y-115100000D03*
X135150000Y-112900000D03*
X133250000Y-112900000D03*
D30*
X122230000Y-84230000D03*
X105580000Y-84230000D03*
X112070000Y-84230000D03*
X118470000Y-84230000D03*
X176930000Y-84230000D03*
X108100000Y-91850000D03*
X110100000Y-91850000D03*
X112150000Y-91850000D03*
X105550000Y-91850000D03*
X130450000Y-91850000D03*
X134750000Y-98900000D03*
X146050000Y-99500000D03*
X122560000Y-91850000D03*
X121675000Y-103200000D03*
X123825000Y-100150000D03*
X157645100Y-112915700D03*
X176900000Y-91850000D03*
X159700000Y-91850000D03*
X164729827Y-97175000D03*
X134700000Y-93750002D03*
X149850000Y-89675000D03*
X159750000Y-94100000D03*
X119621300Y-106083100D03*
X119595900Y-107302300D03*
X119634000Y-108559600D03*
X119634000Y-109855000D03*
X119634000Y-111163100D03*
X130410000Y-94160000D03*
X119625000Y-96495000D03*
X119625000Y-99035000D03*
X119625000Y-104825000D03*
X121280000Y-94390000D03*
X145000000Y-100980000D03*
X146190000Y-106290000D03*
X161432157Y-113056609D03*
X148568047Y-95729153D03*
X152654000Y-94462600D03*
X163500000Y-94000000D03*
X132622509Y-98562226D03*
X132800000Y-94700000D03*
X159300000Y-99000000D03*
X163300000Y-109250000D03*
X161200000Y-107450000D03*
X147040300Y-110909000D03*
X145503600Y-110921700D03*
X128150000Y-119050000D03*
X128190000Y-122760000D03*
X131210000Y-122760000D03*
X147150000Y-119580000D03*
X147140000Y-122760000D03*
X164465403Y-113084597D03*
X172550000Y-115900000D03*
X170000000Y-115900000D03*
X155780000Y-118830000D03*
X159900000Y-112600000D03*
X172025000Y-119900000D03*
X110090000Y-89310000D03*
X133440000Y-89310000D03*
X147510000Y-89310000D03*
X174975010Y-89310000D03*
X108180000Y-86770000D03*
X148330000Y-86770000D03*
X134400000Y-88450000D03*
X174200000Y-86770000D03*
X145600000Y-93000002D03*
X141300000Y-93650000D03*
X158250000Y-123900000D03*
X159583333Y-123900000D03*
X157650000Y-94750000D03*
X160150000Y-97300000D03*
X120700000Y-116750000D03*
X134970000Y-111770000D03*
X123500000Y-116200000D03*
X123700000Y-112850000D03*
X142800000Y-104700000D03*
X153750000Y-99000000D03*
X123700000Y-111050000D03*
X152500000Y-98950000D03*
X142836027Y-103686027D03*
X123700000Y-109050000D03*
X142800000Y-102600000D03*
X151950000Y-98050000D03*
X123700000Y-107050000D03*
X145674847Y-96875153D03*
X149199600Y-94462600D03*
X123700000Y-105050000D03*
X144250000Y-97000000D03*
X149052015Y-93454579D03*
X123700000Y-103250000D03*
X144200000Y-96000000D03*
X147937652Y-93512340D03*
X121775000Y-100150000D03*
X121775000Y-97750000D03*
X108150000Y-95100000D03*
X147865800Y-105105100D03*
X144623200Y-105143400D03*
X147823200Y-107193400D03*
X144623200Y-107193400D03*
X172550000Y-122750000D03*
X171250000Y-122750000D03*
X162250000Y-123900000D03*
X160916666Y-123900000D03*
X168750000Y-122750000D03*
X170000000Y-122750000D03*
X153850000Y-115075000D03*
X163800000Y-103650000D03*
D31*
X122200000Y-84260000D02*
X122230000Y-84230000D01*
X122200000Y-86925000D02*
X122200000Y-84260000D01*
X105550000Y-84260000D02*
X105580000Y-84230000D01*
X105550000Y-86975000D02*
X105550000Y-84260000D01*
X118450000Y-84250000D02*
X118470000Y-84230000D01*
X118450000Y-86720000D02*
X118450000Y-84250000D01*
X176950000Y-84250000D02*
X176930000Y-84230000D01*
X176950000Y-86925000D02*
X176950000Y-84250000D01*
X105550000Y-89025000D02*
X105550000Y-91850000D01*
X105550000Y-93750000D02*
X105550000Y-91850000D01*
X106125000Y-95100000D02*
X106125000Y-94325000D01*
X106125000Y-94325000D02*
X105550000Y-93750000D01*
X158495000Y-118200000D02*
X158495000Y-117225000D01*
X159320000Y-119025000D02*
X158495000Y-118200000D01*
X164200000Y-119025000D02*
X159320000Y-119025000D01*
X135750000Y-99900000D02*
X134750000Y-98900000D01*
X146050000Y-101850000D02*
X146050000Y-99500000D01*
X146200000Y-103100000D02*
X146200000Y-102000000D01*
X146200000Y-102000000D02*
X146050000Y-101850000D01*
X119750000Y-86720000D02*
X119750000Y-89040000D01*
X122160001Y-91450001D02*
X122560000Y-91850000D01*
X119750000Y-89040000D02*
X122160001Y-91450001D01*
X123825000Y-101050000D02*
X123825000Y-100150000D01*
X121675000Y-103200000D02*
X123825000Y-101050000D01*
X157251400Y-113309400D02*
X157645100Y-112915700D01*
X158495000Y-117225000D02*
X157251400Y-115981400D01*
X157251400Y-115981400D02*
X157251400Y-113309400D01*
X176950000Y-91800000D02*
X176900000Y-91850000D01*
X176950000Y-88975000D02*
X176950000Y-91800000D01*
X168487500Y-94075000D02*
X165387500Y-97175000D01*
X165387500Y-97175000D02*
X164729827Y-97175000D01*
X135099999Y-93350003D02*
X134700000Y-93750002D01*
X135375000Y-91100000D02*
X135375000Y-93075002D01*
X135375000Y-93075002D02*
X135099999Y-93350003D01*
X147425000Y-85525000D02*
X147425000Y-84400000D01*
X149850000Y-89675000D02*
X149850000Y-87216998D01*
X149850000Y-87216998D02*
X148633002Y-86000000D01*
X148633002Y-86000000D02*
X147900000Y-86000000D01*
X147900000Y-86000000D02*
X147425000Y-85525000D01*
X119625000Y-104825000D02*
X119625000Y-104825000D01*
X119625000Y-96495000D02*
X119625000Y-96495000D01*
X162305000Y-115920000D02*
X163225000Y-115000000D01*
X162305000Y-117225000D02*
X162305000Y-115920000D01*
X163950000Y-117225000D02*
X164200000Y-116975000D01*
X162305000Y-117225000D02*
X163950000Y-117225000D01*
X119625000Y-99035000D02*
X119625000Y-99035000D01*
X119100000Y-92210000D02*
X120880001Y-93990001D01*
X120880001Y-93990001D02*
X121280000Y-94390000D01*
X119100000Y-89380000D02*
X119100000Y-92210000D01*
X129844315Y-94160000D02*
X130410000Y-94160000D01*
X123976410Y-94160000D02*
X129844315Y-94160000D01*
X121641410Y-96495000D02*
X123976410Y-94160000D01*
X119625000Y-96495000D02*
X121641410Y-96495000D01*
X134800000Y-97700000D02*
X133850000Y-97700000D01*
X146200000Y-109000000D02*
X146200000Y-106300000D01*
X146200000Y-106300000D02*
X146190000Y-106290000D01*
X163225000Y-115000000D02*
X161432157Y-113207157D01*
X161432157Y-113207157D02*
X161432157Y-113056609D01*
X146325001Y-93486107D02*
X148568047Y-95729153D01*
X145200000Y-90925000D02*
X146325001Y-92050001D01*
X146325001Y-92050001D02*
X146325001Y-93486107D01*
X152625000Y-91600000D02*
X152625000Y-94433600D01*
X152625000Y-94433600D02*
X152654000Y-94462600D01*
X163525000Y-94025000D02*
X163500000Y-94000000D01*
X159700000Y-93925000D02*
X163425000Y-93925000D01*
X163425000Y-93925000D02*
X163500000Y-94000000D01*
X172812500Y-92125000D02*
X171787500Y-91100000D01*
X164900000Y-94000000D02*
X167800000Y-91100000D01*
X163500000Y-94000000D02*
X164900000Y-94000000D01*
X171787500Y-91100000D02*
X167800000Y-91100000D01*
X163400000Y-93900000D02*
X163500000Y-94000000D01*
X133188194Y-98562226D02*
X132622509Y-98562226D01*
X133850000Y-97905000D02*
X133192774Y-98562226D01*
X133192774Y-98562226D02*
X133188194Y-98562226D01*
X133850000Y-97700000D02*
X133850000Y-97905000D01*
X132800000Y-94025000D02*
X132800000Y-94700000D01*
X134725000Y-91100000D02*
X134725000Y-92100000D01*
X134725000Y-92100000D02*
X132800000Y-94025000D01*
X121679999Y-93990001D02*
X121280000Y-94390000D01*
X123285001Y-92384999D02*
X121679999Y-93990001D01*
X123285001Y-90060001D02*
X123285001Y-92384999D01*
X122200000Y-88975000D02*
X123285001Y-90060001D01*
X160550000Y-100720000D02*
X160550000Y-100250000D01*
X160550000Y-100250000D02*
X159300000Y-99000000D01*
X163000000Y-109250000D02*
X163300000Y-109250000D01*
X161200000Y-107450000D02*
X163000000Y-109250000D01*
X161035000Y-115140000D02*
X161175000Y-115000000D01*
X161035000Y-117225000D02*
X161035000Y-115140000D01*
X146873200Y-112552300D02*
X147226400Y-112905500D01*
X146873200Y-108918400D02*
X146873200Y-110932400D01*
X146873200Y-110932400D02*
X146873200Y-112552300D01*
X145573200Y-112558700D02*
X145226400Y-112905500D01*
X145573200Y-108918400D02*
X145573200Y-110902400D01*
X145573200Y-110902400D02*
X145573200Y-112558700D01*
X145200000Y-87037500D02*
X145200000Y-88875000D01*
X112100000Y-86925000D02*
X112100000Y-89600000D01*
X112100000Y-86337500D02*
X112100000Y-86925000D01*
X153742500Y-113132500D02*
X153850000Y-113025000D01*
X151800000Y-113132500D02*
X153742500Y-113132500D01*
X131197200Y-112922200D02*
X131200000Y-112925000D01*
X131197200Y-110725300D02*
X131197200Y-112922200D01*
X133225000Y-112925000D02*
X133250000Y-112900000D01*
X131200000Y-112925000D02*
X133225000Y-112925000D01*
D32*
X152300000Y-121750000D02*
X151290000Y-122760000D01*
D31*
X112345000Y-110145000D02*
X112160000Y-109960000D01*
X112345000Y-118488000D02*
X112345000Y-110145000D01*
X126180000Y-118450000D02*
X127550000Y-118450000D01*
X127550000Y-118450000D02*
X128150000Y-119050000D01*
D32*
X128190000Y-122760000D02*
X102550000Y-122760000D01*
D31*
X131200000Y-112925000D02*
X131200000Y-112925000D01*
D32*
X131210000Y-122760000D02*
X128190000Y-122760000D01*
D31*
X147278400Y-115007500D02*
X147226400Y-114955500D01*
X151800000Y-115007500D02*
X147278400Y-115007500D01*
X147226400Y-114955500D02*
X147226400Y-119503600D01*
X147226400Y-119503600D02*
X147150000Y-119580000D01*
D32*
X151290000Y-122760000D02*
X147140000Y-122760000D01*
X147140000Y-122760000D02*
X131210000Y-122760000D01*
D31*
X163740000Y-111400000D02*
X163740000Y-112359194D01*
X163740000Y-112359194D02*
X164465403Y-113084597D01*
X108457500Y-118488000D02*
X110295000Y-118488000D01*
X172550000Y-117450000D02*
X172550000Y-115900000D01*
X170000000Y-117450000D02*
X170000000Y-115900000D01*
D32*
X151560000Y-118830000D02*
X155780000Y-118830000D01*
X149460000Y-120930000D02*
X151560000Y-118830000D01*
X102550000Y-120220000D02*
X103752081Y-120220000D01*
X103752081Y-120220000D02*
X104462081Y-120930000D01*
X104462081Y-120930000D02*
X106830000Y-120930000D01*
D31*
X106582500Y-120682500D02*
X106830000Y-120930000D01*
X106582500Y-118488000D02*
X106582500Y-120682500D01*
X128875001Y-120824999D02*
X128770000Y-120930000D01*
X128875001Y-118701999D02*
X128875001Y-120824999D01*
X127323002Y-117150000D02*
X128875001Y-118701999D01*
X126180000Y-117150000D02*
X127323002Y-117150000D01*
X120700000Y-120750000D02*
X120880000Y-120930000D01*
X120700000Y-118925000D02*
X120700000Y-120750000D01*
D32*
X106830000Y-120930000D02*
X120880000Y-120930000D01*
X120880000Y-120930000D02*
X128770000Y-120930000D01*
D31*
X145270000Y-115674100D02*
X145270000Y-120930000D01*
X145226400Y-115630500D02*
X145270000Y-115674100D01*
X145226400Y-114955500D02*
X145226400Y-115630500D01*
D32*
X128770000Y-120930000D02*
X145270000Y-120930000D01*
X145270000Y-120930000D02*
X149460000Y-120930000D01*
D31*
X161200000Y-105900000D02*
X161200000Y-103550000D01*
X161200000Y-111400000D02*
X161100000Y-111400000D01*
X161100000Y-111400000D02*
X159900000Y-112600000D01*
X168730000Y-118050000D02*
X168730000Y-117450000D01*
X169330001Y-118650001D02*
X168730000Y-118050000D01*
X170669999Y-118650001D02*
X169330001Y-118650001D01*
X171270000Y-118050000D02*
X170669999Y-118650001D01*
X171270000Y-117450000D02*
X171270000Y-118050000D01*
X167805500Y-117450000D02*
X168730000Y-117450000D01*
X162805510Y-112450010D02*
X167805500Y-117450000D01*
X161200000Y-111400000D02*
X162250010Y-112450010D01*
X162250010Y-112450010D02*
X162805510Y-112450010D01*
X171270000Y-117450000D02*
X171270000Y-119145000D01*
X171270000Y-119145000D02*
X172025000Y-119900000D01*
X133737200Y-111537200D02*
X133737200Y-110725300D01*
X134200000Y-112000000D02*
X133737200Y-111537200D01*
X134200000Y-113370000D02*
X134200000Y-112000000D01*
X133250000Y-115100000D02*
X133250000Y-114320000D01*
X133250000Y-114320000D02*
X134200000Y-113370000D01*
X135667800Y-103105300D02*
X136277200Y-103105300D01*
X133850000Y-100250000D02*
X133850000Y-99900000D01*
X136277200Y-103105300D02*
X137800000Y-101582500D01*
X137800000Y-101582500D02*
X137800000Y-99875000D01*
X133850000Y-100650000D02*
X133850000Y-99900000D01*
X136277200Y-103105300D02*
X136277200Y-103077200D01*
X136277200Y-103077200D02*
X133850000Y-100650000D01*
X135150000Y-115650000D02*
X135150000Y-115100000D01*
X134600000Y-116200000D02*
X135150000Y-115650000D01*
X132200000Y-116200000D02*
X134600000Y-116200000D01*
X131200000Y-114975000D02*
X131200000Y-115200000D01*
X131200000Y-115200000D02*
X132200000Y-116200000D01*
X135150000Y-114250000D02*
X135150000Y-115100000D01*
X136277200Y-110725300D02*
X136277200Y-113122800D01*
X136277200Y-113122800D02*
X135150000Y-114250000D01*
X133425000Y-89325000D02*
X133440000Y-89310000D01*
X133425000Y-91100000D02*
X133425000Y-89325000D01*
X147425000Y-89395000D02*
X147510000Y-89310000D01*
X147425000Y-91600000D02*
X147425000Y-89395000D01*
X174975010Y-89875685D02*
X174975010Y-89310000D01*
X174975010Y-92724990D02*
X174975010Y-89875685D01*
X173625000Y-94075000D02*
X174975010Y-92724990D01*
X172812500Y-94075000D02*
X173625000Y-94075000D01*
X108100000Y-86850000D02*
X108180000Y-86770000D01*
X108100000Y-89600000D02*
X108100000Y-86850000D01*
X148330000Y-89563002D02*
X148330000Y-86770000D01*
X148075000Y-89818002D02*
X148330000Y-89563002D01*
X148075000Y-91600000D02*
X148075000Y-89818002D01*
X134400000Y-89423002D02*
X134400000Y-88450000D01*
X134075000Y-91100000D02*
X134075000Y-89748002D01*
X134075000Y-89748002D02*
X134400000Y-89423002D01*
X173625000Y-93425000D02*
X174250000Y-92800000D01*
X174250000Y-92800000D02*
X174250000Y-87090000D01*
X172812500Y-93425000D02*
X173625000Y-93425000D01*
X174250000Y-87090000D02*
X173930000Y-86770000D01*
X141300000Y-92750000D02*
X141300000Y-93650000D01*
X138200000Y-89650000D02*
X141300000Y-92750000D01*
X136475000Y-89650000D02*
X138200000Y-89650000D01*
X136025000Y-91100000D02*
X136025000Y-90100000D01*
X136025000Y-90100000D02*
X136475000Y-89650000D01*
X145600000Y-93786411D02*
X145600000Y-93000002D01*
X157400000Y-104340000D02*
X156153589Y-104340000D01*
X156153589Y-104340000D02*
X145600000Y-93786411D01*
X150675000Y-92725000D02*
X150675000Y-91600000D01*
X150675000Y-98225000D02*
X150675000Y-92725000D01*
X157400000Y-101800000D02*
X154250000Y-101800000D01*
X154250000Y-101800000D02*
X150675000Y-98225000D01*
X137325000Y-86200000D02*
X137325000Y-85200000D01*
X156224999Y-105099999D02*
X137325000Y-86200000D01*
X156224999Y-105704999D02*
X156224999Y-105099999D01*
X157400000Y-106880000D02*
X156224999Y-105704999D01*
X145200000Y-84575000D02*
X145200000Y-85162500D01*
X146725000Y-83050000D02*
X145200000Y-84575000D01*
X147850000Y-83050000D02*
X146725000Y-83050000D01*
X148075000Y-83275000D02*
X147850000Y-83050000D01*
X148075000Y-84400000D02*
X148075000Y-83275000D01*
X158495000Y-123895000D02*
X158500000Y-123900000D01*
X158495000Y-122375000D02*
X158495000Y-123895000D01*
X159765000Y-122375000D02*
X159765000Y-123785425D01*
X159765000Y-123785425D02*
X159653966Y-123896459D01*
X159000000Y-103814998D02*
X161900000Y-100914998D01*
X157400000Y-109420000D02*
X159000000Y-107820000D01*
X159000000Y-107820000D02*
X159000000Y-103814998D01*
X157650000Y-94155998D02*
X157650000Y-94750000D01*
X148743000Y-84284000D02*
X148743000Y-85248998D01*
X148743000Y-85248998D02*
X157650000Y-94155998D01*
X161850000Y-99000000D02*
X161850000Y-100720000D01*
X160150000Y-97300000D02*
X161850000Y-99000000D01*
X135150000Y-113250000D02*
X135150000Y-112900000D01*
X134200000Y-115100000D02*
X134200000Y-114200000D01*
X134200000Y-114200000D02*
X135150000Y-113250000D01*
X135150000Y-112900000D02*
X135150000Y-111950000D01*
X135150000Y-111950000D02*
X134970000Y-111770000D01*
X123520000Y-117800000D02*
X123520000Y-116220000D01*
X123520000Y-116220000D02*
X123500000Y-116200000D01*
X125375000Y-111175000D02*
X125775000Y-111175000D01*
X123700000Y-112850000D02*
X125375000Y-111175000D01*
X164798942Y-96450000D02*
X167823942Y-93425000D01*
X156300000Y-96450000D02*
X164798942Y-96450000D01*
X153750000Y-99000000D02*
X156300000Y-96450000D01*
X167823942Y-93425000D02*
X168487500Y-93425000D01*
X126125000Y-111175000D02*
X125775000Y-111175000D01*
X129149990Y-108150010D02*
X126125000Y-111175000D01*
X138749990Y-108150010D02*
X129149990Y-108150010D01*
X142800000Y-104700000D02*
X142200000Y-104700000D01*
X142200000Y-104700000D02*
X138749990Y-108150010D01*
X124795000Y-109905000D02*
X125775000Y-109905000D01*
X123700000Y-111050000D02*
X123700000Y-111000000D01*
X123700000Y-111000000D02*
X124795000Y-109905000D01*
X152500000Y-98950000D02*
X155450011Y-95999989D01*
X155450011Y-95999989D02*
X164598953Y-95999989D01*
X168362510Y-92899990D02*
X168487500Y-92775000D01*
X167698952Y-92899990D02*
X168362510Y-92899990D01*
X164598953Y-95999989D02*
X167698952Y-92899990D01*
X142513973Y-103686027D02*
X142836027Y-103686027D01*
X138500000Y-107700000D02*
X142513973Y-103686027D01*
X128855000Y-107700000D02*
X138500000Y-107700000D01*
X126650000Y-109905000D02*
X128855000Y-107700000D01*
X125775000Y-109905000D02*
X126650000Y-109905000D01*
X125760000Y-108650000D02*
X125775000Y-108635000D01*
X123700000Y-109050000D02*
X124100000Y-108650000D01*
X124100000Y-108650000D02*
X125760000Y-108650000D01*
X164250022Y-95549978D02*
X167675000Y-92125000D01*
X154450022Y-95549978D02*
X164250022Y-95549978D01*
X167675000Y-92125000D02*
X168487500Y-92125000D01*
X151950000Y-98050000D02*
X154450022Y-95549978D01*
X128663600Y-107249989D02*
X138246745Y-107249989D01*
X142800000Y-102696734D02*
X142800000Y-102600000D01*
X125775000Y-108635000D02*
X127278589Y-108635000D01*
X127278589Y-108635000D02*
X128663600Y-107249989D01*
X138246745Y-107249989D02*
X142800000Y-102696734D01*
X125740000Y-107400000D02*
X125775000Y-107365000D01*
X123700000Y-107050000D02*
X124050000Y-107400000D01*
X124050000Y-107400000D02*
X125740000Y-107400000D01*
X150025000Y-91600000D02*
X150025000Y-93637200D01*
X149599599Y-94062601D02*
X149199600Y-94462600D01*
X150025000Y-93637200D02*
X149599599Y-94062601D01*
X145274848Y-97275152D02*
X145674847Y-96875153D01*
X126339999Y-106800001D02*
X126660001Y-106800001D01*
X141565222Y-100984778D02*
X145274848Y-97275152D01*
X125775000Y-107365000D02*
X126339999Y-106800001D01*
X126660001Y-106800001D02*
X126665702Y-106794300D01*
X126665702Y-106794300D02*
X138066024Y-106794300D01*
X138066024Y-106794300D02*
X141565222Y-103295102D01*
X141565222Y-103295102D02*
X141565222Y-100984778D01*
X124745000Y-106095000D02*
X125775000Y-106095000D01*
X123700000Y-105050000D02*
X124745000Y-106095000D01*
X149375000Y-93131594D02*
X149052015Y-93454579D01*
X149375000Y-91600000D02*
X149375000Y-93131594D01*
X125775000Y-106095000D02*
X138128913Y-106095000D01*
X141115211Y-100134789D02*
X143850001Y-97399999D01*
X143850001Y-97399999D02*
X144250000Y-97000000D01*
X141115211Y-103108702D02*
X141115211Y-100134789D01*
X138128913Y-106095000D02*
X141115211Y-103108702D01*
X125275000Y-104825000D02*
X125775000Y-104825000D01*
X123700000Y-103250000D02*
X125275000Y-104825000D01*
X147937660Y-93512340D02*
X147937652Y-93512340D01*
X148725000Y-91600000D02*
X148725000Y-92725000D01*
X148725000Y-92725000D02*
X147937660Y-93512340D01*
X143800001Y-96399999D02*
X144200000Y-96000000D01*
X138279102Y-105308400D02*
X140665200Y-102922302D01*
X140665200Y-99534800D02*
X143800001Y-96399999D01*
X140665200Y-102922302D02*
X140665200Y-99534800D01*
X126258400Y-105308400D02*
X138279102Y-105308400D01*
X125775000Y-104825000D02*
X126258400Y-105308400D01*
X119625000Y-100305000D02*
X121620000Y-100305000D01*
X121620000Y-100305000D02*
X121775000Y-100150000D01*
X119625000Y-97765000D02*
X121760000Y-97765000D01*
X121760000Y-97765000D02*
X121775000Y-97750000D01*
X132300000Y-85200000D02*
X132775000Y-85200000D01*
X122190000Y-95310000D02*
X132300000Y-85200000D01*
X118660000Y-95310000D02*
X122190000Y-95310000D01*
X117826628Y-94476628D02*
X118660000Y-95310000D01*
X108175000Y-95100000D02*
X108798372Y-94476628D01*
X108798372Y-94476628D02*
X117826628Y-94476628D01*
X148173200Y-103018400D02*
X148173200Y-102518400D01*
X150148200Y-103018400D02*
X150223200Y-102943400D01*
X148173200Y-103018400D02*
X150148200Y-103018400D01*
X148173200Y-99859610D02*
X148173200Y-103018400D01*
X148173200Y-98348200D02*
X148173200Y-99859610D01*
X136025000Y-86200000D02*
X148173200Y-98348200D01*
X136025000Y-85200000D02*
X136025000Y-86200000D01*
X149423200Y-104993400D02*
X150223200Y-104993400D01*
X148523200Y-104993400D02*
X149423200Y-104993400D01*
X147523200Y-103018400D02*
X147523200Y-103993400D01*
X147865800Y-105105100D02*
X148250350Y-104720550D01*
X147523200Y-103993400D02*
X148250350Y-104720550D01*
X148250350Y-104720550D02*
X148523200Y-104993400D01*
X146873200Y-101168400D02*
X146873200Y-103018400D01*
X147073200Y-100968400D02*
X146873200Y-101168400D01*
X145723200Y-105143400D02*
X144623200Y-105143400D01*
X146873200Y-103993400D02*
X145723200Y-105143400D01*
X146873200Y-103018400D02*
X146873200Y-103993400D01*
X147523200Y-108918400D02*
X148173200Y-108918400D01*
X148173200Y-108918400D02*
X148173200Y-107543400D01*
X148173200Y-107543400D02*
X147823200Y-107193400D01*
X144273200Y-108918400D02*
X144923200Y-108918400D01*
X144273200Y-108918400D02*
X144273200Y-107543400D01*
X144273200Y-107543400D02*
X144623200Y-107193400D01*
X135875000Y-97825000D02*
X135750000Y-97700000D01*
X137800000Y-97825000D02*
X135875000Y-97825000D01*
X138374989Y-89199989D02*
X135375000Y-86200000D01*
X135375000Y-86200000D02*
X135375000Y-85200000D01*
X138386400Y-89199989D02*
X138374989Y-89199989D01*
X137800000Y-97825000D02*
X138600000Y-97825000D01*
X138600000Y-97825000D02*
X142075001Y-94349999D01*
X142075001Y-94349999D02*
X142075001Y-92888590D01*
X142075001Y-92888590D02*
X138386400Y-89199989D01*
X125775000Y-99035000D02*
X125775000Y-100305000D01*
X125775000Y-99035000D02*
X131124413Y-99035000D01*
X137325000Y-92100000D02*
X137325000Y-91100000D01*
X137325000Y-92834413D02*
X137325000Y-92100000D01*
X131124413Y-99035000D02*
X137325000Y-92834413D01*
X136575001Y-91199999D02*
X136675000Y-91100000D01*
X125775000Y-96495000D02*
X125775000Y-97765000D01*
X136675000Y-92100000D02*
X136675000Y-91100000D01*
X136675000Y-92848002D02*
X136675000Y-92100000D01*
X125775000Y-97765000D02*
X131758004Y-97765000D01*
X131758004Y-97765000D02*
X136675000Y-92848002D01*
X159765000Y-116250000D02*
X159765000Y-117225000D01*
X159765000Y-113865000D02*
X159765000Y-116250000D01*
X155450000Y-109550000D02*
X159765000Y-113865000D01*
X155450000Y-104975000D02*
X155450000Y-106750000D01*
X136675000Y-86200000D02*
X155450000Y-104975000D01*
X136675000Y-85200000D02*
X136675000Y-86200000D01*
X155450000Y-106500000D02*
X155450000Y-106750000D01*
X155450000Y-106750000D02*
X155450000Y-109550000D01*
X172550000Y-122750000D02*
X172550000Y-124850000D01*
X171250000Y-122750000D02*
X171250000Y-124850000D01*
X162305000Y-122375000D02*
X162305000Y-123855000D01*
X161035000Y-122375000D02*
X161035000Y-123785008D01*
X170000000Y-122750000D02*
X170000000Y-124850000D01*
X168750000Y-124830000D02*
X168730000Y-124850000D01*
X168750000Y-122750000D02*
X168750000Y-124830000D01*
X163740000Y-103710000D02*
X163800000Y-103650000D01*
X163740000Y-105900000D02*
X163740000Y-103710000D01*
M02*
