M48
; DRILL file {KiCad (5.1.4)-1} date 10/11/2019 4:00:18 PM
; FORMAT={-:-/ absolute / inch / decimal}
; #@! TF.CreationDate,2019-10-11T16:00:18-04:00
; #@! TF.GenerationSoftware,Kicad,Pcbnew,(5.1.4)-1
; #@! TF.FileFunction,Plated,1,2,PTH
FMAT,2
INCH
T1C0.0157
T2C0.0315
T3C0.0394
T4C0.1772
%
G90
G05
T1
X4.1555Y-3.6161
X4.1567Y-3.3161
X4.2559Y-3.6161
X4.2579Y-3.7441
X4.2591Y-3.4161
X4.3343Y-3.5161
X4.3346Y-3.6161
X4.4122Y-3.3161
X4.4154Y-3.6161
X4.6642Y-3.3161
X4.7085Y-4.2245
X4.7095Y-4.1765
X4.7096Y-3.799
X4.7096Y-3.899
X4.7096Y-4.127
X4.71Y-4.274
X4.71Y-4.325
X4.71Y-4.3765
X4.752Y-4.5965
X4.7748Y-3.7161
X4.7904Y-4.063
X4.7943Y-3.8484
X4.7943Y-3.9429
X4.8122Y-3.3161
X4.8252Y-3.6161
X4.8622Y-4.5748
X4.8701Y-4.065
X4.8701Y-4.1358
X4.8701Y-4.2146
X4.8701Y-4.2933
X4.8701Y-4.372
X4.8701Y-4.4429
X4.875Y-3.9429
X5.0453Y-4.687
X5.0469Y-4.8331
X5.1343Y-3.7071
X5.1358Y-3.6161
X5.1657Y-4.8331
X5.2214Y-3.8804
X5.2283Y-3.7283
X5.2535Y-3.5161
X5.2913Y-3.4823
X5.3031Y-3.6909
X5.3051Y-3.8937
X5.3138Y-4.4004
X5.563Y-3.687
X5.622Y-4.0394
X5.622Y-4.122
X5.6235Y-4.0821
X5.6772Y-3.7795
X5.6791Y-3.8189
X5.6938Y-4.1395
X5.6938Y-4.2202
X5.7087Y-3.9756
X5.7285Y-4.367
X5.7323Y-3.6614
X5.7352Y-3.814
X5.75Y-3.9173
X5.7555Y-4.1846
X5.789Y-4.3665
X5.7929Y-4.8331
X5.7933Y-4.7079
X5.8075Y-3.5161
X5.8198Y-4.2202
X5.8215Y-4.138
X5.8243Y-3.6816
X5.8398Y-3.4161
X5.8491Y-3.7689
X5.8682Y-3.6793
X5.874Y-3.719
X5.8996Y-3.5305
X5.9823Y-3.8602
X6.0039Y-3.8957
X6.01Y-3.719
X6.0531Y-3.8976
X6.0571Y-4.5305
X6.1331Y-4.6783
X6.2065Y-4.4455
X6.2067Y-3.7303
X6.2303Y-4.878
X6.2717Y-3.8976
X6.2828Y-4.878
X6.2874Y-3.6161
X6.2894Y-3.7047
X6.2953Y-4.4331
X6.3051Y-3.8307
X6.3353Y-4.878
X6.3465Y-4.2303
X6.3556Y-4.451
X6.3878Y-4.878
X6.4291Y-4.3012
X6.437Y-3.7008
X6.4488Y-4.0807
X6.475Y-4.4521
X6.4854Y-3.8258
X6.6437Y-4.8327
X6.6929Y-4.563
X6.6929Y-4.8327
X6.7421Y-4.8327
X6.7726Y-4.7205
X6.7933Y-4.563
X6.7933Y-4.8327
X6.8583Y-3.4161
X6.8888Y-3.5161
X6.9646Y-3.6161
X6.9657Y-3.3161
T2
X5.1652Y-4.0593
X5.1652Y-4.3593
X5.2652Y-4.0593
X5.2652Y-4.3593
X5.3652Y-4.0593
X5.3652Y-4.3593
X5.4652Y-4.0593
X5.4652Y-4.3593
T3
X5.9961Y-4.7933
X6.0961Y-4.7933
X4.0374Y-4.7331
X4.0374Y-4.8331
X4.0374Y-4.9331
X4.0236Y-3.3142
X4.0236Y-3.4142
X4.0236Y-3.5142
X4.0236Y-3.6142
X7.1063Y-3.315
X7.1063Y-3.415
X7.1063Y-3.515
X7.1063Y-3.615
X6.1969Y-4.0079
X6.1969Y-4.1079
X6.1969Y-4.2079
X6.1969Y-4.3079
T4
X4.0157Y-3.9291
X7.1157Y-4.3291
X6.7157Y-4.3291
X4.4157Y-3.9291
X7.1157Y-3.9291
X4.4157Y-4.3291
X4.0157Y-4.3291
X6.7157Y-3.9291
T0
M30
